<svg id="svg" version="1.1" xmlns="http://www.w3.org/2000/svg" xmlns:xlink="http://www.w3.org/1999/xlink" width="400" height="400" viewBox="0, 0, 400,400"><g id="svgg"><path id="path0" d="M152.162 2.005 C 150.973 3.194,150.000 36.954,150.000 77.027 L 150.000 149.887 75.781 150.725 L 1.563 151.563 1.563 200.000 L 1.563 248.438 75.725 249.275 L 149.887 250.113 150.725 324.275 L 151.563 398.438 200.000 398.438 L 248.438 398.438 249.275 324.275 L 250.113 250.113 324.275 249.275 L 398.438 248.438 398.438 200.000 L 398.438 151.563 324.275 150.725 L 250.113 149.887 249.275 75.725 L 248.438 1.563 201.380 0.703 C 175.499 0.230,153.350 0.816,152.162 2.005 " stroke="none" fill="#000000" fill-rule="evenodd"></path></g></svg>