<svg id="svg" version="1.1" xmlns="http://www.w3.org/2000/svg" xmlns:xlink="http://www.w3.org/1999/xlink" width="400" height="400" viewBox="0, 0, 400,400"><g id="svgg"><path id="path0" d="M151.600 0.800 C 151.600 1.240,151.814 1.600,152.076 1.600 C 152.339 1.600,152.221 1.843,151.815 2.139 C 151.351 2.479,151.197 2.872,151.401 3.201 C 151.614 3.546,151.567 3.627,151.262 3.438 C 151.008 3.281,150.786 2.848,150.770 2.476 C 150.753 2.104,150.507 2.430,150.224 3.200 C 149.937 3.982,149.450 4.580,149.121 4.556 C 148.798 4.531,148.533 4.729,148.533 4.995 C 148.533 5.299,148.993 5.429,149.767 5.344 C 150.680 5.243,150.844 5.309,150.400 5.598 C 149.964 5.881,149.943 5.989,150.324 5.994 C 150.616 5.997,150.722 6.203,150.563 6.461 C 150.360 6.788,150.144 6.738,149.816 6.289 C 149.502 5.860,149.169 5.774,148.777 6.023 C 148.295 6.328,148.310 6.389,148.867 6.394 C 149.233 6.397,149.615 6.625,149.715 6.900 C 149.952 7.551,151.453 6.698,151.290 6.006 C 151.229 5.748,151.498 5.599,151.890 5.674 C 152.638 5.818,152.988 7.837,152.334 8.241 C 152.143 8.359,152.074 8.597,152.181 8.770 C 152.288 8.943,151.931 8.999,151.388 8.896 C 150.645 8.754,150.400 8.878,150.400 9.400 C 150.400 9.889,150.171 10.034,149.626 9.891 C 148.373 9.563,148.400 8.034,148.400 79.633 L 148.400 148.400 79.376 148.400 C 38.849 148.400,10.444 148.548,10.574 148.758 C 10.696 148.955,10.553 149.209,10.257 149.323 C 9.961 149.436,9.287 150.442,8.759 151.558 C 7.774 153.642,6.972 154.300,7.369 152.700 C 7.492 152.205,7.489 152.026,7.362 152.302 C 7.235 152.579,6.969 152.705,6.770 152.582 C 6.572 152.459,6.516 152.638,6.647 152.979 C 6.778 153.321,6.702 153.600,6.478 153.600 C 6.047 153.600,6.109 152.274,6.596 151.100 C 6.769 150.680,6.708 150.400,6.443 150.400 C 6.199 150.400,6.000 150.670,6.000 151.000 C 6.000 151.330,5.850 151.600,5.667 151.600 C 5.483 151.600,5.333 151.330,5.333 151.000 C 5.333 150.670,5.478 150.400,5.654 150.400 C 5.831 150.400,5.860 150.085,5.720 149.700 C 5.490 149.072,5.553 149.078,6.332 149.762 C 7.099 150.436,7.200 150.447,7.200 149.862 C 7.200 149.029,8.345 148.990,8.660 149.812 C 8.863 150.341,8.965 150.328,9.412 149.716 C 9.951 148.978,9.838 148.400,9.153 148.400 C 8.933 148.400,8.876 148.599,9.026 148.843 C 9.212 149.142,9.019 149.196,8.431 149.010 C 7.935 148.852,7.312 148.941,6.981 149.216 C 6.571 149.556,6.400 149.566,6.400 149.249 C 6.400 148.604,5.480 148.696,4.576 149.433 C 3.811 150.057,3.811 150.062,4.600 149.809 C 5.224 149.609,5.294 149.659,4.921 150.036 C 4.546 150.413,4.207 150.366,3.375 149.820 L 2.308 149.122 3.032 150.346 C 3.591 151.292,3.875 151.470,4.286 151.128 C 4.701 150.785,4.763 150.832,4.566 151.343 C 4.426 151.709,4.511 152.000,4.757 152.000 C 5.001 152.000,5.200 152.191,5.200 152.424 C 5.200 152.657,4.994 152.720,4.742 152.564 C 4.424 152.368,4.348 152.616,4.493 153.372 C 4.628 154.079,4.510 154.536,4.158 154.672 C 3.763 154.823,3.722 155.080,4.007 155.614 C 4.545 156.619,4.502 156.814,3.800 156.545 C 3.470 156.418,3.200 155.979,3.200 155.570 C 3.200 155.073,3.001 154.902,2.602 155.054 C 2.274 155.181,2.103 155.442,2.222 155.636 C 2.342 155.830,1.936 155.925,1.320 155.848 C 0.704 155.771,0.515 155.786,0.900 155.882 C 1.285 155.977,1.600 156.234,1.600 156.451 C 1.600 156.669,1.761 156.748,1.958 156.626 C 2.155 156.504,2.411 156.652,2.527 156.954 C 2.688 157.374,2.415 157.460,1.369 157.319 C 0.275 157.172,-0.000 157.271,-0.000 157.814 C -0.000 158.319,0.251 158.445,0.980 158.306 C 1.526 158.201,1.925 158.299,1.880 158.527 C 1.836 158.751,2.250 159.172,2.800 159.461 L 3.800 159.988 2.600 160.022 C 1.583 160.051,1.522 160.106,2.200 160.380 C 2.877 160.654,2.769 160.749,1.500 160.997 C -0.471 161.381,-0.573 162.464,1.374 162.333 C 2.130 162.282,2.659 162.095,2.549 161.917 C 2.227 161.396,3.612 161.052,4.094 161.534 C 4.414 161.854,4.352 162.044,3.867 162.230 C 3.500 162.370,3.200 162.861,3.200 163.319 C 3.200 164.140,3.190 164.141,2.570 163.376 C 2.224 162.949,2.070 162.870,2.229 163.200 C 2.463 163.687,2.416 163.706,1.979 163.300 C -0.097 161.373,0.000 159.520,0.000 201.000 C 0.000 238.933,0.006 239.200,0.800 239.200 C 1.240 239.200,1.600 238.990,1.600 238.733 C 1.600 237.978,2.112 238.709,2.622 240.193 C 2.883 240.951,2.994 241.673,2.870 241.797 C 2.225 242.442,2.542 243.121,3.415 242.963 C 3.929 242.870,4.480 243.006,4.640 243.265 C 4.837 243.583,4.715 243.653,4.266 243.481 C 3.897 243.339,3.600 243.419,3.600 243.659 C 3.600 243.898,3.246 244.001,2.814 243.888 C 2.381 243.775,2.043 243.799,2.061 243.941 C 2.174 244.805,1.888 246.127,1.724 245.500 C 1.472 244.536,0.000 244.582,0.000 245.553 C 0.000 246.662,2.009 246.964,2.712 245.962 C 3.005 245.543,3.511 245.200,3.835 245.200 C 4.739 245.200,4.944 246.259,4.236 247.270 C 3.886 247.770,3.597 248.003,3.594 247.789 C 3.591 247.575,3.413 247.670,3.200 248.000 C 2.956 248.377,2.810 248.419,2.806 248.114 C 2.803 247.847,3.153 247.439,3.585 247.208 C 4.365 246.790,4.313 245.600,3.514 245.600 C 3.294 245.600,3.222 245.879,3.353 246.221 C 3.484 246.562,3.437 246.746,3.249 246.630 C 2.814 246.362,1.381 247.914,1.736 248.269 C 1.881 248.414,2.001 248.278,2.002 247.967 C 2.005 247.363,3.223 249.454,3.364 250.304 C 3.410 250.581,3.689 251.031,3.983 251.304 C 4.416 251.706,4.454 251.686,4.182 251.200 C 3.915 250.722,3.964 250.691,4.423 251.045 C 5.089 251.560,6.466 251.630,6.159 251.133 C 6.045 250.950,6.143 250.800,6.376 250.800 C 6.609 250.800,6.800 250.991,6.800 251.224 C 6.800 251.457,6.992 251.528,7.227 251.383 C 7.462 251.238,7.558 250.867,7.440 250.560 C 7.299 250.193,7.506 250.000,8.041 250.000 C 8.783 250.000,8.800 250.057,8.229 250.629 C 7.883 250.974,7.600 251.330,7.600 251.420 C 7.600 251.510,39.222 251.589,77.871 251.596 C 116.520 251.603,148.198 251.665,148.268 251.734 C 148.337 251.803,148.398 283.239,148.403 321.590 C 148.409 359.942,148.524 391.209,148.659 391.074 C 148.794 390.939,149.263 391.020,149.701 391.254 C 150.138 391.488,150.402 391.527,150.286 391.340 C 150.171 391.153,150.569 391.000,151.172 391.000 C 151.774 391.000,152.267 391.200,152.267 391.445 C 152.267 391.690,151.934 391.803,151.527 391.697 C 151.003 391.560,150.853 391.672,151.011 392.085 C 151.183 392.533,150.965 392.627,150.065 392.495 C 149.421 392.400,148.773 392.520,148.624 392.762 C 148.450 393.042,148.782 393.200,149.544 393.200 C 150.199 393.200,151.049 393.321,151.433 393.468 C 151.889 393.643,152.037 393.583,151.859 393.296 C 151.709 393.053,151.757 392.750,151.966 392.621 C 152.553 392.258,152.855 393.060,152.296 393.497 C 152.023 393.710,151.170 394.088,150.400 394.336 C 149.125 394.749,149.070 394.736,149.779 394.192 C 150.532 393.617,150.524 393.599,149.559 393.679 C 148.816 393.740,148.560 393.991,148.560 394.655 C 148.560 395.146,148.704 395.459,148.880 395.351 C 149.056 395.242,149.413 395.284,149.673 395.445 C 149.999 395.647,149.905 395.833,149.373 396.041 C 148.621 396.335,148.622 396.345,149.400 396.378 C 150.060 396.406,150.095 396.478,149.603 396.789 C 149.128 397.090,149.108 397.268,149.503 397.663 C 149.899 398.059,150.001 398.042,150.006 397.580 C 150.011 397.087,150.070 397.090,150.400 397.600 C 150.742 398.129,150.788 398.126,150.794 397.580 C 150.797 397.239,150.632 396.789,150.427 396.580 C 150.195 396.344,150.292 395.897,150.681 395.400 C 151.186 394.755,151.261 394.735,151.066 395.300 C 150.934 395.685,150.994 396.000,151.200 396.000 C 151.406 396.000,151.457 396.315,151.313 396.700 C 151.083 397.313,151.134 397.332,151.725 396.851 C 152.464 396.250,152.666 396.774,151.965 397.475 C 151.652 397.788,151.655 397.987,151.975 398.185 C 152.220 398.336,152.387 398.311,152.346 398.130 C 152.176 397.363,152.898 396.463,153.499 396.693 C 153.901 396.848,154.032 396.775,153.857 396.493 C 153.706 396.249,153.902 395.864,154.292 395.637 C 154.681 395.410,154.787 395.219,154.526 395.212 C 154.233 395.205,154.127 394.794,154.246 394.135 C 154.423 393.158,154.380 393.116,153.720 393.635 C 153.064 394.150,153.049 394.138,153.545 393.504 C 154.232 392.628,154.800 392.953,154.800 394.224 C 154.800 394.761,154.993 395.200,155.229 395.200 C 155.464 395.200,155.366 395.491,155.010 395.848 C 154.252 396.605,154.523 397.128,155.327 396.460 C 155.628 396.211,155.992 396.125,156.137 396.270 C 156.682 396.815,156.362 397.069,155.218 397.001 C 154.568 396.962,153.803 397.079,153.518 397.259 C 153.132 397.504,153.125 397.589,153.490 397.594 C 153.821 397.598,153.902 397.990,153.740 398.800 C 153.514 399.929,153.574 400.000,154.750 400.000 C 155.809 400.000,156.000 399.851,156.000 399.024 C 156.000 398.487,156.147 397.956,156.328 397.845 C 156.508 397.733,156.577 398.173,156.482 398.821 C 156.339 399.798,156.449 400.000,157.127 400.000 C 157.641 400.000,157.992 399.697,158.072 399.184 C 158.248 398.059,158.972 398.002,159.128 399.100 C 159.267 400.078,160.000 400.358,160.000 399.433 C 160.000 398.384,159.519 397.600,158.857 397.568 C 158.422 397.547,158.373 397.467,158.713 397.331 C 158.996 397.217,159.491 397.343,159.813 397.611 C 160.242 397.967,160.400 397.974,160.400 397.636 C 160.400 397.382,159.995 397.023,159.500 396.838 C 158.790 396.573,158.956 396.511,160.284 396.544 C 161.383 396.571,161.766 396.699,161.384 396.913 C 161.063 397.093,160.800 397.511,160.800 397.843 C 160.800 398.176,160.954 398.352,161.142 398.236 C 161.330 398.119,161.399 398.469,161.296 399.012 C 161.158 399.733,161.281 400.000,161.753 400.000 C 162.109 400.000,162.403 399.685,162.406 399.300 C 162.409 398.915,162.589 398.330,162.806 398.000 C 163.085 397.573,163.127 397.776,162.949 398.700 L 162.700 400.000 200.950 400.000 C 238.933 400.000,239.200 399.994,239.200 399.200 C 239.200 398.760,239.009 398.400,238.776 398.400 C 238.543 398.400,238.474 398.204,238.622 397.965 C 238.769 397.726,239.230 397.619,239.646 397.728 C 240.061 397.836,240.300 397.762,240.177 397.563 C 239.796 396.947,238.000 397.143,238.000 397.800 C 238.000 398.474,236.982 398.617,236.598 397.997 C 236.461 397.776,236.631 397.486,236.975 397.354 C 237.319 397.222,237.605 396.729,237.612 396.257 C 237.623 395.466,237.657 395.455,238.044 396.122 C 238.391 396.718,238.571 396.756,239.076 396.337 C 239.578 395.921,239.776 395.952,240.187 396.515 C 240.713 397.234,241.425 397.487,241.003 396.805 C 240.866 396.583,241.016 396.508,241.343 396.634 C 242.012 396.890,242.550 395.660,242.580 393.800 C 242.598 392.739,242.739 392.599,243.800 392.594 C 244.460 392.591,245.270 392.421,245.600 392.217 C 246.102 391.907,246.118 391.948,245.695 392.470 C 245.161 393.130,245.451 393.570,246.800 394.151 C 247.130 394.293,246.995 394.334,246.500 394.242 C 245.828 394.117,245.600 394.264,245.600 394.822 C 245.600 395.233,245.248 395.897,244.817 396.299 C 244.043 397.019,244.046 397.029,245.041 397.112 C 245.787 397.173,246.031 397.014,245.979 396.498 C 245.849 395.217,245.996 394.750,246.443 395.026 C 246.751 395.217,246.721 395.404,246.343 395.644 C 246.044 395.833,245.989 395.991,246.220 395.994 C 246.451 395.997,246.856 395.784,247.120 395.520 C 247.493 395.147,247.601 395.169,247.606 395.620 C 247.611 396.091,247.676 396.099,247.951 395.666 C 248.137 395.372,248.449 395.102,248.645 395.066 C 248.840 395.030,248.972 394.756,248.937 394.457 C 248.891 394.053,248.990 394.030,249.328 394.368 C 249.932 394.972,249.182 396.179,248.154 396.257 C 247.739 396.289,247.175 396.334,246.900 396.357 C 246.122 396.424,246.312 397.601,247.100 397.594 C 247.697 397.589,247.712 397.532,247.200 397.205 C 246.763 396.926,247.007 396.837,248.100 396.876 C 249.326 396.920,249.606 397.082,249.632 397.765 C 249.649 398.224,249.754 398.374,249.866 398.098 C 249.977 397.821,250.203 397.678,250.367 397.780 C 250.532 397.882,250.667 397.703,250.667 397.382 C 250.667 397.062,250.472 396.795,250.233 396.788 C 249.995 396.781,250.108 396.596,250.483 396.377 C 250.860 396.158,251.065 395.715,250.941 395.389 C 250.816 395.065,250.884 394.800,251.091 394.800 C 251.297 394.800,251.467 394.540,251.467 394.222 C 251.467 393.772,251.293 393.736,250.685 394.062 C 250.124 394.362,249.980 394.356,250.175 394.040 C 250.346 393.764,250.066 393.600,249.424 393.600 C 248.746 393.600,248.400 393.381,248.400 392.951 C 248.400 392.420,248.509 392.392,249.000 392.800 C 249.723 393.400,249.808 392.770,249.100 392.056 C 248.699 391.652,248.740 391.606,249.305 391.821 C 249.860 392.032,249.951 391.938,249.737 391.379 C 249.550 390.892,249.611 390.760,249.932 390.958 C 250.196 391.121,250.412 391.019,250.428 390.724 C 250.444 390.436,250.611 390.560,250.800 391.000 C 251.273 392.100,251.273 392.731,250.800 392.000 C 250.587 391.670,250.396 391.490,250.376 391.600 C 250.355 391.710,250.278 392.115,250.205 392.500 C 250.116 392.966,250.322 393.200,250.823 393.200 C 251.612 393.200,251.877 390.618,251.135 390.160 C 250.951 390.046,250.800 389.773,250.800 389.553 C 250.800 389.333,250.980 389.264,251.200 389.400 C 251.466 389.564,251.600 366.537,251.600 320.624 L 251.600 251.600 320.700 251.591 L 389.800 251.582 388.800 250.764 C 387.951 250.070,387.932 250.011,388.671 250.372 C 389.150 250.606,389.827 250.688,390.176 250.554 C 390.617 250.385,390.742 250.487,390.587 250.890 C 390.421 251.323,390.722 251.482,391.782 251.522 C 393.279 251.579,393.571 251.205,392.636 250.430 C 392.250 250.109,391.989 250.094,391.812 250.381 C 391.669 250.611,391.773 250.800,392.043 250.800 C 392.313 250.800,392.411 250.922,392.262 251.071 C 391.963 251.370,390.657 250.048,390.501 249.287 C 390.373 248.665,392.102 248.906,392.313 249.539 C 392.398 249.795,392.661 249.886,392.896 249.741 C 393.159 249.578,393.206 249.667,393.018 249.971 C 392.642 250.579,394.442 250.415,394.894 249.800 C 395.058 249.577,395.190 249.729,395.194 250.143 C 395.198 250.621,394.998 250.808,394.633 250.668 C 394.321 250.548,393.974 250.691,393.861 250.986 C 393.553 251.788,394.808 251.469,395.505 250.568 C 396.079 249.827,396.093 249.832,395.887 250.701 C 395.770 251.196,395.838 251.500,396.037 251.377 C 396.237 251.254,396.400 250.843,396.400 250.465 C 396.400 249.677,398.605 247.600,399.441 247.600 C 399.749 247.600,400.000 247.420,400.000 247.200 C 400.000 246.980,399.550 246.800,399.000 246.800 C 398.297 246.800,398.000 247.018,398.000 247.533 C 398.000 247.937,397.738 248.267,397.418 248.267 C 397.097 248.267,396.920 248.129,397.024 247.961 C 397.128 247.793,397.041 247.549,396.831 247.419 C 396.621 247.289,396.264 247.502,396.037 247.892 C 395.810 248.281,395.619 248.397,395.612 248.149 C 395.605 247.901,395.868 247.476,396.196 247.204 C 396.849 246.661,396.623 245.914,395.858 246.089 C 395.283 246.221,394.971 245.476,395.524 245.292 C 396.058 245.114,397.258 246.383,396.980 246.832 C 396.855 247.035,396.943 247.200,397.176 247.200 C 397.687 247.200,397.684 247.286,397.235 245.724 C 396.948 244.721,396.984 244.496,397.406 244.658 C 397.701 244.771,397.872 245.225,397.787 245.667 C 397.674 246.256,397.762 246.366,398.116 246.079 C 398.382 245.863,398.960 245.598,399.400 245.489 C 400.125 245.311,400.115 245.288,399.300 245.246 C 398.134 245.186,398.134 244.507,399.300 244.282 C 400.199 244.109,400.199 244.109,399.263 244.054 C 398.695 244.022,398.244 243.689,398.119 243.213 C 397.928 242.482,397.827 242.512,396.721 243.618 C 395.507 244.832,394.000 245.817,394.000 245.396 C 394.000 244.874,395.858 243.353,396.311 243.504 C 396.580 243.593,396.800 243.502,396.800 243.300 C 396.800 242.559,396.304 242.481,395.018 243.018 C 394.294 243.321,393.626 243.493,393.535 243.401 C 393.195 243.061,393.253 244.951,393.603 245.605 C 393.906 246.172,393.806 246.252,392.987 246.095 C 392.449 245.993,392.110 245.746,392.232 245.548 C 392.355 245.349,392.668 245.314,392.928 245.470 C 393.275 245.679,393.288 245.601,392.975 245.177 C 392.020 243.879,392.504 242.634,394.000 242.542 C 395.749 242.434,396.702 242.232,397.036 241.897 C 397.437 241.497,396.828 239.535,396.388 239.807 C 396.175 239.939,396.000 239.867,396.000 239.647 C 396.000 239.427,396.207 239.119,396.461 238.963 C 396.780 238.765,396.695 238.512,396.184 238.139 C 395.479 237.624,395.484 237.600,396.281 237.600 C 396.739 237.600,397.222 237.319,397.354 236.975 C 397.486 236.631,397.776 236.461,397.997 236.598 C 398.617 236.982,398.474 238.000,397.800 238.000 C 397.400 238.000,397.200 238.400,397.200 239.200 C 397.200 239.860,397.363 240.400,397.563 240.400 C 397.762 240.400,397.836 240.060,397.728 239.645 C 397.619 239.230,397.726 238.769,397.965 238.622 C 398.204 238.474,398.400 238.543,398.400 238.776 C 398.400 239.009,398.760 239.200,399.200 239.200 C 399.994 239.200,400.000 238.933,400.000 200.950 L 400.000 162.700 398.700 162.949 C 397.776 163.127,397.573 163.085,398.000 162.806 C 398.330 162.589,398.915 162.409,399.300 162.406 C 399.685 162.403,400.000 162.109,400.000 161.753 C 400.000 161.281,399.733 161.158,399.012 161.296 C 398.469 161.399,398.119 161.330,398.236 161.142 C 398.352 160.954,398.176 160.800,397.843 160.800 C 397.511 160.800,397.093 161.063,396.913 161.384 C 396.699 161.766,396.571 161.383,396.544 160.284 C 396.511 158.956,396.573 158.790,396.838 159.500 C 397.023 159.995,397.382 160.400,397.636 160.400 C 397.974 160.400,397.967 160.242,397.611 159.813 C 397.343 159.491,397.217 158.996,397.331 158.713 C 397.467 158.373,397.547 158.422,397.568 158.857 C 397.600 159.519,398.384 160.000,399.433 160.000 C 400.310 160.000,400.102 159.272,399.184 159.128 C 398.128 158.962,398.128 158.238,399.184 158.072 C 400.318 157.895,400.253 156.504,399.100 156.282 L 398.200 156.109 399.100 156.054 C 400.477 155.971,400.393 153.768,399.003 153.503 C 397.941 153.300,396.956 154.082,397.389 154.782 C 397.531 155.012,397.389 155.200,397.073 155.200 C 396.396 155.200,395.499 156.165,395.849 156.516 C 395.983 156.649,396.491 156.497,396.979 156.177 C 397.764 155.663,397.867 155.667,397.867 156.215 C 397.867 156.556,397.649 156.751,397.382 156.648 C 397.116 156.546,396.741 156.606,396.549 156.782 C 396.357 156.958,395.660 156.745,395.000 156.309 C 394.340 155.873,394.078 155.605,394.417 155.714 C 395.331 156.006,396.280 155.131,396.200 154.070 C 396.145 153.347,396.294 153.184,396.870 153.334 C 397.337 153.456,397.767 153.235,398.036 152.734 C 398.413 152.029,398.375 151.985,397.695 152.349 C 397.274 152.575,396.530 152.655,396.043 152.527 L 395.157 152.295 396.078 151.754 C 396.585 151.456,397.315 151.099,397.700 150.960 C 398.666 150.611,398.585 150.026,397.607 150.282 C 397.021 150.436,396.711 150.218,396.417 149.445 C 395.961 148.245,395.580 148.036,395.870 149.145 C 396.145 150.196,394.781 150.662,394.111 149.745 C 393.577 149.016,393.426 149.480,393.842 150.565 C 393.975 150.912,394.233 151.104,394.414 150.991 C 394.596 150.879,394.852 150.960,394.983 151.173 C 395.117 151.390,394.849 151.487,394.368 151.394 C 393.677 151.261,393.555 151.383,393.726 152.038 C 393.887 152.655,393.818 152.747,393.432 152.426 C 393.154 152.196,392.765 152.140,392.567 152.303 C 392.370 152.467,392.533 152.213,392.930 151.740 C 393.404 151.175,393.505 150.789,393.225 150.615 C 392.982 150.465,392.909 149.904,393.057 149.316 C 393.249 148.549,393.188 148.360,392.820 148.588 C 392.541 148.760,392.395 149.387,392.488 150.017 C 392.612 150.861,392.494 151.127,392.012 151.091 C 391.660 151.064,391.337 150.718,391.295 150.321 C 391.119 148.654,391.054 148.400,390.800 148.400 C 390.214 148.400,390.032 148.956,390.452 149.463 C 390.745 149.815,390.755 150.000,390.482 150.000 C 390.254 150.000,389.988 149.775,389.892 149.500 C 389.762 149.129,389.521 149.172,388.958 149.666 C 388.450 150.114,387.805 150.260,387.000 150.112 C 386.340 149.990,385.913 150.013,386.051 150.163 C 386.189 150.313,386.819 150.522,387.451 150.629 C 388.083 150.736,388.845 150.910,389.145 151.016 C 389.526 151.151,389.608 150.999,389.419 150.505 C 389.239 150.036,389.534 150.170,390.302 150.906 C 390.936 151.514,391.578 151.889,391.728 151.739 C 391.877 151.589,392.000 151.677,392.000 151.933 C 392.000 152.190,391.809 152.400,391.576 152.400 C 391.343 152.400,391.272 152.593,391.418 152.830 C 391.569 153.073,391.337 153.042,390.882 152.758 C 390.441 152.483,390.171 152.019,390.283 151.729 C 390.527 151.092,390.210 151.060,389.174 151.614 C 388.640 151.900,388.400 151.900,388.400 151.614 C 388.400 151.386,388.130 151.200,387.800 151.200 C 387.073 151.200,387.004 151.854,387.700 152.135 C 387.975 152.246,387.795 152.351,387.300 152.368 C 386.805 152.386,386.400 152.582,386.400 152.803 C 386.400 153.073,363.755 153.203,318.102 153.197 C 272.154 153.190,249.760 153.319,249.669 153.593 C 249.594 153.817,249.166 154.000,248.718 154.000 C 248.053 154.000,247.991 153.893,248.380 153.424 C 248.790 152.930,248.714 152.915,247.842 153.324 C 247.283 153.586,247.000 153.860,247.213 153.933 C 247.426 154.007,247.600 154.215,247.600 154.396 C 247.600 154.577,247.151 154.517,246.603 154.262 C 245.562 153.779,245.176 152.952,246.171 153.333 C 246.837 153.589,247.496 152.886,247.479 151.938 C 247.472 151.553,247.243 151.362,246.933 151.481 C 246.625 151.599,246.400 151.414,246.400 151.043 C 246.400 150.060,246.354 149.833,246.066 149.400 C 245.920 149.180,245.891 118.400,246.002 81.000 L 246.203 13.000 246.302 80.900 C 246.380 134.901,246.502 148.800,246.900 148.800 C 247.299 148.800,247.360 135.100,247.200 81.100 C 247.033 24.438,247.089 13.302,247.543 12.800 C 248.011 12.283,248.046 12.339,247.798 13.200 C 247.563 14.017,247.606 14.109,248.035 13.700 C 248.324 13.425,248.974 13.200,249.480 13.200 L 250.400 13.200 250.498 80.900 L 250.597 148.600 250.799 80.800 L 251.002 13.000 251.201 80.800 L 251.400 148.600 320.338 148.800 C 358.254 148.910,389.360 148.865,389.462 148.700 C 389.564 148.535,358.587 148.400,320.624 148.400 L 251.600 148.400 251.537 79.300 C 251.502 41.295,251.498 9.892,251.529 9.515 C 251.566 9.062,251.383 8.908,250.988 9.060 C 250.550 9.228,250.453 9.091,250.623 8.545 C 250.780 8.041,250.678 8.096,250.307 8.713 C 250.005 9.214,249.604 9.484,249.415 9.313 C 249.226 9.140,249.218 9.252,249.398 9.562 C 249.617 9.940,249.572 10.030,249.262 9.838 C 248.657 9.465,248.669 8.510,249.280 8.307 C 249.654 8.182,249.654 8.081,249.280 7.850 C 249.016 7.686,248.800 7.738,248.800 7.964 C 248.800 8.190,248.500 8.260,248.134 8.119 C 247.706 7.955,247.566 8.021,247.741 8.304 C 247.891 8.547,247.840 8.852,247.627 8.983 C 247.159 9.272,247.377 7.965,247.986 6.826 C 248.347 6.152,248.311 6.000,247.790 6.000 C 247.440 6.000,247.254 6.163,247.377 6.363 C 247.500 6.562,247.268 6.638,246.860 6.532 C 246.453 6.425,245.866 6.591,245.556 6.901 C 244.975 7.482,244.000 7.405,244.000 6.779 C 244.000 6.584,244.247 6.520,244.548 6.636 C 244.850 6.751,245.390 6.553,245.748 6.194 C 246.107 5.836,246.403 5.691,246.406 5.871 C 246.409 6.052,246.551 5.981,246.721 5.714 C 246.960 5.338,247.287 5.360,248.157 5.812 C 249.168 6.336,249.259 6.331,249.042 5.765 C 248.909 5.418,248.800 4.953,248.800 4.732 C 248.800 4.489,248.141 4.421,247.136 4.562 C 246.221 4.690,245.585 4.682,245.722 4.545 C 245.859 4.407,245.790 3.956,245.569 3.542 C 245.347 3.127,245.308 2.812,245.483 2.842 C 246.341 2.985,246.717 2.735,246.595 2.100 C 246.522 1.715,246.447 1.085,246.431 0.700 C 246.381 -0.427,244.925 -0.166,244.700 1.010 C 244.539 1.852,244.631 1.981,245.254 1.783 C 245.664 1.653,246.000 1.738,246.000 1.973 C 246.000 2.208,245.865 2.379,245.700 2.353 C 244.861 2.220,244.383 2.449,244.638 2.862 C 244.818 3.152,244.748 3.215,244.450 3.031 C 244.145 2.843,244.068 2.247,244.232 1.369 C 244.480 0.049,244.445 0.000,243.245 0.000 C 242.437 0.000,242.000 0.199,242.000 0.567 C 242.000 1.641,242.467 2.349,243.033 2.132 C 243.345 2.012,243.600 2.084,243.600 2.291 C 243.600 2.960,243.086 3.204,242.572 2.777 C 242.269 2.525,241.980 2.509,241.840 2.735 C 241.701 2.960,241.054 2.918,240.212 2.629 C 238.711 2.113,237.974 1.600,238.733 1.600 C 238.990 1.600,239.200 1.240,239.200 0.800 C 239.200 0.006,238.933 0.000,201.000 0.000 C 159.520 0.000,161.373 -0.097,163.300 1.979 C 163.706 2.416,163.687 2.463,163.200 2.229 C 162.870 2.070,162.949 2.224,163.376 2.570 C 164.141 3.190,164.140 3.200,163.319 3.200 C 162.861 3.200,162.370 3.500,162.230 3.867 C 162.044 4.352,161.854 4.414,161.534 4.094 C 161.052 3.612,161.396 2.227,161.917 2.549 C 162.095 2.659,162.282 2.130,162.333 1.374 C 162.464 -0.573,161.381 -0.471,160.997 1.500 C 160.749 2.769,160.654 2.877,160.380 2.200 C 160.106 1.522,160.051 1.583,160.022 2.600 L 159.988 3.800 159.461 2.800 C 159.172 2.250,158.751 1.836,158.527 1.880 C 158.299 1.925,158.201 1.526,158.306 0.980 C 158.447 0.243,158.320 -0.000,157.797 -0.000 C 157.238 -0.000,157.147 0.235,157.337 1.184 C 157.610 2.552,157.323 2.845,156.200 2.342 C 155.514 2.034,155.542 2.010,156.400 2.172 C 157.262 2.334,157.310 2.293,156.747 1.870 C 156.387 1.601,156.003 1.025,155.893 0.590 C 155.714 -0.117,155.688 -0.105,155.646 0.700 C 155.621 1.195,155.409 1.600,155.176 1.600 C 154.943 1.600,154.852 1.761,154.974 1.958 C 155.096 2.155,154.956 2.408,154.664 2.520 C 154.372 2.632,154.133 2.471,154.133 2.162 C 154.133 1.853,154.283 1.600,154.467 1.600 C 154.650 1.600,154.800 1.240,154.800 0.800 C 154.800 0.133,154.533 0.000,153.200 0.000 C 151.867 0.000,151.600 0.133,151.600 0.800 M158.800 0.776 C 158.800 1.203,158.980 1.664,159.200 1.800 C 159.427 1.940,159.600 1.604,159.600 1.024 C 159.600 0.461,159.420 0.000,159.200 0.000 C 158.980 0.000,158.800 0.349,158.800 0.776 M240.440 1.100 C 240.413 1.984,240.585 2.400,240.976 2.400 C 241.767 2.400,241.926 1.976,241.577 0.800 L 241.280 -0.200 241.200 0.800 L 241.120 1.800 240.800 0.800 C 240.497 -0.147,240.478 -0.132,240.440 1.100 M153.400 2.800 C 153.250 3.273,153.037 3.570,152.927 3.460 C 152.817 3.350,152.850 2.873,153.000 2.400 C 153.150 1.927,153.363 1.630,153.473 1.740 C 153.583 1.850,153.550 2.327,153.400 2.800 M238.820 3.100 C 239.578 3.925,239.942 4.379,239.628 4.110 C 239.206 3.746,238.920 3.735,238.520 4.066 C 238.098 4.417,238.036 4.372,238.234 3.857 C 238.374 3.491,238.289 3.200,238.043 3.200 C 237.799 3.200,237.600 3.391,237.600 3.624 C 237.600 3.857,237.384 3.914,237.120 3.750 C 236.746 3.519,236.746 3.418,237.120 3.293 C 237.384 3.205,237.600 2.949,237.600 2.724 C 237.600 2.499,237.305 2.428,236.943 2.566 C 236.394 2.777,236.370 2.718,236.792 2.209 C 237.427 1.445,237.215 1.352,238.820 3.100 M247.200 2.044 C 246.711 2.396,246.748 2.431,247.400 2.237 C 248.188 2.002,248.188 2.007,247.424 2.599 C 246.996 2.930,246.491 3.200,246.300 3.200 C 246.109 3.200,246.069 3.389,246.212 3.619 C 246.389 3.906,246.650 3.891,247.036 3.570 C 247.441 3.234,247.600 3.228,247.600 3.551 C 247.600 3.798,247.774 4.000,247.987 4.000 C 248.201 4.000,248.288 3.685,248.182 3.300 C 248.076 2.915,248.376 3.410,248.849 4.400 C 249.321 5.390,249.908 6.339,250.154 6.509 C 250.399 6.678,250.105 6.735,249.500 6.635 C 248.770 6.514,248.400 6.628,248.400 6.974 C 248.400 7.534,250.896 7.638,251.434 7.100 C 251.598 6.935,251.523 6.800,251.267 6.800 C 251.010 6.800,250.800 6.609,250.800 6.376 C 250.800 6.143,250.950 6.045,251.133 6.159 C 251.754 6.543,251.449 5.404,250.749 4.727 C 250.097 4.095,250.057 4.100,250.110 4.799 C 250.141 5.209,250.337 5.439,250.545 5.310 C 250.753 5.182,250.793 5.287,250.634 5.545 C 250.475 5.802,250.165 5.902,249.946 5.766 C 249.726 5.631,249.642 5.425,249.757 5.309 C 249.873 5.193,249.690 4.562,249.351 3.905 C 249.012 3.249,248.929 2.832,249.167 2.980 C 249.405 3.127,249.600 3.063,249.600 2.838 C 249.600 1.966,248.031 1.446,247.200 2.044 M156.904 4.000 C 157.313 4.000,157.545 4.165,157.421 4.366 C 157.297 4.567,157.396 4.799,157.643 4.881 C 157.889 4.963,157.416 5.704,156.592 6.528 C 155.768 7.352,155.010 7.943,154.908 7.842 C 154.807 7.740,155.326 7.110,156.062 6.441 L 157.400 5.226 156.392 4.313 C 155.837 3.811,155.558 3.535,155.772 3.700 C 155.985 3.865,156.495 4.000,156.904 4.000 M245.458 5.005 C 245.528 6.215,244.609 6.338,244.000 5.200 C 243.655 4.556,243.696 4.400,244.210 4.400 C 244.560 4.400,244.737 4.222,244.603 4.005 C 244.468 3.787,244.593 3.699,244.879 3.809 C 245.166 3.919,245.426 4.457,245.458 5.005 M155.134 4.351 C 155.533 4.604,155.437 4.749,154.751 4.929 C 154.247 5.060,153.752 5.085,153.651 4.984 C 153.550 4.883,153.687 4.800,153.957 4.800 C 154.227 4.800,154.336 4.620,154.200 4.400 C 153.900 3.914,154.403 3.888,155.134 4.351 M156.400 4.930 C 156.400 5.002,155.950 5.483,155.400 6.000 C 154.502 6.843,154.400 6.864,154.400 6.203 C 154.400 5.798,154.511 5.578,154.648 5.714 C 154.784 5.850,155.157 5.700,155.476 5.381 C 156.029 4.828,156.400 4.647,156.400 4.930 M246.712 8.400 C 246.731 9.060,246.663 9.600,246.560 9.600 C 246.260 9.600,245.678 7.828,245.871 7.500 C 246.266 6.829,246.680 7.272,246.712 8.400 M154.800 10.043 C 154.800 10.239,154.560 10.400,154.267 10.400 C 153.973 10.400,153.733 10.147,153.733 9.838 C 153.733 9.529,153.973 9.368,154.267 9.481 C 154.560 9.593,154.800 9.846,154.800 10.043 M250.667 10.200 C 250.667 10.590,250.306 10.784,249.633 10.754 C 248.956 10.723,248.841 10.644,249.300 10.524 C 249.685 10.424,250.000 10.175,250.000 9.971 C 250.000 9.767,250.150 9.600,250.333 9.600 C 250.517 9.600,250.667 9.870,250.667 10.200 M151.257 11.083 C 150.674 12.125,151.162 13.328,151.916 12.708 C 152.460 12.262,152.502 12.364,152.267 13.550 C 152.120 14.293,151.956 44.983,151.902 81.750 L 151.803 148.600 151.599 81.000 L 151.395 13.400 151.398 80.967 C 151.400 134.663,151.503 148.568,151.900 148.700 C 152.299 148.833,152.406 135.212,152.428 81.533 C 152.444 44.500,152.612 13.840,152.802 13.400 C 153.266 12.326,153.095 148.712,152.631 149.963 C 152.370 150.668,152.400 150.847,152.744 150.635 C 153.002 150.475,153.109 150.177,152.983 149.972 C 152.856 149.768,152.943 149.600,153.176 149.600 C 153.409 149.600,153.600 149.799,153.600 150.043 C 153.600 150.286,153.840 150.393,154.133 150.281 C 154.427 150.168,154.667 150.312,154.667 150.600 C 154.667 150.888,154.445 151.039,154.174 150.935 C 153.903 150.831,153.545 150.966,153.379 151.235 C 153.185 151.547,153.243 151.621,153.538 151.438 C 153.792 151.281,154.000 151.354,154.000 151.600 C 154.000 151.846,154.178 151.937,154.395 151.803 C 154.632 151.657,154.683 151.840,154.522 152.259 C 154.374 152.644,154.188 152.763,154.107 152.522 C 154.027 152.282,153.627 152.172,153.218 152.279 C 152.379 152.499,151.852 153.884,152.522 154.107 C 152.763 154.188,152.644 154.374,152.259 154.522 C 151.840 154.683,151.657 154.632,151.803 154.395 C 151.937 154.178,151.846 154.000,151.600 154.000 C 151.354 154.000,151.281 153.792,151.438 153.538 C 151.621 153.243,151.547 153.185,151.235 153.379 C 150.966 153.545,150.831 153.903,150.935 154.174 C 151.039 154.445,150.888 154.667,150.600 154.667 C 150.312 154.667,150.168 154.427,150.281 154.133 C 150.393 153.840,150.286 153.600,150.043 153.600 C 149.799 153.600,149.584 153.915,149.564 154.300 C 149.544 154.685,149.359 154.415,149.152 153.700 L 148.777 152.400 81.289 152.498 L 13.800 152.597 81.200 152.800 L 148.600 153.003 81.324 153.102 C 36.798 153.167,13.964 153.065,13.800 152.800 C 13.664 152.580,13.173 152.400,12.710 152.400 C 12.246 152.400,11.960 152.307,12.073 152.193 C 12.187 152.079,43.042 151.947,80.640 151.899 L 149.000 151.812 80.400 151.606 C 42.670 151.493,11.740 151.536,11.666 151.702 C 11.592 151.869,11.367 151.903,11.166 151.779 C 10.496 151.365,10.788 150.975,11.832 150.889 C 12.400 150.842,13.165 150.615,13.532 150.384 C 14.049 150.060,13.915 150.020,12.938 150.206 C 12.208 150.345,11.564 150.266,11.410 150.017 C 11.264 149.780,10.932 149.705,10.672 149.850 C 10.413 149.994,10.475 149.819,10.811 149.460 C 11.465 148.760,149.600 148.203,149.600 148.900 C 149.600 149.065,149.375 149.201,149.100 149.202 C 148.825 149.203,117.730 149.247,80.000 149.299 L 11.400 149.393 80.200 149.597 C 147.674 149.796,149.017 149.785,149.900 149.030 L 150.800 148.261 150.702 80.830 L 150.603 13.400 150.400 81.000 L 150.197 148.600 150.100 81.200 C 150.028 30.459,150.121 13.405,150.475 12.200 C 150.734 11.320,150.908 10.452,150.863 10.270 C 150.817 10.089,150.967 10.056,151.195 10.197 C 151.450 10.354,151.474 10.696,151.257 11.083 M150.372 10.700 C 150.264 11.851,149.653 12.553,149.588 11.600 L 149.520 10.600 149.200 11.600 C 148.920 12.475,148.875 12.496,148.840 11.767 C 148.818 11.308,148.920 10.813,149.067 10.667 C 149.430 10.303,150.407 10.328,150.372 10.700 M153.883 12.895 C 153.787 13.393,153.705 13.080,153.701 12.200 C 153.696 11.320,153.775 10.913,153.875 11.295 C 153.975 11.678,153.979 12.398,153.883 12.895 M154.700 114.268 C 154.643 133.371,154.596 117.860,154.596 79.800 C 154.596 41.740,154.643 26.111,154.700 45.068 C 154.757 64.026,154.757 95.166,154.700 114.268 M249.600 12.024 C 249.600 12.231,249.336 12.400,249.013 12.400 C 248.656 12.400,248.515 12.165,248.654 11.802 C 248.891 11.187,249.600 11.353,249.600 12.024 M249.395 81.000 C 249.395 118.180,249.442 133.331,249.500 114.668 C 249.557 96.006,249.557 65.586,249.500 47.068 C 249.442 28.551,249.395 43.820,249.395 81.000 M394.400 148.927 C 394.400 149.674,395.052 150.162,395.368 149.652 C 395.491 149.453,395.323 149.068,394.996 148.796 C 394.511 148.394,394.400 148.419,394.400 148.927 M285.100 149.500 C 304.075 149.557,335.125 149.557,354.100 149.500 C 373.075 149.443,357.550 149.395,319.600 149.395 C 281.650 149.395,266.125 149.443,285.100 149.500 M7.447 150.223 C 7.065 151.218,7.151 151.600,7.757 151.600 C 8.544 151.600,8.855 150.544,8.223 150.019 C 7.825 149.689,7.632 149.739,7.447 150.223 M2.231 151.149 C 2.076 151.401,2.051 152.011,2.176 152.504 L 2.404 153.400 1.941 152.500 C 1.134 150.932,0.000 151.341,0.000 153.200 C 0.000 155.089,0.748 155.322,2.119 153.861 C 2.604 153.344,3.225 152.999,3.500 153.094 C 4.206 153.338,4.106 152.761,3.248 151.646 C 2.758 151.008,2.420 150.843,2.231 151.149 M318.200 151.601 C 280.800 151.715,250.110 151.864,250.000 151.932 C 248.908 152.609,260.496 152.734,318.800 152.674 L 386.200 152.603 318.600 152.400 L 251.000 152.197 318.676 152.098 C 363.256 152.034,386.437 151.863,386.600 151.600 C 386.736 151.380,386.702 151.244,386.524 151.297 C 386.346 151.351,355.600 151.487,318.200 151.601 M149.232 152.453 C 149.214 152.813,149.578 153.205,150.040 153.326 C 150.501 153.447,150.774 153.441,150.646 153.312 C 150.517 153.184,150.725 152.835,151.106 152.537 C 151.716 152.061,151.670 152.042,150.727 152.378 C 149.959 152.651,149.598 152.623,149.458 152.280 C 149.344 151.999,149.250 152.071,149.232 152.453 M395.421 153.166 C 395.297 153.367,395.421 153.623,395.698 153.735 C 396.055 153.880,396.073 154.035,395.760 154.270 C 395.518 154.451,395.246 154.831,395.155 155.114 C 395.028 155.512,394.812 155.487,394.195 155.003 C 393.406 154.383,393.406 154.379,394.191 154.489 C 394.661 154.555,395.001 154.357,395.030 154.000 C 395.107 153.039,395.186 152.800,395.424 152.800 C 395.547 152.800,395.545 152.965,395.421 153.166 M154.282 154.192 C 153.945 154.555,153.718 154.580,153.526 154.275 C 153.141 153.659,153.519 153.194,154.195 153.453 C 154.642 153.625,154.661 153.784,154.282 154.192 M251.095 153.799 C 251.391 154.326,259.553 154.410,319.615 154.502 L 387.800 154.606 319.005 154.603 C 253.806 154.600,250.204 154.563,250.076 153.900 C 249.911 153.045,250.633 152.973,251.095 153.799 M114.700 153.900 C 95.835 153.957,64.965 153.957,46.100 153.900 C 27.235 153.842,42.670 153.795,80.400 153.795 C 118.130 153.795,133.565 153.842,114.700 153.900 M354.132 153.900 C 335.394 153.957,304.614 153.957,285.732 153.900 C 266.849 153.842,282.180 153.795,319.800 153.795 C 357.420 153.795,372.869 153.842,354.132 153.900 M393.200 154.100 C 393.200 154.375,392.747 154.600,392.193 154.600 C 391.289 154.600,391.256 154.549,391.869 154.100 C 392.245 153.825,392.699 153.600,392.876 153.600 C 393.054 153.600,393.200 153.825,393.200 154.100 M5.448 155.124 C 5.102 155.469,4.699 155.632,4.553 155.486 C 4.169 155.102,5.214 153.962,5.684 154.252 C 5.918 154.396,5.822 154.749,5.448 155.124 M114.700 154.700 C 95.835 154.757,64.965 154.757,46.100 154.700 C 27.235 154.642,42.670 154.595,80.400 154.595 C 118.130 154.595,133.565 154.642,114.700 154.700 M394.150 156.719 C 394.258 156.895,394.204 157.270,394.029 157.553 C 393.797 157.928,393.652 157.842,393.493 157.234 C 393.283 156.429,393.746 156.066,394.150 156.719 M4.000 158.400 C 3.560 158.840,3.104 159.200,2.986 159.200 C 2.868 159.200,2.965 158.840,3.200 158.400 C 3.435 157.960,3.892 157.600,4.214 157.600 C 4.657 157.600,4.605 157.795,4.000 158.400 M0.000 159.200 C 0.000 159.420,0.461 159.600,1.024 159.600 C 1.604 159.600,1.940 159.427,1.800 159.200 C 1.664 158.980,1.203 158.800,0.776 158.800 C 0.349 158.800,0.000 158.980,0.000 159.200 M396.098 159.800 C 396.203 160.350,396.134 160.800,395.945 160.800 C 395.755 160.800,395.600 160.350,395.600 159.800 C 395.600 159.250,395.669 158.800,395.753 158.800 C 395.838 158.800,395.993 159.250,396.098 159.800 M2.545 237.000 C 2.418 237.330,2.514 237.600,2.757 237.600 C 3.001 237.600,3.200 237.409,3.200 237.176 C 3.200 236.943,3.416 236.886,3.680 237.050 C 4.054 237.281,4.054 237.382,3.680 237.507 C 3.416 237.595,3.200 237.851,3.200 238.076 C 3.200 238.301,3.515 238.366,3.900 238.219 C 4.454 238.008,4.498 238.056,4.110 238.447 C 3.731 238.829,3.727 239.084,4.092 239.570 C 4.352 239.917,3.902 239.584,3.092 238.830 C 1.960 237.778,1.720 237.337,2.058 236.930 C 2.638 236.231,2.829 236.259,2.545 237.000 M0.800 240.800 L 1.800 241.120 0.800 241.200 L -0.200 241.280 0.800 241.577 C 1.976 241.926,2.400 241.767,2.400 240.976 C 2.400 240.585,1.984 240.413,1.100 240.440 C -0.132 240.478,-0.147 240.497,0.800 240.800 M397.456 241.798 C 397.304 242.194,397.371 242.341,397.632 242.181 C 397.864 242.037,398.153 242.298,398.274 242.760 C 398.598 243.999,400.000 243.869,400.000 242.600 C 400.000 242.003,399.771 241.600,399.433 241.600 C 399.121 241.600,398.604 241.500,398.284 241.377 C 397.960 241.253,397.594 241.439,397.456 241.798 M0.000 243.200 C 0.000 244.233,0.148 244.400,1.067 244.400 C 1.653 244.400,2.020 244.286,1.881 244.147 C 1.742 244.008,1.799 243.576,2.007 243.187 C 2.285 242.667,2.220 242.417,1.760 242.240 C 0.456 241.740,0.000 241.989,0.000 243.200 M5.838 244.462 C 6.015 244.748,5.948 244.815,5.662 244.638 C 5.408 244.481,5.200 244.498,5.200 244.676 C 5.200 244.854,4.579 245.000,3.820 245.000 C 2.210 245.000,2.457 244.539,4.200 244.291 C 4.860 244.197,5.434 244.093,5.476 244.060 C 5.518 244.027,5.681 244.208,5.838 244.462 M6.600 246.400 C 6.489 246.978,6.661 247.200,7.223 247.200 C 7.650 247.200,8.000 247.364,8.000 247.565 C 8.000 247.765,7.685 247.869,7.300 247.795 C 6.915 247.722,6.446 247.647,6.257 247.631 C 6.069 247.614,6.022 247.321,6.153 246.979 C 6.300 246.596,6.226 246.460,5.961 246.624 C 5.724 246.771,5.619 247.230,5.728 247.645 C 5.836 248.060,5.734 248.517,5.501 248.661 C 5.251 248.816,5.194 248.733,5.362 248.462 C 5.519 248.208,5.450 248.000,5.210 248.000 C 4.506 248.000,5.938 245.665,6.677 245.606 C 6.719 245.603,6.685 245.960,6.600 246.400 M12.400 247.000 C 12.400 248.079,12.239 248.393,11.700 248.368 C 11.282 248.350,11.201 248.256,11.500 248.135 C 11.775 248.024,12.000 247.408,12.000 246.767 C 12.000 246.125,12.090 245.600,12.200 245.600 C 12.310 245.600,12.400 246.230,12.400 247.000 M150.723 246.400 C 151.361 246.400,151.617 246.580,151.481 246.933 C 151.362 247.243,151.553 247.472,151.938 247.479 C 152.886 247.496,153.589 246.837,153.333 246.171 C 152.952 245.176,153.779 245.562,154.262 246.603 C 154.517 247.151,154.577 247.600,154.396 247.600 C 154.215 247.600,154.007 247.426,153.933 247.213 C 153.860 247.000,153.586 247.283,153.324 247.842 C 152.915 248.714,152.930 248.790,153.424 248.380 C 153.895 247.989,154.000 248.060,154.000 248.775 C 154.000 249.255,153.820 249.536,153.600 249.400 C 153.380 249.264,153.200 249.316,153.200 249.515 C 153.200 249.715,153.593 250.053,154.074 250.268 C 154.853 250.615,154.872 250.687,154.253 250.924 C 153.843 251.082,153.658 251.031,153.800 250.800 C 153.933 250.585,153.807 250.499,153.521 250.609 C 153.095 250.772,153.019 263.306,153.102 319.073 C 153.159 356.619,153.069 387.202,152.902 387.036 C 152.736 386.869,152.507 356.373,152.394 319.267 L 152.189 251.800 152.194 319.900 C 152.197 357.355,152.140 387.820,152.067 387.600 C 151.793 386.778,151.199 387.240,151.168 388.300 L 151.135 389.400 150.586 388.200 C 150.127 387.198,150.032 375.748,150.012 318.800 C 149.999 281.290,149.856 250.780,149.694 251.000 C 149.499 251.265,126.569 251.333,81.600 251.200 L 13.800 251.000 81.200 250.798 L 148.600 250.597 81.300 250.498 C 36.766 250.433,14.000 250.265,14.000 250.000 C 14.000 249.780,13.730 249.600,13.400 249.600 C 12.652 249.600,12.653 249.445,13.410 247.980 L 14.021 246.800 81.184 246.800 C 123.856 246.800,148.722 246.942,149.374 247.190 C 150.041 247.444,150.400 247.444,150.400 247.190 C 150.400 246.976,150.051 246.800,149.624 246.800 C 148.783 246.800,148.261 246.272,148.684 245.849 C 148.829 245.705,149.130 245.770,149.353 245.993 C 149.577 246.217,150.193 246.400,150.723 246.400 M248.655 246.200 C 248.909 246.861,250.000 247.031,250.000 246.410 C 250.000 246.156,250.359 246.156,251.026 246.410 C 251.678 246.658,276.480 246.800,319.032 246.800 L 386.012 246.800 386.806 248.100 C 387.600 249.398,387.600 249.400,386.801 249.528 C 386.360 249.598,386.000 249.823,386.000 250.028 C 386.000 250.256,360.074 250.400,319.033 250.400 C 282.201 250.400,251.826 250.492,251.533 250.604 C 251.092 250.774,251.001 262.564,251.003 318.904 L 251.007 387.000 250.802 319.200 L 250.597 251.400 250.498 319.300 L 250.400 387.200 249.480 387.200 C 248.974 387.200,248.318 386.975,248.021 386.700 C 247.580 386.291,247.529 386.333,247.741 386.933 C 247.892 387.360,247.829 387.610,247.591 387.530 C 247.314 387.438,247.186 365.520,247.195 319.690 C 247.208 255.969,247.168 251.921,246.511 250.893 C 245.896 249.929,245.892 249.862,246.475 250.323 C 247.058 250.784,247.109 250.736,246.905 249.923 C 246.777 249.415,246.431 248.856,246.136 248.680 C 245.841 248.504,245.603 248.054,245.606 247.680 C 245.611 247.142,245.684 247.114,245.959 247.547 C 246.237 247.987,246.481 247.919,247.200 247.200 C 247.919 246.481,247.987 246.237,247.547 245.959 C 247.120 245.688,247.156 245.611,247.713 245.606 C 248.104 245.603,248.529 245.870,248.655 246.200 M388.536 248.093 C 388.837 248.284,388.754 248.390,388.300 248.394 C 387.746 248.399,387.613 248.087,387.660 246.900 C 387.714 245.540,387.736 245.512,387.896 246.599 C 387.993 247.258,388.281 247.930,388.536 248.093 M391.600 246.409 C 391.600 246.633,391.156 247.020,390.613 247.267 C 390.069 247.515,389.720 247.871,389.836 248.058 C 389.952 248.246,389.857 248.400,389.624 248.400 C 388.735 248.400,389.401 247.086,390.400 246.870 C 390.730 246.799,391.060 246.574,391.133 246.370 C 391.312 245.875,391.600 245.899,391.600 246.409 M9.400 248.852 C 9.620 248.787,9.658 248.875,9.485 249.048 C 8.727 249.807,7.200 249.640,7.200 248.800 C 7.200 248.060,7.296 248.025,8.100 248.471 C 8.595 248.745,9.180 248.917,9.400 248.852 M47.068 248.300 C 65.586 248.357,96.006 248.357,114.668 248.300 C 133.331 248.242,118.180 248.195,81.000 248.195 C 43.820 248.195,28.551 248.242,47.068 248.300 M251.462 248.300 C 251.294 248.571,297.392 248.570,362.200 248.297 C 375.620 248.240,356.236 248.150,319.124 248.097 C 282.012 248.044,251.564 248.135,251.462 248.300 M6.638 249.262 C 6.804 249.530,6.749 249.616,6.507 249.466 C 6.278 249.325,5.968 249.612,5.819 250.104 C 5.652 250.652,5.466 250.805,5.339 250.498 C 5.225 250.221,4.922 250.100,4.666 250.228 C 4.410 250.356,4.625 250.087,5.144 249.630 C 6.246 248.662,6.264 248.657,6.638 249.262 M352.500 251.100 C 333.965 251.157,303.635 251.157,285.100 251.100 C 266.565 251.042,281.730 250.995,318.800 250.995 C 355.870 250.995,371.035 251.042,352.500 251.100 M154.700 354.668 C 154.643 373.771,154.596 358.260,154.596 320.200 C 154.596 282.140,154.643 266.511,154.700 285.468 C 154.757 304.426,154.757 335.566,154.700 354.668 M150.595 319.000 C 150.595 356.180,150.642 371.331,150.700 352.668 C 150.757 334.006,150.757 303.586,150.700 285.068 C 150.642 266.551,150.595 281.820,150.595 319.000 M151.395 319.200 C 151.395 356.490,151.442 371.745,151.500 353.100 C 151.557 334.455,151.557 303.945,151.500 285.300 C 151.442 266.655,151.395 281.910,151.395 319.200 M246.300 353.100 C 246.242 371.745,246.195 356.490,246.195 319.200 C 246.195 281.910,246.242 266.655,246.300 285.300 C 246.357 303.945,246.357 334.455,246.300 353.100 M249.395 319.000 C 249.395 356.180,249.442 371.331,249.500 352.668 C 249.557 334.006,249.557 303.586,249.500 285.068 C 249.442 266.551,249.395 281.820,249.395 319.000 M153.883 388.895 C 153.787 389.393,153.705 389.080,153.701 388.200 C 153.696 387.320,153.775 386.913,153.875 387.295 C 153.975 387.678,153.979 388.398,153.883 388.895 M149.587 388.400 L 149.852 387.400 150.055 388.420 C 150.211 389.204,150.089 389.453,149.529 389.495 C 148.979 389.537,148.813 389.286,148.854 388.475 L 148.909 387.400 149.116 388.400 L 149.322 389.400 149.587 388.400 M249.600 387.976 C 249.600 388.647,248.891 388.813,248.654 388.198 C 248.515 387.835,248.656 387.600,249.013 387.600 C 249.336 387.600,249.600 387.769,249.600 387.976 M247.630 392.582 C 247.828 392.459,247.870 392.674,247.722 393.059 C 247.571 393.453,247.386 393.559,247.301 393.302 C 247.217 393.051,246.851 392.959,246.487 393.099 C 245.902 393.323,245.894 393.279,246.413 392.716 C 246.736 392.365,247.060 392.242,247.134 392.442 C 247.208 392.642,247.431 392.705,247.630 392.582 M156.325 393.174 C 156.455 393.566,156.305 393.577,155.646 393.225 C 154.625 392.678,154.562 392.436,155.478 392.570 C 155.851 392.625,156.232 392.897,156.325 393.174 M243.312 393.782 C 243.300 394.012,243.175 394.802,243.033 395.537 C 242.841 396.532,242.907 396.829,243.288 396.696 C 243.569 396.598,243.754 396.250,243.697 395.923 C 243.641 395.596,243.956 395.002,244.397 394.602 C 244.839 394.203,245.200 393.726,245.200 393.542 C 245.200 393.053,243.337 393.289,243.312 393.782 M160.800 395.945 C 160.800 396.134,160.350 396.203,159.800 396.098 C 159.250 395.993,158.800 395.838,158.800 395.753 C 158.800 395.669,159.250 395.600,159.800 395.600 C 160.350 395.600,160.800 395.755,160.800 395.945 M247.500 398.001 C 246.743 398.722,246.551 400.000,247.200 400.000 C 247.420 400.000,247.600 399.714,247.600 399.364 C 247.600 399.014,247.988 398.414,248.461 398.031 C 249.024 397.575,249.128 397.334,248.761 397.334 C 248.453 397.335,247.885 397.635,247.500 398.001 M244.054 398.955 C 244.096 399.897,244.151 399.981,244.282 399.300 C 244.378 398.805,244.611 398.400,244.800 398.400 C 244.989 398.400,245.207 398.805,245.284 399.300 C 245.414 400.138,245.439 400.127,245.650 399.135 C 245.838 398.249,245.718 398.039,244.938 397.890 C 244.108 397.732,244.006 397.855,244.054 398.955 " stroke="none" fill="#ecfcfc" fill-rule="evenodd"></path><path id="path1" d="M154.800 0.800 C 154.800 1.240,154.650 1.600,154.467 1.600 C 154.283 1.600,154.133 1.853,154.133 2.162 C 154.133 2.471,154.372 2.632,154.664 2.520 C 154.956 2.408,155.096 2.155,154.974 1.958 C 154.852 1.761,154.943 1.600,155.176 1.600 C 155.409 1.600,155.600 1.240,155.600 0.800 C 155.600 0.360,155.420 0.000,155.200 0.000 C 154.980 0.000,154.800 0.360,154.800 0.800 M156.000 0.656 C 156.000 1.017,156.315 1.548,156.700 1.836 C 157.331 2.308,157.301 2.342,156.400 2.172 C 155.537 2.009,155.510 2.033,156.200 2.346 C 157.250 2.823,157.587 2.449,157.323 1.100 C 157.092 -0.075,156.000 -0.442,156.000 0.656 M158.339 0.880 C 158.210 1.512,158.288 1.927,158.527 1.880 C 158.751 1.836,159.172 2.250,159.461 2.800 L 159.988 3.800 160.022 2.600 C 160.050 1.620,160.112 1.543,160.361 2.179 C 160.643 2.900,160.685 2.885,160.927 1.979 C 161.351 0.393,161.247 0.000,160.400 0.000 C 159.798 0.000,159.600 0.267,159.600 1.080 C 159.600 2.268,158.983 1.932,158.719 0.600 C 158.588 -0.062,158.522 -0.014,158.339 0.880 M162.399 1.000 C 162.347 1.660,162.331 2.348,162.363 2.530 C 162.394 2.711,162.232 2.744,162.003 2.602 C 161.774 2.461,161.691 2.177,161.817 1.972 C 161.944 1.768,161.884 1.600,161.684 1.600 C 161.200 1.600,161.151 3.923,161.630 4.218 C 161.837 4.346,162.114 4.169,162.246 3.825 C 162.378 3.481,162.861 3.200,163.319 3.200 C 164.140 3.200,164.141 3.190,163.376 2.570 C 162.949 2.224,162.870 2.079,163.200 2.247 C 163.679 2.492,163.708 2.437,163.343 1.977 C 163.092 1.660,162.798 1.040,162.689 0.600 C 162.544 0.007,162.469 0.110,162.399 1.000 M239.200 0.800 C 239.200 1.240,238.990 1.600,238.733 1.600 C 237.974 1.600,238.711 2.113,240.212 2.629 C 241.054 2.918,241.701 2.960,241.840 2.735 C 241.980 2.509,242.269 2.525,242.572 2.777 C 243.086 3.204,243.600 2.960,243.600 2.291 C 243.600 2.084,243.333 2.017,243.007 2.142 C 242.597 2.299,242.294 1.975,242.022 1.085 L 241.630 -0.200 241.715 0.993 C 241.776 1.852,241.605 2.223,241.100 2.322 C 240.556 2.428,240.400 2.186,240.400 1.229 C 240.400 0.403,240.203 0.000,239.800 0.000 C 239.467 0.000,239.200 0.356,239.200 0.800 M244.245 1.275 C 244.091 2.047,244.173 2.718,244.454 2.975 C 244.789 3.282,244.839 3.261,244.635 2.900 C 244.382 2.451,244.838 2.217,245.700 2.353 C 245.865 2.379,246.000 2.208,246.000 1.973 C 246.000 1.738,245.664 1.653,245.254 1.783 C 244.631 1.981,244.539 1.852,244.700 1.010 C 244.806 0.454,244.805 -0.000,244.697 -0.000 C 244.588 -0.000,244.385 0.574,244.245 1.275 M246.573 1.300 C 246.702 2.693,246.479 3.008,245.483 2.842 C 245.308 2.812,245.347 3.127,245.569 3.542 C 245.790 3.956,245.859 4.407,245.722 4.545 C 245.585 4.682,246.221 4.690,247.136 4.562 C 248.141 4.421,248.800 4.489,248.800 4.732 C 248.800 4.953,248.909 5.418,249.042 5.765 C 249.259 6.331,249.168 6.336,248.157 5.812 C 247.287 5.360,246.960 5.338,246.721 5.714 C 246.551 5.981,246.409 6.052,246.406 5.871 C 246.403 5.691,246.107 5.836,245.748 6.194 C 245.390 6.553,244.850 6.751,244.548 6.636 C 244.247 6.520,244.000 6.584,244.000 6.779 C 244.000 7.405,244.975 7.482,245.556 6.901 C 245.866 6.591,246.453 6.425,246.860 6.532 C 247.268 6.638,247.500 6.562,247.377 6.363 C 247.254 6.163,247.440 6.000,247.790 6.000 C 248.311 6.000,248.347 6.152,247.986 6.826 C 247.377 7.965,247.159 9.272,247.627 8.983 C 247.840 8.852,247.891 8.547,247.741 8.304 C 247.568 8.025,247.702 7.954,248.109 8.110 C 248.460 8.245,248.817 8.149,248.901 7.897 C 249.013 7.562,249.133 7.568,249.350 7.920 C 249.514 8.184,249.457 8.400,249.224 8.400 C 248.654 8.400,248.683 9.480,249.262 9.838 C 249.572 10.030,249.617 9.940,249.398 9.562 C 249.218 9.252,249.226 9.140,249.415 9.313 C 249.604 9.484,250.005 9.214,250.307 8.713 C 250.662 8.122,250.775 8.059,250.627 8.533 C 250.486 8.989,250.575 9.208,250.863 9.112 C 252.236 8.655,251.554 7.345,249.986 7.431 C 248.889 7.491,248.400 7.353,248.400 6.985 C 248.400 6.634,248.774 6.506,249.500 6.608 C 250.105 6.693,250.375 6.666,250.100 6.548 C 249.825 6.430,249.600 6.158,249.600 5.943 C 249.600 5.728,249.768 5.656,249.972 5.783 C 250.177 5.909,250.450 5.843,250.579 5.634 C 250.708 5.426,250.630 5.142,250.407 5.004 C 250.183 4.866,250.005 4.538,250.012 4.276 C 250.019 4.014,250.208 4.115,250.432 4.500 C 251.027 5.521,251.746 5.377,251.427 4.300 C 251.280 3.805,251.100 3.130,251.027 2.800 C 250.954 2.470,250.693 2.245,250.447 2.300 C 250.201 2.355,250.000 2.220,250.000 2.000 C 250.000 1.780,249.640 1.600,249.200 1.600 C 248.667 1.600,248.400 1.333,248.400 0.800 C 248.400 -0.317,247.210 -0.221,247.160 0.900 C 247.122 1.768,247.108 1.764,246.777 0.800 C 246.491 -0.034,246.457 0.049,246.573 1.300 M149.700 2.012 C 149.083 2.261,148.790 2.724,148.769 3.487 C 148.753 4.099,148.677 4.925,148.601 5.323 C 148.522 5.741,148.661 5.979,148.932 5.888 C 149.189 5.801,149.598 5.998,149.839 6.325 C 150.154 6.753,150.358 6.791,150.563 6.461 C 150.722 6.203,150.616 5.997,150.324 5.994 C 149.940 5.989,149.961 5.878,150.400 5.577 C 150.933 5.212,150.933 5.174,150.400 5.231 C 149.023 5.378,148.555 5.216,149.191 4.814 C 149.516 4.608,149.998 3.846,150.261 3.120 C 150.524 2.394,150.753 2.104,150.770 2.476 C 150.786 2.848,151.008 3.281,151.262 3.438 C 151.567 3.627,151.614 3.546,151.401 3.201 C 151.197 2.872,151.351 2.479,151.815 2.139 C 152.723 1.476,151.254 1.388,149.700 2.012 M153.000 2.400 C 152.850 2.873,152.817 3.350,152.927 3.460 C 153.037 3.570,153.250 3.273,153.400 2.800 C 153.550 2.327,153.583 1.850,153.473 1.740 C 153.363 1.630,153.150 1.927,153.000 2.400 M236.792 2.209 C 236.370 2.718,236.394 2.777,236.943 2.566 C 237.305 2.428,237.600 2.499,237.600 2.724 C 237.600 2.949,237.384 3.205,237.120 3.293 C 236.746 3.418,236.746 3.519,237.120 3.750 C 237.384 3.914,237.600 3.857,237.600 3.624 C 237.600 3.391,237.799 3.200,238.043 3.200 C 238.289 3.200,238.374 3.491,238.234 3.857 C 238.036 4.372,238.098 4.417,238.520 4.066 C 238.920 3.735,239.206 3.746,239.628 4.110 C 239.942 4.379,239.578 3.925,238.820 3.100 C 237.215 1.352,237.427 1.445,236.792 2.209 M248.857 2.031 C 249.357 2.298,249.571 2.698,249.422 3.087 C 249.290 3.431,249.461 4.139,249.803 4.660 C 250.241 5.329,250.276 5.577,249.923 5.504 C 249.648 5.447,249.100 4.770,248.705 4.000 C 248.310 3.230,248.074 2.915,248.181 3.300 C 248.288 3.685,248.201 4.000,247.987 4.000 C 247.774 4.000,247.600 3.798,247.600 3.551 C 247.600 3.228,247.441 3.234,247.036 3.570 C 246.650 3.891,246.389 3.906,246.212 3.619 C 246.069 3.389,246.109 3.200,246.300 3.200 C 246.491 3.200,246.996 2.930,247.424 2.599 C 248.188 2.007,248.188 2.002,247.400 2.237 C 246.748 2.431,246.711 2.396,247.200 2.044 C 247.942 1.510,247.885 1.510,248.857 2.031 M156.392 4.313 L 157.400 5.226 156.062 6.441 C 155.326 7.110,154.807 7.740,154.908 7.842 C 155.010 7.943,155.768 7.352,156.592 6.528 C 157.416 5.704,157.889 4.963,157.643 4.881 C 157.396 4.799,157.297 4.567,157.421 4.366 C 157.545 4.165,157.313 4.000,156.904 4.000 C 156.495 4.000,155.985 3.865,155.772 3.700 C 155.558 3.535,155.837 3.811,156.392 4.313 M244.603 4.005 C 244.737 4.222,244.560 4.400,244.210 4.400 C 243.696 4.400,243.655 4.556,244.000 5.200 C 244.235 5.640,244.673 6.000,244.972 6.000 C 245.670 6.000,245.589 4.082,244.879 3.809 C 244.593 3.699,244.468 3.787,244.603 4.005 M154.200 4.400 C 154.336 4.620,154.227 4.800,153.957 4.800 C 153.687 4.800,153.550 4.883,153.651 4.984 C 153.752 5.085,154.247 5.060,154.751 4.929 C 155.437 4.749,155.533 4.604,155.134 4.351 C 154.403 3.888,153.900 3.914,154.200 4.400 M155.476 5.381 C 155.157 5.700,154.784 5.850,154.648 5.714 C 154.511 5.578,154.400 5.798,154.400 6.203 C 154.400 6.864,154.502 6.843,155.400 6.000 C 155.950 5.483,156.400 5.002,156.400 4.930 C 156.400 4.647,156.029 4.828,155.476 5.381 M151.290 6.006 C 151.453 6.698,149.952 7.551,149.715 6.900 C 149.200 5.483,148.417 6.488,148.467 8.500 C 148.497 9.655,148.592 10.394,148.679 10.142 C 148.767 9.891,149.190 9.777,149.619 9.889 C 150.172 10.034,150.400 9.891,150.400 9.400 C 150.400 8.878,150.645 8.754,151.388 8.896 C 151.931 8.999,152.288 8.943,152.181 8.770 C 152.074 8.597,152.143 8.359,152.334 8.241 C 152.988 7.837,152.638 5.818,151.890 5.674 C 151.498 5.599,151.229 5.748,151.290 6.006 M245.871 7.500 C 245.678 7.828,246.260 9.600,246.560 9.600 C 246.663 9.600,246.731 9.060,246.712 8.400 C 246.680 7.272,246.266 6.829,245.871 7.500 M153.733 9.838 C 153.733 10.147,153.973 10.400,154.267 10.400 C 154.560 10.400,154.800 10.239,154.800 10.043 C 154.800 9.846,154.560 9.593,154.267 9.481 C 153.973 9.368,153.733 9.529,153.733 9.838 M250.000 9.971 C 250.000 10.175,249.685 10.424,249.300 10.524 C 248.841 10.644,248.956 10.723,249.633 10.754 C 250.306 10.784,250.667 10.590,250.667 10.200 C 250.667 9.870,250.517 9.600,250.333 9.600 C 250.150 9.600,250.000 9.767,250.000 9.971 M150.863 10.270 C 150.908 10.452,150.734 11.320,150.475 12.200 C 150.121 13.405,150.028 30.459,150.100 81.200 L 150.197 148.600 150.400 81.000 L 150.603 13.400 150.702 80.830 L 150.800 148.261 149.900 149.030 C 149.017 149.785,147.674 149.796,80.200 149.597 L 11.400 149.393 80.362 149.301 C 141.273 149.220,150.302 149.141,149.567 148.700 C 149.475 148.645,118.198 148.690,80.062 148.800 C 41.926 148.910,10.640 148.865,10.538 148.700 C 10.436 148.535,10.173 148.400,9.953 148.400 C 9.733 148.400,9.637 148.537,9.741 148.704 C 9.844 148.872,9.696 149.327,9.412 149.716 C 8.965 150.328,8.863 150.341,8.660 149.812 C 8.345 148.990,7.200 149.029,7.200 149.862 C 7.200 150.447,7.099 150.436,6.332 149.762 C 5.553 149.078,5.490 149.072,5.720 149.700 C 5.860 150.085,5.831 150.400,5.654 150.400 C 5.478 150.400,5.333 150.670,5.333 151.000 C 5.333 151.330,5.483 151.600,5.667 151.600 C 5.850 151.600,6.000 151.330,6.000 151.000 C 6.000 150.670,6.199 150.400,6.443 150.400 C 6.708 150.400,6.769 150.680,6.596 151.100 C 6.109 152.274,6.047 153.600,6.478 153.600 C 6.702 153.600,6.778 153.321,6.647 152.979 C 6.516 152.638,6.572 152.459,6.770 152.582 C 6.969 152.705,7.235 152.579,7.362 152.302 C 7.489 152.026,7.492 152.205,7.369 152.700 C 6.975 154.288,7.769 153.637,8.812 151.516 C 9.368 150.385,10.068 149.377,10.367 149.278 C 10.727 149.158,10.804 149.270,10.594 149.610 C 10.393 149.935,10.436 150.025,10.711 149.855 C 10.949 149.708,11.264 149.780,11.410 150.017 C 11.564 150.266,12.208 150.345,12.938 150.206 C 13.915 150.020,14.049 150.060,13.532 150.384 C 13.165 150.615,12.400 150.842,11.832 150.889 C 10.788 150.975,10.496 151.365,11.166 151.779 C 11.367 151.903,11.592 151.869,11.666 151.702 C 11.740 151.536,42.670 151.493,80.400 151.606 L 149.000 151.812 80.640 151.899 C 43.042 151.947,12.187 152.079,12.073 152.193 C 11.960 152.307,12.246 152.400,12.710 152.400 C 13.173 152.400,13.664 152.580,13.800 152.800 C 13.964 153.065,36.798 153.167,81.324 153.102 L 148.600 153.003 81.200 152.800 L 13.800 152.597 81.289 152.498 L 148.777 152.400 149.152 153.700 C 149.359 154.415,149.544 154.685,149.564 154.300 C 149.584 153.915,149.799 153.600,150.043 153.600 C 150.286 153.600,150.393 153.840,150.281 154.133 C 150.168 154.427,150.312 154.667,150.600 154.667 C 150.888 154.667,151.039 154.445,150.935 154.174 C 150.831 153.903,150.966 153.545,151.235 153.379 C 151.547 153.185,151.621 153.243,151.438 153.538 C 151.281 153.792,151.354 154.000,151.600 154.000 C 151.846 154.000,151.937 154.178,151.803 154.395 C 151.657 154.632,151.840 154.683,152.259 154.522 C 152.644 154.374,152.763 154.188,152.522 154.107 C 152.282 154.027,152.172 153.627,152.279 153.218 C 152.499 152.379,153.884 151.852,154.107 152.522 C 154.188 152.763,154.374 152.644,154.522 152.259 C 154.683 151.840,154.632 151.657,154.395 151.803 C 154.178 151.937,154.000 151.846,154.000 151.600 C 154.000 151.354,153.792 151.281,153.538 151.438 C 153.243 151.621,153.185 151.547,153.379 151.235 C 153.545 150.966,153.903 150.831,154.174 150.935 C 154.445 151.039,154.667 150.888,154.667 150.600 C 154.667 150.312,154.427 150.168,154.133 150.281 C 153.840 150.393,153.600 150.286,153.600 150.043 C 153.600 149.799,153.409 149.600,153.176 149.600 C 152.943 149.600,152.856 149.768,152.983 149.972 C 153.109 150.177,153.002 150.475,152.744 150.635 C 152.400 150.847,152.370 150.668,152.631 149.963 C 153.095 148.712,153.266 12.326,152.802 13.400 C 152.612 13.840,152.444 44.500,152.428 81.533 C 152.406 135.212,152.299 148.833,151.900 148.700 C 151.503 148.568,151.400 134.663,151.398 80.967 L 151.395 13.400 151.599 81.000 L 151.803 148.600 151.902 81.750 C 151.956 44.983,152.120 14.293,152.267 13.550 C 152.502 12.364,152.460 12.262,151.916 12.708 C 151.162 13.328,150.674 12.125,151.257 11.083 C 151.474 10.696,151.450 10.354,151.195 10.197 C 150.967 10.056,150.817 10.089,150.863 10.270 M149.067 10.667 C 148.920 10.813,148.818 11.308,148.840 11.767 C 148.875 12.496,148.920 12.475,149.200 11.600 L 149.520 10.600 149.588 11.600 C 149.653 12.553,150.264 11.851,150.372 10.700 C 150.407 10.328,149.430 10.303,149.067 10.667 M153.701 12.200 C 153.705 13.080,153.787 13.393,153.883 12.895 C 153.979 12.398,153.975 11.678,153.875 11.295 C 153.775 10.913,153.696 11.320,153.701 12.200 M154.596 79.800 C 154.596 117.860,154.643 133.371,154.700 114.268 C 154.757 95.166,154.757 64.026,154.700 45.068 C 154.643 26.111,154.596 41.740,154.596 79.800 M248.654 11.802 C 248.515 12.165,248.656 12.400,249.013 12.400 C 249.660 12.400,249.807 11.775,249.242 11.426 C 249.045 11.304,248.781 11.474,248.654 11.802 M247.349 12.900 C 247.152 13.183,247.087 42.841,247.200 81.100 C 247.360 135.100,247.299 148.800,246.900 148.800 C 246.502 148.800,246.380 134.901,246.302 80.900 L 246.203 13.000 246.002 81.000 C 245.891 118.400,245.887 149.180,245.994 149.400 C 246.218 149.862,246.281 150.153,246.350 151.043 C 246.378 151.404,246.634 151.596,246.933 151.481 C 247.243 151.362,247.472 151.553,247.479 151.938 C 247.496 152.886,246.837 153.589,246.171 153.333 C 245.176 152.952,245.562 153.779,246.603 154.262 C 247.151 154.517,247.600 154.577,247.600 154.396 C 247.600 154.215,247.426 154.007,247.213 153.933 C 247.000 153.860,247.283 153.586,247.842 153.324 C 248.714 152.915,248.790 152.930,248.380 153.424 C 247.991 153.893,248.053 154.000,248.718 154.000 C 249.166 154.000,249.594 153.817,249.669 153.593 C 249.760 153.319,272.154 153.190,318.102 153.197 C 363.755 153.203,386.400 153.073,386.400 152.803 C 386.400 152.582,386.805 152.386,387.300 152.368 C 387.795 152.351,387.975 152.246,387.700 152.135 C 387.004 151.854,387.073 151.200,387.800 151.200 C 388.130 151.200,388.400 151.386,388.400 151.614 C 388.400 151.900,388.640 151.900,389.174 151.614 C 390.210 151.060,390.527 151.092,390.283 151.729 C 390.171 152.019,390.441 152.483,390.882 152.758 C 391.337 153.042,391.569 153.073,391.418 152.830 C 391.272 152.593,391.343 152.400,391.576 152.400 C 391.809 152.400,392.000 152.190,392.000 151.933 C 392.000 151.677,391.877 151.589,391.728 151.739 C 391.578 151.889,390.936 151.514,390.302 150.906 C 389.534 150.170,389.239 150.036,389.419 150.505 C 389.608 150.999,389.526 151.151,389.145 151.016 C 388.845 150.910,388.083 150.736,387.451 150.629 C 386.819 150.522,386.189 150.313,386.051 150.163 C 385.913 150.013,386.340 149.990,387.000 150.112 C 387.805 150.260,388.450 150.114,388.958 149.666 C 389.521 149.172,389.762 149.129,389.892 149.500 C 389.988 149.775,390.254 150.000,390.482 150.000 C 390.755 150.000,390.745 149.815,390.452 149.463 C 390.207 149.168,390.125 148.808,390.270 148.663 C 390.415 148.518,390.334 148.400,390.090 148.400 C 389.847 148.400,389.564 148.535,389.462 148.700 C 389.360 148.865,358.254 148.910,320.338 148.800 L 251.400 148.600 251.199 80.800 L 250.998 13.000 250.798 80.800 L 250.598 148.600 250.499 80.900 L 250.400 13.200 249.480 13.200 C 248.974 13.200,248.324 13.425,248.035 13.700 C 247.607 14.108,247.560 14.034,247.782 13.300 C 248.082 12.307,247.888 12.127,247.349 12.900 M249.500 114.668 C 249.442 133.331,249.395 118.180,249.395 81.000 C 249.395 43.820,249.442 28.551,249.500 47.068 C 249.557 65.586,249.557 96.006,249.500 114.668 M3.400 148.680 C 1.804 149.054,1.035 151.347,2.018 152.800 C 2.323 153.250,2.363 153.135,2.180 152.344 C 1.849 150.914,2.563 150.578,3.356 151.789 C 4.130 152.970,4.169 153.325,3.500 153.094 C 3.225 152.999,2.604 153.344,2.119 153.861 C 1.635 154.377,0.960 154.800,0.619 154.800 C 0.279 154.800,0.000 154.980,0.000 155.200 C 0.000 155.420,0.255 155.600,0.567 155.600 C 0.879 155.600,1.449 155.721,1.833 155.868 C 2.277 156.039,2.436 155.981,2.268 155.710 C 2.123 155.476,2.274 155.181,2.602 155.054 C 3.001 154.902,3.200 155.073,3.200 155.570 C 3.200 155.979,3.470 156.418,3.800 156.545 C 4.502 156.814,4.545 156.619,4.007 155.614 C 3.722 155.080,3.763 154.823,4.158 154.672 C 4.510 154.536,4.628 154.079,4.493 153.372 C 4.348 152.616,4.424 152.368,4.742 152.564 C 4.994 152.720,5.200 152.657,5.200 152.424 C 5.200 152.191,5.001 152.000,4.757 152.000 C 4.511 152.000,4.426 151.709,4.566 151.343 C 4.763 150.832,4.701 150.785,4.286 151.128 C 3.875 151.470,3.591 151.292,3.032 150.346 L 2.308 149.122 3.375 149.820 C 4.207 150.366,4.546 150.413,4.921 150.036 C 5.294 149.659,5.224 149.609,4.600 149.809 C 3.811 150.062,3.811 150.057,4.576 149.433 C 5.480 148.696,6.400 148.604,6.400 149.249 C 6.400 149.566,6.571 149.556,6.981 149.216 C 7.312 148.941,7.935 148.852,8.431 149.010 C 9.019 149.196,9.212 149.142,9.026 148.843 C 8.759 148.410,5.016 148.302,3.400 148.680 M391.081 148.653 C 390.942 148.792,391.010 149.245,391.233 149.661 C 391.455 150.076,391.551 150.555,391.446 150.725 C 391.341 150.895,391.558 151.057,391.928 151.085 C 392.436 151.123,392.600 150.802,392.600 149.768 C 392.600 148.470,391.829 147.904,391.081 148.653 M393.056 149.307 C 392.930 149.791,392.998 150.358,393.208 150.568 C 393.450 150.810,393.337 151.251,392.899 151.775 C 392.519 152.229,392.370 152.467,392.567 152.303 C 392.765 152.140,393.154 152.196,393.432 152.426 C 393.818 152.747,393.887 152.655,393.726 152.038 C 393.555 151.383,393.677 151.261,394.368 151.394 C 394.849 151.487,395.117 151.390,394.983 151.173 C 394.852 150.960,394.596 150.879,394.414 150.991 C 394.233 151.104,393.975 150.912,393.842 150.565 C 393.426 149.480,393.577 149.016,394.111 149.745 C 394.438 150.193,394.876 150.346,395.330 150.171 C 396.157 149.854,396.073 148.756,395.200 148.468 C 394.698 148.302,394.685 148.373,395.119 148.899 C 395.472 149.326,395.503 149.613,395.216 149.790 C 394.983 149.934,394.660 149.725,394.497 149.326 C 394.073 148.288,393.325 148.279,393.056 149.307 M396.468 149.459 C 396.546 149.862,396.938 150.254,397.341 150.332 C 397.869 150.433,398.033 150.269,397.932 149.741 C 397.854 149.338,397.462 148.946,397.059 148.868 C 396.531 148.767,396.367 148.931,396.468 149.459 M354.100 149.500 C 335.125 149.557,304.075 149.557,285.100 149.500 C 266.125 149.443,281.650 149.395,319.600 149.395 C 357.550 149.395,373.075 149.443,354.100 149.500 M8.533 151.029 C 8.293 151.655,7.200 151.822,7.200 151.233 C 7.200 150.194,7.708 149.592,8.223 150.019 C 8.514 150.261,8.654 150.715,8.533 151.029 M396.800 151.400 C 396.526 151.730,396.009 152.011,395.651 152.025 C 395.224 152.042,395.320 152.179,395.930 152.423 C 396.534 152.666,397.140 152.646,397.660 152.368 C 398.379 151.983,398.417 152.021,398.036 152.734 C 397.767 153.235,397.337 153.456,396.870 153.334 C 396.294 153.184,396.145 153.347,396.200 154.070 C 396.280 155.131,395.331 156.006,394.417 155.714 C 394.078 155.605,394.340 155.873,395.000 156.309 C 395.660 156.745,396.357 156.958,396.549 156.782 C 396.741 156.606,397.116 156.546,397.382 156.648 C 397.649 156.751,397.867 156.556,397.867 156.215 C 397.867 155.667,397.764 155.663,396.979 156.177 C 396.491 156.497,395.983 156.649,395.849 156.516 C 395.499 156.165,396.396 155.200,397.073 155.200 C 397.389 155.200,397.531 155.012,397.389 154.782 C 396.953 154.077,397.945 153.304,399.103 153.449 C 400.199 153.585,400.199 153.585,399.200 153.232 C 398.234 152.892,398.231 152.878,399.100 152.840 C 400.221 152.790,400.317 151.600,399.200 151.600 C 398.760 151.600,398.400 151.420,398.400 151.200 C 398.400 150.593,397.363 150.722,396.800 151.400 M386.600 151.600 C 386.437 151.863,363.256 152.034,318.676 152.098 L 251.000 152.197 318.600 152.400 L 386.200 152.603 318.800 152.674 C 260.496 152.734,248.908 152.609,250.000 151.932 C 250.110 151.864,280.800 151.715,318.200 151.601 C 355.600 151.487,386.346 151.351,386.524 151.297 C 386.702 151.244,386.736 151.380,386.600 151.600 M150.727 152.378 C 151.670 152.042,151.716 152.061,151.106 152.537 C 150.725 152.835,150.517 153.184,150.646 153.312 C 150.774 153.441,150.501 153.447,150.040 153.326 C 149.578 153.205,149.214 152.813,149.232 152.453 C 149.250 152.071,149.344 151.999,149.458 152.280 C 149.598 152.623,149.959 152.651,150.727 152.378 M395.139 153.100 C 395.106 153.265,395.056 153.670,395.030 154.000 C 395.001 154.357,394.661 154.555,394.191 154.489 C 393.406 154.379,393.406 154.383,394.195 155.003 C 394.812 155.487,395.028 155.512,395.155 155.114 C 395.246 154.831,395.518 154.451,395.760 154.270 C 396.073 154.035,396.055 153.880,395.698 153.735 C 395.421 153.623,395.297 153.367,395.421 153.166 C 395.545 152.965,395.547 152.800,395.424 152.800 C 395.301 152.800,395.173 152.935,395.139 153.100 M153.439 153.537 C 153.054 154.160,153.785 154.728,154.282 154.192 C 154.661 153.784,154.642 153.625,154.195 153.453 C 153.882 153.333,153.542 153.371,153.439 153.537 M250.076 153.900 C 250.204 154.563,253.806 154.600,319.005 154.603 L 387.800 154.606 319.615 154.502 C 259.553 154.410,251.391 154.326,251.095 153.799 C 250.633 152.973,249.911 153.045,250.076 153.900 M46.100 153.900 C 64.965 153.957,95.835 153.957,114.700 153.900 C 133.565 153.842,118.130 153.795,80.400 153.795 C 42.670 153.795,27.235 153.842,46.100 153.900 M285.732 153.900 C 304.614 153.957,335.394 153.957,354.132 153.900 C 372.869 153.842,357.420 153.795,319.800 153.795 C 282.180 153.795,266.849 153.842,285.732 153.900 M391.869 154.100 C 391.256 154.549,391.289 154.600,392.193 154.600 C 392.747 154.600,393.200 154.375,393.200 154.100 C 393.200 153.825,393.054 153.600,392.876 153.600 C 392.699 153.600,392.245 153.825,391.869 154.100 M4.788 154.614 C 4.094 155.451,4.673 155.898,5.448 155.124 C 5.822 154.749,5.918 154.396,5.684 154.252 C 5.468 154.118,5.065 154.281,4.788 154.614 M46.100 154.700 C 64.965 154.757,95.835 154.757,114.700 154.700 C 133.565 154.642,118.130 154.595,80.400 154.595 C 42.670 154.595,27.235 154.642,46.100 154.700 M0.000 156.600 C 0.000 156.930,0.315 157.214,0.700 157.231 C 1.085 157.247,1.703 157.320,2.072 157.391 C 2.511 157.476,2.670 157.327,2.530 156.963 C 2.413 156.656,2.155 156.504,1.958 156.626 C 1.761 156.748,1.600 156.657,1.600 156.424 C 1.600 156.191,1.240 156.000,0.800 156.000 C 0.356 156.000,0.000 156.267,0.000 156.600 M393.493 157.234 C 393.652 157.842,393.797 157.928,394.029 157.553 C 394.373 156.996,394.159 156.400,393.614 156.400 C 393.427 156.400,393.373 156.775,393.493 157.234 M3.200 158.400 C 2.965 158.840,2.868 159.200,2.986 159.200 C 3.104 159.200,3.560 158.840,4.000 158.400 C 4.605 157.795,4.657 157.600,4.214 157.600 C 3.892 157.600,3.435 157.960,3.200 158.400 M0.800 158.400 C -0.131 158.698,-0.139 158.723,0.676 158.760 C 1.936 158.817,2.259 159.600,1.024 159.600 C 0.267 159.600,0.000 159.808,0.000 160.400 C 0.000 161.247,0.393 161.351,1.979 160.927 C 2.885 160.685,2.900 160.643,2.179 160.361 C 1.543 160.112,1.620 160.050,2.600 160.022 L 3.800 159.988 2.800 159.461 C 2.250 159.172,1.845 158.724,1.900 158.467 C 1.955 158.210,1.955 158.018,1.900 158.040 C 1.845 158.062,1.350 158.224,0.800 158.400 M398.278 158.256 C 397.861 158.673,398.389 159.200,399.224 159.200 C 399.651 159.200,400.000 158.930,400.000 158.600 C 400.000 158.007,398.772 157.761,398.278 158.256 M397.246 158.820 C 397.221 159.161,397.416 159.656,397.680 159.920 C 398.053 160.293,398.050 160.400,397.667 160.400 C 397.396 160.400,397.023 159.995,396.838 159.500 C 396.573 158.790,396.511 158.956,396.544 160.284 C 396.571 161.383,396.699 161.766,396.913 161.384 C 397.093 161.063,397.511 160.800,397.843 160.800 C 398.176 160.800,398.352 160.954,398.236 161.142 C 398.119 161.330,398.469 161.399,399.012 161.296 C 400.367 161.036,400.256 160.151,398.833 159.867 C 398.180 159.736,397.583 159.317,397.479 158.917 C 397.341 158.384,397.281 158.359,397.246 158.820 M395.600 159.800 C 395.600 160.350,395.755 160.800,395.945 160.800 C 396.134 160.800,396.203 160.350,396.098 159.800 C 395.993 159.250,395.838 158.800,395.753 158.800 C 395.669 158.800,395.600 159.250,395.600 159.800 M1.600 161.684 C 1.600 161.884,1.768 161.944,1.972 161.817 C 2.177 161.691,2.461 161.774,2.602 162.003 C 2.744 162.232,2.711 162.394,2.530 162.363 C 1.615 162.204,-0.156 162.504,0.600 162.689 C 1.040 162.798,1.660 163.092,1.977 163.343 C 2.437 163.708,2.492 163.679,2.247 163.200 C 2.079 162.870,2.224 162.949,2.570 163.376 C 3.190 164.141,3.200 164.140,3.200 163.319 C 3.200 162.861,3.481 162.378,3.825 162.246 C 4.169 162.114,4.346 161.837,4.218 161.630 C 3.923 161.151,1.600 161.200,1.600 161.684 M398.000 162.818 C 397.562 163.115,397.724 163.152,398.600 162.956 C 400.071 162.627,400.390 162.398,399.367 162.406 C 398.945 162.409,398.330 162.595,398.000 162.818 M2.058 236.930 C 1.720 237.337,1.960 237.778,3.092 238.830 C 3.902 239.584,4.352 239.917,4.092 239.570 C 3.727 239.084,3.731 238.829,4.110 238.447 C 4.498 238.056,4.454 238.008,3.900 238.219 C 3.515 238.366,3.200 238.301,3.200 238.076 C 3.200 237.851,3.416 237.595,3.680 237.507 C 4.054 237.382,4.054 237.281,3.680 237.050 C 3.416 236.886,3.200 236.943,3.200 237.176 C 3.200 237.409,3.001 237.600,2.757 237.600 C 2.514 237.600,2.418 237.330,2.545 237.000 C 2.829 236.259,2.638 236.231,2.058 236.930 M397.354 236.975 C 397.222 237.319,396.739 237.600,396.281 237.600 C 395.484 237.600,395.479 237.624,396.184 238.139 C 396.695 238.512,396.780 238.765,396.461 238.963 C 396.207 239.119,396.000 239.427,396.000 239.647 C 396.000 239.867,396.175 239.939,396.388 239.807 C 396.828 239.535,397.437 241.497,397.036 241.897 C 396.702 242.232,395.749 242.434,394.000 242.542 C 392.504 242.634,392.020 243.879,392.975 245.177 C 393.288 245.601,393.275 245.679,392.928 245.470 C 392.668 245.314,392.355 245.349,392.232 245.548 C 392.110 245.746,392.449 245.993,392.987 246.095 C 393.806 246.252,393.906 246.172,393.603 245.605 C 393.253 244.951,393.195 243.061,393.535 243.401 C 393.626 243.493,394.294 243.321,395.018 243.018 C 396.304 242.481,396.800 242.559,396.800 243.300 C 396.800 243.502,396.580 243.593,396.311 243.504 C 395.858 243.353,394.000 244.874,394.000 245.396 C 394.000 245.817,395.507 244.832,396.721 243.618 C 397.827 242.512,397.928 242.482,398.119 243.213 C 398.256 243.737,398.639 243.982,399.263 243.946 C 400.145 243.894,400.149 243.881,399.341 243.723 C 398.868 243.631,398.373 243.250,398.241 242.878 C 398.108 242.505,397.895 241.977,397.768 241.704 C 397.598 241.340,397.866 241.273,398.768 241.454 C 399.521 241.604,400.000 241.536,400.000 241.278 C 400.000 241.046,399.595 240.778,399.100 240.682 L 398.200 240.509 399.100 240.454 C 400.219 240.387,400.314 239.200,399.200 239.200 C 398.760 239.200,398.400 239.009,398.400 238.776 C 398.400 238.543,398.204 238.474,397.965 238.622 C 397.726 238.769,397.619 239.230,397.728 239.645 C 397.836 240.060,397.762 240.400,397.563 240.400 C 397.363 240.400,397.200 239.860,397.200 239.200 C 397.200 238.400,397.400 238.000,397.800 238.000 C 398.474 238.000,398.617 236.982,397.997 236.598 C 397.776 236.461,397.486 236.631,397.354 236.975 M1.600 238.733 C 1.600 238.990,1.240 239.200,0.800 239.200 C 0.356 239.200,0.000 239.467,0.000 239.800 C 0.000 240.203,0.403 240.400,1.229 240.400 C 2.186 240.400,2.428 240.556,2.322 241.100 C 2.223 241.605,1.852 241.776,0.993 241.715 L -0.200 241.630 1.107 242.028 C 2.211 242.365,2.353 242.541,2.021 243.161 C 1.805 243.564,1.742 244.008,1.881 244.147 C 2.020 244.286,1.608 244.425,0.967 244.454 C 0.063 244.497,-0.003 244.547,0.675 244.679 C 1.157 244.773,1.631 245.153,1.729 245.525 C 1.887 246.123,2.170 244.775,2.061 243.941 C 2.043 243.799,2.381 243.775,2.814 243.888 C 3.246 244.001,3.600 243.898,3.600 243.659 C 3.600 243.419,3.897 243.339,4.266 243.481 C 4.715 243.653,4.837 243.583,4.640 243.265 C 4.480 243.006,3.929 242.870,3.415 242.963 C 2.542 243.121,2.225 242.442,2.870 241.797 C 2.994 241.673,2.883 240.951,2.622 240.193 C 2.112 238.709,1.600 237.978,1.600 238.733 M4.200 244.291 C 2.457 244.539,2.210 245.000,3.820 245.000 C 4.579 245.000,5.200 244.854,5.200 244.676 C 5.200 244.498,5.408 244.481,5.662 244.638 C 5.948 244.815,6.015 244.748,5.838 244.462 C 5.681 244.208,5.518 244.027,5.476 244.060 C 5.434 244.093,4.860 244.197,4.200 244.291 M397.235 245.724 C 397.684 247.286,397.687 247.200,397.176 247.200 C 396.943 247.200,396.855 247.035,396.980 246.832 C 397.258 246.383,396.058 245.114,395.524 245.292 C 394.933 245.489,395.181 246.215,395.796 246.089 C 396.615 245.923,396.872 246.642,396.196 247.204 C 395.868 247.476,395.605 247.901,395.612 248.149 C 395.619 248.397,395.810 248.281,396.037 247.892 C 396.264 247.502,396.621 247.289,396.831 247.419 C 397.041 247.549,397.128 247.793,397.024 247.961 C 396.920 248.129,397.097 248.267,397.418 248.267 C 397.738 248.267,398.000 247.937,398.000 247.533 C 398.000 247.018,398.297 246.800,399.000 246.800 C 399.622 246.800,400.000 246.573,400.000 246.200 C 400.000 245.487,398.757 245.403,398.089 246.071 C 397.729 246.431,397.656 246.346,397.780 245.702 C 397.869 245.241,397.701 244.771,397.406 244.658 C 396.984 244.496,396.948 244.721,397.235 245.724 M398.400 244.800 C 398.400 245.020,398.760 245.200,399.200 245.200 C 399.640 245.200,400.000 245.020,400.000 244.800 C 400.000 244.580,399.640 244.400,399.200 244.400 C 398.760 244.400,398.400 244.580,398.400 244.800 M2.723 245.974 C 2.369 246.541,1.914 246.703,1.020 246.579 C -0.106 246.424,-0.123 246.438,0.800 246.766 C 1.766 247.108,1.769 247.122,0.900 247.160 C 0.384 247.183,0.000 247.456,0.000 247.800 C 0.000 248.524,1.439 248.606,1.763 247.900 C 1.889 247.625,1.900 247.781,1.786 248.247 C 1.509 249.382,2.236 251.200,2.967 251.200 C 3.652 251.200,3.544 250.318,2.652 248.621 C 2.033 247.442,2.423 246.120,3.241 246.625 C 3.433 246.744,3.484 246.562,3.353 246.221 C 3.222 245.879,3.294 245.600,3.514 245.600 C 4.313 245.600,4.365 246.790,3.585 247.208 C 3.153 247.439,2.803 247.847,2.806 248.114 C 2.810 248.419,2.956 248.377,3.200 248.000 C 3.413 247.670,3.591 247.575,3.594 247.789 C 3.597 248.003,3.886 247.770,4.236 247.270 C 4.950 246.251,4.737 245.200,3.816 245.200 C 3.481 245.200,2.989 245.548,2.723 245.974 M6.160 245.906 C 5.433 246.391,4.703 248.000,5.210 248.000 C 5.450 248.000,5.519 248.208,5.362 248.462 C 5.194 248.733,5.251 248.816,5.501 248.661 C 5.734 248.517,5.836 248.060,5.728 247.645 C 5.619 247.230,5.724 246.771,5.961 246.624 C 6.226 246.460,6.300 246.596,6.153 246.979 C 6.022 247.321,6.069 247.614,6.257 247.631 C 6.446 247.647,6.915 247.722,7.300 247.795 C 7.685 247.869,8.000 247.765,8.000 247.565 C 8.000 247.364,7.650 247.200,7.223 247.200 C 6.661 247.200,6.489 246.978,6.600 246.400 C 6.773 245.503,6.770 245.499,6.160 245.906 M12.000 246.767 C 12.000 247.408,11.775 248.024,11.500 248.135 C 11.201 248.256,11.282 248.350,11.700 248.368 C 12.239 248.393,12.400 248.079,12.400 247.000 C 12.400 246.230,12.310 245.600,12.200 245.600 C 12.090 245.600,12.000 246.125,12.000 246.767 M148.684 245.849 C 148.261 246.272,148.783 246.800,149.624 246.800 C 150.051 246.800,150.400 246.976,150.400 247.190 C 150.400 247.444,150.041 247.444,149.374 247.190 C 148.722 246.942,123.856 246.800,81.184 246.800 L 14.021 246.800 13.410 247.980 C 12.653 249.445,12.652 249.600,13.400 249.600 C 13.730 249.600,14.000 249.780,14.000 250.000 C 14.000 250.265,36.766 250.433,81.300 250.498 L 148.600 250.597 81.200 250.798 L 13.800 251.000 81.600 251.200 C 126.569 251.333,149.499 251.265,149.694 251.000 C 149.856 250.780,149.999 281.290,150.012 318.800 C 150.032 375.748,150.127 387.198,150.586 388.200 L 151.135 389.400 151.168 388.300 C 151.199 387.240,151.793 386.778,152.067 387.600 C 152.140 387.820,152.197 357.355,152.194 319.900 L 152.189 251.800 152.394 319.267 C 152.507 356.373,152.736 386.869,152.902 387.036 C 153.069 387.202,153.159 356.619,153.102 319.073 C 153.019 263.306,153.095 250.772,153.521 250.609 C 153.807 250.499,153.933 250.585,153.800 250.800 C 153.658 251.031,153.843 251.082,154.253 250.924 C 154.872 250.687,154.853 250.615,154.074 250.268 C 153.593 250.053,153.200 249.715,153.200 249.515 C 153.200 249.316,153.380 249.264,153.600 249.400 C 153.820 249.536,154.000 249.255,154.000 248.775 C 154.000 248.060,153.895 247.989,153.424 248.380 C 152.930 248.790,152.915 248.714,153.324 247.842 C 153.586 247.283,153.860 247.000,153.933 247.213 C 154.007 247.426,154.215 247.600,154.396 247.600 C 154.577 247.600,154.517 247.151,154.262 246.603 C 153.779 245.562,152.952 245.176,153.333 246.171 C 153.589 246.837,152.886 247.496,151.938 247.479 C 151.553 247.472,151.362 247.243,151.481 246.933 C 151.617 246.580,151.361 246.400,150.723 246.400 C 150.193 246.400,149.577 246.217,149.353 245.993 C 149.130 245.770,148.829 245.705,148.684 245.849 M247.547 245.959 C 247.987 246.237,247.919 246.481,247.200 247.200 C 246.481 247.919,246.237 247.987,245.959 247.547 C 245.684 247.114,245.611 247.142,245.606 247.680 C 245.603 248.054,245.841 248.504,246.136 248.680 C 246.431 248.856,246.777 249.415,246.905 249.923 C 247.109 250.736,247.058 250.784,246.475 250.323 C 245.892 249.862,245.896 249.929,246.511 250.893 C 247.168 251.921,247.208 255.969,247.195 319.690 C 247.186 365.520,247.314 387.438,247.591 387.530 C 247.829 387.610,247.892 387.360,247.741 386.933 C 247.529 386.333,247.580 386.291,248.021 386.700 C 248.318 386.975,248.974 387.200,249.480 387.200 L 250.400 387.200 250.498 319.300 L 250.597 251.400 250.802 319.200 L 251.007 387.000 251.003 318.904 C 251.001 262.564,251.092 250.774,251.533 250.604 C 251.826 250.492,282.201 250.400,319.033 250.400 C 360.074 250.400,386.000 250.256,386.000 250.028 C 386.000 249.823,386.360 249.598,386.801 249.528 C 387.600 249.400,387.600 249.398,386.806 248.100 L 386.012 246.800 319.032 246.800 C 276.480 246.800,251.678 246.658,251.026 246.410 C 250.359 246.156,250.000 246.156,250.000 246.410 C 250.000 247.031,248.909 246.861,248.655 246.200 C 248.529 245.870,248.104 245.603,247.713 245.606 C 247.156 245.611,247.120 245.688,247.547 245.959 M387.660 246.900 C 387.613 248.087,387.746 248.399,388.300 248.394 C 388.754 248.390,388.837 248.284,388.536 248.093 C 388.281 247.930,387.993 247.258,387.896 246.599 C 387.736 245.512,387.714 245.540,387.660 246.900 M391.133 246.370 C 391.060 246.574,390.730 246.799,390.400 246.870 C 389.401 247.086,388.735 248.400,389.624 248.400 C 389.857 248.400,389.952 248.246,389.836 248.058 C 389.720 247.871,390.069 247.515,390.613 247.267 C 391.156 247.020,391.600 246.633,391.600 246.409 C 391.600 245.899,391.312 245.875,391.133 246.370 M397.500 248.758 C 396.251 249.975,396.014 251.333,397.086 251.127 C 397.463 251.054,397.939 250.411,398.144 249.697 C 398.391 248.834,398.764 248.400,399.258 248.400 C 399.666 248.400,400.000 248.220,400.000 248.000 C 400.000 247.257,398.607 247.679,397.500 248.758 M7.200 248.800 C 7.200 249.640,8.727 249.807,9.485 249.048 C 9.658 248.875,9.620 248.787,9.400 248.852 C 9.180 248.917,8.595 248.745,8.100 248.471 C 7.296 248.025,7.200 248.060,7.200 248.800 M114.668 248.300 C 96.006 248.357,65.586 248.357,47.068 248.300 C 28.551 248.242,43.820 248.195,81.000 248.195 C 118.180 248.195,133.331 248.242,114.668 248.300 M362.200 248.297 C 297.392 248.570,251.294 248.571,251.462 248.300 C 251.564 248.135,282.012 248.044,319.124 248.097 C 356.236 248.150,375.620 248.240,362.200 248.297 M5.144 249.630 C 4.625 250.087,4.410 250.356,4.666 250.228 C 4.922 250.100,5.225 250.221,5.339 250.498 C 5.466 250.805,5.652 250.652,5.819 250.104 C 5.968 249.612,6.278 249.325,6.507 249.466 C 6.749 249.616,6.804 249.530,6.638 249.262 C 6.264 248.657,6.246 248.662,5.144 249.630 M390.501 249.293 C 390.555 249.561,390.827 250.025,391.104 250.323 C 391.381 250.621,391.506 251.028,391.383 251.228 C 391.259 251.427,391.453 251.478,391.813 251.340 C 392.281 251.160,392.331 251.005,391.991 250.794 C 391.674 250.598,391.653 250.414,391.930 250.243 C 392.158 250.102,392.583 250.305,392.873 250.693 C 393.539 251.587,394.452 251.801,394.141 250.991 C 393.977 250.563,394.096 250.462,394.555 250.638 C 395.006 250.811,395.198 250.663,395.194 250.143 C 395.190 249.729,395.058 249.577,394.894 249.800 C 394.442 250.415,392.642 250.579,393.018 249.971 C 393.206 249.667,393.159 249.578,392.896 249.741 C 392.661 249.886,392.398 249.795,392.313 249.539 C 392.100 248.901,390.374 248.666,390.501 249.293 M7.371 250.800 C 7.371 251.240,7.383 251.600,7.397 251.600 C 7.411 251.600,7.730 251.240,8.107 250.800 C 8.755 250.043,8.754 250.000,8.082 250.000 C 7.638 250.000,7.371 250.300,7.371 250.800 M388.800 250.764 C 390.016 251.759,390.244 251.783,390.562 250.955 C 390.742 250.485,390.638 250.377,390.176 250.554 C 389.827 250.688,389.150 250.606,388.671 250.372 C 387.932 250.011,387.951 250.070,388.800 250.764 M395.281 250.818 C 394.972 251.313,394.946 251.600,395.209 251.600 C 395.438 251.600,395.732 251.322,395.862 250.983 C 396.222 250.045,395.833 249.934,395.281 250.818 M285.100 251.100 C 303.635 251.157,333.965 251.157,352.500 251.100 C 371.035 251.042,355.870 250.995,318.800 250.995 C 281.730 250.995,266.565 251.042,285.100 251.100 M154.596 320.200 C 154.596 358.260,154.643 373.771,154.700 354.668 C 154.757 335.566,154.757 304.426,154.700 285.468 C 154.643 266.511,154.596 282.140,154.596 320.200 M150.700 352.668 C 150.642 371.331,150.595 356.180,150.595 319.000 C 150.595 281.820,150.642 266.551,150.700 285.068 C 150.757 303.586,150.757 334.006,150.700 352.668 M151.500 353.100 C 151.442 371.745,151.395 356.490,151.395 319.200 C 151.395 281.910,151.442 266.655,151.500 285.300 C 151.557 303.945,151.557 334.455,151.500 353.100 M246.195 319.200 C 246.195 356.490,246.242 371.745,246.300 353.100 C 246.357 334.455,246.357 303.945,246.300 285.300 C 246.242 266.655,246.195 281.910,246.195 319.200 M249.500 352.668 C 249.442 371.331,249.395 356.180,249.395 319.000 C 249.395 281.820,249.442 266.551,249.500 285.068 C 249.557 303.586,249.557 334.006,249.500 352.668 M153.701 388.200 C 153.705 389.080,153.787 389.393,153.883 388.895 C 153.979 388.398,153.975 387.678,153.875 387.295 C 153.775 386.913,153.696 387.320,153.701 388.200 M148.854 388.267 C 148.825 388.744,148.675 389.464,148.522 389.867 C 148.257 390.567,148.277 390.568,148.955 389.896 C 149.345 389.509,149.804 389.279,149.974 389.384 C 150.145 389.490,150.187 389.086,150.068 388.488 L 149.852 387.400 149.587 388.400 L 149.322 389.400 149.116 388.400 C 148.933 387.516,148.903 387.501,148.854 388.267 M248.654 388.198 C 248.781 388.526,249.045 388.696,249.242 388.574 C 249.807 388.225,249.660 387.600,249.013 387.600 C 248.656 387.600,248.515 387.835,248.654 388.198 M250.446 390.724 C 250.420 391.017,250.194 391.120,249.932 390.958 C 249.611 390.760,249.550 390.892,249.737 391.379 C 249.951 391.938,249.860 392.032,249.305 391.821 C 248.740 391.606,248.699 391.652,249.100 392.056 C 249.808 392.770,249.723 393.400,249.000 392.800 C 248.509 392.392,248.400 392.420,248.400 392.951 C 248.400 393.381,248.746 393.600,249.424 393.600 C 249.987 393.600,250.360 393.741,250.253 393.914 C 250.146 394.087,250.376 394.229,250.763 394.229 C 251.150 394.229,251.467 393.997,251.467 393.714 C 251.467 393.431,251.153 393.200,250.769 393.200 C 250.320 393.200,250.119 392.950,250.205 392.500 C 250.278 392.115,250.355 391.710,250.376 391.600 C 250.396 391.490,250.564 391.640,250.750 391.934 C 251.021 392.361,251.139 392.336,251.340 391.813 C 251.478 391.453,251.427 391.260,251.226 391.384 C 251.025 391.508,250.778 391.293,250.677 390.905 C 250.576 390.517,250.472 390.436,250.446 390.724 M148.567 391.167 C 147.887 391.847,148.537 392.600,149.804 392.600 C 150.829 392.600,151.152 392.452,150.998 392.052 C 150.854 391.675,151.020 391.564,151.527 391.697 C 151.934 391.803,152.267 391.690,152.266 391.445 C 152.266 391.031,148.952 390.781,148.567 391.167 M245.433 392.300 C 245.268 392.465,244.563 392.600,243.867 392.600 C 242.730 392.600,242.598 392.723,242.580 393.800 C 242.550 395.660,242.012 396.890,241.343 396.634 C 241.016 396.508,240.866 396.583,241.003 396.805 C 241.425 397.487,240.713 397.234,240.187 396.515 C 239.776 395.952,239.578 395.921,239.076 396.337 C 238.571 396.756,238.391 396.718,238.044 396.122 C 237.657 395.455,237.623 395.466,237.612 396.257 C 237.605 396.729,237.319 397.222,236.975 397.354 C 236.631 397.486,236.461 397.776,236.598 397.997 C 236.982 398.617,238.000 398.474,238.000 397.800 C 238.000 397.143,239.796 396.947,240.177 397.563 C 240.300 397.762,240.061 397.836,239.646 397.728 C 239.230 397.619,238.769 397.726,238.622 397.965 C 238.474 398.204,238.543 398.400,238.776 398.400 C 239.009 398.400,239.200 398.760,239.200 399.200 C 239.200 399.911,239.467 400.000,241.600 400.000 C 243.974 400.000,244.000 399.988,244.000 398.855 C 244.000 397.871,244.131 397.736,244.938 397.890 C 245.683 398.033,245.838 398.268,245.691 399.035 C 245.558 399.733,245.686 400.000,246.153 400.000 C 246.509 400.000,246.800 399.680,246.800 399.289 C 246.800 398.532,247.881 397.470,248.828 397.294 C 249.152 397.234,249.009 397.523,248.500 397.958 C 247.583 398.743,247.275 400.000,248.000 400.000 C 248.220 400.000,248.400 399.640,248.400 399.200 C 248.400 398.756,248.667 398.400,249.000 398.400 C 250.466 398.400,249.598 396.930,248.100 396.876 C 247.007 396.837,246.763 396.926,247.200 397.205 C 247.712 397.532,247.697 397.589,247.100 397.594 C 246.312 397.601,246.122 396.424,246.900 396.357 C 247.175 396.334,247.739 396.289,248.154 396.257 C 249.182 396.179,249.932 394.972,249.328 394.368 C 248.990 394.030,248.891 394.104,248.937 394.657 C 248.972 395.066,248.775 395.355,248.500 395.300 C 248.225 395.245,247.997 395.425,247.994 395.700 C 247.989 396.068,247.897 396.057,247.644 395.657 C 247.404 395.279,247.217 395.249,247.026 395.557 C 246.876 395.801,246.538 395.997,246.276 395.994 C 245.958 395.990,245.980 395.874,246.343 395.644 C 246.721 395.404,246.751 395.217,246.443 395.026 C 245.996 394.750,245.849 395.217,245.979 396.498 C 246.031 397.014,245.787 397.173,245.041 397.112 C 244.046 397.029,244.043 397.019,244.817 396.299 C 245.248 395.897,245.600 395.233,245.600 394.822 C 245.600 394.264,245.828 394.117,246.500 394.242 C 246.995 394.334,247.130 394.293,246.800 394.151 C 245.512 393.597,245.169 393.120,245.644 392.547 C 246.119 391.975,245.953 391.780,245.433 392.300 M246.413 392.716 C 245.894 393.279,245.902 393.323,246.487 393.099 C 246.851 392.959,247.217 393.051,247.301 393.302 C 247.386 393.559,247.571 393.453,247.722 393.059 C 247.870 392.674,247.828 392.459,247.630 392.582 C 247.431 392.705,247.208 392.642,247.134 392.442 C 247.060 392.242,246.736 392.365,246.413 392.716 M151.953 392.676 C 151.927 392.854,151.919 393.112,151.936 393.249 C 151.952 393.386,151.194 393.411,150.250 393.304 C 148.845 393.146,148.533 393.231,148.533 393.769 C 148.533 394.222,148.662 394.298,148.947 394.013 C 149.174 393.786,149.628 393.600,149.956 393.600 C 150.404 393.600,150.359 393.748,149.776 394.195 C 149.070 394.735,149.127 394.749,150.400 394.342 C 152.129 393.790,153.058 393.007,152.438 392.624 C 152.197 392.475,151.979 392.498,151.953 392.676 M154.800 392.621 C 154.800 392.704,155.181 392.976,155.646 393.225 C 156.305 393.577,156.455 393.566,156.325 393.174 C 156.177 392.731,154.800 392.232,154.800 392.621 M153.545 393.504 C 153.049 394.138,153.064 394.150,153.720 393.635 C 154.380 393.116,154.423 393.158,154.246 394.135 C 154.127 394.794,154.233 395.205,154.526 395.212 C 154.787 395.219,154.681 395.410,154.292 395.637 C 153.902 395.864,153.706 396.249,153.857 396.493 C 154.032 396.775,153.901 396.848,153.499 396.693 C 152.898 396.463,152.176 397.363,152.346 398.130 C 152.387 398.311,152.220 398.336,151.975 398.185 C 151.655 397.987,151.652 397.788,151.965 397.475 C 152.666 396.774,152.464 396.250,151.725 396.851 C 151.134 397.332,151.083 397.313,151.313 396.700 C 151.457 396.315,151.406 396.000,151.200 396.000 C 150.994 396.000,150.934 395.685,151.066 395.300 C 151.261 394.735,151.186 394.755,150.681 395.400 C 150.292 395.897,150.195 396.344,150.427 396.580 C 150.632 396.789,150.797 397.239,150.794 397.580 C 150.788 398.126,150.742 398.129,150.400 397.600 C 150.106 397.144,150.011 397.129,150.006 397.537 C 150.003 397.833,150.360 398.169,150.800 398.284 C 151.243 398.400,151.600 398.830,151.600 399.247 C 151.600 399.661,151.870 400.000,152.200 400.000 C 152.530 400.000,152.800 399.651,152.800 399.224 C 152.800 398.797,152.954 398.352,153.142 398.236 C 153.330 398.119,153.421 398.514,153.344 399.112 C 153.207 400.172,153.213 400.170,153.589 399.016 C 153.869 398.160,153.841 397.746,153.488 397.522 C 152.965 397.190,153.199 397.131,155.300 397.070 C 156.385 397.039,156.651 396.784,156.137 396.270 C 155.992 396.125,155.628 396.211,155.327 396.460 C 154.523 397.128,154.252 396.605,155.010 395.848 C 155.366 395.491,155.464 395.200,155.229 395.200 C 154.993 395.200,154.800 394.761,154.800 394.224 C 154.800 392.953,154.232 392.628,153.545 393.504 M245.200 393.542 C 245.200 393.726,244.839 394.203,244.397 394.602 C 243.956 395.002,243.641 395.596,243.697 395.923 C 243.754 396.250,243.569 396.598,243.288 396.696 C 242.907 396.829,242.841 396.532,243.033 395.537 C 243.175 394.802,243.300 394.012,243.312 393.782 C 243.337 393.289,245.200 393.053,245.200 393.542 M148.652 395.391 C 148.780 395.726,149.136 396.000,149.443 396.000 C 150.224 396.000,150.136 395.701,149.209 395.205 C 148.564 394.859,148.461 394.894,148.652 395.391 M250.800 395.200 C 250.800 395.420,250.815 395.715,250.834 395.855 C 250.853 395.996,250.628 396.263,250.334 396.449 C 249.893 396.729,249.895 396.789,250.349 396.794 C 250.795 396.799,250.803 396.914,250.392 397.409 C 249.970 397.918,249.994 397.977,250.543 397.766 C 250.905 397.628,251.202 397.309,251.205 397.057 C 251.208 396.806,251.319 396.195,251.452 395.700 C 251.597 395.160,251.515 394.800,251.247 394.800 C 251.001 394.800,250.800 394.980,250.800 395.200 M158.800 395.753 C 158.800 395.838,159.250 395.993,159.800 396.098 C 160.350 396.203,160.800 396.134,160.800 395.945 C 160.800 395.755,160.350 395.600,159.800 395.600 C 159.250 395.600,158.800 395.669,158.800 395.753 M148.800 396.976 C 148.800 397.293,149.008 397.681,149.262 397.838 C 149.562 398.024,149.614 397.947,149.411 397.617 C 149.228 397.322,149.328 396.965,149.649 396.761 C 150.085 396.485,150.054 396.411,149.500 396.406 C 149.115 396.403,148.800 396.659,148.800 396.976 M159.500 396.838 C 159.995 397.023,160.400 397.382,160.400 397.636 C 160.400 397.974,160.242 397.967,159.813 397.611 C 159.491 397.343,158.996 397.217,158.713 397.331 C 158.395 397.459,158.469 397.549,158.910 397.568 C 159.368 397.589,159.705 398.027,159.860 398.800 C 160.150 400.251,161.034 400.381,161.296 399.012 C 161.399 398.469,161.330 398.119,161.142 398.236 C 160.954 398.352,160.800 398.176,160.800 397.843 C 160.800 397.511,161.063 397.093,161.384 396.913 C 161.766 396.699,161.383 396.571,160.284 396.544 C 158.956 396.511,158.790 396.573,159.500 396.838 M156.154 398.177 C 156.032 398.494,156.003 399.079,156.089 399.477 C 156.187 399.928,156.324 399.712,156.454 398.900 C 156.671 397.538,156.530 397.196,156.154 398.177 M162.649 398.215 C 162.512 398.573,162.415 399.166,162.434 399.533 C 162.453 399.900,162.627 399.669,162.821 399.020 C 163.198 397.758,163.065 397.133,162.649 398.215 M158.256 398.278 C 157.761 398.772,158.007 400.000,158.600 400.000 C 158.930 400.000,159.200 399.651,159.200 399.224 C 159.200 398.389,158.673 397.861,158.256 398.278 M244.400 399.200 C 244.400 399.640,244.580 400.000,244.800 400.000 C 245.020 400.000,245.200 399.640,245.200 399.200 C 245.200 398.760,245.020 398.400,244.800 398.400 C 244.580 398.400,244.400 398.760,244.400 399.200 " stroke="none" fill="#f0fcfc" fill-rule="evenodd"></path></g></svg>