<svg id="svg" version="1.1" xmlns="http://www.w3.org/2000/svg" xmlns:xlink="http://www.w3.org/1999/xlink" width="400" height="400" viewBox="0, 0, 400,400"><g id="svgg"><path id="path0" d="M342.969 11.771 L 298.047 23.337 187.802 23.387 L 77.557 23.438 75.497 25.497 L 73.437 27.557 73.437 42.294 L 73.438 57.031 39.002 57.031 L 4.567 57.031 2.284 59.315 L -0.000 61.599 -0.000 127.631 L -0.000 193.663 1.885 195.855 L 3.770 198.047 38.604 198.266 L 73.438 198.484 73.438 225.805 L 73.438 253.125 48.750 253.125 L 24.062 253.125 21.406 255.781 L 18.750 258.437 18.750 282.031 L 18.750 305.625 21.406 308.281 L 24.062 310.938 48.750 310.938 L 73.438 310.938 73.438 341.690 L 73.438 372.443 75.497 374.503 L 77.557 376.563 187.412 376.563 L 297.268 376.563 343.360 388.278 C 393.005 400.897,394.421 401.147,397.809 397.901 L 400.000 395.801 400.000 200.000 L 400.000 4.199 397.809 2.099 C 394.343 -1.221,391.439 -0.709,342.969 11.771 M384.375 200.000 C 384.375 299.688,384.111 381.262,383.789 381.276 C 383.467 381.291,366.240 377.014,345.508 371.774 L 307.813 362.245 307.813 296.854 L 307.812 231.463 305.753 229.403 C 302.817 226.467,297.183 226.467,294.247 229.403 L 292.188 231.463 292.188 296.200 L 292.188 360.938 190.625 360.938 L 89.063 360.938 89.063 335.938 L 89.063 310.938 106.250 310.938 L 123.438 310.938 123.438 317.656 C 123.438 325.647,126.111 329.688,131.399 329.688 C 134.141 329.688,202.140 291.233,206.046 287.474 C 208.546 285.067,208.546 278.995,206.046 276.588 C 202.140 272.830,134.141 234.375,131.399 234.375 C 126.111 234.375,123.438 238.415,123.438 246.406 L 123.438 253.125 106.250 253.125 L 89.063 253.125 89.063 225.791 L 89.063 198.457 179.365 198.252 L 269.667 198.047 271.552 195.855 L 273.438 193.663 273.438 127.734 L 273.438 61.806 271.552 59.614 L 269.667 57.422 179.365 57.217 L 89.063 57.012 89.063 48.037 L 89.063 39.063 190.625 39.063 L 292.188 39.063 292.188 103.800 L 292.188 168.537 294.160 170.509 C 297.562 173.911,302.438 173.911,305.840 170.509 L 307.813 168.537 307.813 103.147 L 307.813 37.756 344.727 28.323 C 365.029 23.134,382.256 18.858,383.008 18.819 C 384.306 18.753,384.375 27.875,384.375 200.000 M257.813 127.734 L 257.813 182.031 136.719 182.031 L 15.625 182.031 15.625 127.734 L 15.625 73.438 136.719 73.438 L 257.813 73.438 257.813 127.734 M91.037 90.838 C 86.097 95.778,86.563 97.181,98.931 114.612 C 102.956 120.285,106.250 125.228,106.250 125.596 C 106.250 125.964,101.665 132.749,96.060 140.672 C 90.456 148.595,85.671 155.871,85.427 156.841 C 83.688 163.763,90.496 169.351,97.034 166.369 C 98.021 165.919,102.888 159.808,107.850 152.790 L 116.871 140.029 125.037 151.742 C 136.518 168.209,140.418 170.640,146.154 164.904 C 150.960 160.097,150.250 158.396,133.764 135.219 C 130.580 130.742,127.820 126.676,127.631 126.184 C 127.442 125.691,131.343 119.521,136.300 112.473 C 147.255 96.894,148.123 92.168,140.600 89.052 C 134.960 86.716,132.987 88.179,123.462 101.758 C 119.920 106.807,116.930 110.938,116.818 110.938 C 116.706 110.938,113.612 106.627,109.942 101.358 C 100.051 87.158,96.624 85.251,91.037 90.838 M165.234 89.020 C 160.398 90.999,160.547 89.766,160.547 127.880 L 160.547 162.628 163.198 164.997 C 166.626 168.060,171.905 167.827,174.779 164.486 L 176.563 162.413 176.563 128.509 C 176.563 103.887,176.307 94.044,175.629 92.556 C 174.034 89.056,169.180 87.405,165.234 89.020 M196.484 89.020 C 186.757 93.001,191.407 104.688,202.719 104.688 L 208.539 104.688 208.762 133.659 L 208.984 162.630 211.635 164.998 C 215.064 168.060,220.343 167.827,223.216 164.486 L 225.000 162.413 225.000 133.550 L 225.000 104.688 231.310 104.688 C 242.368 104.688,247.234 94.083,238.297 89.461 C 235.762 88.150,199.543 87.768,196.484 89.020 M33.310 91.122 L 31.250 93.182 31.250 127.667 C 31.250 171.261,29.098 167.425,53.341 167.040 C 70.512 166.767,72.027 166.259,73.124 160.409 C 74.510 153.022,70.774 150.781,57.070 150.781 L 46.875 150.781 46.875 143.359 L 46.875 135.938 56.701 135.938 C 68.419 135.938,71.094 134.487,71.094 128.134 C 71.094 121.081,68.357 119.531,55.898 119.531 L 46.875 119.531 46.875 112.109 L 46.875 104.688 57.848 104.688 C 71.257 104.688,74.967 102.295,73.100 94.855 C 71.725 89.379,70.578 89.063,52.095 89.063 L 35.369 89.063 33.310 91.122 M294.210 194.591 C 291.416 197.912,291.393 202.899,294.160 205.665 C 300.073 211.579,309.592 206.355,308.007 198.066 C 306.866 192.095,298.156 189.902,294.210 194.591 M165.871 271.875 C 175.177 277.246,182.790 281.816,182.789 282.031 C 182.789 282.246,173.214 287.948,161.511 294.703 L 140.234 306.983 139.774 303.296 C 138.606 293.935,142.371 294.531,84.414 294.531 L 35.156 294.531 35.156 282.031 L 35.156 269.531 84.338 269.531 C 141.816 269.531,139.844 269.865,139.844 260.150 L 139.844 256.941 144.398 259.525 C 146.903 260.946,156.566 266.504,165.871 271.875 " stroke="none" fill="#000000" fill-rule="evenodd"></path></g></svg>