<svg id="svg" version="1.1" xmlns="http://www.w3.org/2000/svg" xmlns:xlink="http://www.w3.org/1999/xlink" width="400" height="400" viewBox="0, 0, 400,400"><g id="svgg"><path id="path0" d="M44.800 200.000 L 44.800 400.000 51.200 400.000 C 54.720 400.000,57.600 399.840,57.600 399.645 C 57.600 399.449,58.252 399.167,59.049 399.017 C 59.846 398.868,60.791 398.591,61.149 398.402 C 61.507 398.213,62.132 397.954,62.538 397.827 C 62.944 397.700,63.370 397.237,63.485 396.798 C 63.609 396.324,64.040 395.993,64.547 395.982 C 67.077 395.930,70.000 394.690,70.000 393.670 C 70.000 393.136,70.675 392.857,73.100 392.393 C 75.778 391.881,76.217 391.679,76.326 390.913 C 76.423 390.233,76.796 389.973,77.926 389.797 C 81.098 389.303,82.434 388.764,82.787 387.833 C 83.185 386.788,83.948 386.400,85.607 386.400 C 87.366 386.400,88.777 385.711,89.178 384.657 C 89.484 383.853,89.916 383.653,91.871 383.413 C 94.308 383.113,95.600 382.345,95.600 381.195 C 95.600 380.653,96.112 380.462,98.100 380.260 C 100.585 380.007,102.000 379.119,102.000 377.813 C 102.000 377.496,102.902 377.220,104.470 377.056 C 106.901 376.802,108.400 376.003,108.400 374.963 C 108.400 374.650,109.143 374.357,110.300 374.213 C 113.344 373.835,114.145 373.479,114.398 372.396 C 114.598 371.539,114.963 371.341,117.015 370.975 C 120.065 370.433,121.571 369.799,122.716 368.577 C 123.246 368.012,124.089 367.597,124.716 367.594 C 126.465 367.584,128.925 366.556,129.240 365.703 C 129.440 365.162,130.060 364.829,131.205 364.646 C 133.763 364.237,135.600 363.345,135.600 362.513 C 135.600 361.923,136.187 361.673,138.700 361.193 C 141.379 360.681,141.817 360.479,141.926 359.713 C 142.023 359.033,142.396 358.773,143.526 358.597 C 146.698 358.103,148.034 357.564,148.387 356.633 C 148.785 355.588,149.548 355.200,151.207 355.200 C 152.964 355.200,154.377 354.512,154.776 353.462 C 155.163 352.445,156.205 352.014,158.300 352.005 C 159.643 352.000,161.200 350.846,161.200 349.857 C 161.200 349.486,161.983 349.232,163.670 349.056 C 166.229 348.788,167.600 347.999,167.600 346.794 C 167.600 346.249,168.092 346.066,170.030 345.891 C 172.604 345.657,174.000 344.830,174.000 343.538 C 174.000 342.943,174.329 342.792,175.700 342.760 C 178.264 342.700,179.347 342.275,179.909 341.111 C 180.340 340.216,180.765 340.012,182.709 339.772 C 185.163 339.468,187.222 338.557,188.462 337.225 C 188.948 336.704,189.732 336.400,190.592 336.400 C 191.340 336.400,192.050 336.243,192.168 336.052 C 192.286 335.860,192.904 335.599,193.540 335.472 C 194.190 335.342,194.779 334.922,194.886 334.513 C 195.379 332.629,204.608 332.580,205.100 334.459 C 205.288 335.181,208.467 336.400,210.161 336.400 C 210.745 336.400,211.344 336.721,211.579 337.161 C 212.141 338.210,214.980 339.478,217.496 339.803 C 219.226 340.027,219.680 340.257,220.096 341.120 C 220.665 342.301,221.743 342.702,224.500 342.760 C 226.223 342.796,226.400 342.889,226.400 343.751 C 226.400 345.111,227.097 345.522,230.014 345.882 C 232.137 346.144,232.615 346.340,232.738 347.000 C 232.996 348.393,233.584 348.735,236.201 349.015 C 238.538 349.265,238.786 349.383,239.147 350.420 C 239.455 351.303,239.858 351.602,240.971 351.776 C 241.757 351.899,243.029 352.098,243.797 352.218 C 244.831 352.379,245.254 352.677,245.428 353.367 C 245.690 354.413,247.094 355.197,248.719 355.205 C 250.605 355.215,251.600 355.651,251.600 356.467 C 251.600 357.387,253.728 358.397,255.687 358.406 C 257.286 358.414,257.860 358.751,258.059 359.800 C 258.182 360.452,258.783 360.710,261.305 361.193 C 263.746 361.660,264.400 361.932,264.400 362.479 C 264.400 363.354,265.203 363.778,268.147 364.458 C 269.880 364.858,270.580 365.223,270.819 365.850 C 271.138 366.689,271.921 366.971,275.309 367.466 C 276.221 367.599,276.979 367.987,277.226 368.449 C 277.778 369.479,280.538 370.683,283.096 371.008 C 284.812 371.226,285.283 371.460,285.696 372.300 C 286.352 373.636,286.928 373.911,289.700 374.210 C 291.559 374.410,292.000 374.596,292.000 375.180 C 292.000 376.337,292.929 376.805,295.754 377.069 C 298.184 377.296,298.400 377.391,298.400 378.244 C 298.400 379.418,299.332 379.915,302.158 380.247 C 303.655 380.423,304.400 380.691,304.400 381.055 C 304.400 382.231,305.948 383.154,308.383 383.430 C 310.451 383.664,310.844 383.838,311.036 384.602 C 311.311 385.698,312.740 386.398,314.719 386.406 C 316.482 386.413,316.999 386.703,317.369 387.888 C 317.653 388.798,319.598 389.587,321.600 389.604 C 322.893 389.615,323.472 390.008,323.655 391.000 C 323.775 391.653,324.372 391.909,326.901 392.393 C 329.325 392.857,330.000 393.136,330.000 393.670 C 330.000 394.690,332.923 395.930,335.453 395.982 C 335.960 395.993,336.391 396.324,336.515 396.798 C 336.630 397.237,337.056 397.700,337.462 397.827 C 337.868 397.954,338.493 398.213,338.851 398.402 C 339.209 398.591,340.154 398.868,340.951 399.017 C 341.748 399.167,342.400 399.449,342.400 399.645 C 342.400 399.840,345.370 400.000,349.000 400.000 L 355.600 400.000 355.600 200.000 L 355.600 0.000 200.200 0.000 L 44.800 0.000 44.800 200.000 M326.000 190.975 L 326.000 354.750 324.500 354.553 C 320.656 354.050,320.583 354.021,320.138 352.842 C 319.777 351.885,319.403 351.642,317.951 351.422 C 314.330 350.874,314.000 350.755,314.000 349.992 C 314.000 348.985,313.494 348.735,310.443 348.231 C 308.148 347.852,307.804 347.679,307.599 346.800 C 307.392 345.911,307.023 345.734,304.283 345.207 C 301.873 344.744,301.200 344.465,301.200 343.931 C 301.200 342.919,298.287 341.672,295.795 341.618 C 295.352 341.608,294.812 341.218,294.595 340.751 C 294.177 339.852,291.705 338.816,289.952 338.806 C 289.344 338.803,288.085 338.149,286.952 337.249 C 285.342 335.970,284.566 335.648,282.523 335.412 C 280.408 335.169,280.028 335.002,279.923 334.273 C 279.758 333.130,278.213 332.413,275.900 332.406 C 274.322 332.401,274.000 332.275,274.000 331.662 C 274.000 330.402,272.667 329.616,270.070 329.344 C 268.112 329.140,267.600 328.945,267.600 328.405 C 267.600 327.231,266.288 326.470,263.771 326.187 C 261.583 325.940,261.300 325.801,260.916 324.783 C 260.594 323.931,260.159 323.602,259.145 323.445 C 258.405 323.331,257.164 323.138,256.387 323.017 C 255.294 322.846,254.875 322.535,254.538 321.642 C 254.177 320.685,253.803 320.442,252.351 320.222 C 248.736 319.675,248.480 319.574,248.234 318.594 C 247.986 317.605,246.122 316.814,244.000 316.796 C 242.708 316.785,242.129 316.393,241.941 315.400 C 241.818 314.748,241.217 314.490,238.695 314.007 C 236.274 313.543,235.600 313.266,235.600 312.731 C 235.600 311.706,232.674 310.469,230.127 310.418 C 229.635 310.408,229.150 310.072,229.016 309.650 C 228.733 308.758,226.213 307.763,223.304 307.393 C 221.589 307.174,221.117 306.940,220.704 306.100 C 220.048 304.764,219.472 304.489,216.700 304.190 C 214.962 304.003,214.400 303.786,214.400 303.303 C 214.400 302.276,213.166 301.200,211.988 301.200 C 210.133 301.200,208.400 300.723,208.400 300.212 C 208.400 297.503,193.285 296.931,192.277 299.602 C 191.836 300.771,190.763 301.200,188.281 301.200 C 186.896 301.200,185.600 302.183,185.600 303.233 C 185.600 303.798,185.130 303.999,183.300 304.221 C 180.682 304.539,179.600 304.990,179.600 305.765 C 179.600 306.680,178.572 307.218,176.342 307.469 C 175.164 307.601,174.020 307.840,173.800 308.000 C 173.580 308.159,172.917 308.405,172.327 308.546 C 171.736 308.687,171.150 309.129,171.023 309.528 C 170.855 310.057,170.056 310.398,168.096 310.780 C 165.134 311.356,164.400 311.753,164.400 312.780 C 164.400 313.314,163.733 313.585,161.318 314.031 C 158.570 314.538,158.210 314.709,158.000 315.600 C 157.799 316.455,157.475 316.636,155.768 316.846 C 152.792 317.212,152.027 317.552,151.758 318.627 C 151.623 319.162,151.398 319.619,151.257 319.643 C 146.056 320.518,145.831 320.596,145.599 321.600 C 145.362 322.625,144.813 322.845,141.071 323.414 C 139.850 323.600,139.462 323.875,139.147 324.780 C 138.795 325.791,138.505 325.945,136.476 326.197 C 133.617 326.554,132.800 326.987,132.800 328.146 C 132.800 328.985,132.551 329.096,129.900 329.432 C 127.088 329.789,126.988 329.840,126.617 331.100 C 126.251 332.343,126.146 332.400,124.217 332.406 C 121.804 332.413,120.244 333.112,120.079 334.261 C 119.958 335.100,118.498 335.584,116.057 335.596 C 115.539 335.598,114.210 336.320,113.105 337.200 C 111.927 338.138,110.662 338.802,110.048 338.806 C 108.342 338.816,105.828 339.842,105.431 340.691 C 105.163 341.264,104.340 341.621,102.431 341.993 C 99.530 342.557,98.800 342.957,98.800 343.985 C 98.800 344.525,98.137 344.796,95.700 345.254 C 92.832 345.793,92.591 345.915,92.477 346.882 C 92.363 347.847,92.164 347.948,89.877 348.209 C 86.908 348.548,86.000 348.969,86.000 350.006 C 86.000 350.829,85.620 350.972,82.253 351.410 C 80.573 351.628,80.246 351.823,79.866 352.830 C 79.524 353.736,79.111 354.045,78.013 354.215 C 77.236 354.335,76.105 354.511,75.500 354.607 L 74.400 354.780 74.400 190.990 L 74.400 27.200 200.200 27.200 L 326.000 27.200 326.000 190.975 M196.071 39.148 C 195.470 39.528,194.824 41.964,194.810 43.900 C 194.802 44.914,194.630 45.200,194.029 45.200 C 192.740 45.200,192.051 46.300,191.767 48.810 C 191.583 50.436,191.321 51.200,190.948 51.200 C 189.880 51.200,188.800 52.754,188.795 54.300 C 188.786 56.740,188.422 57.532,187.185 57.803 C 185.990 58.066,185.906 58.269,185.401 62.100 C 185.207 63.577,184.989 64.000,184.424 64.000 C 183.291 64.000,182.821 64.881,182.545 67.521 C 182.308 69.788,182.211 69.978,181.163 70.208 C 179.911 70.483,179.765 70.801,179.380 74.078 C 179.136 76.164,179.018 76.376,177.984 76.603 C 176.832 76.856,176.000 79.044,176.000 81.820 C 176.000 82.601,175.795 82.800,174.990 82.800 C 173.813 82.800,173.200 84.015,173.200 86.350 C 173.200 88.041,172.572 89.068,171.414 89.269 C 170.632 89.405,170.393 90.063,169.806 93.697 C 169.618 94.867,169.344 95.249,168.553 95.447 C 167.447 95.725,166.800 96.981,166.800 98.852 C 166.800 100.479,166.138 101.600,165.176 101.600 C 164.612 101.600,164.310 101.949,164.140 102.800 L 163.900 104.000 159.850 104.010 C 147.962 104.041,142.400 104.818,142.400 106.449 C 142.400 107.131,142.043 107.201,138.500 107.215 C 126.470 107.262,121.002 107.939,120.628 109.429 L 120.385 110.400 113.892 110.401 C 103.632 110.403,98.800 111.175,98.800 112.814 C 98.800 113.403,98.524 113.602,97.700 113.608 C 97.095 113.612,95.700 113.849,94.600 114.134 L 92.600 114.652 92.600 117.201 C 92.600 119.740,92.605 119.750,93.900 120.086 C 94.912 120.348,95.200 120.636,95.200 121.383 C 95.200 122.513,96.085 123.506,97.384 123.832 C 97.997 123.986,98.390 124.450,98.539 125.197 C 98.711 126.054,99.061 126.394,99.979 126.595 C 100.910 126.800,101.270 127.157,101.520 128.123 C 101.768 129.081,102.158 129.473,103.146 129.756 C 104.120 130.035,104.502 130.412,104.671 131.256 C 104.837 132.086,105.261 132.515,106.276 132.882 C 107.263 133.239,107.717 133.684,107.869 134.444 C 108.023 135.213,108.430 135.606,109.341 135.863 C 110.274 136.127,110.698 136.549,110.979 137.495 C 111.259 138.441,111.657 138.837,112.516 139.025 C 113.331 139.205,113.838 139.672,114.228 140.606 C 114.614 141.528,115.127 142.008,115.913 142.181 C 116.738 142.362,117.145 142.770,117.421 143.695 C 117.704 144.642,118.116 145.042,119.050 145.279 C 120.008 145.523,120.355 145.874,120.537 146.784 C 120.720 147.702,121.066 148.046,122.067 148.305 C 123.059 148.563,123.435 148.931,123.684 149.894 C 123.931 150.846,124.263 151.178,125.064 151.274 C 125.645 151.343,126.272 151.715,126.460 152.100 C 126.647 152.485,126.952 153.111,127.138 153.491 C 127.324 153.871,127.892 154.280,128.400 154.400 C 128.908 154.520,129.476 154.929,129.662 155.309 C 129.848 155.689,130.152 156.311,130.338 156.691 C 130.524 157.071,131.109 157.481,131.638 157.602 C 132.216 157.734,132.825 158.329,133.165 159.093 C 133.550 159.962,134.098 160.446,134.892 160.620 C 135.531 160.761,136.145 161.173,136.256 161.538 C 136.666 162.884,137.099 163.387,138.038 163.608 C 138.567 163.732,139.234 164.320,139.520 164.914 C 139.806 165.508,140.436 166.201,140.920 166.455 C 141.816 166.924,144.800 169.937,144.800 170.372 C 144.800 170.503,144.401 170.788,143.913 171.005 C 142.475 171.645,141.948 174.299,141.710 182.090 C 141.512 188.554,141.427 189.201,140.746 189.417 C 139.262 189.888,138.458 195.222,138.414 204.900 C 138.401 207.710,138.326 208.000,137.614 208.000 C 136.091 208.000,135.245 213.387,135.212 223.300 C 135.200 226.756,135.188 226.800,134.208 226.800 C 132.811 226.800,132.600 227.891,132.600 235.132 C 132.600 240.741,132.666 241.313,133.376 241.832 C 135.077 243.076,140.678 241.938,141.339 240.214 C 141.495 239.807,142.102 239.600,143.138 239.600 C 144.766 239.600,145.413 239.142,145.659 237.818 C 145.818 236.961,147.012 236.502,149.238 236.440 C 150.730 236.398,152.000 235.426,152.000 234.325 C 152.000 233.871,152.633 233.648,154.470 233.456 C 157.036 233.188,158.400 232.399,158.400 231.184 C 158.400 230.641,158.895 230.431,160.700 230.209 C 163.123 229.912,164.400 229.141,164.400 227.977 C 164.400 227.420,164.891 227.222,166.823 226.997 C 168.164 226.842,169.460 226.454,169.723 226.129 C 171.125 224.404,171.704 224.000,172.774 224.000 C 174.570 224.000,175.961 223.323,176.473 222.198 C 176.737 221.620,177.382 221.089,177.969 220.968 C 181.435 220.252,182.390 219.860,182.642 219.051 C 182.960 218.031,183.523 217.615,184.600 217.604 C 186.489 217.584,188.445 216.735,188.809 215.776 C 189.013 215.239,189.500 214.800,189.890 214.800 C 191.253 214.799,194.570 213.287,194.917 212.507 C 195.882 210.346,204.130 210.411,205.121 212.586 C 205.485 213.386,208.944 214.800,210.535 214.800 C 210.936 214.800,211.200 215.122,211.200 215.610 C 211.200 216.531,212.405 217.106,215.114 217.478 C 216.575 217.678,216.949 217.909,217.261 218.802 C 217.639 219.887,219.583 220.800,221.514 220.800 C 222.858 220.800,223.600 221.239,223.600 222.033 C 223.600 222.967,225.523 223.998,227.280 224.006 C 228.876 224.014,229.407 224.326,229.764 225.471 C 230.027 226.315,232.614 227.200,234.820 227.200 C 235.249 227.200,235.600 227.470,235.600 227.800 C 235.600 229.021,237.109 229.950,239.537 230.225 C 241.729 230.473,241.936 230.582,242.139 231.597 C 242.398 232.889,242.929 233.142,246.067 233.470 C 248.189 233.692,248.400 233.800,248.400 234.666 C 248.400 235.769,249.289 236.232,252.123 236.604 C 253.404 236.772,254.126 237.081,254.284 237.528 C 254.762 238.879,255.732 239.600,257.075 239.600 C 257.943 239.600,258.513 239.828,258.670 240.239 C 259.361 242.039,265.623 243.122,266.938 241.669 C 268.575 239.860,267.654 226.978,265.869 226.724 C 265.024 226.603,264.993 226.397,264.751 219.400 C 264.431 210.128,263.989 208.000,262.386 208.000 C 261.642 208.000,261.600 207.700,261.600 202.416 C 261.600 195.210,260.988 190.938,259.796 189.826 C 258.974 189.059,258.890 188.513,258.632 182.200 C 258.341 175.116,257.784 172.425,256.343 171.136 C 255.237 170.147,256.626 167.778,259.081 166.464 C 259.564 166.205,260.195 165.502,260.483 164.902 C 260.771 164.301,261.365 163.743,261.803 163.662 C 262.928 163.453,263.600 162.823,263.600 161.977 C 263.600 161.513,264.099 161.071,264.987 160.750 C 265.915 160.415,266.505 159.874,266.768 159.119 C 266.985 158.498,267.486 157.889,267.881 157.766 C 269.285 157.329,269.785 156.913,270.000 156.000 C 270.120 155.492,270.529 154.924,270.909 154.738 C 271.289 154.552,271.911 154.248,272.291 154.062 C 272.671 153.876,273.081 153.291,273.203 152.762 C 273.353 152.112,273.845 151.675,274.723 151.414 C 275.683 151.129,276.102 150.717,276.331 149.834 C 276.564 148.935,276.959 148.558,277.933 148.305 C 278.940 148.045,279.279 147.703,279.467 146.764 C 279.655 145.827,279.974 145.505,280.899 145.320 C 281.763 145.147,282.243 144.715,282.648 143.748 C 283.009 142.883,283.571 142.322,284.245 142.153 C 284.915 141.985,285.482 141.424,285.834 140.580 C 286.223 139.650,286.727 139.192,287.565 139.008 C 288.450 138.813,288.812 138.457,289.001 137.596 C 289.188 136.743,289.603 136.329,290.600 136.000 C 291.578 135.677,292.012 135.254,292.188 134.453 C 292.362 133.664,292.817 133.210,293.787 132.859 C 294.758 132.508,295.212 132.055,295.386 131.263 C 295.563 130.457,295.977 130.055,296.915 129.779 C 297.866 129.498,298.297 129.072,298.573 128.135 C 298.842 127.223,299.243 126.811,300.015 126.657 C 300.694 126.521,301.258 126.033,301.558 125.321 C 301.819 124.705,302.609 123.930,303.316 123.600 C 304.176 123.198,304.725 122.574,304.980 121.711 C 305.234 120.846,305.719 120.297,306.456 120.040 C 307.714 119.602,308.242 117.791,307.686 115.820 C 307.339 114.590,304.994 113.627,302.300 113.608 C 301.476 113.602,301.200 113.403,301.200 112.814 C 301.200 111.175,296.368 110.403,286.108 110.401 L 279.615 110.400 279.372 109.429 C 278.996 107.934,273.553 107.251,261.700 107.213 C 257.960 107.201,257.600 107.134,257.600 106.449 C 257.600 104.827,252.045 104.042,240.349 104.010 L 236.497 104.000 236.014 102.835 C 235.742 102.177,235.124 101.567,234.595 101.434 C 233.798 101.234,233.615 100.861,233.376 98.947 C 233.095 96.694,232.165 95.200,231.046 95.200 C 230.672 95.200,230.399 94.455,230.206 92.900 C 229.853 90.071,229.494 89.360,228.257 89.050 C 227.426 88.841,227.254 88.492,227.006 86.504 C 226.660 83.729,226.216 82.800,225.233 82.800 C 224.453 82.800,224.015 81.771,224.005 79.919 C 223.997 78.308,223.179 76.810,222.169 76.557 C 221.242 76.324,220.815 75.373,220.805 73.519 C 220.797 71.910,220.016 70.491,218.998 70.235 C 218.014 69.988,217.614 68.989,217.605 66.762 C 217.600 65.259,216.647 64.000,215.515 64.000 C 215.045 64.000,214.825 63.365,214.614 61.396 C 214.327 58.716,213.682 57.600,212.418 57.600 C 211.820 57.600,211.644 57.138,211.411 54.961 C 211.159 52.616,211.001 52.248,209.986 51.666 C 208.780 50.974,208.414 50.170,208.405 48.189 C 208.399 46.701,207.405 45.200,206.427 45.200 C 205.668 45.200,205.200 43.809,205.200 41.550 C 205.200 39.190,198.701 37.480,196.071 39.148 M200.948 106.100 C 201.081 106.595,201.192 107.585,201.195 108.300 C 201.200 109.649,202.355 111.200,203.353 111.200 C 204.005 111.200,204.387 112.411,204.395 114.500 C 204.400 116.049,205.481 117.600,206.553 117.600 C 207.205 117.600,207.587 118.811,207.595 120.900 C 207.600 122.453,208.681 124.000,209.761 124.000 C 210.149 124.000,210.408 124.743,210.601 126.412 C 210.908 129.057,211.546 130.000,213.029 130.000 C 213.796 130.000,214.000 130.208,214.000 130.991 C 214.000 133.047,215.265 133.350,224.583 133.531 C 232.751 133.689,233.065 133.725,233.426 134.544 C 233.843 135.491,235.498 135.962,239.500 136.274 C 242.629 136.517,243.139 138.251,240.288 138.949 C 239.477 139.148,239.113 139.535,238.944 140.378 C 238.780 141.200,238.407 141.612,237.659 141.800 C 236.198 142.166,235.600 142.745,235.600 143.791 C 235.600 144.457,235.269 144.778,234.300 145.052 C 233.331 145.325,232.905 145.738,232.628 146.672 C 232.359 147.579,231.919 148.022,231.039 148.274 C 230.145 148.531,229.726 148.964,229.454 149.912 C 229.180 150.868,228.854 151.200,228.191 151.200 C 227.136 151.200,226.566 151.798,226.189 153.302 C 225.990 154.096,225.662 154.400,225.006 154.400 C 223.197 154.400,222.996 155.228,223.053 162.449 C 223.123 171.485,223.333 172.769,224.832 173.334 L 226.000 173.775 226.000 179.807 L 226.000 185.839 224.521 185.667 C 223.592 185.558,222.315 184.919,221.085 183.947 C 219.829 182.954,218.712 182.400,217.964 182.400 C 217.216 182.400,216.800 182.194,216.800 181.823 C 216.800 180.956,215.312 180.083,212.929 179.549 C 211.758 179.287,210.797 178.876,210.794 178.636 C 210.780 177.625,209.958 177.093,207.362 176.418 C 205.082 175.825,204.575 175.541,204.389 174.751 C 204.170 173.825,204.056 173.800,199.982 173.800 L 195.800 173.800 195.680 174.833 C 195.572 175.760,195.290 175.922,192.926 176.415 C 190.313 176.961,189.200 177.599,189.200 178.553 C 189.200 178.826,188.255 179.283,187.100 179.569 C 184.662 180.172,183.200 180.992,183.200 181.757 C 183.200 182.065,182.586 182.395,181.765 182.528 C 180.976 182.656,179.581 183.375,178.665 184.125 C 177.653 184.955,176.425 185.556,175.533 185.660 L 174.067 185.832 174.292 179.816 C 174.416 176.507,174.645 173.749,174.802 173.686 C 176.647 172.944,177.183 170.320,177.186 162.000 C 177.188 155.942,176.836 154.676,175.091 154.473 C 174.200 154.370,174.000 154.146,174.000 153.253 C 174.000 151.858,173.334 151.200,171.920 151.200 C 171.007 151.200,170.800 151.024,170.800 150.249 C 170.800 149.143,170.222 148.571,168.721 148.195 C 167.942 147.999,167.612 147.632,167.523 146.862 C 167.436 146.110,167.025 145.635,166.116 145.235 C 165.351 144.898,164.676 144.219,164.443 143.551 C 164.192 142.833,163.543 142.220,162.627 141.837 C 161.720 141.458,161.200 140.971,161.200 140.500 C 161.200 139.496,160.431 138.800,159.320 138.800 C 158.570 138.800,158.400 138.584,158.400 137.634 C 158.400 136.490,158.448 136.465,160.900 136.282 C 164.488 136.015,166.142 135.506,166.575 134.535 C 166.936 133.725,167.270 133.688,175.723 133.531 L 184.498 133.367 185.449 132.261 C 185.972 131.653,186.400 130.895,186.400 130.578 C 186.400 130.260,186.760 130.000,187.200 130.000 C 188.419 130.000,189.599 128.577,189.605 127.100 C 189.614 125.033,189.965 124.235,191.170 123.543 C 192.167 122.971,192.329 122.593,192.580 120.248 C 192.811 118.091,192.995 117.600,193.570 117.600 C 194.777 117.600,195.528 116.299,195.821 113.700 C 196.045 111.714,196.244 111.200,196.790 111.200 C 197.941 111.200,198.713 109.914,199.009 107.500 C 199.313 105.034,200.443 104.218,200.948 106.100 " stroke="none" fill="#040404" fill-rule="evenodd"></path><path id="path1" d="" stroke="none" fill="#080404" fill-rule="evenodd"></path></g></svg>