<svg id="svg" version="1.1" xmlns="http://www.w3.org/2000/svg" xmlns:xlink="http://www.w3.org/1999/xlink" width="400" height="400" viewBox="0, 0, 400,400"><g id="svgg"><path id="path0" d="M55.905 14.700 C 55.823 26.202,55.691 29.378,55.300 29.300 C 55.025 29.245,54.800 29.335,54.800 29.500 C 54.801 29.665,50.616 29.755,45.500 29.701 C 20.493 29.435,-0.000 29.429,-0.000 29.687 C -0.000 29.846,0.270 29.871,0.600 29.745 C 1.133 29.540,1.200 50.261,1.200 214.757 L 1.200 400.000 199.999 400.000 L 398.798 400.000 398.899 214.700 L 399.000 29.400 372.138 29.600 C 355.835 29.721,345.366 29.655,345.504 29.432 C 345.629 29.230,345.477 29.162,345.166 29.281 C 344.683 29.467,344.616 27.328,344.710 14.749 L 344.819 0.000 333.414 0.000 L 322.010 0.000 321.905 14.662 C 321.802 28.975,321.781 29.327,321.000 29.448 C 319.326 29.709,278.683 29.614,278.447 29.350 C 278.311 29.197,278.425 29.201,278.700 29.359 C 279.096 29.587,279.200 26.569,279.200 14.824 L 279.200 0.000 267.400 0.000 L 255.600 0.000 255.600 14.900 L 255.600 29.800 234.100 29.800 L 212.600 29.800 212.714 14.900 C 212.790 4.941,212.692 -0.000,212.419 -0.000 C 212.150 -0.000,211.972 5.023,211.900 14.700 L 211.790 29.400 211.695 14.700 L 211.600 0.000 200.400 0.000 L 189.200 0.000 189.200 14.576 C 189.200 22.593,189.065 29.236,188.900 29.338 C 188.735 29.441,188.649 22.881,188.710 14.762 C 188.783 4.886,188.684 0.000,188.410 0.000 C 188.138 0.000,188.000 4.970,188.000 14.800 L 188.000 29.600 167.233 29.600 C 155.811 29.600,146.226 29.692,145.933 29.805 C 145.494 29.973,145.420 27.370,145.514 15.005 L 145.628 -0.000 133.819 -0.000 L 122.010 -0.000 121.905 14.700 L 121.800 29.400 100.500 29.504 L 79.200 29.607 79.200 14.804 L 79.200 0.000 67.605 -0.000 L 56.010 -0.000 55.905 14.700 M254.581 14.600 C 254.581 22.740,254.634 26.013,254.700 21.874 C 254.765 17.734,254.765 11.074,254.699 7.074 C 254.634 3.073,254.581 6.460,254.581 14.600 M321.381 14.600 C 321.381 22.740,321.434 26.013,321.500 21.874 C 321.565 17.734,321.565 11.074,321.499 7.074 C 321.434 3.073,321.381 6.460,321.381 14.600 M78.800 67.824 C 78.800 77.483,78.662 82.400,78.391 82.400 C 78.120 82.400,77.992 77.425,78.010 67.588 C 78.027 58.301,78.179 52.864,78.418 53.011 C 78.649 53.154,78.800 59.008,78.800 67.824 M322.010 67.629 C 321.994 75.617,321.891 82.242,321.782 82.352 C 321.672 82.461,321.595 75.835,321.610 67.627 C 321.625 59.419,321.727 52.794,321.838 52.905 C 321.948 53.015,322.026 59.641,322.010 67.629 M360.530 53.510 L 375.600 53.400 375.600 214.467 C 375.600 303.054,375.709 375.819,375.843 376.167 C 376.081 376.788,26.345 377.214,24.733 376.596 C 24.290 376.426,24.217 349.083,24.301 214.896 L 24.402 53.400 39.801 53.400 L 55.200 53.400 55.206 67.800 C 55.210 75.720,55.344 82.380,55.506 82.600 C 55.690 82.851,60.163 83.000,67.500 83.000 L 79.201 83.000 79.200 68.307 L 79.200 53.614 100.609 53.507 L 122.019 53.400 121.909 68.077 L 121.800 82.755 133.095 82.788 C 139.307 82.806,144.707 82.924,145.095 83.048 C 145.689 83.240,145.705 83.207,145.200 82.844 C 144.778 82.540,144.751 82.410,145.110 82.406 C 145.515 82.401,145.597 79.412,145.510 67.779 C 145.401 53.327,145.409 53.161,146.200 53.374 C 146.640 53.492,156.225 53.592,167.500 53.595 L 188.000 53.600 188.000 68.300 L 188.000 83.000 200.020 82.911 C 206.632 82.862,212.212 82.716,212.421 82.587 C 212.648 82.446,212.800 76.611,212.800 67.976 L 212.800 53.600 233.567 53.600 C 244.989 53.600,254.619 53.491,254.967 53.357 C 255.537 53.138,255.600 54.589,255.600 67.981 C 255.600 77.790,255.464 82.763,255.200 82.600 C 254.980 82.464,254.800 82.498,254.800 82.676 C 254.799 83.159,277.737 83.084,278.100 82.600 C 278.288 82.349,278.547 82.424,278.794 82.800 C 279.056 83.199,279.190 78.420,279.194 68.500 L 279.200 53.600 300.209 53.600 L 321.218 53.600 321.190 68.235 L 321.162 82.870 332.646 82.818 C 338.963 82.790,344.281 82.673,344.465 82.560 C 344.649 82.446,344.803 75.658,344.806 67.476 C 344.809 59.294,344.958 52.829,345.136 53.110 C 345.390 53.511,348.663 53.596,360.530 53.510 M376.700 214.500 C 376.648 303.435,376.558 355.500,376.502 330.200 C 376.234 209.026,376.231 52.800,376.498 52.800 C 376.662 52.800,376.753 125.565,376.700 214.500 M211.905 68.225 L 211.799 82.600 211.600 67.920 C 211.490 59.845,211.537 53.377,211.705 53.545 C 211.873 53.713,211.963 60.319,211.905 68.225 M189.099 75.300 C 189.034 79.315,188.981 76.030,188.981 68.000 C 188.981 59.970,189.034 56.685,189.099 60.700 C 189.165 64.715,189.165 71.285,189.099 75.300 M54.880 111.680 C 54.508 112.052,54.422 138.632,54.499 229.380 L 54.599 346.600 54.700 229.477 C 54.767 152.562,54.937 112.437,55.196 112.598 C 55.413 112.732,55.501 112.607,55.391 112.321 C 55.227 111.894,81.110 111.818,199.474 111.902 C 295.658 111.969,343.891 111.869,344.158 111.602 C 344.427 111.333,296.754 111.200,199.960 111.200 C 88.027 111.200,55.252 111.308,54.880 111.680 M344.396 112.204 C 343.960 112.730,326.946 112.800,199.951 112.800 L 56.000 112.800 56.000 229.773 C 56.000 346.676,56.000 346.746,55.194 347.002 C 54.751 347.143,54.492 347.425,54.618 347.629 C 55.023 348.285,343.807 348.114,344.352 347.457 C 344.684 347.057,344.776 316.108,344.701 229.653 C 344.620 135.975,344.701 112.430,345.100 112.583 C 345.667 112.800,345.789 112.164,345.245 111.828 C 345.050 111.707,344.668 111.877,344.396 112.204 M200.040 135.200 C 292.638 135.047,321.472 135.111,321.960 135.470 C 322.540 135.897,322.537 135.934,321.923 135.870 C 321.551 135.832,321.236 135.935,321.223 136.100 C 321.211 136.265,321.241 141.395,321.290 147.500 L 321.381 158.600 321.603 147.400 L 321.825 136.200 321.813 147.800 L 321.800 159.400 200.021 159.499 C 105.399 159.577,78.348 159.492,78.721 159.119 C 79.454 158.386,79.400 136.664,78.663 136.052 C 78.368 135.807,77.998 135.735,77.842 135.891 C 77.686 136.048,77.681 135.854,77.832 135.461 C 77.983 135.068,78.253 134.893,78.433 135.073 C 78.613 135.253,133.336 135.310,200.040 135.200 M78.507 158.454 C 78.338 158.623,78.290 153.685,78.400 147.481 L 78.599 136.200 78.706 147.173 C 78.765 153.209,78.675 158.285,78.507 158.454 M79.067 182.170 C 79.067 182.484,78.746 182.716,78.354 182.687 C 77.818 182.646,77.748 182.504,78.069 182.116 C 78.633 181.437,79.067 181.461,79.067 182.170 M132.400 182.467 C 132.400 183.677,160.078 183.595,160.928 182.382 C 161.918 180.969,161.995 182.181,161.971 198.671 L 161.948 214.491 161.039 213.636 C 159.948 212.611,131.734 212.306,131.733 213.319 C 131.733 213.685,135.181 213.796,146.167 213.783 L 160.600 213.766 146.000 213.983 C 137.970 214.102,131.359 214.189,131.309 214.175 C 131.241 214.157,131.134 184.977,131.191 182.167 C 131.207 181.406,132.400 181.703,132.400 182.467 M269.000 197.905 C 269.000 206.721,268.910 213.993,268.800 214.067 C 268.690 214.140,262.030 214.102,254.000 213.983 L 239.400 213.766 253.634 213.783 C 264.763 213.796,267.867 213.691,267.867 213.300 C 267.867 212.489,239.879 212.582,239.204 213.396 C 238.158 214.656,238.035 213.124,238.010 198.488 C 237.985 183.769,238.004 183.388,238.792 182.897 C 239.269 182.599,239.600 182.558,239.600 182.797 C 239.600 183.060,244.455 183.200,253.600 183.200 C 267.117 183.200,267.600 183.174,267.600 182.435 C 267.600 181.935,267.842 181.706,268.300 181.774 C 268.953 181.869,269.000 182.945,269.000 197.905 M321.930 182.643 C 322.079 182.551,322.111 189.344,322.002 197.738 L 321.805 213.000 321.595 197.800 L 321.386 182.600 321.293 197.900 C 321.207 212.119,321.248 213.200,321.886 213.200 C 322.480 213.200,322.493 213.267,321.986 213.700 C 321.531 214.088,318.118 214.155,306.700 214.000 C 298.615 213.890,291.939 213.890,291.865 214.000 C 291.791 214.110,291.786 213.975,291.853 213.700 C 291.920 213.425,291.801 213.200,291.587 213.200 C 291.343 213.200,291.235 207.639,291.295 198.100 L 291.390 183.000 291.500 197.765 C 291.575 207.843,291.751 212.700,292.054 213.065 C 292.610 213.735,320.800 213.867,320.800 213.200 C 320.800 212.941,315.733 212.800,306.400 212.800 L 292.000 212.800 292.000 198.000 L 292.000 183.200 306.373 183.200 L 320.746 183.200 321.050 182.300 C 321.305 181.545,321.379 181.513,321.507 182.105 C 321.592 182.493,321.782 182.735,321.930 182.643 M184.700 205.500 C 184.635 209.845,184.582 206.290,184.582 197.600 C 184.582 188.910,184.635 185.355,184.700 189.700 C 184.764 194.045,184.764 201.155,184.700 205.500 M215.591 197.982 L 215.566 213.964 200.612 213.990 C 192.387 214.005,185.572 213.878,185.467 213.709 C 185.362 213.539,191.932 213.449,200.068 213.510 C 210.085 213.584,214.777 213.487,214.606 213.210 C 214.441 212.942,209.291 212.800,199.776 212.800 L 185.200 212.800 185.200 198.000 L 185.200 183.200 199.800 183.200 L 214.400 183.200 214.400 197.976 C 214.400 207.396,214.545 212.842,214.800 213.000 C 215.064 213.163,215.200 208.145,215.200 198.247 C 215.200 188.518,215.057 183.159,214.793 182.996 C 214.333 182.712,214.646 182.000,215.232 182.000 C 215.472 182.000,215.607 188.003,215.591 197.982 M93.181 213.600 C 102.331 213.600,107.643 213.455,107.800 213.200 C 107.963 212.936,103.137 212.800,93.624 212.800 L 79.200 212.800 79.200 198.000 L 79.200 183.200 93.591 183.200 L 107.981 183.200 108.091 198.238 C 108.156 207.248,108.050 213.369,107.827 213.507 C 107.621 213.634,107.750 213.842,108.113 213.969 C 108.476 214.096,102.029 214.200,93.786 214.200 C 84.067 214.200,78.798 214.059,78.794 213.800 C 78.791 213.580,78.636 213.640,78.450 213.934 C 78.177 214.363,78.064 214.344,77.868 213.834 C 77.735 213.485,77.799 213.200,78.013 213.200 C 78.254 213.200,78.436 207.508,78.495 198.100 L 78.590 183.000 78.700 198.300 L 78.810 213.600 93.181 213.600 M146.743 237.610 C 160.412 237.639,161.867 237.555,161.383 236.772 C 161.256 236.568,161.336 236.400,161.560 236.400 C 161.828 236.400,161.975 241.917,161.991 252.646 C 162.013 266.776,161.939 268.862,161.428 268.666 C 161.036 268.516,160.914 268.630,161.059 269.011 C 161.246 269.496,159.112 269.597,146.634 269.690 C 135.252 269.776,132.032 269.691,132.178 269.313 C 132.281 269.045,132.165 268.702,131.921 268.551 C 131.662 268.391,131.588 268.458,131.745 268.711 C 131.892 268.949,131.830 269.258,131.607 269.396 C 131.383 269.534,131.196 269.412,131.191 269.124 C 131.005 258.296,131.310 237.779,131.660 237.563 C 131.903 237.412,131.976 237.044,131.822 236.745 C 131.667 236.445,131.796 236.511,132.107 236.890 C 132.624 237.519,133.926 237.583,146.743 237.610 M215.017 236.772 C 214.891 236.977,214.970 237.258,215.193 237.396 C 215.756 237.744,215.749 267.775,215.186 268.826 C 214.536 270.041,185.460 270.032,184.809 268.817 C 184.533 268.301,184.428 262.893,184.500 252.917 L 184.610 237.800 184.705 253.076 C 184.757 261.478,184.935 268.436,185.100 268.538 C 185.265 268.640,185.400 261.766,185.400 253.262 L 185.400 237.800 199.787 237.695 C 212.029 237.605,214.224 237.501,214.507 236.995 C 214.690 236.668,214.931 236.400,215.043 236.400 C 215.156 236.400,215.144 236.568,215.017 236.772 M268.629 236.971 C 269.475 237.818,269.449 267.715,268.600 269.200 C 268.286 269.750,268.022 270.020,268.014 269.800 C 268.005 269.539,262.927 269.438,253.380 269.510 C 241.718 269.597,238.774 269.516,238.828 269.110 C 238.865 268.829,238.832 261.670,238.754 253.200 L 238.614 237.800 238.398 253.400 L 238.181 269.000 238.191 253.400 L 238.200 237.800 253.299 237.800 C 261.604 237.800,268.219 237.740,267.999 237.667 C 267.582 237.527,267.430 236.400,267.829 236.400 C 267.954 236.400,268.314 236.657,268.629 236.971 M78.800 237.200 C 78.407 237.454,83.337 237.590,93.112 237.594 L 108.024 237.600 107.986 253.590 L 107.949 269.581 93.474 269.690 L 79.000 269.800 79.015 254.000 L 79.029 238.200 78.808 253.400 L 78.586 268.600 78.493 253.333 C 78.442 244.936,78.291 237.781,78.157 237.433 C 77.989 236.995,78.143 236.802,78.657 236.806 C 79.283 236.811,79.306 236.873,78.800 237.200 M306.420 237.695 L 321.000 237.800 321.200 253.200 C 321.310 261.670,321.548 268.829,321.729 269.109 C 321.993 269.517,319.004 269.609,306.529 269.575 C 296.014 269.546,291.194 269.403,291.600 269.131 C 292.122 268.783,292.174 266.717,292.002 253.265 L 291.805 237.800 291.591 253.200 L 291.378 268.600 291.306 252.604 C 291.267 243.807,291.371 236.830,291.538 237.099 C 291.766 237.469,295.434 237.616,306.420 237.695 M321.991 252.688 C 322.005 261.167,322.131 268.289,322.270 268.514 C 322.416 268.749,322.327 268.802,322.062 268.638 C 321.726 268.431,321.600 264.259,321.600 253.350 C 321.600 243.887,321.449 238.065,321.191 237.583 C 320.864 236.972,320.900 236.864,321.373 237.045 C 321.880 237.240,321.968 239.469,321.991 252.688 M214.406 253.700 C 214.410 263.984,214.546 269.193,214.800 268.800 C 215.335 267.972,215.335 238.000,214.800 238.000 C 214.540 238.000,214.402 243.496,214.406 253.700 M107.757 292.633 C 107.891 292.981,108.000 300.091,108.000 308.433 L 108.000 323.600 93.605 323.600 L 79.210 323.600 79.093 308.500 L 78.977 293.400 78.989 309.061 C 78.999 323.854,78.961 324.701,78.300 324.347 C 77.915 324.141,77.600 323.878,77.600 323.762 C 77.600 323.647,77.780 323.664,78.000 323.800 C 78.264 323.963,78.400 318.799,78.400 308.607 C 78.400 296.824,78.518 293.032,78.900 292.598 C 79.695 291.696,107.410 291.729,107.757 292.633 M161.986 307.831 C 162.017 320.600,161.926 323.603,161.512 323.354 C 161.150 323.137,161.163 323.248,161.557 323.733 C 161.863 324.110,161.985 324.548,161.827 324.706 C 161.669 324.864,161.365 324.680,161.150 324.297 C 160.567 323.255,131.877 323.214,132.277 324.256 C 132.477 324.777,132.390 324.834,131.855 324.535 C 131.274 324.209,130.886 305.193,131.195 292.200 C 131.198 292.090,138.118 292.000,146.574 292.000 L 161.948 292.000 161.986 307.831 M214.700 292.252 L 215.600 292.493 215.600 308.223 C 215.600 316.874,215.465 324.036,215.300 324.139 C 215.135 324.241,215.053 317.383,215.118 308.900 C 215.197 298.554,215.098 293.338,214.818 293.058 C 214.527 292.767,214.400 297.357,214.400 308.125 L 214.400 323.610 199.900 323.505 L 185.400 323.400 185.295 307.879 C 185.218 296.365,185.073 292.432,184.733 292.641 C 184.452 292.815,184.386 292.746,184.562 292.462 C 184.866 291.970,212.918 291.775,214.700 292.252 M268.948 292.900 C 269.558 295.175,269.216 323.527,268.571 324.171 C 267.813 324.930,267.567 324.967,267.700 324.300 C 267.778 323.910,264.622 323.756,253.400 323.600 L 239.000 323.400 238.793 308.200 L 238.586 293.000 238.493 307.969 C 238.407 321.732,238.456 323.001,239.100 323.737 C 239.485 324.177,239.575 324.406,239.300 324.245 C 239.024 324.084,238.800 324.153,238.800 324.400 C 238.800 324.646,238.631 324.743,238.425 324.616 C 238.204 324.479,238.036 317.780,238.013 308.192 L 237.976 292.000 253.341 292.000 L 268.707 292.000 268.948 292.900 M321.371 292.629 C 321.924 293.181,321.989 295.077,321.905 308.329 L 321.810 323.400 321.610 308.200 L 321.410 293.000 321.205 308.200 L 321.000 323.400 306.491 323.600 L 291.982 323.800 292.091 308.100 C 292.162 297.908,292.060 292.341,291.800 292.231 C 291.580 292.139,298.002 292.049,306.071 292.032 C 318.904 292.004,320.822 292.079,321.371 292.629 M184.699 315.926 C 184.634 320.037,184.581 316.560,184.581 308.200 C 184.582 299.840,184.635 296.477,184.700 300.726 C 184.764 304.976,184.764 311.816,184.699 315.926 M291.499 315.926 C 291.434 320.037,291.381 316.560,291.381 308.200 C 291.382 299.840,291.435 296.477,291.500 300.726 C 291.564 304.976,291.564 311.816,291.499 315.926 M322.400 323.975 C 322.400 324.181,322.052 324.324,321.628 324.292 C 321.203 324.260,320.944 324.091,321.051 323.917 C 321.325 323.473,322.400 323.520,322.400 323.975 M112.300 376.300 C 160.535 376.356,239.465 376.356,287.700 376.300 C 335.935 376.244,296.470 376.198,200.000 376.198 C 103.530 376.198,64.065 376.244,112.300 376.300 " stroke="none" fill="#ecfcfc" fill-rule="evenodd"></path><path id="path1" d="M54.400 14.600 L 54.400 29.200 27.974 29.200 C 10.522 29.200,1.285 29.341,0.774 29.614 C -0.293 30.185,-0.467 400.000,0.600 400.000 C 1.132 400.000,1.200 379.155,1.200 214.794 L 1.200 29.589 28.000 29.694 C 42.740 29.752,54.800 29.665,54.800 29.500 C 54.800 29.335,55.025 29.245,55.300 29.300 C 55.691 29.378,55.823 26.202,55.905 14.700 C 56.008 0.202,55.999 -0.000,55.205 -0.000 C 54.413 -0.000,54.400 0.237,54.400 14.600 M121.695 14.496 L 121.600 29.193 100.300 29.300 L 79.000 29.407 100.313 29.504 C 117.108 29.580,121.666 29.494,121.818 29.098 C 121.924 28.822,121.961 22.117,121.900 14.198 L 121.790 -0.200 121.695 14.496 M145.600 14.800 C 145.490 23.050,145.400 29.800,145.400 29.800 C 145.400 29.800,155.030 29.707,166.800 29.593 L 188.200 29.386 167.105 29.293 L 146.010 29.200 145.905 14.500 L 145.800 -0.200 145.600 14.800 M188.800 14.680 C 188.690 22.864,188.737 29.423,188.905 29.255 C 189.073 29.087,189.163 22.391,189.105 14.375 L 188.999 -0.200 188.800 14.680 M211.781 14.600 C 211.781 22.740,211.834 26.013,211.900 21.874 C 211.965 17.734,211.965 11.074,211.899 7.074 C 211.834 3.073,211.781 6.460,211.781 14.600 M254.800 14.600 L 254.800 29.200 233.600 29.200 C 221.940 29.200,212.400 29.335,212.400 29.500 C 212.400 29.665,222.120 29.800,234.000 29.800 L 255.600 29.800 255.600 14.900 C 255.600 5.233,255.460 0.000,255.200 0.000 C 254.941 0.000,254.800 5.133,254.800 14.600 M320.895 14.500 L 320.800 29.200 299.900 29.247 C 288.405 29.273,278.820 29.258,278.600 29.214 C 278.380 29.170,278.311 29.245,278.447 29.381 C 278.691 29.625,319.449 29.689,321.000 29.448 C 321.783 29.327,321.800 29.012,321.810 14.562 L 321.820 -0.200 321.605 14.600 L 321.390 29.400 321.190 14.600 L 320.990 -0.200 320.895 14.500 M344.710 14.749 C 344.616 27.328,344.683 29.467,345.166 29.281 C 345.477 29.162,345.629 29.230,345.504 29.432 C 345.366 29.655,355.822 29.758,372.038 29.694 L 398.800 29.589 398.800 214.794 C 398.800 379.155,398.868 400.000,399.400 400.000 C 400.079 400.000,400.327 30.736,399.649 29.666 C 399.463 29.372,399.196 29.147,399.055 29.166 C 398.915 29.185,386.830 29.200,372.200 29.200 L 345.600 29.200 345.600 14.600 C 345.600 5.372,345.456 0.000,345.210 0.000 C 344.965 0.000,344.778 5.499,344.710 14.749 M78.010 67.588 C 77.992 77.425,78.120 82.400,78.391 82.400 C 78.931 82.400,78.958 53.345,78.418 53.011 C 78.179 52.864,78.027 58.301,78.010 67.588 M321.610 67.627 C 321.595 75.835,321.672 82.461,321.782 82.352 C 322.044 82.090,322.099 53.166,321.838 52.905 C 321.727 52.794,321.625 59.419,321.610 67.627 M344.709 67.600 L 344.600 82.600 333.200 82.809 L 321.800 83.019 333.457 83.109 C 343.772 83.190,345.142 83.127,345.357 82.567 C 345.767 81.499,345.622 53.853,345.203 53.200 C 344.952 52.808,344.780 57.804,344.709 67.600 M376.300 168.500 C 376.355 232.135,376.446 304.900,376.502 330.200 C 376.558 355.500,376.648 303.435,376.700 214.500 C 376.753 125.565,376.662 52.800,376.498 52.800 C 376.334 52.800,376.245 104.865,376.300 168.500 M24.400 214.696 C 24.234 349.118,24.290 376.426,24.733 376.596 C 25.592 376.925,376.000 376.830,376.000 376.500 C 376.000 376.335,296.980 376.246,200.400 376.301 L 24.801 376.403 24.700 214.701 L 24.600 53.000 24.400 214.696 M54.400 68.200 C 54.400 81.711,54.464 83.200,55.043 83.200 C 55.465 83.200,55.602 82.982,55.443 82.567 C 55.309 82.219,55.200 75.469,55.200 67.567 C 55.200 58.256,55.059 53.200,54.800 53.200 C 54.540 53.200,54.400 58.467,54.400 68.200 M121.706 68.100 L 121.637 83.200 132.918 83.195 C 139.123 83.192,144.601 83.082,145.091 82.950 L 145.981 82.712 146.091 67.956 C 146.162 58.312,146.061 53.200,145.800 53.200 C 145.539 53.200,145.438 58.257,145.510 67.790 L 145.619 82.380 144.710 82.602 C 144.209 82.725,138.940 82.774,133.000 82.712 L 122.200 82.600 121.988 67.800 L 121.776 53.000 121.706 68.100 M211.600 67.920 L 211.799 82.600 211.905 68.225 C 211.963 60.319,211.873 53.713,211.705 53.545 C 211.537 53.377,211.490 59.845,211.600 67.920 M254.667 53.467 C 254.520 53.613,254.414 60.408,254.432 68.567 C 254.449 76.725,254.554 83.174,254.666 82.898 C 254.777 82.621,255.033 82.497,255.234 82.621 C 255.453 82.756,255.600 76.881,255.600 68.024 C 255.600 54.491,255.482 52.651,254.667 53.467 M188.981 68.000 C 188.981 76.030,189.034 79.315,189.099 75.300 C 189.165 71.285,189.165 64.715,189.099 60.700 C 189.034 56.685,188.981 59.970,188.981 68.000 M320.981 68.000 C 320.981 76.030,321.034 79.315,321.099 75.300 C 321.165 71.285,321.165 64.715,321.099 60.700 C 321.034 56.685,320.981 59.970,320.981 68.000 M61.300 83.099 C 64.325 83.167,69.275 83.167,72.300 83.099 C 75.325 83.031,72.850 82.975,66.800 82.975 C 60.750 82.975,58.275 83.031,61.300 83.099 M194.900 83.099 C 197.925 83.167,202.875 83.167,205.900 83.099 C 208.925 83.031,206.450 82.975,200.400 82.975 C 194.350 82.975,191.875 83.031,194.900 83.099 M261.300 83.099 C 264.325 83.167,269.275 83.167,272.300 83.099 C 275.325 83.031,272.850 82.975,266.800 82.975 C 260.750 82.975,258.275 83.031,261.300 83.099 M54.400 111.581 C 54.400 111.837,54.561 111.948,54.758 111.826 C 54.955 111.704,55.223 111.883,55.354 112.223 C 55.489 112.576,55.422 112.737,55.197 112.598 C 54.896 112.412,54.344 346.344,54.643 347.109 C 54.666 347.170,54.981 347.105,55.343 346.967 C 55.950 346.733,56.000 337.878,56.000 229.757 L 56.000 112.800 200.000 112.800 C 279.200 112.800,344.135 112.800,344.300 112.800 C 344.864 112.800,344.865 346.839,344.301 347.522 C 343.857 348.059,343.903 348.064,344.700 347.568 L 345.600 347.008 345.600 229.891 C 345.600 126.357,345.531 112.748,345.002 112.546 C 344.674 112.419,344.506 112.152,344.630 111.952 C 344.754 111.751,345.023 111.691,345.228 111.817 C 345.432 111.944,345.600 111.857,345.600 111.624 C 345.600 111.087,344.687 111.073,344.159 111.601 C 343.657 112.103,56.127 111.960,55.100 111.457 C 54.638 111.231,54.400 111.273,54.400 111.581 M77.868 135.368 C 77.736 135.710,77.808 135.948,78.028 135.895 C 78.466 135.790,78.562 157.814,78.126 158.519 C 77.984 158.749,78.075 158.801,78.338 158.638 C 78.669 158.434,78.800 155.242,78.800 147.376 L 78.800 136.400 199.800 136.400 L 320.800 136.400 320.800 147.400 L 320.800 158.400 200.049 158.400 C 93.263 158.400,79.240 158.469,78.801 158.999 C 78.359 159.532,91.930 159.588,200.052 159.499 L 321.800 159.400 321.813 147.800 L 321.825 136.200 321.603 147.400 L 321.381 158.600 321.290 147.500 C 321.241 141.395,321.211 136.265,321.223 136.100 C 321.236 135.935,321.551 135.832,321.923 135.870 C 322.537 135.934,322.540 135.897,321.960 135.470 C 321.472 135.111,292.638 135.047,200.040 135.200 C 133.336 135.310,78.613 135.253,78.433 135.073 C 78.253 134.893,77.999 135.026,77.868 135.368 M78.069 182.116 C 77.748 182.504,77.818 182.646,78.354 182.687 C 78.746 182.716,79.067 182.484,79.067 182.170 C 79.067 181.461,78.633 181.437,78.069 182.116 M131.191 182.167 C 131.134 184.977,131.241 214.157,131.309 214.175 C 131.359 214.189,137.970 214.102,146.000 213.983 L 160.600 213.766 146.167 213.783 C 135.158 213.796,131.733 213.686,131.733 213.318 C 131.733 213.052,131.883 212.928,132.067 213.041 C 132.250 213.155,132.400 206.157,132.400 197.490 C 132.400 183.751,132.323 181.733,131.800 181.733 C 131.470 181.733,131.196 181.928,131.191 182.167 M161.046 182.225 C 160.450 183.778,160.746 213.318,161.364 213.936 C 161.876 214.448,161.950 212.552,161.966 198.560 C 161.983 183.854,161.783 180.303,161.046 182.225 M267.610 197.534 L 267.636 213.400 253.518 213.600 L 239.400 213.801 254.000 214.000 C 262.030 214.110,268.690 214.140,268.800 214.067 C 269.474 213.617,268.974 181.873,268.291 181.772 C 267.623 181.674,267.584 182.570,267.610 197.534 M321.088 182.133 C 320.930 182.536,320.800 189.783,320.800 198.238 L 320.800 213.610 306.581 213.505 L 292.362 213.400 292.293 198.200 L 292.224 183.000 292.007 198.000 L 291.790 213.000 291.590 198.000 L 291.390 183.000 291.295 198.100 C 291.235 207.639,291.343 213.200,291.587 213.200 C 291.801 213.200,291.920 213.425,291.853 213.700 C 291.786 213.975,291.791 214.110,291.865 214.000 C 291.939 213.890,298.615 213.890,306.700 214.000 C 318.118 214.155,321.531 214.088,321.986 213.700 C 322.493 213.267,322.480 213.200,321.886 213.200 C 321.248 213.200,321.207 212.119,321.293 197.900 L 321.386 182.600 321.595 197.800 L 321.805 213.000 322.002 197.738 C 322.111 189.344,322.079 182.551,321.930 182.643 C 321.782 182.735,321.597 182.493,321.518 182.105 C 321.385 181.445,321.358 181.447,321.088 182.133 M184.582 197.600 C 184.582 206.290,184.635 209.845,184.700 205.500 C 184.764 201.155,184.764 194.045,184.700 189.700 C 184.635 185.355,184.582 188.910,184.582 197.600 M214.617 182.372 C 214.491 182.577,214.570 182.858,214.793 182.996 C 215.057 183.159,215.200 188.518,215.200 198.247 C 215.200 209.484,215.084 213.176,214.738 212.962 C 214.449 212.783,214.385 212.852,214.568 213.148 C 214.790 213.507,211.344 213.593,200.068 213.510 C 191.932 213.449,185.362 213.539,185.467 213.709 C 185.572 213.878,192.387 214.005,200.612 213.990 L 215.566 213.964 215.591 197.982 C 215.615 183.185,215.477 180.981,214.617 182.372 M238.653 182.700 C 238.720 182.975,238.597 183.200,238.379 183.200 C 237.875 183.200,237.887 213.483,238.390 213.794 C 238.585 213.915,238.850 213.843,238.978 213.636 C 239.305 213.107,239.460 182.439,239.134 182.641 C 238.988 182.731,238.792 182.669,238.700 182.502 C 238.607 182.336,238.586 182.425,238.653 182.700 M78.495 198.100 C 78.436 207.508,78.254 213.200,78.013 213.200 C 77.799 213.200,77.735 213.485,77.868 213.834 C 78.064 214.344,78.177 214.363,78.450 213.934 C 78.636 213.640,78.791 213.580,78.794 213.800 C 78.798 214.059,84.096 214.200,93.875 214.200 C 102.167 214.200,108.637 214.140,108.254 214.067 C 107.818 213.983,107.678 213.759,107.879 213.467 C 108.055 213.210,108.105 206.250,107.988 198.000 L 107.776 183.000 107.707 198.200 L 107.638 213.400 93.224 213.505 L 78.810 213.610 78.700 198.305 L 78.590 183.000 78.495 198.100 M185.381 198.000 C 185.381 206.250,185.434 209.625,185.499 205.500 C 185.564 201.375,185.564 194.625,185.499 190.500 C 185.434 186.375,185.381 189.750,185.381 198.000 M131.822 236.745 C 131.976 237.044,131.903 237.412,131.660 237.563 C 131.310 237.779,131.005 258.296,131.191 269.124 C 131.196 269.412,131.383 269.534,131.607 269.396 C 131.830 269.258,131.892 268.949,131.745 268.711 C 131.588 268.458,131.662 268.391,131.921 268.551 C 132.165 268.702,132.281 269.045,132.178 269.313 C 132.032 269.691,135.251 269.776,146.625 269.690 C 157.961 269.605,161.223 269.470,161.097 269.090 C 160.973 268.718,157.496 268.575,146.667 268.495 L 132.400 268.390 132.400 253.195 L 132.400 238.000 146.500 237.905 L 160.600 237.811 146.640 237.700 C 133.952 237.600,132.629 237.526,132.111 236.895 C 131.797 236.513,131.667 236.445,131.822 236.745 M161.264 236.700 C 161.298 236.865,161.206 237.271,161.059 237.601 C 160.526 238.795,160.955 268.519,161.508 268.703 C 161.913 268.838,162.011 265.590,161.991 252.636 C 161.976 242.571,161.821 236.400,161.583 236.400 C 161.372 236.400,161.229 236.535,161.264 236.700 M214.507 236.995 C 214.224 237.501,212.029 237.605,199.787 237.695 L 185.400 237.800 185.393 253.000 L 185.386 268.200 185.498 253.100 L 185.610 238.000 200.405 238.000 L 215.200 238.000 215.194 253.100 C 215.190 262.158,215.033 268.440,214.800 268.800 C 214.532 269.214,214.410 269.243,214.406 268.891 C 214.401 268.487,211.347 268.388,199.700 268.410 L 185.000 268.439 184.793 253.119 L 184.586 237.800 184.493 252.926 C 184.432 262.767,184.545 268.323,184.814 268.826 C 185.212 269.570,185.805 269.600,200.000 269.600 C 214.195 269.600,214.788 269.570,215.186 268.826 C 215.749 267.775,215.756 237.744,215.193 237.396 C 214.970 237.258,214.891 236.977,215.017 236.772 C 215.144 236.568,215.156 236.400,215.043 236.400 C 214.931 236.400,214.690 236.668,214.507 236.995 M267.600 236.995 C 267.600 237.508,265.663 237.605,253.500 237.700 L 239.400 237.811 253.500 237.905 L 267.600 238.000 267.600 253.200 L 267.600 268.400 253.405 268.400 L 239.210 268.400 239.105 253.100 C 239.037 243.237,238.858 237.800,238.600 237.800 C 238.340 237.800,238.197 243.273,238.191 253.400 L 238.181 269.000 238.398 253.400 L 238.614 237.800 238.754 253.200 C 238.832 261.670,238.865 268.829,238.828 269.110 C 238.774 269.516,241.718 269.597,253.380 269.510 C 262.927 269.438,268.005 269.539,268.014 269.800 C 268.022 270.020,268.286 269.750,268.600 269.200 C 269.449 267.715,269.475 237.818,268.629 236.971 C 267.898 236.241,267.600 236.248,267.600 236.995 M78.303 248.500 C 78.359 254.935,78.456 262.090,78.518 264.400 C 78.580 266.710,78.668 261.715,78.715 253.300 L 78.800 238.000 93.200 238.000 L 107.600 238.000 107.600 253.195 L 107.600 268.390 93.338 268.495 C 81.021 268.586,79.064 268.682,78.988 269.200 C 78.911 269.726,80.700 269.786,93.424 269.690 L 107.949 269.581 107.986 253.590 L 108.024 237.600 93.112 237.594 C 83.337 237.590,78.407 237.454,78.800 237.200 C 79.333 236.855,79.333 236.812,78.800 236.806 C 78.278 236.800,78.213 238.318,78.303 248.500 M291.306 252.604 L 291.378 268.600 291.594 253.200 L 291.809 237.800 292.010 253.200 L 292.210 268.600 292.305 253.300 L 292.400 238.000 306.600 238.000 L 320.800 238.000 320.800 253.200 L 320.800 268.400 306.676 268.400 C 295.005 268.400,292.418 268.500,291.776 268.976 C 291.096 269.482,292.906 269.557,306.491 269.585 C 320.860 269.615,321.963 269.568,321.723 268.943 C 321.534 268.452,321.608 268.358,321.994 268.596 C 322.322 268.799,322.427 268.768,322.270 268.514 C 322.131 268.289,322.005 261.167,321.991 252.688 C 321.969 239.837,321.871 237.236,321.403 237.056 C 321.072 236.929,320.917 237.038,321.025 237.320 C 321.293 238.018,291.967 237.794,291.535 237.095 C 291.370 236.827,291.267 243.807,291.306 252.604 M321.499 260.900 C 321.435 265.135,321.382 261.670,321.382 253.200 C 321.382 244.730,321.435 241.265,321.499 245.500 C 321.564 249.735,321.564 256.665,321.499 260.900 M78.900 292.598 C 78.518 293.032,78.400 296.824,78.400 308.607 C 78.400 318.799,78.264 323.963,78.000 323.800 C 77.780 323.664,77.600 323.647,77.600 323.762 C 77.600 323.878,77.915 324.141,78.300 324.347 C 78.962 324.701,78.994 323.867,78.887 308.961 L 78.773 293.200 93.187 293.200 L 107.600 293.200 107.600 308.195 L 107.600 323.190 93.300 323.300 L 79.000 323.410 93.500 323.505 L 108.000 323.600 108.000 308.433 C 108.000 300.091,107.891 292.981,107.757 292.633 C 107.410 291.729,79.695 291.696,78.900 292.598 M131.195 292.200 C 130.886 305.193,131.274 324.209,131.855 324.535 C 132.390 324.834,132.477 324.777,132.277 324.256 C 131.877 323.214,160.567 323.255,161.150 324.297 C 161.365 324.680,161.669 324.864,161.827 324.706 C 161.985 324.548,161.863 324.110,161.557 323.733 C 161.163 323.248,161.150 323.137,161.512 323.354 C 161.926 323.603,162.017 320.600,161.986 307.831 L 161.948 292.000 146.574 292.000 C 138.118 292.000,131.198 292.090,131.195 292.200 M184.562 292.462 C 184.386 292.746,184.452 292.815,184.733 292.641 C 185.073 292.432,185.218 296.365,185.295 307.879 L 185.400 323.400 199.800 323.407 L 214.200 323.415 199.900 323.302 L 185.600 323.190 185.600 308.195 L 185.600 293.200 200.000 293.200 C 207.920 293.200,214.535 293.245,214.700 293.300 C 214.865 293.355,215.000 300.358,215.000 308.862 C 215.000 317.366,215.135 324.241,215.300 324.138 C 215.465 324.036,215.600 316.874,215.600 308.223 L 215.600 292.493 214.700 292.252 C 212.918 291.775,184.866 291.970,184.562 292.462 M238.013 308.192 C 238.036 317.780,238.204 324.479,238.425 324.616 C 238.631 324.743,238.800 324.646,238.800 324.400 C 238.800 324.154,239.008 324.081,239.262 324.238 C 239.550 324.416,239.615 324.348,239.435 324.057 C 239.217 323.703,242.633 323.615,253.473 323.695 C 264.677 323.777,267.778 323.909,267.700 324.300 C 267.567 324.967,267.813 324.930,268.571 324.171 C 269.216 323.527,269.558 295.175,268.948 292.900 L 268.707 292.000 253.341 292.000 L 237.976 292.000 238.013 308.192 M291.800 292.231 C 292.060 292.341,292.162 297.908,292.091 308.100 L 291.982 323.800 306.491 323.600 L 321.000 323.400 321.205 308.200 L 321.410 293.000 321.610 308.200 L 321.810 323.400 321.905 308.329 C 321.989 295.077,321.924 293.181,321.371 292.629 C 320.822 292.079,318.904 292.004,306.071 292.032 C 298.002 292.049,291.580 292.139,291.800 292.231 M160.800 308.100 L 160.800 323.200 146.609 323.200 L 132.419 323.200 132.309 308.100 L 132.200 293.000 146.500 293.000 L 160.800 293.000 160.800 308.100 M268.001 293.133 C 267.743 293.219,267.600 298.589,267.600 308.224 L 267.600 323.180 253.166 323.290 C 245.228 323.351,238.658 323.325,238.566 323.233 C 238.475 323.142,238.442 316.302,238.493 308.033 L 238.586 293.000 238.800 308.200 L 239.014 323.400 239.107 308.200 L 239.200 293.000 253.801 293.000 C 261.831 293.000,268.221 293.060,268.001 293.133 M184.581 308.200 C 184.581 316.560,184.634 320.037,184.699 315.926 C 184.764 311.816,184.764 304.976,184.700 300.726 C 184.635 296.477,184.582 299.840,184.581 308.200 M291.381 308.200 C 291.381 316.560,291.434 320.037,291.499 315.926 C 291.564 311.816,291.564 304.976,291.500 300.726 C 291.435 296.477,291.382 299.840,291.381 308.200 M320.800 308.200 L 320.800 323.200 306.600 323.200 L 292.400 323.200 292.400 308.200 L 292.400 293.200 306.600 293.200 L 320.800 293.200 320.800 308.200 M321.051 323.917 C 320.944 324.091,321.203 324.260,321.628 324.292 C 322.052 324.324,322.400 324.181,322.400 323.975 C 322.400 323.520,321.325 323.473,321.051 323.917 " stroke="none" fill="#f0fcfc" fill-rule="evenodd"></path><path id="path2" d="M54.400 14.600 L 54.400 29.200 27.974 29.200 C 10.522 29.200,1.285 29.341,0.774 29.614 C -0.293 30.185,-0.467 400.000,0.600 400.000 C 1.132 400.000,1.200 379.155,1.200 214.794 L 1.200 29.589 28.000 29.694 C 42.740 29.752,54.800 29.665,54.800 29.500 C 54.800 29.335,55.025 29.245,55.300 29.300 C 55.691 29.378,55.823 26.202,55.905 14.700 C 56.008 0.202,55.999 -0.000,55.205 -0.000 C 54.413 -0.000,54.400 0.237,54.400 14.600 M121.695 14.496 L 121.600 29.193 100.300 29.300 L 79.000 29.407 100.313 29.504 C 117.108 29.580,121.666 29.494,121.818 29.098 C 121.924 28.822,121.961 22.117,121.900 14.198 L 121.790 -0.200 121.695 14.496 M145.600 14.800 C 145.490 23.050,145.400 29.800,145.400 29.800 C 145.400 29.800,155.030 29.707,166.800 29.593 L 188.200 29.386 167.105 29.293 L 146.010 29.200 145.905 14.500 L 145.800 -0.200 145.600 14.800 M188.800 14.680 C 188.690 22.864,188.737 29.423,188.905 29.255 C 189.073 29.087,189.163 22.391,189.105 14.375 L 188.999 -0.200 188.800 14.680 M211.781 14.600 C 211.781 22.740,211.834 26.013,211.900 21.874 C 211.965 17.734,211.965 11.074,211.899 7.074 C 211.834 3.073,211.781 6.460,211.781 14.600 M254.800 14.600 L 254.800 29.200 233.600 29.200 C 221.940 29.200,212.400 29.335,212.400 29.500 C 212.400 29.665,222.120 29.800,234.000 29.800 L 255.600 29.800 255.600 14.900 C 255.600 5.233,255.460 0.000,255.200 0.000 C 254.941 0.000,254.800 5.133,254.800 14.600 M320.895 14.500 L 320.800 29.200 299.900 29.247 C 288.405 29.273,278.820 29.258,278.600 29.214 C 278.380 29.170,278.311 29.245,278.447 29.381 C 278.691 29.625,319.449 29.689,321.000 29.448 C 321.783 29.327,321.800 29.012,321.810 14.562 L 321.820 -0.200 321.605 14.600 L 321.390 29.400 321.190 14.600 L 320.990 -0.200 320.895 14.500 M344.710 14.749 C 344.616 27.328,344.683 29.467,345.166 29.281 C 345.477 29.162,345.629 29.230,345.504 29.432 C 345.366 29.655,355.822 29.758,372.038 29.694 L 398.800 29.589 398.800 214.794 C 398.800 379.155,398.868 400.000,399.400 400.000 C 400.079 400.000,400.327 30.736,399.649 29.666 C 399.463 29.372,399.196 29.147,399.055 29.166 C 398.915 29.185,386.830 29.200,372.200 29.200 L 345.600 29.200 345.600 14.600 C 345.600 5.372,345.456 0.000,345.210 0.000 C 344.965 0.000,344.778 5.499,344.710 14.749 M78.010 67.588 C 77.992 77.425,78.120 82.400,78.391 82.400 C 78.931 82.400,78.958 53.345,78.418 53.011 C 78.179 52.864,78.027 58.301,78.010 67.588 M321.610 67.627 C 321.595 75.835,321.672 82.461,321.782 82.352 C 322.044 82.090,322.099 53.166,321.838 52.905 C 321.727 52.794,321.625 59.419,321.610 67.627 M344.709 67.600 L 344.600 82.600 333.200 82.809 L 321.800 83.019 333.457 83.109 C 343.772 83.190,345.142 83.127,345.357 82.567 C 345.767 81.499,345.622 53.853,345.203 53.200 C 344.952 52.808,344.780 57.804,344.709 67.600 M376.300 168.500 C 376.355 232.135,376.446 304.900,376.502 330.200 C 376.558 355.500,376.648 303.435,376.700 214.500 C 376.753 125.565,376.662 52.800,376.498 52.800 C 376.334 52.800,376.245 104.865,376.300 168.500 M24.400 214.696 C 24.234 349.118,24.290 376.426,24.733 376.596 C 25.592 376.925,376.000 376.830,376.000 376.500 C 376.000 376.335,296.980 376.246,200.400 376.301 L 24.801 376.403 24.700 214.701 L 24.600 53.000 24.400 214.696 M54.400 68.200 C 54.400 81.711,54.464 83.200,55.043 83.200 C 55.465 83.200,55.602 82.982,55.443 82.567 C 55.309 82.219,55.200 75.469,55.200 67.567 C 55.200 58.256,55.059 53.200,54.800 53.200 C 54.540 53.200,54.400 58.467,54.400 68.200 M121.706 68.100 L 121.637 83.200 132.918 83.195 C 139.123 83.192,144.601 83.082,145.091 82.950 L 145.981 82.712 146.091 67.956 C 146.162 58.312,146.061 53.200,145.800 53.200 C 145.539 53.200,145.438 58.257,145.510 67.790 L 145.619 82.380 144.710 82.602 C 144.209 82.725,138.940 82.774,133.000 82.712 L 122.200 82.600 121.988 67.800 L 121.776 53.000 121.706 68.100 M211.600 67.920 L 211.799 82.600 211.905 68.225 C 211.963 60.319,211.873 53.713,211.705 53.545 C 211.537 53.377,211.490 59.845,211.600 67.920 M254.667 53.467 C 254.520 53.613,254.414 60.408,254.432 68.567 C 254.449 76.725,254.554 83.174,254.666 82.898 C 254.777 82.621,255.033 82.497,255.234 82.621 C 255.453 82.756,255.600 76.881,255.600 68.024 C 255.600 54.491,255.482 52.651,254.667 53.467 M188.981 68.000 C 188.981 76.030,189.034 79.315,189.099 75.300 C 189.165 71.285,189.165 64.715,189.099 60.700 C 189.034 56.685,188.981 59.970,188.981 68.000 M320.981 68.000 C 320.981 76.030,321.034 79.315,321.099 75.300 C 321.165 71.285,321.165 64.715,321.099 60.700 C 321.034 56.685,320.981 59.970,320.981 68.000 M61.300 83.099 C 64.325 83.167,69.275 83.167,72.300 83.099 C 75.325 83.031,72.850 82.975,66.800 82.975 C 60.750 82.975,58.275 83.031,61.300 83.099 M194.900 83.099 C 197.925 83.167,202.875 83.167,205.900 83.099 C 208.925 83.031,206.450 82.975,200.400 82.975 C 194.350 82.975,191.875 83.031,194.900 83.099 M261.300 83.099 C 264.325 83.167,269.275 83.167,272.300 83.099 C 275.325 83.031,272.850 82.975,266.800 82.975 C 260.750 82.975,258.275 83.031,261.300 83.099 M54.400 111.581 C 54.400 111.837,54.561 111.948,54.758 111.826 C 54.955 111.704,55.223 111.883,55.354 112.223 C 55.489 112.576,55.422 112.737,55.197 112.598 C 54.896 112.412,54.344 346.344,54.643 347.109 C 54.666 347.170,54.981 347.105,55.343 346.967 C 55.950 346.733,56.000 337.878,56.000 229.757 L 56.000 112.800 200.000 112.800 C 279.200 112.800,344.135 112.800,344.300 112.800 C 344.864 112.800,344.865 346.839,344.301 347.522 C 343.857 348.059,343.903 348.064,344.700 347.568 L 345.600 347.008 345.600 229.891 C 345.600 126.357,345.531 112.748,345.002 112.546 C 344.674 112.419,344.506 112.152,344.630 111.952 C 344.754 111.751,345.023 111.691,345.228 111.817 C 345.432 111.944,345.600 111.857,345.600 111.624 C 345.600 111.087,344.687 111.073,344.159 111.601 C 343.657 112.103,56.127 111.960,55.100 111.457 C 54.638 111.231,54.400 111.273,54.400 111.581 M77.868 135.368 C 77.736 135.710,77.808 135.948,78.028 135.895 C 78.466 135.790,78.562 157.814,78.126 158.519 C 77.984 158.749,78.075 158.801,78.338 158.638 C 78.669 158.434,78.800 155.242,78.800 147.376 L 78.800 136.400 199.800 136.400 L 320.800 136.400 320.800 147.400 L 320.800 158.400 200.049 158.400 C 93.263 158.400,79.240 158.469,78.801 158.999 C 78.359 159.532,91.930 159.588,200.052 159.499 L 321.800 159.400 321.813 147.800 L 321.825 136.200 321.603 147.400 L 321.381 158.600 321.290 147.500 C 321.241 141.395,321.211 136.265,321.223 136.100 C 321.236 135.935,321.551 135.832,321.923 135.870 C 322.537 135.934,322.540 135.897,321.960 135.470 C 321.472 135.111,292.638 135.047,200.040 135.200 C 133.336 135.310,78.613 135.253,78.433 135.073 C 78.253 134.893,77.999 135.026,77.868 135.368 M78.069 182.116 C 77.748 182.504,77.818 182.646,78.354 182.687 C 78.746 182.716,79.067 182.484,79.067 182.170 C 79.067 181.461,78.633 181.437,78.069 182.116 M131.191 182.167 C 131.134 184.977,131.241 214.157,131.309 214.175 C 131.359 214.189,137.970 214.102,146.000 213.983 L 160.600 213.766 146.167 213.783 C 135.158 213.796,131.733 213.686,131.733 213.318 C 131.733 213.052,131.883 212.928,132.067 213.041 C 132.250 213.155,132.400 206.157,132.400 197.490 C 132.400 183.751,132.323 181.733,131.800 181.733 C 131.470 181.733,131.196 181.928,131.191 182.167 M161.046 182.225 C 160.450 183.778,160.746 213.318,161.364 213.936 C 161.876 214.448,161.950 212.552,161.966 198.560 C 161.983 183.854,161.783 180.303,161.046 182.225 M267.610 197.534 L 267.636 213.400 253.518 213.600 L 239.400 213.801 254.000 214.000 C 262.030 214.110,268.690 214.140,268.800 214.067 C 269.474 213.617,268.974 181.873,268.291 181.772 C 267.623 181.674,267.584 182.570,267.610 197.534 M321.088 182.133 C 320.930 182.536,320.800 189.783,320.800 198.238 L 320.800 213.610 306.581 213.505 L 292.362 213.400 292.293 198.200 L 292.224 183.000 292.007 198.000 L 291.790 213.000 291.590 198.000 L 291.390 183.000 291.295 198.100 C 291.235 207.639,291.343 213.200,291.587 213.200 C 291.801 213.200,291.920 213.425,291.853 213.700 C 291.786 213.975,291.791 214.110,291.865 214.000 C 291.939 213.890,298.615 213.890,306.700 214.000 C 318.118 214.155,321.531 214.088,321.986 213.700 C 322.493 213.267,322.480 213.200,321.886 213.200 C 321.248 213.200,321.207 212.119,321.293 197.900 L 321.386 182.600 321.595 197.800 L 321.805 213.000 322.002 197.738 C 322.111 189.344,322.079 182.551,321.930 182.643 C 321.782 182.735,321.597 182.493,321.518 182.105 C 321.385 181.445,321.358 181.447,321.088 182.133 M184.582 197.600 C 184.582 206.290,184.635 209.845,184.700 205.500 C 184.764 201.155,184.764 194.045,184.700 189.700 C 184.635 185.355,184.582 188.910,184.582 197.600 M214.617 182.372 C 214.491 182.577,214.570 182.858,214.793 182.996 C 215.057 183.159,215.200 188.518,215.200 198.247 C 215.200 209.484,215.084 213.176,214.738 212.962 C 214.449 212.783,214.385 212.852,214.568 213.148 C 214.790 213.507,211.344 213.593,200.068 213.510 C 191.932 213.449,185.362 213.539,185.467 213.709 C 185.572 213.878,192.387 214.005,200.612 213.990 L 215.566 213.964 215.591 197.982 C 215.615 183.185,215.477 180.981,214.617 182.372 M238.653 182.700 C 238.720 182.975,238.597 183.200,238.379 183.200 C 237.875 183.200,237.887 213.483,238.390 213.794 C 238.585 213.915,238.850 213.843,238.978 213.636 C 239.305 213.107,239.460 182.439,239.134 182.641 C 238.988 182.731,238.792 182.669,238.700 182.502 C 238.607 182.336,238.586 182.425,238.653 182.700 M78.495 198.100 C 78.436 207.508,78.254 213.200,78.013 213.200 C 77.799 213.200,77.735 213.485,77.868 213.834 C 78.064 214.344,78.177 214.363,78.450 213.934 C 78.636 213.640,78.791 213.580,78.794 213.800 C 78.798 214.059,84.096 214.200,93.875 214.200 C 102.167 214.200,108.637 214.140,108.254 214.067 C 107.818 213.983,107.678 213.759,107.879 213.467 C 108.055 213.210,108.105 206.250,107.988 198.000 L 107.776 183.000 107.707 198.200 L 107.638 213.400 93.224 213.505 L 78.810 213.610 78.700 198.305 L 78.590 183.000 78.495 198.100 M185.381 198.000 C 185.381 206.250,185.434 209.625,185.499 205.500 C 185.564 201.375,185.564 194.625,185.499 190.500 C 185.434 186.375,185.381 189.750,185.381 198.000 M131.822 236.745 C 131.976 237.044,131.903 237.412,131.660 237.563 C 131.310 237.779,131.005 258.296,131.191 269.124 C 131.196 269.412,131.383 269.534,131.607 269.396 C 131.830 269.258,131.892 268.949,131.745 268.711 C 131.588 268.458,131.662 268.391,131.921 268.551 C 132.165 268.702,132.281 269.045,132.178 269.313 C 132.032 269.691,135.251 269.776,146.625 269.690 C 157.961 269.605,161.223 269.470,161.097 269.090 C 160.973 268.718,157.496 268.575,146.667 268.495 L 132.400 268.390 132.400 253.195 L 132.400 238.000 146.500 237.905 L 160.600 237.811 146.640 237.700 C 133.952 237.600,132.629 237.526,132.111 236.895 C 131.797 236.513,131.667 236.445,131.822 236.745 M161.264 236.700 C 161.298 236.865,161.206 237.271,161.059 237.601 C 160.526 238.795,160.955 268.519,161.508 268.703 C 161.913 268.838,162.011 265.590,161.991 252.636 C 161.976 242.571,161.821 236.400,161.583 236.400 C 161.372 236.400,161.229 236.535,161.264 236.700 M214.507 236.995 C 214.224 237.501,212.029 237.605,199.787 237.695 L 185.400 237.800 185.393 253.000 L 185.386 268.200 185.498 253.100 L 185.610 238.000 200.405 238.000 L 215.200 238.000 215.194 253.100 C 215.190 262.158,215.033 268.440,214.800 268.800 C 214.532 269.214,214.410 269.243,214.406 268.891 C 214.401 268.487,211.347 268.388,199.700 268.410 L 185.000 268.439 184.793 253.119 L 184.586 237.800 184.493 252.926 C 184.432 262.767,184.545 268.323,184.814 268.826 C 185.212 269.570,185.805 269.600,200.000 269.600 C 214.195 269.600,214.788 269.570,215.186 268.826 C 215.749 267.775,215.756 237.744,215.193 237.396 C 214.970 237.258,214.891 236.977,215.017 236.772 C 215.144 236.568,215.156 236.400,215.043 236.400 C 214.931 236.400,214.690 236.668,214.507 236.995 M267.600 236.995 C 267.600 237.508,265.663 237.605,253.500 237.700 L 239.400 237.811 253.500 237.905 L 267.600 238.000 267.600 253.200 L 267.600 268.400 253.405 268.400 L 239.210 268.400 239.105 253.100 C 239.037 243.237,238.858 237.800,238.600 237.800 C 238.340 237.800,238.197 243.273,238.191 253.400 L 238.181 269.000 238.398 253.400 L 238.614 237.800 238.754 253.200 C 238.832 261.670,238.865 268.829,238.828 269.110 C 238.774 269.516,241.718 269.597,253.380 269.510 C 262.927 269.438,268.005 269.539,268.014 269.800 C 268.022 270.020,268.286 269.750,268.600 269.200 C 269.449 267.715,269.475 237.818,268.629 236.971 C 267.898 236.241,267.600 236.248,267.600 236.995 M78.303 248.500 C 78.359 254.935,78.456 262.090,78.518 264.400 C 78.580 266.710,78.668 261.715,78.715 253.300 L 78.800 238.000 93.200 238.000 L 107.600 238.000 107.600 253.195 L 107.600 268.390 93.338 268.495 C 81.021 268.586,79.064 268.682,78.988 269.200 C 78.911 269.726,80.700 269.786,93.424 269.690 L 107.949 269.581 107.986 253.590 L 108.024 237.600 93.112 237.594 C 83.337 237.590,78.407 237.454,78.800 237.200 C 79.333 236.855,79.333 236.812,78.800 236.806 C 78.278 236.800,78.213 238.318,78.303 248.500 M291.306 252.604 L 291.378 268.600 291.594 253.200 L 291.809 237.800 292.010 253.200 L 292.210 268.600 292.305 253.300 L 292.400 238.000 306.600 238.000 L 320.800 238.000 320.800 253.200 L 320.800 268.400 306.676 268.400 C 295.005 268.400,292.418 268.500,291.776 268.976 C 291.096 269.482,292.906 269.557,306.491 269.585 C 320.860 269.615,321.963 269.568,321.723 268.943 C 321.534 268.452,321.608 268.358,321.994 268.596 C 322.322 268.799,322.427 268.768,322.270 268.514 C 322.131 268.289,322.005 261.167,321.991 252.688 C 321.969 239.837,321.871 237.236,321.403 237.056 C 321.072 236.929,320.917 237.038,321.025 237.320 C 321.293 238.018,291.967 237.794,291.535 237.095 C 291.370 236.827,291.267 243.807,291.306 252.604 M321.499 260.900 C 321.435 265.135,321.382 261.670,321.382 253.200 C 321.382 244.730,321.435 241.265,321.499 245.500 C 321.564 249.735,321.564 256.665,321.499 260.900 M78.900 292.598 C 78.518 293.032,78.400 296.824,78.400 308.607 C 78.400 318.799,78.264 323.963,78.000 323.800 C 77.780 323.664,77.600 323.647,77.600 323.762 C 77.600 323.878,77.915 324.141,78.300 324.347 C 78.962 324.701,78.994 323.867,78.887 308.961 L 78.773 293.200 93.187 293.200 L 107.600 293.200 107.600 308.195 L 107.600 323.190 93.300 323.300 L 79.000 323.410 93.500 323.505 L 108.000 323.600 108.000 308.433 C 108.000 300.091,107.891 292.981,107.757 292.633 C 107.410 291.729,79.695 291.696,78.900 292.598 M131.195 292.200 C 130.886 305.193,131.274 324.209,131.855 324.535 C 132.390 324.834,132.477 324.777,132.277 324.256 C 131.877 323.214,160.567 323.255,161.150 324.297 C 161.365 324.680,161.669 324.864,161.827 324.706 C 161.985 324.548,161.863 324.110,161.557 323.733 C 161.163 323.248,161.150 323.137,161.512 323.354 C 161.926 323.603,162.017 320.600,161.986 307.831 L 161.948 292.000 146.574 292.000 C 138.118 292.000,131.198 292.090,131.195 292.200 M184.562 292.462 C 184.386 292.746,184.452 292.815,184.733 292.641 C 185.073 292.432,185.218 296.365,185.295 307.879 L 185.400 323.400 199.800 323.407 L 214.200 323.415 199.900 323.302 L 185.600 323.190 185.600 308.195 L 185.600 293.200 200.000 293.200 C 207.920 293.200,214.535 293.245,214.700 293.300 C 214.865 293.355,215.000 300.358,215.000 308.862 C 215.000 317.366,215.135 324.241,215.300 324.138 C 215.465 324.036,215.600 316.874,215.600 308.223 L 215.600 292.493 214.700 292.252 C 212.918 291.775,184.866 291.970,184.562 292.462 M238.013 308.192 C 238.036 317.780,238.204 324.479,238.425 324.616 C 238.631 324.743,238.800 324.646,238.800 324.400 C 238.800 324.154,239.008 324.081,239.262 324.238 C 239.550 324.416,239.615 324.348,239.435 324.057 C 239.217 323.703,242.633 323.615,253.473 323.695 C 264.677 323.777,267.778 323.909,267.700 324.300 C 267.567 324.967,267.813 324.930,268.571 324.171 C 269.216 323.527,269.558 295.175,268.948 292.900 L 268.707 292.000 253.341 292.000 L 237.976 292.000 238.013 308.192 M291.800 292.231 C 292.060 292.341,292.162 297.908,292.091 308.100 L 291.982 323.800 306.491 323.600 L 321.000 323.400 321.205 308.200 L 321.410 293.000 321.610 308.200 L 321.810 323.400 321.905 308.329 C 321.989 295.077,321.924 293.181,321.371 292.629 C 320.822 292.079,318.904 292.004,306.071 292.032 C 298.002 292.049,291.580 292.139,291.800 292.231 M160.800 308.100 L 160.800 323.200 146.609 323.200 L 132.419 323.200 132.309 308.100 L 132.200 293.000 146.500 293.000 L 160.800 293.000 160.800 308.100 M268.001 293.133 C 267.743 293.219,267.600 298.589,267.600 308.224 L 267.600 323.180 253.166 323.290 C 245.228 323.351,238.658 323.325,238.566 323.233 C 238.475 323.142,238.442 316.302,238.493 308.033 L 238.586 293.000 238.800 308.200 L 239.014 323.400 239.107 308.200 L 239.200 293.000 253.801 293.000 C 261.831 293.000,268.221 293.060,268.001 293.133 M184.581 308.200 C 184.581 316.560,184.634 320.037,184.699 315.926 C 184.764 311.816,184.764 304.976,184.700 300.726 C 184.635 296.477,184.582 299.840,184.581 308.200 M291.381 308.200 C 291.381 316.560,291.434 320.037,291.499 315.926 C 291.564 311.816,291.564 304.976,291.500 300.726 C 291.435 296.477,291.382 299.840,291.381 308.200 M320.800 308.200 L 320.800 323.200 306.600 323.200 L 292.400 323.200 292.400 308.200 L 292.400 293.200 306.600 293.200 L 320.800 293.200 320.800 308.200 M321.051 323.917 C 320.944 324.091,321.203 324.260,321.628 324.292 C 322.052 324.324,322.400 324.181,322.400 323.975 C 322.400 323.520,321.325 323.473,321.051 323.917 " stroke="none" fill="#f0fcfc" fill-rule="evenodd"></path><path id="path3" d="M54.400 14.600 L 54.400 29.200 27.974 29.200 C 10.522 29.200,1.285 29.341,0.774 29.614 C -0.293 30.185,-0.467 400.000,0.600 400.000 C 1.132 400.000,1.200 379.155,1.200 214.794 L 1.200 29.589 28.000 29.694 C 42.740 29.752,54.800 29.665,54.800 29.500 C 54.800 29.335,55.025 29.245,55.300 29.300 C 55.691 29.378,55.823 26.202,55.905 14.700 C 56.008 0.202,55.999 -0.000,55.205 -0.000 C 54.413 -0.000,54.400 0.237,54.400 14.600 M121.695 14.496 L 121.600 29.193 100.300 29.300 L 79.000 29.407 100.313 29.504 C 117.108 29.580,121.666 29.494,121.818 29.098 C 121.924 28.822,121.961 22.117,121.900 14.198 L 121.790 -0.200 121.695 14.496 M145.600 14.800 C 145.490 23.050,145.400 29.800,145.400 29.800 C 145.400 29.800,155.030 29.707,166.800 29.593 L 188.200 29.386 167.105 29.293 L 146.010 29.200 145.905 14.500 L 145.800 -0.200 145.600 14.800 M188.800 14.680 C 188.690 22.864,188.737 29.423,188.905 29.255 C 189.073 29.087,189.163 22.391,189.105 14.375 L 188.999 -0.200 188.800 14.680 M211.781 14.600 C 211.781 22.740,211.834 26.013,211.900 21.874 C 211.965 17.734,211.965 11.074,211.899 7.074 C 211.834 3.073,211.781 6.460,211.781 14.600 M254.800 14.600 L 254.800 29.200 233.600 29.200 C 221.940 29.200,212.400 29.335,212.400 29.500 C 212.400 29.665,222.120 29.800,234.000 29.800 L 255.600 29.800 255.600 14.900 C 255.600 5.233,255.460 0.000,255.200 0.000 C 254.941 0.000,254.800 5.133,254.800 14.600 M320.895 14.500 L 320.800 29.200 299.900 29.247 C 288.405 29.273,278.820 29.258,278.600 29.214 C 278.380 29.170,278.311 29.245,278.447 29.381 C 278.691 29.625,319.449 29.689,321.000 29.448 C 321.783 29.327,321.800 29.012,321.810 14.562 L 321.820 -0.200 321.605 14.600 L 321.390 29.400 321.190 14.600 L 320.990 -0.200 320.895 14.500 M344.710 14.749 C 344.616 27.328,344.683 29.467,345.166 29.281 C 345.477 29.162,345.629 29.230,345.504 29.432 C 345.366 29.655,355.822 29.758,372.038 29.694 L 398.800 29.589 398.800 214.794 C 398.800 379.155,398.868 400.000,399.400 400.000 C 400.079 400.000,400.327 30.736,399.649 29.666 C 399.463 29.372,399.196 29.147,399.055 29.166 C 398.915 29.185,386.830 29.200,372.200 29.200 L 345.600 29.200 345.600 14.600 C 345.600 5.372,345.456 0.000,345.210 0.000 C 344.965 0.000,344.778 5.499,344.710 14.749 M78.010 67.588 C 77.992 77.425,78.120 82.400,78.391 82.400 C 78.931 82.400,78.958 53.345,78.418 53.011 C 78.179 52.864,78.027 58.301,78.010 67.588 M321.610 67.627 C 321.595 75.835,321.672 82.461,321.782 82.352 C 322.044 82.090,322.099 53.166,321.838 52.905 C 321.727 52.794,321.625 59.419,321.610 67.627 M344.709 67.600 L 344.600 82.600 333.200 82.809 L 321.800 83.019 333.457 83.109 C 343.772 83.190,345.142 83.127,345.357 82.567 C 345.767 81.499,345.622 53.853,345.203 53.200 C 344.952 52.808,344.780 57.804,344.709 67.600 M376.300 168.500 C 376.355 232.135,376.446 304.900,376.502 330.200 C 376.558 355.500,376.648 303.435,376.700 214.500 C 376.753 125.565,376.662 52.800,376.498 52.800 C 376.334 52.800,376.245 104.865,376.300 168.500 M24.400 214.696 C 24.234 349.118,24.290 376.426,24.733 376.596 C 25.592 376.925,376.000 376.830,376.000 376.500 C 376.000 376.335,296.980 376.246,200.400 376.301 L 24.801 376.403 24.700 214.701 L 24.600 53.000 24.400 214.696 M54.400 68.200 C 54.400 81.711,54.464 83.200,55.043 83.200 C 55.465 83.200,55.602 82.982,55.443 82.567 C 55.309 82.219,55.200 75.469,55.200 67.567 C 55.200 58.256,55.059 53.200,54.800 53.200 C 54.540 53.200,54.400 58.467,54.400 68.200 M121.706 68.100 L 121.637 83.200 132.918 83.195 C 139.123 83.192,144.601 83.082,145.091 82.950 L 145.981 82.712 146.091 67.956 C 146.162 58.312,146.061 53.200,145.800 53.200 C 145.539 53.200,145.438 58.257,145.510 67.790 L 145.619 82.380 144.710 82.602 C 144.209 82.725,138.940 82.774,133.000 82.712 L 122.200 82.600 121.988 67.800 L 121.776 53.000 121.706 68.100 M211.600 67.920 L 211.799 82.600 211.905 68.225 C 211.963 60.319,211.873 53.713,211.705 53.545 C 211.537 53.377,211.490 59.845,211.600 67.920 M254.667 53.467 C 254.520 53.613,254.414 60.408,254.432 68.567 C 254.449 76.725,254.554 83.174,254.666 82.898 C 254.777 82.621,255.033 82.497,255.234 82.621 C 255.453 82.756,255.600 76.881,255.600 68.024 C 255.600 54.491,255.482 52.651,254.667 53.467 M188.981 68.000 C 188.981 76.030,189.034 79.315,189.099 75.300 C 189.165 71.285,189.165 64.715,189.099 60.700 C 189.034 56.685,188.981 59.970,188.981 68.000 M320.981 68.000 C 320.981 76.030,321.034 79.315,321.099 75.300 C 321.165 71.285,321.165 64.715,321.099 60.700 C 321.034 56.685,320.981 59.970,320.981 68.000 M61.300 83.099 C 64.325 83.167,69.275 83.167,72.300 83.099 C 75.325 83.031,72.850 82.975,66.800 82.975 C 60.750 82.975,58.275 83.031,61.300 83.099 M194.900 83.099 C 197.925 83.167,202.875 83.167,205.900 83.099 C 208.925 83.031,206.450 82.975,200.400 82.975 C 194.350 82.975,191.875 83.031,194.900 83.099 M261.300 83.099 C 264.325 83.167,269.275 83.167,272.300 83.099 C 275.325 83.031,272.850 82.975,266.800 82.975 C 260.750 82.975,258.275 83.031,261.300 83.099 M54.400 111.581 C 54.400 111.837,54.561 111.948,54.758 111.826 C 54.955 111.704,55.223 111.883,55.354 112.223 C 55.489 112.576,55.422 112.737,55.197 112.598 C 54.896 112.412,54.344 346.344,54.643 347.109 C 54.666 347.170,54.981 347.105,55.343 346.967 C 55.950 346.733,56.000 337.878,56.000 229.757 L 56.000 112.800 200.000 112.800 C 279.200 112.800,344.135 112.800,344.300 112.800 C 344.864 112.800,344.865 346.839,344.301 347.522 C 343.857 348.059,343.903 348.064,344.700 347.568 L 345.600 347.008 345.600 229.891 C 345.600 126.357,345.531 112.748,345.002 112.546 C 344.674 112.419,344.506 112.152,344.630 111.952 C 344.754 111.751,345.023 111.691,345.228 111.817 C 345.432 111.944,345.600 111.857,345.600 111.624 C 345.600 111.087,344.687 111.073,344.159 111.601 C 343.657 112.103,56.127 111.960,55.100 111.457 C 54.638 111.231,54.400 111.273,54.400 111.581 M77.868 135.368 C 77.736 135.710,77.808 135.948,78.028 135.895 C 78.466 135.790,78.562 157.814,78.126 158.519 C 77.984 158.749,78.075 158.801,78.338 158.638 C 78.669 158.434,78.800 155.242,78.800 147.376 L 78.800 136.400 199.800 136.400 L 320.800 136.400 320.800 147.400 L 320.800 158.400 200.049 158.400 C 93.263 158.400,79.240 158.469,78.801 158.999 C 78.359 159.532,91.930 159.588,200.052 159.499 L 321.800 159.400 321.813 147.800 L 321.825 136.200 321.603 147.400 L 321.381 158.600 321.290 147.500 C 321.241 141.395,321.211 136.265,321.223 136.100 C 321.236 135.935,321.551 135.832,321.923 135.870 C 322.537 135.934,322.540 135.897,321.960 135.470 C 321.472 135.111,292.638 135.047,200.040 135.200 C 133.336 135.310,78.613 135.253,78.433 135.073 C 78.253 134.893,77.999 135.026,77.868 135.368 M78.069 182.116 C 77.748 182.504,77.818 182.646,78.354 182.687 C 78.746 182.716,79.067 182.484,79.067 182.170 C 79.067 181.461,78.633 181.437,78.069 182.116 M131.191 182.167 C 131.134 184.977,131.241 214.157,131.309 214.175 C 131.359 214.189,137.970 214.102,146.000 213.983 L 160.600 213.766 146.167 213.783 C 135.158 213.796,131.733 213.686,131.733 213.318 C 131.733 213.052,131.883 212.928,132.067 213.041 C 132.250 213.155,132.400 206.157,132.400 197.490 C 132.400 183.751,132.323 181.733,131.800 181.733 C 131.470 181.733,131.196 181.928,131.191 182.167 M161.046 182.225 C 160.450 183.778,160.746 213.318,161.364 213.936 C 161.876 214.448,161.950 212.552,161.966 198.560 C 161.983 183.854,161.783 180.303,161.046 182.225 M267.610 197.534 L 267.636 213.400 253.518 213.600 L 239.400 213.801 254.000 214.000 C 262.030 214.110,268.690 214.140,268.800 214.067 C 269.474 213.617,268.974 181.873,268.291 181.772 C 267.623 181.674,267.584 182.570,267.610 197.534 M321.088 182.133 C 320.930 182.536,320.800 189.783,320.800 198.238 L 320.800 213.610 306.581 213.505 L 292.362 213.400 292.293 198.200 L 292.224 183.000 292.007 198.000 L 291.790 213.000 291.590 198.000 L 291.390 183.000 291.295 198.100 C 291.235 207.639,291.343 213.200,291.587 213.200 C 291.801 213.200,291.920 213.425,291.853 213.700 C 291.786 213.975,291.791 214.110,291.865 214.000 C 291.939 213.890,298.615 213.890,306.700 214.000 C 318.118 214.155,321.531 214.088,321.986 213.700 C 322.493 213.267,322.480 213.200,321.886 213.200 C 321.248 213.200,321.207 212.119,321.293 197.900 L 321.386 182.600 321.595 197.800 L 321.805 213.000 322.002 197.738 C 322.111 189.344,322.079 182.551,321.930 182.643 C 321.782 182.735,321.597 182.493,321.518 182.105 C 321.385 181.445,321.358 181.447,321.088 182.133 M184.582 197.600 C 184.582 206.290,184.635 209.845,184.700 205.500 C 184.764 201.155,184.764 194.045,184.700 189.700 C 184.635 185.355,184.582 188.910,184.582 197.600 M214.617 182.372 C 214.491 182.577,214.570 182.858,214.793 182.996 C 215.057 183.159,215.200 188.518,215.200 198.247 C 215.200 209.484,215.084 213.176,214.738 212.962 C 214.449 212.783,214.385 212.852,214.568 213.148 C 214.790 213.507,211.344 213.593,200.068 213.510 C 191.932 213.449,185.362 213.539,185.467 213.709 C 185.572 213.878,192.387 214.005,200.612 213.990 L 215.566 213.964 215.591 197.982 C 215.615 183.185,215.477 180.981,214.617 182.372 M238.653 182.700 C 238.720 182.975,238.597 183.200,238.379 183.200 C 237.875 183.200,237.887 213.483,238.390 213.794 C 238.585 213.915,238.850 213.843,238.978 213.636 C 239.305 213.107,239.460 182.439,239.134 182.641 C 238.988 182.731,238.792 182.669,238.700 182.502 C 238.607 182.336,238.586 182.425,238.653 182.700 M78.495 198.100 C 78.436 207.508,78.254 213.200,78.013 213.200 C 77.799 213.200,77.735 213.485,77.868 213.834 C 78.064 214.344,78.177 214.363,78.450 213.934 C 78.636 213.640,78.791 213.580,78.794 213.800 C 78.798 214.059,84.096 214.200,93.875 214.200 C 102.167 214.200,108.637 214.140,108.254 214.067 C 107.818 213.983,107.678 213.759,107.879 213.467 C 108.055 213.210,108.105 206.250,107.988 198.000 L 107.776 183.000 107.707 198.200 L 107.638 213.400 93.224 213.505 L 78.810 213.610 78.700 198.305 L 78.590 183.000 78.495 198.100 M185.381 198.000 C 185.381 206.250,185.434 209.625,185.499 205.500 C 185.564 201.375,185.564 194.625,185.499 190.500 C 185.434 186.375,185.381 189.750,185.381 198.000 M131.822 236.745 C 131.976 237.044,131.903 237.412,131.660 237.563 C 131.310 237.779,131.005 258.296,131.191 269.124 C 131.196 269.412,131.383 269.534,131.607 269.396 C 131.830 269.258,131.892 268.949,131.745 268.711 C 131.588 268.458,131.662 268.391,131.921 268.551 C 132.165 268.702,132.281 269.045,132.178 269.313 C 132.032 269.691,135.251 269.776,146.625 269.690 C 157.961 269.605,161.223 269.470,161.097 269.090 C 160.973 268.718,157.496 268.575,146.667 268.495 L 132.400 268.390 132.400 253.195 L 132.400 238.000 146.500 237.905 L 160.600 237.811 146.640 237.700 C 133.952 237.600,132.629 237.526,132.111 236.895 C 131.797 236.513,131.667 236.445,131.822 236.745 M161.264 236.700 C 161.298 236.865,161.206 237.271,161.059 237.601 C 160.526 238.795,160.955 268.519,161.508 268.703 C 161.913 268.838,162.011 265.590,161.991 252.636 C 161.976 242.571,161.821 236.400,161.583 236.400 C 161.372 236.400,161.229 236.535,161.264 236.700 M214.507 236.995 C 214.224 237.501,212.029 237.605,199.787 237.695 L 185.400 237.800 185.393 253.000 L 185.386 268.200 185.498 253.100 L 185.610 238.000 200.405 238.000 L 215.200 238.000 215.194 253.100 C 215.190 262.158,215.033 268.440,214.800 268.800 C 214.532 269.214,214.410 269.243,214.406 268.891 C 214.401 268.487,211.347 268.388,199.700 268.410 L 185.000 268.439 184.793 253.119 L 184.586 237.800 184.493 252.926 C 184.432 262.767,184.545 268.323,184.814 268.826 C 185.212 269.570,185.805 269.600,200.000 269.600 C 214.195 269.600,214.788 269.570,215.186 268.826 C 215.749 267.775,215.756 237.744,215.193 237.396 C 214.970 237.258,214.891 236.977,215.017 236.772 C 215.144 236.568,215.156 236.400,215.043 236.400 C 214.931 236.400,214.690 236.668,214.507 236.995 M267.600 236.995 C 267.600 237.508,265.663 237.605,253.500 237.700 L 239.400 237.811 253.500 237.905 L 267.600 238.000 267.600 253.200 L 267.600 268.400 253.405 268.400 L 239.210 268.400 239.105 253.100 C 239.037 243.237,238.858 237.800,238.600 237.800 C 238.340 237.800,238.197 243.273,238.191 253.400 L 238.181 269.000 238.398 253.400 L 238.614 237.800 238.754 253.200 C 238.832 261.670,238.865 268.829,238.828 269.110 C 238.774 269.516,241.718 269.597,253.380 269.510 C 262.927 269.438,268.005 269.539,268.014 269.800 C 268.022 270.020,268.286 269.750,268.600 269.200 C 269.449 267.715,269.475 237.818,268.629 236.971 C 267.898 236.241,267.600 236.248,267.600 236.995 M78.303 248.500 C 78.359 254.935,78.456 262.090,78.518 264.400 C 78.580 266.710,78.668 261.715,78.715 253.300 L 78.800 238.000 93.200 238.000 L 107.600 238.000 107.600 253.195 L 107.600 268.390 93.338 268.495 C 81.021 268.586,79.064 268.682,78.988 269.200 C 78.911 269.726,80.700 269.786,93.424 269.690 L 107.949 269.581 107.986 253.590 L 108.024 237.600 93.112 237.594 C 83.337 237.590,78.407 237.454,78.800 237.200 C 79.333 236.855,79.333 236.812,78.800 236.806 C 78.278 236.800,78.213 238.318,78.303 248.500 M291.306 252.604 L 291.378 268.600 291.594 253.200 L 291.809 237.800 292.010 253.200 L 292.210 268.600 292.305 253.300 L 292.400 238.000 306.600 238.000 L 320.800 238.000 320.800 253.200 L 320.800 268.400 306.676 268.400 C 295.005 268.400,292.418 268.500,291.776 268.976 C 291.096 269.482,292.906 269.557,306.491 269.585 C 320.860 269.615,321.963 269.568,321.723 268.943 C 321.534 268.452,321.608 268.358,321.994 268.596 C 322.322 268.799,322.427 268.768,322.270 268.514 C 322.131 268.289,322.005 261.167,321.991 252.688 C 321.969 239.837,321.871 237.236,321.403 237.056 C 321.072 236.929,320.917 237.038,321.025 237.320 C 321.293 238.018,291.967 237.794,291.535 237.095 C 291.370 236.827,291.267 243.807,291.306 252.604 M321.499 260.900 C 321.435 265.135,321.382 261.670,321.382 253.200 C 321.382 244.730,321.435 241.265,321.499 245.500 C 321.564 249.735,321.564 256.665,321.499 260.900 M78.900 292.598 C 78.518 293.032,78.400 296.824,78.400 308.607 C 78.400 318.799,78.264 323.963,78.000 323.800 C 77.780 323.664,77.600 323.647,77.600 323.762 C 77.600 323.878,77.915 324.141,78.300 324.347 C 78.962 324.701,78.994 323.867,78.887 308.961 L 78.773 293.200 93.187 293.200 L 107.600 293.200 107.600 308.195 L 107.600 323.190 93.300 323.300 L 79.000 323.410 93.500 323.505 L 108.000 323.600 108.000 308.433 C 108.000 300.091,107.891 292.981,107.757 292.633 C 107.410 291.729,79.695 291.696,78.900 292.598 M131.195 292.200 C 130.886 305.193,131.274 324.209,131.855 324.535 C 132.390 324.834,132.477 324.777,132.277 324.256 C 131.877 323.214,160.567 323.255,161.150 324.297 C 161.365 324.680,161.669 324.864,161.827 324.706 C 161.985 324.548,161.863 324.110,161.557 323.733 C 161.163 323.248,161.150 323.137,161.512 323.354 C 161.926 323.603,162.017 320.600,161.986 307.831 L 161.948 292.000 146.574 292.000 C 138.118 292.000,131.198 292.090,131.195 292.200 M184.562 292.462 C 184.386 292.746,184.452 292.815,184.733 292.641 C 185.073 292.432,185.218 296.365,185.295 307.879 L 185.400 323.400 199.800 323.407 L 214.200 323.415 199.900 323.302 L 185.600 323.190 185.600 308.195 L 185.600 293.200 200.000 293.200 C 207.920 293.200,214.535 293.245,214.700 293.300 C 214.865 293.355,215.000 300.358,215.000 308.862 C 215.000 317.366,215.135 324.241,215.300 324.138 C 215.465 324.036,215.600 316.874,215.600 308.223 L 215.600 292.493 214.700 292.252 C 212.918 291.775,184.866 291.970,184.562 292.462 M238.013 308.192 C 238.036 317.780,238.204 324.479,238.425 324.616 C 238.631 324.743,238.800 324.646,238.800 324.400 C 238.800 324.154,239.008 324.081,239.262 324.238 C 239.550 324.416,239.615 324.348,239.435 324.057 C 239.217 323.703,242.633 323.615,253.473 323.695 C 264.677 323.777,267.778 323.909,267.700 324.300 C 267.567 324.967,267.813 324.930,268.571 324.171 C 269.216 323.527,269.558 295.175,268.948 292.900 L 268.707 292.000 253.341 292.000 L 237.976 292.000 238.013 308.192 M291.800 292.231 C 292.060 292.341,292.162 297.908,292.091 308.100 L 291.982 323.800 306.491 323.600 L 321.000 323.400 321.205 308.200 L 321.410 293.000 321.610 308.200 L 321.810 323.400 321.905 308.329 C 321.989 295.077,321.924 293.181,321.371 292.629 C 320.822 292.079,318.904 292.004,306.071 292.032 C 298.002 292.049,291.580 292.139,291.800 292.231 M160.800 308.100 L 160.800 323.200 146.609 323.200 L 132.419 323.200 132.309 308.100 L 132.200 293.000 146.500 293.000 L 160.800 293.000 160.800 308.100 M268.001 293.133 C 267.743 293.219,267.600 298.589,267.600 308.224 L 267.600 323.180 253.166 323.290 C 245.228 323.351,238.658 323.325,238.566 323.233 C 238.475 323.142,238.442 316.302,238.493 308.033 L 238.586 293.000 238.800 308.200 L 239.014 323.400 239.107 308.200 L 239.200 293.000 253.801 293.000 C 261.831 293.000,268.221 293.060,268.001 293.133 M184.581 308.200 C 184.581 316.560,184.634 320.037,184.699 315.926 C 184.764 311.816,184.764 304.976,184.700 300.726 C 184.635 296.477,184.582 299.840,184.581 308.200 M291.381 308.200 C 291.381 316.560,291.434 320.037,291.499 315.926 C 291.564 311.816,291.564 304.976,291.500 300.726 C 291.435 296.477,291.382 299.840,291.381 308.200 M320.800 308.200 L 320.800 323.200 306.600 323.200 L 292.400 323.200 292.400 308.200 L 292.400 293.200 306.600 293.200 L 320.800 293.200 320.800 308.200 M321.051 323.917 C 320.944 324.091,321.203 324.260,321.628 324.292 C 322.052 324.324,322.400 324.181,322.400 323.975 C 322.400 323.520,321.325 323.473,321.051 323.917 " stroke="none" fill="#f0fcfc" fill-rule="evenodd"></path><path id="path4" d="M54.400 14.600 L 54.400 29.200 27.974 29.200 C 10.522 29.200,1.285 29.341,0.774 29.614 C -0.293 30.185,-0.467 400.000,0.600 400.000 C 1.132 400.000,1.200 379.155,1.200 214.794 L 1.200 29.589 28.000 29.694 C 42.740 29.752,54.800 29.665,54.800 29.500 C 54.800 29.335,55.025 29.245,55.300 29.300 C 55.691 29.378,55.823 26.202,55.905 14.700 C 56.008 0.202,55.999 -0.000,55.205 -0.000 C 54.413 -0.000,54.400 0.237,54.400 14.600 M121.695 14.496 L 121.600 29.193 100.300 29.300 L 79.000 29.407 100.313 29.504 C 117.108 29.580,121.666 29.494,121.818 29.098 C 121.924 28.822,121.961 22.117,121.900 14.198 L 121.790 -0.200 121.695 14.496 M145.600 14.800 C 145.490 23.050,145.400 29.800,145.400 29.800 C 145.400 29.800,155.030 29.707,166.800 29.593 L 188.200 29.386 167.105 29.293 L 146.010 29.200 145.905 14.500 L 145.800 -0.200 145.600 14.800 M188.800 14.680 C 188.690 22.864,188.737 29.423,188.905 29.255 C 189.073 29.087,189.163 22.391,189.105 14.375 L 188.999 -0.200 188.800 14.680 M211.781 14.600 C 211.781 22.740,211.834 26.013,211.900 21.874 C 211.965 17.734,211.965 11.074,211.899 7.074 C 211.834 3.073,211.781 6.460,211.781 14.600 M254.800 14.600 L 254.800 29.200 233.600 29.200 C 221.940 29.200,212.400 29.335,212.400 29.500 C 212.400 29.665,222.120 29.800,234.000 29.800 L 255.600 29.800 255.600 14.900 C 255.600 5.233,255.460 0.000,255.200 0.000 C 254.941 0.000,254.800 5.133,254.800 14.600 M320.895 14.500 L 320.800 29.200 299.900 29.247 C 288.405 29.273,278.820 29.258,278.600 29.214 C 278.380 29.170,278.311 29.245,278.447 29.381 C 278.691 29.625,319.449 29.689,321.000 29.448 C 321.783 29.327,321.800 29.012,321.810 14.562 L 321.820 -0.200 321.605 14.600 L 321.390 29.400 321.190 14.600 L 320.990 -0.200 320.895 14.500 M344.710 14.749 C 344.616 27.328,344.683 29.467,345.166 29.281 C 345.477 29.162,345.629 29.230,345.504 29.432 C 345.366 29.655,355.822 29.758,372.038 29.694 L 398.800 29.589 398.800 214.794 C 398.800 379.155,398.868 400.000,399.400 400.000 C 400.079 400.000,400.327 30.736,399.649 29.666 C 399.463 29.372,399.196 29.147,399.055 29.166 C 398.915 29.185,386.830 29.200,372.200 29.200 L 345.600 29.200 345.600 14.600 C 345.600 5.372,345.456 0.000,345.210 0.000 C 344.965 0.000,344.778 5.499,344.710 14.749 M78.010 67.588 C 77.992 77.425,78.120 82.400,78.391 82.400 C 78.931 82.400,78.958 53.345,78.418 53.011 C 78.179 52.864,78.027 58.301,78.010 67.588 M321.610 67.627 C 321.595 75.835,321.672 82.461,321.782 82.352 C 322.044 82.090,322.099 53.166,321.838 52.905 C 321.727 52.794,321.625 59.419,321.610 67.627 M344.709 67.600 L 344.600 82.600 333.200 82.809 L 321.800 83.019 333.457 83.109 C 343.772 83.190,345.142 83.127,345.357 82.567 C 345.767 81.499,345.622 53.853,345.203 53.200 C 344.952 52.808,344.780 57.804,344.709 67.600 M376.300 168.500 C 376.355 232.135,376.446 304.900,376.502 330.200 C 376.558 355.500,376.648 303.435,376.700 214.500 C 376.753 125.565,376.662 52.800,376.498 52.800 C 376.334 52.800,376.245 104.865,376.300 168.500 M24.400 214.696 C 24.234 349.118,24.290 376.426,24.733 376.596 C 25.592 376.925,376.000 376.830,376.000 376.500 C 376.000 376.335,296.980 376.246,200.400 376.301 L 24.801 376.403 24.700 214.701 L 24.600 53.000 24.400 214.696 M54.400 68.200 C 54.400 81.711,54.464 83.200,55.043 83.200 C 55.465 83.200,55.602 82.982,55.443 82.567 C 55.309 82.219,55.200 75.469,55.200 67.567 C 55.200 58.256,55.059 53.200,54.800 53.200 C 54.540 53.200,54.400 58.467,54.400 68.200 M121.706 68.100 L 121.637 83.200 132.918 83.195 C 139.123 83.192,144.601 83.082,145.091 82.950 L 145.981 82.712 146.091 67.956 C 146.162 58.312,146.061 53.200,145.800 53.200 C 145.539 53.200,145.438 58.257,145.510 67.790 L 145.619 82.380 144.710 82.602 C 144.209 82.725,138.940 82.774,133.000 82.712 L 122.200 82.600 121.988 67.800 L 121.776 53.000 121.706 68.100 M211.600 67.920 L 211.799 82.600 211.905 68.225 C 211.963 60.319,211.873 53.713,211.705 53.545 C 211.537 53.377,211.490 59.845,211.600 67.920 M254.667 53.467 C 254.520 53.613,254.414 60.408,254.432 68.567 C 254.449 76.725,254.554 83.174,254.666 82.898 C 254.777 82.621,255.033 82.497,255.234 82.621 C 255.453 82.756,255.600 76.881,255.600 68.024 C 255.600 54.491,255.482 52.651,254.667 53.467 M188.981 68.000 C 188.981 76.030,189.034 79.315,189.099 75.300 C 189.165 71.285,189.165 64.715,189.099 60.700 C 189.034 56.685,188.981 59.970,188.981 68.000 M320.981 68.000 C 320.981 76.030,321.034 79.315,321.099 75.300 C 321.165 71.285,321.165 64.715,321.099 60.700 C 321.034 56.685,320.981 59.970,320.981 68.000 M61.300 83.099 C 64.325 83.167,69.275 83.167,72.300 83.099 C 75.325 83.031,72.850 82.975,66.800 82.975 C 60.750 82.975,58.275 83.031,61.300 83.099 M194.900 83.099 C 197.925 83.167,202.875 83.167,205.900 83.099 C 208.925 83.031,206.450 82.975,200.400 82.975 C 194.350 82.975,191.875 83.031,194.900 83.099 M261.300 83.099 C 264.325 83.167,269.275 83.167,272.300 83.099 C 275.325 83.031,272.850 82.975,266.800 82.975 C 260.750 82.975,258.275 83.031,261.300 83.099 M54.400 111.581 C 54.400 111.837,54.561 111.948,54.758 111.826 C 54.955 111.704,55.223 111.883,55.354 112.223 C 55.489 112.576,55.422 112.737,55.197 112.598 C 54.896 112.412,54.344 346.344,54.643 347.109 C 54.666 347.170,54.981 347.105,55.343 346.967 C 55.950 346.733,56.000 337.878,56.000 229.757 L 56.000 112.800 200.000 112.800 C 279.200 112.800,344.135 112.800,344.300 112.800 C 344.864 112.800,344.865 346.839,344.301 347.522 C 343.857 348.059,343.903 348.064,344.700 347.568 L 345.600 347.008 345.600 229.891 C 345.600 126.357,345.531 112.748,345.002 112.546 C 344.674 112.419,344.506 112.152,344.630 111.952 C 344.754 111.751,345.023 111.691,345.228 111.817 C 345.432 111.944,345.600 111.857,345.600 111.624 C 345.600 111.087,344.687 111.073,344.159 111.601 C 343.657 112.103,56.127 111.960,55.100 111.457 C 54.638 111.231,54.400 111.273,54.400 111.581 M77.868 135.368 C 77.736 135.710,77.808 135.948,78.028 135.895 C 78.466 135.790,78.562 157.814,78.126 158.519 C 77.984 158.749,78.075 158.801,78.338 158.638 C 78.669 158.434,78.800 155.242,78.800 147.376 L 78.800 136.400 199.800 136.400 L 320.800 136.400 320.800 147.400 L 320.800 158.400 200.049 158.400 C 93.263 158.400,79.240 158.469,78.801 158.999 C 78.359 159.532,91.930 159.588,200.052 159.499 L 321.800 159.400 321.813 147.800 L 321.825 136.200 321.603 147.400 L 321.381 158.600 321.290 147.500 C 321.241 141.395,321.211 136.265,321.223 136.100 C 321.236 135.935,321.551 135.832,321.923 135.870 C 322.537 135.934,322.540 135.897,321.960 135.470 C 321.472 135.111,292.638 135.047,200.040 135.200 C 133.336 135.310,78.613 135.253,78.433 135.073 C 78.253 134.893,77.999 135.026,77.868 135.368 M78.069 182.116 C 77.748 182.504,77.818 182.646,78.354 182.687 C 78.746 182.716,79.067 182.484,79.067 182.170 C 79.067 181.461,78.633 181.437,78.069 182.116 M131.191 182.167 C 131.134 184.977,131.241 214.157,131.309 214.175 C 131.359 214.189,137.970 214.102,146.000 213.983 L 160.600 213.766 146.167 213.783 C 135.158 213.796,131.733 213.686,131.733 213.318 C 131.733 213.052,131.883 212.928,132.067 213.041 C 132.250 213.155,132.400 206.157,132.400 197.490 C 132.400 183.751,132.323 181.733,131.800 181.733 C 131.470 181.733,131.196 181.928,131.191 182.167 M161.046 182.225 C 160.450 183.778,160.746 213.318,161.364 213.936 C 161.876 214.448,161.950 212.552,161.966 198.560 C 161.983 183.854,161.783 180.303,161.046 182.225 M267.610 197.534 L 267.636 213.400 253.518 213.600 L 239.400 213.801 254.000 214.000 C 262.030 214.110,268.690 214.140,268.800 214.067 C 269.474 213.617,268.974 181.873,268.291 181.772 C 267.623 181.674,267.584 182.570,267.610 197.534 M321.088 182.133 C 320.930 182.536,320.800 189.783,320.800 198.238 L 320.800 213.610 306.581 213.505 L 292.362 213.400 292.293 198.200 L 292.224 183.000 292.007 198.000 L 291.790 213.000 291.590 198.000 L 291.390 183.000 291.295 198.100 C 291.235 207.639,291.343 213.200,291.587 213.200 C 291.801 213.200,291.920 213.425,291.853 213.700 C 291.786 213.975,291.791 214.110,291.865 214.000 C 291.939 213.890,298.615 213.890,306.700 214.000 C 318.118 214.155,321.531 214.088,321.986 213.700 C 322.493 213.267,322.480 213.200,321.886 213.200 C 321.248 213.200,321.207 212.119,321.293 197.900 L 321.386 182.600 321.595 197.800 L 321.805 213.000 322.002 197.738 C 322.111 189.344,322.079 182.551,321.930 182.643 C 321.782 182.735,321.597 182.493,321.518 182.105 C 321.385 181.445,321.358 181.447,321.088 182.133 M184.582 197.600 C 184.582 206.290,184.635 209.845,184.700 205.500 C 184.764 201.155,184.764 194.045,184.700 189.700 C 184.635 185.355,184.582 188.910,184.582 197.600 M214.617 182.372 C 214.491 182.577,214.570 182.858,214.793 182.996 C 215.057 183.159,215.200 188.518,215.200 198.247 C 215.200 209.484,215.084 213.176,214.738 212.962 C 214.449 212.783,214.385 212.852,214.568 213.148 C 214.790 213.507,211.344 213.593,200.068 213.510 C 191.932 213.449,185.362 213.539,185.467 213.709 C 185.572 213.878,192.387 214.005,200.612 213.990 L 215.566 213.964 215.591 197.982 C 215.615 183.185,215.477 180.981,214.617 182.372 M238.653 182.700 C 238.720 182.975,238.597 183.200,238.379 183.200 C 237.875 183.200,237.887 213.483,238.390 213.794 C 238.585 213.915,238.850 213.843,238.978 213.636 C 239.305 213.107,239.460 182.439,239.134 182.641 C 238.988 182.731,238.792 182.669,238.700 182.502 C 238.607 182.336,238.586 182.425,238.653 182.700 M78.495 198.100 C 78.436 207.508,78.254 213.200,78.013 213.200 C 77.799 213.200,77.735 213.485,77.868 213.834 C 78.064 214.344,78.177 214.363,78.450 213.934 C 78.636 213.640,78.791 213.580,78.794 213.800 C 78.798 214.059,84.096 214.200,93.875 214.200 C 102.167 214.200,108.637 214.140,108.254 214.067 C 107.818 213.983,107.678 213.759,107.879 213.467 C 108.055 213.210,108.105 206.250,107.988 198.000 L 107.776 183.000 107.707 198.200 L 107.638 213.400 93.224 213.505 L 78.810 213.610 78.700 198.305 L 78.590 183.000 78.495 198.100 M185.381 198.000 C 185.381 206.250,185.434 209.625,185.499 205.500 C 185.564 201.375,185.564 194.625,185.499 190.500 C 185.434 186.375,185.381 189.750,185.381 198.000 M131.822 236.745 C 131.976 237.044,131.903 237.412,131.660 237.563 C 131.310 237.779,131.005 258.296,131.191 269.124 C 131.196 269.412,131.383 269.534,131.607 269.396 C 131.830 269.258,131.892 268.949,131.745 268.711 C 131.588 268.458,131.662 268.391,131.921 268.551 C 132.165 268.702,132.281 269.045,132.178 269.313 C 132.032 269.691,135.251 269.776,146.625 269.690 C 157.961 269.605,161.223 269.470,161.097 269.090 C 160.973 268.718,157.496 268.575,146.667 268.495 L 132.400 268.390 132.400 253.195 L 132.400 238.000 146.500 237.905 L 160.600 237.811 146.640 237.700 C 133.952 237.600,132.629 237.526,132.111 236.895 C 131.797 236.513,131.667 236.445,131.822 236.745 M161.264 236.700 C 161.298 236.865,161.206 237.271,161.059 237.601 C 160.526 238.795,160.955 268.519,161.508 268.703 C 161.913 268.838,162.011 265.590,161.991 252.636 C 161.976 242.571,161.821 236.400,161.583 236.400 C 161.372 236.400,161.229 236.535,161.264 236.700 M214.507 236.995 C 214.224 237.501,212.029 237.605,199.787 237.695 L 185.400 237.800 185.393 253.000 L 185.386 268.200 185.498 253.100 L 185.610 238.000 200.405 238.000 L 215.200 238.000 215.194 253.100 C 215.190 262.158,215.033 268.440,214.800 268.800 C 214.532 269.214,214.410 269.243,214.406 268.891 C 214.401 268.487,211.347 268.388,199.700 268.410 L 185.000 268.439 184.793 253.119 L 184.586 237.800 184.493 252.926 C 184.432 262.767,184.545 268.323,184.814 268.826 C 185.212 269.570,185.805 269.600,200.000 269.600 C 214.195 269.600,214.788 269.570,215.186 268.826 C 215.749 267.775,215.756 237.744,215.193 237.396 C 214.970 237.258,214.891 236.977,215.017 236.772 C 215.144 236.568,215.156 236.400,215.043 236.400 C 214.931 236.400,214.690 236.668,214.507 236.995 M267.600 236.995 C 267.600 237.508,265.663 237.605,253.500 237.700 L 239.400 237.811 253.500 237.905 L 267.600 238.000 267.600 253.200 L 267.600 268.400 253.405 268.400 L 239.210 268.400 239.105 253.100 C 239.037 243.237,238.858 237.800,238.600 237.800 C 238.340 237.800,238.197 243.273,238.191 253.400 L 238.181 269.000 238.398 253.400 L 238.614 237.800 238.754 253.200 C 238.832 261.670,238.865 268.829,238.828 269.110 C 238.774 269.516,241.718 269.597,253.380 269.510 C 262.927 269.438,268.005 269.539,268.014 269.800 C 268.022 270.020,268.286 269.750,268.600 269.200 C 269.449 267.715,269.475 237.818,268.629 236.971 C 267.898 236.241,267.600 236.248,267.600 236.995 M78.303 248.500 C 78.359 254.935,78.456 262.090,78.518 264.400 C 78.580 266.710,78.668 261.715,78.715 253.300 L 78.800 238.000 93.200 238.000 L 107.600 238.000 107.600 253.195 L 107.600 268.390 93.338 268.495 C 81.021 268.586,79.064 268.682,78.988 269.200 C 78.911 269.726,80.700 269.786,93.424 269.690 L 107.949 269.581 107.986 253.590 L 108.024 237.600 93.112 237.594 C 83.337 237.590,78.407 237.454,78.800 237.200 C 79.333 236.855,79.333 236.812,78.800 236.806 C 78.278 236.800,78.213 238.318,78.303 248.500 M291.306 252.604 L 291.378 268.600 291.594 253.200 L 291.809 237.800 292.010 253.200 L 292.210 268.600 292.305 253.300 L 292.400 238.000 306.600 238.000 L 320.800 238.000 320.800 253.200 L 320.800 268.400 306.676 268.400 C 295.005 268.400,292.418 268.500,291.776 268.976 C 291.096 269.482,292.906 269.557,306.491 269.585 C 320.860 269.615,321.963 269.568,321.723 268.943 C 321.534 268.452,321.608 268.358,321.994 268.596 C 322.322 268.799,322.427 268.768,322.270 268.514 C 322.131 268.289,322.005 261.167,321.991 252.688 C 321.969 239.837,321.871 237.236,321.403 237.056 C 321.072 236.929,320.917 237.038,321.025 237.320 C 321.293 238.018,291.967 237.794,291.535 237.095 C 291.370 236.827,291.267 243.807,291.306 252.604 M321.499 260.900 C 321.435 265.135,321.382 261.670,321.382 253.200 C 321.382 244.730,321.435 241.265,321.499 245.500 C 321.564 249.735,321.564 256.665,321.499 260.900 M78.900 292.598 C 78.518 293.032,78.400 296.824,78.400 308.607 C 78.400 318.799,78.264 323.963,78.000 323.800 C 77.780 323.664,77.600 323.647,77.600 323.762 C 77.600 323.878,77.915 324.141,78.300 324.347 C 78.962 324.701,78.994 323.867,78.887 308.961 L 78.773 293.200 93.187 293.200 L 107.600 293.200 107.600 308.195 L 107.600 323.190 93.300 323.300 L 79.000 323.410 93.500 323.505 L 108.000 323.600 108.000 308.433 C 108.000 300.091,107.891 292.981,107.757 292.633 C 107.410 291.729,79.695 291.696,78.900 292.598 M131.195 292.200 C 130.886 305.193,131.274 324.209,131.855 324.535 C 132.390 324.834,132.477 324.777,132.277 324.256 C 131.877 323.214,160.567 323.255,161.150 324.297 C 161.365 324.680,161.669 324.864,161.827 324.706 C 161.985 324.548,161.863 324.110,161.557 323.733 C 161.163 323.248,161.150 323.137,161.512 323.354 C 161.926 323.603,162.017 320.600,161.986 307.831 L 161.948 292.000 146.574 292.000 C 138.118 292.000,131.198 292.090,131.195 292.200 M184.562 292.462 C 184.386 292.746,184.452 292.815,184.733 292.641 C 185.073 292.432,185.218 296.365,185.295 307.879 L 185.400 323.400 199.800 323.407 L 214.200 323.415 199.900 323.302 L 185.600 323.190 185.600 308.195 L 185.600 293.200 200.000 293.200 C 207.920 293.200,214.535 293.245,214.700 293.300 C 214.865 293.355,215.000 300.358,215.000 308.862 C 215.000 317.366,215.135 324.241,215.300 324.138 C 215.465 324.036,215.600 316.874,215.600 308.223 L 215.600 292.493 214.700 292.252 C 212.918 291.775,184.866 291.970,184.562 292.462 M238.013 308.192 C 238.036 317.780,238.204 324.479,238.425 324.616 C 238.631 324.743,238.800 324.646,238.800 324.400 C 238.800 324.154,239.008 324.081,239.262 324.238 C 239.550 324.416,239.615 324.348,239.435 324.057 C 239.217 323.703,242.633 323.615,253.473 323.695 C 264.677 323.777,267.778 323.909,267.700 324.300 C 267.567 324.967,267.813 324.930,268.571 324.171 C 269.216 323.527,269.558 295.175,268.948 292.900 L 268.707 292.000 253.341 292.000 L 237.976 292.000 238.013 308.192 M291.800 292.231 C 292.060 292.341,292.162 297.908,292.091 308.100 L 291.982 323.800 306.491 323.600 L 321.000 323.400 321.205 308.200 L 321.410 293.000 321.610 308.200 L 321.810 323.400 321.905 308.329 C 321.989 295.077,321.924 293.181,321.371 292.629 C 320.822 292.079,318.904 292.004,306.071 292.032 C 298.002 292.049,291.580 292.139,291.800 292.231 M160.800 308.100 L 160.800 323.200 146.609 323.200 L 132.419 323.200 132.309 308.100 L 132.200 293.000 146.500 293.000 L 160.800 293.000 160.800 308.100 M268.001 293.133 C 267.743 293.219,267.600 298.589,267.600 308.224 L 267.600 323.180 253.166 323.290 C 245.228 323.351,238.658 323.325,238.566 323.233 C 238.475 323.142,238.442 316.302,238.493 308.033 L 238.586 293.000 238.800 308.200 L 239.014 323.400 239.107 308.200 L 239.200 293.000 253.801 293.000 C 261.831 293.000,268.221 293.060,268.001 293.133 M184.581 308.200 C 184.581 316.560,184.634 320.037,184.699 315.926 C 184.764 311.816,184.764 304.976,184.700 300.726 C 184.635 296.477,184.582 299.840,184.581 308.200 M291.381 308.200 C 291.381 316.560,291.434 320.037,291.499 315.926 C 291.564 311.816,291.564 304.976,291.500 300.726 C 291.435 296.477,291.382 299.840,291.381 308.200 M320.800 308.200 L 320.800 323.200 306.600 323.200 L 292.400 323.200 292.400 308.200 L 292.400 293.200 306.600 293.200 L 320.800 293.200 320.800 308.200 M321.051 323.917 C 320.944 324.091,321.203 324.260,321.628 324.292 C 322.052 324.324,322.400 324.181,322.400 323.975 C 322.400 323.520,321.325 323.473,321.051 323.917 " stroke="none" fill="#f0fcfc" fill-rule="evenodd"></path></g></svg>