<svg id="svg" version="1.1" xmlns="http://www.w3.org/2000/svg" xmlns:xlink="http://www.w3.org/1999/xlink" width="400" height="400" viewBox="0, 0, 400,400"><g id="svgg"><path id="path0" d="M188.000 0.600 C 188.000 1.236,187.525 1.392,187.046 0.912 C 186.579 0.445,184.000 0.490,184.000 0.964 C 184.000 1.207,183.160 1.432,182.100 1.472 C 178.588 1.604,177.245 1.996,177.408 2.840 C 177.488 3.258,177.384 3.600,177.177 3.600 C 176.970 3.600,176.800 3.436,176.800 3.235 C 176.800 3.034,176.215 2.901,175.500 2.940 C 174.708 2.983,174.239 3.204,174.300 3.505 C 174.355 3.777,174.209 4.000,173.976 4.000 C 173.743 4.000,173.681 4.208,173.838 4.462 C 174.016 4.750,173.948 4.815,173.655 4.634 C 173.398 4.475,173.291 4.177,173.417 3.972 C 173.544 3.768,173.266 3.600,172.800 3.600 C 172.334 3.600,172.064 3.780,172.200 4.000 C 172.340 4.226,172.013 4.400,171.451 4.400 C 170.805 4.400,170.364 4.682,170.200 5.200 C 170.060 5.640,169.768 6.000,169.549 6.000 C 169.331 6.000,169.263 5.821,169.398 5.603 C 169.541 5.372,169.214 5.241,168.622 5.290 C 168.060 5.336,167.600 5.616,167.600 5.911 C 167.600 6.206,167.440 6.348,167.244 6.227 C 166.810 5.959,162.868 7.510,161.900 8.331 C 161.515 8.657,161.197 8.761,161.194 8.562 C 161.191 8.363,161.037 8.437,160.854 8.727 C 160.670 9.016,160.268 9.313,159.960 9.385 C 158.417 9.750,157.628 10.122,157.801 10.402 C 157.907 10.572,157.360 10.831,156.585 10.976 C 155.811 11.122,155.272 11.392,155.386 11.578 C 155.501 11.763,155.146 12.027,154.597 12.165 C 154.049 12.303,153.600 12.602,153.600 12.831 C 153.600 13.060,153.416 13.133,153.190 12.994 C 152.965 12.855,152.830 12.979,152.890 13.270 C 152.951 13.562,152.730 13.805,152.400 13.811 C 151.526 13.826,150.751 14.396,151.017 14.828 C 151.144 15.032,150.741 15.200,150.121 15.200 C 149.255 15.200,148.873 15.477,148.464 16.400 C 148.080 17.267,147.658 17.600,146.943 17.600 C 146.398 17.600,146.059 17.772,146.189 17.983 C 146.319 18.193,146.735 18.248,147.113 18.105 C 147.727 17.872,147.722 17.923,147.069 18.582 C 146.666 18.988,145.856 19.338,145.269 19.360 C 144.602 19.385,144.242 19.601,144.311 19.934 C 144.373 20.228,144.048 20.567,143.589 20.687 C 143.110 20.812,142.841 21.130,142.957 21.432 C 143.087 21.772,142.947 21.878,142.563 21.731 C 142.235 21.605,141.996 21.659,142.031 21.851 C 142.215 22.858,141.989 23.402,141.626 22.828 C 141.335 22.368,140.983 22.537,139.832 23.688 C 139.044 24.476,138.400 25.054,138.400 24.974 C 138.400 24.894,137.987 25.227,137.483 25.714 C 136.979 26.201,136.574 26.870,136.583 27.200 C 136.592 27.530,136.375 27.755,136.100 27.700 C 135.825 27.645,135.600 27.827,135.600 28.104 C 135.600 28.381,135.233 28.837,134.784 29.117 C 134.315 29.410,134.088 29.833,134.249 30.113 C 134.402 30.381,134.381 30.467,134.201 30.303 C 133.810 29.949,132.797 30.709,132.806 31.349 C 132.809 31.597,132.987 31.530,133.200 31.200 C 133.413 30.870,133.591 30.727,133.594 30.882 C 133.610 31.606,131.714 33.838,131.222 33.674 C 130.854 33.551,130.753 33.701,130.916 34.125 C 131.083 34.561,130.983 34.692,130.596 34.543 C 130.196 34.390,130.079 34.570,130.193 35.163 C 130.296 35.700,130.147 36.000,129.777 36.000 C 129.447 36.000,129.197 36.385,129.194 36.900 C 129.189 37.628,129.114 37.685,128.800 37.200 C 128.506 36.745,128.411 36.730,128.406 37.137 C 128.403 37.432,128.050 38.119,127.622 38.662 C 127.195 39.206,126.944 39.910,127.065 40.226 C 127.186 40.541,127.056 40.800,126.776 40.800 C 126.496 40.800,126.379 40.912,126.516 41.049 C 126.717 41.250,125.272 43.540,124.402 44.400 C 123.343 45.447,121.970 49.513,122.862 48.962 C 123.148 48.785,123.215 48.852,123.038 49.138 C 122.881 49.392,122.493 49.600,122.176 49.600 C 121.794 49.600,121.598 50.038,121.594 50.900 C 121.589 51.886,121.494 52.055,121.200 51.600 C 120.885 51.112,120.811 51.164,120.806 51.876 C 120.803 52.358,120.620 52.864,120.400 53.000 C 120.180 53.136,119.997 53.912,119.994 54.724 C 119.989 55.824,119.889 56.047,119.600 55.600 C 119.306 55.145,119.211 55.314,119.206 56.300 C 119.203 57.015,119.009 57.600,118.775 57.600 C 118.541 57.600,118.382 57.915,118.421 58.300 C 118.605 60.110,118.388 61.400,118.000 60.800 C 117.705 60.343,117.611 60.502,117.606 61.467 C 117.603 62.163,117.825 62.824,118.100 62.935 C 118.417 63.063,118.361 63.148,117.947 63.168 C 117.239 63.203,116.723 64.535,117.069 65.436 C 117.187 65.744,117.445 65.896,117.642 65.774 C 117.839 65.652,118.000 65.658,118.000 65.786 C 118.000 65.915,117.550 66.191,117.000 66.400 C 115.823 66.847,115.538 68.519,116.700 68.157 C 117.367 67.950,117.367 67.961,116.700 68.390 C 115.997 68.842,115.674 70.249,116.372 69.817 C 116.958 69.455,117.344 70.417,116.821 70.935 C 116.464 71.290,116.414 71.210,116.614 70.600 C 116.832 69.930,116.745 69.959,116.078 70.776 C 115.361 71.655,115.290 72.285,115.362 77.064 C 115.423 81.140,115.319 82.422,114.916 82.577 C 114.487 82.742,114.410 88.629,114.495 114.689 L 114.600 146.600 99.000 146.536 C 86.005 146.483,83.249 146.569,82.493 147.050 C 81.739 147.530,81.550 147.536,81.378 147.087 C 81.264 146.789,80.647 146.545,80.006 146.545 C 79.366 146.545,78.934 146.693,79.045 146.873 C 79.156 147.053,78.427 147.200,77.424 147.200 C 76.421 147.200,75.600 147.380,75.600 147.600 C 75.600 147.820,75.319 148.000,74.976 148.000 C 74.633 148.000,74.464 148.180,74.600 148.400 C 74.736 148.620,74.672 148.800,74.457 148.800 C 74.242 148.800,73.985 148.575,73.886 148.300 C 73.741 147.900,73.535 147.900,72.858 148.300 C 72.392 148.575,71.708 148.800,71.339 148.800 C 70.969 148.800,70.784 148.917,70.927 149.060 C 71.070 149.204,70.875 149.558,70.494 149.848 C 69.667 150.476,69.053 150.561,69.400 150.000 C 69.536 149.780,69.451 149.600,69.211 149.600 C 68.971 149.600,68.630 149.991,68.453 150.468 C 68.237 151.053,68.036 151.182,67.838 150.862 C 67.677 150.601,67.374 150.492,67.166 150.621 C 66.957 150.750,66.878 151.002,66.989 151.182 C 67.100 151.362,66.833 151.603,66.395 151.717 C 65.957 151.832,65.700 151.762,65.823 151.563 C 66.179 150.986,65.601 151.142,64.943 151.800 C 64.613 152.130,64.491 152.424,64.671 152.453 C 64.852 152.482,64.370 152.622,63.600 152.765 C 62.830 152.909,62.243 153.238,62.295 153.498 C 62.348 153.758,62.146 153.878,61.848 153.763 C 61.522 153.638,61.193 153.924,61.026 154.477 C 60.860 155.024,60.663 155.198,60.541 154.904 C 60.299 154.319,59.814 154.737,58.686 156.500 C 58.298 157.105,57.761 157.597,57.491 157.594 C 57.176 157.590,57.215 157.449,57.600 157.200 C 58.105 156.874,58.082 156.811,57.453 156.806 C 56.914 156.802,56.762 157.012,56.907 157.565 C 57.045 158.094,56.861 158.395,56.313 158.539 C 55.813 158.669,55.631 158.927,55.822 159.235 C 56.016 159.549,55.957 159.621,55.658 159.436 C 55.050 159.060,53.012 160.670,53.005 161.532 C 53.002 161.919,52.619 162.254,52.094 162.329 C 51.596 162.399,51.291 162.624,51.418 162.829 C 51.544 163.033,51.367 163.200,51.024 163.200 C 50.281 163.200,50.184 164.246,50.900 164.535 C 51.224 164.666,51.176 164.748,50.762 164.768 C 49.730 164.820,47.856 166.647,48.122 167.342 C 48.293 167.786,48.180 167.891,47.720 167.714 C 47.212 167.519,47.122 167.678,47.278 168.498 C 47.426 169.271,47.334 169.473,46.908 169.309 C 46.520 169.160,46.381 169.330,46.470 169.846 C 46.542 170.262,46.389 170.560,46.130 170.510 C 45.830 170.453,45.715 170.849,45.811 171.610 C 45.894 172.265,45.780 172.800,45.557 172.800 C 45.335 172.800,45.264 172.620,45.400 172.400 C 45.536 172.180,45.502 172.008,45.324 172.018 C 44.697 172.054,43.308 175.548,43.746 175.986 C 44.031 176.271,44.003 176.400,43.656 176.400 C 43.379 176.400,43.264 176.580,43.400 176.800 C 43.536 177.020,43.457 177.200,43.224 177.200 C 42.991 177.200,42.800 177.819,42.800 178.576 C 42.800 179.333,42.611 180.069,42.381 180.212 C 42.095 180.389,42.113 180.654,42.437 181.045 C 42.823 181.510,42.789 181.571,42.257 181.366 C 41.895 181.228,41.579 181.269,41.554 181.457 C 41.272 183.580,41.306 184.220,41.717 184.481 C 42.022 184.675,41.861 184.790,41.279 184.794 C 40.398 184.800,40.361 184.922,40.440 187.600 C 40.484 189.140,40.674 190.400,40.861 190.400 C 41.047 190.400,41.197 190.715,41.194 191.100 C 41.189 191.698,41.131 191.713,40.800 191.200 C 40.488 190.717,40.411 190.781,40.406 191.524 C 40.403 192.032,40.568 192.344,40.772 192.217 C 40.977 192.091,41.258 192.170,41.396 192.393 C 41.534 192.617,41.368 192.800,41.027 192.800 C 40.184 192.800,40.056 352.893,40.898 353.934 C 41.296 354.426,41.297 354.492,40.900 354.253 C 40.276 353.878,40.374 359.634,41.000 360.094 C 41.248 360.276,41.210 360.390,40.900 360.394 C 40.625 360.397,40.400 360.771,40.400 361.224 C 40.400 361.677,40.580 361.936,40.800 361.800 C 41.215 361.543,41.336 362.219,41.212 364.100 C 41.172 364.705,41.333 365.200,41.570 365.200 C 41.806 365.200,42.000 365.549,42.000 365.976 C 42.000 366.403,42.172 366.859,42.383 366.989 C 42.593 367.119,42.652 367.519,42.515 367.878 C 42.347 368.315,42.419 368.435,42.732 368.242 C 43.013 368.068,43.200 368.202,43.200 368.576 C 43.200 368.919,43.009 369.200,42.776 369.200 C 42.543 369.200,42.466 369.383,42.604 369.607 C 42.742 369.830,42.987 369.931,43.149 369.832 C 43.310 369.732,43.406 370.179,43.361 370.825 C 43.316 371.471,43.442 372.000,43.640 372.000 C 43.838 372.000,44.000 372.339,44.000 372.754 C 44.000 373.169,44.456 373.807,45.013 374.172 C 45.570 374.537,45.929 374.992,45.810 375.183 C 45.692 375.375,45.766 375.592,45.974 375.666 C 46.182 375.740,46.437 376.250,46.541 376.800 C 46.855 378.472,47.257 379.200,47.866 379.200 C 48.208 379.200,48.328 379.393,48.158 379.668 C 47.966 379.978,48.083 380.054,48.505 379.892 C 48.863 379.754,49.373 379.933,49.671 380.301 C 50.055 380.774,50.063 380.871,49.700 380.653 C 49.425 380.488,49.200 380.543,49.200 380.776 C 49.200 381.009,49.391 381.200,49.624 381.200 C 49.857 381.200,49.936 381.380,49.800 381.600 C 49.664 381.820,49.743 382.000,49.976 382.000 C 50.209 382.000,50.400 382.461,50.400 383.024 C 50.400 383.587,50.535 383.968,50.700 383.871 C 51.274 383.532,52.788 384.366,52.581 384.906 C 52.175 385.963,55.400 388.829,56.150 388.079 C 56.750 387.479,56.800 387.483,56.800 388.138 C 56.800 388.592,56.620 388.744,56.300 388.559 C 56.025 388.401,56.231 388.744,56.758 389.323 C 57.285 389.902,57.870 390.280,58.058 390.164 C 58.246 390.048,58.400 390.214,58.400 390.534 C 58.400 391.234,59.477 391.723,59.815 391.176 C 59.947 390.962,60.234 390.897,60.452 391.032 C 60.680 391.173,60.541 391.510,60.124 391.826 C 59.453 392.335,59.479 392.375,60.477 392.387 C 61.129 392.395,61.802 392.753,62.181 393.294 C 62.746 394.101,62.894 394.134,63.704 393.630 C 64.524 393.119,64.553 393.128,64.051 393.736 C 63.749 394.101,63.569 394.414,63.651 394.431 C 63.733 394.447,64.157 394.528,64.593 394.609 C 65.029 394.690,65.449 394.946,65.526 395.178 C 65.603 395.410,65.932 395.600,66.257 395.600 C 66.623 395.600,66.733 395.410,66.547 395.100 C 66.343 394.760,66.463 394.776,66.923 395.149 C 67.656 395.743,67.851 396.202,67.200 395.800 C 66.980 395.664,66.800 395.743,66.800 395.976 C 66.800 396.570,67.890 396.507,68.135 395.900 C 68.256 395.601,68.350 395.682,68.368 396.100 C 68.386 396.485,68.625 396.813,68.900 396.830 C 70.226 396.909,71.392 397.263,71.638 397.661 C 71.790 397.907,72.138 397.962,72.423 397.786 C 72.793 397.557,72.861 397.663,72.668 398.168 C 72.488 398.636,72.565 398.806,72.900 398.683 C 73.175 398.583,73.351 398.284,73.290 398.020 C 73.230 397.756,73.368 397.656,73.597 397.798 C 73.826 397.939,73.900 398.237,73.763 398.460 C 73.621 398.690,73.834 398.812,74.256 398.743 C 74.665 398.675,75.253 398.778,75.562 398.972 C 75.947 399.213,76.034 399.178,75.838 398.862 C 75.681 398.608,75.743 398.400,75.976 398.400 C 76.209 398.400,76.400 398.670,76.400 399.000 C 76.400 399.350,76.776 399.608,77.300 399.620 C 77.795 399.632,78.988 399.741,79.950 399.863 C 81.357 400.042,81.636 399.980,81.373 399.543 C 81.107 399.100,81.160 399.092,81.665 399.500 C 82.380 400.079,321.399 400.246,321.042 399.667 C 320.932 399.490,321.398 399.426,322.078 399.526 C 323.021 399.665,323.237 399.584,322.991 399.186 C 322.755 398.803,322.859 398.737,323.385 398.939 C 324.211 399.256,325.315 398.510,324.934 397.893 C 324.783 397.649,324.870 397.596,325.145 397.766 C 325.402 397.925,325.509 398.223,325.383 398.428 C 325.256 398.632,325.603 398.800,326.153 398.800 C 326.703 398.800,327.281 398.592,327.438 398.338 C 327.614 398.054,327.548 397.985,327.266 398.159 C 326.971 398.341,326.893 398.223,327.046 397.824 C 327.213 397.389,327.473 397.313,327.926 397.567 C 328.400 397.832,328.824 397.646,329.533 396.863 C 330.074 396.266,330.401 396.087,330.278 396.455 C 330.114 396.946,330.252 397.059,330.830 396.908 C 331.253 396.797,331.600 396.548,331.600 396.353 C 331.600 396.159,331.735 396.024,331.900 396.054 C 332.457 396.153,334.800 395.502,334.800 395.248 C 334.800 395.109,335.341 394.756,336.002 394.463 C 336.664 394.170,337.100 393.762,336.973 393.556 C 336.845 393.349,336.889 393.206,337.070 393.237 C 337.933 393.387,338.824 393.163,338.628 392.845 C 338.508 392.650,338.767 392.397,339.204 392.283 C 339.642 392.169,340.000 391.769,340.000 391.395 C 340.000 390.954,340.212 390.796,340.600 390.945 C 340.930 391.071,341.200 391.020,341.200 390.831 C 341.200 390.642,341.686 390.365,342.279 390.216 C 343.149 389.997,343.246 389.866,342.779 389.538 C 342.328 389.221,342.393 389.173,343.070 389.320 C 343.666 389.450,343.878 389.347,343.743 388.995 C 343.634 388.712,343.741 388.360,343.979 388.213 C 344.218 388.065,344.309 387.777,344.183 387.572 C 344.056 387.368,344.143 387.200,344.376 387.200 C 344.609 387.200,344.800 387.402,344.800 387.649 C 344.800 387.957,344.989 387.941,345.405 387.596 C 345.738 387.319,345.987 386.892,345.958 386.647 C 345.832 385.582,346.046 385.287,346.800 385.484 C 347.404 385.642,347.722 385.405,348.100 384.512 C 348.375 383.862,348.825 383.406,349.100 383.499 C 349.385 383.595,349.600 383.335,349.600 382.894 C 349.600 382.470,350.005 381.914,350.500 381.659 C 351.374 381.209,351.375 381.202,350.534 381.414 C 350.057 381.534,349.570 381.475,349.451 381.283 C 349.245 380.950,349.743 380.812,351.309 380.771 C 351.698 380.760,351.922 380.597,351.805 380.408 C 351.688 380.219,351.886 379.771,352.244 379.413 C 352.602 379.055,352.795 378.662,352.672 378.539 C 352.550 378.416,352.899 377.899,353.449 377.389 C 353.999 376.880,354.393 376.133,354.325 375.731 C 354.253 375.312,354.413 375.043,354.700 375.100 C 354.996 375.159,355.200 374.782,355.200 374.176 C 355.200 373.570,355.369 373.257,355.616 373.410 C 355.888 373.578,355.937 373.290,355.758 372.574 C 355.564 371.801,355.618 371.564,355.942 371.764 C 356.194 371.920,356.427 371.812,356.461 371.524 C 356.494 371.236,356.542 370.799,356.567 370.554 C 356.592 370.309,356.850 369.822,357.140 369.472 C 357.431 369.122,357.553 368.647,357.411 368.418 C 357.269 368.188,357.350 368.000,357.590 368.000 C 357.902 368.000,357.907 367.773,357.608 367.214 C 357.169 366.394,357.877 363.200,358.497 363.200 C 358.664 363.200,358.800 362.945,358.800 362.633 C 358.800 362.322,359.025 361.976,359.300 361.865 C 359.590 361.748,359.496 361.650,359.076 361.632 C 358.678 361.614,358.466 361.417,358.604 361.193 C 358.742 360.970,358.988 360.869,359.150 360.969 C 359.312 361.069,359.460 360.442,359.479 359.575 C 359.499 358.644,359.327 357.997,359.057 357.994 C 358.718 357.989,358.717 357.912,359.053 357.694 C 359.576 357.354,359.564 354.867,359.035 354.038 C 358.788 353.651,358.820 353.565,359.138 353.762 C 359.487 353.977,359.600 334.023,359.600 272.436 C 359.600 194.886,359.565 190.837,358.900 191.066 C 358.330 191.263,358.349 191.188,359.000 190.661 C 359.691 190.103,359.718 189.961,359.200 189.614 C 358.667 189.257,358.667 189.211,359.200 189.200 C 359.733 189.189,359.733 189.145,359.200 188.800 C 358.667 188.455,358.667 188.411,359.200 188.400 C 359.689 188.390,359.700 188.324,359.257 188.044 C 358.879 187.804,358.849 187.617,359.157 187.426 C 359.709 187.085,359.746 184.800,359.200 184.800 C 358.980 184.800,358.800 184.260,358.800 183.600 C 358.800 182.940,358.630 182.400,358.423 182.400 C 358.216 182.400,358.115 182.040,358.200 181.600 C 358.304 181.057,358.136 180.796,357.677 180.788 C 357.045 180.776,357.045 180.749,357.683 180.377 C 358.059 180.158,358.265 179.715,358.141 179.392 C 358.018 179.069,357.727 178.921,357.496 179.064 C 357.250 179.216,357.195 179.131,357.364 178.858 C 357.749 178.236,357.246 176.725,356.755 177.028 C 356.520 177.173,356.470 176.860,356.627 176.234 C 356.829 175.430,356.737 175.200,356.216 175.200 C 355.738 175.200,355.616 174.981,355.789 174.434 C 355.923 174.012,355.845 173.552,355.616 173.410 C 355.387 173.269,355.200 172.881,355.200 172.548 C 355.200 172.215,354.928 171.671,354.596 171.339 C 354.264 171.007,354.119 170.525,354.273 170.268 C 354.427 170.010,354.214 170.070,353.800 170.400 C 353.386 170.730,353.162 170.807,353.303 170.571 C 353.444 170.336,353.316 169.673,353.018 169.100 C 352.720 168.526,352.580 167.954,352.705 167.828 C 352.831 167.703,352.723 167.600,352.467 167.600 C 352.210 167.600,352.000 167.310,352.000 166.955 C 352.000 166.468,351.711 166.352,350.825 166.482 C 349.805 166.631,349.700 166.561,350.026 165.951 C 350.314 165.414,350.192 165.100,349.512 164.624 C 349.023 164.281,348.836 164.000,349.098 164.000 C 349.360 164.000,349.476 163.741,349.354 163.425 C 349.227 163.093,348.866 162.953,348.497 163.095 C 348.025 163.276,347.927 163.167,348.118 162.669 C 348.259 162.301,348.190 162.000,347.964 162.000 C 347.738 162.000,347.675 161.802,347.825 161.560 C 348.022 161.240,347.872 161.240,347.275 161.560 C 346.241 162.113,345.552 162.120,346.500 161.568 C 346.885 161.344,347.200 160.967,347.200 160.731 C 347.200 160.459,346.977 160.487,346.591 160.808 C 346.081 161.230,346.023 161.205,346.234 160.655 C 346.427 160.154,346.183 159.937,345.211 159.742 C 344.313 159.563,344.093 159.387,344.468 159.150 C 344.867 158.896,344.875 158.811,344.500 158.806 C 344.225 158.803,344.000 158.519,344.000 158.176 C 344.000 157.833,343.820 157.664,343.600 157.800 C 343.380 157.936,343.200 157.763,343.200 157.416 C 343.200 156.956,342.921 156.835,342.174 156.970 C 341.506 157.092,341.202 156.994,341.303 156.690 C 341.505 156.086,339.822 154.400,339.018 154.400 C 338.678 154.400,338.400 154.220,338.400 154.000 C 338.400 153.780,338.175 153.645,337.900 153.700 C 337.625 153.755,337.445 153.575,337.500 153.300 C 337.555 153.025,337.465 152.821,337.300 152.847 C 336.048 153.045,335.099 152.699,334.910 151.977 C 334.779 151.477,334.475 151.239,334.132 151.371 C 333.823 151.489,333.467 151.320,333.342 150.993 C 333.217 150.667,332.699 150.400,332.191 150.400 C 331.682 150.400,331.162 150.175,331.033 149.900 C 330.850 149.508,330.748 149.514,330.557 149.928 C 330.378 150.317,330.156 150.229,329.711 149.594 C 329.329 149.049,328.829 148.804,328.353 148.928 C 327.939 149.036,327.600 148.983,327.600 148.809 C 327.600 148.325,326.032 148.024,325.765 148.457 C 325.633 148.669,325.233 148.519,324.864 148.120 C 324.122 147.316,322.000 146.931,322.000 147.601 C 322.000 147.868,321.788 147.836,321.442 147.516 C 321.135 147.232,320.942 146.903,321.013 146.785 C 321.084 146.667,320.435 146.566,319.571 146.560 C 318.707 146.553,318.000 146.706,318.000 146.898 C 318.000 147.090,317.775 147.103,317.500 146.927 C 316.860 146.517,316.261 146.502,298.705 146.446 L 284.009 146.400 283.905 114.651 C 283.821 89.382,283.902 82.941,284.300 83.094 C 284.575 83.199,284.800 82.996,284.800 82.643 C 284.800 82.289,284.575 81.997,284.300 81.994 C 283.975 81.990,283.946 81.885,284.217 81.694 C 284.868 81.235,284.849 79.339,284.187 78.789 C 283.702 78.386,283.684 78.180,284.095 77.685 C 284.614 77.059,284.856 74.318,284.365 74.621 C 284.215 74.714,284.008 74.352,283.905 73.815 C 283.802 73.279,283.827 72.852,283.959 72.867 C 284.680 72.950,284.935 72.746,284.476 72.455 C 284.188 72.273,283.918 71.466,283.876 70.663 C 283.834 69.860,283.663 69.203,283.497 69.202 C 283.330 69.201,283.420 68.835,283.697 68.388 C 284.109 67.722,284.098 67.512,283.634 67.223 C 283.301 67.016,283.089 66.295,283.120 65.473 C 283.152 64.631,282.959 63.993,282.635 63.869 C 282.294 63.738,282.151 63.200,282.245 62.398 C 282.326 61.702,282.177 60.743,281.914 60.266 C 281.651 59.790,281.479 59.118,281.531 58.772 C 281.583 58.427,281.179 57.662,280.632 57.072 C 280.085 56.483,279.765 55.994,279.919 55.987 C 280.074 55.980,279.857 55.715,279.439 55.398 C 278.752 54.879,278.742 54.797,279.339 54.568 C 280.051 54.295,280.260 53.200,279.600 53.200 C 279.380 53.200,279.197 52.705,279.194 52.100 C 279.189 51.243,279.102 51.132,278.800 51.600 C 278.477 52.100,278.404 52.067,278.360 51.400 C 278.331 50.960,278.266 50.420,278.215 50.200 C 278.164 49.980,278.094 49.564,278.061 49.276 C 278.027 48.988,277.852 48.844,277.670 48.957 C 277.489 49.069,277.354 48.765,277.370 48.281 C 277.389 47.735,277.059 47.252,276.500 47.006 C 276.005 46.788,275.600 46.462,275.600 46.282 C 275.600 46.101,275.754 46.048,275.942 46.164 C 276.130 46.281,276.202 45.944,276.101 45.416 C 275.973 44.745,275.730 44.529,275.293 44.696 C 274.868 44.859,274.766 44.779,274.972 44.445 C 275.430 43.705,274.870 42.000,274.169 42.000 C 273.830 42.000,273.664 41.820,273.800 41.600 C 273.936 41.380,273.767 41.200,273.424 41.200 C 273.081 41.200,272.800 41.009,272.800 40.776 C 272.800 40.543,272.978 40.463,273.195 40.597 C 273.422 40.737,273.489 40.577,273.353 40.221 C 273.222 39.879,272.954 39.600,272.757 39.600 C 272.561 39.600,272.400 39.221,272.400 38.757 C 272.400 38.181,272.215 37.986,271.813 38.140 C 271.490 38.264,271.102 38.165,270.951 37.921 C 270.785 37.652,270.859 37.589,271.138 37.762 C 272.062 38.333,271.570 37.246,270.493 36.336 C 269.884 35.821,269.445 35.093,269.518 34.718 C 269.646 34.063,268.391 32.654,267.587 32.550 C 267.374 32.523,266.975 32.472,266.700 32.438 C 266.396 32.400,266.477 32.214,266.906 31.965 C 267.654 31.529,267.022 30.400,266.029 30.400 C 265.793 30.400,265.645 30.182,265.700 29.915 C 265.755 29.648,265.395 29.245,264.900 29.020 C 264.405 28.795,264.000 28.372,264.000 28.082 C 264.000 27.791,263.820 27.664,263.600 27.800 C 263.380 27.936,263.200 27.864,263.200 27.639 C 263.200 27.415,262.821 26.878,262.357 26.446 C 261.894 26.014,261.627 25.480,261.763 25.259 C 261.900 25.038,261.649 24.743,261.206 24.602 C 260.763 24.461,260.400 24.187,260.400 23.992 C 260.400 23.797,259.776 23.341,259.013 22.979 C 258.250 22.617,257.665 22.184,257.713 22.017 C 257.915 21.308,253.920 17.969,253.393 18.406 C 253.015 18.720,252.789 18.706,252.574 18.358 C 252.385 18.053,252.445 17.981,252.738 18.162 C 253.438 18.595,253.290 17.826,252.500 16.924 C 251.315 15.573,250.002 15.030,249.988 15.886 C 249.976 16.564,249.955 16.565,249.566 15.897 C 249.341 15.510,249.256 15.033,249.378 14.836 C 249.707 14.303,247.378 13.582,246.893 14.067 C 246.634 14.326,246.516 14.142,246.550 13.530 C 246.589 12.802,246.366 12.573,245.522 12.476 C 244.871 12.400,244.518 12.158,244.631 11.863 C 244.940 11.059,242.043 9.949,241.036 10.485 C 240.286 10.885,240.256 10.863,240.745 10.270 C 241.215 9.701,241.187 9.571,240.545 9.334 C 240.135 9.182,239.651 8.865,239.470 8.629 C 239.240 8.331,239.077 8.353,238.936 8.700 C 238.825 8.975,238.558 9.200,238.343 9.200 C 238.128 9.200,238.064 9.020,238.200 8.800 C 238.336 8.580,238.122 8.397,237.724 8.394 C 237.105 8.389,237.087 8.328,237.600 7.977 C 238.059 7.662,237.898 7.592,236.917 7.677 C 236.007 7.756,235.393 7.528,234.802 6.894 C 234.302 6.357,233.495 6.000,232.784 6.000 C 232.133 6.000,231.600 5.820,231.600 5.600 C 231.600 5.380,231.240 5.200,230.800 5.200 C 230.360 5.200,230.000 5.020,230.000 4.800 C 230.000 4.580,229.651 4.400,229.224 4.400 C 228.797 4.400,228.326 4.204,228.178 3.965 C 228.031 3.726,227.570 3.619,227.154 3.728 C 226.738 3.837,226.264 3.695,226.099 3.413 C 225.935 3.131,225.170 2.815,224.400 2.711 C 223.630 2.607,222.655 2.374,222.234 2.193 C 221.664 1.948,221.549 1.994,221.783 2.372 C 222.031 2.774,221.917 2.784,221.240 2.421 C 220.769 2.169,220.207 2.072,219.992 2.205 C 219.776 2.338,219.600 2.167,219.600 1.824 C 219.600 1.335,219.128 1.200,217.424 1.200 C 216.227 1.200,215.136 1.020,215.000 0.800 C 214.635 0.210,213.744 0.313,213.029 1.029 C 212.457 1.600,212.400 1.596,212.400 0.982 C 212.400 0.504,212.167 0.368,211.600 0.516 C 211.160 0.631,210.800 0.540,210.800 0.314 C 210.800 0.086,210.498 0.147,210.123 0.451 C 209.663 0.824,209.543 0.840,209.747 0.500 C 209.965 0.137,209.651 -0.000,208.600 -0.000 C 207.804 0.000,207.236 0.135,207.337 0.300 C 207.438 0.465,206.984 0.620,206.327 0.644 C 205.637 0.670,205.340 0.561,205.623 0.386 C 205.893 0.219,204.558 0.078,202.657 0.073 C 200.279 0.066,199.198 0.209,199.194 0.531 C 199.189 0.887,199.116 0.887,198.892 0.535 C 198.525 -0.042,193.526 0.007,193.106 0.591 C 192.919 0.851,192.810 0.818,192.806 0.500 C 192.803 0.225,192.530 0.000,192.200 0.000 C 191.870 0.000,191.600 0.216,191.600 0.480 C 191.600 0.853,191.493 0.853,191.120 0.480 C 190.407 -0.233,188.000 -0.141,188.000 0.600 M196.958 32.068 C 196.788 32.343,196.952 32.356,197.452 32.107 C 197.863 31.902,199.100 31.791,200.200 31.860 C 201.300 31.929,203.325 32.061,204.700 32.154 C 206.153 32.253,207.200 32.162,207.200 31.938 C 207.200 31.726,207.425 31.696,207.700 31.870 C 207.975 32.045,208.335 32.213,208.500 32.244 C 208.665 32.275,208.935 32.343,209.100 32.396 C 209.265 32.449,209.735 32.457,210.144 32.414 C 210.588 32.367,210.780 32.509,210.620 32.767 C 210.473 33.005,210.533 33.200,210.753 33.200 C 210.973 33.200,211.269 33.011,211.412 32.781 C 211.592 32.490,211.825 32.489,212.172 32.777 C 212.448 33.006,212.807 33.060,212.970 32.897 C 213.133 32.733,213.207 32.866,213.133 33.191 C 213.052 33.550,213.352 33.835,213.900 33.918 C 214.395 33.994,214.800 33.863,214.800 33.628 C 214.800 33.393,214.991 33.200,215.224 33.200 C 215.457 33.200,215.558 33.344,215.450 33.519 C 215.019 34.216,215.906 34.976,216.538 34.451 C 217.115 33.972,218.800 34.546,218.800 35.222 C 218.800 35.348,219.430 35.698,220.200 36.000 C 220.970 36.302,221.600 36.696,221.600 36.875 C 221.600 37.054,221.791 37.200,222.024 37.200 C 222.257 37.200,222.355 37.050,222.241 36.867 C 222.128 36.683,222.287 36.533,222.595 36.533 C 222.903 36.533,223.144 36.638,223.130 36.767 C 223.049 37.522,223.264 37.720,223.600 37.200 C 223.937 36.679,223.989 36.687,223.994 37.257 C 223.997 37.619,224.295 38.028,224.657 38.166 C 225.191 38.372,225.224 38.311,224.834 37.841 C 224.437 37.362,224.497 37.300,225.183 37.480 C 225.639 37.599,226.127 37.883,226.268 38.110 C 226.416 38.349,226.329 38.403,226.062 38.238 C 225.808 38.081,225.600 38.124,225.600 38.334 C 225.600 38.728,226.355 39.135,226.928 39.049 C 227.109 39.022,227.435 39.319,227.653 39.708 C 227.871 40.098,228.221 40.311,228.431 40.181 C 228.641 40.051,228.728 39.807,228.624 39.639 C 228.520 39.471,228.703 39.333,229.031 39.333 C 229.409 39.333,229.487 39.473,229.245 39.715 C 228.784 40.176,229.134 41.288,229.642 40.974 C 229.839 40.852,230.000 40.943,230.000 41.176 C 230.000 41.409,230.270 41.600,230.600 41.600 C 230.930 41.600,231.200 41.384,231.200 41.120 C 231.200 40.756,231.320 40.760,231.697 41.137 C 232.092 41.532,232.072 41.710,231.597 42.011 C 231.170 42.280,231.148 42.389,231.518 42.394 C 231.803 42.397,232.454 42.805,232.964 43.300 C 233.474 43.795,234.448 44.650,235.129 45.200 C 235.809 45.750,236.374 46.331,236.383 46.492 C 236.429 47.275,240.895 51.142,241.522 50.941 C 242.067 50.767,242.089 50.804,241.635 51.126 C 240.977 51.594,241.840 52.787,242.644 52.519 C 242.884 52.439,243.332 52.694,243.640 53.087 C 244.150 53.736,244.137 53.751,243.500 53.251 C 242.036 52.103,243.192 54.839,244.880 56.516 C 245.276 56.909,245.600 57.584,245.600 58.016 C 245.600 58.516,245.872 58.800,246.351 58.800 C 246.764 58.800,247.349 59.115,247.651 59.500 C 248.149 60.134,248.134 60.149,247.500 59.651 C 247.001 59.260,246.800 59.238,246.800 59.577 C 246.800 60.419,247.612 61.600,248.190 61.600 C 248.500 61.600,248.867 61.784,249.006 62.010 C 249.145 62.235,249.111 62.394,248.930 62.363 C 248.121 62.222,247.851 62.445,248.400 62.800 C 248.843 63.086,248.862 63.189,248.471 63.194 C 248.069 63.199,248.088 63.346,248.554 63.812 C 248.891 64.148,249.053 64.717,248.915 65.077 C 248.754 65.497,248.822 65.633,249.106 65.458 C 249.387 65.284,249.594 65.661,249.674 66.492 C 249.765 67.441,249.989 67.785,250.489 67.746 C 251.036 67.704,251.098 67.843,250.789 68.420 C 250.147 69.620,250.257 70.748,250.927 69.832 C 251.385 69.206,251.443 69.394,251.367 71.255 C 251.319 72.435,251.433 73.686,251.620 74.036 C 251.807 74.386,252.002 75.466,252.054 76.436 C 252.106 77.406,252.340 78.332,252.574 78.494 C 252.858 78.690,252.833 78.790,252.500 78.794 C 252.225 78.797,252.000 78.991,252.000 79.224 C 252.000 79.457,252.180 79.536,252.400 79.400 C 252.620 79.264,252.800 79.343,252.800 79.576 C 252.800 79.809,252.665 80.000,252.500 80.000 C 252.335 80.000,252.253 94.940,252.319 113.200 L 252.437 146.400 199.419 146.400 L 146.400 146.400 146.400 114.624 C 146.400 93.871,146.539 82.761,146.800 82.600 C 147.020 82.464,147.200 82.003,147.200 81.576 C 147.200 81.149,147.380 80.800,147.600 80.800 C 147.820 80.800,148.000 80.339,148.000 79.776 C 148.000 79.119,147.839 78.852,147.549 79.031 C 147.223 79.233,147.213 79.106,147.512 78.572 C 147.827 78.009,147.768 77.710,147.263 77.316 C 146.647 76.835,146.648 76.815,147.269 77.030 C 148.082 77.312,148.035 76.413,147.182 75.364 C 146.862 74.969,146.816 74.776,147.080 74.934 C 147.367 75.107,147.754 74.860,148.043 74.320 C 148.661 73.166,148.896 71.200,148.417 71.200 C 148.215 71.200,148.076 70.854,148.108 70.430 C 148.153 69.826,148.316 69.741,148.866 70.036 C 149.483 70.366,149.553 70.232,149.450 68.921 C 149.360 67.785,149.559 67.205,150.285 66.479 C 151.088 65.676,151.156 65.427,150.719 64.887 C 150.419 64.517,150.393 64.362,150.657 64.520 C 151.333 64.925,151.784 62.775,151.123 62.300 C 150.731 62.019,150.766 61.977,151.261 62.135 C 152.163 62.421,152.449 62.040,151.985 61.172 C 151.720 60.677,151.744 60.358,152.061 60.162 C 152.337 59.991,152.416 60.051,152.255 60.311 C 152.108 60.549,152.170 60.858,152.393 60.996 C 152.750 61.216,152.865 60.967,152.774 60.170 C 152.759 60.043,153.119 59.617,153.574 59.223 C 154.028 58.829,154.400 58.112,154.400 57.629 C 154.400 57.147,154.580 56.864,154.800 57.000 C 155.152 57.217,155.369 56.668,155.100 56.242 C 155.045 56.155,155.326 55.724,155.724 55.283 C 156.282 54.668,156.328 54.434,155.924 54.273 C 155.573 54.132,155.624 54.053,156.078 54.032 C 156.451 54.014,157.003 53.505,157.305 52.900 C 157.607 52.295,158.040 51.836,158.268 51.881 C 158.496 51.925,158.664 51.475,158.642 50.881 C 158.608 50.003,158.758 49.822,159.439 49.915 C 160.387 50.045,161.726 48.780,160.925 48.510 C 160.596 48.399,160.658 48.133,161.125 47.644 C 161.496 47.255,162.025 47.016,162.300 47.112 C 162.575 47.207,162.800 46.981,162.800 46.609 C 162.800 46.238,163.025 46.009,163.300 46.102 C 163.575 46.196,164.177 45.763,164.639 45.141 C 165.100 44.519,165.581 44.114,165.707 44.240 C 165.833 44.366,166.241 44.004,166.614 43.435 C 166.987 42.866,167.562 42.400,167.893 42.400 C 168.285 42.400,168.425 42.137,168.295 41.643 C 168.132 41.017,168.299 40.900,169.263 40.967 C 169.904 41.012,170.624 40.812,170.863 40.524 C 171.102 40.236,171.546 40.000,171.849 40.000 C 172.152 40.000,172.400 39.809,172.400 39.576 C 172.400 39.343,172.568 39.256,172.772 39.383 C 172.977 39.509,173.258 39.430,173.396 39.207 C 173.534 38.983,174.016 38.800,174.466 38.800 C 175.017 38.800,175.213 38.610,175.063 38.220 C 174.921 37.850,175.033 37.715,175.373 37.845 C 175.666 37.957,176.383 37.607,176.967 37.066 C 177.606 36.474,178.327 36.160,178.780 36.279 C 179.455 36.456,180.653 35.186,180.219 34.753 C 180.135 34.669,180.847 34.633,181.800 34.674 C 182.981 34.724,183.604 34.567,183.752 34.181 C 183.872 33.869,184.218 33.709,184.521 33.825 C 184.824 33.941,185.305 33.756,185.589 33.413 C 185.937 32.994,186.259 32.917,186.574 33.179 C 186.883 33.435,187.397 33.383,188.084 33.026 C 188.747 32.682,189.265 32.625,189.509 32.869 C 189.752 33.112,190.093 33.060,190.446 32.726 C 190.751 32.437,191.450 32.213,192.000 32.229 C 192.550 32.245,193.260 32.065,193.577 31.829 C 194.004 31.511,194.079 31.524,193.867 31.877 C 193.664 32.216,193.991 32.332,194.990 32.277 C 195.846 32.230,196.400 31.994,196.400 31.676 C 196.400 31.388,196.583 31.266,196.807 31.404 C 197.030 31.542,197.098 31.841,196.958 32.068 M276.860 47.800 C 276.860 48.009,276.666 48.245,276.430 48.323 C 276.194 48.402,276.000 48.167,276.000 47.800 C 276.000 47.433,276.194 47.198,276.430 47.277 C 276.666 47.356,276.860 47.591,276.860 47.800 M312.871 178.901 C 313.115 179.286,313.189 179.274,313.194 178.851 C 313.198 178.478,313.360 178.423,313.700 178.678 C 314.710 179.439,316.569 179.291,315.949 178.500 C 315.451 177.866,315.466 177.852,316.100 178.349 C 316.485 178.651,316.800 179.146,316.800 179.449 C 316.800 179.752,316.980 180.000,317.200 180.000 C 317.420 180.000,317.600 179.858,317.600 179.685 C 317.600 179.512,317.960 179.343,318.400 179.310 C 318.946 179.269,319.200 179.496,319.200 180.025 C 319.200 180.895,319.992 181.048,320.720 180.320 C 320.987 180.053,321.200 180.018,321.200 180.240 C 321.200 180.460,321.001 180.839,320.757 181.083 C 320.434 181.406,320.508 181.508,321.034 181.463 C 321.430 181.428,321.960 181.804,322.212 182.298 C 322.465 182.791,322.790 183.076,322.936 182.931 C 323.081 182.786,323.200 182.967,323.200 183.333 C 323.200 183.700,323.458 184.000,323.773 184.000 C 324.297 184.000,325.129 185.629,324.759 185.928 C 324.671 185.999,324.915 186.233,325.300 186.448 C 325.685 186.663,326.000 187.042,326.000 187.288 C 326.000 187.535,326.315 188.097,326.700 188.537 C 327.085 188.977,327.177 189.207,326.905 189.048 C 326.570 188.852,326.486 188.960,326.647 189.379 C 326.778 189.721,327.091 190.003,327.343 190.006 C 327.594 190.009,327.530 190.187,327.200 190.400 C 326.690 190.730,326.687 190.789,327.180 190.794 C 327.625 190.799,327.650 190.910,327.290 191.270 C 326.978 191.582,326.951 191.900,327.211 192.213 C 327.693 192.794,327.769 354.836,327.287 355.172 C 327.108 355.298,326.933 355.847,326.899 356.394 C 326.864 356.941,326.673 357.442,326.475 357.508 C 326.276 357.575,326.184 358.267,326.270 359.046 C 326.356 359.825,326.285 360.378,326.113 360.274 C 325.591 359.958,324.800 361.012,324.800 362.024 C 324.800 362.257,324.620 362.336,324.400 362.200 C 324.180 362.064,324.000 362.263,324.000 362.643 C 324.000 363.023,323.883 363.217,323.740 363.074 C 323.468 362.801,321.601 364.764,321.600 365.324 C 321.600 365.502,321.420 365.536,321.200 365.400 C 320.980 365.264,320.800 365.408,320.800 365.721 C 320.800 366.111,320.487 366.229,319.800 366.098 C 319.092 365.962,318.800 366.082,318.800 366.509 C 318.800 366.840,318.485 367.086,318.100 367.056 C 317.715 367.025,317.431 367.183,317.469 367.408 C 317.510 367.649,316.878 367.752,315.917 367.661 C 314.877 367.561,314.386 367.653,314.548 367.916 C 314.705 368.169,314.473 368.239,313.938 368.100 C 313.463 367.976,313.176 368.037,313.299 368.237 C 313.576 368.684,86.723 368.300,85.000 367.851 C 84.107 367.617,83.953 367.646,84.400 367.963 C 84.730 368.196,84.803 368.391,84.562 368.394 C 84.321 368.397,83.796 368.038,83.396 367.595 C 82.951 367.104,82.265 366.831,81.634 366.895 C 81.019 366.958,80.636 366.812,80.688 366.535 C 80.790 365.998,78.616 365.133,78.170 365.533 C 78.006 365.680,77.975 365.618,78.100 365.396 C 78.338 364.975,77.377 363.400,76.883 363.400 C 76.727 363.400,76.645 363.265,76.700 363.100 C 76.755 362.935,76.558 362.800,76.262 362.800 C 75.966 362.800,75.381 362.409,74.962 361.931 C 74.543 361.453,74.423 361.193,74.695 361.352 C 75.030 361.547,75.114 361.440,74.954 361.023 C 74.823 360.683,74.575 360.492,74.403 360.598 C 73.779 360.984,73.065 359.645,73.570 359.036 C 73.891 358.650,73.906 358.389,73.619 358.212 C 73.389 358.069,73.200 357.445,73.200 356.825 C 73.200 356.205,72.932 355.476,72.604 355.204 C 71.927 354.642,72.206 353.837,72.928 354.270 C 73.252 354.465,73.243 354.360,72.899 353.935 C 72.349 353.256,71.929 193.200,72.477 193.200 C 72.629 193.200,72.684 192.835,72.598 192.389 C 72.512 191.943,72.611 191.683,72.818 191.811 C 73.025 191.939,73.157 191.588,73.111 191.032 C 73.065 190.475,72.796 189.931,72.514 189.822 C 72.231 189.714,72.000 189.417,72.000 189.164 C 72.000 188.833,72.146 188.823,72.513 189.128 C 72.796 189.362,73.201 189.430,73.413 189.277 C 73.987 188.866,74.087 187.701,73.575 187.385 C 73.293 187.210,73.462 186.942,74.033 186.655 C 75.112 186.112,75.660 184.938,74.655 185.324 C 74.295 185.462,74.000 185.486,74.000 185.378 C 74.000 185.269,74.450 185.009,75.000 184.800 C 75.550 184.591,76.000 184.145,76.000 183.810 C 76.000 183.467,76.350 183.200,76.800 183.200 C 77.258 183.200,77.600 182.933,77.600 182.576 C 77.600 182.233,77.780 182.064,78.000 182.200 C 78.220 182.336,78.400 182.257,78.400 182.024 C 78.400 181.791,78.636 181.600,78.925 181.600 C 79.213 181.600,79.836 181.240,80.308 180.800 C 80.780 180.360,81.624 180.000,82.183 180.000 C 82.790 180.000,83.200 179.773,83.200 179.438 C 83.200 179.013,83.591 178.929,84.808 179.092 C 86.072 179.261,86.371 179.189,86.204 178.754 C 85.903 177.971,312.374 178.119,312.871 178.901 M193.477 224.026 C 193.270 224.819,192.400 225.121,192.400 224.400 C 192.400 224.180,191.950 224.000,191.400 224.000 C 190.850 224.000,190.400 224.180,190.400 224.400 C 190.400 224.620,190.040 224.800,189.600 224.800 C 189.160 224.800,188.800 224.980,188.800 225.200 C 188.800 225.420,188.665 225.579,188.500 225.553 C 187.541 225.401,186.711 225.695,186.107 226.400 C 185.730 226.840,185.112 227.200,184.734 227.200 C 184.355 227.200,183.810 227.518,183.523 227.906 C 183.235 228.295,182.495 228.835,181.877 229.108 C 181.260 229.380,180.868 229.787,181.007 230.012 C 181.146 230.236,181.021 230.370,180.730 230.310 C 180.438 230.249,180.238 230.404,180.284 230.653 C 180.331 230.902,180.061 231.082,179.684 231.053 C 179.259 231.020,178.999 231.290,178.998 231.767 C 178.997 232.189,178.772 232.609,178.498 232.701 C 178.224 232.792,178.000 233.141,178.000 233.476 C 178.000 233.834,177.769 233.997,177.439 233.870 C 177.101 233.741,176.795 233.977,176.666 234.468 C 176.549 234.915,176.262 235.162,176.027 235.017 C 175.777 234.862,175.600 235.095,175.600 235.576 C 175.600 236.029,175.420 236.400,175.200 236.400 C 174.980 236.400,174.800 236.681,174.800 237.024 C 174.800 237.367,174.640 237.549,174.445 237.428 C 174.250 237.307,174.098 237.432,174.108 237.704 C 174.151 238.893,173.980 239.713,173.739 239.473 C 173.409 239.143,172.334 241.170,172.606 241.609 C 172.717 241.789,172.562 242.181,172.262 242.481 C 171.962 242.781,171.735 243.696,171.758 244.514 C 171.781 245.331,171.620 246.001,171.400 246.001 C 170.852 246.001,170.645 252.657,171.183 252.990 C 171.412 253.131,171.597 253.462,171.594 253.724 C 171.590 254.010,171.433 253.961,171.200 253.600 C 170.898 253.132,170.811 253.243,170.806 254.100 C 170.803 254.713,171.021 255.203,171.300 255.206 C 171.668 255.211,171.657 255.303,171.257 255.556 C 170.879 255.796,170.849 255.983,171.157 256.174 C 171.401 256.324,171.597 256.662,171.594 256.924 C 171.590 257.210,171.433 257.161,171.200 256.800 C 170.886 256.315,170.811 256.372,170.806 257.100 C 170.803 257.595,171.160 258.360,171.600 258.800 C 172.482 259.682,172.691 260.622,171.900 260.147 C 171.609 259.972,171.650 260.161,172.000 260.600 C 172.350 261.039,172.391 261.228,172.100 261.053 C 171.822 260.886,171.600 260.947,171.600 261.189 C 171.600 261.429,172.005 261.789,172.500 261.988 C 172.995 262.187,173.206 262.361,172.968 262.375 C 172.264 262.416,172.540 264.175,173.300 264.487 C 173.686 264.645,174.000 265.195,174.000 265.712 C 174.000 266.227,174.360 267.036,174.800 267.508 C 175.240 267.980,175.600 268.657,175.600 269.012 C 175.600 269.718,176.337 270.543,177.110 270.700 C 177.379 270.755,177.600 270.590,177.600 270.333 C 177.600 270.077,177.716 269.982,177.857 270.124 C 177.998 270.265,177.923 270.611,177.690 270.891 C 177.188 271.496,177.798 272.499,178.925 272.922 C 179.324 273.072,179.551 273.355,179.430 273.552 C 179.308 273.749,179.522 273.885,179.904 273.855 C 180.292 273.824,180.551 274.036,180.489 274.334 C 180.427 274.628,180.740 274.964,181.184 275.080 C 181.628 275.196,181.922 275.405,181.837 275.545 C 181.753 275.685,181.926 276.023,182.221 276.296 C 182.559 276.608,182.848 276.645,183.002 276.396 C 183.137 276.178,183.057 276.000,182.824 276.000 C 182.591 276.000,182.406 275.685,182.413 275.300 C 182.424 274.658,182.473 274.662,182.997 275.354 C 183.470 275.980,183.571 279.052,183.586 293.354 C 183.605 310.591,183.696 312.395,184.547 312.406 C 184.796 312.409,184.730 312.587,184.400 312.800 C 183.885 313.133,183.897 313.189,184.487 313.194 C 184.949 313.198,185.095 313.408,184.932 313.834 C 184.736 314.344,184.623 314.363,184.350 313.934 C 184.091 313.525,184.011 313.564,184.006 314.100 C 184.003 314.485,184.202 314.800,184.449 314.800 C 184.759 314.800,184.744 314.985,184.400 315.400 C 183.993 315.890,184.017 316.000,184.527 316.000 C 184.871 316.000,185.281 316.208,185.438 316.462 C 185.615 316.748,185.548 316.815,185.262 316.638 C 185.008 316.481,184.800 316.549,184.800 316.789 C 184.800 317.029,185.070 317.329,185.400 317.455 C 185.730 317.582,186.000 317.857,186.000 318.066 C 186.000 318.276,185.775 318.331,185.500 318.189 C 185.225 318.047,185.431 318.281,185.958 318.710 C 186.484 319.139,186.815 319.652,186.693 319.850 C 186.571 320.047,186.725 320.556,187.035 320.981 C 187.346 321.405,187.600 321.539,187.600 321.276 C 187.600 321.014,187.755 320.800,187.945 320.800 C 188.134 320.800,188.198 321.277,188.087 321.859 C 187.946 322.595,188.025 322.832,188.345 322.634 C 188.599 322.477,189.088 322.630,189.432 322.974 C 189.776 323.319,189.909 323.611,189.729 323.625 C 189.548 323.639,189.850 323.830,190.400 324.049 C 190.950 324.269,191.459 324.426,191.530 324.398 C 191.602 324.370,191.991 324.729,192.395 325.194 C 192.890 325.765,193.500 326.002,194.265 325.921 C 195.008 325.842,195.365 325.973,195.300 326.300 C 195.245 326.575,195.524 326.800,195.920 326.800 C 196.316 326.800,196.882 326.575,197.179 326.300 C 197.610 325.900,197.660 325.901,197.432 326.305 C 197.059 326.965,202.332 326.918,203.177 326.254 C 203.619 325.905,203.684 325.916,203.453 326.300 C 203.268 326.608,203.375 326.800,203.731 326.800 C 204.537 326.800,206.737 325.612,206.000 325.574 C 205.602 325.554,205.669 325.431,206.200 325.210 C 206.640 325.026,207.424 324.973,207.943 325.092 C 208.793 325.287,208.842 325.226,208.442 324.478 C 208.113 323.863,208.118 323.575,208.461 323.362 C 208.737 323.191,208.816 323.251,208.655 323.511 C 208.126 324.367,209.337 324.519,210.015 323.681 C 210.392 323.215,210.823 322.956,210.971 323.105 C 211.120 323.254,211.130 323.084,210.994 322.728 C 210.857 322.372,210.938 321.962,211.173 321.817 C 211.408 321.672,211.600 321.752,211.600 321.995 C 211.600 322.238,212.050 321.986,212.600 321.436 C 213.150 320.886,213.600 320.238,213.600 319.995 C 213.600 319.752,213.742 319.640,213.915 319.748 C 214.088 319.855,214.267 319.495,214.312 318.949 C 214.369 318.272,214.236 318.036,213.897 318.209 C 213.624 318.347,213.805 318.103,214.300 317.666 C 214.795 317.229,215.200 316.436,215.200 315.903 C 215.200 315.369,215.317 314.816,215.460 314.673 C 215.603 314.531,215.738 305.998,215.760 295.713 C 215.799 277.575,215.823 277.008,216.572 276.863 C 217.363 276.710,218.124 276.110,218.429 275.400 C 218.523 275.180,218.758 275.053,218.951 275.117 C 219.144 275.181,219.205 274.864,219.087 274.412 C 218.848 273.498,220.144 272.463,220.601 273.202 C 220.957 273.777,222.129 272.513,221.869 271.835 C 221.720 271.447,221.900 271.353,222.492 271.508 C 223.059 271.656,223.234 271.578,223.039 271.263 C 222.864 270.980,223.024 270.800,223.453 270.800 C 224.101 270.800,224.099 270.760,223.416 270.261 C 222.840 269.840,222.793 269.651,223.201 269.399 C 223.546 269.186,223.627 269.233,223.438 269.538 C 223.269 269.812,223.407 270.000,223.776 270.000 C 224.119 270.000,224.369 269.865,224.330 269.700 C 224.218 269.219,225.296 267.200,225.664 267.200 C 225.849 267.200,225.979 267.065,225.953 266.900 C 225.820 266.062,226.033 264.700,226.260 264.927 C 226.680 265.347,227.573 263.891,227.587 262.767 C 227.594 262.198,227.733 261.601,227.895 261.438 C 228.192 261.142,228.228 260.967,228.339 259.276 C 228.380 258.657,228.565 258.449,228.900 258.645 C 229.175 258.806,229.085 258.577,228.700 258.137 C 227.846 257.161,227.816 256.800,228.588 256.800 C 229.292 256.800,229.335 253.974,228.638 253.506 C 228.335 253.303,228.332 253.210,228.629 253.206 C 229.189 253.198,229.363 249.348,228.818 249.011 C 228.588 248.869,228.403 248.538,228.406 248.276 C 228.410 247.960,228.528 247.983,228.758 248.346 C 228.987 248.708,229.112 248.346,229.127 247.274 C 229.146 245.858,229.048 245.675,228.338 245.812 C 227.704 245.934,227.588 245.819,227.809 245.284 C 228.478 243.662,228.449 243.254,227.638 242.820 C 227.177 242.574,226.800 242.188,226.800 241.962 C 226.800 241.737,226.980 241.664,227.200 241.800 C 227.715 242.118,227.708 241.749,227.180 240.763 C 226.949 240.331,226.571 240.094,226.340 240.237 C 226.073 240.402,226.085 240.188,226.374 239.648 C 226.624 239.182,226.686 238.800,226.512 238.800 C 226.338 238.800,225.951 238.248,225.653 237.574 C 225.289 236.753,224.913 236.425,224.511 236.579 C 224.090 236.740,223.982 236.624,224.149 236.189 C 224.286 235.831,224.130 235.471,223.778 235.336 C 223.444 235.208,222.911 234.482,222.593 233.723 C 222.227 232.845,221.845 232.448,221.547 232.633 C 221.267 232.806,221.183 232.751,221.339 232.498 C 221.658 231.982,221.254 230.800,220.758 230.800 C 220.562 230.800,219.734 230.170,218.918 229.400 C 217.585 228.143,217.002 227.801,216.700 228.098 C 216.645 228.153,215.971 227.749,215.201 227.201 C 214.432 226.653,213.559 226.261,213.261 226.329 C 212.962 226.398,212.838 226.263,212.983 226.027 C 213.129 225.792,212.967 225.600,212.624 225.600 C 212.281 225.600,212.000 225.443,212.000 225.250 C 212.000 225.058,211.513 224.900,210.917 224.900 C 210.321 224.900,209.766 224.697,209.683 224.450 C 209.601 224.203,208.818 224.000,207.943 224.000 C 206.902 224.000,206.445 223.850,206.621 223.566 C 206.976 222.991,203.511 223.202,203.106 223.780 C 202.913 224.056,202.810 224.030,202.806 223.704 C 202.794 222.759,193.727 223.072,193.477 224.026 M174.400 240.738 C 174.400 240.898,174.050 241.029,173.622 241.029 C 173.037 241.029,172.949 240.902,173.267 240.519 C 173.681 240.020,174.400 240.160,174.400 240.738 M215.100 302.300 C 215.035 306.865,214.983 303.130,214.983 294.000 C 214.983 284.870,215.035 281.135,215.100 285.700 C 215.164 290.265,215.164 297.735,215.100 302.300 M358.126 365.100 C 357.989 365.485,357.811 365.923,357.732 366.072 C 357.652 366.222,357.750 366.445,357.949 366.568 C 358.148 366.691,358.389 366.254,358.486 365.596 C 358.681 364.266,358.508 364.027,358.126 365.100 " stroke="none" fill="#ecfcfc" fill-rule="evenodd"></path><path id="path1" d="M205.667 0.350 C 205.312 0.575,205.535 0.674,206.327 0.644 C 206.984 0.620,207.438 0.465,207.337 0.300 C 207.095 -0.095,206.332 -0.072,205.667 0.350 M215.062 0.900 C 215.323 1.324,216.800 1.275,216.800 0.842 C 216.800 0.646,216.367 0.511,215.838 0.542 C 215.309 0.574,214.960 0.735,215.062 0.900 M219.600 1.824 C 219.600 2.167,219.776 2.338,219.992 2.205 C 220.207 2.072,220.792 2.163,221.292 2.408 C 222.125 2.817,222.117 2.786,221.200 2.036 C 219.994 1.049,219.600 0.997,219.600 1.824 M176.536 2.578 C 176.681 2.956,176.800 3.341,176.800 3.433 C 176.800 3.525,176.964 3.600,177.165 3.600 C 177.720 3.600,177.404 2.268,176.801 2.067 C 176.442 1.947,176.357 2.111,176.536 2.578 M170.000 4.757 C 170.000 5.027,169.850 5.155,169.667 5.041 C 169.483 4.928,169.333 5.097,169.333 5.418 C 169.333 5.738,169.464 6.000,169.624 6.000 C 170.001 6.000,170.482 4.749,170.209 4.476 C 170.094 4.361,170.000 4.487,170.000 4.757 M235.266 7.479 C 235.499 7.761,235.850 7.893,236.045 7.772 C 236.681 7.379,236.419 6.848,235.620 6.908 C 235.035 6.953,234.946 7.094,235.266 7.479 M158.998 9.256 C 158.119 9.692,157.805 9.965,158.300 9.862 C 158.795 9.759,159.200 9.838,159.200 10.037 C 159.200 10.237,159.575 10.025,160.033 9.567 C 161.184 8.416,160.876 8.323,158.998 9.256 M240.909 9.442 C 241.065 9.598,240.970 9.997,240.697 10.329 C 240.264 10.854,240.315 10.869,241.100 10.451 C 242.181 9.875,242.204 9.764,241.312 9.422 C 240.934 9.276,240.752 9.286,240.909 9.442 M152.700 13.076 C 152.315 13.176,152.000 13.425,152.000 13.629 C 152.000 14.194,152.643 14.072,153.200 13.400 C 153.474 13.070,153.631 12.821,153.549 12.846 C 153.467 12.872,153.085 12.975,152.700 13.076 M246.769 12.886 C 246.483 13.952,246.539 14.361,246.935 14.112 C 247.191 13.951,247.760 13.878,248.200 13.949 C 248.640 14.020,248.910 13.995,248.800 13.893 C 248.473 13.591,246.803 12.762,246.769 12.886 M148.000 16.400 C 148.000 16.620,147.730 16.800,147.400 16.800 C 147.070 16.800,146.800 16.980,146.800 17.200 C 146.800 17.895,147.787 17.633,148.307 16.800 C 148.603 16.326,148.643 16.000,148.403 16.000 C 148.182 16.000,148.000 16.180,148.000 16.400 M253.098 17.911 C 253.267 18.352,253.183 18.437,252.806 18.204 C 252.446 17.981,252.372 18.030,252.574 18.358 C 252.804 18.730,253.022 18.724,253.536 18.333 C 253.901 18.054,254.252 17.798,254.316 17.764 C 254.380 17.730,254.078 17.609,253.646 17.496 C 253.058 17.342,252.920 17.447,253.098 17.911 M145.309 18.374 C 144.598 19.512,145.709 19.753,146.868 18.713 C 147.442 18.197,147.550 17.964,147.149 18.106 C 146.791 18.233,146.336 18.176,146.139 17.979 C 145.927 17.767,145.587 17.929,145.309 18.374 M140.813 22.291 C 140.291 22.880,140.302 22.923,140.913 22.689 C 141.330 22.529,141.602 22.617,141.606 22.913 C 141.610 23.230,141.740 23.198,141.980 22.819 C 142.718 21.652,141.764 21.221,140.813 22.291 M257.849 21.884 C 257.719 22.014,257.925 22.358,258.306 22.648 C 259.094 23.246,259.600 23.343,259.600 22.896 C 259.600 22.455,258.129 21.604,257.849 21.884 M261.692 25.675 C 261.891 26.273,262.800 26.602,262.800 26.076 C 262.800 25.861,262.515 25.576,262.167 25.443 C 261.777 25.293,261.594 25.382,261.692 25.675 M262.806 26.700 C 262.824 27.577,263.588 28.159,263.594 27.300 C 263.597 26.805,263.420 26.400,263.200 26.400 C 262.980 26.400,262.803 26.535,262.806 26.700 M132.406 31.300 C 132.403 31.685,132.051 32.349,131.625 32.775 C 131.130 33.270,131.017 33.606,131.311 33.704 C 131.813 33.871,133.779 31.245,133.420 30.886 C 133.299 30.766,133.197 30.922,133.194 31.233 C 133.189 31.700,133.119 31.694,132.800 31.200 C 132.469 30.687,132.411 30.702,132.406 31.300 M196.400 31.673 C 196.400 32.056,196.925 32.275,198.000 32.338 C 198.880 32.390,199.600 32.270,199.600 32.071 C 199.600 31.873,199.110 31.764,198.510 31.830 C 197.911 31.895,197.191 31.759,196.910 31.526 C 196.537 31.216,196.400 31.255,196.400 31.673 M200.994 32.034 C 200.389 32.270,200.557 32.350,201.700 32.372 C 202.525 32.387,203.200 32.331,203.200 32.247 C 203.200 31.890,201.725 31.748,200.994 32.034 M208.481 32.444 C 208.726 33.180,209.967 33.396,210.542 32.803 C 210.890 32.444,210.808 32.361,210.200 32.455 C 209.760 32.524,209.152 32.424,208.848 32.234 C 208.462 31.993,208.352 32.056,208.481 32.444 M211.374 32.842 C 211.185 33.149,211.245 33.219,211.541 33.036 C 211.801 32.876,212.111 33.025,212.246 33.375 C 212.551 34.170,213.067 34.186,213.067 33.400 C 213.067 33.070,212.978 32.888,212.870 32.997 C 212.762 33.105,212.448 33.006,212.172 32.777 C 211.821 32.485,211.583 32.505,211.374 32.842 M185.604 33.395 C 185.259 33.811,185.242 34.000,185.551 34.000 C 185.798 34.000,186.003 33.775,186.006 33.500 C 186.010 33.166,186.138 33.198,186.389 33.597 C 186.685 34.064,186.858 34.086,187.187 33.700 C 187.418 33.429,187.487 33.294,187.340 33.400 C 187.194 33.506,186.856 33.412,186.590 33.192 C 186.255 32.914,185.951 32.977,185.604 33.395 M183.856 33.878 C 183.405 34.328,183.581 34.800,184.200 34.800 C 184.530 34.800,184.800 34.631,184.800 34.424 C 184.800 33.919,184.175 33.558,183.856 33.878 M216.562 34.462 C 216.384 34.749,216.452 34.815,216.741 34.636 C 216.997 34.479,217.302 34.601,217.420 34.908 C 217.614 35.413,218.800 35.731,218.800 35.277 C 218.800 34.493,216.958 33.821,216.562 34.462 M269.551 34.600 C 269.401 35.157,269.679 35.683,270.468 36.330 C 271.712 37.353,272.057 37.090,270.847 36.041 C 270.434 35.682,270.021 35.031,269.931 34.594 C 269.769 33.805,269.766 33.805,269.551 34.600 M180.133 35.101 C 180.133 35.404,180.578 35.569,181.256 35.517 C 182.841 35.396,182.979 34.600,181.416 34.600 C 180.655 34.600,180.133 34.804,180.133 35.101 M177.206 36.782 C 176.659 37.202,176.344 37.678,176.506 37.839 C 176.668 38.001,176.800 37.923,176.800 37.667 C 176.800 37.410,177.160 37.200,177.600 37.200 C 178.044 37.200,178.400 36.933,178.400 36.600 C 178.400 35.856,178.413 35.854,177.206 36.782 M224.774 37.768 C 225.004 38.046,225.075 38.392,224.930 38.537 C 224.785 38.682,224.877 38.800,225.133 38.800 C 225.390 38.800,225.600 38.609,225.600 38.376 C 225.600 38.143,225.808 38.081,226.062 38.238 C 226.329 38.403,226.416 38.349,226.268 38.110 C 226.127 37.883,225.639 37.599,225.183 37.480 C 224.549 37.314,224.453 37.381,224.774 37.768 M228.505 40.067 C 228.475 40.470,228.649 40.800,228.892 40.800 C 229.135 40.800,229.215 40.682,229.070 40.537 C 228.925 40.392,228.983 40.062,229.197 39.803 C 229.462 39.485,229.422 39.333,229.074 39.333 C 228.791 39.333,228.535 39.663,228.505 40.067 M126.544 40.322 C 126.002 40.670,124.679 43.213,124.916 43.450 C 125.114 43.648,126.609 41.485,126.441 41.245 C 126.381 41.159,126.567 40.944,126.854 40.766 C 127.142 40.589,127.287 40.353,127.177 40.243 C 127.067 40.133,126.782 40.169,126.544 40.322 M272.800 40.800 C 272.800 41.020,273.081 41.200,273.424 41.200 C 273.767 41.200,273.936 41.380,273.800 41.600 C 273.664 41.820,273.743 42.000,273.976 42.000 C 274.466 42.000,274.516 41.575,274.094 41.000 C 273.689 40.449,272.800 40.312,272.800 40.800 M168.306 41.682 C 168.409 42.077,168.672 42.400,168.889 42.400 C 169.107 42.400,169.174 42.110,169.038 41.755 C 168.861 41.294,168.963 41.177,169.395 41.343 C 169.728 41.471,170.000 41.403,170.000 41.192 C 170.000 40.981,169.577 40.844,169.059 40.887 C 168.368 40.944,168.168 41.155,168.306 41.682 M231.044 41.430 C 230.711 42.296,230.868 42.452,231.608 41.995 C 232.037 41.730,232.074 41.514,231.750 41.190 C 231.425 40.865,231.236 40.929,231.044 41.430 M164.661 45.069 C 163.692 46.361,163.958 46.544,165.094 45.367 C 165.586 44.857,165.856 44.360,165.694 44.261 C 165.532 44.163,165.067 44.526,164.661 45.069 M275.867 45.867 C 275.406 46.327,275.575 46.800,276.200 46.800 C 276.530 46.800,276.800 46.530,276.800 46.200 C 276.800 45.575,276.327 45.406,275.867 45.867 M162.800 46.643 C 162.800 46.996,162.575 47.207,162.300 47.112 C 162.025 47.016,161.499 47.253,161.131 47.638 C 160.011 48.810,161.455 48.981,162.622 47.814 C 163.637 46.799,163.892 46.000,163.200 46.000 C 162.980 46.000,162.800 46.289,162.800 46.643 M276.000 47.825 C 276.000 48.540,276.562 48.569,277.131 47.884 C 277.455 47.493,277.369 47.353,276.780 47.308 C 276.341 47.275,276.000 47.501,276.000 47.825 M121.600 49.225 C 121.600 49.680,122.675 49.727,122.949 49.283 C 123.056 49.109,122.797 48.940,122.372 48.908 C 121.948 48.876,121.600 49.019,121.600 49.225 M158.577 50.038 C 158.454 50.237,158.449 50.556,158.567 50.747 C 158.685 50.937,158.425 51.415,157.991 51.809 C 157.556 52.202,157.200 52.772,157.200 53.075 C 157.200 53.378,156.795 53.789,156.300 53.988 C 155.805 54.187,155.653 54.361,155.962 54.375 C 156.404 54.395,156.377 54.562,155.836 55.160 C 155.386 55.658,155.295 56.012,155.574 56.184 C 155.808 56.329,156.000 56.249,156.000 56.007 C 156.000 55.516,157.633 53.074,158.100 52.867 C 158.265 52.793,158.400 52.529,158.400 52.279 C 158.400 52.030,158.853 51.436,159.406 50.961 C 160.371 50.132,160.379 50.088,159.606 49.886 C 159.163 49.770,158.700 49.838,158.577 50.038 M242.217 52.772 C 242.091 52.977,242.170 53.258,242.393 53.396 C 242.617 53.534,242.800 53.435,242.800 53.175 C 242.800 52.840,243.005 52.863,243.500 53.251 C 244.134 53.749,244.149 53.734,243.651 53.100 C 243.040 52.321,242.563 52.212,242.217 52.772 M279.026 54.758 C 278.904 54.955,279.085 55.224,279.428 55.355 C 279.770 55.487,279.950 55.757,279.828 55.955 C 279.705 56.154,279.874 56.419,280.202 56.546 C 280.938 56.828,280.960 56.045,280.243 55.100 C 279.648 54.316,279.351 54.232,279.026 54.758 M244.687 56.968 C 245.469 58.014,245.752 58.063,245.378 57.088 C 245.246 56.744,244.876 56.361,244.556 56.239 C 244.118 56.070,244.150 56.251,244.687 56.968 M246.446 59.700 C 246.483 60.410,246.532 60.448,246.680 59.879 C 246.838 59.268,246.969 59.237,247.533 59.679 C 248.130 60.145,248.143 60.127,247.651 59.500 C 246.897 58.539,246.391 58.623,246.446 59.700 M151.836 60.341 C 151.720 60.529,151.884 61.024,152.200 61.441 C 152.516 61.858,152.780 61.986,152.787 61.724 C 152.794 61.462,152.617 61.134,152.393 60.996 C 152.170 60.858,152.091 60.577,152.217 60.372 C 152.344 60.168,152.357 60.000,152.247 60.000 C 152.137 60.000,151.952 60.153,151.836 60.341 M247.200 61.637 C 247.200 61.837,247.335 62.014,247.500 62.031 C 247.665 62.047,248.116 62.122,248.502 62.195 C 248.888 62.269,249.116 62.187,249.008 62.013 C 248.713 61.536,247.200 61.222,247.200 61.637 M116.846 63.700 C 116.879 64.338,116.945 64.403,117.071 63.925 C 117.169 63.553,117.553 63.169,117.925 63.071 C 118.403 62.945,118.338 62.879,117.700 62.846 C 117.007 62.811,116.811 63.007,116.846 63.700 M282.278 63.056 C 281.958 63.375,282.319 64.000,282.824 64.000 C 283.031 64.000,283.200 63.730,283.200 63.400 C 283.200 62.781,282.728 62.605,282.278 63.056 M116.500 65.823 C 116.225 66.122,116.000 66.447,116.000 66.546 C 116.000 66.874,117.609 66.310,117.868 65.890 C 118.009 65.662,117.931 65.595,117.696 65.741 C 117.461 65.886,117.208 65.842,117.134 65.642 C 117.060 65.442,116.775 65.523,116.500 65.823 M149.613 67.176 C 149.337 67.692,149.332 68.034,149.599 68.199 C 150.053 68.480,150.032 68.512,150.166 67.300 C 150.289 66.197,150.153 66.166,149.613 67.176 M249.600 68.043 C 249.600 68.560,250.735 68.747,250.921 68.260 C 251.028 67.982,250.785 67.771,250.355 67.771 C 249.940 67.771,249.600 67.894,249.600 68.043 M250.775 70.046 C 250.423 70.705,250.434 70.855,250.826 70.725 C 251.103 70.632,251.375 70.251,251.430 69.878 C 251.564 68.962,251.322 69.025,250.775 70.046 M148.108 70.430 C 148.044 71.272,148.306 71.374,149.154 70.837 C 149.603 70.553,149.561 70.407,148.937 70.073 C 148.304 69.734,148.155 69.798,148.108 70.430 M283.916 73.873 C 284.176 75.232,284.620 75.324,284.718 74.039 C 284.771 73.342,284.605 72.933,284.269 72.933 C 283.926 72.933,283.800 73.267,283.916 73.873 M147.111 75.367 C 147.263 75.605,147.391 75.920,147.394 76.067 C 147.411 76.819,147.839 76.635,147.904 75.848 C 147.951 75.286,147.759 74.933,147.408 74.933 C 147.093 74.933,146.960 75.128,147.111 75.367 M114.880 81.680 C 114.239 82.321,114.270 82.825,114.933 82.570 C 115.227 82.458,115.467 82.103,115.467 81.783 C 115.467 81.080,115.478 81.082,114.880 81.680 M146.667 82.667 C 146.216 83.117,146.349 146.400,146.800 146.400 C 147.063 146.400,147.200 135.467,147.200 114.400 C 147.200 96.800,147.140 82.400,147.067 82.400 C 146.993 82.400,146.813 82.520,146.667 82.667 M283.905 114.651 C 283.973 135.225,284.149 146.400,284.405 146.400 C 285.043 146.400,284.939 83.339,284.300 83.094 C 283.902 82.941,283.821 89.382,283.905 114.651 M252.191 114.800 C 252.191 132.290,252.240 139.445,252.300 130.700 C 252.360 121.955,252.360 107.645,252.300 98.900 C 252.240 90.155,252.191 97.310,252.191 114.800 M81.206 146.676 C 81.196 147.451,81.755 147.568,82.581 146.965 C 83.254 146.472,83.267 146.400,82.676 146.400 C 82.304 146.400,81.997 146.625,81.994 146.900 C 81.990 147.233,81.858 147.200,81.600 146.800 C 81.367 146.439,81.210 146.390,81.206 146.676 M69.693 149.600 C 69.123 150.512,69.475 150.621,70.494 149.848 C 70.875 149.558,71.070 149.204,70.927 149.060 C 70.500 148.634,70.220 148.756,69.693 149.600 M58.800 155.533 C 58.800 155.790,58.511 156.000,58.157 156.000 C 57.763 156.000,57.600 156.222,57.735 156.574 C 57.856 156.890,57.740 157.236,57.478 157.343 C 57.117 157.489,57.120 157.545,57.491 157.568 C 58.079 157.606,59.417 155.683,59.054 155.321 C 58.914 155.181,58.800 155.277,58.800 155.533 M341.467 156.267 C 341.020 156.713,341.167 157.067,341.800 157.067 C 342.130 157.067,342.400 156.827,342.400 156.533 C 342.400 155.966,341.908 155.825,341.467 156.267 M55.999 157.900 C 55.998 158.065,55.459 158.560,54.800 159.000 C 54.141 159.440,53.602 159.957,53.601 160.149 C 53.601 160.341,53.842 160.297,54.137 160.052 C 54.432 159.807,54.821 159.740,55.001 159.903 C 55.181 160.067,55.180 159.944,54.999 159.632 C 54.751 159.205,54.839 159.130,55.355 159.327 C 55.787 159.493,55.945 159.434,55.781 159.168 C 55.637 158.936,55.896 158.648,56.355 158.528 C 56.815 158.407,57.092 158.150,56.972 157.955 C 56.705 157.523,56.000 157.484,55.999 157.900 M344.345 158.758 C 344.806 159.049,344.806 159.137,344.345 159.320 C 343.951 159.477,343.985 159.546,344.467 159.568 C 344.834 159.586,345.464 159.718,345.867 159.863 C 346.329 160.028,346.207 159.806,345.537 159.263 C 344.952 158.788,344.322 158.403,344.137 158.406 C 343.952 158.409,344.045 158.568,344.345 158.758 M52.400 161.571 C 52.400 161.775,52.085 162.033,51.700 162.145 C 51.279 162.267,51.386 162.318,51.969 162.274 C 52.904 162.203,53.712 161.200,52.833 161.200 C 52.595 161.200,52.400 161.367,52.400 161.571 M49.600 164.563 C 49.600 164.936,49.881 165.052,50.434 164.907 C 51.068 164.741,51.140 164.608,50.734 164.351 C 49.956 163.858,49.600 163.925,49.600 164.563 M349.078 164.257 C 349.340 164.364,349.505 164.665,349.443 164.926 C 349.382 165.187,349.407 165.264,349.500 165.098 C 349.592 164.931,349.833 164.897,350.035 165.022 C 350.257 165.159,350.253 165.527,350.026 165.951 C 349.696 166.567,349.807 166.631,350.924 166.467 C 352.018 166.307,352.085 166.236,351.399 165.968 C 350.960 165.797,350.733 165.644,350.896 165.628 C 351.473 165.573,349.813 164.000,349.211 164.032 C 348.834 164.051,348.783 164.138,349.078 164.257 M353.017 169.098 C 353.315 169.673,353.486 170.261,353.397 170.405 C 353.308 170.549,353.503 170.667,353.831 170.667 C 354.241 170.667,354.298 170.538,354.013 170.253 C 353.786 170.026,353.600 169.535,353.600 169.163 C 353.600 168.790,353.347 168.389,353.038 168.270 C 352.559 168.086,352.556 168.209,353.017 169.098 M43.384 175.051 C 43.485 175.189,43.279 175.860,42.926 176.543 C 42.573 177.227,42.298 178.281,42.315 178.886 C 42.332 179.491,42.178 180.090,41.973 180.217 C 41.401 180.570,41.528 181.087,42.257 181.366 C 42.789 181.571,42.823 181.510,42.437 181.045 C 42.113 180.654,42.095 180.389,42.381 180.212 C 42.611 180.069,42.800 179.333,42.800 178.576 C 42.800 177.819,42.991 177.200,43.224 177.200 C 43.457 177.200,43.536 177.020,43.400 176.800 C 43.264 176.580,43.327 176.400,43.541 176.400 C 43.968 176.400,43.921 175.348,43.478 175.012 C 43.325 174.895,43.283 174.913,43.384 175.051 M86.106 178.517 C 86.276 179.028,87.525 179.245,87.794 178.810 C 87.902 178.635,87.536 178.404,86.979 178.298 C 86.386 178.185,86.025 178.275,86.106 178.517 M317.600 179.514 C 317.600 179.747,318.723 180.800,318.971 180.800 C 319.097 180.800,319.200 180.451,319.200 180.025 C 319.200 179.496,318.946 179.269,318.400 179.310 C 317.960 179.343,317.600 179.435,317.600 179.514 M320.480 180.480 C 320.216 180.744,320.000 181.134,320.000 181.347 C 320.000 181.559,320.121 181.613,320.268 181.465 C 320.416 181.318,321.001 181.479,321.568 181.822 C 322.585 182.438,322.588 182.437,321.769 181.716 C 321.312 181.313,321.012 180.763,321.103 180.492 C 321.310 179.870,321.094 179.866,320.480 180.480 M74.102 186.575 C 73.609 186.848,73.324 187.190,73.469 187.336 C 73.930 187.797,74.359 187.624,74.800 186.800 C 75.035 186.360,75.177 186.018,75.114 186.039 C 75.051 186.061,74.596 186.302,74.102 186.575 M326.000 188.527 C 326.000 189.274,326.652 189.762,326.968 189.252 C 327.091 189.053,326.923 188.668,326.596 188.396 C 326.111 187.994,326.000 188.019,326.000 188.527 M72.000 189.127 C 72.000 189.791,72.829 190.139,73.238 189.648 C 73.441 189.405,73.487 189.294,73.340 189.400 C 73.194 189.506,72.832 189.393,72.537 189.148 C 72.170 188.843,72.000 188.837,72.000 189.127 M72.586 192.329 C 72.679 192.808,72.584 193.200,72.377 193.200 C 72.170 193.200,72.000 193.380,72.000 193.600 C 72.000 193.820,72.168 194.000,72.373 194.000 C 72.959 194.000,73.327 192.367,72.849 191.889 C 72.542 191.582,72.467 191.708,72.586 192.329 M326.806 192.414 C 326.816 193.402,327.451 194.164,327.797 193.604 C 327.961 193.339,327.804 192.833,327.447 192.476 C 326.908 191.936,326.801 191.926,326.806 192.414 M192.633 223.857 C 192.495 224.219,192.463 224.597,192.564 224.697 C 192.882 225.015,193.600 224.377,193.600 223.776 C 193.600 222.992,192.944 223.047,192.633 223.857 M185.400 226.400 C 185.536 226.620,185.364 226.800,185.018 226.800 C 184.047 226.800,181.600 228.346,181.600 228.959 C 181.600 229.349,182.992 228.673,183.325 228.122 C 183.503 227.826,183.846 227.705,184.086 227.853 C 184.338 228.009,184.410 227.940,184.256 227.690 C 184.101 227.439,184.356 227.203,184.863 227.129 C 185.765 226.996,186.424 226.000,185.610 226.000 C 185.358 226.000,185.264 226.180,185.400 226.400 M214.984 226.997 C 215.636 227.529,216.263 227.870,216.378 227.755 C 216.632 227.501,214.764 226.016,214.200 226.023 C 213.980 226.026,214.333 226.464,214.984 226.997 M178.770 231.231 C 177.682 232.348,176.894 233.428,177.019 233.631 C 177.369 234.197,178.000 234.069,178.000 233.433 C 178.000 233.122,178.224 232.792,178.498 232.701 C 178.772 232.609,178.997 232.189,178.998 231.767 C 178.999 231.290,179.259 231.020,179.684 231.053 C 180.061 231.082,180.331 230.902,180.284 230.653 C 180.238 230.404,180.395 230.235,180.633 230.278 C 180.872 230.321,181.067 230.096,181.067 229.778 C 181.067 228.926,180.932 229.011,178.770 231.231 M221.371 231.944 C 221.371 232.382,221.517 232.652,221.694 232.542 C 221.872 232.432,222.276 232.964,222.593 233.723 C 222.911 234.482,223.444 235.208,223.778 235.336 C 224.130 235.471,224.286 235.831,224.149 236.189 C 223.975 236.642,224.089 236.741,224.570 236.556 C 225.290 236.280,224.932 235.480,223.187 233.469 C 222.772 232.991,222.194 232.273,221.902 231.873 C 221.396 231.179,221.371 231.183,221.371 231.944 M173.400 240.400 C 173.260 240.627,172.932 240.691,172.672 240.542 C 172.413 240.394,172.339 240.424,172.508 240.611 C 172.905 241.047,174.400 241.163,174.400 240.757 C 174.400 240.227,173.668 239.966,173.400 240.400 M226.800 241.986 C 226.800 242.198,227.205 242.584,227.700 242.844 C 228.595 243.314,228.596 243.312,227.838 242.458 C 226.991 241.505,226.800 241.418,226.800 241.986 M227.847 245.023 C 227.507 245.907,227.521 245.941,228.188 245.843 C 229.106 245.708,229.271 245.357,228.656 244.847 C 228.216 244.481,228.040 244.519,227.847 245.023 M171.010 245.184 C 170.671 245.733,170.971 246.145,171.562 245.942 C 171.804 245.858,171.835 245.576,171.637 245.257 C 171.387 244.855,171.225 244.836,171.010 245.184 M228.000 257.176 C 228.000 257.383,228.163 257.654,228.362 257.777 C 228.562 257.900,228.631 258.361,228.516 258.800 C 228.401 259.240,228.479 259.600,228.689 259.600 C 228.899 259.600,229.094 258.970,229.123 258.200 C 229.160 257.211,229.003 256.800,228.588 256.800 C 228.265 256.800,228.000 256.969,228.000 257.176 M170.800 258.957 C 170.800 259.264,171.081 259.622,171.425 259.754 C 171.769 259.886,171.946 260.163,171.819 260.370 C 171.691 260.576,171.754 260.848,171.958 260.974 C 172.375 261.232,172.281 259.578,171.838 258.862 C 171.443 258.223,170.800 258.282,170.800 258.957 M177.600 270.357 C 177.600 270.627,177.420 270.736,177.200 270.600 C 176.980 270.464,176.800 270.672,176.800 271.062 C 176.800 271.728,176.841 271.730,177.476 271.095 C 177.848 270.723,178.028 270.295,177.876 270.143 C 177.724 269.991,177.600 270.087,177.600 270.357 M179.465 274.000 C 180.781 275.394,180.756 275.381,180.641 274.600 C 180.593 274.270,180.204 273.736,179.777 273.413 C 178.452 272.411,178.277 272.741,179.465 274.000 M219.486 273.299 C 219.013 273.652,218.926 273.977,219.193 274.400 C 219.524 274.925,219.658 274.913,220.268 274.303 C 221.165 273.406,220.494 272.545,219.486 273.299 M182.400 275.400 C 182.400 275.730,182.591 276.000,182.824 276.000 C 183.057 276.000,183.119 276.208,182.962 276.462 C 182.785 276.748,182.852 276.815,183.139 276.638 C 183.470 276.433,183.483 276.130,183.187 275.576 C 182.690 274.647,182.400 274.582,182.400 275.400 M215.867 277.067 C 215.720 277.213,215.641 284.908,215.691 294.167 L 215.783 311.000 215.991 294.000 C 216.222 275.225,216.233 276.701,215.867 277.067 M183.383 293.800 C 183.383 303.040,183.436 306.763,183.500 302.073 C 183.564 297.383,183.564 289.823,183.499 285.273 C 183.435 280.723,183.383 284.560,183.383 293.800 M214.983 294.000 C 214.983 303.130,215.035 306.865,215.100 302.300 C 215.164 297.735,215.164 290.265,215.100 285.700 C 215.035 281.135,214.983 284.870,214.983 294.000 M184.800 317.746 C 184.800 318.032,185.070 318.267,185.400 318.267 C 185.730 318.267,186.000 318.136,186.000 317.976 C 186.000 317.816,185.730 317.582,185.400 317.455 C 185.056 317.323,184.800 317.447,184.800 317.746 M214.069 317.716 C 213.748 318.104,213.818 318.246,214.354 318.287 C 214.746 318.316,215.067 318.084,215.067 317.770 C 215.067 317.061,214.633 317.037,214.069 317.716 M185.600 319.367 C 185.600 319.715,185.885 320.000,186.233 320.000 C 186.582 320.000,186.795 319.786,186.708 319.525 C 186.461 318.783,185.600 318.660,185.600 319.367 M210.636 322.731 C 210.078 323.810,210.072 323.947,210.593 323.747 C 210.924 323.620,211.104 323.369,210.993 323.188 C 210.881 323.008,211.058 322.802,211.385 322.730 C 211.785 322.643,211.865 322.418,211.630 322.042 C 211.361 321.612,211.132 321.772,210.636 322.731 M188.500 322.900 C 188.591 323.175,188.999 323.464,189.405 323.543 C 190.083 323.675,190.091 323.634,189.500 323.043 C 188.732 322.275,188.270 322.208,188.500 322.900 M208.294 323.439 C 207.872 323.861,208.463 324.800,209.143 324.788 C 209.721 324.777,209.715 324.726,209.092 324.363 C 208.702 324.136,208.488 323.782,208.615 323.575 C 208.874 323.157,208.665 323.068,208.294 323.439 M190.400 324.308 C 190.400 324.532,190.685 324.824,191.033 324.957 C 191.903 325.291,192.000 325.268,192.000 324.733 C 192.000 324.477,191.882 324.385,191.737 324.530 C 191.592 324.675,191.232 324.593,190.937 324.348 C 190.599 324.067,190.400 324.053,190.400 324.308 M206.229 325.158 C 205.512 325.439,205.507 325.479,206.165 325.731 C 206.936 326.027,207.600 325.770,207.600 325.176 C 207.600 324.741,207.303 324.737,206.229 325.158 M194.400 326.200 C 194.400 326.567,194.594 326.802,194.830 326.723 C 195.067 326.645,195.260 326.409,195.260 326.200 C 195.260 325.991,195.067 325.755,194.830 325.677 C 194.594 325.598,194.400 325.833,194.400 326.200 M72.177 353.795 C 72.206 354.342,72.459 355.017,72.740 355.295 C 73.152 355.703,73.213 355.570,73.058 354.600 C 72.952 353.940,72.851 353.265,72.833 353.100 C 72.744 352.285,72.131 352.934,72.177 353.795 M327.353 353.421 C 327.489 353.777,327.422 353.937,327.195 353.797 C 326.978 353.663,326.800 353.923,326.800 354.376 C 326.800 355.349,327.410 355.471,327.757 354.567 C 328.134 353.586,328.045 352.800,327.557 352.800 C 327.314 352.800,327.222 353.079,327.353 353.421 M73.423 359.163 C 73.054 359.760,73.947 360.880,74.513 360.530 C 74.772 360.370,74.842 360.513,74.695 360.897 C 74.556 361.258,74.782 361.822,75.227 362.224 C 75.652 362.609,76.000 362.735,76.000 362.505 C 76.000 362.274,75.733 361.983,75.407 361.858 C 75.080 361.733,74.897 361.398,75.000 361.115 C 75.267 360.376,73.797 358.557,73.423 359.163 M325.293 360.000 C 324.997 360.474,324.957 360.800,325.197 360.800 C 325.418 360.800,325.600 360.609,325.600 360.376 C 325.600 360.143,325.780 360.064,326.000 360.200 C 326.220 360.336,326.400 360.167,326.400 359.824 C 326.400 358.962,325.890 359.043,325.293 360.000 M357.702 364.779 C 357.211 366.351,357.362 367.600,358.043 367.600 C 358.508 367.600,358.504 366.912,358.038 366.623 C 357.838 366.500,357.769 366.041,357.883 365.604 C 357.997 365.167,358.212 364.884,358.361 364.976 C 358.509 365.067,358.666 364.705,358.711 364.171 C 358.835 362.670,358.250 363.023,357.702 364.779 M80.678 366.256 C 80.358 366.575,80.719 367.200,81.224 367.200 C 81.431 367.200,81.600 366.930,81.600 366.600 C 81.600 365.981,81.128 365.805,80.678 366.256 M42.000 367.344 C 42.000 368.232,42.440 369.200,42.843 369.200 C 43.039 369.200,43.200 368.919,43.200 368.576 C 43.200 368.202,43.013 368.068,42.732 368.242 C 42.419 368.435,42.347 368.315,42.515 367.878 C 42.652 367.519,42.593 367.119,42.383 366.989 C 42.172 366.859,42.000 367.019,42.000 367.344 M86.000 368.000 C 86.790 368.511,88.116 368.511,87.800 368.000 C 87.664 367.780,87.068 367.603,86.476 367.606 C 85.634 367.611,85.531 367.697,86.000 368.000 M312.228 367.955 C 312.108 368.150,312.367 368.403,312.805 368.517 C 313.306 368.648,313.503 368.567,313.338 368.300 C 313.169 368.027,313.385 367.955,313.938 368.100 C 314.413 368.224,314.700 368.162,314.577 367.963 C 314.289 367.496,312.515 367.490,312.228 367.955 M357.059 369.113 C 357.133 369.230,356.993 369.568,356.748 369.863 C 356.443 370.230,356.437 370.400,356.727 370.400 C 357.351 370.400,357.752 369.581,357.308 369.215 C 357.097 369.042,356.985 368.996,357.059 369.113 M356.400 371.557 C 356.400 371.827,356.220 371.936,356.000 371.800 C 355.780 371.664,355.600 371.872,355.600 372.262 C 355.600 372.928,355.641 372.930,356.276 372.295 C 356.648 371.923,356.828 371.495,356.676 371.343 C 356.524 371.191,356.400 371.287,356.400 371.557 M45.600 376.157 C 45.600 376.464,45.850 376.810,46.155 376.927 C 46.544 377.077,46.649 376.910,46.508 376.370 C 46.276 375.484,45.600 375.326,45.600 376.157 M48.435 379.970 C 47.730 380.416,48.896 381.790,49.704 381.464 C 50.096 381.305,50.096 381.257,49.700 381.232 C 49.425 381.214,49.200 381.009,49.200 380.776 C 49.200 380.543,49.425 380.488,49.700 380.653 C 50.040 380.857,50.024 380.737,49.651 380.277 C 49.349 379.905,49.079 379.603,49.051 379.606 C 49.023 379.609,48.746 379.773,48.435 379.970 M350.419 380.780 C 350.100 380.982,349.650 381.043,349.419 380.915 C 349.152 380.767,349.157 380.854,349.433 381.154 C 349.892 381.655,351.200 381.361,351.200 380.757 C 351.200 380.318,351.146 380.320,350.419 380.780 M348.277 384.028 C 348.037 384.943,348.253 385.005,349.018 384.239 C 349.492 383.765,349.494 383.645,349.029 383.467 C 348.708 383.343,348.395 383.576,348.277 384.028 M50.800 383.752 C 50.800 383.821,51.160 384.293,51.600 384.800 C 52.040 385.307,52.400 385.515,52.400 385.261 C 52.400 385.008,52.413 384.674,52.430 384.520 C 52.446 384.366,52.086 384.101,51.630 383.933 C 51.173 383.764,50.800 383.682,50.800 383.752 M345.870 385.762 C 345.762 386.043,345.854 386.526,346.075 386.836 C 346.385 387.273,346.421 387.232,346.233 386.655 C 346.054 386.104,346.147 385.971,346.595 386.143 C 346.928 386.271,347.200 386.220,347.200 386.030 C 347.200 385.446,346.078 385.219,345.870 385.762 M344.064 387.500 C 344.202 388.153,343.480 389.200,342.891 389.200 C 342.547 389.200,342.387 389.320,342.534 389.467 C 342.993 389.926,344.800 388.702,344.800 387.932 C 344.800 387.530,344.620 387.200,344.400 387.200 C 344.180 387.200,344.029 387.335,344.064 387.500 M56.029 388.165 C 55.655 388.615,55.787 388.941,56.676 389.765 C 57.890 390.891,58.400 391.059,58.400 390.333 C 58.400 390.077,58.280 389.987,58.132 390.134 C 57.652 390.614,56.479 389.185,56.690 388.377 C 56.930 387.460,56.681 387.380,56.029 388.165 M341.900 390.276 C 341.515 390.376,341.200 390.620,341.200 390.817 C 341.200 391.014,340.954 391.080,340.653 390.965 C 340.331 390.841,340.019 391.084,339.896 391.554 C 339.703 392.293,339.805 392.276,341.243 391.324 C 342.100 390.757,342.800 390.228,342.800 390.147 C 342.800 390.066,342.755 390.021,342.700 390.046 C 342.645 390.072,342.285 390.175,341.900 390.276 M329.482 396.813 C 328.645 397.791,328.630 398.000,329.400 398.000 C 329.730 398.000,330.000 397.747,330.000 397.437 C 330.000 397.071,330.314 396.933,330.900 397.042 C 331.408 397.136,331.538 397.094,331.200 396.944 C 330.870 396.799,330.502 396.531,330.382 396.349 C 330.262 396.166,329.857 396.375,329.482 396.813 M70.099 397.297 C 70.267 397.802,71.600 398.082,71.600 397.611 C 71.600 397.436,71.230 397.196,70.777 397.078 C 70.284 396.949,70.012 397.037,70.099 397.297 M327.051 397.812 C 326.932 398.122,327.035 398.498,327.279 398.649 C 327.537 398.808,327.612 398.743,327.457 398.492 C 327.310 398.255,327.507 397.997,327.895 397.918 C 328.538 397.789,328.541 397.753,327.933 397.513 C 327.531 397.355,327.181 397.474,327.051 397.812 M324.934 397.893 C 325.315 398.510,324.211 399.256,323.385 398.939 C 322.893 398.750,322.759 398.811,322.958 399.132 C 323.383 399.820,324.183 399.703,324.964 398.840 C 325.481 398.268,325.531 398.004,325.164 397.778 C 324.872 397.597,324.779 397.643,324.934 397.893 " stroke="none" fill="#f4fcfc" fill-rule="evenodd"></path></g></svg>