<svg id="svg" version="1.1" xmlns="http://www.w3.org/2000/svg" xmlns:xlink="http://www.w3.org/1999/xlink" width="400" height="400" viewBox="0, 0, 400,400"><g id="svgg"><path id="path0" d="M29.577 6.379 C 27.576 6.987,26.740 7.698,19.800 14.709 C 15.940 18.609,12.596 21.980,12.370 22.200 C 5.448 28.938,2.262 32.022,1.250 32.967 L -0.000 34.133 -0.000 145.178 C -0.000 245.824,0.059 256.307,0.633 257.126 C 0.981 257.623,1.656 258.461,2.133 258.988 C 2.610 259.514,3.810 260.879,4.800 262.021 C 5.790 263.163,7.050 264.527,7.600 265.054 C 8.150 265.580,9.140 266.542,9.800 267.191 C 10.460 267.841,11.720 268.669,12.600 269.032 C 13.480 269.396,14.868 270.222,15.685 270.868 C 16.688 271.662,17.984 272.190,19.685 272.496 C 21.317 272.790,22.533 273.272,23.149 273.869 C 25.070 275.731,25.249 275.741,58.265 275.899 L 89.531 276.048 89.711 319.724 C 89.903 366.076,89.900 366.010,91.821 368.019 C 92.357 368.580,93.082 370.020,93.433 371.219 C 93.800 372.477,94.621 373.993,95.371 374.800 C 96.087 375.570,97.134 377.010,97.698 378.000 C 98.262 378.990,99.163 380.179,99.699 380.643 C 100.236 381.106,100.928 381.847,101.237 382.289 C 101.547 382.731,102.700 383.696,103.800 384.434 C 104.900 385.172,106.160 386.107,106.600 386.512 C 107.040 386.917,108.165 387.588,109.100 388.002 C 110.035 388.416,110.800 388.923,110.800 389.128 C 110.800 389.827,114.656 391.163,117.432 391.426 C 119.047 391.579,121.107 392.107,122.379 392.693 C 123.962 393.423,125.656 393.789,128.579 394.032 C 133.175 394.413,396.211 394.522,398.500 394.143 L 400.000 393.895 400.000 295.194 L 400.000 196.493 399.100 196.252 C 398.605 196.119,388.975 196.008,377.700 196.005 L 357.200 196.000 357.191 174.500 C 357.181 150.312,357.250 150.899,354.175 148.554 L 352.663 147.400 331.532 147.280 L 310.400 147.161 310.377 114.680 C 310.353 79.771,310.378 80.201,308.271 78.637 C 307.162 77.815,306.756 77.798,285.171 77.690 L 263.200 77.580 263.200 56.177 C 263.200 32.534,263.215 32.682,260.732 31.327 C 259.464 30.635,256.473 30.595,198.380 30.491 L 137.361 30.383 135.780 28.762 C 134.911 27.871,133.766 26.750,133.235 26.271 C 132.704 25.792,131.984 25.059,131.635 24.643 C 131.286 24.226,130.656 23.596,130.235 23.243 C 129.630 22.734,126.931 20.020,124.107 17.080 C 119.287 12.062,113.297 6.754,112.070 6.413 C 110.325 5.928,31.169 5.896,29.577 6.379 M100.600 42.500 C 103.645 45.441,105.335 47.109,105.800 47.633 C 106.335 48.235,110.061 51.933,111.472 53.262 C 112.092 53.847,112.780 54.528,113.000 54.776 C 113.220 55.024,113.940 55.780,114.600 56.455 C 115.260 57.131,116.761 58.671,117.936 59.877 C 121.470 63.507,116.045 63.200,176.587 63.200 L 230.400 63.200 230.400 70.400 L 230.400 77.600 138.787 77.600 C 37.057 77.600,45.003 77.376,43.686 80.286 C 43.048 81.694,42.986 87.174,42.800 158.429 C 42.619 227.837,42.540 235.117,41.963 235.695 C 41.385 236.272,40.887 237.322,40.247 239.309 C 40.121 239.699,39.699 240.114,39.309 240.230 C 38.919 240.347,37.880 240.793,37.000 241.222 C 35.274 242.063,34.400 242.207,34.400 241.649 C 34.400 241.455,33.815 241.060,33.100 240.771 C 32.385 240.482,31.125 239.560,30.300 238.722 L 28.800 237.199 28.800 145.391 L 28.800 53.583 29.713 53.167 C 30.216 52.938,30.981 52.221,31.413 51.573 C 31.846 50.925,32.527 50.290,32.928 50.162 C 33.328 50.034,33.961 49.450,34.335 48.864 C 34.709 48.279,35.967 46.900,37.129 45.800 C 38.292 44.700,39.818 43.216,40.522 42.502 L 41.800 41.204 70.527 41.202 L 99.254 41.200 100.600 42.500 M277.600 128.809 L 277.600 147.218 253.661 147.109 L 229.723 147.000 227.499 144.600 C 226.275 143.280,224.900 141.840,224.442 141.400 C 223.985 140.960,222.435 139.430,220.999 138.000 C 219.562 136.570,218.201 135.220,217.973 135.000 C 217.745 134.780,215.412 132.474,212.788 129.875 C 209.670 126.786,207.565 125.019,206.711 124.775 C 204.783 124.221,124.647 124.283,122.600 124.839 C 121.185 125.224,117.805 128.160,113.507 132.740 C 113.228 133.036,112.460 133.801,111.800 134.438 C 111.140 135.076,110.420 135.781,110.200 136.004 C 109.980 136.228,106.470 139.738,102.400 143.805 C 98.330 147.873,94.849 151.364,94.665 151.565 C 94.480 151.765,93.934 152.364,93.451 152.896 C 92.968 153.428,92.245 154.047,91.843 154.272 C 89.844 155.390,89.821 155.888,89.696 200.900 L 89.579 242.800 82.534 242.800 L 75.489 242.800 75.741 240.700 C 75.880 239.545,75.995 209.755,75.997 174.500 L 76.000 110.400 176.800 110.400 L 277.600 110.400 277.600 128.809 M192.161 158.100 C 192.785 158.595,195.070 160.800,197.239 163.000 C 199.407 165.200,201.375 167.180,201.612 167.400 C 202.058 167.814,207.383 173.158,207.905 173.715 C 212.315 178.423,215.681 181.151,217.583 181.559 C 219.022 181.868,235.365 182.000,272.020 182.000 L 324.400 182.000 324.400 188.993 L 324.400 195.987 232.500 196.093 C 144.564 196.195,140.543 196.231,139.268 196.927 C 136.625 198.369,136.800 192.703,136.800 276.888 L 136.800 353.403 135.600 354.535 C 134.940 355.158,134.400 355.896,134.400 356.176 C 134.400 357.467,131.908 358.800,129.497 358.800 C 126.578 358.800,126.047 358.518,124.245 356.009 L 122.800 353.998 122.800 263.213 L 122.800 172.428 125.613 169.514 C 127.160 167.911,128.555 166.475,128.713 166.321 C 128.871 166.168,131.040 164.053,133.533 161.621 L 138.066 157.200 164.546 157.200 L 191.026 157.200 192.161 158.100 M371.200 294.000 L 371.200 359.200 270.400 359.200 L 169.600 359.200 169.600 294.000 L 169.600 228.800 270.400 228.800 L 371.200 228.800 371.200 294.000 " stroke="none" fill="#040404" fill-rule="evenodd"></path><path id="path1" d="" stroke="none" fill="#080404" fill-rule="evenodd"></path><path id="path2" d="" stroke="none" fill="#080404" fill-rule="evenodd"></path></g></svg>