<svg id="svg" version="1.1" xmlns="http://www.w3.org/2000/svg" xmlns:xlink="http://www.w3.org/1999/xlink" width="400" height="400" viewBox="0, 0, 400,400"><g id="svgg"><path id="path0" d="M28.398 12.536 C 27.849 13.160,26.635 14.461,25.700 15.425 C 24.765 16.390,24.000 17.394,24.000 17.656 C 24.000 17.919,23.891 18.024,23.757 17.891 C 23.506 17.639,22.433 18.447,22.550 18.800 C 22.587 18.910,21.758 19.832,20.708 20.848 C 19.659 21.865,18.800 22.623,18.800 22.533 C 18.800 22.442,18.549 22.601,18.242 22.884 C 17.935 23.168,17.766 23.535,17.866 23.700 C 17.965 23.865,17.852 24.000,17.613 24.000 C 17.374 24.000,16.384 24.765,15.412 25.700 C 14.440 26.635,12.825 28.171,11.822 29.114 C 10.820 30.056,10.000 31.001,10.000 31.214 C 10.000 31.426,9.700 31.600,9.333 31.600 C 8.967 31.600,8.774 31.707,8.904 31.838 C 9.035 31.968,7.083 34.154,4.566 36.694 L -0.011 41.313 0.095 143.323 C 0.178 224.501,0.302 245.367,0.700 245.500 C 0.975 245.592,1.200 246.192,1.200 246.833 C 1.200 247.475,1.380 248.000,1.600 248.000 C 1.820 248.000,2.000 248.315,1.999 248.700 C 1.997 249.632,3.576 252.720,4.700 253.981 C 5.195 254.537,5.600 255.219,5.600 255.496 C 5.600 255.773,5.791 256.000,6.024 256.000 C 6.257 256.000,6.336 256.180,6.200 256.400 C 6.064 256.620,6.143 256.800,6.376 256.800 C 6.609 256.800,6.800 256.994,6.800 257.231 C 6.800 257.469,7.512 258.347,8.382 259.183 C 9.252 260.019,9.852 260.815,9.715 260.951 C 9.579 261.088,9.690 261.200,9.962 261.200 C 10.654 261.200,11.621 262.239,11.281 262.617 C 11.126 262.788,11.192 262.819,11.427 262.686 C 11.662 262.552,12.292 262.846,12.827 263.338 C 14.479 264.859,17.579 266.848,18.392 266.909 C 18.818 266.941,19.086 267.047,18.989 267.144 C 18.767 267.366,20.725 268.400,21.366 268.400 C 22.066 268.400,23.993 269.352,23.997 269.700 C 23.999 269.865,24.720 270.000,25.600 270.000 C 26.480 270.000,27.200 270.194,27.200 270.431 C 27.200 270.671,27.776 270.816,28.500 270.760 C 29.215 270.704,30.224 270.799,30.741 270.969 C 31.259 271.140,45.569 271.307,62.541 271.340 L 93.400 271.400 93.481 312.800 C 93.563 354.678,93.672 359.371,94.632 362.090 C 94.925 362.921,95.092 363.600,95.003 363.600 C 94.691 363.600,95.731 366.212,96.461 367.262 C 96.868 367.846,97.200 368.586,97.200 368.906 C 97.200 369.226,97.645 370.143,98.188 370.944 C 98.731 371.745,99.065 372.400,98.929 372.400 C 98.793 372.400,99.246 372.940,99.937 373.600 C 100.628 374.260,101.019 374.800,100.806 374.800 C 100.593 374.800,101.956 376.330,103.834 378.200 C 105.713 380.070,107.509 381.600,107.825 381.600 C 108.141 381.600,108.400 381.750,108.400 381.932 C 108.400 382.115,108.895 382.520,109.500 382.832 C 110.105 383.145,110.949 383.715,111.375 384.100 C 111.802 384.485,112.342 384.804,112.575 384.809 C 112.809 384.814,113.450 385.170,114.000 385.600 C 114.550 386.030,115.394 386.386,115.876 386.391 C 116.358 386.396,116.864 386.580,117.000 386.800 C 117.136 387.020,117.676 387.200,118.200 387.200 C 118.724 387.200,119.264 387.380,119.400 387.600 C 119.536 387.820,120.256 388.000,121.000 388.000 C 121.744 388.000,122.463 388.178,122.597 388.396 C 122.758 388.655,170.507 388.793,261.421 388.798 L 400.000 388.804 400.000 294.202 L 400.000 199.600 376.803 199.600 L 353.606 199.600 353.503 175.900 L 353.400 152.200 330.100 152.097 L 306.800 151.994 306.795 117.697 C 306.792 98.834,306.681 82.995,306.548 82.500 L 306.307 81.600 282.957 81.600 L 259.606 81.600 259.503 58.300 L 259.400 35.000 197.117 34.800 L 134.835 34.600 132.517 32.310 C 131.243 31.051,130.020 29.843,129.800 29.626 C 123.555 23.465,121.279 21.190,120.731 20.565 C 120.363 20.144,118.189 17.951,115.901 15.691 L 111.741 11.582 70.569 11.491 L 29.396 11.400 28.398 12.536 M101.062 36.500 C 101.649 36.995,103.267 38.525,104.657 39.900 C 106.048 41.275,107.379 42.400,107.616 42.400 C 107.853 42.400,107.970 42.535,107.876 42.700 C 107.651 43.095,109.448 44.819,109.759 44.507 C 109.892 44.375,110.000 44.494,110.000 44.772 C 110.000 45.050,113.233 48.500,117.184 52.438 L 124.367 59.600 179.584 59.600 L 234.800 59.600 234.800 70.599 L 234.800 81.598 140.700 81.699 L 46.600 81.800 46.502 159.200 C 46.432 214.385,46.277 236.909,45.963 237.676 C 45.721 238.268,45.629 238.924,45.759 239.134 C 45.889 239.344,45.725 239.620,45.394 239.747 C 45.063 239.874,44.839 240.121,44.896 240.297 C 45.108 240.949,41.618 244.613,40.425 244.992 C 39.965 245.138,39.691 245.423,39.816 245.626 C 39.941 245.829,39.629 245.993,39.122 245.992 C 38.615 245.990,37.075 246.103,35.700 246.242 C 34.293 246.385,33.200 246.338,33.200 246.135 C 33.200 245.937,32.740 245.736,32.179 245.690 C 31.617 245.643,30.831 245.431,30.431 245.217 C 30.032 245.003,29.592 244.942,29.453 245.081 C 29.314 245.220,29.200 245.003,29.200 244.600 C 29.200 244.197,29.086 243.981,28.947 244.120 C 28.636 244.430,26.000 241.853,26.000 241.240 C 26.000 240.998,25.834 240.800,25.632 240.800 C 25.281 240.800,25.043 240.044,24.570 237.428 C 24.454 236.783,24.276 236.123,24.176 235.961 C 24.075 235.798,23.995 194.444,23.998 144.061 L 24.003 52.457 30.270 46.129 C 33.717 42.648,36.687 39.845,36.869 39.900 C 37.051 39.955,37.200 39.787,37.200 39.526 C 37.200 38.854,38.831 37.200,39.493 37.200 C 39.798 37.200,39.935 37.018,39.798 36.797 C 39.173 35.786,42.778 35.650,70.697 35.625 L 99.994 35.600 101.062 36.500 M281.600 129.200 L 281.600 152.000 255.096 152.000 L 228.592 152.000 226.896 150.354 C 225.963 149.449,225.200 148.561,225.200 148.381 C 225.200 148.201,224.869 147.949,224.464 147.820 C 224.059 147.692,223.492 147.146,223.204 146.607 C 222.915 146.068,222.527 145.722,222.340 145.837 C 222.153 145.953,222.000 145.857,222.000 145.624 C 222.000 145.391,221.719 145.200,221.376 145.200 C 221.033 145.200,220.849 145.045,220.966 144.855 C 221.083 144.665,220.599 143.955,219.890 143.277 C 219.180 142.599,218.397 141.809,218.149 141.522 C 217.901 141.235,217.223 140.658,216.643 140.239 C 216.063 139.821,215.672 139.395,215.775 139.292 C 216.028 139.039,215.162 138.217,214.300 137.890 C 213.915 137.744,213.600 137.349,213.600 137.013 C 213.600 136.676,213.319 136.400,212.976 136.400 C 212.633 136.400,212.427 136.265,212.517 136.100 C 212.607 135.935,211.821 135.080,210.769 134.200 C 209.718 133.320,208.845 132.390,208.829 132.133 C 208.813 131.877,208.621 131.607,208.403 131.533 C 208.185 131.460,207.330 130.805,206.503 130.077 L 205.000 128.754 164.700 128.677 C 142.535 128.635,124.400 128.705,124.400 128.832 C 124.400 128.960,123.950 129.306,123.400 129.600 C 122.850 129.894,122.400 130.375,122.400 130.668 C 122.400 130.960,122.250 131.200,122.066 131.200 C 121.882 131.200,120.092 132.820,118.087 134.800 C 116.082 136.780,114.529 138.400,114.634 138.400 C 114.740 138.400,114.197 139.030,113.427 139.800 C 112.657 140.570,111.933 141.200,111.818 141.200 C 111.371 141.200,110.000 142.604,110.000 143.062 C 110.000 143.328,109.640 143.660,109.200 143.800 C 108.760 143.940,108.400 144.235,108.400 144.456 C 108.400 144.883,107.396 146.021,107.148 145.875 C 107.066 145.827,104.457 148.355,101.349 151.494 C 98.241 154.632,95.779 157.200,95.878 157.200 C 95.976 157.200,95.787 157.470,95.457 157.800 C 95.127 158.130,94.664 158.400,94.429 158.400 C 94.193 158.400,93.957 158.445,93.904 158.500 C 93.852 158.555,93.717 178.400,93.604 202.600 L 93.400 246.600 81.524 246.706 L 69.648 246.812 69.856 245.306 C 69.970 244.478,70.221 243.440,70.413 243.000 C 70.604 242.560,70.852 241.210,70.962 240.000 C 71.072 238.790,71.238 237.440,71.330 237.000 C 71.422 236.560,71.521 206.995,71.549 171.300 L 71.600 106.400 176.600 106.400 L 281.600 106.400 281.600 129.200 M199.216 158.000 C 201.890 160.640,204.251 162.800,204.462 162.800 C 204.674 162.800,204.736 162.980,204.600 163.200 C 204.464 163.420,204.663 163.600,205.043 163.600 C 205.423 163.600,205.636 163.698,205.516 163.817 C 205.397 163.937,208.170 166.907,211.679 170.417 L 218.058 176.800 273.229 176.800 L 328.400 176.800 328.400 188.200 L 328.400 199.600 234.700 199.647 C 183.165 199.673,140.865 199.673,140.700 199.647 C 140.535 199.621,140.400 234.880,140.400 278.000 C 140.400 330.000,140.265 356.400,140.000 356.400 C 139.780 356.400,139.600 356.818,139.600 357.328 C 139.600 357.838,139.195 358.630,138.700 359.088 C 138.205 359.545,137.402 360.343,136.916 360.860 C 135.706 362.146,134.643 362.971,133.967 363.149 C 131.683 363.752,130.661 363.875,128.847 363.767 C 126.601 363.634,124.000 362.845,124.000 362.296 C 124.000 362.107,123.820 362.064,123.600 362.200 C 123.380 362.336,123.200 362.257,123.200 362.024 C 123.200 361.791,122.919 361.600,122.576 361.600 C 122.233 361.600,122.064 361.420,122.200 361.200 C 122.336 360.980,122.167 360.800,121.824 360.800 C 121.481 360.800,121.200 360.633,121.200 360.429 C 121.200 360.224,120.968 359.819,120.685 359.529 C 118.436 357.221,118.610 364.916,118.497 262.731 L 118.395 169.662 119.310 168.931 C 119.813 168.529,120.735 167.525,121.360 166.700 C 121.984 165.875,122.744 165.200,123.047 165.200 C 123.351 165.200,123.600 164.900,123.600 164.533 C 123.600 164.167,123.688 163.955,123.796 164.063 C 124.039 164.305,130.800 157.586,130.800 157.102 C 130.800 156.910,130.980 156.864,131.200 157.000 C 131.420 157.136,131.603 156.922,131.606 156.524 C 131.611 155.910,131.671 155.891,132.000 156.400 C 132.314 156.885,132.389 156.828,132.394 156.100 C 132.397 155.605,132.625 155.192,132.900 155.182 C 133.175 155.171,133.760 154.723,134.200 154.186 L 135.000 153.208 164.678 153.204 L 194.355 153.200 199.216 158.000 M323.532 223.900 C 294.565 223.957,247.045 223.957,217.932 223.900 C 188.819 223.843,212.520 223.797,270.600 223.797 C 328.680 223.797,352.499 223.843,323.532 223.900 M376.098 294.400 L 375.996 364.400 269.798 364.400 C 163.867 364.400,163.600 364.398,163.600 363.600 C 163.600 363.160,163.763 362.800,163.961 362.800 C 164.794 362.800,164.906 355.490,165.052 291.500 L 165.205 224.400 270.702 224.400 L 376.200 224.400 376.098 294.400 " stroke="none" fill="#f4f4fc" fill-rule="evenodd"></path><path id="path1" d="M50.500 11.500 C 61.445 11.559,79.355 11.559,90.300 11.500 C 101.245 11.441,92.290 11.392,70.400 11.392 C 48.510 11.392,39.555 11.441,50.500 11.500 M40.442 36.034 C 39.915 36.245,39.555 36.458,39.642 36.509 C 40.209 36.836,100.400 36.328,100.400 35.995 C 100.400 35.466,41.767 35.504,40.442 36.034 M38.001 38.198 C 37.486 38.748,37.152 39.286,37.261 39.394 C 37.369 39.503,37.974 39.054,38.604 38.396 C 39.234 37.738,39.567 37.200,39.345 37.200 C 39.122 37.200,38.517 37.649,38.001 38.198 M35.599 40.602 C 35.083 41.151,34.789 41.600,34.947 41.600 C 35.398 41.600,36.965 40.031,36.739 39.806 C 36.628 39.694,36.114 40.052,35.599 40.602 M29.398 46.802 C 28.358 47.951,28.820 48.080,29.914 46.946 C 30.417 46.426,30.670 46.000,30.476 46.000 C 30.282 46.000,29.797 46.361,29.398 46.802 M124.132 106.700 C 153.135 106.757,200.475 106.757,229.332 106.700 C 258.189 106.643,234.460 106.597,176.600 106.597 C 118.740 106.597,95.129 106.643,124.132 106.700 M144.730 128.700 C 155.802 128.759,173.802 128.759,184.730 128.700 C 195.659 128.641,186.600 128.592,164.600 128.592 C 142.600 128.592,133.659 128.641,144.730 128.700 M206.449 130.000 C 207.392 130.880,208.254 131.600,208.363 131.600 C 208.473 131.600,207.859 130.880,207.000 130.000 C 206.141 129.120,205.279 128.400,205.085 128.400 C 204.891 128.400,205.505 129.120,206.449 130.000 M218.800 142.143 C 218.800 142.313,219.340 142.906,220.001 143.462 C 220.662 144.018,221.101 144.637,220.977 144.836 C 220.854 145.036,221.018 145.200,221.343 145.200 C 221.668 145.200,222.024 145.425,222.135 145.700 C 222.246 145.975,222.351 146.012,222.368 145.783 C 222.386 145.554,221.590 144.572,220.600 143.600 C 219.610 142.628,218.800 141.973,218.800 142.143 M223.288 146.792 C 223.560 147.228,224.052 147.688,224.382 147.814 C 224.712 147.941,224.549 147.584,224.021 147.022 C 222.869 145.797,222.617 145.717,223.288 146.792 M149.730 153.500 C 158.051 153.560,171.551 153.560,179.730 153.500 C 187.908 153.439,181.100 153.390,164.600 153.390 C 148.100 153.390,141.408 153.439,149.730 153.500 M93.467 159.067 C 93.320 159.213,93.200 178.929,93.200 202.878 L 93.200 246.423 81.400 246.312 C 74.910 246.250,69.600 246.338,69.600 246.506 C 69.600 246.674,74.955 246.764,81.500 246.706 L 93.400 246.600 93.600 202.700 C 93.710 178.555,93.785 158.800,93.767 158.800 C 93.748 158.800,93.613 158.920,93.467 159.067 M121.447 166.573 C 120.122 168.311,120.099 168.738,121.400 167.436 C 121.950 166.886,122.400 166.238,122.400 165.995 C 122.400 165.752,122.580 165.664,122.800 165.800 C 123.020 165.936,123.200 165.857,123.200 165.624 C 123.200 164.820,122.492 165.204,121.447 166.573 M119.002 169.198 C 118.603 169.639,118.407 170.000,118.567 170.000 C 118.988 170.000,120.128 168.795,119.912 168.579 C 119.811 168.478,119.402 168.756,119.002 169.198 M210.400 169.335 C 210.400 169.495,211.030 170.257,211.800 171.027 C 212.570 171.797,213.200 172.276,213.200 172.092 C 213.200 171.908,212.570 171.146,211.800 170.400 C 211.030 169.654,210.400 169.174,210.400 169.335 M213.600 172.567 C 213.600 172.988,214.805 174.128,215.021 173.912 C 215.122 173.811,214.844 173.402,214.402 173.002 C 213.961 172.603,213.600 172.407,213.600 172.567 M217.932 223.900 C 247.045 223.957,294.565 223.957,323.532 223.900 C 352.499 223.843,328.680 223.797,270.600 223.797 C 212.520 223.797,188.819 223.843,217.932 223.900 M217.900 224.700 C 246.995 224.757,294.605 224.757,323.700 224.700 C 352.795 224.643,328.990 224.597,270.800 224.597 C 212.610 224.597,188.805 224.643,217.900 224.700 M71.079 238.157 C 70.915 238.574,70.875 239.009,70.991 239.124 C 71.355 239.489,71.676 238.891,71.524 238.131 C 71.383 237.435,71.362 237.436,71.079 238.157 M4.400 254.351 C 4.400 254.598,4.567 254.800,4.771 254.800 C 4.975 254.800,5.224 255.115,5.324 255.500 C 5.479 256.091,5.514 256.098,5.554 255.549 C 5.579 255.191,5.330 254.674,5.000 254.400 C 4.585 254.056,4.400 254.041,4.400 254.351 M64.498 271.499 L 93.196 271.605 93.301 312.703 L 93.406 353.800 93.403 312.600 L 93.400 271.400 64.600 271.396 L 35.800 271.392 64.498 271.499 M93.200 355.910 C 93.200 357.033,93.372 358.059,93.583 358.189 C 93.819 358.335,93.874 357.617,93.727 356.313 C 93.413 353.537,93.200 353.373,93.200 355.910 M138.678 358.423 C 138.502 359.098,138.565 359.161,139.031 358.774 C 139.668 358.246,139.786 357.600,139.247 357.600 C 139.052 357.600,138.796 357.970,138.678 358.423 M136.500 360.777 C 136.005 361.190,135.600 361.641,135.600 361.778 C 135.600 362.238,137.103 361.230,137.340 360.611 C 137.632 359.851,137.604 359.857,136.500 360.777 M163.600 364.000 C 163.600 364.266,199.267 364.400,269.800 364.400 C 340.333 364.400,376.000 364.266,376.000 364.000 C 376.000 363.734,340.333 363.600,269.800 363.600 C 199.267 363.600,163.600 363.734,163.600 364.000 M96.400 368.153 C 96.400 368.483,96.580 368.864,96.800 369.000 C 97.020 369.136,97.200 368.977,97.200 368.647 C 97.200 368.317,97.020 367.936,96.800 367.800 C 96.580 367.664,96.400 367.823,96.400 368.153 " stroke="none" fill="#f8f4fc" fill-rule="evenodd"></path></g></svg>