<svg id="svg" version="1.1" xmlns="http://www.w3.org/2000/svg" xmlns:xlink="http://www.w3.org/1999/xlink" width="400" height="400" viewBox="0, 0, 400,400"><g id="svgg"><path id="path0" d="M28.800 11.160 C 27.143 11.381,26.990 11.498,26.880 12.634 C 26.777 13.689,26.544 13.922,25.282 14.234 C 24.067 14.535,23.769 14.812,23.601 15.800 C 23.441 16.739,23.164 17.027,22.327 17.124 C 21.066 17.270,20.528 17.832,20.338 19.200 C 20.236 19.943,19.925 20.232,19.129 20.324 C 17.867 20.470,17.328 21.031,17.138 22.397 C 17.035 23.145,16.704 23.446,15.815 23.599 C 14.894 23.757,14.546 24.094,14.256 25.105 C 13.975 26.084,13.578 26.486,12.661 26.724 C 11.753 26.959,11.359 27.353,11.124 28.261 C 10.888 29.173,10.483 29.575,9.527 29.849 C 8.576 30.122,8.166 30.527,7.934 31.423 C 7.701 32.322,7.289 32.726,6.311 33.014 C 5.288 33.315,4.956 33.663,4.797 34.600 C 4.645 35.505,4.350 35.834,3.597 35.938 C 2.240 36.127,1.600 36.724,1.600 37.802 C 1.600 38.370,1.302 38.785,0.800 38.916 C -0.290 39.201,-0.489 279.327,0.600 279.745 C 0.930 279.871,1.203 280.386,1.206 280.887 C 1.220 283.007,2.527 285.600,3.581 285.600 C 4.356 285.600,4.800 286.348,4.800 287.653 C 4.800 288.175,5.272 288.638,6.200 289.026 C 6.970 289.348,7.600 289.878,7.600 290.205 C 7.600 291.136,9.097 292.400,10.200 292.400 C 10.996 292.400,11.200 292.601,11.200 293.386 C 11.200 294.553,11.827 294.937,14.884 295.645 C 16.654 296.055,17.193 296.356,17.284 296.983 C 17.464 298.240,19.416 298.902,23.579 299.118 C 26.731 299.282,27.610 299.475,28.600 300.219 C 31.005 302.027,29.664 301.995,103.300 301.998 L 173.600 302.000 173.600 302.951 C 173.600 304.075,172.975 304.671,171.600 304.862 C 170.802 304.972,170.575 305.260,170.476 306.286 C 170.368 307.401,170.167 307.607,168.976 307.831 C 167.857 308.041,167.540 308.324,167.281 309.345 C 167.041 310.288,166.644 310.695,165.684 310.982 C 164.681 311.281,164.354 311.640,164.165 312.644 C 163.968 313.695,163.695 313.968,162.644 314.165 C 161.640 314.354,161.281 314.681,160.982 315.684 C 160.699 316.631,160.286 317.041,159.386 317.270 C 158.475 317.501,158.075 317.906,157.786 318.889 C 157.485 319.912,157.136 320.245,156.200 320.403 C 155.187 320.574,154.969 320.824,154.800 322.003 C 154.628 323.203,154.431 323.419,153.401 323.536 C 152.065 323.688,151.615 324.175,151.606 325.482 C 151.601 326.170,151.295 326.421,150.210 326.624 C 149.024 326.847,148.783 327.083,148.568 328.232 C 148.356 329.363,148.104 329.619,147.007 329.825 C 144.123 330.366,144.152 339.600,147.038 339.600 C 147.759 339.600,148.054 339.897,148.309 340.880 C 148.564 341.866,148.934 342.236,149.920 342.491 C 150.903 342.746,151.200 343.041,151.200 343.762 C 151.200 344.853,151.762 345.385,153.300 345.752 C 154.115 345.947,154.400 346.260,154.400 346.959 C 154.400 348.053,154.960 348.585,156.500 348.952 C 157.302 349.144,157.600 349.463,157.600 350.128 C 157.600 351.290,158.310 352.000,159.472 352.000 C 160.137 352.000,160.456 352.298,160.648 353.100 C 161.015 354.640,161.547 355.200,162.641 355.200 C 163.340 355.200,163.653 355.485,163.848 356.300 C 164.216 357.842,164.748 358.400,165.849 358.400 C 166.584 358.400,166.800 358.616,166.800 359.351 C 166.800 360.452,167.358 360.984,168.900 361.352 C 169.715 361.547,170.000 361.860,170.000 362.559 C 170.000 363.653,170.560 364.185,172.100 364.552 C 172.902 364.744,173.200 365.063,173.200 365.728 C 173.200 366.890,173.910 367.600,175.072 367.600 C 175.737 367.600,176.056 367.898,176.248 368.700 C 176.615 370.240,177.147 370.800,178.241 370.800 C 178.940 370.800,179.253 371.085,179.448 371.900 C 179.811 373.422,180.346 374.000,181.391 374.000 C 182.052 374.000,182.379 374.332,182.650 375.277 C 182.930 376.250,183.324 376.633,184.308 376.888 C 185.302 377.146,185.600 377.439,185.600 378.162 C 185.600 379.248,186.162 379.785,187.674 380.146 C 188.453 380.332,188.782 380.692,188.874 381.461 C 188.943 382.043,189.315 382.672,189.700 382.860 C 190.085 383.047,190.715 383.354,191.100 383.543 C 191.485 383.731,191.864 384.226,191.943 384.643 C 192.182 385.905,192.831 386.400,194.249 386.400 C 195.153 386.400,195.600 386.589,195.600 386.971 C 195.600 387.967,196.809 388.800,198.255 388.800 C 200.051 388.800,201.200 388.176,201.200 387.201 C 201.200 386.641,201.636 386.313,202.796 386.001 C 204.003 385.676,204.455 385.321,204.650 384.543 C 204.817 383.880,205.384 383.315,206.247 382.955 C 207.116 382.591,207.678 382.030,207.847 381.355 C 208.015 380.685,208.576 380.118,209.420 379.766 C 210.350 379.377,210.808 378.873,210.992 378.035 C 211.189 377.141,211.541 376.789,212.435 376.592 C 213.273 376.408,213.777 375.950,214.166 375.020 C 214.518 374.176,215.085 373.615,215.755 373.447 C 216.430 373.278,216.991 372.716,217.355 371.847 C 217.721 370.971,218.278 370.417,218.969 370.244 C 219.722 370.055,220.091 369.644,220.258 368.811 C 220.436 367.922,220.776 367.581,221.683 367.382 C 222.531 367.196,223.033 366.741,223.424 365.804 C 223.774 364.966,224.401 364.339,225.148 364.078 C 225.982 363.787,226.398 363.320,226.587 362.461 C 226.789 361.540,227.134 361.190,228.035 360.992 C 228.873 360.808,229.377 360.350,229.766 359.420 C 230.118 358.576,230.685 358.015,231.355 357.847 C 232.030 357.678,232.591 357.116,232.955 356.247 C 233.321 355.371,233.878 354.817,234.569 354.644 C 235.323 354.454,235.691 354.044,235.859 353.205 C 236.037 352.317,236.423 351.922,237.447 351.584 C 238.371 351.280,238.881 350.816,239.054 350.126 C 239.217 349.477,239.795 348.911,240.666 348.547 C 241.638 348.141,242.089 347.654,242.253 346.836 C 242.423 345.986,242.802 345.600,243.729 345.335 C 244.645 345.072,245.072 344.645,245.335 343.729 C 245.600 342.802,245.986 342.423,246.836 342.253 C 247.654 342.089,248.141 341.638,248.547 340.666 C 248.920 339.772,249.474 339.218,250.169 339.044 C 250.923 338.854,251.291 338.444,251.459 337.605 C 251.637 336.717,252.023 336.322,253.047 335.984 C 253.971 335.680,254.481 335.216,254.654 334.526 C 254.816 333.881,255.394 333.311,256.247 332.955 C 257.116 332.591,257.678 332.030,257.847 331.355 C 258.015 330.685,258.576 330.118,259.420 329.766 C 260.350 329.377,260.808 328.873,260.992 328.035 C 261.189 327.141,261.541 326.789,262.435 326.592 C 263.273 326.408,263.777 325.950,264.166 325.020 C 264.508 324.202,265.087 323.615,265.706 323.459 C 266.313 323.307,266.900 322.724,267.216 321.961 C 267.531 321.201,268.178 320.557,268.869 320.316 C 269.552 320.078,270.101 319.537,270.246 318.960 C 270.599 317.553,273.074 317.557,273.427 318.966 C 273.751 320.256,275.064 320.699,279.509 321.019 C 282.393 321.227,283.298 321.436,283.579 321.961 C 284.657 323.974,298.545 324.912,316.926 324.212 L 324.852 323.911 326.779 322.614 C 328.455 321.486,329.167 321.281,332.253 321.037 C 336.959 320.665,338.679 320.137,338.970 318.977 C 339.171 318.178,339.536 318.029,341.900 317.781 C 344.768 317.481,347.347 316.436,347.738 315.417 C 347.868 315.078,348.302 314.800,348.703 314.800 C 350.206 314.800,353.783 313.258,354.141 312.455 C 354.341 312.005,355.063 311.521,355.752 311.374 C 357.281 311.048,357.977 310.513,358.432 309.316 C 358.676 308.674,359.111 308.394,359.890 308.381 C 361.615 308.351,363.781 307.126,363.928 306.098 C 364.016 305.477,364.328 305.200,364.939 305.200 C 366.269 305.200,367.600 304.088,367.600 302.977 C 367.600 302.219,367.810 302.000,368.538 302.000 C 369.581 302.000,370.800 300.875,370.800 299.912 C 370.800 299.564,371.287 299.165,371.898 299.011 C 373.411 298.631,374.000 298.063,374.000 296.983 C 374.000 296.289,374.291 296.000,375.184 295.803 C 376.066 295.610,376.496 295.190,376.868 294.161 C 377.235 293.148,377.690 292.696,378.576 292.466 C 379.472 292.234,379.878 291.824,380.150 290.877 C 380.377 290.085,380.774 289.600,381.196 289.600 C 382.061 289.600,383.021 288.503,383.343 287.144 C 383.504 286.464,383.946 286.000,384.586 285.839 C 385.341 285.650,385.705 285.156,386.108 283.775 C 386.408 282.746,387.264 281.313,388.083 280.469 C 388.917 279.610,389.587 278.482,389.665 277.805 C 389.765 276.936,390.060 276.572,390.800 276.400 C 391.830 276.162,392.692 274.032,392.768 271.539 C 392.792 270.751,393.088 270.378,393.920 270.088 C 395.088 269.681,396.000 267.174,396.000 264.369 C 396.000 263.726,396.178 263.200,396.395 263.200 C 397.529 263.200,398.899 259.828,399.105 256.531 C 399.219 254.699,399.467 253.200,399.656 253.200 C 400.104 253.200,400.107 201.713,399.660 201.437 C 399.472 201.321,399.216 199.495,399.090 197.378 C 398.848 193.326,398.268 192.000,396.738 192.000 C 396.131 192.000,396.000 191.683,396.000 190.220 C 396.000 186.817,394.788 183.200,393.648 183.200 C 393.101 183.200,392.818 182.605,392.389 180.546 C 391.827 177.853,391.204 176.800,390.171 176.800 C 389.810 176.800,389.600 176.382,389.600 175.662 C 389.600 174.437,388.677 173.370,387.416 173.139 C 386.661 173.001,386.346 172.241,385.721 169.061 C 385.566 168.269,385.149 167.801,384.349 167.522 C 383.543 167.241,383.200 166.853,383.200 166.223 C 383.200 165.213,382.191 164.154,381.025 163.941 C 380.540 163.852,380.123 163.308,379.910 162.486 C 379.646 161.465,379.307 161.121,378.380 160.936 C 377.521 160.764,377.120 160.406,376.940 159.649 C 376.584 158.158,376.043 157.600,374.951 157.600 C 374.220 157.600,374.000 157.383,374.000 156.662 C 374.000 155.519,372.846 154.400,371.669 154.400 C 371.097 154.400,370.800 154.152,370.800 153.675 C 370.800 152.690,369.347 151.200,368.384 151.200 C 367.953 151.200,367.600 150.930,367.600 150.600 C 367.600 149.635,366.092 148.400,364.914 148.400 C 364.317 148.400,363.462 148.049,363.014 147.619 C 360.975 145.662,360.356 145.204,359.444 144.975 C 358.885 144.835,358.268 144.247,358.000 143.600 C 357.737 142.964,357.115 142.365,356.578 142.230 L 355.625 141.991 355.512 112.763 C 355.403 84.361,355.378 83.519,354.624 82.968 C 353.975 82.493,350.144 82.400,331.342 82.400 L 308.837 82.400 308.718 59.614 C 308.608 38.365,308.552 36.780,307.886 36.114 C 307.206 35.435,303.604 35.395,233.612 35.294 L 160.053 35.188 148.239 23.389 C 141.741 16.899,135.957 11.412,135.386 11.195 C 134.260 10.767,32.001 10.733,28.800 11.160 M123.598 43.989 C 123.755 44.659,124.233 45.094,125.071 45.334 C 125.977 45.594,126.406 46.024,126.667 46.933 C 126.930 47.851,127.356 48.272,128.291 48.540 C 129.222 48.807,129.625 49.203,129.807 50.030 C 129.987 50.851,130.413 51.274,131.380 51.593 C 132.348 51.913,132.766 52.328,132.926 53.132 C 133.077 53.883,133.564 54.418,134.462 54.816 C 135.256 55.168,135.864 55.775,135.994 56.345 C 136.124 56.912,136.762 57.552,137.589 57.945 C 138.440 58.349,139.056 58.979,139.199 59.589 C 139.356 60.259,139.832 60.694,140.671 60.934 C 141.581 61.196,142.005 61.623,142.267 62.545 C 142.913 64.813,140.376 64.733,212.700 64.768 L 279.200 64.800 279.200 73.600 L 279.200 82.400 162.800 82.400 C 46.933 82.400,46.396 82.404,45.600 83.200 C 44.805 83.995,44.800 84.533,44.800 172.557 L 44.800 261.113 43.829 261.357 C 43.032 261.557,42.767 262.005,42.355 263.846 C 41.833 266.179,41.162 267.200,40.151 267.200 C 39.825 267.200,39.377 267.720,39.156 268.355 C 38.383 270.571,32.000 270.620,32.000 268.411 C 32.000 268.228,31.492 267.901,30.871 267.685 C 30.081 267.409,29.626 266.886,29.358 265.946 C 29.091 265.012,28.702 264.561,28.087 264.472 L 27.200 264.344 27.200 160.799 C 27.200 62.537,27.236 57.242,27.900 57.028 C 28.285 56.904,28.917 56.244,29.303 55.563 C 29.690 54.881,30.359 54.231,30.789 54.119 C 31.220 54.006,31.943 53.285,32.396 52.517 C 32.849 51.749,33.590 51.023,34.041 50.905 C 34.492 50.787,35.025 50.261,35.225 49.735 C 35.424 49.210,36.201 48.418,36.951 47.976 C 37.701 47.534,38.406 46.820,38.519 46.389 C 38.631 45.959,39.281 45.290,39.963 44.903 C 40.644 44.517,41.304 43.884,41.429 43.498 C 41.643 42.834,43.860 42.802,82.510 42.898 L 123.364 43.000 123.598 43.989 M326.000 122.000 L 326.000 132.400 324.979 132.400 C 324.212 132.400,323.858 132.111,323.554 131.240 C 322.969 129.562,322.642 129.519,308.677 129.309 C 292.090 129.058,286.400 129.697,286.400 131.809 C 286.400 132.289,285.632 132.407,282.300 132.438 C 277.137 132.487,274.336 133.090,273.820 134.266 C 273.424 135.167,272.102 135.600,269.750 135.600 C 268.353 135.600,266.800 136.732,266.800 137.750 C 266.800 138.318,265.139 138.800,263.181 138.800 C 262.518 138.800,261.314 139.370,260.229 140.198 C 259.222 140.967,257.652 141.764,256.741 141.969 C 255.057 142.347,254.417 142.908,254.406 144.016 C 254.402 144.448,253.598 144.811,251.710 145.233 C 249.234 145.787,248.991 145.934,248.658 147.096 C 248.365 148.120,248.062 148.380,247.048 148.479 C 246.029 148.578,245.730 148.838,245.417 149.900 C 245.109 150.947,244.826 151.200,243.966 151.200 C 242.751 151.200,242.225 151.722,241.848 153.300 C 241.653 154.115,241.340 154.400,240.641 154.400 C 239.525 154.400,238.928 155.027,238.738 156.400 C 238.640 157.114,238.314 157.440,237.600 157.538 C 236.244 157.726,235.600 158.323,235.600 159.391 C 235.600 160.056,235.268 160.379,234.300 160.656 C 233.311 160.938,232.892 161.358,232.548 162.413 C 232.202 163.477,231.829 163.847,230.948 164.002 C 230.046 164.161,229.772 164.446,229.670 165.335 C 229.573 166.187,229.204 166.606,228.177 167.035 C 227.234 167.429,226.740 167.943,226.574 168.702 C 226.157 170.605,226.070 170.735,225.124 170.869 C 224.349 170.979,224.096 171.418,223.559 173.587 C 223.000 175.847,222.762 176.239,221.679 176.681 C 220.708 177.077,220.391 177.492,220.219 178.593 C 220.099 179.367,219.906 180.608,219.791 181.352 C 219.622 182.447,219.366 182.747,218.443 182.931 C 217.240 183.172,216.820 184.007,216.800 186.200 C 216.782 188.200,216.363 189.200,215.543 189.200 C 214.492 189.200,214.032 190.631,213.734 194.827 C 213.495 198.187,213.431 198.381,212.432 198.729 C 211.066 199.205,210.400 202.758,210.400 209.564 C 210.400 214.274,210.392 214.315,209.418 214.560 C 207.983 214.920,207.800 216.399,207.800 227.639 C 207.800 237.956,207.936 238.800,209.598 238.800 C 210.227 238.800,210.321 239.474,210.528 245.500 C 210.810 253.715,210.927 254.277,212.442 254.609 C 213.470 254.835,213.600 255.034,213.600 256.371 C 213.600 257.201,213.714 259.232,213.854 260.885 L 214.108 263.891 212.736 264.148 C 211.634 264.355,211.289 264.657,210.982 265.684 C 210.695 266.642,210.288 267.041,209.350 267.279 C 208.388 267.524,208.045 267.873,207.860 268.798 L 207.620 270.000 140.753 270.000 L 73.886 270.000 74.143 267.541 C 74.284 266.189,74.400 230.549,74.400 188.341 L 74.400 111.600 200.200 111.600 L 326.000 111.600 326.000 122.000 M309.173 160.772 C 310.808 161.024,314.739 161.342,317.909 161.479 C 323.140 161.705,323.700 161.800,323.962 162.510 C 324.337 163.523,326.711 164.358,330.100 164.669 C 332.146 164.856,332.800 165.064,332.800 165.527 C 332.800 166.737,334.061 167.600,335.829 167.600 C 337.917 167.600,338.800 167.910,338.800 168.643 C 338.800 169.505,340.299 170.800,341.300 170.803 C 341.880 170.804,342.443 171.231,342.881 172.003 C 343.280 172.702,343.893 173.200,344.358 173.200 C 344.795 173.200,345.264 173.380,345.400 173.600 C 345.536 173.820,346.051 174.000,346.544 174.000 C 347.613 174.000,348.400 174.699,348.400 175.649 C 348.400 176.077,348.912 176.507,349.753 176.785 C 350.775 177.122,351.163 177.517,351.340 178.401 C 351.520 179.301,351.872 179.648,352.867 179.905 C 353.858 180.162,354.235 180.532,354.484 181.490 C 354.728 182.435,355.143 182.851,356.179 183.193 C 357.215 183.535,357.582 183.903,357.676 184.693 C 357.756 185.369,358.226 185.975,359.000 186.401 C 359.962 186.931,360.319 187.525,360.800 189.399 C 361.289 191.303,361.593 191.800,362.439 192.081 C 363.286 192.362,363.578 192.840,364.013 194.656 C 364.391 196.232,364.864 197.119,365.624 197.681 C 366.483 198.316,366.751 198.918,366.958 200.680 C 367.271 203.346,367.784 204.400,368.767 204.400 C 369.388 204.400,369.548 204.833,369.763 207.100 C 370.370 213.502,370.373 213.512,371.634 213.952 L 372.800 214.358 372.800 226.779 C 372.800 238.663,372.768 239.200,372.049 239.200 C 370.797 239.200,370.466 240.046,370.021 244.382 C 369.786 246.668,369.551 248.553,369.497 248.569 C 368.091 249.011,366.822 251.382,366.804 253.600 C 366.787 255.687,366.015 257.510,365.045 257.753 C 364.320 257.935,364.046 258.351,363.852 259.568 C 363.636 260.918,363.439 261.165,362.500 261.273 C 361.561 261.382,361.360 261.634,361.126 263.000 C 360.556 266.322,360.343 266.800,359.433 266.800 C 358.260 266.800,357.600 267.533,357.600 268.835 C 357.600 269.746,357.387 269.951,356.215 270.171 C 355.037 270.392,354.793 270.630,354.580 271.768 C 354.379 272.836,354.074 273.177,353.064 273.462 C 352.141 273.723,351.702 274.150,351.435 275.045 C 351.174 275.925,350.722 276.374,349.835 276.635 C 348.903 276.911,348.569 277.266,348.475 278.087 C 348.373 278.968,348.094 279.221,346.992 279.428 C 345.907 279.631,345.547 279.948,345.199 281.004 C 344.789 282.246,344.622 282.342,342.455 282.594 C 339.676 282.916,339.322 283.109,339.140 284.396 C 339.019 285.259,338.732 285.431,337.005 285.677 C 333.941 286.113,333.200 286.367,333.200 286.979 C 333.200 288.036,331.975 288.800,330.271 288.805 C 327.675 288.814,326.873 289.159,326.604 290.383 L 326.362 291.485 321.481 291.704 C 315.650 291.965,313.051 292.555,312.032 293.850 C 311.303 294.777,311.136 294.800,305.050 294.800 L 298.815 294.800 298.557 293.771 C 298.195 292.328,297.021 292.004,291.149 291.723 L 286.037 291.478 285.792 290.365 C 285.568 289.346,285.354 289.230,283.274 289.004 C 279.788 288.627,279.430 288.502,279.000 287.519 C 278.780 287.016,278.240 286.549,277.800 286.482 C 277.360 286.414,276.640 286.196,276.200 285.996 C 275.760 285.797,274.957 285.581,274.416 285.517 C 273.745 285.437,273.359 285.083,273.200 284.400 C 273.000 283.538,272.596 283.318,270.284 282.811 C 268.022 282.315,267.600 282.092,267.600 281.391 C 267.600 280.304,266.864 279.600,265.725 279.600 C 265.061 279.600,264.653 279.223,264.234 278.219 C 263.806 277.194,263.313 276.749,262.328 276.493 C 261.284 276.223,260.957 275.899,260.797 274.978 C 260.639 274.071,260.335 273.761,259.448 273.603 C 258.568 273.447,258.199 273.076,257.852 272.000 C 257.537 271.023,257.126 270.561,256.493 270.471 C 255.896 270.386,255.387 269.865,255.000 268.939 C 254.622 268.034,253.992 267.376,253.226 267.087 C 252.401 266.776,252.001 266.327,251.919 265.619 C 251.837 264.919,251.406 264.426,250.539 264.045 C 249.411 263.548,249.250 263.260,249.006 261.312 C 248.734 259.129,247.761 257.600,246.646 257.600 C 246.272 257.600,245.999 256.855,245.806 255.300 C 245.454 252.477,245.093 251.760,243.871 251.454 C 242.988 251.232,242.902 250.967,242.661 247.708 C 242.327 243.205,242.120 242.517,241.017 242.240 C 239.108 241.761,239.124 211.982,241.034 211.112 C 242.266 210.550,242.426 210.027,242.691 205.700 C 242.882 202.575,243.023 202.000,243.597 202.000 C 244.799 202.000,245.589 200.627,245.856 198.070 C 246.048 196.233,246.271 195.600,246.725 195.600 C 247.678 195.600,248.800 194.374,248.800 193.334 C 248.800 192.816,249.174 192.079,249.632 191.696 C 250.630 190.860,251.724 188.973,252.003 187.605 C 252.122 187.023,252.537 186.549,253.003 186.464 C 254.172 186.249,255.200 185.199,255.200 184.221 C 255.200 183.601,255.558 183.260,256.500 182.983 C 257.477 182.695,257.895 182.277,258.183 181.300 C 258.393 180.585,258.829 180.000,259.151 180.000 C 260.080 180.000,261.200 178.763,261.200 177.738 C 261.200 177.011,261.419 176.800,262.171 176.800 C 263.338 176.800,264.400 175.833,264.400 174.771 C 264.400 174.193,264.680 174.000,265.520 174.000 C 266.874 174.000,267.600 173.350,267.600 172.138 C 267.600 171.405,267.880 171.192,269.100 171.000 C 272.206 170.511,272.945 170.181,273.603 168.993 C 274.161 167.986,274.579 167.761,276.291 167.549 C 278.691 167.251,279.137 167.018,279.592 165.822 C 279.879 165.066,280.335 164.879,282.426 164.660 C 284.469 164.447,285.225 164.148,286.626 163.000 C 288.253 161.667,288.483 161.600,291.467 161.593 C 297.060 161.582,303.689 160.883,304.335 160.236 C 304.719 159.852,305.155 159.760,305.565 159.977 C 305.914 160.162,307.538 160.520,309.173 160.772 M234.233 293.370 C 235.223 294.433,236.279 295.779,236.580 296.362 C 237.075 297.318,240.071 299.200,241.097 299.200 C 241.493 299.200,241.983 300.462,241.995 301.509 C 241.998 301.788,241.546 302.224,240.990 302.477 C 240.435 302.730,239.874 303.363,239.744 303.883 C 239.613 304.403,238.998 305.091,238.377 305.412 C 237.756 305.733,236.935 306.525,236.553 307.172 C 236.170 307.820,235.485 308.443,235.029 308.557 C 234.573 308.672,233.864 309.389,233.454 310.151 C 233.044 310.913,232.297 311.640,231.794 311.766 C 231.244 311.904,230.711 312.480,230.455 313.213 C 230.188 313.979,229.617 314.576,228.915 314.822 C 228.302 315.036,227.493 315.750,227.119 316.406 C 226.744 317.063,225.974 317.811,225.409 318.069 C 224.843 318.326,224.274 318.963,224.144 319.483 C 224.013 320.003,223.390 320.695,222.760 321.021 C 222.129 321.347,221.347 322.129,221.021 322.760 C 220.695 323.390,220.017 324.012,219.514 324.142 C 219.011 324.272,218.293 324.923,217.919 325.589 C 217.544 326.255,216.788 327.005,216.238 327.255 C 215.689 327.506,215.058 328.232,214.835 328.871 C 214.575 329.618,213.998 330.182,213.213 330.455 C 212.480 330.711,211.904 331.244,211.766 331.794 C 211.640 332.297,210.927 333.037,210.182 333.438 C 209.437 333.839,208.629 334.646,208.387 335.232 C 208.144 335.817,207.517 336.492,206.992 336.731 C 206.468 336.970,205.766 337.692,205.433 338.336 C 205.100 338.980,204.403 339.613,203.883 339.744 C 203.363 339.874,202.726 340.443,202.469 341.009 C 202.211 341.574,201.460 342.344,200.799 342.719 C 200.138 343.093,199.484 343.760,199.345 344.200 C 198.807 345.903,195.907 345.734,195.662 343.985 C 195.472 342.637,194.931 342.070,193.694 341.924 C 192.888 341.829,192.568 341.497,192.308 340.487 C 192.049 339.480,191.704 339.121,190.827 338.945 C 189.960 338.772,189.626 338.432,189.448 337.542 C 189.287 336.735,188.842 336.211,188.026 335.868 C 186.898 335.394,186.878 335.344,187.619 334.881 C 188.049 334.613,188.401 334.170,188.403 333.897 C 188.404 333.623,189.052 332.959,189.843 332.421 C 190.633 331.883,191.432 331.042,191.618 330.554 C 191.803 330.065,192.459 329.424,193.074 329.129 C 193.689 328.834,194.434 328.089,194.729 327.474 C 195.024 326.859,195.694 326.192,196.219 325.993 C 196.744 325.793,197.584 324.994,198.086 324.217 C 198.589 323.439,199.288 322.709,199.639 322.594 C 199.991 322.479,200.486 321.930,200.739 321.374 C 200.992 320.818,201.739 320.056,202.397 319.681 C 203.056 319.307,203.596 318.871,203.597 318.714 C 203.600 318.458,205.004 317.000,206.465 315.737 C 206.759 315.482,207.360 314.816,207.800 314.255 C 208.240 313.695,208.820 313.229,209.090 313.218 C 209.359 313.208,209.863 312.652,210.209 311.983 C 210.555 311.313,211.274 310.600,211.806 310.398 C 212.338 310.196,213.184 309.394,213.686 308.617 C 214.189 307.839,214.915 307.101,215.300 306.975 C 215.685 306.849,216.000 306.584,216.000 306.387 C 216.000 306.189,216.528 305.526,217.173 304.914 C 217.819 304.301,218.553 303.590,218.806 303.332 C 219.822 302.297,221.689 300.442,222.080 300.080 C 222.308 299.868,223.035 299.155,223.695 298.495 C 224.355 297.835,225.057 297.139,225.255 296.948 C 225.452 296.756,225.984 296.105,226.436 295.500 C 226.888 294.895,227.519 294.400,227.839 294.400 C 228.158 294.400,228.587 293.959,228.792 293.421 C 228.997 292.882,229.667 292.122,230.282 291.731 C 230.897 291.339,231.578 290.745,231.795 290.410 C 232.129 289.894,232.209 289.926,232.312 290.619 C 232.380 291.070,233.244 292.308,234.233 293.370 " stroke="none" fill="#040404" fill-rule="evenodd"></path><path id="path1" d="" stroke="none" fill="#080404" fill-rule="evenodd"></path></g></svg>