<svg id="svg" version="1.1" width="512" height="512" xmlns="http://www.w3.org/2000/svg"><path d="M82.500 1.000 C 82.160 1.550,81.027 2.000,79.982 2.000 C 76.805 2.000,61.905 10.211,54.920 15.811 C 51.301 18.713,45.676 24.481,42.420 28.630 C 36.746 35.861,30.014 47.250,30.005 49.636 C 30.002 50.260,29.347 52.030,28.549 53.568 C 27.751 55.106,26.809 58.870,26.456 61.932 C 26.103 64.994,25.181 69.719,24.407 72.432 C 22.303 79.807,22.303 432.193,24.407 439.568 C 25.181 442.281,26.103 447.006,26.456 450.068 C 26.809 453.130,27.751 456.894,28.549 458.432 C 29.347 459.970,30.002 461.740,30.005 462.364 C 30.014 464.750,36.746 476.139,42.420 483.370 C 45.676 487.519,51.301 493.287,54.920 496.189 C 61.905 501.789,76.805 510.000,79.982 510.000 C 81.027 510.000,82.160 510.450,82.500 511.000 C 82.899 511.645,101.178 512.000,134.062 512.000 L 185.005 512.000 188.753 507.853 C 192.915 503.246,195.998 496.195,195.999 491.277 C 196.000 486.774,191.493 478.048,187.408 474.642 C 185.522 473.071,182.296 471.394,180.239 470.916 C 178.183 470.439,161.117 470.037,142.315 470.024 C 120.250 470.008,107.132 469.616,105.315 468.918 C 103.767 468.322,100.128 467.444,97.229 466.967 C 90.669 465.886,81.666 459.818,77.180 453.453 C 75.433 450.974,72.990 446.145,71.751 442.723 L 69.500 436.500 69.500 256.000 L 69.500 75.500 71.751 69.277 C 72.990 65.855,75.433 61.026,77.180 58.547 C 81.653 52.202,90.665 46.119,97.229 45.016 C 100.128 44.529,103.850 43.647,105.500 43.056 C 110.306 41.335,352.085 42.148,358.000 43.906 C 371.854 48.023,377.966 51.973,382.906 60.002 C 389.369 70.505,389.309 69.791,389.933 143.000 L 390.500 209.500 393.315 214.288 C 395.048 217.238,397.929 220.207,400.815 222.019 C 404.844 224.550,406.481 224.962,412.500 224.962 C 418.528 224.962,420.154 224.551,424.213 222.002 C 434.972 215.246,434.969 215.268,434.968 142.500 C 434.967 81.319,434.233 62.311,431.679 57.313 C 430.888 55.766,429.905 52.925,429.494 51.000 C 427.570 41.991,414.604 24.233,403.368 15.219 C 396.789 9.940,385.194 3.575,380.250 2.529 C 378.462 2.151,377.000 1.427,377.000 0.921 C 377.000 -0.391,83.311 -0.312,82.500 1.000 M118.833 118.969 C 111.468 121.217,104.000 131.806,104.000 140.000 C 104.000 149.445,112.749 160.272,121.377 161.504 C 123.645 161.828,173.943 161.960,233.152 161.797 L 340.804 161.500 345.150 158.352 C 347.540 156.620,350.548 153.245,351.833 150.852 C 353.844 147.108,354.113 145.438,353.759 138.900 C 353.274 129.939,351.145 125.759,344.840 121.389 L 340.672 118.500 231.086 118.327 C 170.814 118.232,120.300 118.521,118.833 118.969 M118.500 199.103 C 112.874 200.833,107.231 207.442,104.551 215.438 C 102.952 220.209,102.971 220.574,105.117 226.312 C 107.738 233.322,113.691 239.570,119.146 241.039 C 121.522 241.679,161.748 241.939,231.757 241.767 L 340.672 241.500 344.893 238.575 C 351.312 234.126,353.209 230.823,353.752 223.148 C 354.011 219.492,353.732 214.685,353.131 212.468 C 351.759 207.396,344.941 200.356,340.100 199.011 C 335.435 197.715,122.726 197.803,118.500 199.103 M412.500 270.713 C 407.902 271.346,397.123 275.868,391.000 279.732 C 387.583 281.889,363.618 305.034,327.714 340.852 C 275.113 393.327,269.650 399.083,266.830 405.000 C 265.126 408.575,263.147 413.750,262.432 416.500 C 261.206 421.213,259.879 425.670,254.917 441.750 C 253.771 445.462,252.010 451.425,251.003 455.000 C 249.996 458.575,248.702 462.850,248.127 464.500 C 242.816 479.733,241.803 484.586,242.176 493.000 C 242.480 499.871,242.843 500.982,246.504 506.238 L 250.500 511.976 265.191 511.988 C 273.320 511.995,280.142 511.579,280.464 511.058 C 280.785 510.540,283.174 509.806,285.773 509.428 C 288.373 509.050,291.625 508.184,293.000 507.504 C 294.375 506.824,297.300 505.968,299.500 505.602 C 301.700 505.236,305.075 504.316,307.000 503.556 C 310.370 502.227,317.291 500.351,329.071 497.575 C 332.135 496.853,335.510 495.805,336.571 495.247 C 337.632 494.689,340.525 493.908,343.000 493.511 C 353.850 491.771,356.183 489.761,413.846 432.500 C 467.330 379.389,476.912 368.938,482.154 358.000 C 484.891 352.290,488.981 336.944,489.026 332.213 C 489.076 326.998,484.774 311.438,481.226 304.000 C 475.993 293.032,463.979 281.266,452.536 275.904 C 447.929 273.745,441.812 271.533,438.943 270.989 C 433.890 270.031,418.611 269.871,412.500 270.713 M118.485 279.044 C 113.579 280.494,107.597 287.055,105.105 293.719 L 102.873 299.688 104.861 305.345 C 107.119 311.769,109.970 315.670,114.927 319.117 L 118.353 321.500 189.000 321.500 L 259.646 321.500 263.814 318.741 C 266.107 317.224,269.195 314.152,270.676 311.914 C 273.025 308.364,273.368 306.844,273.368 300.000 C 273.368 293.156,273.025 291.636,270.676 288.086 C 269.195 285.848,266.107 282.776,263.815 281.259 L 259.648 278.500 190.574 278.327 C 152.495 278.231,120.147 278.553,118.485 279.044 M434.017 318.139 C 439.496 321.204,442.000 325.626,442.000 332.235 C 442.000 336.813,441.523 338.413,439.411 340.923 C 437.987 342.615,436.048 344.000,435.101 344.000 C 433.318 344.000,413.000 324.051,413.000 322.300 C 413.000 320.839,416.025 318.393,420.000 316.641 C 424.136 314.817,429.013 315.339,434.017 318.139 M391.025 366.430 C 396.761 372.166,401.629 377.388,401.844 378.033 C 402.059 378.678,386.515 394.945,367.301 414.181 L 332.367 449.156 325.434 451.133 C 321.620 452.221,316.700 453.561,314.500 454.112 C 312.300 454.663,308.140 455.856,305.255 456.762 C 298.100 459.011,297.299 458.017,299.942 450.173 C 301.074 446.813,302.000 443.175,302.000 442.091 C 302.000 441.006,302.405 439.868,302.900 439.562 C 303.394 439.256,304.349 436.642,305.022 433.753 C 305.694 430.864,307.066 427.150,308.071 425.500 C 311.344 420.124,376.402 356.000,378.583 356.000 C 379.806 356.000,384.691 360.095,391.025 366.430 " stroke="none" fill="undefined" fill-rule="evenodd"/></svg>