<svg id="svg" version="1.1" xmlns="http://www.w3.org/2000/svg" xmlns:xlink="http://www.w3.org/1999/xlink" width="400" height="400" viewBox="0, 0, 400,400"><g id="svgg"><path id="path0" d="M111.115 6.945 C 108.360 10.879,106.250 20.366,106.250 28.820 L 106.250 43.750 66.046 43.750 C 19.215 43.750,13.332 46.362,4.983 70.863 C -4.720 99.341,0.370 115.625,18.973 115.625 C 25.208 115.625,28.125 117.190,28.125 120.533 C 28.125 130.902,47.018 361.485,48.693 371.564 C 49.665 377.408,54.467 386.198,59.364 391.095 L 68.269 400.000 165.144 400.000 L 262.019 400.000 271.452 390.567 C 277.878 384.141,281.445 376.920,282.643 367.911 C 284.122 356.797,303.125 124.860,303.125 117.931 C 303.125 116.663,306.423 115.625,310.453 115.625 C 328.169 115.625,331.774 100.026,320.908 70.398 C 311.831 45.649,307.731 43.853,260.156 43.796 L 221.875 43.750 221.875 30.109 C 221.875 21.040,219.704 13.708,215.398 8.234 L 208.921 0.000 162.450 0.000 C 117.971 0.000,115.771 0.298,111.115 6.945 M193.750 34.375 L 193.750 43.750 162.500 43.750 L 131.250 43.750 131.250 34.375 L 131.250 25.000 162.500 25.000 L 193.750 25.000 193.750 34.375 M296.407 81.250 L 299.675 90.625 163.900 90.625 C 89.224 90.625,28.125 90.013,28.125 89.266 C 28.125 88.518,29.496 84.300,31.173 79.891 L 34.220 71.875 163.679 71.875 L 293.139 71.875 296.407 81.250 M275.000 126.857 C 275.000 156.360,255.707 367.201,252.673 370.857 C 247.408 377.202,83.571 376.875,78.288 370.509 C 75.980 367.728,71.135 323.404,65.563 254.103 C 60.615 192.549,55.964 136.211,55.229 128.906 L 53.893 115.625 164.446 115.625 L 275.000 115.625 275.000 126.857 M84.614 132.524 C 79.265 138.970,90.688 353.483,96.771 360.812 C 101.831 366.909,110.599 366.994,115.577 360.995 C 119.538 356.222,111.896 165.670,106.739 140.625 C 104.209 128.339,91.845 123.812,84.614 132.524 M153.750 131.875 C 148.374 137.251,148.374 356.499,153.750 361.875 C 158.940 367.065,167.366 366.563,173.214 360.714 C 179.179 354.750,180.729 145.081,174.890 134.170 C 171.274 127.413,159.491 126.134,153.750 131.875 M222.549 132.031 C 219.561 135.659,209.348 299.046,209.367 342.909 C 209.376 364.046,218.984 372.981,229.931 362.033 C 235.315 356.650,247.720 142.593,243.170 133.594 C 239.972 127.269,227.263 126.306,222.549 132.031 " stroke="none" fill="#000000" fill-rule="evenodd"></path></g></svg>