<svg id="svg" xmlns="http://www.w3.org/2000/svg" xmlns:xlink="http://www.w3.org/1999/xlink" width="400" height="400" viewBox="0, 0, 400,400" version="1.1"><g id="svgg"><path id="path0" d="M74.800 0.307 C 74.800 0.483,73.913 0.591,72.829 0.549 C 71.536 0.499,70.790 0.648,70.661 0.985 C 70.550 1.274,69.989 1.445,69.375 1.377 C 68.775 1.312,68.059 1.484,67.784 1.759 C 67.508 2.035,66.633 2.228,65.841 2.189 C 64.719 2.133,64.492 2.229,64.819 2.623 C 65.116 2.981,65.098 3.216,64.758 3.426 C 64.453 3.615,64.381 3.555,64.562 3.262 C 64.748 2.961,64.506 2.800,63.866 2.800 C 63.327 2.800,62.778 3.081,62.646 3.425 C 62.514 3.769,62.220 3.936,61.993 3.796 C 61.438 3.453,59.200 4.474,59.200 5.071 C 59.200 5.348,58.819 5.478,58.291 5.382 C 57.723 5.279,56.954 5.585,56.239 6.200 C 55.610 6.741,54.939 7.086,54.748 6.968 C 54.557 6.850,54.400 6.943,54.400 7.176 C 54.400 7.409,54.119 7.600,53.776 7.600 C 53.433 7.600,53.241 7.743,53.349 7.917 C 53.456 8.091,53.179 8.261,52.732 8.295 C 52.286 8.329,51.655 8.681,51.330 9.078 C 51.006 9.475,50.863 9.562,51.012 9.270 C 51.235 8.836,51.138 8.832,50.468 9.251 C 50.019 9.531,49.758 9.932,49.888 10.142 C 50.021 10.358,49.910 10.392,49.631 10.219 C 49.113 9.899,47.312 11.514,47.510 12.122 C 47.570 12.308,47.438 12.347,47.215 12.209 C 46.992 12.072,46.403 12.340,45.905 12.806 C 45.407 13.272,44.415 14.016,43.700 14.459 C 42.985 14.902,42.400 15.431,42.400 15.633 C 42.400 15.835,42.085 16.003,41.700 16.006 C 41.102 16.011,41.087 16.069,41.600 16.400 C 42.154 16.758,41.874 16.980,41.055 16.832 C 40.507 16.733,39.603 18.144,39.820 18.757 C 39.988 19.228,39.909 19.230,39.309 18.770 C 38.919 18.471,38.732 18.383,38.894 18.574 C 39.055 18.765,38.875 19.177,38.494 19.490 C 38.112 19.803,38.038 19.937,38.330 19.788 C 38.769 19.563,38.769 19.661,38.331 20.362 C 38.040 20.827,37.740 21.019,37.662 20.787 C 37.443 20.130,36.400 21.172,36.400 22.049 C 36.400 22.462,36.248 22.800,36.061 22.800 C 35.367 22.800,34.123 24.224,34.224 24.902 C 34.282 25.288,34.198 25.522,34.036 25.422 C 33.676 25.200,32.259 26.792,32.554 27.088 C 32.671 27.204,32.410 27.592,31.974 27.950 C 31.539 28.307,31.099 29.049,30.995 29.599 C 30.892 30.148,30.625 30.658,30.401 30.733 C 30.178 30.807,30.095 31.031,30.218 31.230 C 30.341 31.428,30.173 31.488,29.845 31.362 C 29.409 31.195,29.176 31.519,28.980 32.567 C 28.832 33.355,28.551 34.000,28.355 34.000 C 28.160 34.000,28.000 34.345,28.000 34.767 C 28.000 35.188,27.798 35.601,27.550 35.683 C 27.303 35.766,27.100 36.318,27.100 36.909 C 27.100 37.501,26.961 37.900,26.792 37.795 C 26.622 37.690,26.369 37.904,26.228 38.270 C 26.088 38.636,26.204 39.083,26.486 39.262 C 26.864 39.502,26.815 39.589,26.300 39.594 C 25.822 39.598,25.600 39.917,25.600 40.600 C 25.600 41.150,25.443 41.600,25.252 41.600 C 25.061 41.600,24.905 41.915,24.907 42.300 C 24.914 44.226,24.771 44.829,24.365 44.579 C 24.082 44.403,23.976 44.708,24.061 45.455 C 24.139 46.144,24.013 46.566,23.743 46.516 C 23.471 46.465,23.289 47.095,23.280 48.116 C 23.258 50.676,23.227 50.864,22.859 50.637 C 22.672 50.521,22.486 51.535,22.445 52.890 C 22.404 54.244,22.153 55.623,21.886 55.953 C 21.486 56.447,21.507 56.491,22.000 56.200 C 22.498 55.906,22.516 55.951,22.103 56.460 C 21.389 57.343,21.365 340.800,22.080 340.800 C 22.453 340.800,22.453 340.907,22.080 341.280 C 21.497 341.863,21.423 344.556,22.000 344.200 C 22.248 344.047,22.400 344.796,22.400 346.176 C 22.400 347.685,22.561 348.402,22.900 348.406 C 23.238 348.410,23.210 348.533,22.811 348.785 C 22.297 349.110,22.301 349.187,22.840 349.394 C 23.274 349.560,23.403 349.999,23.275 350.872 C 23.143 351.773,23.225 352.032,23.576 351.815 C 23.939 351.590,23.935 351.715,23.559 352.317 C 23.144 352.982,23.173 353.230,23.733 353.791 C 24.104 354.161,24.305 354.630,24.180 354.832 C 24.055 355.035,24.109 355.200,24.301 355.200 C 24.686 355.200,25.817 359.107,25.663 359.900 C 25.609 360.175,25.742 360.400,25.958 360.400 C 26.174 360.400,26.326 360.728,26.295 361.128 C 26.231 361.987,27.525 364.874,28.159 365.287 C 28.402 365.444,28.616 365.804,28.637 366.087 C 28.738 367.505,29.373 368.821,30.225 369.380 C 30.747 369.722,31.088 370.226,30.983 370.501 C 30.878 370.775,31.253 371.497,31.816 372.105 C 32.380 372.712,32.714 373.415,32.559 373.667 C 32.385 373.948,32.454 374.014,32.738 373.838 C 32.992 373.681,33.200 373.743,33.200 373.976 C 33.200 374.209,33.453 374.400,33.763 374.400 C 34.119 374.400,34.252 374.679,34.126 375.161 C 33.989 375.687,34.186 376.005,34.763 376.188 C 35.224 376.334,35.600 376.669,35.600 376.932 C 35.600 377.195,36.047 377.746,36.592 378.155 C 37.138 378.565,37.489 379.057,37.371 379.247 C 37.253 379.437,37.617 380.053,38.178 380.615 C 38.740 381.177,39.200 381.525,39.200 381.390 C 39.200 381.254,39.470 381.413,39.800 381.743 C 40.130 382.073,40.400 382.536,40.400 382.771 C 40.400 383.007,40.681 383.200,41.024 383.200 C 41.367 383.200,41.536 383.380,41.400 383.600 C 41.264 383.820,41.534 384.000,42.000 384.000 C 42.466 384.000,42.755 384.149,42.643 384.331 C 42.452 384.640,45.839 387.756,46.100 387.512 C 46.166 387.450,46.485 387.628,46.810 387.907 C 49.177 389.942,49.906 390.419,49.400 389.600 C 49.264 389.380,49.301 389.200,49.482 389.200 C 49.662 389.200,49.990 389.605,50.209 390.100 C 50.429 390.595,50.920 390.975,51.300 390.945 C 51.680 390.915,51.893 391.050,51.772 391.245 C 51.651 391.440,52.058 391.603,52.676 391.606 C 53.549 391.611,53.666 391.699,53.200 392.000 C 52.734 392.301,52.851 392.389,53.724 392.394 C 54.470 392.398,54.751 392.555,54.562 392.862 C 54.400 393.124,54.451 393.216,54.679 393.075 C 54.901 392.938,55.424 393.084,55.841 393.400 C 56.258 393.716,56.915 393.980,57.300 393.987 C 57.685 393.994,58.000 394.180,58.000 394.400 C 58.000 394.620,58.270 394.800,58.600 394.800 C 58.930 394.800,59.200 394.980,59.200 395.200 C 59.200 395.420,59.740 395.600,60.400 395.600 C 61.060 395.600,61.600 395.799,61.600 396.043 C 61.600 396.286,61.870 396.382,62.200 396.255 C 62.565 396.115,62.800 396.255,62.800 396.613 C 62.800 396.972,63.187 397.200,63.800 397.200 C 64.350 397.200,64.800 397.371,64.800 397.581 C 64.800 397.791,65.338 397.894,65.995 397.811 C 66.652 397.728,67.294 397.829,67.422 398.036 C 67.551 398.244,67.823 398.309,68.028 398.183 C 68.232 398.056,68.400 398.143,68.400 398.376 C 68.400 398.609,68.925 398.800,69.567 398.800 C 70.208 398.800,70.808 399.025,70.900 399.300 C 71.106 399.919,242.400 400.265,242.400 399.646 C 242.400 399.442,242.805 399.364,243.300 399.472 C 244.023 399.631,244.082 399.585,243.600 399.241 C 243.125 398.901,243.275 398.811,244.324 398.806 C 245.103 398.803,245.546 398.636,245.400 398.400 C 245.264 398.180,245.444 398.000,245.800 398.000 C 246.156 398.000,246.359 397.857,246.251 397.683 C 246.144 397.509,246.400 397.340,246.820 397.308 C 247.871 397.229,249.450 395.555,249.280 394.700 C 249.204 394.315,249.345 394.000,249.594 394.000 C 249.843 394.000,249.919 394.208,249.762 394.462 C 249.585 394.748,249.652 394.815,249.938 394.638 C 250.192 394.481,250.400 394.093,250.400 393.776 C 250.400 393.459,250.599 393.200,250.843 393.200 C 251.086 393.200,251.182 392.930,251.055 392.600 C 250.915 392.235,251.055 392.000,251.413 392.000 C 251.769 392.000,252.000 391.616,252.000 391.024 C 252.000 390.487,252.151 389.954,252.337 389.839 C 252.522 389.725,252.642 389.101,252.603 388.454 C 252.558 387.686,252.699 387.340,253.010 387.459 C 253.351 387.590,253.509 386.715,253.565 384.384 C 253.618 382.184,253.506 381.211,253.222 381.387 C 252.960 381.548,252.800 381.171,252.800 380.395 C 252.800 379.191,251.964 377.848,251.444 378.216 C 251.306 378.313,251.375 378.179,251.597 377.917 C 252.117 377.302,252.119 376.679,251.600 377.000 C 251.380 377.136,251.200 376.956,251.200 376.600 C 251.200 376.244,251.032 376.056,250.828 376.183 C 250.623 376.309,250.342 376.230,250.204 376.007 C 250.066 375.783,250.127 375.600,250.339 375.600 C 250.551 375.600,250.620 375.200,250.492 374.710 C 250.364 374.221,250.186 374.041,250.097 374.310 C 250.007 374.580,249.758 374.800,249.543 374.800 C 249.328 374.800,249.264 374.620,249.400 374.400 C 249.536 374.180,249.322 373.987,248.924 373.972 C 248.322 373.948,248.304 373.898,248.821 373.672 C 249.781 373.252,247.182 370.800,245.776 370.800 C 245.402 370.800,245.268 370.613,245.442 370.332 C 245.638 370.015,245.511 369.948,245.050 370.125 C 244.624 370.289,244.282 370.158,244.136 369.776 C 244.004 369.433,243.530 369.217,243.051 369.283 C 242.538 369.354,242.240 369.201,242.300 368.900 C 242.355 368.625,242.119 368.400,241.776 368.400 C 241.384 368.400,241.264 368.585,241.453 368.900 C 241.693 369.299,241.629 369.299,241.141 368.904 C 240.658 368.513,224.061 368.407,162.885 368.402 C 115.912 368.398,84.854 368.249,84.262 368.023 C 83.723 367.818,82.262 367.690,81.017 367.737 C 79.532 367.794,78.600 367.641,78.312 367.294 C 78.070 367.002,77.629 366.857,77.332 366.971 C 77.036 367.084,76.300 366.975,75.697 366.728 C 75.093 366.480,74.248 366.211,73.817 366.129 C 73.387 366.047,72.895 365.759,72.723 365.490 C 72.552 365.220,72.409 365.163,72.406 365.362 C 72.403 365.561,72.070 365.426,71.668 365.061 C 71.265 364.697,70.817 364.516,70.673 364.660 C 70.529 364.804,70.036 364.445,69.577 363.861 C 69.118 363.277,68.513 362.800,68.233 362.800 C 67.953 362.800,67.405 362.447,67.014 362.016 C 66.624 361.585,66.188 361.270,66.044 361.316 C 65.748 361.412,65.229 360.987,62.293 358.245 C 61.142 357.169,60.425 356.415,60.700 356.568 C 61.577 357.058,61.238 356.356,60.067 355.260 C 59.444 354.677,58.811 353.705,58.660 353.100 C 58.508 352.495,58.208 352.000,57.992 352.000 C 57.777 352.000,57.600 351.719,57.600 351.376 C 57.600 351.007,57.412 350.869,57.138 351.038 C 56.870 351.204,56.784 351.149,56.933 350.908 C 57.288 350.335,56.410 347.946,55.950 348.231 C 55.734 348.364,55.671 347.932,55.800 347.200 C 55.943 346.389,55.875 346.030,55.611 346.193 C 55.179 346.460,55.123 346.285,55.063 344.500 C 55.043 343.895,54.885 343.299,54.711 343.175 C 54.281 342.868,54.308 58.703,54.738 57.532 C 54.926 57.019,55.034 56.003,54.978 55.273 C 54.911 54.398,55.078 53.868,55.468 53.719 C 55.852 53.571,55.981 53.178,55.835 52.598 C 55.681 51.984,55.923 51.368,56.612 50.625 C 57.163 50.031,57.509 49.377,57.383 49.172 C 57.256 48.968,57.373 48.800,57.643 48.800 C 57.913 48.800,58.018 48.685,57.877 48.544 C 57.564 48.231,58.741 46.040,59.695 45.157 C 60.078 44.804,60.656 43.904,60.980 43.157 C 61.304 42.411,61.576 41.953,61.584 42.141 C 61.593 42.328,62.500 41.562,63.600 40.439 C 64.700 39.315,65.606 38.532,65.613 38.698 C 65.620 38.864,65.897 38.640,66.230 38.200 C 66.562 37.760,66.890 37.490,66.959 37.600 C 67.027 37.710,67.514 37.488,68.041 37.106 C 70.236 35.517,72.000 34.441,72.000 34.692 C 72.000 34.839,72.216 34.744,72.480 34.480 C 72.744 34.216,73.355 34.000,73.837 34.000 C 74.320 34.000,74.813 33.744,74.933 33.431 C 75.067 33.082,75.471 32.946,75.978 33.078 C 76.432 33.197,77.039 33.099,77.326 32.861 C 77.614 32.623,79.223 32.371,80.903 32.302 C 82.583 32.233,84.087 32.047,84.245 31.888 C 84.661 31.473,277.200 31.530,277.200 31.946 C 277.200 32.136,278.589 32.323,280.287 32.363 C 281.985 32.402,283.470 32.579,283.587 32.757 C 283.704 32.934,284.217 33.045,284.727 33.004 C 285.237 32.963,286.317 33.288,287.127 33.726 C 287.937 34.165,289.050 34.557,289.600 34.598 C 290.150 34.640,290.567 34.845,290.528 35.054 C 290.463 35.392,291.021 35.554,292.717 35.691 C 293.002 35.714,293.150 35.952,293.048 36.220 C 292.945 36.488,293.477 37.039,294.230 37.444 C 294.984 37.850,295.600 38.277,295.600 38.393 C 295.600 38.510,296.140 38.844,296.800 39.136 C 297.509 39.450,298.000 39.970,298.000 40.407 C 298.000 40.813,298.360 41.260,298.800 41.400 C 299.256 41.545,299.600 42.005,299.600 42.470 C 299.600 42.991,299.795 43.211,300.141 43.078 C 300.838 42.811,302.161 44.264,301.475 44.544 C 301.125 44.686,301.132 44.745,301.500 44.768 C 301.775 44.786,302.000 45.081,302.000 45.424 C 302.000 45.767,302.180 45.936,302.400 45.800 C 302.620 45.664,302.800 45.799,302.800 46.101 C 302.800 46.402,303.160 47.036,303.600 47.508 C 304.040 47.980,304.400 48.824,304.400 49.383 C 304.400 49.942,304.566 50.400,304.769 50.400 C 305.129 50.400,305.856 52.215,306.189 53.943 C 306.280 54.416,306.494 55.027,306.665 55.302 C 306.836 55.576,306.924 56.195,306.862 56.678 C 306.800 57.161,306.941 57.917,307.177 58.358 C 307.476 58.915,307.608 73.752,307.611 107.080 C 307.614 133.436,307.767 154.761,307.951 154.468 C 308.265 153.971,308.438 154.586,308.888 157.800 C 308.950 158.240,309.414 159.005,309.921 159.500 C 310.427 159.995,310.708 160.400,310.545 160.400 C 310.382 160.400,310.822 160.961,311.524 161.647 C 312.226 162.334,312.800 163.054,312.800 163.247 C 312.800 163.441,313.070 163.600,313.400 163.600 C 313.730 163.600,314.001 163.735,314.003 163.900 C 314.007 164.265,315.949 165.200,316.703 165.200 C 317.002 165.200,317.136 165.380,317.000 165.600 C 316.859 165.828,317.204 166.000,317.800 166.000 C 318.376 166.000,318.744 166.167,318.617 166.372 C 318.480 166.594,320.488 166.746,323.594 166.748 C 326.585 166.751,328.800 166.593,328.800 166.377 C 328.800 166.169,329.160 166.000,329.600 166.000 C 330.040 166.000,330.400 165.820,330.400 165.600 C 330.400 165.380,330.741 165.200,331.157 165.200 C 331.574 165.200,332.013 164.944,332.133 164.631 C 332.273 164.267,332.670 164.145,333.238 164.294 C 333.849 164.454,334.036 164.382,333.839 164.063 C 333.682 163.808,333.719 163.600,333.922 163.600 C 334.879 163.600,336.408 161.491,335.902 160.869 C 335.479 160.347,335.510 160.291,336.100 160.513 C 336.568 160.688,336.800 160.580,336.800 160.187 C 336.800 159.864,337.100 159.600,337.467 159.600 C 337.833 159.600,338.022 159.489,337.886 159.352 C 337.750 159.216,337.889 158.854,338.195 158.548 C 338.502 158.241,338.686 157.647,338.605 157.227 C 338.524 156.807,338.690 156.374,338.972 156.266 C 339.255 156.157,339.627 155.288,339.799 154.334 C 339.971 153.380,340.161 152.375,340.221 152.100 C 340.280 151.825,340.143 151.600,339.916 151.600 C 339.652 151.600,339.668 151.401,339.959 151.049 C 340.531 150.360,340.407 60.630,339.832 59.434 C 339.587 58.925,339.602 58.754,339.876 58.923 C 340.128 59.079,340.242 58.760,340.169 58.097 C 340.104 57.503,339.904 56.968,339.725 56.909 C 339.546 56.849,339.430 55.541,339.467 54.000 C 339.518 51.848,339.405 51.200,338.979 51.200 C 338.669 51.200,338.520 50.954,338.640 50.640 C 338.758 50.333,338.643 49.950,338.385 49.790 C 338.031 49.572,338.040 49.422,338.422 49.186 C 338.820 48.940,338.794 48.737,338.302 48.245 C 337.875 47.818,337.724 47.104,337.829 46.009 C 337.915 45.119,337.809 44.400,337.592 44.400 C 337.376 44.400,337.200 43.860,337.200 43.200 C 337.200 42.540,337.020 42.000,336.800 42.000 C 336.580 42.000,336.400 41.790,336.400 41.534 C 336.400 40.829,335.086 38.000,334.758 38.000 C 334.600 38.000,334.519 37.685,334.579 37.300 C 334.638 36.915,334.533 36.500,334.345 36.378 C 334.158 36.255,333.965 35.690,333.918 35.122 C 333.857 34.382,333.658 34.151,333.216 34.308 C 332.877 34.429,332.727 34.386,332.883 34.214 C 333.039 34.042,332.850 33.608,332.464 33.250 C 332.078 32.893,332.000 32.760,332.290 32.957 C 333.072 33.484,332.520 32.192,330.973 29.870 C 330.169 28.664,329.607 28.138,329.475 28.470 C 329.358 28.761,329.249 28.404,329.232 27.676 C 329.214 26.948,329.036 26.454,328.835 26.579 C 328.634 26.703,328.230 26.264,327.937 25.602 C 327.644 24.941,327.269 24.400,327.102 24.400 C 326.936 24.400,326.800 24.212,326.800 23.982 C 326.800 23.752,326.350 23.114,325.800 22.564 C 325.250 22.014,324.800 21.393,324.800 21.185 C 324.800 20.541,322.322 18.401,321.887 18.670 C 321.650 18.816,321.598 18.727,321.764 18.459 C 322.105 17.906,320.971 16.647,320.432 16.980 C 320.226 17.108,319.943 16.849,319.802 16.406 C 319.661 15.963,319.294 15.600,318.986 15.600 C 318.678 15.600,318.157 15.105,317.829 14.500 C 317.501 13.895,317.225 13.511,317.216 13.647 C 317.207 13.783,316.555 13.287,315.768 12.544 C 314.980 11.801,314.170 11.295,313.968 11.420 C 313.765 11.545,313.600 11.356,313.600 11.000 C 313.600 10.644,313.440 10.451,313.245 10.572 C 313.050 10.693,312.670 10.525,312.400 10.200 C 312.130 9.875,311.774 9.693,311.608 9.795 C 311.442 9.897,310.985 9.625,310.591 9.191 C 310.198 8.756,309.634 8.400,309.338 8.400 C 309.042 8.400,308.800 8.201,308.800 7.957 C 308.800 7.714,308.523 7.621,308.185 7.750 C 307.835 7.885,307.472 7.731,307.343 7.396 C 307.218 7.071,306.954 6.905,306.755 7.028 C 306.557 7.150,306.286 6.969,306.154 6.625 C 306.022 6.281,305.484 6.000,304.957 6.000 C 304.431 6.000,304.000 5.820,304.000 5.600 C 304.000 5.380,303.674 5.200,303.275 5.200 C 302.877 5.200,302.202 4.885,301.775 4.500 C 301.349 4.115,300.550 3.738,300.000 3.662 C 299.450 3.586,298.940 3.361,298.867 3.162 C 298.793 2.963,298.208 2.800,297.567 2.800 C 296.903 2.800,296.397 2.584,296.394 2.300 C 296.390 1.967,296.258 2.000,296.000 2.400 C 295.742 2.800,295.610 2.833,295.606 2.500 C 295.603 2.225,295.251 2.000,294.824 2.000 C 294.397 2.000,293.936 1.820,293.800 1.600 C 293.664 1.380,292.933 1.200,292.176 1.200 C 291.345 1.200,290.798 1.002,290.794 0.700 C 290.790 0.353,290.677 0.376,290.424 0.774 C 290.109 1.273,289.970 1.273,289.369 0.774 C 288.595 0.132,74.800 -0.333,74.800 0.307 M339.500 128.469 C 339.441 140.641,339.393 130.800,339.393 106.600 C 339.393 82.400,339.441 72.441,339.500 84.469 C 339.559 96.497,339.559 116.297,339.500 128.469 M95.391 72.815 C 95.260 73.027,94.803 73.200,94.376 73.200 C 93.949 73.200,93.600 73.380,93.600 73.600 C 93.600 73.820,93.240 74.000,92.800 74.000 C 92.360 74.000,92.000 74.180,92.000 74.400 C 92.000 74.620,91.719 74.800,91.376 74.800 C 91.033 74.800,90.864 74.980,91.000 75.200 C 91.136 75.420,90.954 75.600,90.595 75.600 C 89.973 75.600,88.756 76.533,88.786 76.986 C 88.833 77.688,88.746 77.736,88.400 77.200 C 88.088 76.717,88.011 76.781,88.006 77.524 C 88.003 78.036,87.822 78.337,87.600 78.200 C 87.380 78.064,87.200 78.233,87.200 78.576 C 87.200 78.919,87.001 79.200,86.757 79.200 C 86.514 79.200,86.418 79.470,86.545 79.800 C 86.686 80.167,86.545 80.400,86.182 80.400 C 85.741 80.400,85.636 80.734,85.774 81.700 C 85.876 82.415,85.864 82.775,85.747 82.500 C 85.328 81.520,84.740 82.022,84.810 83.300 C 84.932 85.536,84.853 85.902,84.400 85.200 C 84.125 84.774,84.010 85.267,84.006 86.900 C 84.002 88.426,84.162 89.200,84.480 89.200 C 84.853 89.200,84.853 89.307,84.480 89.680 C 83.831 90.329,83.876 91.133,84.604 91.861 C 84.936 92.193,85.104 92.631,84.979 92.835 C 84.669 93.336,85.670 96.120,86.306 96.525 C 86.587 96.703,86.712 97.018,86.585 97.225 C 86.457 97.431,86.513 97.600,86.709 97.600 C 86.905 97.600,87.304 98.048,87.597 98.595 C 88.040 99.422,88.233 99.506,88.742 99.095 C 89.229 98.701,89.292 98.702,89.053 99.100 C 88.888 99.375,88.943 99.600,89.176 99.600 C 89.409 99.600,89.600 99.965,89.600 100.410 C 89.600 100.990,89.941 101.288,90.800 101.460 C 91.460 101.592,92.000 101.948,92.000 102.250 C 92.000 102.553,92.360 102.800,92.800 102.800 C 93.240 102.800,93.600 102.980,93.600 103.200 C 93.600 103.420,93.791 103.600,94.024 103.600 C 94.257 103.600,94.337 103.422,94.203 103.205 C 94.065 102.982,94.217 102.908,94.548 103.036 C 94.873 103.160,95.227 103.493,95.335 103.776 C 95.593 104.448,112.277 104.614,113.200 103.954 C 113.701 103.595,113.681 103.563,113.079 103.758 C 112.630 103.903,112.457 103.832,112.620 103.568 C 112.763 103.336,113.171 103.257,113.524 103.392 C 114.206 103.654,117.600 102.109,117.600 101.537 C 117.600 101.352,117.825 101.198,118.100 101.196 C 118.734 101.190,121.200 98.675,121.200 98.034 C 121.200 97.769,120.992 97.681,120.738 97.838 C 120.452 98.015,120.385 97.948,120.562 97.662 C 120.719 97.408,121.227 97.200,121.690 97.200 C 122.154 97.200,122.413 97.080,122.266 96.932 C 122.119 96.785,122.278 96.355,122.621 95.977 C 122.963 95.599,123.272 94.909,123.307 94.445 C 123.342 93.980,123.533 93.600,123.732 93.600 C 123.931 93.600,124.014 93.185,123.917 92.679 C 123.820 92.172,123.953 91.560,124.211 91.318 C 124.747 90.818,124.672 84.958,124.131 85.067 C 123.949 85.103,123.764 84.498,123.721 83.721 C 123.677 82.944,123.344 81.981,122.982 81.580 C 122.619 81.179,122.441 80.658,122.586 80.422 C 122.732 80.187,122.569 79.886,122.225 79.754 C 121.881 79.622,121.600 79.253,121.600 78.934 C 121.600 78.614,121.416 78.467,121.190 78.606 C 120.965 78.745,120.806 78.711,120.837 78.530 C 121.008 77.546,120.728 76.800,120.187 76.800 C 119.851 76.800,119.471 76.530,119.345 76.200 C 119.218 75.870,118.758 75.600,118.321 75.600 C 117.885 75.600,117.229 75.241,116.864 74.803 C 116.499 74.365,115.840 73.942,115.400 73.863 C 114.083 73.628,113.191 73.138,113.415 72.775 C 113.531 72.587,109.577 72.433,104.627 72.432 C 99.293 72.431,95.532 72.587,95.391 72.815 M157.807 72.811 C 157.939 73.025,157.577 73.200,157.000 73.200 C 156.404 73.200,156.059 73.372,156.200 73.600 C 156.428 73.969,155.874 74.180,155.059 74.034 C 154.871 74.000,154.421 74.294,154.059 74.686 C 153.696 75.079,153.156 75.451,152.857 75.514 C 152.035 75.687,151.117 76.742,151.395 77.192 C 151.531 77.413,151.393 77.495,151.085 77.377 C 150.779 77.260,150.297 77.442,150.015 77.782 C 149.733 78.122,149.621 78.400,149.767 78.400 C 149.912 78.400,149.664 78.794,149.216 79.275 C 148.453 80.094,148.216 80.967,148.369 82.400 C 148.422 82.889,148.366 82.900,148.067 82.457 C 147.545 81.685,147.176 82.462,147.351 83.965 C 147.431 84.654,147.312 85.331,147.087 85.470 C 146.851 85.616,146.798 85.527,146.962 85.262 C 147.119 85.008,147.079 84.800,146.874 84.800 C 146.334 84.800,146.530 91.186,147.080 91.526 C 147.330 91.680,147.493 92.390,147.444 93.103 C 147.383 93.977,147.533 94.400,147.901 94.400 C 148.201 94.400,148.329 94.592,148.184 94.827 C 148.039 95.061,148.253 95.525,148.660 95.856 C 149.067 96.188,149.130 96.321,148.800 96.153 C 148.289 95.892,148.279 95.944,148.734 96.506 C 149.028 96.868,149.153 97.353,149.011 97.582 C 148.869 97.812,149.044 98.000,149.400 98.000 C 149.756 98.000,149.937 98.178,149.803 98.395 C 149.657 98.631,149.838 98.684,150.249 98.526 C 150.784 98.321,150.879 98.416,150.674 98.951 C 150.528 99.331,150.568 99.543,150.763 99.423 C 150.957 99.303,151.224 99.485,151.355 99.828 C 151.487 100.170,151.780 100.336,152.007 100.196 C 152.234 100.055,152.370 100.179,152.310 100.470 C 152.249 100.762,152.501 100.977,152.868 100.950 C 153.282 100.919,153.456 101.109,153.326 101.450 C 153.186 101.812,153.410 102.000,153.981 102.000 C 154.457 102.000,154.736 102.180,154.600 102.400 C 154.464 102.620,154.644 102.800,155.000 102.800 C 155.411 102.800,155.538 102.618,155.347 102.300 C 155.035 101.781,156.395 102.720,156.845 103.334 C 156.979 103.518,157.204 103.653,157.345 103.634 C 158.138 103.528,158.420 103.644,158.207 103.989 C 158.051 104.241,177.220 104.382,212.383 104.390 C 255.760 104.399,266.780 104.300,266.700 103.901 C 266.638 103.591,266.944 103.448,267.500 103.525 C 268.038 103.600,268.402 103.439,268.406 103.125 C 268.411 102.742,268.517 102.762,268.800 103.200 C 269.058 103.600,269.190 103.633,269.194 103.300 C 269.197 103.025,269.464 102.800,269.786 102.800 C 270.108 102.800,270.565 102.440,270.800 102.000 C 271.035 101.560,271.513 101.200,271.861 101.200 C 272.558 101.200,274.658 99.008,275.023 97.900 C 275.150 97.515,275.422 97.200,275.627 97.200 C 275.832 97.200,276.000 96.919,276.000 96.576 C 276.000 96.207,276.188 96.069,276.462 96.238 C 276.736 96.407,276.815 96.349,276.658 96.094 C 276.512 95.858,276.668 95.390,277.003 95.054 C 277.339 94.718,277.590 94.298,277.560 94.121 C 277.369 92.995,277.661 91.190,278.000 91.400 C 278.255 91.557,278.400 90.404,278.400 88.224 C 278.400 86.341,278.263 84.800,278.095 84.800 C 277.927 84.800,277.568 83.870,277.298 82.733 C 277.028 81.596,276.446 80.329,276.004 79.918 C 275.562 79.506,275.200 78.846,275.200 78.452 C 275.200 78.058,274.736 77.487,274.169 77.183 C 273.602 76.880,272.969 76.316,272.763 75.931 C 272.550 75.533,272.131 75.328,271.794 75.458 C 271.467 75.583,271.200 75.476,271.200 75.219 C 271.200 74.963,270.989 74.883,270.732 75.042 C 270.417 75.236,270.348 75.113,270.519 74.666 C 270.715 74.156,270.544 74.000,269.787 74.000 C 269.244 74.000,268.800 73.809,268.800 73.576 C 268.800 73.343,268.619 73.265,268.397 73.402 C 268.176 73.539,267.886 73.369,267.754 73.025 C 267.622 72.681,267.343 72.400,267.134 72.400 C 266.924 72.400,266.888 72.625,267.053 72.900 C 267.289 73.293,267.220 73.292,266.730 72.895 C 265.940 72.256,157.412 72.172,157.807 72.811 M94.500 135.351 C 94.005 135.592,93.600 136.011,93.600 136.282 C 93.600 136.553,93.335 136.673,93.010 136.549 C 92.686 136.424,92.131 136.611,91.778 136.965 C 91.425 137.318,90.942 137.488,90.706 137.342 C 90.451 137.185,90.393 137.264,90.562 137.538 C 90.719 137.792,90.644 138.000,90.395 138.000 C 89.738 138.000,88.800 139.041,88.800 139.771 C 88.800 140.133,88.461 140.400,88.000 140.400 C 87.542 140.400,87.200 140.667,87.200 141.024 C 87.200 141.367,87.052 141.556,86.870 141.443 C 86.689 141.331,86.554 141.636,86.570 142.120 C 86.587 142.607,86.383 142.958,86.114 142.905 C 85.847 142.852,85.721 143.049,85.833 143.341 C 85.945 143.633,85.758 144.103,85.418 144.385 C 85.078 144.667,84.800 145.416,84.800 146.049 C 84.800 146.682,84.598 147.200,84.351 147.200 C 84.058 147.200,84.093 147.436,84.451 147.877 C 84.824 148.337,84.840 148.457,84.500 148.253 C 83.837 147.855,83.820 149.660,84.480 150.320 C 84.853 150.693,84.853 150.907,84.480 151.280 C 83.825 151.935,83.873 153.866,84.551 154.126 C 84.900 154.260,85.029 154.713,84.904 155.368 C 84.787 155.979,84.889 156.400,85.153 156.400 C 85.399 156.400,85.600 156.760,85.600 157.200 C 85.600 157.640,85.780 158.000,86.000 158.000 C 86.220 158.000,86.379 158.135,86.353 158.300 C 86.109 159.844,87.899 162.144,89.052 161.768 C 89.653 161.572,89.685 161.606,89.213 161.940 C 88.468 162.467,89.844 163.774,92.100 164.683 C 92.925 165.015,93.600 165.439,93.600 165.625 C 93.600 165.810,94.005 165.945,94.500 165.925 C 95.989 165.862,96.459 165.981,96.225 166.360 C 96.096 166.569,99.444 166.733,104.183 166.751 C 109.204 166.770,112.459 166.628,112.610 166.384 C 112.745 166.166,113.023 166.091,113.228 166.217 C 113.432 166.344,113.603 166.122,113.606 165.724 C 113.610 165.318,113.741 165.176,113.906 165.400 C 114.300 165.936,115.329 166.132,115.006 165.610 C 114.858 165.370,115.187 165.200,115.800 165.200 C 116.376 165.200,116.775 165.065,116.687 164.900 C 116.599 164.735,116.858 164.285,117.263 163.900 C 117.669 163.515,118.000 163.391,118.000 163.624 C 118.000 163.857,118.183 163.934,118.407 163.796 C 118.630 163.658,118.709 163.377,118.583 163.172 C 118.456 162.968,118.646 162.800,119.005 162.800 C 119.826 162.800,120.630 161.986,120.584 161.200 C 120.536 160.378,121.614 159.161,122.115 159.471 C 122.349 159.616,122.402 159.526,122.238 159.262 C 122.081 159.008,122.154 158.800,122.400 158.800 C 122.646 158.800,122.744 158.632,122.617 158.428 C 122.491 158.223,122.573 157.940,122.800 157.800 C 123.027 157.660,123.121 157.396,123.009 157.214 C 122.896 157.033,123.085 156.776,123.427 156.645 C 123.860 156.479,123.993 156.050,123.864 155.231 C 123.740 154.442,123.869 153.982,124.257 153.834 C 124.698 153.664,124.736 153.427,124.416 152.830 C 124.186 152.400,124.138 151.962,124.309 151.856 C 124.750 151.584,124.638 148.002,124.180 147.673 C 123.971 147.523,123.768 147.040,123.729 146.600 C 123.591 145.048,123.214 143.856,122.775 143.585 C 122.531 143.434,122.347 143.196,122.366 143.055 C 122.472 142.260,122.341 142.000,121.835 142.000 C 121.525 142.000,121.315 141.701,121.368 141.336 C 121.477 140.592,118.932 138.000,118.093 138.000 C 117.796 138.000,117.663 137.822,117.797 137.605 C 117.937 137.378,117.777 137.311,117.421 137.447 C 117.018 137.602,116.800 137.459,116.800 137.043 C 116.800 136.689,116.530 136.400,116.200 136.400 C 115.870 136.400,115.597 136.625,115.594 136.900 C 115.590 137.243,115.472 137.218,115.220 136.819 C 115.018 136.500,114.942 136.095,115.050 135.919 C 115.158 135.744,114.877 135.600,114.424 135.600 C 113.971 135.600,113.600 135.420,113.600 135.200 C 113.600 134.980,113.409 134.800,113.176 134.800 C 112.943 134.800,112.864 134.980,113.000 135.200 C 113.136 135.420,113.057 135.600,112.824 135.600 C 112.591 135.600,112.400 135.436,112.400 135.235 C 112.400 134.699,95.613 134.808,94.500 135.351 M157.620 135.376 C 157.357 135.693,156.855 135.843,156.505 135.708 C 156.083 135.546,155.966 135.622,156.158 135.932 C 156.401 136.325,155.470 136.646,155.090 136.300 C 154.859 136.089,153.693 137.415,153.863 137.695 C 153.961 137.858,153.781 137.891,153.462 137.769 C 153.129 137.641,152.610 137.936,152.242 138.462 C 151.889 138.966,151.600 139.240,151.600 139.071 C 151.600 138.902,151.131 139.233,150.558 139.806 C 149.984 140.379,149.613 140.946,149.733 141.066 C 149.853 141.186,149.540 141.670,149.038 142.142 C 148.070 143.051,147.471 144.676,147.427 146.514 C 147.412 147.127,147.219 147.757,146.997 147.914 C 146.301 148.408,146.297 154.275,146.993 154.542 C 147.331 154.672,147.485 155.035,147.350 155.385 C 147.210 155.751,147.334 156.002,147.657 156.006 C 148.076 156.011,148.063 156.101,147.600 156.400 C 147.200 156.658,147.167 156.790,147.500 156.794 C 147.775 156.797,148.000 157.065,148.000 157.388 C 148.000 158.251,149.569 160.906,150.489 161.600 C 150.927 161.930,151.746 162.695,152.309 163.300 C 152.872 163.905,153.572 164.400,153.866 164.400 C 154.160 164.400,154.400 164.599,154.400 164.843 C 154.400 165.086,154.664 165.184,154.987 165.060 C 155.310 164.936,155.681 165.007,155.811 165.217 C 155.941 165.428,156.397 165.600,156.824 165.600 C 157.251 165.600,157.600 165.869,157.600 166.197 C 157.600 166.840,265.936 167.131,266.578 166.489 C 266.882 166.185,267.105 166.131,268.400 166.050 C 268.840 166.023,269.200 165.736,269.200 165.413 C 269.200 165.056,269.435 164.915,269.797 165.054 C 270.132 165.183,270.497 165.013,270.630 164.667 C 270.760 164.328,271.110 164.144,271.409 164.259 C 272.016 164.492,274.370 162.109,274.388 161.243 C 274.395 160.937,274.955 160.157,275.632 159.509 C 276.310 158.861,276.766 158.233,276.646 158.113 C 276.526 157.993,276.692 157.519,277.014 157.058 C 277.336 156.598,277.600 155.823,277.600 155.335 C 277.600 154.847,277.780 154.336,278.000 154.200 C 278.220 154.064,278.400 153.413,278.400 152.753 C 278.400 151.899,278.256 151.640,277.900 151.853 C 277.515 152.084,277.505 152.021,277.857 151.577 C 278.399 150.893,278.429 147.508,277.896 147.153 C 277.692 147.017,277.496 146.297,277.462 145.553 C 277.423 144.698,276.995 143.758,276.302 143.000 C 275.698 142.340,275.203 141.522,275.202 141.183 C 275.199 140.348,271.868 137.127,271.163 137.279 C 270.854 137.345,270.645 137.175,270.700 136.900 C 270.755 136.625,270.665 136.421,270.500 136.447 C 269.400 136.621,268.387 136.344,268.638 135.938 C 268.821 135.643,268.747 135.585,268.435 135.778 C 268.151 135.954,267.695 135.771,267.344 135.340 C 267.012 134.933,266.879 134.870,267.047 135.200 C 267.300 135.695,267.247 135.713,266.743 135.306 C 265.839 134.575,161.760 134.567,161.466 135.297 C 161.305 135.697,161.257 135.697,161.232 135.300 C 161.187 134.595,158.216 134.657,157.620 135.376 M94.900 197.808 C 94.185 198.112,93.600 198.540,93.600 198.758 C 93.600 198.976,93.235 199.084,92.789 198.998 C 92.343 198.912,92.084 199.012,92.213 199.221 C 92.342 199.429,92.167 199.600,91.824 199.600 C 91.481 199.600,91.200 199.870,91.200 200.200 C 91.200 200.530,91.009 200.800,90.776 200.800 C 90.543 200.800,90.464 200.620,90.600 200.400 C 90.986 199.775,90.607 199.927,89.600 200.800 C 89.093 201.240,88.828 201.600,89.011 201.600 C 89.195 201.600,88.683 202.190,87.873 202.910 C 86.988 203.697,86.400 204.585,86.400 205.134 C 86.400 205.636,86.245 205.952,86.056 205.835 C 85.867 205.718,85.761 206.067,85.821 206.611 C 85.889 207.233,85.727 207.600,85.384 207.600 C 85.073 207.600,84.854 207.988,84.875 208.500 C 84.937 209.959,84.821 210.460,84.473 210.245 C 84.293 210.134,84.126 211.476,84.101 213.227 C 84.075 215.097,84.210 216.317,84.429 216.182 C 84.804 215.950,84.845 216.103,84.945 218.114 C 84.975 218.727,85.180 219.357,85.400 219.514 C 85.620 219.671,85.800 220.160,85.800 220.600 C 85.800 221.040,86.007 221.361,86.259 221.314 C 86.531 221.263,86.634 221.548,86.512 222.014 C 86.371 222.556,86.507 222.800,86.953 222.800 C 87.309 222.800,87.555 222.958,87.500 223.151 C 87.377 223.582,89.836 226.000,90.396 226.000 C 90.618 226.000,90.800 226.191,90.800 226.424 C 90.800 226.657,90.960 226.749,91.155 226.628 C 91.350 226.507,91.739 226.685,92.019 227.023 C 92.299 227.360,92.776 227.541,93.079 227.425 C 93.382 227.309,93.733 227.480,93.858 227.807 C 93.983 228.133,94.516 228.400,95.043 228.400 C 95.569 228.400,96.000 228.580,96.000 228.800 C 96.000 229.053,98.925 229.200,103.976 229.200 C 108.863 229.200,112.049 229.045,112.200 228.800 C 112.336 228.580,112.662 228.403,112.924 228.406 C 113.210 228.410,113.161 228.567,112.800 228.800 C 112.470 229.013,112.337 229.191,112.505 229.194 C 112.902 229.202,114.421 228.336,115.096 227.717 C 115.386 227.451,115.872 227.329,116.175 227.446 C 116.507 227.573,116.840 227.305,117.008 226.776 C 117.226 226.087,117.364 226.015,117.638 226.447 C 117.890 226.846,117.989 226.861,117.994 226.500 C 117.997 226.225,118.281 226.000,118.624 226.000 C 118.967 226.000,119.136 225.820,119.000 225.600 C 118.864 225.380,118.956 225.200,119.205 225.200 C 119.778 225.200,120.800 224.193,120.800 223.629 C 120.800 223.393,121.025 223.197,121.300 223.194 C 121.661 223.189,121.646 223.090,121.247 222.838 C 120.813 222.563,120.877 222.429,121.547 222.217 C 122.042 222.060,122.400 221.611,122.400 221.149 C 122.400 220.711,122.578 220.463,122.795 220.597 C 123.014 220.733,123.093 220.588,122.972 220.272 C 122.852 219.959,123.052 219.405,123.416 219.041 C 123.780 218.677,123.973 218.107,123.846 217.775 C 123.718 217.442,123.835 217.084,124.107 216.979 C 124.378 216.874,124.613 216.170,124.629 215.414 C 124.646 214.615,124.495 214.141,124.267 214.282 C 124.052 214.415,123.986 214.346,124.121 214.128 C 124.671 213.239,124.785 211.120,124.328 210.288 C 124.059 209.800,123.815 209.025,123.785 208.568 C 123.755 208.110,123.569 207.480,123.372 207.168 C 123.011 206.599,122.943 206.387,122.850 205.551 C 122.817 205.252,122.578 205.285,122.135 205.651 C 121.531 206.149,121.514 206.116,121.949 205.300 C 122.212 204.805,122.286 204.400,122.112 204.400 C 121.938 204.400,121.556 203.860,121.264 203.200 C 120.972 202.540,120.518 202.000,120.255 202.000 C 119.993 202.000,119.470 201.640,119.093 201.200 C 118.716 200.760,118.181 200.399,117.904 200.398 C 117.627 200.397,116.808 199.841,116.084 199.163 C 115.094 198.235,114.638 198.036,114.247 198.361 C 113.640 198.865,113.169 198.546,113.448 197.819 C 113.742 197.053,96.697 197.043,94.900 197.808 M157.892 197.637 C 157.502 197.864,157.303 198.263,157.450 198.525 C 157.634 198.852,157.550 198.844,157.179 198.500 C 156.469 197.841,156.000 197.866,156.000 198.563 C 156.000 198.928,155.720 199.052,155.200 198.916 C 154.753 198.799,154.400 198.904,154.400 199.153 C 154.400 199.399,154.175 199.605,153.900 199.611 C 153.287 199.624,150.400 202.259,150.400 202.805 C 150.400 203.022,150.209 203.200,149.976 203.200 C 149.743 203.200,149.664 203.380,149.800 203.600 C 149.936 203.820,149.747 204.000,149.381 204.000 C 148.953 204.000,148.797 204.215,148.945 204.600 C 149.085 204.965,148.945 205.200,148.587 205.200 C 148.264 205.200,148.000 205.470,148.000 205.800 C 148.000 206.130,148.150 206.400,148.333 206.400 C 148.517 206.400,148.667 206.660,148.667 206.978 C 148.667 207.296,148.562 207.544,148.433 207.530 C 147.375 207.416,147.123 207.692,147.283 208.785 C 147.383 209.468,147.259 210.045,146.990 210.148 C 146.734 210.247,146.508 210.887,146.488 211.571 C 146.469 212.255,146.614 212.715,146.811 212.594 C 147.007 212.472,146.987 212.893,146.765 213.529 C 146.306 214.845,146.388 215.553,147.087 216.306 C 147.373 216.615,147.476 217.319,147.337 218.015 C 147.149 218.953,147.240 219.200,147.774 219.200 C 148.144 219.200,148.352 219.354,148.236 219.541 C 147.971 219.970,148.865 222.400,149.288 222.400 C 149.459 222.400,149.600 222.670,149.600 223.000 C 149.600 223.354,149.969 223.603,150.500 223.606 C 151.245 223.611,151.297 223.685,150.800 224.037 C 150.227 224.442,150.486 224.767,151.490 224.901 C 151.972 224.966,152.800 225.895,152.800 226.371 C 152.800 226.607,153.160 226.800,153.600 226.800 C 154.040 226.800,154.400 226.999,154.400 227.243 C 154.400 227.486,154.657 227.587,154.971 227.467 C 155.285 227.346,155.769 227.521,156.046 227.856 C 156.336 228.205,156.947 228.389,157.479 228.287 C 158.222 228.145,158.317 228.217,157.959 228.649 C 157.584 229.102,166.379 229.190,212.356 229.197 C 263.371 229.205,267.200 229.159,267.200 228.536 C 267.200 228.168,267.318 227.985,267.463 228.130 C 267.608 228.275,268.003 228.170,268.340 227.897 C 268.829 227.500,268.893 227.501,268.653 227.900 C 268.488 228.175,268.543 228.400,268.776 228.400 C 269.009 228.400,269.200 228.220,269.200 228.000 C 269.200 227.780,269.571 227.600,270.024 227.600 C 270.477 227.600,270.736 227.420,270.600 227.200 C 270.464 226.980,270.633 226.800,270.976 226.800 C 271.319 226.800,271.600 226.620,271.600 226.400 C 271.600 226.180,271.735 226.045,271.901 226.100 C 272.355 226.251,275.209 223.538,274.982 223.171 C 274.874 222.995,275.238 222.398,275.792 221.844 C 276.347 221.290,276.800 220.468,276.800 220.018 C 276.800 219.568,276.992 219.200,277.226 219.200 C 277.465 219.200,277.596 218.631,277.526 217.900 C 277.441 217.023,277.563 216.633,277.900 216.700 C 278.655 216.851,278.587 210.930,277.826 210.168 C 277.441 209.784,277.326 209.133,277.478 208.197 C 277.625 207.291,277.546 206.800,277.252 206.800 C 277.004 206.800,276.800 206.461,276.800 206.047 C 276.800 205.630,276.443 205.200,276.000 205.084 C 275.560 204.969,275.200 204.577,275.200 204.214 C 275.200 203.352,272.777 200.341,272.230 200.523 C 271.998 200.601,271.487 200.256,271.095 199.757 C 270.679 199.229,270.064 198.911,269.622 198.996 C 269.205 199.076,268.765 198.885,268.644 198.571 C 268.524 198.257,268.049 198.000,267.589 198.000 C 267.129 198.000,266.861 197.824,266.994 197.609 C 267.151 197.356,248.424 197.216,213.650 197.212 C 171.285 197.206,160.023 197.309,159.864 197.702 C 159.704 198.098,159.657 198.097,159.632 197.700 C 159.594 197.099,158.860 197.073,157.892 197.637 M319.281 197.781 C 318.336 198.028,317.691 198.358,317.848 198.515 C 318.005 198.672,317.738 198.800,317.254 198.800 C 316.771 198.800,316.272 199.069,316.146 199.398 C 316.019 199.726,315.754 199.895,315.555 199.772 C 315.138 199.515,311.168 203.225,311.422 203.636 C 311.515 203.786,311.322 204.133,310.992 204.407 C 310.662 204.680,310.282 205.597,310.146 206.445 C 310.011 207.292,309.743 207.888,309.550 207.769 C 309.358 207.650,309.200 207.923,309.200 208.376 C 309.200 208.829,309.020 209.200,308.800 209.200 C 308.580 209.200,308.400 209.481,308.400 209.824 C 308.400 210.175,308.592 210.329,308.840 210.175 C 309.160 209.978,309.160 210.128,308.840 210.725 C 308.580 211.212,308.400 213.855,308.400 217.202 C 308.400 223.343,308.190 224.000,306.229 224.000 C 305.663 224.000,305.200 224.142,305.200 224.315 C 305.200 224.488,304.811 224.659,304.336 224.695 C 303.861 224.731,303.366 224.905,303.236 225.081 C 303.106 225.258,302.460 225.461,301.800 225.533 C 301.140 225.604,300.330 225.986,300.000 226.383 C 299.475 227.013,298.111 227.520,296.500 227.683 C 296.225 227.711,296.000 227.984,296.000 228.290 C 296.000 228.597,295.835 228.745,295.632 228.620 C 295.430 228.495,294.620 229.001,293.832 229.744 C 293.045 230.487,292.400 231.028,292.400 230.947 C 292.400 230.866,292.069 231.115,291.663 231.500 C 291.258 231.885,290.998 232.333,291.084 232.495 C 291.171 232.658,290.980 232.691,290.661 232.568 C 290.342 232.446,289.945 232.566,289.779 232.835 C 289.573 233.168,289.643 233.221,290.000 233.000 C 290.339 232.790,290.427 232.833,290.249 233.121 C 290.098 233.365,289.679 233.452,289.318 233.313 C 288.818 233.121,288.725 233.226,288.926 233.751 C 289.082 234.159,289.030 234.342,288.799 234.199 C 288.244 233.857,286.580 235.630,286.260 236.904 C 286.077 237.633,285.803 237.899,285.396 237.743 C 285.068 237.617,284.800 237.720,284.800 237.971 C 284.800 238.221,284.166 239.061,283.391 239.836 C 282.615 240.611,282.086 241.415,282.214 241.623 C 282.342 241.830,282.227 242.000,281.957 242.000 C 281.687 242.000,281.568 242.101,281.691 242.225 C 281.815 242.348,281.485 242.915,280.958 243.483 C 280.431 244.052,280.000 244.761,280.000 245.058 C 280.000 245.356,279.820 245.600,279.600 245.600 C 279.380 245.600,279.200 245.960,279.200 246.400 C 279.200 246.840,279.020 247.200,278.800 247.200 C 278.580 247.200,278.400 247.661,278.400 248.224 C 278.400 248.866,278.236 249.146,277.960 248.975 C 277.669 248.795,277.682 249.007,278.000 249.600 C 278.264 250.093,278.302 250.387,278.085 250.253 C 277.619 249.965,277.090 251.417,277.190 252.710 C 277.234 253.279,277.061 253.579,276.730 253.510 C 276.357 253.433,276.237 253.785,276.326 254.700 C 276.395 255.415,276.275 256.000,276.059 256.000 C 275.843 256.000,275.644 256.810,275.617 257.800 C 275.541 260.514,275.495 260.800,275.133 260.800 C 274.950 260.800,274.800 261.171,274.800 261.624 C 274.800 262.176,274.965 262.348,275.300 262.147 C 275.682 261.917,275.679 261.996,275.287 262.480 C 274.696 263.210,274.638 273.110,275.220 273.819 C 275.409 274.050,275.610 274.918,275.666 275.747 C 275.722 276.577,275.910 277.344,276.084 277.452 C 276.258 277.559,276.397 277.862,276.394 278.124 C 276.390 278.410,276.233 278.361,276.000 278.000 C 275.767 277.639,275.610 277.590,275.606 277.876 C 275.603 278.138,275.780 278.464,276.000 278.600 C 276.220 278.736,276.400 279.445,276.400 280.175 C 276.400 280.905,276.659 281.717,276.976 281.980 C 277.293 282.243,277.461 282.697,277.349 282.989 C 277.237 283.280,277.341 283.640,277.579 283.787 C 277.818 283.935,277.902 284.234,277.767 284.453 C 277.632 284.672,277.854 285.230,278.261 285.694 C 278.667 286.158,278.771 286.403,278.490 286.239 C 277.835 285.855,279.427 288.706,280.343 289.556 C 280.725 289.910,280.775 290.020,280.453 289.800 C 279.518 289.160,280.594 290.962,282.015 292.415 C 282.667 293.082,283.200 293.891,283.200 294.214 C 283.200 294.536,283.380 294.800,283.600 294.800 C 283.820 294.800,284.000 295.088,284.000 295.440 C 284.000 295.791,284.839 296.871,285.864 297.840 C 286.889 298.808,287.581 299.600,287.402 299.600 C 287.223 299.600,287.408 299.966,287.813 300.414 C 288.218 300.862,288.786 301.138,289.075 301.027 C 289.367 300.914,289.600 301.096,289.600 301.436 C 289.600 301.772,289.748 301.956,289.929 301.844 C 290.109 301.732,290.558 301.992,290.925 302.420 C 291.292 302.849,291.498 303.200,291.382 303.200 C 291.266 303.200,291.583 303.623,292.086 304.141 C 292.589 304.658,293.223 304.999,293.497 304.899 C 293.770 304.799,294.104 305.005,294.239 305.356 C 294.373 305.708,294.626 305.907,294.800 305.800 C 294.974 305.693,295.219 305.874,295.346 306.202 C 295.472 306.531,295.843 306.800,296.170 306.800 C 296.497 306.800,297.428 307.250,298.238 307.800 C 299.049 308.350,300.137 308.800,300.656 308.800 C 301.175 308.800,301.600 308.980,301.600 309.200 C 301.600 309.420,301.960 309.600,302.400 309.600 C 302.840 309.600,303.200 309.780,303.200 310.000 C 303.200 310.220,303.639 310.400,304.176 310.400 C 304.713 310.400,305.264 310.580,305.400 310.800 C 305.536 311.020,306.177 311.200,306.824 311.200 C 307.471 311.200,308.000 311.387,308.000 311.616 C 308.000 311.852,308.705 311.991,309.627 311.936 C 310.522 311.884,311.377 312.012,311.527 312.222 C 311.984 312.860,314.150 312.969,313.768 312.335 C 313.512 311.909,313.567 311.897,314.035 312.275 C 314.452 312.612,317.579 312.761,324.783 312.786 C 331.487 312.809,335.123 312.970,335.470 313.258 C 335.759 313.498,336.368 313.597,336.822 313.478 C 337.329 313.346,337.733 313.482,337.867 313.831 C 337.987 314.144,338.257 314.400,338.466 314.400 C 338.676 314.400,338.720 314.175,338.564 313.900 C 338.408 313.625,338.869 313.985,339.588 314.700 C 340.307 315.415,341.055 316.000,341.251 316.000 C 341.872 316.000,344.000 318.260,344.000 318.920 C 344.000 319.268,344.180 319.664,344.400 319.800 C 344.620 319.936,344.800 320.492,344.800 321.036 C 344.800 321.580,345.025 322.111,345.300 322.217 C 347.414 323.026,345.162 338.281,342.602 340.493 C 342.161 340.874,341.602 341.350,341.361 341.552 C 341.119 341.753,340.579 341.988,340.161 342.073 C 339.742 342.159,339.442 342.492,339.493 342.815 C 339.562 343.247,339.104 343.424,337.745 343.491 C 336.732 343.542,335.620 343.812,335.275 344.091 C 334.929 344.371,334.754 344.420,334.885 344.200 C 335.042 343.937,330.595 343.800,321.862 343.800 C 308.616 343.800,306.000 343.549,306.000 342.279 C 306.000 342.099,305.820 342.064,305.600 342.200 C 305.380 342.336,305.200 342.167,305.200 341.824 C 305.200 341.481,304.911 341.200,304.557 341.200 C 304.175 341.200,304.000 340.976,304.126 340.649 C 304.242 340.346,304.153 339.913,303.928 339.688 C 303.703 339.463,303.508 338.368,303.495 337.255 C 303.479 335.909,303.325 335.320,303.035 335.493 C 302.796 335.636,302.839 335.459,303.131 335.099 C 303.582 334.542,303.539 334.340,302.845 333.746 C 302.267 333.251,302.147 332.904,302.434 332.559 C 302.709 332.228,302.702 331.987,302.413 331.808 C 302.179 331.663,302.091 331.377,302.217 331.172 C 302.344 330.968,302.262 330.800,302.036 330.800 C 301.810 330.800,301.729 330.530,301.855 330.200 C 302.003 329.815,301.847 329.600,301.419 329.600 C 301.053 329.600,300.864 329.420,301.000 329.200 C 301.136 328.980,301.027 328.800,300.757 328.800 C 300.487 328.800,300.376 328.691,300.509 328.557 C 300.643 328.424,300.409 327.947,299.990 327.497 C 299.571 327.047,299.322 326.526,299.437 326.339 C 299.553 326.153,299.380 326.000,299.053 326.000 C 298.726 326.000,298.104 325.550,297.671 325.000 C 297.239 324.450,296.675 324.000,296.419 324.000 C 296.163 324.000,296.064 323.820,296.200 323.600 C 296.336 323.380,296.077 323.200,295.624 323.200 C 295.171 323.200,294.800 323.009,294.800 322.776 C 294.800 322.543,294.636 322.454,294.436 322.578 C 293.896 322.911,292.766 322.379,293.047 321.924 C 293.194 321.686,292.710 321.581,291.825 321.657 C 291.020 321.727,290.234 321.603,290.080 321.382 C 289.713 320.856,284.507 320.703,284.194 321.209 C 284.062 321.424,283.323 321.600,282.553 321.600 C 281.783 321.600,281.245 321.750,281.358 321.932 C 281.471 322.115,280.950 322.506,280.200 322.800 C 279.440 323.098,278.943 323.527,279.077 323.768 C 279.209 324.005,279.075 323.975,278.779 323.700 C 278.482 323.425,278.051 323.203,277.820 323.206 C 277.589 323.209,277.670 323.387,278.000 323.600 C 278.476 323.908,278.393 323.990,277.600 324.000 C 276.807 324.010,276.724 324.092,277.200 324.400 C 277.628 324.677,277.651 324.790,277.282 324.794 C 276.997 324.797,276.314 325.250,275.764 325.800 C 275.214 326.350,274.613 326.800,274.428 326.800 C 274.130 326.800,273.634 327.900,273.436 329.000 C 273.396 329.220,273.147 329.355,272.882 329.300 C 272.617 329.245,272.400 329.524,272.400 329.920 C 272.400 330.316,272.184 330.856,271.920 331.120 C 271.656 331.384,271.568 331.600,271.725 331.600 C 271.882 331.600,271.772 332.185,271.481 332.900 C 270.829 334.497,270.573 342.587,271.186 342.209 C 271.528 341.997,271.871 345.483,271.647 346.900 C 271.621 347.065,271.780 347.200,272.000 347.200 C 272.220 347.200,272.400 347.545,272.400 347.967 C 272.400 348.388,272.598 348.799,272.840 348.880 C 273.082 348.961,273.280 349.683,273.280 350.486 C 273.280 351.416,273.498 352.029,273.882 352.176 C 274.216 352.304,274.381 352.672,274.254 353.003 C 274.128 353.332,274.169 353.600,274.345 353.600 C 274.675 353.600,274.927 354.061,276.370 357.316 C 276.837 358.370,277.485 359.334,277.810 359.459 C 278.134 359.584,278.400 360.026,278.400 360.443 C 278.400 360.873,278.679 361.200,279.047 361.200 C 279.496 361.200,279.630 361.444,279.484 362.000 C 279.314 362.651,279.473 362.801,280.337 362.806 C 281.170 362.811,281.270 362.896,280.800 363.200 C 280.364 363.482,280.343 363.589,280.724 363.594 C 281.012 363.597,281.133 363.784,280.994 364.010 C 280.855 364.235,280.979 364.370,281.270 364.310 C 281.562 364.249,281.748 364.447,281.684 364.749 C 281.608 365.105,281.791 365.212,282.204 365.054 C 282.555 364.919,282.744 364.967,282.625 365.159 C 282.306 365.676,283.486 366.518,284.044 366.173 C 284.349 365.984,284.419 366.046,284.236 366.342 C 284.061 366.624,284.429 367.081,285.172 367.504 C 285.844 367.887,286.396 368.446,286.397 368.747 C 286.399 369.105,286.690 369.218,287.240 369.074 C 287.701 368.953,287.986 368.947,287.873 369.060 C 287.388 369.545,289.013 370.667,289.700 370.323 C 290.366 369.989,290.614 370.330,290.435 371.337 C 290.402 371.523,290.594 371.602,290.863 371.512 C 291.131 371.423,291.683 371.683,292.090 372.090 C 292.496 372.496,293.003 372.722,293.215 372.591 C 293.427 372.460,293.600 372.531,293.600 372.749 C 293.600 373.199,295.140 373.807,295.905 373.660 C 296.183 373.606,296.523 373.856,296.661 374.215 C 296.861 374.737,296.979 374.761,297.250 374.334 C 297.526 373.897,297.589 373.896,297.594 374.327 C 297.598 374.663,297.877 374.766,298.366 374.611 C 298.788 374.477,299.248 374.555,299.390 374.784 C 299.531 375.013,300.357 375.200,301.224 375.200 C 302.091 375.200,302.800 375.392,302.800 375.628 C 302.800 375.897,303.763 376.020,305.400 375.961 C 308.657 375.843,308.369 375.275,308.423 381.922 C 308.464 386.919,308.549 387.604,309.135 387.632 C 309.501 387.649,309.607 387.743,309.371 387.841 C 309.135 387.939,309.020 388.553,309.116 389.206 C 309.211 389.858,309.449 390.293,309.645 390.172 C 309.957 389.980,310.183 390.840,310.047 391.700 C 310.021 391.865,310.191 392.000,310.424 392.000 C 310.657 392.000,310.736 392.180,310.600 392.400 C 310.464 392.620,310.554 392.800,310.800 392.800 C 311.046 392.800,311.146 392.964,311.022 393.164 C 310.661 393.748,311.218 394.768,311.781 394.552 C 312.070 394.441,312.392 394.727,312.518 395.207 C 312.640 395.676,313.112 396.156,313.566 396.275 C 314.020 396.394,314.310 396.621,314.212 396.781 C 314.113 396.940,314.790 397.492,315.716 398.006 C 316.642 398.520,317.523 399.125,317.673 399.350 C 318.155 400.073,329.554 400.122,330.646 399.406 C 331.155 399.073,331.814 398.800,332.111 398.800 C 332.407 398.800,333.036 398.440,333.508 398.000 C 333.980 397.560,334.463 397.200,334.580 397.200 C 335.293 397.200,336.760 395.419,336.303 395.109 C 335.923 394.850,335.947 394.782,336.400 394.831 C 337.741 394.974,338.090 394.786,337.891 394.026 C 337.776 393.588,337.921 393.162,338.223 393.046 C 339.003 392.747,340.038 390.550,340.125 389.010 C 340.166 388.277,340.335 387.760,340.500 387.862 C 340.889 388.102,340.911 387.623,340.812 381.300 C 340.731 376.164,340.754 376.000,341.564 376.000 C 342.024 376.000,342.400 375.820,342.400 375.600 C 342.400 375.380,343.120 375.200,344.000 375.200 C 344.880 375.200,345.600 375.009,345.600 374.776 C 345.600 374.543,345.780 374.464,346.000 374.600 C 346.220 374.736,346.400 374.650,346.400 374.410 C 346.400 374.096,346.627 374.093,347.200 374.400 C 347.742 374.690,348.000 374.695,348.000 374.414 C 348.000 374.186,348.135 374.021,348.300 374.047 C 348.465 374.073,348.690 374.060,348.800 374.017 C 348.910 373.974,349.285 373.883,349.633 373.815 C 350.989 373.549,354.762 371.462,354.539 371.101 C 354.409 370.892,354.707 370.936,355.200 371.200 C 355.706 371.471,355.986 371.501,355.842 371.269 C 355.703 371.043,355.951 370.743,356.394 370.602 C 356.837 370.461,357.200 370.078,357.200 369.749 C 357.200 369.421,357.380 369.264,357.600 369.400 C 357.820 369.536,358.000 369.462,358.000 369.236 C 358.000 369.010,358.275 368.931,358.612 369.060 C 358.963 369.194,359.529 368.944,359.937 368.472 C 360.330 368.020,360.896 367.594,361.196 367.525 C 361.833 367.379,364.400 364.882,364.400 364.408 C 364.400 364.231,364.681 363.978,365.025 363.846 C 365.375 363.711,365.524 363.401,365.364 363.141 C 365.205 362.884,365.249 362.783,365.464 362.916 C 365.908 363.190,369.254 360.187,368.899 359.833 C 368.771 359.705,368.877 359.600,369.133 359.600 C 369.390 359.600,369.600 359.240,369.600 358.800 C 369.600 358.342,369.867 358.000,370.224 358.000 C 370.567 358.000,370.748 357.839,370.626 357.642 C 370.504 357.445,370.692 357.173,371.044 357.039 C 371.408 356.899,371.585 356.537,371.454 356.197 C 371.315 355.835,371.456 355.600,371.813 355.600 C 372.136 355.600,372.400 355.330,372.400 355.000 C 372.400 354.670,372.535 354.398,372.700 354.395 C 373.149 354.389,374.572 351.238,374.264 350.931 C 374.118 350.785,374.290 350.342,374.648 349.947 C 375.005 349.553,375.191 348.953,375.061 348.615 C 374.926 348.264,375.040 348.000,375.325 348.000 C 375.600 348.000,375.866 347.513,375.915 346.918 C 375.964 346.322,376.184 345.656,376.402 345.438 C 376.621 345.219,376.800 344.446,376.800 343.720 C 376.800 342.994,376.980 342.400,377.200 342.400 C 377.420 342.400,377.600 341.410,377.600 340.200 C 377.600 338.990,377.747 338.000,377.926 338.000 C 378.436 338.000,378.367 333.041,377.852 332.706 C 377.532 332.498,377.548 332.410,377.908 332.406 C 378.300 332.401,378.401 331.022,378.347 326.414 C 378.309 323.122,378.126 320.522,377.939 320.638 C 377.753 320.753,377.573 319.982,377.539 318.924 C 377.468 316.679,377.440 316.463,377.086 315.400 C 376.939 314.960,376.777 314.015,376.725 313.300 C 376.672 312.585,376.488 312.000,376.315 312.000 C 376.142 312.000,376.000 311.449,376.000 310.776 C 376.000 310.063,375.833 309.656,375.600 309.800 C 375.372 309.941,375.200 309.596,375.200 309.000 C 375.200 308.354,375.035 308.055,374.769 308.219 C 374.483 308.396,374.404 308.069,374.534 307.243 C 374.642 306.559,374.566 306.000,374.365 306.000 C 374.164 306.000,374.000 305.752,374.000 305.449 C 374.000 305.146,373.595 304.597,373.100 304.230 C 372.605 303.863,372.423 303.671,372.695 303.802 C 373.019 303.958,373.108 303.827,372.954 303.423 C 372.823 303.083,372.557 302.903,372.363 303.023 C 372.168 303.143,372.110 302.979,372.233 302.658 C 372.488 301.995,371.234 300.332,370.719 300.650 C 370.533 300.765,370.406 300.711,370.437 300.530 C 370.572 299.757,370.335 299.229,369.236 297.846 C 368.493 296.910,367.999 296.565,367.868 296.891 C 367.745 297.197,367.651 297.112,367.632 296.676 C 367.612 296.235,367.420 296.064,367.138 296.238 C 366.851 296.416,366.785 296.348,366.964 296.059 C 367.301 295.512,366.240 294.307,365.784 294.719 C 365.613 294.874,365.586 294.685,365.724 294.300 C 365.897 293.816,365.773 293.600,365.321 293.600 C 364.961 293.600,364.786 293.481,364.931 293.336 C 365.076 293.190,364.791 292.861,364.298 292.603 C 363.804 292.345,363.448 291.916,363.506 291.648 C 363.565 291.381,363.365 291.216,363.063 291.281 C 362.761 291.346,361.966 290.815,361.296 290.100 C 360.627 289.385,359.831 288.800,359.528 288.800 C 359.225 288.800,358.717 288.440,358.400 288.000 C 358.083 287.560,357.403 287.200,356.888 287.200 C 356.366 287.200,356.062 287.023,356.200 286.800 C 356.336 286.580,356.156 286.400,355.800 286.400 C 355.413 286.400,355.267 286.215,355.438 285.938 C 355.620 285.644,355.547 285.585,355.237 285.777 C 354.961 285.947,354.383 285.757,353.906 285.339 C 353.413 284.907,353.204 284.841,353.403 285.179 C 353.596 285.506,353.209 285.376,352.510 284.879 C 351.832 284.395,351.079 284.000,350.838 284.000 C 350.597 284.000,350.400 283.820,350.400 283.600 C 350.400 283.380,349.860 283.200,349.200 283.200 C 348.540 283.200,348.000 283.020,348.000 282.800 C 348.000 282.580,347.460 282.400,346.800 282.400 C 346.140 282.400,345.600 282.202,345.600 281.960 C 345.600 281.685,344.937 281.572,343.833 281.660 C 342.862 281.737,342.073 281.710,342.081 281.600 C 342.131 280.887,341.924 280.765,341.400 281.200 C 341.068 281.476,340.800 281.520,340.800 281.299 C 340.800 281.062,339.414 280.921,337.366 280.950 C 335.053 280.984,333.796 280.837,333.517 280.500 C 333.209 280.128,331.292 280.022,326.051 280.086 L 319.000 280.172 326.200 280.409 L 333.400 280.646 326.200 280.574 C 317.874 280.491,315.588 280.343,315.859 279.905 C 315.966 279.732,315.497 279.479,314.818 279.344 C 314.139 279.208,313.485 278.937,313.364 278.742 C 313.243 278.547,312.932 278.509,312.672 278.658 C 312.413 278.806,312.320 278.794,312.467 278.631 C 312.613 278.467,312.367 277.967,311.919 277.519 C 311.260 276.860,311.040 276.809,310.759 277.253 C 310.505 277.654,310.411 277.553,310.406 276.876 C 310.402 276.281,310.236 276.054,309.938 276.238 C 309.664 276.407,309.585 276.349,309.742 276.094 C 309.888 275.858,309.736 275.393,309.404 275.061 C 309.072 274.729,308.800 274.174,308.800 273.829 C 308.800 273.483,308.612 273.200,308.382 273.200 C 308.153 273.200,308.018 272.885,308.082 272.500 C 308.151 272.089,307.981 271.845,307.670 271.910 C 307.297 271.987,307.221 271.764,307.413 271.160 C 307.614 270.526,307.553 270.382,307.181 270.612 C 306.821 270.834,306.776 270.763,307.024 270.362 C 307.215 270.053,307.409 268.360,307.455 266.600 C 307.507 264.628,307.779 262.940,308.165 262.200 C 308.554 261.452,308.634 260.948,308.377 260.861 C 307.930 260.710,311.883 256.800,312.483 256.800 C 312.683 256.800,312.712 256.575,312.547 256.300 C 312.315 255.913,312.389 255.916,312.877 256.310 C 313.395 256.730,313.548 256.712,313.741 256.210 C 313.870 255.875,314.251 255.600,314.587 255.600 C 314.924 255.600,315.200 255.445,315.200 255.255 C 315.200 255.065,315.695 254.969,316.300 255.040 C 317.568 255.190,318.890 254.869,318.643 254.471 C 318.494 254.231,331.942 254.565,334.989 254.878 C 335.644 254.945,336.499 255.315,336.889 255.700 C 337.280 256.085,337.954 256.400,338.387 256.400 C 338.937 256.400,339.102 256.589,338.935 257.026 C 338.788 257.407,339.027 257.884,339.547 258.248 C 340.120 258.649,340.400 259.272,340.400 260.143 C 340.400 260.856,340.616 261.656,340.880 261.920 C 341.250 262.290,341.250 262.400,340.883 262.400 C 340.391 262.400,340.433 264.567,340.935 265.068 C 341.081 265.214,341.206 265.798,341.213 266.367 C 341.227 267.491,342.120 268.947,342.540 268.527 C 342.683 268.384,342.800 268.567,342.800 268.935 C 342.800 270.114,344.182 272.272,344.812 272.075 C 345.135 271.973,345.280 272.020,345.133 272.179 C 344.776 272.564,346.330 274.090,346.791 273.806 C 346.989 273.683,347.788 274.140,348.564 274.822 C 349.341 275.504,350.147 275.956,350.356 275.827 C 350.565 275.698,350.975 275.824,351.268 276.107 C 351.560 276.390,352.520 276.679,353.400 276.750 C 354.280 276.820,355.109 277.054,355.243 277.270 C 355.501 277.687,356.859 277.586,357.209 277.124 C 357.323 276.973,358.448 276.807,359.709 276.756 C 360.969 276.705,362.000 276.514,362.000 276.332 C 362.000 276.149,362.461 276.000,363.024 276.000 C 363.604 276.000,363.940 275.827,363.800 275.600 C 363.664 275.380,363.878 275.200,364.276 275.200 C 364.674 275.199,365.475 274.794,366.057 274.300 C 366.638 273.805,367.628 272.990,368.257 272.489 C 368.885 271.989,369.355 271.494,369.300 271.389 C 369.085 270.983,369.215 270.405,369.500 270.500 C 369.665 270.555,369.880 270.420,369.978 270.200 C 370.075 269.980,370.490 269.441,370.899 269.002 C 371.308 268.563,371.559 267.888,371.459 267.502 C 371.358 267.117,371.466 266.683,371.699 266.539 C 371.949 266.384,372.006 266.467,371.838 266.738 C 371.681 266.992,371.764 267.200,372.022 267.200 C 372.315 267.200,372.425 266.751,372.315 266.000 C 372.218 265.340,372.268 264.800,372.426 264.800 C 372.913 264.800,373.268 262.708,372.851 262.291 C 372.616 262.056,372.596 261.538,372.800 261.000 C 373.021 260.419,372.975 259.922,372.671 259.592 C 372.351 259.246,372.346 259.164,372.653 259.336 C 372.950 259.502,373.089 259.175,373.057 258.389 C 373.022 257.535,372.846 257.250,372.447 257.403 C 371.988 257.579,371.978 257.508,372.392 257.009 C 372.670 256.674,372.741 256.400,372.549 256.400 C 372.357 256.400,372.222 255.545,372.249 254.500 C 372.303 252.425,372.085 251.500,371.612 251.793 C 371.444 251.896,371.390 251.265,371.491 250.390 C 371.611 249.350,371.515 248.800,371.214 248.800 C 370.960 248.800,370.881 249.008,371.038 249.262 C 371.220 249.556,371.147 249.615,370.838 249.424 C 370.537 249.238,370.448 248.694,370.602 247.990 C 370.791 247.130,370.673 246.760,370.113 246.461 C 369.707 246.243,369.345 245.662,369.308 245.169 C 369.270 244.676,369.096 244.166,368.920 244.036 C 368.744 243.906,368.541 243.458,368.469 243.040 C 368.397 242.622,368.080 242.023,367.765 241.708 C 367.450 241.393,367.275 241.003,367.375 240.841 C 367.475 240.678,367.207 240.293,366.779 239.985 C 366.350 239.676,365.996 239.148,365.991 238.812 C 365.986 238.475,365.266 237.581,364.391 236.824 C 363.516 236.067,362.800 235.296,362.800 235.110 C 362.800 234.767,360.283 232.162,360.100 232.316 C 359.772 232.592,359.195 232.332,359.400 232.000 C 359.536 231.780,359.356 231.600,359.000 231.600 C 358.644 231.600,358.464 231.420,358.600 231.200 C 358.736 230.980,358.679 230.800,358.474 230.800 C 358.269 230.800,357.325 230.091,356.377 229.224 C 355.429 228.358,354.552 227.676,354.427 227.709 C 354.302 227.743,353.795 227.545,353.300 227.271 C 352.805 226.996,352.400 226.896,352.400 227.048 C 352.400 227.200,352.021 226.981,351.558 226.562 C 351.095 226.143,350.600 225.823,350.458 225.852 C 350.316 225.881,349.750 225.718,349.200 225.491 C 348.650 225.264,347.844 225.010,347.409 224.927 C 346.973 224.845,346.442 224.602,346.229 224.389 C 346.015 224.175,345.426 224.000,344.920 224.000 C 344.414 224.000,344.000 223.831,344.000 223.624 C 344.000 223.417,343.325 223.192,342.500 223.124 L 341.000 223.000 340.937 217.200 C 340.857 209.882,340.859 209.916,340.500 210.138 C 340.335 210.240,340.218 209.756,340.239 209.062 C 340.282 207.667,339.235 205.225,338.586 205.210 C 338.118 205.199,336.592 202.800,337.053 202.800 C 337.217 202.800,336.957 202.433,336.475 201.984 C 335.994 201.536,335.600 200.996,335.600 200.784 C 335.600 200.573,335.465 200.421,335.300 200.447 C 334.513 200.572,333.961 200.327,333.157 199.500 C 332.676 199.005,332.428 198.870,332.606 199.200 C 332.784 199.530,332.459 199.372,331.885 198.849 C 331.179 198.207,330.522 197.960,329.857 198.087 C 329.200 198.213,328.934 198.116,329.057 197.795 C 329.300 197.162,321.699 197.151,319.281 197.781 M96.800 259.996 C 96.800 260.204,96.528 260.270,96.195 260.143 C 95.862 260.015,95.367 260.086,95.095 260.300 C 94.823 260.514,94.105 260.808,93.500 260.952 C 92.895 261.097,92.400 261.392,92.400 261.608 C 92.400 261.823,92.085 262.006,91.700 262.013 C 90.863 262.028,89.359 263.092,89.696 263.430 C 90.053 263.786,88.732 265.221,87.659 265.642 C 87.041 265.885,86.800 266.222,86.955 266.626 C 87.090 266.978,87.021 267.137,86.795 266.997 C 86.429 266.771,86.220 267.331,86.368 268.145 C 86.402 268.335,86.129 268.710,85.762 268.979 C 85.376 269.261,85.019 270.212,84.917 271.228 C 84.820 272.197,84.555 273.104,84.328 273.245 C 84.052 273.415,84.069 273.595,84.377 273.786 C 84.686 273.977,84.708 274.228,84.443 274.548 C 83.956 275.135,83.960 278.400,84.447 278.400 C 84.641 278.400,84.800 279.019,84.800 279.776 C 84.800 280.533,84.983 281.266,85.207 281.404 C 85.430 281.542,85.509 281.823,85.383 282.028 C 85.256 282.232,85.354 282.400,85.600 282.400 C 85.846 282.400,85.939 282.575,85.807 282.789 C 85.675 283.002,85.845 283.602,86.185 284.121 C 86.525 284.639,86.667 285.213,86.501 285.396 C 86.336 285.579,86.406 285.610,86.658 285.466 C 86.910 285.322,87.218 285.471,87.343 285.796 C 87.480 286.152,87.854 286.295,88.285 286.156 C 88.841 285.976,88.876 286.013,88.442 286.322 C 87.832 286.756,89.232 288.463,90.418 288.732 C 90.738 288.804,91.270 289.082,91.600 289.349 C 92.630 290.183,94.308 290.904,94.681 290.674 C 94.877 290.552,95.300 290.638,95.619 290.864 C 96.088 291.196,96.061 291.230,95.479 291.042 C 95.057 290.906,94.860 290.973,95.003 291.205 C 95.329 291.732,112.810 291.729,114.198 291.201 C 114.776 290.981,115.149 290.641,115.028 290.445 C 114.906 290.248,115.425 289.972,116.180 289.830 C 116.983 289.679,117.907 289.122,118.406 288.486 C 118.875 287.889,119.129 287.670,118.970 288.000 C 118.811 288.330,119.292 287.990,120.040 287.245 C 120.788 286.499,121.417 285.689,121.438 285.445 C 121.498 284.734,122.358 282.800,122.614 282.800 C 122.742 282.800,122.719 283.008,122.562 283.262 C 122.379 283.557,122.453 283.615,122.765 283.422 C 123.033 283.256,123.169 283.035,123.065 282.932 C 122.961 282.828,123.111 282.291,123.398 281.738 C 123.685 281.186,123.840 280.230,123.744 279.616 C 123.636 278.932,123.768 278.421,124.084 278.300 C 124.726 278.053,124.704 274.293,124.050 272.666 C 123.799 272.043,123.701 271.360,123.832 271.149 C 123.962 270.938,123.770 270.308,123.404 269.750 C 123.038 269.192,122.841 268.471,122.965 268.147 C 123.092 267.816,123.017 267.666,122.795 267.803 C 122.578 267.937,122.400 267.857,122.400 267.624 C 122.400 267.391,122.130 267.200,121.800 267.200 C 121.470 267.200,121.200 266.957,121.200 266.660 C 121.200 265.677,118.824 262.800,118.012 262.800 C 117.581 262.800,117.027 262.425,116.782 261.966 C 116.536 261.507,116.229 261.237,116.100 261.367 C 115.971 261.496,115.580 261.359,115.232 261.062 C 114.304 260.269,113.085 259.886,113.456 260.505 C 113.622 260.780,113.426 260.734,113.015 260.400 C 112.149 259.696,96.800 259.314,96.800 259.996 M158.693 259.899 C 158.084 259.984,157.682 260.210,157.800 260.400 C 157.917 260.589,157.802 260.875,157.545 261.034 C 157.243 261.221,157.184 261.150,157.378 260.835 C 157.582 260.506,157.439 260.388,156.940 260.473 C 156.533 260.543,155.981 260.960,155.714 261.400 C 155.403 261.913,155.223 261.998,155.214 261.638 C 155.203 261.190,155.052 261.210,154.469 261.738 C 154.066 262.102,153.545 262.400,153.311 262.400 C 152.790 262.400,150.400 264.587,150.400 265.064 C 150.400 265.253,150.025 265.642,149.567 265.928 C 149.040 266.257,148.824 266.686,148.980 267.092 C 149.116 267.446,149.029 267.858,148.787 268.008 C 148.087 268.441,147.206 271.356,147.685 271.653 C 147.941 271.810,147.873 272.038,147.506 272.253 C 146.744 272.701,146.380 274.695,146.839 275.903 C 147.077 276.530,147.060 276.761,146.788 276.592 C 146.366 276.332,146.601 278.555,147.077 279.324 C 147.210 279.539,147.382 280.264,147.460 280.935 C 147.538 281.605,147.737 282.255,147.901 282.377 C 148.066 282.500,148.220 282.780,148.243 283.000 C 148.372 284.187,148.980 285.203,149.696 285.430 C 150.337 285.634,150.391 285.760,149.953 286.038 C 149.518 286.313,149.555 286.389,150.124 286.394 C 150.522 286.397,150.765 286.535,150.666 286.700 C 150.450 287.056,151.426 288.041,151.712 287.755 C 151.820 287.647,152.317 288.062,152.817 288.679 C 153.485 289.504,153.656 289.589,153.462 289.000 C 153.243 288.336,153.343 288.370,154.048 289.200 C 154.515 289.750,155.125 290.152,155.403 290.093 C 155.681 290.034,156.013 290.256,156.139 290.586 C 156.271 290.929,156.633 291.085,156.985 290.950 C 157.323 290.821,157.600 290.915,157.600 291.161 C 157.600 291.733,235.440 291.782,235.794 291.210 C 235.921 291.004,236.288 290.936,236.609 291.059 C 236.931 291.182,237.289 291.032,237.407 290.726 C 237.525 290.419,237.991 290.141,238.442 290.107 C 239.417 290.033,240.473 289.241,240.195 288.792 C 240.087 288.617,240.325 288.560,240.723 288.664 C 241.220 288.794,241.597 288.525,241.925 287.804 C 242.188 287.227,242.538 286.836,242.702 286.935 C 242.866 287.035,243.232 286.865,243.516 286.558 C 243.819 286.230,243.858 286.000,243.612 286.000 C 243.342 286.000,243.365 285.725,243.677 285.226 C 243.943 284.800,244.304 284.541,244.480 284.649 C 244.656 284.758,244.800 284.556,244.800 284.200 C 244.800 283.844,244.980 283.664,245.200 283.800 C 245.420 283.936,245.600 283.677,245.600 283.224 C 245.600 282.771,245.825 282.397,246.100 282.394 C 246.433 282.390,246.400 282.258,246.000 282.000 C 245.600 281.742,245.567 281.610,245.900 281.606 C 246.184 281.603,246.400 281.097,246.400 280.433 C 246.400 279.792,246.625 279.175,246.900 279.064 C 247.289 278.906,247.279 278.776,246.857 278.480 C 246.559 278.271,246.480 277.998,246.683 277.873 C 247.320 277.479,247.268 272.400,246.627 272.400 C 246.265 272.400,246.150 272.114,246.292 271.570 C 246.518 270.707,244.912 266.800,244.332 266.800 C 244.149 266.800,244.000 266.440,244.000 266.000 C 244.000 265.535,243.733 265.200,243.363 265.200 C 243.012 265.200,242.628 264.830,242.510 264.377 C 242.383 263.893,242.072 263.640,241.752 263.763 C 241.454 263.878,241.252 263.753,241.305 263.486 C 241.358 263.212,241.076 263.055,240.660 263.127 C 240.216 263.203,240.025 263.083,240.183 262.827 C 240.329 262.592,240.167 262.400,239.824 262.400 C 239.481 262.400,239.198 262.175,239.196 261.900 C 239.194 261.625,238.474 261.098,237.596 260.730 C 236.718 260.361,236.000 260.236,236.000 260.452 C 236.000 260.669,235.597 260.563,235.104 260.218 C 234.266 259.631,162.722 259.332,158.693 259.899 " stroke="none" fill="#ecfcfc" fill-rule="evenodd"></path><path id="path1" d="M309.749 8.917 C 309.596 9.183,309.621 9.265,309.803 9.099 C 309.986 8.934,310.472 9.104,310.885 9.477 C 311.547 10.076,311.606 10.080,311.386 9.509 C 311.059 8.656,310.098 8.309,309.749 8.917 M45.200 12.800 C 44.228 13.680,43.260 14.400,43.049 14.400 C 42.839 14.400,42.782 14.515,42.922 14.656 C 43.168 14.902,45.930 13.037,46.455 12.270 C 46.596 12.065,46.881 12.003,47.089 12.131 C 47.297 12.260,47.467 12.103,47.467 11.782 C 47.467 10.903,47.129 11.054,45.200 12.800 M318.000 14.837 C 318.000 15.078,318.354 15.367,318.787 15.481 C 319.219 15.594,319.687 16.045,319.826 16.483 C 320.001 17.032,320.208 17.152,320.493 16.867 C 320.778 16.582,320.547 16.138,319.753 15.439 C 318.494 14.332,318.000 14.163,318.000 14.837 M38.143 19.508 C 38.290 19.745,38.142 19.998,37.815 20.070 C 37.462 20.147,37.344 20.396,37.524 20.684 C 37.743 21.033,37.960 20.955,38.306 20.403 C 38.659 19.836,38.666 19.564,38.330 19.357 C 38.063 19.192,37.986 19.254,38.143 19.508 M328.077 25.974 C 328.343 26.400,328.705 26.658,328.883 26.549 C 329.061 26.439,328.948 26.090,328.632 25.774 C 327.812 24.955,327.509 25.065,328.077 25.974 M329.206 28.100 C 329.211 28.828,329.286 28.885,329.600 28.400 C 330.101 27.624,330.101 27.200,329.600 27.200 C 329.380 27.200,329.203 27.605,329.206 28.100 M30.368 29.500 C 30.056 30.105,29.651 30.710,29.467 30.844 C 29.283 30.979,29.427 31.202,29.787 31.340 C 30.147 31.478,30.341 31.428,30.218 31.230 C 30.095 31.031,30.180 30.807,30.406 30.731 C 30.777 30.608,31.411 28.400,31.075 28.400 C 30.998 28.400,30.680 28.895,30.368 29.500 M77.051 32.883 C 77.325 33.327,78.400 33.280,78.400 32.825 C 78.400 32.619,78.052 32.476,77.628 32.508 C 77.203 32.540,76.944 32.709,77.051 32.883 M332.069 33.084 C 332.638 33.769,333.200 33.740,333.200 33.025 C 333.200 32.701,332.859 32.475,332.420 32.508 C 331.831 32.553,331.745 32.693,332.069 33.084 M289.635 35.042 C 289.898 35.359,290.201 35.533,290.306 35.427 C 290.412 35.321,291.111 35.702,291.860 36.273 C 292.609 36.844,293.337 37.196,293.478 37.056 C 293.618 36.915,293.529 36.800,293.279 36.800 C 293.029 36.800,292.914 36.569,293.022 36.286 C 293.141 35.977,292.884 35.746,292.378 35.708 C 291.915 35.673,291.262 35.418,290.928 35.140 C 290.010 34.379,289.022 34.304,289.635 35.042 M69.300 36.088 C 68.805 36.327,68.400 36.675,68.400 36.861 C 68.400 37.394,68.765 37.264,69.692 36.400 C 70.652 35.505,70.598 35.462,69.300 36.088 M334.533 37.324 C 334.533 37.605,334.773 38.059,335.067 38.333 C 335.495 38.733,335.600 38.720,335.600 38.265 C 335.600 37.953,335.360 37.499,335.067 37.255 C 334.670 36.926,334.533 36.943,334.533 37.324 M66.233 38.257 C 66.095 38.619,65.869 38.802,65.731 38.665 C 65.525 38.458,64.000 39.848,64.000 40.243 C 64.000 40.640,66.769 38.508,66.783 38.100 C 66.807 37.399,66.533 37.478,66.233 38.257 M294.846 38.350 C 295.371 38.763,295.945 39.115,296.122 39.133 C 296.299 39.150,296.788 39.578,297.208 40.082 C 297.791 40.781,297.977 40.849,297.987 40.368 C 297.994 40.020,297.505 39.480,296.900 39.168 C 296.295 38.855,295.562 38.375,295.271 38.100 C 294.981 37.825,294.551 37.600,294.317 37.600 C 294.084 37.600,294.321 37.938,294.846 38.350 M61.200 42.287 C 61.200 42.533,61.075 43.064,60.922 43.467 C 60.654 44.175,60.670 44.175,61.377 43.474 C 61.923 42.933,61.993 42.633,61.654 42.294 C 61.324 41.964,61.200 41.962,61.200 42.287 M337.606 47.100 C 337.609 47.265,337.780 47.665,337.984 47.988 C 338.445 48.717,338.986 48.261,338.662 47.417 C 338.423 46.794,337.595 46.545,337.606 47.100 M55.843 51.433 C 55.498 52.332,55.537 52.488,56.065 52.312 C 56.595 52.135,56.898 50.800,56.407 50.800 C 56.230 50.800,55.976 51.085,55.843 51.433 M55.167 53.700 C 54.982 54.263,54.793 56.140,54.936 55.993 C 55.039 55.887,55.186 55.440,55.262 55.000 C 55.338 54.560,55.580 54.068,55.800 53.906 C 56.048 53.724,56.010 53.610,55.700 53.606 C 55.425 53.603,55.185 53.645,55.167 53.700 M339.842 58.634 C 339.708 58.983,339.767 59.568,339.974 59.934 C 340.264 60.449,340.341 60.306,340.313 59.300 C 340.274 57.837,340.192 57.722,339.842 58.634 M339.393 106.600 C 339.393 130.800,339.441 140.641,339.500 128.469 C 339.559 116.297,339.559 96.497,339.500 84.469 C 339.441 72.441,339.393 82.400,339.393 106.600 M114.144 73.477 C 114.598 73.931,116.073 74.042,115.801 73.601 C 115.664 73.381,115.173 73.200,114.710 73.200 C 114.246 73.200,113.991 73.325,114.144 73.477 M272.800 75.954 C 272.800 76.149,273.295 76.625,273.900 77.012 L 275.000 77.715 274.030 76.658 C 272.982 75.514,272.800 75.410,272.800 75.954 M148.000 80.800 C 148.000 81.240,147.820 81.600,147.600 81.600 C 147.380 81.600,147.200 81.791,147.200 82.024 C 147.200 82.257,147.365 82.345,147.566 82.221 C 147.767 82.097,148.006 82.219,148.097 82.492 C 148.189 82.766,148.289 82.317,148.319 81.495 C 148.350 80.673,148.291 80.000,148.188 80.000 C 148.085 80.000,148.000 80.360,148.000 80.800 M122.400 80.776 C 122.400 80.983,122.583 81.266,122.807 81.404 C 123.030 81.542,123.092 81.851,122.945 82.089 C 122.793 82.335,122.861 82.410,123.101 82.261 C 123.583 81.963,123.292 80.400,122.753 80.400 C 122.559 80.400,122.400 80.569,122.400 80.776 M146.800 84.200 C 146.429 84.647,146.422 84.800,146.775 84.800 C 147.039 84.800,147.121 85.020,146.959 85.300 C 146.801 85.575,146.824 85.661,147.011 85.492 C 147.302 85.227,147.621 83.600,147.382 83.600 C 147.336 83.600,147.074 83.870,146.800 84.200 M84.254 84.313 C 84.143 84.492,84.196 84.870,84.371 85.153 C 84.619 85.554,84.741 85.531,84.927 85.046 C 85.179 84.390,84.598 83.757,84.254 84.313 M146.492 91.675 C 146.691 92.273,147.600 92.602,147.600 92.076 C 147.600 91.861,147.315 91.576,146.967 91.443 C 146.577 91.293,146.394 91.382,146.492 91.675 M120.562 97.662 C 120.385 97.948,120.452 98.015,120.738 97.838 C 121.022 97.663,121.202 97.832,121.206 98.276 C 121.212 99.011,121.978 98.256,121.994 97.500 C 122.004 97.024,120.877 97.152,120.562 97.662 M274.610 98.503 C 274.175 99.216,273.746 99.980,273.656 100.200 C 273.512 100.552,273.804 100.238,275.593 98.117 C 276.075 97.545,276.116 97.199,275.700 97.203 C 275.535 97.204,275.044 97.789,274.610 98.503 M271.000 101.600 C 270.864 101.820,271.023 102.000,271.353 102.000 C 271.683 102.000,272.064 101.820,272.200 101.600 C 272.336 101.380,272.177 101.200,271.847 101.200 C 271.517 101.200,271.136 101.380,271.000 101.600 M155.299 102.496 C 155.407 103.035,156.008 103.584,156.500 103.594 C 157.075 103.606,156.794 102.989,155.999 102.492 C 155.356 102.090,155.217 102.091,155.299 102.496 M266.639 103.538 C 266.500 103.761,266.582 104.065,266.820 104.212 C 267.435 104.593,267.832 104.072,267.318 103.558 C 267.031 103.271,266.807 103.264,266.639 103.538 M268.000 135.993 C 268.679 136.440,269.881 136.547,269.456 136.123 C 269.304 135.971,268.779 135.790,268.290 135.722 C 267.584 135.623,267.524 135.679,268.000 135.993 M85.836 143.100 L 84.803 145.000 85.774 143.828 C 86.620 142.807,87.368 141.200,86.997 141.200 C 86.926 141.200,86.404 142.055,85.836 143.100 M275.200 141.538 C 275.200 141.724,275.553 142.196,275.985 142.587 C 276.753 143.282,276.760 143.274,276.285 142.252 C 275.818 141.245,275.200 140.838,275.200 141.538 M146.880 146.480 C 146.267 147.093,146.255 148.115,146.863 147.912 C 147.118 147.827,147.387 147.362,147.461 146.879 C 147.615 145.869,147.542 145.818,146.880 146.480 M121.383 159.619 C 120.446 160.654,120.269 161.625,121.073 161.317 C 121.499 161.153,121.535 161.007,121.200 160.800 C 120.889 160.607,120.989 160.444,121.500 160.310 C 121.921 160.200,122.267 159.815,122.267 159.455 C 122.267 158.635,122.275 158.633,121.383 159.619 M275.097 159.995 C 274.714 160.443,274.414 161.122,274.432 161.505 C 274.457 162.055,274.508 162.075,274.678 161.600 C 274.796 161.270,275.160 160.786,275.488 160.525 C 275.815 160.264,276.018 159.855,275.939 159.616 C 275.858 159.373,275.487 159.540,275.097 159.995 M336.800 160.187 C 336.800 160.571,336.569 160.686,336.134 160.519 C 335.687 160.348,335.564 160.417,335.758 160.732 C 336.212 161.466,337.086 161.280,337.316 160.400 C 337.431 159.960,337.362 159.600,337.163 159.600 C 336.963 159.600,336.800 159.864,336.800 160.187 M155.266 165.200 C 155.374 165.530,155.988 165.832,156.631 165.872 C 157.365 165.917,157.503 165.864,157.000 165.729 C 156.560 165.611,155.946 165.308,155.635 165.057 C 155.191 164.698,155.112 164.728,155.266 165.200 M94.670 166.239 C 94.919 166.888,95.839 166.985,96.200 166.400 C 96.336 166.180,96.302 165.986,96.124 165.969 C 95.946 165.953,95.497 165.880,95.128 165.809 C 94.687 165.724,94.530 165.872,94.670 166.239 M92.562 198.893 C 92.095 199.440,92.047 199.597,92.437 199.297 C 92.787 199.027,93.170 198.903,93.287 199.021 C 93.405 199.138,93.608 198.957,93.738 198.617 C 94.085 197.713,93.440 197.864,92.562 198.893 M268.162 198.462 C 267.985 198.748,268.052 198.815,268.338 198.638 C 268.592 198.481,268.800 198.513,268.800 198.710 C 268.800 198.906,269.067 199.067,269.394 199.067 C 269.843 199.067,269.880 198.937,269.545 198.533 C 269.001 197.878,268.537 197.854,268.162 198.462 M116.611 199.558 C 117.620 200.528,119.617 201.213,118.760 200.296 C 118.454 199.968,117.980 199.786,117.705 199.892 C 117.431 199.997,117.096 199.794,116.961 199.442 C 116.825 199.089,116.514 198.800,116.268 198.800 C 116.023 198.800,116.177 199.141,116.611 199.558 M333.233 199.746 C 334.054 200.464,335.161 200.763,334.948 200.209 C 334.820 199.874,334.344 199.600,333.891 199.600 C 333.437 199.600,333.142 199.666,333.233 199.746 M273.600 201.477 C 273.600 201.696,273.960 202.202,274.400 202.600 C 274.840 202.998,275.200 203.234,275.200 203.123 C 275.200 203.013,274.840 202.507,274.400 202.000 C 273.960 201.493,273.600 201.257,273.600 201.477 M337.464 204.000 C 337.854 204.660,338.304 205.200,338.465 205.200 C 338.627 205.200,338.570 204.660,338.340 204.000 C 338.110 203.340,337.659 202.800,337.338 202.800 C 336.855 202.800,336.876 203.006,337.464 204.000 M275.200 204.176 C 275.200 204.493,275.380 204.864,275.600 205.000 C 275.820 205.136,276.000 204.877,276.000 204.424 C 276.000 203.971,275.820 203.600,275.600 203.600 C 275.380 203.600,275.200 203.859,275.200 204.176 M85.780 205.568 C 85.905 205.770,85.736 206.207,85.404 206.539 C 84.659 207.284,84.638 207.600,85.333 207.600 C 85.627 207.600,85.875 207.375,85.886 207.100 C 85.896 206.825,86.035 206.285,86.195 205.900 C 86.375 205.468,86.307 205.200,86.019 205.200 C 85.763 205.200,85.655 205.365,85.780 205.568 M309.238 207.017 C 308.943 208.017,308.814 208.947,308.951 209.084 C 309.088 209.221,309.200 208.933,309.200 208.443 C 309.200 207.951,309.379 207.663,309.600 207.800 C 309.820 207.936,310.000 207.691,310.000 207.256 C 310.000 206.821,310.109 206.181,310.243 205.833 C 310.376 205.485,310.326 205.200,310.130 205.200 C 309.935 205.200,309.533 206.018,309.238 207.017 M147.700 206.665 C 146.939 206.972,147.104 207.558,147.933 207.495 C 148.337 207.465,148.667 207.206,148.667 206.920 C 148.667 206.374,148.518 206.335,147.700 206.665 M277.355 209.428 C 277.490 209.779,277.600 210.141,277.600 210.233 C 277.600 210.325,277.780 210.400,278.000 210.400 C 278.652 210.400,278.455 209.307,277.755 209.038 C 277.284 208.857,277.176 208.962,277.355 209.428 M84.110 210.000 C 84.143 210.440,84.216 210.800,84.271 210.800 C 84.326 210.800,84.565 210.440,84.800 210.000 C 85.138 209.368,85.104 209.200,84.639 209.200 C 84.296 209.200,84.075 209.535,84.110 210.000 M340.264 209.777 C 340.114 210.167,340.172 210.341,340.405 210.197 C 340.622 210.063,340.814 210.278,340.832 210.676 C 340.849 211.074,340.952 211.182,341.060 210.915 C 341.168 210.648,341.091 210.134,340.888 209.771 C 340.546 209.161,340.501 209.161,340.264 209.777 M340.954 218.000 C 340.954 220.750,341.018 221.875,341.096 220.500 C 341.174 219.125,341.174 216.875,341.096 215.500 C 341.018 214.125,340.954 215.250,340.954 218.000 M84.205 216.392 C 84.043 216.655,84.090 217.050,84.310 217.270 C 84.831 217.791,85.245 217.121,84.824 216.438 C 84.578 216.040,84.429 216.029,84.205 216.392 M146.400 216.576 C 146.400 217.177,147.118 217.815,147.436 217.497 C 147.715 217.218,147.163 216.000,146.757 216.000 C 146.561 216.000,146.400 216.259,146.400 216.576 M277.388 216.820 C 277.007 217.435,277.528 217.832,278.042 217.318 C 278.329 217.031,278.336 216.807,278.062 216.639 C 277.839 216.500,277.535 216.582,277.388 216.820 M122.864 219.819 C 122.340 220.969,122.247 221.886,122.700 221.433 C 122.865 221.268,123.006 221.013,123.014 220.867 C 123.022 220.720,123.253 220.195,123.528 219.700 C 123.803 219.205,123.871 218.800,123.678 218.800 C 123.486 218.800,123.120 219.258,122.864 219.819 M301.600 225.202 C 301.141 225.501,301.258 225.573,302.100 225.509 C 302.705 225.463,303.200 225.285,303.200 225.113 C 303.200 224.682,302.325 224.731,301.600 225.202 M348.400 224.992 C 348.400 225.074,348.940 225.411,349.600 225.740 C 350.260 226.069,350.800 226.190,350.800 226.008 C 350.800 225.827,350.260 225.490,349.600 225.260 C 348.940 225.030,348.400 224.909,348.400 224.992 M298.493 226.580 C 297.069 227.366,297.058 227.528,298.450 227.243 C 299.160 227.098,299.814 226.759,299.903 226.490 C 300.103 225.892,299.689 225.919,298.493 226.580 M93.039 227.538 C 92.900 227.761,92.982 228.065,93.220 228.212 C 93.835 228.593,94.232 228.072,93.718 227.558 C 93.431 227.271,93.207 227.264,93.039 227.538 M115.200 227.600 C 114.883 227.796,114.756 228.089,114.918 228.252 C 115.081 228.414,115.423 228.337,115.680 228.080 C 116.284 227.476,115.947 227.138,115.200 227.600 M291.021 231.434 C 290.354 231.922,290.325 232.074,290.815 232.501 C 291.129 232.776,291.257 232.838,291.100 232.640 C 290.942 232.441,291.124 232.051,291.506 231.772 C 291.887 231.493,292.109 231.175,291.999 231.065 C 291.889 230.955,291.449 231.121,291.021 231.434 M285.318 236.979 C 284.937 237.412,284.959 237.575,285.418 237.751 C 285.738 237.874,286.000 237.905,286.000 237.820 C 286.000 237.735,286.109 237.381,286.243 237.033 C 286.539 236.260,285.978 236.228,285.318 236.979 M369.357 245.388 C 369.502 246.375,370.000 246.590,370.000 245.667 C 370.000 245.190,369.836 244.800,369.635 244.800 C 369.435 244.800,369.310 245.065,369.357 245.388 M276.534 252.733 C 276.172 253.314,276.194 253.467,276.638 253.467 C 276.947 253.467,277.200 253.137,277.200 252.733 C 277.200 252.330,277.153 252.000,277.096 252.000 C 277.039 252.000,276.786 252.330,276.534 252.733 M372.268 255.766 C 372.135 256.115,372.221 256.400,372.462 256.400 C 372.747 256.400,372.723 256.611,372.392 257.009 C 371.970 257.518,371.994 257.577,372.543 257.366 C 373.264 257.090,373.372 256.490,372.850 255.666 C 372.577 255.237,372.464 255.256,372.268 255.766 M337.760 256.731 C 338.213 257.185,338.517 257.243,338.825 256.935 C 339.133 256.627,338.952 256.446,338.191 256.300 C 337.218 256.114,337.180 256.152,337.760 256.731 M275.206 258.300 C 275.203 259.235,275.270 260.000,275.355 260.000 C 275.689 260.000,275.840 257.589,275.535 257.109 C 275.342 256.804,275.210 257.280,275.206 258.300 M308.701 259.991 C 307.982 260.830,308.196 261.044,309.149 260.440 C 309.451 260.249,309.629 259.888,309.546 259.637 C 309.454 259.361,309.120 259.501,308.701 259.991 M94.400 260.233 C 93.685 260.630,93.593 260.790,94.076 260.794 C 94.448 260.797,94.874 260.604,95.022 260.365 C 95.169 260.126,95.630 260.019,96.045 260.128 C 96.460 260.236,96.800 260.162,96.800 259.963 C 96.800 259.445,95.571 259.584,94.400 260.233 M111.400 259.895 C 112.060 259.992,112.829 260.260,113.109 260.492 C 113.495 260.811,113.557 260.754,113.366 260.257 C 113.190 259.797,112.678 259.618,111.657 259.660 C 110.299 259.716,110.281 259.732,111.400 259.895 M234.433 259.713 C 234.525 259.775,234.915 260.067,235.300 260.362 C 235.899 260.821,236.000 260.804,236.000 260.249 C 236.000 259.850,235.666 259.600,235.133 259.600 C 234.657 259.600,234.342 259.651,234.433 259.713 M239.200 262.037 C 239.200 262.237,239.481 262.400,239.824 262.400 C 240.167 262.400,240.336 262.580,240.200 262.800 C 240.064 263.020,240.143 263.200,240.376 263.200 C 241.136 263.200,240.821 262.099,240.000 261.884 C 239.560 261.769,239.200 261.838,239.200 262.037 M88.484 264.215 C 88.201 264.537,88.111 264.813,88.284 264.828 C 88.458 264.844,88.240 265.011,87.800 265.200 C 87.220 265.449,87.173 265.552,87.628 265.572 C 87.973 265.587,88.647 265.150,89.125 264.600 C 89.635 264.014,89.789 263.606,89.497 263.615 C 89.224 263.624,88.768 263.894,88.484 264.215 M120.751 265.787 C 121.108 266.550,121.631 267.180,121.914 267.187 C 122.485 267.201,121.933 265.876,120.965 264.908 C 120.127 264.070,120.065 264.323,120.751 265.787 M307.293 267.200 C 307.293 267.970,307.375 268.285,307.476 267.900 C 307.576 267.515,307.576 266.885,307.476 266.500 C 307.375 266.115,307.293 266.430,307.293 267.200 M148.500 267.488 C 148.225 267.586,148.000 267.935,148.000 268.262 C 148.000 268.767,148.098 268.759,148.648 268.210 C 149.352 267.506,149.290 267.206,148.500 267.488 M342.307 268.626 C 341.975 268.959,342.993 271.028,343.697 271.451 C 344.069 271.675,344.063 271.584,343.672 271.102 C 343.382 270.744,343.018 269.979,342.864 269.401 C 342.709 268.823,342.459 268.475,342.307 268.626 M147.200 270.200 C 147.200 270.750,147.269 271.200,147.353 271.200 C 147.438 271.200,147.593 270.750,147.698 270.200 C 147.803 269.650,147.734 269.200,147.545 269.200 C 147.355 269.200,147.200 269.650,147.200 270.200 M370.100 270.100 C 370.155 270.375,369.992 270.561,369.738 270.513 C 369.484 270.465,369.174 270.690,369.050 271.013 C 368.737 271.831,369.599 271.749,370.243 270.900 C 370.884 270.056,370.939 269.600,370.400 269.600 C 370.180 269.600,370.045 269.825,370.100 270.100 M307.456 271.078 C 307.019 271.514,307.173 271.867,307.800 271.867 C 308.130 271.867,308.400 271.727,308.400 271.557 C 308.400 271.106,307.755 270.779,307.456 271.078 M123.824 272.000 C 124.152 273.234,124.800 274.002,124.800 273.156 C 124.800 272.825,124.521 272.204,124.179 271.776 C 123.583 271.030,123.569 271.039,123.824 272.000 M84.110 272.400 C 84.143 272.840,84.312 273.200,84.485 273.200 C 84.658 273.200,84.800 272.840,84.800 272.400 C 84.800 271.960,84.631 271.600,84.425 271.600 C 84.219 271.600,84.077 271.960,84.110 272.400 M146.667 271.867 C 146.520 272.013,146.425 272.688,146.454 273.367 C 146.502 274.440,146.533 274.472,146.693 273.616 C 146.795 273.074,147.175 272.405,147.539 272.128 C 148.127 271.681,148.130 271.624,147.567 271.613 C 147.218 271.606,146.813 271.720,146.667 271.867 M366.648 273.792 C 366.014 274.337,365.311 274.669,365.086 274.530 C 364.844 274.380,364.799 274.475,364.975 274.760 C 365.279 275.251,366.679 274.572,367.929 273.327 C 368.864 272.395,367.839 272.767,366.648 273.792 M275.163 273.500 C 274.989 274.904,275.376 277.433,275.834 277.891 C 276.145 278.202,276.400 278.294,276.400 278.095 C 276.400 277.896,276.275 277.608,276.122 277.455 C 275.814 277.147,275.673 276.445,275.531 274.500 C 275.444 273.303,275.252 272.782,275.163 273.500 M346.588 274.020 C 346.441 274.257,346.870 274.647,347.563 274.909 C 348.244 275.165,348.800 275.516,348.800 275.688 C 348.800 275.859,349.008 276.000,349.262 276.000 C 349.803 276.000,348.521 274.493,347.529 273.962 C 347.096 273.730,346.754 273.751,346.588 274.020 M357.200 277.200 C 357.200 277.420,357.459 277.600,357.776 277.600 C 358.093 277.600,358.464 277.420,358.600 277.200 C 358.736 276.980,358.477 276.800,358.024 276.800 C 357.571 276.800,357.200 276.980,357.200 277.200 M124.118 278.318 C 123.853 278.487,123.667 279.035,123.705 279.537 C 123.782 280.562,124.800 279.619,124.800 278.524 C 124.800 277.918,124.765 277.908,124.118 278.318 M146.428 278.600 C 146.427 279.040,146.690 279.749,147.013 280.176 C 147.756 281.159,147.757 280.853,147.016 279.146 C 146.611 278.214,146.430 278.046,146.428 278.600 M84.157 278.988 C 84.302 279.975,84.800 280.190,84.800 279.267 C 84.800 278.790,84.636 278.400,84.435 278.400 C 84.235 278.400,84.110 278.665,84.157 278.988 M276.093 280.000 C 276.093 280.770,276.175 281.085,276.276 280.700 C 276.376 280.315,276.376 279.685,276.276 279.300 C 276.175 278.915,276.093 279.230,276.093 280.000 M318.939 280.503 C 319.192 280.669,322.588 280.789,326.483 280.769 C 330.379 280.749,333.742 280.841,333.956 280.973 C 334.170 281.105,334.458 281.030,334.596 280.807 C 334.734 280.583,334.702 280.391,334.524 280.380 C 331.310 280.183,318.604 280.283,318.939 280.503 M122.945 281.911 C 123.092 282.149,123.042 282.451,122.832 282.580 C 122.228 282.953,121.232 285.173,121.574 285.384 C 121.827 285.540,122.847 283.952,122.978 283.200 C 122.997 283.090,123.147 282.787,123.313 282.528 C 123.478 282.268,123.402 281.925,123.145 281.766 C 122.863 281.592,122.783 281.649,122.945 281.911 M276.800 282.727 C 276.800 283.153,277.115 283.749,277.500 284.051 C 278.130 284.545,278.147 284.532,277.666 283.918 C 277.372 283.542,277.240 283.060,277.372 282.845 C 277.505 282.631,277.430 282.342,277.207 282.204 C 276.983 282.066,276.800 282.301,276.800 282.727 M352.394 284.782 C 352.941 285.202,353.459 285.474,353.547 285.387 C 353.634 285.300,354.081 285.492,354.542 285.814 C 355.002 286.136,355.563 286.393,355.789 286.384 C 356.015 286.375,355.660 286.067,355.000 285.700 C 354.340 285.333,353.682 285.064,353.538 285.103 C 353.394 285.142,353.057 284.910,352.789 284.587 C 352.521 284.264,352.099 284.004,351.851 284.009 C 351.603 284.014,351.847 284.361,352.394 284.782 M243.687 285.210 C 243.156 286.059,243.437 286.217,244.397 285.611 C 244.801 285.355,244.862 285.102,244.587 284.827 C 244.311 284.551,244.021 284.675,243.687 285.210 M118.394 288.411 C 118.155 288.857,117.761 289.100,117.518 288.949 C 117.254 288.786,117.189 288.859,117.357 289.130 C 117.718 289.714,119.067 288.937,119.067 288.145 C 119.067 287.396,118.903 287.461,118.394 288.411 M151.826 288.122 C 152.064 288.744,152.524 288.970,153.300 288.847 C 153.465 288.821,153.600 288.980,153.600 289.200 C 153.600 289.420,153.802 289.600,154.049 289.600 C 154.356 289.600,154.338 289.407,153.992 288.990 C 153.714 288.655,153.391 288.475,153.275 288.591 C 153.160 288.707,152.728 288.496,152.315 288.123 C 151.611 287.486,151.581 287.486,151.826 288.122 M90.252 288.991 C 90.380 289.326,90.736 289.600,91.043 289.600 C 91.824 289.600,91.736 289.301,90.809 288.805 C 90.164 288.459,90.061 288.494,90.252 288.991 M279.200 288.815 C 279.200 289.041,279.459 289.324,279.775 289.446 C 280.091 289.567,280.300 289.876,280.240 290.133 C 280.180 290.390,280.207 290.464,280.300 290.298 C 280.392 290.131,280.633 290.097,280.834 290.221 C 281.540 290.657,281.190 290.136,280.200 289.275 C 279.650 288.797,279.200 288.590,279.200 288.815 M115.800 289.940 C 115.360 290.083,114.962 290.405,114.915 290.655 C 114.851 290.996,115.078 290.996,115.812 290.655 C 116.533 290.321,117.359 289.377,116.700 289.640 C 116.645 289.662,116.240 289.797,115.800 289.940 M93.366 290.794 C 94.228 291.196,95.188 291.426,95.500 291.306 C 96.309 290.996,95.329 290.441,94.401 290.684 C 94.010 290.786,93.569 290.674,93.422 290.435 C 93.274 290.196,92.848 290.015,92.476 290.032 C 92.104 290.050,92.505 290.393,93.366 290.794 M237.419 290.694 C 237.259 291.113,237.398 291.125,238.109 290.755 C 239.363 290.103,239.399 290.035,238.456 290.106 C 237.997 290.140,237.530 290.405,237.419 290.694 M281.600 292.356 C 281.600 292.618,281.960 293.220,282.400 293.692 C 282.840 294.164,283.200 294.364,283.200 294.137 C 283.200 293.909,282.840 293.307,282.400 292.800 C 281.960 292.293,281.600 292.093,281.600 292.356 M365.600 294.467 C 365.600 294.723,365.711 294.822,365.848 294.686 C 366.249 294.284,367.278 295.550,366.964 296.059 C 366.785 296.348,366.851 296.416,367.138 296.238 C 367.422 296.063,367.602 296.232,367.606 296.676 C 367.611 297.245,367.687 297.282,367.962 296.847 C 368.200 296.472,367.984 295.926,367.290 295.147 C 366.212 293.937,365.600 293.691,365.600 294.467 M297.200 307.600 C 297.750 308.030,298.359 308.386,298.554 308.391 C 298.749 308.396,298.450 308.040,297.891 307.600 C 297.331 307.160,296.722 306.804,296.537 306.809 C 296.352 306.814,296.650 307.170,297.200 307.600 M334.200 313.200 C 334.336 313.420,334.717 313.600,335.047 313.600 C 335.377 313.600,335.536 313.420,335.400 313.200 C 335.264 312.980,334.883 312.800,334.553 312.800 C 334.223 312.800,334.064 312.980,334.200 313.200 M376.806 314.700 C 376.824 315.577,377.588 316.159,377.594 315.300 C 377.597 314.805,377.420 314.400,377.200 314.400 C 376.980 314.400,376.803 314.535,376.806 314.700 M342.400 317.160 C 342.400 317.834,343.972 319.449,343.987 318.789 C 343.994 318.453,343.640 317.870,343.200 317.493 C 342.760 317.116,342.400 316.966,342.400 317.160 M377.600 320.024 C 377.600 320.477,377.780 320.736,378.000 320.600 C 378.220 320.464,378.400 320.093,378.400 319.776 C 378.400 319.459,378.220 319.200,378.000 319.200 C 377.780 319.200,377.600 319.571,377.600 320.024 M275.382 325.315 C 274.789 326.003,274.324 326.800,274.515 326.800 C 274.799 326.800,276.400 325.317,276.400 325.053 C 276.400 324.645,275.834 324.791,275.382 325.315 M299.693 327.200 C 299.968 327.640,300.340 328.000,300.520 328.000 C 300.700 328.000,300.736 328.180,300.600 328.400 C 300.464 328.620,300.543 328.800,300.776 328.800 C 301.481 328.800,301.253 327.940,300.339 327.147 C 299.235 326.190,299.070 326.203,299.693 327.200 M302.259 332.705 C 302.139 332.899,302.392 333.358,302.820 333.725 C 303.718 334.493,303.830 334.137,303.026 333.076 C 302.724 332.678,302.379 332.511,302.259 332.705 M342.707 339.688 C 342.325 340.160,342.092 340.625,342.188 340.721 C 342.464 340.998,343.679 339.634,343.532 339.211 C 343.459 339.001,343.088 339.216,342.707 339.688 M54.255 342.600 C 54.382 342.930,54.646 343.200,54.843 343.200 C 55.039 343.200,55.200 342.930,55.200 342.600 C 55.200 342.270,54.936 342.000,54.613 342.000 C 54.255 342.000,54.115 342.235,54.255 342.600 M306.000 342.256 C 306.000 342.647,307.622 343.386,309.334 343.775 C 310.073 343.943,310.378 343.887,310.210 343.616 C 310.068 343.387,309.507 343.200,308.962 343.200 C 308.418 343.200,307.528 342.909,306.986 342.554 C 306.444 342.199,306.000 342.065,306.000 342.256 M338.275 342.658 C 337.787 343.147,337.981 343.429,338.805 343.429 C 339.247 343.429,339.551 343.253,339.480 343.039 C 339.309 342.528,338.622 342.311,338.275 342.658 M334.000 343.632 C 333.537 343.956,333.617 343.991,334.350 343.783 C 335.086 343.575,335.226 343.637,334.973 344.057 C 334.715 344.485,334.768 344.503,335.223 344.138 C 335.540 343.884,336.250 343.594,336.800 343.493 C 337.485 343.367,337.297 343.294,336.200 343.261 C 335.320 343.234,334.330 343.401,334.000 343.632 M374.480 350.104 C 374.241 350.392,374.190 350.860,374.367 351.147 C 374.600 351.524,374.755 351.415,374.929 350.751 C 375.220 349.636,375.060 349.405,374.480 350.104 M274.800 354.764 C 274.800 355.194,276.390 358.400,276.603 358.400 C 276.863 358.400,276.285 356.776,275.952 356.570 C 275.758 356.451,275.600 356.014,275.600 355.600 C 275.600 355.186,275.420 354.736,275.200 354.600 C 274.980 354.464,274.800 354.538,274.800 354.764 M24.000 355.800 C 24.000 356.130,24.180 356.400,24.400 356.400 C 24.620 356.400,24.800 356.130,24.800 355.800 C 24.800 355.470,24.620 355.200,24.400 355.200 C 24.180 355.200,24.000 355.470,24.000 355.800 M60.826 357.031 C 61.354 357.668,62.000 357.786,62.000 357.247 C 62.000 357.052,61.630 356.796,61.177 356.678 C 60.502 356.502,60.439 356.565,60.826 357.031 M24.859 357.600 C 24.856 358.855,25.390 360.271,25.678 359.773 C 25.797 359.568,25.662 358.770,25.378 358.000 C 24.932 356.793,24.861 356.738,24.859 357.600 M369.600 358.867 C 369.600 359.343,369.651 359.658,369.713 359.567 C 369.775 359.475,370.067 359.085,370.362 358.700 C 370.821 358.101,370.804 358.000,370.249 358.000 C 369.850 358.000,369.600 358.334,369.600 358.867 M277.059 358.704 C 276.782 359.152,277.940 360.594,278.293 360.241 C 278.458 360.075,278.276 359.762,277.888 359.545 C 277.500 359.328,277.288 358.982,277.415 358.775 C 277.543 358.569,277.557 358.400,277.447 358.400 C 277.337 358.400,277.163 358.537,277.059 358.704 M65.548 361.337 C 65.793 361.632,65.875 361.992,65.730 362.137 C 65.585 362.282,65.657 362.400,65.891 362.400 C 66.124 362.400,66.422 362.121,66.553 361.779 C 66.689 361.423,66.622 361.263,66.395 361.403 C 66.178 361.537,66.000 361.457,66.000 361.224 C 66.000 360.991,65.798 360.800,65.551 360.800 C 65.221 360.800,65.220 360.942,65.548 361.337 M366.196 362.807 C 366.058 363.030,365.749 363.092,365.511 362.945 C 365.260 362.790,365.191 362.861,365.347 363.114 C 365.495 363.354,365.298 363.736,364.908 363.963 C 364.519 364.190,364.394 364.381,364.630 364.388 C 364.867 364.395,365.483 363.950,366.000 363.400 C 366.517 362.850,366.829 362.400,366.693 362.400 C 366.558 362.400,366.334 362.583,366.196 362.807 M27.600 365.524 C 27.600 365.739,27.885 366.024,28.233 366.157 C 28.623 366.307,28.806 366.218,28.708 365.925 C 28.509 365.327,27.600 364.998,27.600 365.524 M283.704 366.264 C 283.323 366.418,283.339 366.596,283.775 367.032 C 284.496 367.753,285.046 367.778,284.452 367.063 C 284.207 366.768,284.125 366.408,284.270 366.263 C 284.564 365.969,284.433 365.969,283.704 366.264 M358.000 369.200 C 358.000 369.446,357.820 369.536,357.600 369.400 C 357.380 369.264,357.200 369.433,357.200 369.776 C 357.200 370.119,356.990 370.400,356.733 370.400 C 356.477 370.400,356.355 370.488,356.462 370.596 C 356.713 370.846,358.793 369.891,358.797 369.524 C 358.799 369.372,358.620 369.136,358.400 369.000 C 358.180 368.864,358.000 368.954,358.000 369.200 M30.170 369.878 C 30.229 370.275,30.409 370.570,30.571 370.533 C 31.179 370.396,31.202 370.100,30.642 369.635 C 30.172 369.245,30.084 369.290,30.170 369.878 M289.671 370.356 C 289.268 370.605,289.284 370.772,289.745 371.155 C 290.393 371.692,290.908 371.223,290.463 370.502 C 290.304 370.245,289.955 370.181,289.671 370.356 M31.600 372.277 C 31.600 372.496,31.960 373.002,32.400 373.400 C 32.840 373.798,33.200 374.034,33.200 373.923 C 33.200 373.813,32.840 373.307,32.400 372.800 C 31.960 372.293,31.600 372.057,31.600 372.277 M248.905 373.853 C 249.293 373.967,249.507 374.227,249.381 374.430 C 249.256 374.634,249.358 374.800,249.610 374.800 C 250.379 374.800,249.785 373.805,248.967 373.723 C 248.320 373.658,248.310 373.678,248.905 373.853 M340.950 380.200 C 340.951 382.620,341.016 383.558,341.096 382.285 C 341.176 381.012,341.175 379.032,341.094 377.885 C 341.014 376.738,340.949 377.780,340.950 380.200 M308.649 388.700 C 309.001 390.167,309.362 390.489,309.113 389.114 C 309.005 388.516,309.115 387.946,309.358 387.846 C 309.601 387.745,309.482 387.649,309.092 387.632 C 308.519 387.606,308.435 387.809,308.649 388.700 M252.370 388.700 C 252.354 388.865,252.263 389.416,252.169 389.924 C 252.075 390.433,252.156 390.751,252.349 390.632 C 252.683 390.425,252.865 388.400,252.550 388.400 C 252.468 388.400,252.387 388.535,252.370 388.700 M49.078 389.456 C 48.758 389.775,49.119 390.400,49.624 390.400 C 49.831 390.400,50.000 390.130,50.000 389.800 C 50.000 389.181,49.528 389.005,49.078 389.456 M309.524 390.209 C 309.069 390.665,309.722 392.400,310.347 392.394 C 310.722 392.390,310.830 392.263,310.600 392.094 C 310.380 391.932,310.138 391.440,310.062 391.000 C 309.900 390.062,309.808 389.926,309.524 390.209 M53.804 392.807 C 53.942 393.030,54.224 393.109,54.430 392.981 C 54.637 392.854,54.914 393.031,55.046 393.375 C 55.178 393.719,55.581 393.996,55.943 393.991 C 56.439 393.984,56.355 393.791,55.600 393.200 C 54.544 392.374,53.379 392.119,53.804 392.807 M56.800 394.400 C 56.800 394.620,57.070 394.800,57.400 394.800 C 57.730 394.800,58.000 394.620,58.000 394.400 C 58.000 394.180,57.730 394.000,57.400 394.000 C 57.070 394.000,56.800 394.180,56.800 394.400 " stroke="none" fill="#f4fcfc" fill-rule="evenodd"></path></g></svg>