<svg id="svg" xmlns="http://www.w3.org/2000/svg" xmlns:xlink="http://www.w3.org/1999/xlink" width="400" height="400" viewBox="0, 0, 400,400" version="1.1"><g id="svgg"><path id="path0" d="M70.597 1.167 C 48.437 5.986,30.257 23.706,23.702 46.875 C 21.467 54.778,21.467 345.222,23.702 353.125 C 29.761 374.541,44.323 390.070,65.234 397.414 L 71.484 399.609 156.437 399.825 C 239.809 400.036,241.446 400.011,244.425 398.492 C 255.913 392.631,255.936 376.131,244.464 370.278 C 241.551 368.792,239.331 368.750,163.898 368.734 C 121.235 368.726,84.134 368.401,81.452 368.013 C 68.985 366.210,59.060 357.927,55.481 346.340 C 53.005 338.323,53.005 61.677,55.481 53.660 C 59.031 42.166,68.923 33.798,81.027 32.047 C 88.164 31.016,273.551 31.015,280.686 32.047 C 291.340 33.587,301.658 41.578,305.598 51.340 L 307.422 55.859 307.813 105.859 C 308.241 160.746,307.979 157.879,313.016 162.646 C 321.044 170.241,336.099 166.187,339.028 155.640 C 340.115 151.726,340.118 60.013,339.031 53.125 C 335.033 27.789,316.473 7.425,292.039 1.567 C 283.704 -0.431,79.640 -0.800,70.597 1.167 M93.359 73.852 C 82.588 79.607,81.330 93.517,90.893 101.127 L 93.895 103.516 104.297 103.516 L 114.699 103.516 117.701 101.127 C 126.241 94.331,126.242 82.237,117.704 75.436 C 113.981 72.471,97.902 71.424,93.359 73.852 M155.859 73.876 C 145.102 79.510,143.834 93.520,153.393 101.127 L 156.395 103.516 212.500 103.516 L 268.605 103.516 271.607 101.127 C 280.148 94.330,280.148 82.233,271.608 75.436 L 268.606 73.047 213.404 72.848 C 164.487 72.672,157.936 72.789,155.859 73.876 M93.359 136.352 C 82.588 142.107,81.330 156.017,90.893 163.627 L 93.895 166.016 104.297 166.016 L 114.699 166.016 117.701 163.627 C 126.241 156.831,126.242 144.737,117.704 137.936 C 113.981 134.971,97.902 133.924,93.359 136.352 M155.859 136.376 C 145.102 142.010,143.834 156.020,153.393 163.627 L 156.395 166.016 212.500 166.016 L 268.605 166.016 271.607 163.627 C 280.148 156.830,280.148 144.733,271.608 137.936 L 268.606 135.547 213.404 135.348 C 164.487 135.172,157.936 135.289,155.859 136.376 M93.359 198.852 C 82.588 204.607,81.330 218.517,90.893 226.127 L 93.895 228.516 104.297 228.516 L 114.699 228.516 117.701 226.127 C 126.241 219.331,126.242 207.237,117.704 200.436 C 113.981 197.471,97.902 196.424,93.359 198.852 M155.859 198.876 C 145.102 204.510,143.834 218.520,153.393 226.127 L 156.395 228.516 212.500 228.516 L 268.605 228.516 271.607 226.127 C 280.148 219.330,280.148 207.233,271.608 200.436 L 268.606 198.047 213.404 197.848 C 164.487 197.672,157.936 197.789,155.859 198.876 M317.578 198.843 C 310.978 202.394,308.635 207.007,308.611 216.497 L 308.594 223.228 304.035 224.890 C 265.578 238.913,265.416 295.658,303.792 310.007 C 308.282 311.686,310.833 312.021,322.656 312.490 C 343.293 313.308,346.815 316.140,345.962 331.230 C 345.337 342.298,342.056 344.141,322.977 344.141 C 305.012 344.141,304.064 343.706,302.839 334.902 C 300.238 316.215,273.072 317.190,271.261 336.035 C 269.467 354.704,287.858 375.781,305.942 375.781 L 308.594 375.781 308.594 381.866 C 308.594 393.759,313.875 399.609,324.609 399.609 C 335.339 399.609,340.625 393.758,340.625 381.881 C 340.625 375.895,340.655 375.804,342.773 375.335 C 389.151 365.067,391.063 294.888,345.307 282.379 C 342.837 281.704,335.598 280.998,328.254 280.715 C 314.393 280.182,312.696 279.661,309.123 274.837 C 306.901 271.837,306.459 265.115,308.237 261.366 C 313.231 250.843,340.625 251.111,340.625 261.684 C 340.625 274.484,357.253 281.712,367.004 273.151 C 381.332 260.571,365.409 227.255,343.359 223.677 L 340.625 223.233 340.625 216.470 C 340.625 208.478,338.913 204.260,334.122 200.448 C 330.423 197.504,321.648 196.653,317.578 198.843 M93.359 261.352 C 82.588 267.107,81.330 281.017,90.893 288.627 L 93.895 291.016 104.297 291.016 L 114.699 291.016 117.701 288.627 C 126.241 281.831,126.242 269.737,117.704 262.936 C 113.981 259.971,97.902 258.924,93.359 261.352 M155.859 261.373 C 145.100 267.022,143.833 281.019,153.393 288.627 L 156.395 291.016 196.875 291.016 L 237.355 291.016 240.357 288.627 C 248.898 281.830,248.898 269.733,240.358 262.936 L 237.356 260.547 197.780 260.345 C 163.017 260.168,157.918 260.293,155.859 261.373 " stroke="none" fill="#000000" fill-rule="evenodd"></path></g></svg>