<svg id="svg" version="1.1" xmlns="http://www.w3.org/2000/svg" xmlns:xlink="http://www.w3.org/1999/xlink" width="400" height="400" viewBox="0, 0, 400,400"><g id="svgg"><path id="path0" d="M0.000 140.800 L 0.000 281.600 23.200 281.600 L 46.400 281.600 46.400 285.800 C 46.400 288.333,46.559 290.000,46.800 290.000 C 47.020 290.000,47.200 290.720,47.200 291.600 C 47.200 292.480,47.380 293.200,47.600 293.200 C 47.820 293.200,48.000 293.920,48.000 294.800 C 48.000 295.680,48.180 296.400,48.400 296.400 C 48.620 296.400,48.800 296.839,48.800 297.376 C 48.800 297.913,48.980 298.464,49.200 298.600 C 49.420 298.736,49.600 299.197,49.600 299.624 C 49.600 300.051,49.780 300.400,50.000 300.400 C 50.220 300.400,50.400 300.760,50.400 301.200 C 50.400 301.640,50.580 302.000,50.800 302.000 C 51.020 302.000,51.200 302.360,51.200 302.800 C 51.200 303.240,51.380 303.600,51.600 303.600 C 51.820 303.600,52.000 303.960,52.000 304.400 C 52.000 304.840,52.180 305.200,52.400 305.200 C 52.620 305.200,52.800 305.436,52.800 305.725 C 52.800 306.013,53.160 306.636,53.600 307.108 C 54.040 307.580,54.400 308.114,54.400 308.295 C 54.400 308.476,54.760 308.883,55.200 309.200 C 55.640 309.517,56.000 309.964,56.000 310.192 C 56.000 310.935,62.835 318.400,63.515 318.400 C 63.716 318.400,64.446 318.940,65.137 319.600 C 65.828 320.260,66.582 320.800,66.813 320.800 C 67.044 320.800,67.620 321.160,68.092 321.600 C 68.564 322.040,69.187 322.400,69.475 322.400 C 69.764 322.400,70.000 322.580,70.000 322.800 C 70.000 323.020,70.360 323.200,70.800 323.200 C 71.240 323.200,71.600 323.380,71.600 323.600 C 71.600 323.820,71.960 324.000,72.400 324.000 C 72.840 324.000,73.200 324.164,73.200 324.365 C 73.200 324.566,73.920 324.851,74.800 325.000 C 75.680 325.149,76.400 325.434,76.400 325.635 C 76.400 325.836,76.850 326.000,77.400 326.000 C 77.950 326.000,78.400 326.180,78.400 326.400 C 78.400 326.620,79.120 326.800,80.000 326.800 C 80.880 326.800,81.600 326.980,81.600 327.200 C 81.600 327.420,82.320 327.600,83.200 327.600 C 84.080 327.600,84.800 327.780,84.800 328.000 C 84.800 328.255,88.067 328.400,93.800 328.400 C 99.533 328.400,102.800 328.255,102.800 328.000 C 102.800 327.780,103.520 327.600,104.400 327.600 C 105.280 327.600,106.000 327.420,106.000 327.200 C 106.000 326.980,106.630 326.800,107.400 326.800 C 108.170 326.800,108.800 326.620,108.800 326.400 C 108.800 326.180,109.340 326.000,110.000 326.000 C 110.660 326.000,111.200 325.836,111.200 325.635 C 111.200 325.434,111.920 325.149,112.800 325.000 C 113.680 324.851,114.400 324.566,114.400 324.365 C 114.400 324.164,114.760 324.000,115.200 324.000 C 115.640 324.000,116.000 323.820,116.000 323.600 C 116.000 323.380,116.360 323.200,116.800 323.200 C 117.240 323.200,117.600 323.020,117.600 322.800 C 117.600 322.580,117.836 322.400,118.125 322.400 C 118.413 322.400,119.036 322.040,119.508 321.600 C 119.980 321.160,120.509 320.797,120.683 320.793 C 121.639 320.771,131.600 311.155,131.600 310.254 C 131.600 309.992,131.960 309.517,132.400 309.200 C 132.840 308.883,133.200 308.476,133.200 308.295 C 133.200 308.114,133.560 307.580,134.000 307.108 C 134.440 306.636,134.800 306.013,134.800 305.725 C 134.800 305.436,134.980 305.200,135.200 305.200 C 135.420 305.200,135.600 304.840,135.600 304.400 C 135.600 303.960,135.780 303.600,136.000 303.600 C 136.220 303.600,136.400 303.240,136.400 302.800 C 136.400 302.360,136.580 302.000,136.800 302.000 C 137.020 302.000,137.200 301.640,137.200 301.200 C 137.200 300.760,137.347 300.400,137.528 300.400 C 137.708 300.400,138.104 299.489,138.407 298.375 C 138.710 297.261,139.103 296.260,139.279 296.151 C 139.456 296.042,139.600 295.333,139.600 294.576 C 139.600 293.819,139.780 293.200,140.000 293.200 C 140.220 293.200,140.400 292.491,140.400 291.624 C 140.400 290.757,140.580 289.936,140.800 289.800 C 141.023 289.662,141.200 287.796,141.200 285.576 L 141.200 281.600 199.973 281.600 L 258.747 281.600 258.946 285.500 C 259.202 290.497,259.586 293.200,260.040 293.200 C 260.238 293.200,260.400 293.819,260.400 294.576 C 260.400 295.333,260.580 296.064,260.800 296.200 C 261.020 296.336,261.200 296.876,261.200 297.400 C 261.200 297.924,261.380 298.464,261.600 298.600 C 261.820 298.736,262.000 299.197,262.000 299.624 C 262.000 300.051,262.180 300.400,262.400 300.400 C 262.620 300.400,262.800 300.760,262.800 301.200 C 262.800 301.640,262.980 302.000,263.200 302.000 C 263.420 302.000,263.600 302.360,263.600 302.800 C 263.600 303.240,263.780 303.600,264.000 303.600 C 264.220 303.600,264.400 303.960,264.400 304.400 C 264.400 304.840,264.580 305.200,264.800 305.200 C 265.020 305.200,265.200 305.436,265.200 305.725 C 265.200 306.013,265.560 306.636,266.000 307.108 C 266.440 307.580,266.800 308.114,266.800 308.295 C 266.800 308.476,267.160 308.883,267.600 309.200 C 268.040 309.517,268.400 309.997,268.400 310.266 C 268.400 311.145,278.382 320.771,279.317 320.793 C 279.491 320.797,280.020 321.160,280.492 321.600 C 280.964 322.040,281.587 322.400,281.875 322.400 C 282.164 322.400,282.400 322.580,282.400 322.800 C 282.400 323.020,282.760 323.200,283.200 323.200 C 283.640 323.200,284.000 323.380,284.000 323.600 C 284.000 323.820,284.360 324.000,284.800 324.000 C 285.240 324.000,285.600 324.164,285.600 324.365 C 285.600 324.566,286.320 324.851,287.200 325.000 C 288.080 325.149,288.800 325.434,288.800 325.635 C 288.800 325.836,289.340 326.000,290.000 326.000 C 290.660 326.000,291.200 326.180,291.200 326.400 C 291.200 326.620,291.830 326.800,292.600 326.800 C 293.370 326.800,294.000 326.980,294.000 327.200 C 294.000 327.420,294.720 327.600,295.600 327.600 C 296.480 327.600,297.200 327.780,297.200 328.000 C 297.200 328.255,300.467 328.400,306.200 328.400 C 311.933 328.400,315.200 328.255,315.200 328.000 C 315.200 327.780,315.920 327.600,316.800 327.600 C 317.680 327.600,318.400 327.420,318.400 327.200 C 318.400 326.980,319.120 326.800,320.000 326.800 C 320.880 326.800,321.600 326.620,321.600 326.400 C 321.600 326.180,322.050 326.000,322.600 326.000 C 323.150 326.000,323.600 325.836,323.600 325.635 C 323.600 325.434,324.320 325.149,325.200 325.000 C 326.080 324.851,326.800 324.566,326.800 324.365 C 326.800 324.164,327.160 324.000,327.600 324.000 C 328.040 324.000,328.400 323.820,328.400 323.600 C 328.400 323.380,328.760 323.200,329.200 323.200 C 329.640 323.200,330.000 323.020,330.000 322.800 C 330.000 322.580,330.236 322.400,330.525 322.400 C 330.813 322.400,331.436 322.040,331.908 321.600 C 332.380 321.160,332.956 320.800,333.187 320.800 C 333.418 320.800,334.172 320.260,334.863 319.600 C 335.554 318.940,336.282 318.400,336.481 318.400 C 336.800 318.400,338.601 316.607,342.797 312.111 C 343.459 311.403,344.000 310.587,344.000 310.300 C 344.000 310.012,344.360 309.517,344.800 309.200 C 345.240 308.883,345.600 308.476,345.600 308.295 C 345.600 308.114,345.960 307.580,346.400 307.108 C 346.840 306.636,347.200 306.013,347.200 305.725 C 347.200 305.436,347.380 305.200,347.600 305.200 C 347.820 305.200,348.000 304.840,348.000 304.400 C 348.000 303.960,348.180 303.600,348.400 303.600 C 348.620 303.600,348.800 303.240,348.800 302.800 C 348.800 302.360,348.980 302.000,349.200 302.000 C 349.420 302.000,349.600 301.640,349.600 301.200 C 349.600 300.760,349.780 300.400,350.000 300.400 C 350.220 300.400,350.400 300.051,350.400 299.624 C 350.400 299.197,350.580 298.736,350.800 298.600 C 351.020 298.464,351.200 297.913,351.200 297.376 C 351.200 296.839,351.380 296.400,351.600 296.400 C 351.820 296.400,352.000 295.680,352.000 294.800 C 352.000 293.920,352.180 293.200,352.400 293.200 C 352.620 293.200,352.800 292.480,352.800 291.600 C 352.800 290.720,352.980 290.000,353.200 290.000 C 353.441 290.000,353.600 288.333,353.600 285.800 L 353.600 281.600 376.805 281.600 L 400.011 281.600 399.905 225.533 C 399.822 181.111,399.696 169.432,399.300 169.300 C 399.025 169.208,398.800 168.788,398.800 168.367 C 398.800 167.945,398.620 167.600,398.400 167.600 C 398.180 167.600,398.000 167.240,398.000 166.800 C 398.000 166.360,397.820 166.000,397.600 166.000 C 397.380 166.000,397.200 165.640,397.200 165.200 C 397.200 164.760,397.020 164.400,396.800 164.400 C 396.580 164.400,396.400 164.040,396.400 163.600 C 396.400 163.160,396.220 162.800,396.000 162.800 C 395.780 162.800,395.600 162.440,395.600 162.000 C 395.600 161.560,395.454 161.200,395.275 161.200 C 395.096 161.200,394.702 160.570,394.400 159.800 C 394.098 159.030,393.704 158.400,393.525 158.400 C 393.346 158.400,393.200 158.040,393.200 157.600 C 393.200 157.160,393.020 156.800,392.800 156.800 C 392.580 156.800,392.400 156.440,392.400 156.000 C 392.400 155.560,392.220 155.200,392.000 155.200 C 391.780 155.200,391.600 154.893,391.600 154.517 C 391.600 153.741,386.391 143.071,385.912 142.867 C 385.741 142.793,385.600 142.388,385.600 141.967 C 385.600 141.545,385.420 141.200,385.200 141.200 C 384.980 141.200,384.800 140.840,384.800 140.400 C 384.800 139.960,384.620 139.600,384.400 139.600 C 384.180 139.600,384.000 139.240,384.000 138.800 C 384.000 138.360,383.820 138.000,383.600 138.000 C 383.380 138.000,383.200 137.640,383.200 137.200 C 383.200 136.760,383.020 136.400,382.800 136.400 C 382.580 136.400,382.400 136.040,382.400 135.600 C 382.400 135.160,382.220 134.800,382.000 134.800 C 381.780 134.800,381.600 134.440,381.600 134.000 C 381.600 133.560,381.420 133.200,381.200 133.200 C 380.980 133.200,380.800 132.840,380.800 132.400 C 380.800 131.960,380.620 131.600,380.400 131.600 C 380.180 131.600,380.000 131.240,380.000 130.800 C 380.000 130.360,379.820 130.000,379.600 130.000 C 379.380 130.000,379.200 129.640,379.200 129.200 C 379.200 128.760,379.054 128.400,378.875 128.400 C 378.696 128.400,378.302 127.770,378.000 127.000 C 377.698 126.230,377.304 125.600,377.125 125.600 C 376.946 125.600,376.800 125.240,376.800 124.800 C 376.800 124.360,376.620 124.000,376.400 124.000 C 376.180 124.000,376.000 123.640,376.000 123.200 C 376.000 122.760,375.820 122.400,375.600 122.400 C 375.380 122.400,375.200 122.092,375.200 121.715 C 375.200 120.938,369.193 108.672,368.712 108.467 C 368.541 108.393,368.400 107.988,368.400 107.567 C 368.400 107.145,368.220 106.800,368.000 106.800 C 367.780 106.800,367.600 106.440,367.600 106.000 C 367.600 105.560,367.420 105.200,367.200 105.200 C 366.980 105.200,366.800 104.840,366.800 104.400 C 366.800 103.960,366.620 103.600,366.400 103.600 C 366.180 103.600,366.000 103.240,366.000 102.800 C 366.000 102.360,365.820 102.000,365.600 102.000 C 365.380 102.000,365.200 101.640,365.200 101.200 C 365.200 100.760,365.020 100.400,364.800 100.400 C 364.580 100.400,364.400 100.040,364.400 99.600 C 364.400 99.160,364.220 98.800,364.000 98.800 C 363.780 98.800,363.600 98.440,363.600 98.000 C 363.600 97.560,363.420 97.200,363.200 97.200 C 362.980 97.200,362.800 96.840,362.800 96.400 C 362.800 95.960,362.620 95.600,362.400 95.600 C 362.180 95.600,362.000 95.240,362.000 94.800 C 362.000 94.360,361.854 94.000,361.675 94.000 C 361.496 94.000,361.102 93.370,360.800 92.600 C 360.498 91.830,360.104 91.200,359.925 91.200 C 359.746 91.200,359.600 90.840,359.600 90.400 C 359.600 89.960,359.420 89.600,359.200 89.600 C 358.980 89.600,358.800 89.306,358.800 88.947 C 358.800 88.186,352.784 75.865,352.315 75.667 C 352.142 75.593,352.000 75.188,352.000 74.767 C 352.000 74.345,351.820 74.000,351.600 74.000 C 351.380 74.000,351.200 73.640,351.200 73.200 C 351.200 72.760,351.020 72.400,350.800 72.400 C 350.580 72.400,350.400 72.117,350.400 71.771 C 350.400 69.936,352.054 70.000,304.429 70.000 L 259.600 70.000 259.600 35.000 L 259.600 0.000 129.800 0.000 L 0.000 0.000 0.000 140.800 M235.600 105.600 L 235.600 187.200 129.800 187.200 L 24.000 187.200 24.000 105.600 L 24.000 24.000 129.800 24.000 L 235.600 24.000 235.600 105.600 M333.429 94.571 C 333.743 94.886,334.000 95.426,334.000 95.771 C 334.000 96.117,334.180 96.400,334.400 96.400 C 334.620 96.400,334.800 96.760,334.800 97.200 C 334.800 97.640,334.980 98.000,335.200 98.000 C 335.420 98.000,335.600 98.360,335.600 98.800 C 335.600 99.240,335.780 99.600,336.000 99.600 C 336.220 99.600,336.400 99.960,336.400 100.400 C 336.400 100.840,336.580 101.200,336.800 101.200 C 337.020 101.200,337.200 101.560,337.200 102.000 C 337.200 102.440,337.380 102.800,337.600 102.800 C 337.820 102.800,338.000 103.160,338.000 103.600 C 338.000 104.040,338.180 104.400,338.400 104.400 C 338.620 104.400,338.800 104.760,338.800 105.200 C 338.800 105.640,338.946 106.000,339.125 106.000 C 339.304 106.000,339.698 106.630,340.000 107.400 C 340.302 108.170,340.696 108.800,340.875 108.800 C 341.054 108.800,341.200 109.160,341.200 109.600 C 341.200 110.040,341.380 110.400,341.600 110.400 C 341.820 110.400,342.000 110.659,342.000 110.976 C 342.000 111.293,342.528 112.688,343.174 114.076 L 344.347 116.600 313.374 116.702 L 282.400 116.805 282.400 152.402 L 282.400 188.000 329.200 188.000 L 376.000 188.000 376.000 199.200 L 376.000 210.400 364.400 210.400 L 352.800 210.400 352.800 222.600 L 352.800 234.800 364.400 234.800 L 376.000 234.800 376.000 246.200 L 376.000 257.600 361.600 257.600 C 347.467 257.600,347.200 257.585,347.200 256.800 C 347.200 256.360,347.050 256.000,346.868 256.000 C 346.685 256.000,346.281 255.505,345.970 254.900 C 345.660 254.295,345.089 253.509,344.703 253.153 C 344.316 252.797,344.000 252.309,344.000 252.068 C 344.000 251.021,337.820 244.913,334.648 242.827 C 333.301 241.941,331.983 241.033,331.717 240.808 C 331.451 240.584,330.956 240.400,330.617 240.400 C 330.278 240.400,330.000 240.220,330.000 240.000 C 330.000 239.780,329.640 239.600,329.200 239.600 C 328.760 239.600,328.399 239.465,328.397 239.300 C 328.393 238.941,326.456 238.000,325.720 238.000 C 325.434 238.000,325.200 237.820,325.200 237.600 C 325.200 237.380,324.840 237.200,324.400 237.200 C 323.960 237.200,323.600 237.020,323.600 236.800 C 323.600 236.580,323.150 236.400,322.600 236.400 C 322.050 236.400,321.600 236.220,321.600 236.000 C 321.600 235.780,320.970 235.600,320.200 235.600 C 319.430 235.600,318.800 235.420,318.800 235.200 C 318.800 234.980,317.990 234.800,317.000 234.800 C 316.010 234.800,315.200 234.620,315.200 234.400 C 315.200 234.145,311.933 234.000,306.200 234.000 C 300.467 234.000,297.200 234.145,297.200 234.400 C 297.200 234.620,296.390 234.800,295.400 234.800 C 294.410 234.800,293.600 234.980,293.600 235.200 C 293.600 235.420,293.060 235.600,292.400 235.600 C 291.740 235.600,291.200 235.780,291.200 236.000 C 291.200 236.220,290.660 236.400,290.000 236.400 C 289.340 236.400,288.800 236.580,288.800 236.800 C 288.800 237.020,288.440 237.200,288.000 237.200 C 287.560 237.200,287.200 237.380,287.200 237.600 C 287.200 237.820,286.840 238.000,286.400 238.000 C 285.960 238.000,285.600 238.180,285.600 238.400 C 285.600 238.620,285.240 238.800,284.800 238.800 C 284.360 238.800,284.000 238.980,284.000 239.200 C 284.000 239.420,283.640 239.600,283.200 239.600 C 282.760 239.600,282.400 239.780,282.400 240.000 C 282.400 240.220,282.040 240.400,281.600 240.400 C 281.160 240.400,280.800 240.550,280.800 240.732 C 280.800 240.915,280.305 241.317,279.700 241.624 C 277.076 242.959,268.400 250.991,268.400 252.086 C 268.400 252.317,268.084 252.797,267.697 253.153 C 267.311 253.509,266.740 254.295,266.430 254.900 C 266.119 255.505,265.715 256.000,265.532 256.000 C 265.350 256.000,265.200 256.360,265.200 256.800 C 265.200 257.524,264.933 257.600,262.400 257.600 L 259.600 257.600 259.600 175.800 L 259.600 94.000 296.229 94.000 C 327.440 94.000,332.942 94.085,333.429 94.571 M356.967 141.443 C 357.315 141.576,357.600 142.026,357.600 142.443 C 357.600 142.859,357.780 143.200,358.000 143.200 C 358.220 143.200,358.400 143.490,358.400 143.844 C 358.400 144.605,364.414 156.939,364.880 157.133 C 365.056 157.207,365.200 157.612,365.200 158.033 C 365.200 158.455,365.380 158.800,365.600 158.800 C 365.820 158.800,366.000 159.160,366.000 159.600 C 366.000 160.040,366.180 160.400,366.400 160.400 C 366.620 160.400,366.800 160.760,366.800 161.200 C 366.800 161.640,366.980 162.000,367.200 162.000 C 367.420 162.000,367.600 162.360,367.600 162.800 C 367.600 163.593,367.333 163.600,337.200 163.600 L 306.800 163.600 306.800 152.400 L 306.800 141.200 331.567 141.200 C 345.189 141.200,356.619 141.309,356.967 141.443 M235.600 234.400 L 235.600 257.600 185.200 257.600 C 135.067 257.600,134.800 257.596,134.800 256.800 C 134.800 256.360,134.650 256.000,134.468 256.000 C 134.285 256.000,133.881 255.505,133.570 254.900 C 133.260 254.295,132.689 253.509,132.303 253.153 C 131.916 252.797,131.600 252.317,131.600 252.086 C 131.600 250.991,122.924 242.959,120.300 241.624 C 119.695 241.317,119.200 240.915,119.200 240.732 C 119.200 240.550,118.840 240.400,118.400 240.400 C 117.960 240.400,117.600 240.220,117.600 240.000 C 117.600 239.780,117.240 239.600,116.800 239.600 C 116.360 239.600,115.999 239.465,115.997 239.300 C 115.993 238.941,114.056 238.000,113.320 238.000 C 113.034 238.000,112.800 237.820,112.800 237.600 C 112.800 237.380,112.440 237.200,112.000 237.200 C 111.560 237.200,111.200 237.020,111.200 236.800 C 111.200 236.580,110.660 236.400,110.000 236.400 C 109.340 236.400,108.800 236.220,108.800 236.000 C 108.800 235.780,108.260 235.600,107.600 235.600 C 106.940 235.600,106.400 235.420,106.400 235.200 C 106.400 234.980,105.590 234.800,104.600 234.800 C 103.610 234.800,102.800 234.620,102.800 234.400 C 102.800 234.145,99.533 234.000,93.800 234.000 C 88.067 234.000,84.800 234.145,84.800 234.400 C 84.800 234.620,83.990 234.800,83.000 234.800 C 82.010 234.800,81.200 234.980,81.200 235.200 C 81.200 235.420,80.570 235.600,79.800 235.600 C 79.030 235.600,78.400 235.780,78.400 236.000 C 78.400 236.220,77.950 236.400,77.400 236.400 C 76.850 236.400,76.400 236.580,76.400 236.800 C 76.400 237.020,76.040 237.200,75.600 237.200 C 75.160 237.200,74.800 237.380,74.800 237.600 C 74.800 237.820,74.440 238.000,74.000 238.000 C 73.560 238.000,73.200 238.180,73.200 238.400 C 73.200 238.620,72.840 238.800,72.400 238.800 C 71.960 238.800,71.600 238.980,71.600 239.200 C 71.600 239.420,71.240 239.600,70.800 239.600 C 70.360 239.600,70.000 239.780,70.000 240.000 C 70.000 240.220,69.640 240.400,69.200 240.400 C 68.760 240.400,68.400 240.550,68.400 240.732 C 68.400 240.915,67.905 241.315,67.300 241.620 C 65.407 242.577,61.461 245.656,60.000 247.316 C 59.230 248.192,58.015 249.508,57.300 250.241 C 56.585 250.974,56.000 251.783,56.000 252.040 C 56.000 252.296,55.684 252.797,55.297 253.153 C 54.911 253.509,54.340 254.295,54.030 254.900 C 53.719 255.505,53.315 256.000,53.132 256.000 C 52.950 256.000,52.800 256.360,52.800 256.800 C 52.800 257.585,52.533 257.600,38.400 257.600 L 24.000 257.600 24.000 234.400 L 24.000 211.200 129.800 211.200 L 235.600 211.200 235.600 234.400 M98.800 259.200 C 98.800 259.420,99.340 259.600,100.000 259.600 C 100.660 259.600,101.200 259.780,101.200 260.000 C 101.200 260.220,101.740 260.400,102.400 260.400 C 103.060 260.400,103.600 260.580,103.600 260.800 C 103.600 261.020,103.920 261.200,104.312 261.200 C 104.703 261.200,105.283 261.560,105.600 262.000 C 105.917 262.440,106.392 262.800,106.654 262.800 C 106.917 262.800,107.642 263.360,108.266 264.045 C 108.890 264.730,109.940 265.857,110.600 266.548 C 111.260 267.240,112.055 268.300,112.368 268.903 C 112.680 269.506,113.085 270.000,113.268 270.000 C 113.450 270.000,113.600 270.360,113.600 270.800 C 113.600 271.240,113.780 271.600,114.000 271.600 C 114.220 271.600,114.400 271.949,114.400 272.376 C 114.400 272.803,114.580 273.264,114.800 273.400 C 115.020 273.536,115.200 274.177,115.200 274.824 C 115.200 275.471,115.380 276.000,115.600 276.000 C 115.846 276.000,116.000 278.000,116.000 281.200 C 116.000 284.400,115.846 286.400,115.600 286.400 C 115.380 286.400,115.200 286.929,115.200 287.576 C 115.200 288.223,115.020 288.864,114.800 289.000 C 114.580 289.136,114.400 289.687,114.400 290.224 C 114.400 290.761,114.220 291.200,114.000 291.200 C 113.780 291.200,113.600 291.470,113.600 291.800 C 113.600 292.130,113.450 292.400,113.268 292.400 C 113.085 292.400,112.680 292.895,112.368 293.500 C 112.055 294.105,111.440 294.982,111.000 295.449 C 110.560 295.916,109.510 297.041,108.666 297.949 C 107.823 298.857,106.960 299.600,106.750 299.600 C 106.539 299.600,105.980 299.960,105.508 300.400 C 105.036 300.840,104.413 301.200,104.125 301.200 C 103.836 301.200,103.600 301.380,103.600 301.600 C 103.600 301.820,103.060 302.000,102.400 302.000 C 101.740 302.000,101.200 302.180,101.200 302.400 C 101.200 302.620,100.660 302.800,100.000 302.800 C 99.340 302.800,98.800 302.980,98.800 303.200 C 98.800 303.445,96.875 303.600,93.824 303.600 C 90.937 303.600,88.743 303.432,88.600 303.200 C 88.464 302.980,87.924 302.800,87.400 302.800 C 86.876 302.800,86.336 302.620,86.200 302.400 C 86.064 302.180,85.513 302.000,84.976 302.000 C 84.439 302.000,84.000 301.820,84.000 301.600 C 84.000 301.380,83.764 301.200,83.475 301.200 C 83.187 301.200,82.564 300.840,82.092 300.400 C 81.620 299.960,81.056 299.600,80.839 299.600 C 80.146 299.600,75.430 294.577,74.604 292.959 C 74.166 292.101,73.708 291.310,73.587 291.200 C 73.466 291.090,73.131 290.190,72.844 289.200 C 72.557 288.210,72.160 287.087,71.961 286.705 C 71.463 285.748,71.498 276.110,72.000 275.800 C 72.220 275.664,72.400 275.201,72.400 274.771 C 72.400 274.341,72.559 273.677,72.753 273.295 C 72.948 272.913,73.353 272.060,73.653 271.400 C 73.954 270.740,74.425 269.962,74.700 269.671 C 74.975 269.381,75.200 268.882,75.200 268.564 C 75.200 267.902,80.165 262.800,80.809 262.800 C 81.043 262.800,81.620 262.440,82.092 262.000 C 82.564 261.560,83.187 261.200,83.475 261.200 C 83.764 261.200,84.000 261.020,84.000 260.800 C 84.000 260.580,84.439 260.400,84.976 260.400 C 85.513 260.400,86.064 260.220,86.200 260.000 C 86.336 259.780,86.887 259.600,87.424 259.600 C 87.961 259.600,88.400 259.420,88.400 259.200 C 88.400 258.954,90.400 258.800,93.600 258.800 C 96.800 258.800,98.800 258.954,98.800 259.200 M311.400 259.200 C 311.536 259.420,312.076 259.600,312.600 259.600 C 313.124 259.600,313.664 259.780,313.800 260.000 C 313.936 260.220,314.487 260.400,315.024 260.400 C 315.561 260.400,316.000 260.580,316.000 260.800 C 316.000 261.020,316.320 261.200,316.712 261.200 C 317.103 261.200,317.683 261.560,318.000 262.000 C 318.317 262.440,318.783 262.800,319.035 262.800 C 319.700 262.800,323.813 266.851,324.762 268.442 C 326.175 270.809,327.600 273.996,327.600 274.788 C 327.600 275.209,327.780 275.664,328.000 275.800 C 328.502 276.110,328.537 285.748,328.039 286.705 C 327.840 287.087,327.443 288.210,327.156 289.200 C 326.869 290.190,326.534 291.090,326.413 291.200 C 326.292 291.310,325.834 292.101,325.396 292.959 C 324.570 294.577,319.854 299.600,319.161 299.600 C 318.944 299.600,318.380 299.960,317.908 300.400 C 317.436 300.840,316.813 301.200,316.525 301.200 C 316.236 301.200,316.000 301.380,316.000 301.600 C 316.000 301.820,315.561 302.000,315.024 302.000 C 314.487 302.000,313.936 302.180,313.800 302.400 C 313.664 302.620,313.124 302.800,312.600 302.800 C 312.076 302.800,311.536 302.980,311.400 303.200 C 311.257 303.432,309.063 303.600,306.176 303.600 C 303.125 303.600,301.200 303.445,301.200 303.200 C 301.200 302.980,300.671 302.800,300.024 302.800 C 299.377 302.800,298.736 302.620,298.600 302.400 C 298.464 302.180,297.913 302.000,297.376 302.000 C 296.839 302.000,296.400 301.820,296.400 301.600 C 296.400 301.380,296.164 301.200,295.875 301.200 C 295.587 301.200,294.964 300.840,294.492 300.400 C 294.020 299.960,293.461 299.600,293.250 299.600 C 293.040 299.600,292.177 298.857,291.334 297.949 C 290.490 297.041,289.395 295.879,288.900 295.367 C 288.405 294.855,288.000 294.276,288.000 294.080 C 288.000 293.884,287.640 293.398,287.200 293.000 C 286.760 292.602,286.400 292.034,286.400 291.738 C 286.400 291.442,286.220 291.200,286.000 291.200 C 285.780 291.200,285.600 290.761,285.600 290.224 C 285.600 289.687,285.420 289.136,285.200 289.000 C 284.980 288.864,284.800 288.223,284.800 287.576 C 284.800 286.929,284.620 286.400,284.400 286.400 C 284.154 286.400,284.000 284.400,284.000 281.200 C 284.000 278.000,284.154 276.000,284.400 276.000 C 284.620 276.000,284.800 275.460,284.800 274.800 C 284.800 274.140,284.980 273.600,285.200 273.600 C 285.420 273.600,285.600 273.150,285.600 272.600 C 285.600 272.050,285.780 271.600,286.000 271.600 C 286.220 271.600,286.400 271.240,286.400 270.800 C 286.400 270.360,286.550 270.000,286.732 270.000 C 286.915 270.000,287.320 269.506,287.632 268.903 C 287.945 268.300,288.740 267.255,289.400 266.582 C 290.060 265.909,291.050 264.784,291.600 264.083 C 292.150 263.381,292.833 262.806,293.117 262.804 C 293.401 262.802,294.020 262.440,294.492 262.000 C 294.964 261.560,295.587 261.200,295.875 261.200 C 296.164 261.200,296.400 261.020,296.400 260.800 C 296.400 260.580,296.940 260.400,297.600 260.400 C 298.260 260.400,298.800 260.220,298.800 260.000 C 298.800 259.780,299.340 259.600,300.000 259.600 C 300.660 259.600,301.200 259.420,301.200 259.200 C 301.200 258.955,303.125 258.800,306.176 258.800 C 309.063 258.800,311.257 258.968,311.400 259.200 " stroke="none" fill="#040404" fill-rule="evenodd"></path><path id="path1" d="" stroke="none" fill="#080404" fill-rule="evenodd"></path></g></svg>