<svg id="svg" version="1.1" xmlns="http://www.w3.org/2000/svg" xmlns:xlink="http://www.w3.org/1999/xlink" width="400" height="400" viewBox="0, 0, 400,400"><g id="svgg"><path id="path0" d="M0.000 140.800 L 0.000 281.600 23.176 281.600 C 38.444 281.600,46.439 281.739,46.604 282.007 C 46.742 282.230,47.068 282.286,47.328 282.130 C 47.587 281.974,47.548 282.157,47.240 282.537 C 46.516 283.428,46.342 285.636,46.937 286.377 C 47.290 286.817,47.287 286.886,46.924 286.668 C 46.614 286.482,46.470 286.664,46.509 287.191 C 46.543 287.636,46.712 288.000,46.885 288.000 C 47.058 288.000,47.200 288.191,47.200 288.424 C 47.200 288.657,47.027 288.740,46.816 288.610 C 46.572 288.459,46.568 288.779,46.804 289.486 C 47.008 290.099,47.233 291.081,47.304 291.668 C 47.374 292.255,47.793 293.065,48.235 293.468 C 48.676 293.871,48.842 294.075,48.603 293.921 C 47.878 293.455,48.152 295.809,48.911 296.568 C 49.290 296.947,49.600 297.514,49.600 297.829 C 49.600 298.143,49.825 298.403,50.100 298.406 C 50.465 298.411,50.453 298.506,50.053 298.758 C 49.403 299.171,49.912 300.200,50.767 300.200 C 51.078 300.200,51.418 300.454,51.521 300.764 C 51.650 301.151,51.505 301.249,51.055 301.076 C 50.168 300.736,50.230 301.267,51.200 302.308 C 51.640 302.780,52.000 303.373,52.000 303.626 C 52.000 303.888,52.283 303.977,52.657 303.834 C 53.213 303.620,53.234 303.678,52.794 304.208 C 52.367 304.721,52.368 304.921,52.796 305.317 C 53.211 305.702,53.253 305.678,53.000 305.200 C 52.730 304.690,52.767 304.683,53.241 305.150 C 53.688 305.589,53.696 305.738,53.284 305.889 C 52.741 306.087,54.157 307.600,54.885 307.600 C 55.084 307.600,55.136 307.780,55.000 308.000 C 54.864 308.220,55.078 308.403,55.476 308.406 C 56.040 308.411,56.079 308.489,55.652 308.759 C 55.210 309.040,55.248 309.190,55.852 309.541 C 56.263 309.780,56.458 309.981,56.284 309.988 C 55.925 310.002,56.450 310.709,58.260 312.649 C 58.953 313.392,59.420 314.000,59.299 314.000 C 59.177 314.000,59.488 314.356,59.990 314.792 C 60.492 315.227,61.088 315.469,61.313 315.330 C 61.540 315.190,61.603 315.271,61.454 315.512 C 61.054 316.160,65.224 319.949,66.063 319.700 C 66.248 319.645,66.355 319.825,66.300 320.100 C 66.243 320.385,66.578 320.587,67.080 320.570 C 67.564 320.554,67.868 320.689,67.756 320.871 C 67.644 321.053,67.985 321.366,68.514 321.567 C 69.043 321.768,69.774 322.231,70.138 322.595 C 70.588 323.045,70.800 323.096,70.800 322.752 C 70.800 322.471,71.055 322.592,71.376 323.024 C 71.854 323.669,72.083 323.720,72.732 323.324 C 73.414 322.908,73.487 322.946,73.310 323.624 C 73.158 324.204,73.312 324.400,73.920 324.400 C 74.367 324.400,74.809 324.625,74.902 324.900 C 75.033 325.291,75.214 325.281,75.730 324.855 C 76.292 324.392,76.425 324.400,76.621 324.911 C 76.767 325.292,77.157 325.432,77.688 325.293 C 78.149 325.172,78.426 325.237,78.305 325.437 C 78.183 325.637,78.365 326.060,78.709 326.379 C 79.264 326.892,79.309 326.859,79.104 326.078 C 78.978 325.594,79.038 325.300,79.237 325.423 C 79.437 325.546,79.600 325.929,79.600 326.273 C 79.600 326.810,79.696 326.820,80.277 326.349 C 80.853 325.881,80.903 325.883,80.614 326.363 C 80.354 326.795,80.469 326.875,81.108 326.708 C 81.676 326.560,81.878 326.652,81.746 326.998 C 81.608 327.355,82.040 327.512,83.205 327.528 C 84.114 327.540,85.070 327.716,85.329 327.919 C 86.054 328.486,90.799 328.449,90.806 327.876 C 90.810 327.557,90.909 327.539,91.106 327.822 C 91.481 328.360,94.800 328.489,94.800 327.965 C 94.800 327.719,95.062 327.708,95.500 327.936 C 96.346 328.375,101.197 328.326,101.905 327.871 C 102.183 327.692,102.942 327.531,103.592 327.513 C 104.241 327.494,104.678 327.326,104.563 327.140 C 104.447 326.953,104.533 326.800,104.753 326.800 C 104.973 326.800,105.265 326.981,105.402 327.203 C 105.556 327.452,105.887 327.370,106.268 326.989 C 106.643 326.614,107.201 326.473,107.692 326.629 C 108.230 326.800,108.409 326.737,108.226 326.443 C 108.076 326.199,108.154 326.000,108.400 326.000 C 108.646 326.000,108.736 325.820,108.600 325.600 C 108.464 325.380,108.543 325.200,108.776 325.200 C 109.009 325.200,109.200 325.416,109.200 325.680 C 109.200 326.053,109.307 326.053,109.680 325.680 C 109.944 325.416,110.574 325.200,111.080 325.200 C 111.586 325.200,112.003 324.975,112.006 324.700 C 112.010 324.367,112.142 324.400,112.400 324.800 C 112.676 325.227,112.790 325.251,112.794 324.882 C 112.797 324.598,113.115 324.418,113.500 324.482 C 113.904 324.550,114.155 324.380,114.094 324.081 C 114.035 323.796,114.215 323.592,114.494 323.628 C 115.489 323.759,115.918 323.591,116.153 322.979 C 116.289 322.623,116.222 322.463,115.995 322.603 C 115.778 322.737,115.600 322.646,115.600 322.400 C 115.600 322.122,116.080 322.028,116.867 322.152 C 118.181 322.359,119.823 321.580,119.297 321.000 C 119.134 320.819,119.193 320.781,119.428 320.915 C 119.963 321.219,122.347 319.803,122.656 318.998 C 122.782 318.669,123.196 318.400,123.576 318.400 C 124.552 318.400,124.868 317.964,124.348 317.337 C 123.998 316.916,124.090 316.800,124.775 316.800 C 125.255 316.800,125.549 316.640,125.428 316.445 C 125.221 316.111,125.968 315.231,126.400 315.300 C 126.777 315.360,128.400 314.208,128.400 313.880 C 128.400 313.700,128.175 313.688,127.900 313.853 C 127.577 314.047,127.600 313.907,127.965 313.458 C 128.409 312.911,128.600 312.873,128.859 313.281 C 129.085 313.638,129.190 313.508,129.194 312.863 C 129.198 312.252,129.491 311.849,130.032 311.707 C 130.606 311.557,130.804 311.258,130.670 310.744 C 130.562 310.334,130.603 310.079,130.761 310.176 C 131.382 310.560,133.181 308.143,132.679 307.600 C 132.303 307.194,132.314 307.148,132.732 307.385 C 133.312 307.714,134.586 306.238,134.619 305.200 C 134.629 304.870,134.877 304.653,135.170 304.717 C 135.527 304.796,135.632 304.565,135.489 304.017 C 135.371 303.568,135.466 303.083,135.699 302.939 C 135.949 302.784,136.006 302.867,135.838 303.138 C 135.681 303.392,135.648 303.600,135.765 303.600 C 136.324 303.600,138.024 299.062,137.570 298.782 C 137.251 298.584,137.377 298.398,137.953 298.215 C 138.425 298.065,138.712 297.781,138.589 297.583 C 138.467 297.385,138.663 296.652,139.024 295.953 C 139.647 294.749,139.644 294.698,138.963 294.959 C 138.278 295.222,138.278 295.198,138.971 294.432 C 139.375 293.986,139.588 293.347,139.452 292.993 C 139.318 292.642,139.505 291.690,139.868 290.878 C 140.231 290.065,140.547 289.310,140.570 289.200 C 140.593 289.090,140.776 288.741,140.977 288.424 C 141.215 288.048,141.178 287.793,140.871 287.690 C 140.287 287.496,140.244 286.400,140.820 286.400 C 141.085 286.400,141.181 285.511,141.080 284.000 L 140.920 281.600 200.050 281.600 L 259.180 281.600 258.940 282.800 C 258.742 283.791,258.831 284.001,259.450 284.006 C 260.047 284.011,260.085 284.085,259.634 284.371 C 258.931 284.816,258.974 287.610,259.690 288.064 C 260.101 288.325,260.101 288.389,259.692 288.394 C 259.090 288.401,259.317 290.177,260.029 291.035 C 260.319 291.385,260.341 291.600,260.086 291.600 C 259.860 291.600,259.769 291.958,259.883 292.396 C 259.997 292.833,260.278 293.075,260.507 292.934 C 260.736 292.792,260.805 292.868,260.661 293.102 C 260.516 293.336,260.513 293.829,260.654 294.197 C 260.859 294.731,260.980 294.759,261.250 294.334 C 261.475 293.978,261.590 293.957,261.594 294.271 C 261.597 294.531,261.317 295.026,260.971 295.371 C 260.626 295.717,260.491 296.001,260.671 296.003 C 261.105 296.007,262.000 297.960,262.000 298.903 C 262.000 299.312,262.178 299.537,262.395 299.403 C 262.622 299.263,262.689 299.423,262.553 299.779 C 262.422 300.121,262.497 300.400,262.720 300.400 C 262.943 300.400,263.024 300.788,262.900 301.263 C 262.769 301.761,262.835 302.025,263.056 301.889 C 263.266 301.759,263.700 301.818,264.019 302.020 C 264.404 302.264,264.434 302.390,264.109 302.394 C 263.730 302.399,263.721 302.629,264.073 303.400 C 264.323 303.950,264.680 304.400,264.864 304.400 C 265.049 304.400,265.181 304.535,265.157 304.700 C 264.991 305.850,265.714 306.797,266.234 306.109 C 266.734 305.447,266.760 305.455,266.621 306.232 C 266.462 307.118,267.488 309.600,268.013 309.600 C 268.184 309.600,268.227 309.195,268.108 308.700 C 267.934 307.976,267.993 307.895,268.410 308.284 C 268.695 308.551,268.982 309.268,269.047 309.878 C 269.188 311.199,270.006 312.844,270.400 312.600 C 270.554 312.505,270.917 312.871,271.207 313.414 C 271.498 313.956,271.965 314.400,272.245 314.400 C 272.525 314.400,273.068 314.930,273.451 315.578 C 273.834 316.226,274.294 316.666,274.473 316.555 C 274.653 316.444,274.800 316.556,274.800 316.805 C 274.800 317.518,275.966 318.499,276.548 318.275 C 276.838 318.164,277.329 318.438,277.638 318.885 C 278.558 320.215,279.244 320.820,279.590 320.606 C 279.770 320.495,280.019 320.674,280.146 321.002 C 280.424 321.728,281.446 321.790,281.763 321.100 C 281.889 320.825,281.904 320.967,281.796 321.415 C 281.647 322.034,281.810 322.246,282.473 322.296 C 282.954 322.332,283.507 322.648,283.703 322.998 C 283.930 323.405,284.342 323.545,284.840 323.387 C 285.367 323.220,285.584 323.312,285.510 323.670 C 285.435 324.030,285.947 324.239,287.109 324.323 C 288.049 324.391,288.714 324.616,288.586 324.823 C 288.458 325.031,288.528 325.200,288.743 325.200 C 288.958 325.200,289.224 324.975,289.335 324.700 C 289.446 324.425,289.554 324.650,289.575 325.200 C 289.605 325.997,289.691 326.078,290.000 325.600 C 290.213 325.270,290.391 325.157,290.394 325.349 C 290.397 325.541,290.639 325.500,290.931 325.257 C 291.346 324.913,291.455 325.011,291.431 325.708 C 291.407 326.390,291.635 326.610,292.400 326.643 C 294.896 326.752,295.035 326.790,294.400 327.194 C 293.965 327.470,294.241 327.566,295.400 327.541 C 297.715 327.492,298.074 327.556,297.817 327.973 C 297.535 328.428,300.400 328.294,301.174 327.816 C 301.546 327.586,301.631 327.626,301.438 327.938 C 301.127 328.442,302.855 328.611,303.341 328.125 C 303.744 327.723,305.200 327.677,305.200 328.067 C 305.200 328.612,308.711 328.455,308.935 327.900 C 309.096 327.500,309.143 327.500,309.168 327.900 C 309.188 328.213,309.808 328.400,310.824 328.400 C 311.717 328.400,312.355 328.250,312.241 328.067 C 312.128 327.883,312.289 327.733,312.600 327.733 C 312.911 327.733,313.072 327.883,312.959 328.067 C 312.845 328.250,313.314 328.400,314.000 328.400 C 314.730 328.400,315.145 328.234,315.000 328.000 C 314.854 327.764,315.297 327.597,316.076 327.594 C 316.954 327.590,317.220 327.474,316.866 327.249 C 316.460 326.992,316.532 326.859,317.166 326.693 C 317.741 326.543,318.000 326.664,318.000 327.082 C 318.000 327.516,318.236 327.420,318.830 326.744 C 319.287 326.225,319.547 326.025,319.407 326.300 C 318.986 327.128,320.052 326.862,320.853 325.939 C 321.264 325.465,321.600 325.298,321.600 325.568 C 321.600 325.865,322.030 325.720,322.690 325.200 C 323.325 324.701,323.841 324.522,323.924 324.771 C 324.002 325.007,324.332 325.200,324.657 325.200 C 324.982 325.200,325.148 325.040,325.028 324.845 C 324.840 324.541,326.079 324.145,327.900 323.927 C 328.386 323.868,328.562 323.229,328.431 322.000 C 328.375 321.481,328.419 321.478,328.757 321.981 C 328.972 322.300,329.058 322.705,328.950 322.881 C 328.558 323.515,329.188 323.180,330.043 322.300 C 330.524 321.805,330.779 321.644,330.610 321.941 C 330.403 322.304,330.648 322.256,331.351 321.795 C 331.928 321.417,332.400 320.949,332.400 320.754 C 332.400 320.559,332.535 320.421,332.700 320.447 C 333.497 320.573,334.022 320.360,333.800 320.000 C 333.664 319.780,333.838 319.600,334.186 319.600 C 334.535 319.600,334.991 319.150,335.200 318.600 C 335.409 318.050,335.685 317.600,335.814 317.600 C 335.942 317.600,335.919 317.808,335.762 318.062 C 335.585 318.348,335.652 318.415,335.938 318.238 C 336.192 318.081,336.400 317.693,336.400 317.376 C 336.400 317.059,336.563 316.800,336.763 316.800 C 336.962 316.800,337.043 317.205,336.943 317.700 C 336.818 318.319,336.932 318.226,337.310 317.400 C 337.612 316.740,337.981 316.245,338.130 316.300 C 338.781 316.541,338.948 316.354,338.400 316.000 C 337.915 315.686,337.972 315.611,338.700 315.606 C 339.195 315.603,339.614 315.375,339.631 315.100 C 339.743 313.267,340.490 312.000,341.460 312.000 C 341.768 312.000,342.781 311.223,343.711 310.273 C 345.307 308.641,345.909 307.808,347.010 305.706 C 347.268 305.214,347.625 304.944,347.803 305.106 C 347.982 305.268,348.019 305.098,347.888 304.729 C 347.756 304.360,347.907 303.843,348.224 303.580 C 348.541 303.317,348.800 302.764,348.800 302.351 C 348.800 301.938,349.002 301.600,349.249 301.600 C 349.552 301.600,349.530 301.398,349.181 300.977 C 348.897 300.635,348.830 300.386,349.032 300.425 C 350.134 300.634,350.400 300.299,350.406 298.700 C 350.411 297.389,350.510 297.137,350.837 297.600 C 351.170 298.069,351.224 297.960,351.087 297.100 C 350.990 296.495,351.077 296.000,351.279 296.000 C 351.482 296.000,351.545 295.835,351.421 295.634 C 351.297 295.433,351.421 295.177,351.698 295.065 C 352.083 294.908,352.066 294.768,351.626 294.461 C 351.179 294.150,351.156 293.935,351.522 293.494 C 351.781 293.182,351.860 292.793,351.697 292.630 C 351.533 292.467,351.670 292.393,352.000 292.467 C 352.456 292.568,352.589 292.240,352.554 291.100 C 352.526 290.177,352.693 289.600,352.988 289.600 C 353.536 289.600,353.539 288.469,352.992 287.593 C 352.407 286.654,352.429 286.036,353.039 286.270 C 353.432 286.421,353.600 286.173,353.600 285.443 C 353.600 284.869,353.375 284.397,353.100 284.394 C 352.778 284.390,352.747 284.283,353.013 284.094 C 353.241 283.932,353.443 283.485,353.463 283.100 C 353.484 282.715,353.523 282.220,353.550 282.000 C 353.583 281.739,361.634 281.600,376.803 281.600 L 400.005 281.600 399.997 226.566 C 399.990 178.415,399.915 171.457,399.394 170.937 C 399.068 170.610,398.800 169.911,398.800 169.384 C 398.800 168.727,398.624 168.493,398.240 168.640 C 397.933 168.758,397.562 168.662,397.417 168.427 C 397.272 168.192,397.343 168.000,397.576 168.000 C 397.809 168.000,398.000 167.719,398.000 167.376 C 398.000 167.033,397.829 166.858,397.620 166.988 C 397.411 167.117,397.033 166.836,396.780 166.363 C 396.461 165.767,396.455 165.587,396.760 165.775 C 397.002 165.925,397.200 165.857,397.200 165.624 C 397.200 165.391,396.918 165.200,396.573 165.200 C 396.116 165.200,396.019 164.970,396.216 164.350 C 396.414 163.725,396.352 163.582,395.981 163.812 C 395.669 164.005,395.576 163.962,395.739 163.699 C 395.883 163.465,395.833 162.852,395.626 162.337 C 395.420 161.822,395.239 161.625,395.225 161.900 C 395.190 162.604,394.533 162.523,394.247 161.779 C 394.111 161.423,394.178 161.263,394.405 161.403 C 394.622 161.537,394.800 161.379,394.800 161.051 C 394.800 160.722,394.416 160.332,393.947 160.183 C 393.277 159.971,393.213 159.837,393.647 159.562 C 394.046 159.310,394.061 159.211,393.700 159.206 C 393.425 159.203,393.200 158.821,393.200 158.357 C 393.200 157.772,393.016 157.585,392.600 157.745 C 392.270 157.871,392.000 157.801,392.000 157.587 C 392.000 157.374,392.225 157.194,392.500 157.187 C 392.787 157.180,392.676 156.929,392.241 156.600 C 391.824 156.284,391.302 156.137,391.083 156.272 C 390.831 156.428,390.785 156.116,390.958 155.426 C 391.304 154.048,390.924 152.800,390.160 152.800 C 389.390 152.800,388.796 151.188,389.248 150.324 C 389.465 149.911,389.446 149.552,389.201 149.401 C 388.980 149.264,388.800 149.343,388.800 149.576 C 388.800 149.809,388.601 150.000,388.357 150.000 C 388.114 150.000,388.012 149.745,388.132 149.433 C 388.252 149.121,388.091 148.767,387.775 148.646 C 387.070 148.375,387.005 146.402,387.700 146.394 C 388.019 146.390,388.051 146.281,387.790 146.094 C 387.565 145.932,386.935 144.945,386.391 143.900 C 385.847 142.855,385.165 142.000,384.877 142.000 C 384.589 142.000,384.464 141.820,384.600 141.600 C 384.736 141.380,384.680 141.200,384.476 141.200 C 384.271 141.200,384.105 140.885,384.107 140.500 C 384.112 139.110,383.993 138.757,383.600 139.000 C 383.380 139.136,383.200 138.866,383.200 138.400 C 383.200 137.934,383.050 137.645,382.867 137.759 C 382.683 137.872,382.533 137.711,382.533 137.400 C 382.533 137.089,382.683 136.928,382.867 137.041 C 383.050 137.155,383.200 137.057,383.200 136.824 C 383.200 136.591,382.995 136.400,382.744 136.400 C 382.493 136.400,382.030 136.085,381.714 135.700 C 381.399 135.315,381.272 135.253,381.432 135.562 C 381.632 135.947,381.568 136.027,381.227 135.817 C 380.869 135.596,380.852 135.388,381.165 135.075 C 381.790 134.450,381.701 134.080,380.943 134.144 C 380.582 134.175,380.198 133.950,380.091 133.644 C 379.972 133.305,380.072 133.198,380.348 133.368 C 380.610 133.530,380.800 133.385,380.800 133.024 C 380.800 132.681,380.609 132.400,380.376 132.400 C 380.143 132.400,380.042 132.256,380.150 132.081 C 380.258 131.905,380.182 131.500,379.980 131.181 C 379.705 130.747,379.611 130.732,379.606 131.124 C 379.603 131.412,379.450 131.555,379.267 131.441 C 379.083 131.328,379.014 130.687,379.112 130.018 C 379.283 128.852,378.644 128.267,378.307 129.280 C 378.208 129.575,378.043 129.490,377.878 129.059 C 377.727 128.665,377.772 128.459,377.980 128.588 C 378.185 128.714,378.324 128.453,378.291 128.009 C 378.223 127.107,377.765 126.932,377.483 127.700 C 377.339 128.093,377.190 128.096,376.783 127.713 C 376.363 127.318,376.391 127.178,376.933 126.970 C 377.300 126.830,377.597 126.419,377.594 126.057 C 377.589 125.487,377.537 125.479,377.200 126.000 C 376.863 126.522,376.811 126.515,376.806 125.949 C 376.803 125.591,376.541 125.083,376.224 124.820 C 375.907 124.557,375.737 124.108,375.847 123.822 C 375.956 123.537,375.754 123.191,375.398 123.054 C 375.041 122.918,374.872 122.607,375.022 122.365 C 375.405 121.745,374.394 120.006,373.632 119.972 C 373.168 119.951,373.213 119.852,373.800 119.600 C 374.240 119.411,374.364 119.244,374.076 119.228 C 373.788 119.213,373.667 119.016,373.806 118.790 C 373.945 118.565,373.821 118.430,373.530 118.490 C 373.205 118.557,372.993 118.213,372.983 117.600 C 372.971 116.892,372.759 116.618,372.256 116.660 C 371.866 116.693,371.647 116.620,371.770 116.497 C 371.893 116.374,371.789 116.028,371.540 115.728 C 371.178 115.291,371.239 115.230,371.843 115.423 C 372.553 115.650,372.557 115.630,371.906 115.093 C 371.525 114.778,371.330 114.404,371.473 114.260 C 371.718 114.015,370.996 113.836,370.270 113.963 C 370.089 113.994,370.056 113.832,370.198 113.603 C 370.339 113.374,370.621 113.289,370.823 113.414 C 371.357 113.744,370.790 112.330,370.039 111.458 C 369.688 111.050,369.430 110.600,369.467 110.458 C 369.503 110.316,369.429 110.110,369.303 110.000 C 369.176 109.890,369.206 110.070,369.371 110.400 C 369.535 110.730,369.318 110.568,368.888 110.040 C 368.458 109.512,368.193 108.747,368.300 108.340 C 368.406 107.933,368.292 107.600,368.047 107.600 C 367.801 107.600,367.597 107.195,367.594 106.700 C 367.589 105.972,367.514 105.915,367.200 106.400 C 366.918 106.836,366.811 106.857,366.806 106.476 C 366.803 106.174,366.589 106.072,366.300 106.235 C 365.900 106.461,365.900 106.410,366.300 105.979 C 366.575 105.682,366.782 104.981,366.760 104.420 L 366.720 103.400 366.400 104.400 C 366.224 104.950,366.062 105.164,366.040 104.876 C 366.018 104.588,365.822 104.463,365.605 104.597 C 365.372 104.741,365.315 104.566,365.466 104.171 C 365.626 103.756,365.470 103.359,365.059 103.129 C 364.559 102.849,364.492 102.576,364.787 102.025 C 365.094 101.451,365.039 101.304,364.532 101.346 C 364.177 101.376,363.835 101.171,363.773 100.890 C 363.711 100.609,363.752 100.566,363.864 100.792 C 363.976 101.019,364.225 101.108,364.417 100.990 C 364.934 100.670,364.405 99.600,363.730 99.600 C 363.316 99.600,363.220 99.338,363.399 98.700 C 363.597 97.995,363.561 97.930,363.232 98.400 C 362.901 98.873,362.811 98.730,362.806 97.724 C 362.803 97.022,362.620 96.336,362.400 96.200 C 362.180 96.064,362.000 95.581,362.000 95.127 C 362.000 94.434,361.903 94.383,361.391 94.808 C 360.884 95.229,360.822 95.207,361.026 94.677 C 361.167 94.310,360.917 93.663,360.435 93.145 C 359.589 92.237,359.443 91.844,359.583 90.846 C 359.632 90.494,359.430 90.380,359.030 90.533 C 358.626 90.688,358.400 90.556,358.400 90.164 C 358.400 89.828,358.563 89.654,358.763 89.777 C 358.962 89.900,359.031 89.641,358.916 89.201 C 358.676 88.282,358.360 88.200,357.680 88.880 C 357.359 89.201,357.200 89.215,357.200 88.923 C 357.200 88.682,357.515 88.363,357.900 88.214 C 358.535 87.968,358.541 87.899,357.961 87.471 C 357.610 87.212,357.369 86.685,357.426 86.300 C 357.522 85.650,357.121 85.406,356.232 85.575 C 356.030 85.614,356.120 85.336,356.432 84.958 C 356.890 84.404,356.898 84.236,356.478 84.094 C 355.778 83.859,354.356 82.310,354.608 82.058 C 354.718 81.948,355.071 82.205,355.391 82.629 C 355.712 83.053,355.978 83.220,355.981 83.000 C 355.994 82.242,355.225 81.400,354.519 81.399 C 354.112 81.399,353.767 81.059,353.709 80.599 C 353.610 79.826,353.618 79.826,353.934 80.573 C 354.142 81.064,354.362 81.185,354.535 80.906 C 354.685 80.663,354.581 80.225,354.304 79.932 C 354.027 79.640,353.741 79.057,353.668 78.637 C 353.404 77.109,351.121 74.254,350.547 74.733 C 350.370 74.880,350.490 74.650,350.813 74.223 C 351.136 73.796,351.220 73.552,351.000 73.681 C 350.780 73.810,350.368 73.665,350.084 73.358 C 349.618 72.854,349.744 72.646,350.459 72.739 C 350.601 72.757,350.627 72.425,350.516 72.001 C 350.405 71.576,350.117 71.267,349.875 71.314 C 349.634 71.361,349.428 71.130,349.418 70.800 C 349.402 70.271,344.090 70.188,304.500 70.098 L 259.600 69.997 259.600 34.998 L 259.600 0.000 129.800 0.000 L 0.000 0.000 0.000 140.800 M235.600 105.601 L 235.600 187.200 129.802 187.200 L 24.004 187.200 23.902 105.500 L 23.800 23.800 129.700 23.901 L 235.600 24.003 235.600 105.601 M334.165 94.950 C 334.935 95.473,335.455 96.012,335.320 96.147 C 335.184 96.282,334.803 96.170,334.473 95.897 C 333.942 95.458,333.937 95.506,334.432 96.300 C 334.740 96.795,335.140 97.200,335.320 97.200 C 335.500 97.200,335.549 97.360,335.428 97.555 C 335.307 97.750,335.477 98.132,335.804 98.404 C 336.132 98.676,336.400 99.326,336.400 99.849 C 336.400 100.791,337.120 100.991,337.682 100.205 C 337.838 99.988,337.935 100.200,337.899 100.677 C 337.863 101.154,337.691 101.456,337.517 101.349 C 337.343 101.241,337.214 101.568,337.232 102.076 C 337.249 102.584,337.354 102.775,337.465 102.500 C 337.835 101.582,338.291 101.986,338.143 103.100 C 338.062 103.705,338.102 103.975,338.231 103.700 C 338.507 103.114,339.452 103.036,339.783 103.572 C 339.909 103.777,339.802 104.075,339.545 104.234 C 339.252 104.415,339.184 104.350,339.362 104.062 C 339.519 103.808,339.459 103.600,339.228 103.600 C 338.998 103.600,338.846 104.047,338.891 104.593 C 338.945 105.244,339.109 105.451,339.367 105.193 C 339.940 104.620,340.400 104.712,340.400 105.400 C 340.400 105.730,340.175 106.014,339.900 106.032 C 339.503 106.057,339.503 106.105,339.902 106.266 C 340.179 106.377,340.303 106.633,340.179 106.834 C 340.055 107.035,340.084 107.413,340.245 107.673 C 340.448 108.001,340.642 107.908,340.875 107.373 C 341.142 106.759,341.180 106.826,341.061 107.700 C 340.978 108.305,341.079 108.800,341.284 108.800 C 341.489 108.800,341.927 109.070,342.257 109.400 C 342.587 109.730,342.700 110.000,342.509 110.000 C 342.317 110.000,341.967 109.807,341.730 109.570 C 341.430 109.270,341.433 109.564,341.741 110.547 C 342.019 111.437,342.293 111.779,342.485 111.477 C 342.673 111.181,342.790 111.350,342.794 111.924 C 342.797 112.432,342.968 112.744,343.172 112.617 C 343.377 112.491,343.670 112.590,343.824 112.838 C 343.977 113.086,343.864 113.437,343.572 113.617 C 343.192 113.852,343.350 114.022,344.132 114.219 C 345.058 114.451,345.145 114.584,344.711 115.108 C 344.430 115.446,344.245 115.785,344.300 115.861 C 344.914 116.712,342.067 116.800,313.880 116.800 C 290.676 116.800,283.245 116.915,282.880 117.280 C 282.335 117.825,282.157 188.038,282.700 187.953 C 282.865 187.927,303.920 187.927,329.488 187.953 L 375.976 188.000 376.088 199.300 L 376.200 210.600 364.490 210.512 L 352.780 210.423 352.812 222.612 L 352.843 234.800 364.422 234.800 L 376.000 234.800 376.000 246.200 L 376.000 257.600 361.357 257.600 C 348.506 257.600,346.743 257.527,346.945 257.000 C 347.083 256.638,346.947 256.400,346.600 256.400 C 346.253 256.400,346.117 256.162,346.255 255.800 C 346.400 255.423,346.251 255.200,345.855 255.200 C 345.464 255.200,345.311 254.976,345.451 254.610 C 345.733 253.876,344.784 252.872,344.041 253.120 C 343.706 253.231,343.599 253.126,343.768 252.852 C 343.922 252.603,343.876 252.400,343.667 252.400 C 343.458 252.400,343.177 251.963,343.043 251.428 C 342.693 250.036,340.210 247.526,339.330 247.676 C 338.834 247.760,338.599 247.554,338.598 247.033 C 338.597 246.611,338.372 246.191,338.098 246.099 C 337.824 246.008,337.600 245.698,337.600 245.409 C 337.600 244.707,336.371 244.269,335.853 244.787 C 335.273 245.367,334.689 245.303,335.065 244.700 C 335.503 243.999,335.594 243.156,335.207 243.396 C 335.029 243.506,334.787 243.343,334.669 243.035 C 334.551 242.727,333.900 242.354,333.224 242.205 C 332.547 242.057,332.078 241.797,332.183 241.628 C 332.457 241.185,330.559 240.254,330.038 240.576 C 329.790 240.730,329.600 240.567,329.600 240.200 C 329.600 239.844,329.419 239.665,329.197 239.802 C 328.976 239.939,328.682 239.759,328.546 239.402 C 328.409 239.046,328.055 238.847,327.759 238.960 C 327.463 239.074,327.061 238.881,326.866 238.532 C 326.622 238.096,326.423 238.038,326.232 238.349 C 326.078 238.597,325.738 238.797,325.476 238.794 C 325.148 238.790,325.164 238.684,325.528 238.453 C 326.226 238.011,323.460 236.671,321.939 236.714 C 321.185 236.736,320.910 236.580,321.051 236.212 C 321.205 235.810,320.804 235.693,319.427 235.739 C 318.199 235.780,317.599 235.636,317.600 235.300 C 317.600 234.997,317.058 234.800,316.224 234.800 C 315.467 234.800,314.747 234.637,314.624 234.438 C 314.183 233.726,310.405 233.977,310.354 234.723 C 310.310 235.356,310.296 235.357,310.129 234.725 C 309.912 233.904,305.002 233.743,304.034 234.525 C 303.636 234.847,303.534 234.854,303.718 234.547 C 303.998 234.079,300.568 234.098,300.100 234.567 C 299.975 234.691,299.651 234.608,299.379 234.382 C 298.841 233.936,297.942 234.007,297.561 234.525 C 297.429 234.704,296.754 234.866,296.061 234.886 C 295.114 234.913,294.800 235.106,294.800 235.661 C 294.800 236.100,294.516 236.398,294.100 236.394 C 293.516 236.389,293.497 236.326,293.984 236.018 C 294.406 235.751,294.201 235.659,293.248 235.686 C 292.522 235.707,291.849 235.929,291.752 236.180 C 291.651 236.445,291.005 236.570,290.215 236.478 C 288.970 236.332,288.869 236.399,289.031 237.259 C 289.129 237.777,289.102 237.975,288.971 237.700 C 288.639 237.002,287.200 237.073,287.200 237.787 C 287.200 238.141,286.965 238.285,286.610 238.149 C 286.286 238.024,285.731 238.211,285.378 238.565 C 285.025 238.918,284.570 239.105,284.368 238.980 C 284.165 238.855,284.000 238.943,284.000 239.176 C 284.000 239.409,283.730 239.600,283.400 239.600 C 283.055 239.600,282.800 239.961,282.800 240.449 C 282.800 241.137,282.692 241.209,282.232 240.827 C 281.793 240.462,281.589 240.474,281.332 240.878 C 281.150 241.165,280.820 241.420,280.600 241.443 C 279.183 241.598,278.350 242.165,278.530 242.855 C 278.637 243.265,278.562 243.600,278.363 243.600 C 278.163 243.600,278.000 243.380,278.000 243.111 C 278.000 242.842,277.720 243.022,277.377 243.511 C 277.035 244.000,276.495 244.400,276.177 244.400 C 275.860 244.400,275.600 244.670,275.600 245.000 C 275.600 245.541,275.125 245.778,274.300 245.647 C 273.849 245.576,273.939 246.179,274.458 246.698 C 274.801 247.041,274.726 247.110,274.158 246.972 C 273.026 246.699,272.002 247.470,272.800 247.994 C 273.285 248.312,273.223 248.389,272.476 248.394 C 271.881 248.398,271.654 248.564,271.838 248.862 C 272.016 249.149,271.948 249.215,271.659 249.036 C 270.981 248.618,269.951 249.807,270.271 250.640 C 270.470 251.160,270.382 251.279,269.924 251.103 C 269.523 250.949,269.310 251.099,269.310 251.534 C 269.310 252.967,269.175 253.231,268.500 253.118 C 268.109 253.052,267.844 253.221,267.900 253.500 C 267.955 253.775,267.711 254.000,267.357 254.000 C 266.950 254.000,266.799 254.220,266.945 254.600 C 267.071 254.930,266.990 255.200,266.764 255.200 C 266.538 255.200,266.467 255.384,266.606 255.610 C 266.745 255.835,266.628 255.970,266.344 255.910 C 266.061 255.849,265.645 256.205,265.420 256.700 C 265.054 257.504,264.722 257.600,262.305 257.600 L 259.600 257.600 259.600 175.800 L 259.600 94.000 296.182 94.000 L 332.764 94.000 334.165 94.950 M357.017 141.227 C 357.162 141.462,357.558 141.548,357.897 141.418 C 358.408 141.222,358.427 141.286,358.008 141.791 C 357.580 142.307,357.647 142.404,358.451 142.428 C 359.168 142.449,359.241 142.523,358.750 142.728 C 358.257 142.934,358.183 143.224,358.446 143.926 C 358.637 144.435,358.965 144.745,359.176 144.615 C 359.387 144.485,359.488 144.742,359.402 145.189 C 359.308 145.676,359.459 146.000,359.780 146.000 C 360.073 146.000,360.426 146.450,360.564 147.000 C 360.702 147.550,361.037 148.003,361.308 148.006 C 361.625 148.010,361.586 148.148,361.200 148.395 C 360.501 148.840,361.175 150.282,361.993 150.090 C 362.249 150.030,362.339 150.175,362.192 150.413 C 361.647 151.295,362.422 152.807,363.708 153.370 C 364.420 153.681,364.702 153.949,364.335 153.967 C 363.748 153.996,363.696 154.220,363.969 155.549 C 363.986 155.631,364.240 155.499,364.533 155.255 C 364.937 154.920,365.067 154.957,365.067 155.406 C 365.067 155.733,364.921 156.000,364.742 156.000 C 364.563 156.000,364.620 156.444,364.867 156.987 C 365.115 157.531,365.501 157.861,365.726 157.722 C 365.975 157.568,366.035 157.731,365.881 158.134 C 365.705 158.591,365.841 158.810,366.313 158.832 C 366.725 158.851,366.801 158.944,366.503 159.064 C 366.113 159.222,366.110 159.450,366.488 160.132 C 366.753 160.610,366.924 161.157,366.869 161.349 C 366.813 161.541,367.032 161.596,367.356 161.472 C 367.774 161.312,367.902 161.471,367.796 162.023 C 367.706 162.490,367.867 162.800,368.199 162.800 C 368.504 162.800,368.860 162.974,368.991 163.186 C 369.144 163.432,357.957 163.579,338.027 163.593 L 306.824 163.614 306.712 152.207 L 306.600 140.800 331.676 140.800 C 349.029 140.800,356.834 140.932,357.017 141.227 M389.810 151.584 C 389.471 152.133,389.771 152.545,390.362 152.342 C 390.604 152.258,390.635 151.976,390.437 151.657 C 390.187 151.255,390.025 151.236,389.810 151.584 M235.600 234.400 L 235.600 257.600 185.296 257.600 C 135.107 257.600,134.991 257.598,134.483 256.784 C 134.203 256.336,133.845 256.049,133.687 256.146 C 133.529 256.244,133.373 255.880,133.341 255.338 C 133.270 254.150,132.047 252.696,131.346 252.965 C 130.779 253.183,130.233 251.997,130.046 250.143 C 130.021 249.892,129.537 249.571,128.972 249.429 C 128.406 249.287,128.015 248.956,128.102 248.694 C 128.318 248.046,127.523 247.255,126.898 247.495 C 126.566 247.622,126.477 247.466,126.638 247.045 C 126.774 246.690,126.713 246.400,126.501 246.400 C 126.290 246.400,125.619 245.939,125.011 245.375 C 124.403 244.812,123.672 244.440,123.386 244.550 C 123.100 244.660,122.767 244.491,122.646 244.175 C 122.524 243.859,122.014 243.582,121.513 243.560 C 120.624 243.521,120.626 243.512,121.600 243.200 C 122.267 242.986,122.367 242.866,121.900 242.840 C 121.515 242.818,121.200 242.657,121.200 242.483 C 121.200 242.308,120.615 241.991,119.900 241.779 C 119.112 241.544,118.648 241.170,118.723 240.828 C 118.824 240.363,118.737 240.354,118.223 240.781 C 117.700 241.215,117.600 241.187,117.600 240.602 C 117.600 240.103,117.374 239.966,116.799 240.116 C 116.359 240.231,116.100 240.162,116.223 239.963 C 116.346 239.763,116.246 239.600,116.000 239.600 C 115.754 239.600,115.667 239.416,115.806 239.190 C 115.945 238.965,115.911 238.806,115.730 238.837 C 114.822 238.995,113.981 238.755,114.200 238.400 C 114.336 238.180,114.077 238.000,113.624 238.000 C 113.171 238.000,112.800 237.864,112.800 237.697 C 112.800 237.298,109.649 236.322,109.219 236.588 C 109.034 236.702,108.779 236.523,108.652 236.191 C 108.412 235.567,106.000 235.471,106.000 236.085 C 106.000 236.258,105.837 236.400,105.637 236.400 C 105.438 236.400,105.368 236.042,105.483 235.605 C 105.670 234.888,105.514 234.820,103.892 234.915 C 102.513 234.996,102.143 234.894,102.302 234.477 C 102.548 233.838,98.973 234.203,98.090 234.907 C 97.810 235.131,97.465 235.198,97.324 235.057 C 97.182 234.916,97.277 234.800,97.533 234.800 C 97.790 234.800,98.000 234.652,98.000 234.472 C 98.000 234.292,96.182 234.099,93.959 234.044 C 91.342 233.980,90.006 234.085,90.166 234.345 C 90.302 234.565,90.230 234.858,90.007 234.996 C 89.783 235.134,89.600 234.968,89.600 234.626 C 89.600 234.204,89.312 234.054,88.700 234.157 C 88.205 234.241,87.848 234.555,87.906 234.855 C 87.972 235.196,87.806 235.138,87.462 234.700 C 86.828 233.893,85.962 233.798,85.299 234.461 C 85.045 234.715,84.286 234.907,83.611 234.888 C 82.937 234.869,82.489 235.021,82.616 235.227 C 82.828 235.569,82.128 235.714,80.300 235.707 C 79.915 235.705,79.597 235.906,79.594 236.152 C 79.591 236.398,79.413 236.330,79.200 236.000 C 78.942 235.600,78.810 235.567,78.806 235.900 C 78.803 236.175,78.305 236.413,77.700 236.428 C 76.725 236.453,76.691 236.495,77.400 236.800 C 78.042 237.076,77.903 237.149,76.700 237.172 C 75.691 237.191,75.200 237.384,75.200 237.763 C 75.200 238.128,74.920 238.252,74.400 238.116 C 73.953 237.999,73.600 238.104,73.600 238.353 C 73.600 238.599,73.285 238.801,72.900 238.802 C 72.515 238.803,71.660 239.304,71.000 239.915 C 70.340 240.526,69.480 240.961,69.090 240.882 C 68.677 240.798,68.425 240.946,68.490 241.235 C 68.552 241.515,68.016 241.860,67.263 242.023 C 66.528 242.183,65.718 242.540,65.463 242.816 C 65.113 243.195,65.113 243.254,65.463 243.058 C 65.777 242.882,65.851 243.083,65.693 243.689 C 65.565 244.179,65.386 244.359,65.297 244.090 C 65.207 243.820,64.958 243.600,64.743 243.600 C 64.528 243.600,64.483 243.811,64.642 244.068 C 64.833 244.377,64.718 244.454,64.303 244.295 C 63.612 244.030,62.404 245.128,62.394 246.031 C 62.389 246.503,62.329 246.507,62.044 246.057 C 61.794 245.663,61.622 245.640,61.416 245.975 C 61.259 246.228,61.372 246.732,61.666 247.094 C 62.030 247.544,62.043 247.660,61.708 247.458 C 61.194 247.150,59.799 247.744,58.880 248.663 C 58.431 249.112,58.462 249.203,59.071 249.216 C 59.535 249.226,59.340 249.431,58.538 249.780 C 57.422 250.266,56.496 251.651,56.721 252.500 C 56.764 252.665,56.470 252.800,56.068 252.800 C 55.665 252.800,55.081 253.295,54.770 253.900 C 54.460 254.505,53.868 255.310,53.455 255.688 C 53.040 256.069,52.810 256.649,52.940 256.988 C 53.148 257.530,51.517 257.600,38.587 257.600 L 24.000 257.600 24.000 234.400 L 24.000 211.200 129.800 211.200 L 235.600 211.200 235.600 234.400 M91.994 258.582 C 91.997 258.352,92.645 258.120,93.433 258.067 C 94.340 258.006,94.771 258.123,94.609 258.385 C 94.468 258.613,94.543 258.800,94.776 258.800 C 95.009 258.800,95.203 258.575,95.206 258.300 C 95.210 257.978,95.317 257.947,95.506 258.214 C 95.668 258.441,96.722 258.621,97.849 258.614 C 99.454 258.603,99.850 258.723,99.681 259.166 C 99.542 259.529,99.634 259.626,99.937 259.439 C 100.197 259.278,100.976 259.429,101.667 259.773 C 102.358 260.118,103.300 260.403,103.761 260.406 C 104.449 260.411,104.492 260.482,104.000 260.800 C 103.520 261.110,103.592 261.189,104.356 261.194 C 104.882 261.197,105.570 261.515,105.886 261.900 C 106.259 262.356,106.368 262.390,106.197 262.000 C 106.053 261.670,106.406 261.912,106.981 262.538 C 107.649 263.264,108.259 263.586,108.670 263.429 C 109.199 263.225,109.226 263.286,108.821 263.775 C 108.408 264.272,108.469 264.341,109.200 264.200 C 109.840 264.077,109.969 264.161,109.686 264.516 C 109.425 264.844,109.534 265.239,110.024 265.742 C 110.727 266.464,110.741 266.461,110.525 265.636 C 110.266 264.646,111.376 264.839,111.764 265.852 C 111.903 266.212,111.822 266.337,111.557 266.173 C 111.290 266.009,111.177 266.193,111.264 266.653 C 111.341 267.064,111.807 267.577,112.300 267.794 C 112.906 268.060,113.122 268.415,112.970 268.894 C 112.847 269.282,112.938 269.600,113.173 269.600 C 113.408 269.600,113.600 270.050,113.600 270.600 C 113.600 271.150,113.780 271.600,114.000 271.600 C 114.220 271.600,114.400 271.851,114.400 272.157 C 114.400 272.464,114.678 272.821,115.019 272.952 C 115.359 273.082,115.608 273.417,115.571 273.695 C 115.422 274.834,115.645 275.201,116.500 275.228 C 117.149 275.248,117.233 275.332,116.800 275.528 C 116.061 275.863,115.828 279.111,116.485 279.903 C 117.010 280.535,117.180 282.400,116.713 282.400 C 116.541 282.400,116.400 282.591,116.400 282.824 C 116.400 283.057,116.625 283.116,116.900 282.955 C 117.175 282.794,117.085 283.023,116.700 283.463 C 115.939 284.332,115.794 285.855,116.383 286.787 C 116.790 287.430,116.149 288.539,115.576 288.185 C 115.392 288.071,115.312 288.343,115.398 288.789 C 115.496 289.301,115.341 289.600,114.977 289.600 C 114.267 289.600,114.237 290.064,114.900 290.779 C 115.300 291.210,115.300 291.261,114.900 291.035 C 114.570 290.849,114.400 291.034,114.400 291.576 C 114.400 292.313,113.990 292.588,113.100 292.447 C 112.935 292.421,112.800 292.655,112.800 292.967 C 112.800 293.278,112.935 293.609,113.100 293.701 C 113.265 293.793,113.191 293.820,112.936 293.761 C 112.680 293.701,112.003 294.361,111.430 295.226 C 110.857 296.092,110.201 296.800,109.971 296.800 C 109.741 296.800,109.664 296.980,109.800 297.200 C 109.936 297.420,109.836 297.600,109.577 297.600 C 109.314 297.600,109.193 297.931,109.303 298.349 C 109.447 298.902,109.322 299.052,108.825 298.922 C 108.418 298.816,107.489 299.389,106.476 300.373 C 105.554 301.267,104.800 301.819,104.800 301.600 C 104.800 301.007,104.028 301.115,103.339 301.804 C 103.007 302.136,102.566 302.302,102.358 302.174 C 102.150 302.046,102.030 302.158,102.090 302.424 C 102.154 302.707,101.703 302.938,101.000 302.982 C 100.340 303.023,99.440 303.244,99.000 303.474 C 98.560 303.704,97.950 303.803,97.644 303.694 C 97.339 303.585,97.199 303.674,97.333 303.892 C 97.602 304.327,96.257 304.255,95.034 303.769 C 94.534 303.570,94.359 303.611,94.530 303.887 C 94.685 304.138,94.305 304.382,93.596 304.486 C 92.701 304.617,92.398 304.503,92.394 304.031 C 92.389 303.477,92.340 303.474,92.000 304.000 C 91.787 304.330,91.609 304.405,91.606 304.167 C 91.599 303.668,90.447 303.676,89.631 304.181 C 89.254 304.414,89.168 304.376,89.362 304.062 C 89.543 303.768,89.339 303.600,88.800 303.600 C 88.229 303.600,88.051 303.763,88.253 304.100 C 88.447 304.423,88.307 304.400,87.858 304.035 C 87.305 303.587,87.269 303.395,87.681 303.102 C 88.019 302.863,87.684 302.805,86.724 302.938 C 85.556 303.099,85.293 303.023,85.466 302.571 C 85.733 301.876,85.139 301.821,84.480 302.480 C 84.107 302.853,84.000 302.764,84.000 302.080 C 84.000 301.424,83.762 301.200,83.062 301.200 C 82.546 301.200,81.802 300.844,81.409 300.409 C 81.015 299.975,80.537 299.715,80.347 299.833 C 80.156 299.951,80.000 299.777,80.000 299.447 C 80.000 299.067,79.714 298.901,79.223 298.996 C 78.729 299.091,78.515 298.965,78.636 298.649 C 78.888 297.994,77.483 296.400,76.653 296.400 C 76.267 296.400,76.000 296.073,76.000 295.600 C 76.000 295.160,75.775 294.845,75.500 294.900 C 75.219 294.956,75.052 294.691,75.119 294.294 C 75.188 293.884,75.020 293.632,74.719 293.694 C 74.434 293.752,74.245 293.575,74.300 293.300 C 74.355 293.025,74.220 292.800,74.000 292.800 C 73.780 292.800,73.621 292.665,73.647 292.500 C 73.776 291.684,73.544 291.200,73.024 291.200 C 72.707 291.200,72.337 291.022,72.203 290.805 C 72.055 290.566,72.244 290.519,72.678 290.685 C 73.353 290.944,73.358 290.901,72.758 289.981 C 72.407 289.441,72.166 288.691,72.222 288.312 C 72.279 287.934,72.122 287.664,71.872 287.712 C 71.607 287.764,71.411 287.220,71.400 286.400 C 71.389 285.630,71.222 284.747,71.029 284.438 C 70.787 284.053,70.822 283.966,71.138 284.162 C 71.392 284.319,71.600 284.257,71.600 284.024 C 71.600 283.791,71.439 283.600,71.242 283.600 C 71.045 283.600,70.815 282.880,70.731 282.000 C 70.643 281.070,70.751 280.400,70.991 280.400 C 71.219 280.400,71.440 279.321,71.487 277.985 C 71.534 276.645,71.412 275.669,71.213 275.792 C 71.016 275.914,70.742 275.830,70.604 275.607 C 70.466 275.383,70.644 275.200,71.000 275.200 C 71.411 275.200,71.538 275.018,71.347 274.700 C 71.143 274.360,71.263 274.376,71.723 274.749 C 72.320 275.233,72.400 275.195,72.400 274.425 C 72.400 273.893,72.229 273.659,71.960 273.825 C 71.655 274.013,71.661 273.833,71.980 273.237 C 72.253 272.727,72.635 272.495,72.920 272.666 C 73.184 272.824,73.130 272.614,72.800 272.200 C 72.470 271.786,72.416 271.576,72.680 271.734 C 72.968 271.907,73.352 271.658,73.640 271.111 C 73.904 270.610,74.318 270.068,74.560 269.906 C 74.846 269.715,74.790 269.606,74.400 269.594 C 73.927 269.580,73.948 269.489,74.500 269.168 C 74.885 268.944,75.200 268.509,75.200 268.203 C 75.200 267.896,75.605 267.343,76.100 266.973 C 76.708 266.520,76.773 266.378,76.300 266.538 C 75.915 266.668,75.600 266.601,75.600 266.387 C 75.600 266.174,75.870 266.000,76.200 266.000 C 76.530 266.000,76.800 265.809,76.800 265.576 C 76.800 265.343,76.935 265.235,77.100 265.334 C 77.265 265.434,77.632 265.265,77.916 264.958 C 78.337 264.503,78.337 264.397,77.916 264.384 C 77.632 264.375,77.895 264.099,78.500 263.771 C 79.105 263.443,79.600 263.017,79.600 262.825 C 79.600 262.632,79.960 262.569,80.400 262.684 C 80.847 262.801,81.200 262.696,81.200 262.447 C 81.200 262.201,81.470 262.000,81.800 262.000 C 82.130 262.000,82.400 261.820,82.400 261.600 C 82.400 261.380,82.659 261.200,82.976 261.200 C 83.293 261.200,83.681 260.992,83.838 260.738 C 84.027 260.433,83.946 260.386,83.600 260.600 C 83.278 260.799,83.174 260.766,83.329 260.515 C 83.467 260.291,84.062 260.199,84.650 260.312 C 85.389 260.453,85.632 260.375,85.436 260.058 C 85.246 259.751,85.565 259.600,86.400 259.600 C 87.130 259.600,87.545 259.434,87.400 259.200 C 87.249 258.956,87.855 258.800,88.953 258.800 C 89.943 258.800,90.876 258.601,91.026 258.357 C 91.217 258.049,91.404 258.079,91.644 258.457 C 91.833 258.756,91.991 258.812,91.994 258.582 M307.206 258.503 C 307.210 258.844,307.326 258.820,307.576 258.426 C 307.861 257.974,308.062 257.954,308.515 258.329 C 308.831 258.592,309.835 258.748,310.745 258.676 C 311.977 258.579,312.400 258.692,312.400 259.119 C 312.400 259.516,312.709 259.634,313.400 259.502 C 314.071 259.374,314.400 259.490,314.400 259.855 C 314.400 260.539,315.463 260.574,315.735 259.900 C 315.846 259.625,315.951 259.787,315.968 260.260 C 315.994 260.962,316.221 261.105,317.200 261.037 C 318.388 260.955,318.852 261.383,317.914 261.695 C 317.647 261.784,318.007 262.113,318.714 262.426 C 319.421 262.739,320.000 263.142,320.000 263.321 C 320.000 263.501,320.165 263.545,320.368 263.420 C 320.847 263.124,322.076 264.353,321.780 264.832 C 321.655 265.035,321.844 265.200,322.200 265.200 C 322.556 265.200,322.736 265.380,322.600 265.600 C 322.464 265.820,322.543 266.000,322.776 266.000 C 323.009 266.000,323.200 265.809,323.200 265.576 C 323.200 265.343,323.372 265.259,323.583 265.389 C 323.793 265.519,323.871 265.871,323.756 266.171 C 323.640 266.471,323.917 266.977,324.371 267.294 C 324.824 267.612,325.076 267.991,324.931 268.136 C 324.786 268.281,324.956 268.400,325.310 268.400 C 325.732 268.400,325.903 268.668,325.804 269.177 C 325.704 269.696,325.831 269.886,326.187 269.750 C 326.480 269.637,326.855 269.766,327.021 270.035 C 327.215 270.348,327.157 270.421,326.861 270.237 C 326.548 270.045,326.446 270.252,326.546 270.876 C 326.649 271.517,326.918 271.759,327.426 271.664 C 328.034 271.552,328.073 271.630,327.659 272.128 C 327.250 272.622,327.319 272.838,328.050 273.350 C 328.840 273.903,328.863 274.001,328.257 274.233 C 327.623 274.477,327.622 274.528,328.243 274.982 C 328.610 275.250,328.823 275.724,328.717 276.035 C 328.610 276.346,328.660 277.085,328.827 277.678 C 329.026 278.381,328.969 278.825,328.666 278.953 C 328.342 279.090,328.389 279.310,328.821 279.675 C 329.568 280.306,329.624 283.091,328.898 283.539 C 328.275 283.925,328.471 286.638,329.113 286.505 C 329.375 286.450,329.470 286.674,329.334 287.028 C 329.201 287.373,328.835 287.546,328.504 287.418 C 328.099 287.263,327.983 287.379,328.138 287.783 C 328.263 288.108,328.190 288.483,327.976 288.615 C 327.762 288.747,327.678 289.002,327.789 289.182 C 327.900 289.362,327.725 289.730,327.400 290.000 C 327.075 290.270,326.907 290.650,327.028 290.845 C 327.149 291.040,327.057 291.200,326.824 291.200 C 326.591 291.200,326.400 291.560,326.400 292.000 C 326.400 292.440,326.200 292.800,325.955 292.800 C 325.689 292.800,325.579 293.276,325.682 293.979 C 325.777 294.627,325.722 295.076,325.560 294.975 C 325.397 294.875,325.001 295.056,324.680 295.377 C 324.358 295.699,323.959 295.835,323.793 295.681 C 323.627 295.526,323.575 295.865,323.677 296.433 C 323.795 297.087,323.682 297.467,323.370 297.467 C 323.092 297.467,322.974 297.190,323.100 296.833 C 323.224 296.483,322.766 296.719,322.076 297.361 C 321.390 298.000,320.923 298.675,321.038 298.861 C 321.153 299.048,320.956 299.200,320.600 299.200 C 320.244 299.200,320.056 299.368,320.183 299.572 C 320.309 299.777,320.230 300.058,320.007 300.196 C 319.783 300.334,319.600 300.274,319.600 300.061 C 319.600 299.833,319.205 299.862,318.632 300.132 C 318.099 300.384,317.694 300.772,317.732 300.995 C 317.769 301.218,317.410 301.380,316.934 301.355 C 316.293 301.322,316.104 301.504,316.211 302.055 C 316.289 302.465,316.184 302.800,315.977 302.800 C 315.770 302.800,315.600 302.620,315.600 302.400 C 315.600 302.180,315.319 302.000,314.976 302.000 C 314.633 302.000,314.442 302.144,314.551 302.320 C 314.659 302.496,314.381 302.869,313.932 303.149 C 313.483 303.430,313.235 303.467,313.380 303.232 C 313.543 302.968,313.276 302.836,312.681 302.885 C 311.939 302.946,311.765 303.143,311.922 303.745 C 312.078 304.340,311.992 304.441,311.563 304.172 C 310.823 303.708,308.320 303.547,308.588 303.980 C 308.702 304.165,308.064 304.386,307.169 304.472 C 306.007 304.582,305.440 304.452,305.184 304.013 C 304.884 303.502,304.822 303.497,304.812 303.980 C 304.803 304.431,304.693 304.453,304.320 304.080 C 303.738 303.498,302.142 303.447,301.800 304.000 C 301.664 304.220,301.338 304.397,301.076 304.394 C 300.790 304.390,300.839 304.233,301.200 304.000 C 301.800 303.612,301.274 303.434,299.700 303.493 C 299.425 303.503,299.200 303.332,299.200 303.113 C 299.200 302.894,298.930 302.818,298.600 302.945 C 298.228 303.087,298.000 302.943,298.000 302.564 C 298.000 302.228,297.835 302.055,297.632 302.180 C 297.430 302.305,296.993 302.136,296.661 301.804 C 296.329 301.472,295.679 301.200,295.216 301.200 C 294.753 301.200,294.272 300.931,294.146 300.602 C 294.019 300.274,293.767 300.097,293.585 300.209 C 293.404 300.321,293.001 300.052,292.691 299.609 C 292.382 299.167,292.026 298.908,291.901 299.033 C 291.775 299.158,291.550 298.874,291.400 298.401 C 291.235 297.879,290.906 297.627,290.564 297.759 C 290.196 297.900,290.000 297.701,290.000 297.187 C 290.000 296.751,289.730 296.400,289.394 296.400 C 289.061 296.400,288.460 295.861,288.059 295.201 C 287.658 294.542,287.182 294.137,287.001 294.301 C 286.820 294.466,286.798 294.380,286.952 294.111 C 287.107 293.843,286.955 293.198,286.615 292.679 C 286.275 292.161,286.118 291.616,286.265 291.468 C 286.413 291.321,286.221 291.200,285.840 291.200 C 285.303 291.200,285.211 290.997,285.431 290.303 C 285.673 289.540,285.626 289.480,285.118 289.902 C 284.601 290.331,284.542 290.181,284.680 288.799 C 284.780 287.799,284.674 287.200,284.396 287.200 C 284.152 287.200,284.079 287.425,284.233 287.700 C 284.387 287.975,284.210 287.916,283.840 287.569 C 283.297 287.060,283.248 286.726,283.587 285.834 C 284.126 284.416,283.980 282.478,283.316 282.223 C 282.642 281.965,282.651 280.832,283.328 280.572 C 283.702 280.429,283.838 279.573,283.795 277.623 C 283.748 275.483,283.852 274.922,284.267 275.081 C 284.625 275.218,284.800 274.951,284.800 274.266 C 284.800 273.706,284.963 273.146,285.162 273.023 C 285.362 272.900,285.429 272.432,285.311 271.983 C 285.169 271.438,285.273 271.205,285.625 271.283 C 285.915 271.347,286.228 271.040,286.319 270.600 C 286.411 270.160,286.834 269.471,287.259 269.069 C 287.684 268.668,288.137 267.815,288.265 267.176 C 288.393 266.536,288.619 266.088,288.768 266.180 C 289.344 266.536,290.025 265.683,290.111 264.499 C 290.189 263.407,290.274 263.326,290.820 263.819 C 291.355 264.303,291.516 264.272,292.008 263.589 C 292.321 263.155,292.942 262.795,293.388 262.788 C 294.119 262.777,294.132 262.736,293.517 262.377 C 293.118 262.145,292.933 261.719,293.072 261.356 C 293.251 260.890,293.388 260.857,293.615 261.225 C 293.808 261.537,294.190 261.598,294.660 261.393 C 295.067 261.215,295.520 261.054,295.667 261.035 C 295.813 261.016,296.083 260.836,296.267 260.636 C 296.465 260.419,296.358 260.409,296.000 260.613 C 295.483 260.907,295.476 260.860,295.949 260.277 C 296.532 259.557,297.418 259.324,297.000 260.000 C 296.864 260.220,297.044 260.400,297.400 260.400 C 297.756 260.400,297.936 260.220,297.800 260.000 C 297.579 259.642,298.462 259.433,299.927 259.497 C 300.218 259.510,300.375 259.313,300.278 259.060 C 300.153 258.738,300.758 258.642,302.298 258.740 C 303.599 258.823,304.402 258.727,304.265 258.505 C 304.137 258.299,304.746 258.102,305.617 258.068 C 306.642 258.028,307.202 258.181,307.206 258.503 M340.601 312.798 C 339.889 313.951,340.000 314.940,340.754 314.157 C 341.204 313.690,341.327 313.299,341.077 313.136 C 340.853 312.991,341.104 312.791,341.635 312.691 C 342.527 312.523,342.534 312.505,341.724 312.454 C 341.242 312.425,340.736 312.579,340.601 312.798 " stroke="none" fill="#ecfcfc" fill-rule="evenodd"></path><path id="path1" d="M349.819 72.714 C 349.720 72.814,349.901 73.158,350.223 73.480 C 350.544 73.801,350.687 74.275,350.540 74.532 C 350.392 74.790,350.418 74.868,350.596 74.706 C 350.775 74.545,351.125 74.691,351.373 75.031 C 351.766 75.568,351.834 75.540,351.888 74.825 C 351.922 74.370,351.709 74.000,351.413 74.000 C 351.088 74.000,350.951 73.709,351.067 73.267 C 351.242 72.597,350.337 72.196,349.819 72.714 M353.646 80.476 C 353.587 81.344,354.080 81.645,354.816 81.190 C 355.308 80.886,355.311 80.757,354.838 80.317 C 354.493 79.996,354.383 79.979,354.548 80.272 C 354.694 80.532,354.644 80.849,354.437 80.977 C 354.230 81.105,353.978 80.893,353.877 80.505 C 353.712 79.875,353.688 79.872,353.646 80.476 M354.851 82.700 C 355.526 83.560,356.087 83.986,356.558 83.994 C 356.756 83.997,356.431 83.550,355.838 83.000 C 354.590 81.844,354.051 81.680,354.851 82.700 M357.333 86.606 C 357.333 86.933,357.453 87.200,357.600 87.200 C 357.747 87.200,357.867 87.470,357.867 87.800 C 357.867 88.130,357.717 88.400,357.533 88.400 C 357.350 88.400,357.200 88.582,357.200 88.803 C 357.200 89.042,357.529 89.001,358.004 88.705 C 358.446 88.429,358.636 88.145,358.426 88.075 C 358.217 88.006,358.133 87.719,358.241 87.438 C 358.348 87.158,358.188 86.722,357.885 86.470 C 357.458 86.116,357.333 86.147,357.333 86.606 M358.400 90.254 C 358.400 90.553,358.656 90.677,359.000 90.545 C 359.330 90.418,359.600 90.184,359.600 90.024 C 359.600 89.864,359.330 89.733,359.000 89.733 C 358.670 89.733,358.400 89.968,358.400 90.254 M359.864 92.400 C 360.538 93.542,361.200 93.975,361.200 93.275 C 361.200 92.912,359.684 91.200,359.362 91.200 C 359.248 91.200,359.474 91.740,359.864 92.400 M334.133 95.755 C 334.133 96.060,334.418 96.254,334.767 96.185 C 335.115 96.117,335.490 96.045,335.600 96.024 C 335.845 95.979,334.692 95.215,334.367 95.206 C 334.238 95.203,334.133 95.450,334.133 95.755 M362.800 97.767 C 362.800 98.773,363.271 99.600,363.843 99.600 C 364.149 99.600,364.400 99.420,364.400 99.200 C 364.400 98.980,364.118 98.800,363.773 98.800 C 363.328 98.800,363.220 98.568,363.400 98.000 C 363.546 97.541,363.472 97.200,363.227 97.200 C 362.992 97.200,362.800 97.455,362.800 97.767 M337.600 100.424 C 337.600 100.657,337.432 100.744,337.228 100.617 C 337.023 100.491,336.755 100.549,336.632 100.748 C 336.509 100.947,336.731 101.193,337.124 101.296 C 337.609 101.423,337.856 101.245,337.894 100.741 C 337.925 100.334,337.871 100.000,337.775 100.000 C 337.679 100.000,337.600 100.191,337.600 100.424 M363.632 100.713 C 363.614 100.994,363.880 101.333,364.223 101.464 C 364.566 101.596,364.753 101.945,364.640 102.241 C 364.526 102.537,364.724 102.941,365.078 103.140 C 365.474 103.361,365.624 103.760,365.466 104.171 C 365.325 104.540,365.372 104.741,365.570 104.618 C 365.769 104.495,366.039 104.621,366.170 104.898 C 366.301 105.174,366.314 104.782,366.199 104.026 C 366.084 103.271,365.746 102.371,365.447 102.026 C 365.149 101.682,365.000 101.130,365.117 100.800 C 365.295 100.299,365.227 100.285,364.704 100.717 C 364.192 101.139,364.040 101.139,363.870 100.717 C 363.704 100.301,363.657 100.300,363.632 100.713 M338.255 103.800 C 338.129 104.130,338.199 104.400,338.413 104.400 C 338.626 104.400,338.800 104.220,338.800 104.000 C 338.800 103.780,338.991 103.600,339.224 103.600 C 339.457 103.600,339.519 103.808,339.362 104.062 C 339.184 104.350,339.252 104.415,339.545 104.234 C 339.802 104.075,339.909 103.777,339.783 103.572 C 339.427 102.996,338.511 103.132,338.255 103.800 M338.933 105.480 C 338.933 105.766,339.263 106.000,339.667 106.000 C 340.070 106.000,340.400 105.741,340.400 105.425 C 340.400 105.109,340.070 104.875,339.667 104.905 C 339.263 104.935,338.933 105.194,338.933 105.480 M366.349 105.877 C 365.976 106.337,365.960 106.457,366.300 106.253 C 366.598 106.074,366.802 106.165,366.806 106.476 C 366.811 106.857,366.918 106.836,367.200 106.400 C 368.019 105.132,367.308 104.695,366.349 105.877 M340.846 107.067 C 340.821 107.324,340.684 107.864,340.541 108.267 C 340.340 108.836,340.394 108.897,340.779 108.542 C 341.052 108.291,341.189 107.751,341.084 107.342 C 340.979 106.934,340.872 106.810,340.846 107.067 M368.242 108.732 C 368.130 108.914,368.563 109.700,369.205 110.479 C 369.846 111.258,370.243 112.037,370.086 112.212 C 369.929 112.386,370.037 112.392,370.326 112.224 C 370.742 111.984,370.701 111.753,370.126 111.118 C 369.727 110.677,369.429 110.249,369.465 110.167 C 369.832 109.325,368.698 107.993,368.242 108.732 M341.326 109.700 C 341.301 110.195,341.365 110.385,341.467 110.122 C 341.569 109.859,341.954 109.759,342.326 109.900 C 342.957 110.139,342.957 110.112,342.329 109.478 C 341.462 108.603,341.379 108.621,341.326 109.700 M342.440 111.667 C 342.376 112.737,342.838 113.600,343.476 113.600 C 343.801 113.600,344.002 113.407,343.923 113.170 C 343.845 112.934,343.605 112.764,343.390 112.794 C 343.176 112.823,342.883 112.432,342.740 111.924 C 342.576 111.343,342.465 111.248,342.440 111.667 M370.466 113.321 C 370.146 113.706,370.235 113.847,370.820 113.892 C 371.619 113.952,371.881 113.421,371.245 113.028 C 371.050 112.907,370.699 113.039,370.466 113.321 M343.200 114.357 C 343.200 114.601,343.425 114.755,343.700 114.700 C 343.994 114.641,344.180 114.978,344.151 115.516 C 344.124 116.020,344.214 116.320,344.351 116.183 C 344.488 116.045,344.603 115.813,344.606 115.667 C 344.609 115.520,344.755 115.175,344.930 114.900 C 345.105 114.625,345.072 114.400,344.856 114.400 C 344.641 114.400,344.181 114.291,343.833 114.157 C 343.485 114.024,343.200 114.114,343.200 114.357 M371.497 115.671 C 371.770 116.003,371.913 116.353,371.816 116.451 C 371.718 116.549,371.976 116.629,372.390 116.629 C 373.291 116.629,373.079 116.177,371.878 115.537 C 371.115 115.130,371.065 115.148,371.497 115.671 M372.800 117.671 C 372.800 118.018,373.056 118.514,373.368 118.773 C 373.819 119.148,373.917 119.116,373.844 118.618 C 373.707 117.683,372.800 116.860,372.800 117.671 M373.600 119.896 C 373.930 120.025,374.416 120.416,374.680 120.765 C 375.090 121.307,375.127 121.268,374.933 120.500 C 374.783 119.903,374.419 119.611,373.853 119.632 C 373.256 119.654,373.180 119.733,373.600 119.896 M376.678 127.056 C 376.371 127.362,376.711 128.000,377.181 128.000 C 377.364 128.000,377.618 127.730,377.745 127.400 C 377.973 126.805,377.183 126.550,376.678 127.056 M379.060 130.587 C 378.936 130.910,379.007 131.281,379.217 131.411 C 379.428 131.541,379.600 131.561,379.600 131.456 C 379.600 131.351,379.709 130.981,379.843 130.633 C 379.976 130.285,379.906 130.000,379.686 130.000 C 379.466 130.000,379.184 130.264,379.060 130.587 M380.128 133.785 C 380.318 134.354,381.297 134.309,381.492 133.723 C 381.585 133.445,381.306 133.272,380.821 133.308 C 380.364 133.343,380.053 133.558,380.128 133.785 M381.017 135.172 C 380.891 135.377,380.998 135.675,381.255 135.834 C 381.566 136.026,381.625 135.934,381.432 135.562 C 381.272 135.253,381.424 135.349,381.770 135.776 C 382.388 136.538,382.400 136.536,382.400 135.676 C 382.400 134.800,381.459 134.457,381.017 135.172 M383.353 140.077 C 383.236 140.265,383.379 140.370,383.670 140.310 C 383.962 140.249,384.155 140.425,384.100 140.700 C 384.045 140.975,384.191 141.200,384.424 141.200 C 384.657 141.200,384.736 141.380,384.600 141.600 C 384.464 141.820,384.633 142.000,384.976 142.000 C 385.319 142.000,385.600 141.820,385.600 141.600 C 385.600 141.380,385.420 141.200,385.200 141.200 C 384.980 141.200,384.800 140.870,384.800 140.467 C 384.800 139.726,383.745 139.442,383.353 140.077 M315.200 141.091 C 338.482 141.368,357.107 141.372,356.938 141.100 C 356.836 140.935,345.378 140.841,331.476 140.892 C 317.574 140.943,310.250 141.032,315.200 141.091 M359.491 146.700 C 360.246 148.686,360.609 149.095,361.127 148.540 C 361.411 148.236,361.453 148.000,361.223 148.000 C 360.999 148.000,360.702 147.550,360.564 147.000 C 360.426 146.450,360.068 146.000,359.769 146.000 C 359.416 146.000,359.319 146.246,359.491 146.700 M387.200 147.413 C 387.200 147.969,387.459 148.524,387.775 148.646 C 388.091 148.767,388.252 149.121,388.132 149.433 C 388.012 149.745,388.114 150.000,388.357 150.000 C 388.601 150.000,388.800 149.809,388.800 149.576 C 388.800 149.343,389.025 149.267,389.300 149.407 C 389.575 149.547,389.395 149.303,388.900 148.866 C 387.924 148.005,387.695 147.399,388.500 147.806 C 388.775 147.945,388.688 147.803,388.306 147.490 C 387.925 147.177,387.730 146.804,387.873 146.660 C 388.016 146.517,387.923 146.400,387.667 146.400 C 387.410 146.400,387.200 146.856,387.200 147.413 M389.099 150.490 C 388.801 151.273,389.503 152.800,390.160 152.800 C 390.893 152.800,391.308 154.032,390.995 155.279 C 390.799 156.060,390.919 156.238,391.678 156.291 C 392.491 156.348,392.516 156.308,391.892 155.953 C 391.502 155.732,391.290 155.378,391.421 155.166 C 391.911 154.374,391.159 152.400,390.368 152.400 C 389.518 152.400,389.379 151.981,390.017 151.343 C 390.306 151.054,390.259 150.781,389.864 150.453 C 389.422 150.086,389.250 150.094,389.099 150.490 M362.800 153.551 C 362.800 153.744,363.105 154.149,363.477 154.451 C 363.937 154.824,364.057 154.840,363.853 154.500 C 363.657 154.174,363.805 153.998,364.276 153.994 C 364.890 153.989,364.909 153.929,364.400 153.600 C 363.648 153.114,362.800 153.088,362.800 153.551 M364.596 155.207 C 364.458 155.430,364.149 155.492,363.911 155.345 C 363.651 155.185,363.591 155.263,363.762 155.538 C 364.172 156.202,365.067 156.107,365.067 155.400 C 365.067 154.697,364.942 154.646,364.596 155.207 M394.287 161.882 C 394.550 162.567,395.061 162.540,395.334 161.827 C 395.480 161.448,395.305 161.272,394.821 161.308 C 394.398 161.340,394.172 161.582,394.287 161.882 M396.000 164.800 C 396.000 165.020,396.270 165.200,396.600 165.200 C 396.930 165.200,397.200 165.020,397.200 164.800 C 397.200 164.580,396.930 164.400,396.600 164.400 C 396.270 164.400,396.000 164.580,396.000 164.800 M396.790 166.381 C 397.037 166.844,397.411 167.117,397.620 166.988 C 398.172 166.646,398.097 166.480,397.170 165.984 C 396.408 165.576,396.377 165.609,396.790 166.381 M397.657 167.956 C 397.279 168.196,397.249 168.383,397.557 168.574 C 398.065 168.887,398.800 168.534,398.800 167.976 C 398.800 167.511,398.371 167.504,397.657 167.956 M398.800 169.544 C 398.800 170.226,399.274 171.200,399.605 171.200 C 400.007 171.200,399.626 169.663,399.152 169.370 C 398.958 169.251,398.800 169.329,398.800 169.544 M97.684 234.615 C 97.126 235.248,97.596 235.437,98.220 234.831 C 98.429 234.628,99.140 234.385,99.800 234.291 C 100.946 234.128,100.937 234.118,99.600 234.075 C 98.823 234.050,97.971 234.290,97.684 234.615 M299.377 234.362 C 299.500 234.562,299.961 234.631,300.400 234.516 C 301.501 234.228,301.402 234.000,300.176 234.000 C 299.613 234.000,299.254 234.163,299.377 234.362 M81.064 235.377 C 80.933 235.718,81.182 235.816,81.853 235.688 C 82.851 235.497,82.831 235.110,81.816 234.961 C 81.508 234.916,81.169 235.103,81.064 235.377 M105.484 235.600 C 105.369 236.040,105.438 236.400,105.637 236.400 C 105.837 236.400,106.000 236.209,106.000 235.976 C 106.000 235.743,106.178 235.663,106.395 235.797 C 106.622 235.937,106.689 235.777,106.553 235.421 C 106.223 234.562,105.734 234.644,105.484 235.600 M293.600 235.200 C 293.600 235.420,293.825 235.603,294.100 235.606 C 294.433 235.610,294.400 235.742,294.000 236.000 C 293.487 236.331,293.502 236.389,294.100 236.394 C 294.535 236.398,294.800 236.098,294.800 235.600 C 294.800 235.156,294.533 234.800,294.200 234.800 C 293.870 234.800,293.600 234.980,293.600 235.200 M317.600 235.387 C 317.600 235.745,317.835 235.885,318.200 235.745 C 318.530 235.618,318.800 235.354,318.800 235.157 C 318.800 234.961,318.530 234.800,318.200 234.800 C 317.870 234.800,317.600 235.064,317.600 235.387 M70.180 239.961 C 69.971 240.160,69.440 240.392,69.000 240.477 L 68.200 240.632 69.000 240.851 C 69.478 240.981,70.110 240.773,70.570 240.334 C 70.993 239.931,71.164 239.600,70.950 239.600 C 70.735 239.600,70.389 239.763,70.180 239.961 M117.600 240.782 C 117.600 241.012,117.735 241.162,117.900 241.115 C 118.065 241.068,118.620 241.263,119.134 241.547 C 120.288 242.186,120.621 241.961,119.679 241.179 C 118.809 240.457,117.600 240.226,117.600 240.782 M64.900 243.212 C 63.983 243.581,63.655 244.400,64.424 244.400 C 64.657 244.400,64.736 244.220,64.600 244.000 C 64.464 243.780,64.528 243.600,64.743 243.600 C 64.958 243.600,65.207 243.820,65.297 244.090 C 65.386 244.359,65.564 244.179,65.692 243.690 C 65.820 243.200,65.897 242.811,65.863 242.825 C 65.828 242.839,65.395 243.013,64.900 243.212 M334.006 243.300 C 334.000 243.948,334.467 244.196,335.368 244.025 C 335.570 243.986,335.503 244.235,335.219 244.577 C 334.901 244.960,334.866 245.200,335.127 245.200 C 335.361 245.200,335.664 245.020,335.800 244.800 C 335.936 244.580,336.262 244.414,336.524 244.432 C 336.867 244.454,336.861 244.519,336.500 244.665 C 335.928 244.896,335.820 245.600,336.357 245.600 C 337.337 245.600,337.082 244.360,335.986 243.793 C 335.334 243.455,334.797 243.319,334.794 243.490 C 334.791 243.660,334.613 243.530,334.400 243.200 C 334.069 242.687,334.011 242.702,334.006 243.300 M121.400 243.480 C 121.840 243.583,122.380 243.877,122.600 244.134 C 123.005 244.606,124.400 244.889,124.400 244.500 C 124.400 243.955,122.879 243.229,121.800 243.259 C 120.989 243.282,120.860 243.354,121.400 243.480 M276.224 243.813 C 275.602 244.283,275.572 244.400,276.075 244.400 C 276.420 244.400,276.926 244.130,277.200 243.800 C 277.834 243.037,277.239 243.044,276.224 243.813 M62.662 244.731 C 62.298 245.134,62.011 245.719,62.025 246.031 C 62.039 246.344,62.229 246.154,62.446 245.610 C 62.765 244.810,62.911 244.732,63.203 245.205 C 63.480 245.653,63.549 245.581,63.497 244.895 C 63.416 243.821,63.476 243.832,62.662 244.731 M337.600 245.613 C 337.600 245.826,337.810 246.000,338.067 246.000 C 338.323 246.000,338.420 246.114,338.281 246.253 C 337.761 246.772,338.785 247.929,339.580 247.721 C 340.273 247.540,340.299 247.442,339.789 246.932 C 339.468 246.611,339.027 246.460,338.808 246.595 C 338.585 246.733,338.506 246.590,338.628 246.272 C 338.748 245.959,338.566 245.596,338.223 245.464 C 337.880 245.333,337.600 245.399,337.600 245.613 M60.100 246.998 C 59.362 247.836,59.491 248.086,60.408 247.596 C 60.853 247.358,61.438 247.296,61.708 247.458 C 62.027 247.650,62.007 247.515,61.651 247.077 C 60.993 246.265,60.756 246.253,60.100 246.998 M56.500 251.023 C 55.870 251.707,55.850 252.800,56.467 252.800 C 56.723 252.800,56.820 252.686,56.681 252.547 C 56.542 252.408,56.616 251.943,56.846 251.513 C 57.360 250.553,57.175 250.291,56.500 251.023 M130.250 250.719 C 129.932 251.234,130.796 253.250,131.223 252.986 C 131.604 252.750,131.499 252.027,130.940 251.049 C 130.678 250.589,130.409 250.461,130.250 250.719 M269.379 250.766 C 269.503 250.967,269.395 251.202,269.139 251.287 C 268.560 251.480,268.257 253.200,268.803 253.200 C 269.171 253.200,269.365 252.626,269.244 251.889 C 269.216 251.718,269.464 251.473,269.796 251.346 C 270.587 251.043,270.574 250.400,269.776 250.400 C 269.433 250.400,269.255 250.565,269.379 250.766 M342.922 250.933 C 343.075 251.336,343.200 251.831,343.200 252.033 C 343.200 252.235,343.380 252.400,343.600 252.400 C 344.217 252.400,344.074 251.617,343.322 250.871 C 342.688 250.243,342.662 250.246,342.922 250.933 M133.371 255.598 C 133.371 256.018,133.451 256.282,133.549 256.184 C 133.647 256.087,133.968 256.207,134.263 256.452 C 135.046 257.102,134.920 256.495,134.086 255.600 C 133.383 254.846,133.371 254.846,133.371 255.598 M92.000 258.482 C 92.000 258.953,94.311 258.868,94.609 258.385 C 94.771 258.123,94.340 258.006,93.433 258.067 C 92.645 258.120,92.000 258.307,92.000 258.482 M304.240 258.465 C 304.533 258.939,307.200 258.883,307.200 258.403 C 307.200 258.184,306.487 258.034,305.617 258.068 C 304.746 258.102,304.126 258.281,304.240 258.465 M311.657 258.763 C 311.255 259.013,311.236 259.175,311.584 259.390 C 312.133 259.729,312.545 259.429,312.342 258.838 C 312.258 258.596,311.976 258.565,311.657 258.763 M295.600 260.600 C 294.594 261.671,293.604 261.917,293.594 261.100 C 293.590 260.766,293.462 260.798,293.211 261.197 C 292.559 262.227,293.466 262.581,294.679 261.771 C 295.296 261.359,295.980 261.077,296.200 261.144 C 296.420 261.212,296.468 261.134,296.306 260.973 C 296.145 260.811,296.325 260.442,296.706 260.152 C 297.088 259.863,297.206 259.620,296.970 259.613 C 296.733 259.606,296.117 260.050,295.600 260.600 M106.133 262.171 C 106.133 262.485,106.480 262.832,106.903 262.943 C 107.640 263.136,107.643 263.110,106.975 262.372 C 106.139 261.449,106.133 261.447,106.133 262.171 M79.632 262.687 C 79.614 262.955,79.105 263.443,78.500 263.771 C 77.895 264.099,77.670 264.369,78.000 264.371 C 78.909 264.376,80.111 263.320,79.873 262.725 C 79.725 262.354,79.654 262.343,79.632 262.687 M108.650 263.519 C 108.228 264.203,109.130 265.031,109.683 264.468 C 110.106 264.038,110.091 263.966,109.600 264.071 C 109.270 264.142,109.045 263.975,109.100 263.700 C 109.212 263.138,108.950 263.033,108.650 263.519 M290.092 264.716 C 289.985 266.198,289.986 266.198,290.641 265.263 C 291.197 264.469,291.213 264.242,290.749 263.779 C 290.284 263.315,290.184 263.459,290.092 264.716 M110.493 265.815 C 110.571 266.757,111.200 267.256,111.200 266.376 C 111.200 266.143,111.378 266.063,111.595 266.197 C 111.818 266.335,111.892 266.183,111.764 265.852 C 111.347 264.764,110.404 264.737,110.493 265.815 M76.800 265.576 C 76.800 265.809,76.530 266.000,76.200 266.000 C 75.870 266.000,75.600 266.186,75.600 266.414 C 75.600 266.683,75.915 266.665,76.500 266.360 C 77.706 265.732,77.716 265.719,77.227 265.416 C 76.992 265.271,76.800 265.343,76.800 265.576 M288.400 266.895 C 288.400 267.572,288.467 267.590,289.000 267.057 C 289.330 266.727,289.600 266.384,289.600 266.295 C 289.600 266.206,289.330 266.133,289.000 266.133 C 288.670 266.133,288.400 266.476,288.400 266.895 M112.077 268.430 C 112.156 268.666,112.391 268.860,112.600 268.860 C 112.809 268.860,113.044 268.666,113.123 268.430 C 113.202 268.194,112.967 268.000,112.600 268.000 C 112.233 268.000,111.998 268.194,112.077 268.430 M325.055 269.000 C 325.182 269.330,325.446 269.600,325.643 269.600 C 325.839 269.600,326.000 269.960,326.000 270.400 C 326.000 270.840,326.174 271.200,326.387 271.200 C 326.601 271.200,326.660 270.900,326.519 270.534 C 326.333 270.047,326.416 269.948,326.832 270.164 C 327.144 270.326,327.040 270.163,326.600 269.801 C 326.160 269.440,325.845 268.976,325.900 268.772 C 325.955 268.567,325.736 268.400,325.413 268.400 C 325.055 268.400,324.915 268.635,325.055 269.000 M72.452 271.800 C 72.517 272.020,72.338 272.619,72.055 273.130 C 71.575 273.997,71.594 274.031,72.335 273.635 C 73.116 273.217,73.260 272.326,72.645 271.712 C 72.474 271.540,72.387 271.580,72.452 271.800 M327.019 271.970 C 326.763 272.383,327.576 274.400,327.998 274.400 C 328.718 274.400,328.708 273.811,327.978 273.300 C 327.334 272.848,327.260 272.609,327.630 272.164 C 327.938 271.792,327.953 271.600,327.673 271.600 C 327.439 271.600,327.144 271.767,327.019 271.970 M71.347 274.700 C 71.541 275.023,71.403 275.200,70.957 275.200 C 70.166 275.200,70.527 275.713,71.410 275.843 C 72.301 275.973,72.474 275.358,71.719 274.745 C 71.256 274.370,71.140 274.356,71.347 274.700 M115.232 275.057 C 115.214 275.529,115.479 276.022,115.821 276.153 C 116.162 276.284,116.340 276.227,116.216 276.026 C 116.092 275.825,116.307 275.578,116.695 275.477 C 117.251 275.332,117.217 275.283,116.533 275.246 C 116.057 275.221,115.576 274.975,115.465 274.700 C 115.354 274.425,115.249 274.586,115.232 275.057 M283.600 275.413 C 283.600 275.736,283.870 276.000,284.200 276.000 C 284.530 276.000,284.800 275.839,284.800 275.643 C 284.800 275.446,284.530 275.182,284.200 275.055 C 283.835 274.915,283.600 275.055,283.600 275.413 M327.600 275.118 C 327.600 275.329,327.891 275.743,328.246 276.038 C 328.805 276.502,328.873 276.473,328.746 275.820 C 328.595 275.043,327.600 274.433,327.600 275.118 M328.400 277.800 C 328.400 278.350,328.555 278.800,328.745 278.800 C 328.934 278.800,329.003 278.350,328.898 277.800 C 328.793 277.250,328.638 276.800,328.553 276.800 C 328.469 276.800,328.400 277.250,328.400 277.800 M116.164 279.751 C 115.636 281.126,116.169 284.171,116.800 283.389 C 117.146 282.961,117.188 282.774,116.900 282.947 C 116.625 283.112,116.400 283.057,116.400 282.824 C 116.400 282.591,116.541 282.400,116.713 282.400 C 117.090 282.400,117.058 280.742,116.670 280.114 C 116.519 279.869,116.621 279.577,116.898 279.466 C 117.294 279.306,117.292 279.257,116.887 279.232 C 116.606 279.214,116.280 279.448,116.164 279.751 M328.619 279.569 C 328.214 280.224,328.506 283.631,328.955 283.482 C 329.471 283.310,329.622 280.000,329.114 280.000 C 328.915 280.000,328.864 279.820,329.000 279.600 C 329.136 279.380,329.157 279.200,329.047 279.200 C 328.937 279.200,328.745 279.366,328.619 279.569 M70.731 282.000 C 70.815 282.880,71.045 283.600,71.242 283.600 C 71.439 283.600,71.600 282.880,71.600 282.000 C 71.600 280.969,71.418 280.400,71.089 280.400 C 70.735 280.400,70.626 280.889,70.731 282.000 M282.952 280.981 C 282.829 281.300,282.846 281.750,282.988 281.981 C 283.454 282.735,284.000 282.421,284.000 281.400 C 284.000 280.316,283.313 280.041,282.952 280.981 M46.520 283.567 C 46.597 284.945,47.230 285.428,47.520 284.330 C 47.615 283.974,47.516 283.997,47.221 284.400 C 46.720 285.084,46.786 283.372,47.293 282.567 C 47.442 282.328,47.312 282.133,47.003 282.133 C 46.609 282.133,46.464 282.564,46.520 283.567 M258.832 284.900 C 258.853 285.501,258.939 285.601,259.092 285.200 C 259.217 284.870,259.518 284.468,259.760 284.306 C 260.031 284.125,259.932 284.010,259.500 284.006 C 259.030 284.002,258.810 284.295,258.832 284.900 M283.482 286.008 C 283.310 286.667,283.438 287.195,283.868 287.598 C 284.223 287.929,284.396 287.990,284.254 287.734 C 284.111 287.478,284.221 287.177,284.498 287.065 C 284.855 286.920,284.873 286.765,284.560 286.530 C 284.318 286.349,284.035 285.935,283.930 285.610 C 283.803 285.216,283.655 285.347,283.482 286.008 M71.310 286.794 C 71.279 287.208,71.474 287.729,71.743 287.953 C 72.098 288.248,72.248 288.152,72.290 287.606 C 72.321 287.192,72.126 286.671,71.857 286.447 C 71.502 286.152,71.352 286.248,71.310 286.794 M258.854 287.476 C 258.825 288.398,258.978 289.263,259.195 289.397 C 259.422 289.537,259.489 289.377,259.353 289.021 C 259.210 288.649,259.332 288.398,259.657 288.394 C 260.039 288.390,260.064 288.301,259.740 288.094 C 259.488 287.932,259.197 287.350,259.095 286.800 C 258.971 286.135,258.891 286.361,258.854 287.476 M352.564 286.632 C 352.718 287.682,353.600 288.270,353.600 287.323 C 353.600 286.862,353.348 286.389,353.039 286.270 C 352.703 286.141,352.513 286.285,352.564 286.632 M115.267 287.344 C 115.335 287.864,115.145 288.584,114.846 288.944 C 114.379 289.508,114.397 289.600,114.975 289.600 C 115.345 289.600,115.551 289.444,115.433 289.253 C 115.315 289.063,115.562 288.596,115.982 288.216 C 116.814 287.463,116.665 286.400,115.729 286.400 C 115.345 286.400,115.185 286.725,115.267 287.344 M327.814 286.923 C 327.735 287.185,327.586 287.760,327.481 288.200 C 327.376 288.640,327.147 289.360,326.970 289.800 C 326.686 290.510,326.726 290.539,327.321 290.055 C 327.689 289.755,327.900 289.362,327.789 289.182 C 327.678 289.002,327.762 288.747,327.976 288.615 C 328.190 288.483,328.263 288.108,328.138 287.783 C 327.983 287.379,328.099 287.263,328.504 287.418 C 328.830 287.544,329.190 287.402,329.304 287.105 C 329.432 286.773,329.211 286.541,328.735 286.505 C 328.307 286.473,327.893 286.661,327.814 286.923 M46.513 289.100 C 46.461 290.049,46.500 290.090,46.798 289.400 C 47.248 288.358,47.271 288.000,46.887 288.000 C 46.715 288.000,46.547 288.495,46.513 289.100 M140.782 288.500 C 140.737 288.665,140.661 288.935,140.614 289.100 C 140.566 289.265,140.223 290.083,139.851 290.918 C 139.204 292.369,139.254 293.200,139.988 293.200 C 140.176 293.200,140.280 292.752,140.220 292.204 C 140.160 291.656,140.361 290.726,140.666 290.137 C 140.972 289.548,141.141 288.871,141.043 288.633 C 140.944 288.395,140.826 288.335,140.782 288.500 M284.571 289.578 C 284.571 290.163,284.698 290.251,285.081 289.933 C 285.362 289.700,285.493 289.350,285.372 289.155 C 284.994 288.543,284.571 288.767,284.571 289.578 M260.000 289.967 C 260.000 290.169,259.891 290.619,259.757 290.967 C 259.624 291.315,259.674 291.600,259.870 291.600 C 260.066 291.600,260.263 291.150,260.308 290.600 C 260.354 290.050,260.303 289.600,260.196 289.600 C 260.088 289.600,260.000 289.765,260.000 289.967 M113.730 291.463 C 113.875 291.608,113.789 291.972,113.540 292.272 C 113.182 292.704,113.225 292.765,113.743 292.566 C 114.491 292.279,114.641 291.200,113.933 291.200 C 113.677 291.200,113.585 291.318,113.730 291.463 M326.046 291.508 C 326.021 291.787,325.550 292.729,325.000 293.600 C 323.876 295.381,323.674 296.384,324.632 295.425 C 324.980 295.077,325.404 294.879,325.574 294.984 C 325.745 295.090,325.796 294.712,325.687 294.145 C 325.575 293.560,325.704 292.983,325.985 292.810 C 326.256 292.642,326.392 292.166,326.286 291.752 C 326.180 291.338,326.072 291.229,326.046 291.508 M73.992 292.664 C 74.219 292.776,74.311 293.021,74.196 293.207 C 74.081 293.393,74.187 293.668,74.432 293.820 C 74.709 293.991,74.825 293.825,74.738 293.381 C 74.662 292.988,74.371 292.620,74.090 292.563 C 73.809 292.506,73.766 292.552,73.992 292.664 M286.741 292.882 C 287.031 293.258,287.135 293.798,286.970 294.082 C 286.806 294.367,286.820 294.466,287.001 294.301 C 287.182 294.137,287.658 294.542,288.059 295.201 C 288.460 295.861,288.971 296.400,289.194 296.400 C 289.851 296.400,289.661 295.820,288.800 295.200 C 288.360 294.883,288.000 294.421,288.000 294.174 C 288.000 293.926,287.598 293.381,287.107 292.962 C 286.427 292.382,286.340 292.363,286.741 292.882 M351.824 292.839 C 351.928 293.007,351.830 293.258,351.607 293.396 C 351.072 293.726,351.084 294.400,351.624 294.400 C 351.857 294.400,351.935 294.219,351.798 293.997 C 351.661 293.776,351.831 293.486,352.175 293.354 C 352.962 293.052,352.989 292.533,352.218 292.533 C 351.897 292.533,351.720 292.671,351.824 292.839 M48.160 294.771 C 48.166 295.635,48.300 296.262,48.458 296.164 C 48.616 296.067,48.661 295.526,48.559 294.961 C 48.421 294.203,48.506 294.016,48.886 294.245 C 49.261 294.470,49.251 294.370,48.851 293.877 C 48.128 292.986,48.147 292.962,48.160 294.771 M260.406 294.700 C 260.403 295.195,260.561 295.600,260.757 295.600 C 261.184 295.600,261.708 294.375,261.409 294.076 C 261.294 293.961,261.197 294.122,261.194 294.433 C 261.189 294.900,261.119 294.894,260.800 294.400 C 260.486 293.915,260.411 293.972,260.406 294.700 M351.379 295.566 C 351.503 295.767,351.379 296.023,351.102 296.134 C 350.799 296.256,350.878 296.349,351.300 296.368 C 351.685 296.386,352.000 296.130,352.000 295.800 C 352.000 295.470,351.809 295.200,351.576 295.200 C 351.343 295.200,351.255 295.365,351.379 295.566 M323.115 296.533 C 323.011 297.077,323.130 297.467,323.400 297.467 C 323.670 297.467,323.789 297.077,323.685 296.533 C 323.587 296.020,323.459 295.600,323.400 295.600 C 323.341 295.600,323.213 296.020,323.115 296.533 M48.980 297.400 C 49.054 298.218,49.329 298.639,49.844 298.722 C 50.283 298.792,50.428 298.708,50.189 298.522 C 49.963 298.345,49.574 297.750,49.325 297.200 C 48.873 296.200,48.873 296.200,48.980 297.400 M108.821 297.960 C 108.516 298.531,108.557 298.775,108.987 298.940 C 109.379 299.090,109.484 298.964,109.321 298.539 C 109.190 298.198,109.335 297.760,109.642 297.566 C 110.019 297.327,110.042 297.210,109.714 297.206 C 109.447 297.203,109.045 297.542,108.821 297.960 M261.200 297.753 C 261.200 298.083,261.380 298.464,261.600 298.600 C 261.820 298.736,262.000 298.577,262.000 298.247 C 262.000 297.917,261.820 297.536,261.600 297.400 C 261.380 297.264,261.200 297.423,261.200 297.753 M107.022 299.324 C 105.695 300.136,104.707 301.124,104.857 301.488 C 104.936 301.680,105.697 301.153,106.548 300.318 C 108.193 298.705,108.260 298.565,107.022 299.324 M319.867 299.067 C 319.439 299.495,319.560 300.472,320.007 300.196 C 320.230 300.058,320.318 299.791,320.202 299.603 C 320.085 299.414,320.307 299.178,320.695 299.077 C 321.255 298.931,321.269 298.883,320.767 298.846 C 320.418 298.821,320.013 298.920,319.867 299.067 M81.400 300.400 C 81.798 300.840,82.276 301.200,82.462 301.200 C 82.648 301.200,82.440 300.840,82.000 300.400 C 81.560 299.960,81.082 299.600,80.938 299.600 C 80.794 299.600,81.002 299.960,81.400 300.400 M50.475 300.425 C 50.571 300.714,50.886 301.029,51.175 301.125 C 51.475 301.225,51.625 301.075,51.525 300.775 C 51.429 300.486,51.114 300.171,50.825 300.075 C 50.525 299.975,50.375 300.125,50.475 300.425 M101.200 302.401 C 101.200 303.032,101.899 303.203,102.334 302.679 C 102.654 302.294,102.565 302.153,101.980 302.108 C 101.551 302.076,101.200 302.208,101.200 302.401 M313.555 302.889 C 313.097 303.748,313.113 303.766,313.835 303.213 C 314.256 302.890,314.657 302.593,314.727 302.553 C 314.796 302.513,314.670 302.367,314.447 302.229 C 314.223 302.091,313.822 302.388,313.555 302.889 M87.662 303.162 C 87.282 303.396,87.329 303.606,87.858 304.035 C 88.240 304.346,88.428 304.390,88.274 304.134 C 88.121 303.878,88.212 303.596,88.478 303.507 C 88.777 303.408,88.809 303.253,88.561 303.100 C 88.342 302.964,87.937 302.992,87.662 303.162 M98.910 303.600 C 98.943 304.040,99.131 304.400,99.328 304.400 C 99.525 304.400,99.586 304.142,99.465 303.826 C 99.344 303.510,99.460 303.164,99.722 303.057 C 99.990 302.948,99.904 302.849,99.525 302.832 C 99.087 302.811,98.871 303.082,98.910 303.600 M299.200 303.100 C 299.200 303.265,299.650 303.426,300.200 303.458 C 300.750 303.489,301.200 303.354,301.200 303.158 C 301.200 302.961,300.750 302.800,300.200 302.800 C 299.650 302.800,299.200 302.935,299.200 303.100 M311.603 303.189 C 311.128 303.490,311.108 303.668,311.503 304.063 C 311.899 304.459,312.000 304.417,312.000 303.856 C 312.000 303.426,312.180 303.264,312.462 303.438 C 312.748 303.615,312.815 303.548,312.638 303.262 C 312.299 302.713,312.351 302.717,311.603 303.189 M92.400 304.131 C 92.400 304.492,92.781 304.606,93.596 304.486 C 94.985 304.282,94.816 303.600,93.376 303.600 C 92.832 303.600,92.400 303.835,92.400 304.131 M95.298 303.831 C 95.679 304.212,97.595 304.316,97.365 303.944 C 97.248 303.755,96.683 303.600,96.110 303.600 C 95.536 303.600,95.171 303.704,95.298 303.831 M305.294 304.082 C 305.363 304.290,305.550 304.447,305.710 304.430 C 305.870 304.413,306.660 304.400,307.467 304.400 C 308.273 304.400,308.805 304.272,308.648 304.115 C 308.213 303.680,305.150 303.651,305.294 304.082 M266.267 305.867 C 265.892 306.242,265.933 307.600,266.320 307.600 C 266.496 307.600,266.640 307.150,266.640 306.600 C 266.640 305.490,266.641 305.492,266.267 305.867 M53.900 307.465 C 54.175 307.576,54.400 307.922,54.400 308.233 C 54.400 308.563,54.777 308.788,55.300 308.772 C 56.159 308.745,56.163 308.728,55.400 308.400 C 54.960 308.211,54.780 308.041,55.000 308.022 C 55.515 307.978,54.331 307.204,53.800 307.238 C 53.580 307.252,53.625 307.354,53.900 307.465 M268.166 308.800 C 268.317 309.350,268.486 310.020,268.542 310.288 C 268.778 311.422,269.197 311.236,269.068 310.055 C 268.990 309.346,268.694 308.549,268.409 308.283 C 267.991 307.893,267.944 307.993,268.166 308.800 M342.800 311.200 C 342.483 311.640,341.925 312.000,341.561 312.000 C 341.196 312.000,340.687 312.254,340.429 312.565 C 339.828 313.289,339.473 315.200,339.940 315.200 C 340.136 315.200,340.295 314.885,340.293 314.500 C 340.287 313.055,340.413 312.829,341.100 313.050 C 341.691 313.240,341.706 313.208,341.200 312.844 C 340.696 312.481,340.734 312.411,341.439 312.406 C 342.236 312.400,344.000 311.193,344.000 310.653 C 344.000 310.134,343.357 310.427,342.800 311.200 M129.467 311.867 C 129.060 312.273,129.149 312.800,129.624 312.800 C 129.857 312.800,129.944 312.634,129.819 312.430 C 129.693 312.227,129.907 311.978,130.295 311.877 C 130.855 311.731,130.869 311.683,130.367 311.646 C 130.018 311.621,129.613 311.720,129.467 311.867 M60.400 315.495 C 60.400 315.584,60.659 315.916,60.975 316.233 C 61.476 316.733,61.544 316.712,61.495 316.071 C 61.451 315.476,60.400 314.924,60.400 315.495 M125.626 315.769 C 125.021 316.498,125.647 316.882,126.296 316.179 C 126.569 315.884,126.634 315.545,126.441 315.426 C 126.248 315.306,125.882 315.461,125.626 315.769 M337.600 316.787 C 337.600 317.001,337.330 317.071,337.000 316.945 C 336.620 316.799,336.400 316.950,336.400 317.357 C 336.400 317.711,336.186 317.955,335.924 317.900 C 335.662 317.845,335.376 318.126,335.290 318.525 C 335.150 319.165,335.229 319.189,335.966 318.728 C 336.425 318.442,336.800 317.987,336.800 317.716 C 336.800 317.444,337.067 317.328,337.400 317.455 C 337.780 317.601,338.000 317.450,338.000 317.043 C 338.000 316.689,337.910 316.400,337.800 316.400 C 337.690 316.400,337.600 316.574,337.600 316.787 M276.656 318.309 C 276.369 318.774,277.680 319.867,278.527 319.867 C 278.897 319.867,279.200 319.591,279.200 319.253 C 279.200 318.787,279.089 318.751,278.734 319.106 C 278.380 319.460,278.102 319.378,277.570 318.766 C 277.186 318.323,276.775 318.117,276.656 318.309 M328.497 322.226 C 328.535 322.737,328.863 323.065,329.374 323.103 C 329.966 323.148,330.041 323.073,329.648 322.830 C 329.350 322.645,328.955 322.250,328.770 321.952 C 328.527 321.559,328.452 321.634,328.497 322.226 M115.699 322.502 C 115.930 323.203,117.600 323.390,117.600 322.715 C 117.600 322.418,117.135 322.136,116.567 322.089 C 115.895 322.033,115.592 322.178,115.699 322.502 M282.273 322.645 C 282.390 322.950,282.736 323.200,283.043 323.200 C 283.874 323.200,283.716 322.524,282.830 322.292 C 282.290 322.151,282.123 322.256,282.273 322.645 M72.400 323.433 C 71.456 323.957,71.448 323.989,72.257 323.994 C 72.729 323.997,73.218 323.730,73.345 323.400 C 73.471 323.070,73.536 322.818,73.487 322.839 C 73.439 322.861,72.950 323.128,72.400 323.433 M75.908 324.625 C 75.541 324.992,76.597 326.000,77.348 326.000 C 77.681 326.000,78.075 325.803,78.224 325.562 C 78.393 325.288,78.213 325.181,77.747 325.276 C 77.336 325.360,76.815 325.188,76.589 324.892 C 76.363 324.597,76.057 324.477,75.908 324.625 M285.600 324.556 C 285.600 324.877,288.456 325.032,288.648 324.723 C 288.758 324.545,288.117 324.400,287.224 324.400 C 286.331 324.400,285.600 324.470,285.600 324.556 M289.079 324.957 C 288.915 325.374,288.875 325.809,288.991 325.924 C 289.355 326.289,289.676 325.691,289.524 324.931 C 289.383 324.235,289.362 324.236,289.079 324.957 M322.757 325.177 C 321.815 325.961,321.813 325.974,322.657 325.987 C 323.129 325.994,323.628 325.704,323.767 325.343 C 324.148 324.348,323.817 324.294,322.757 325.177 M290.996 325.207 C 290.858 325.430,290.577 325.509,290.372 325.383 C 290.168 325.256,290.000 325.343,290.000 325.576 C 290.000 326.223,291.083 326.081,291.345 325.400 C 291.606 324.720,291.376 324.592,290.996 325.207 M108.600 325.600 C 108.736 325.820,108.646 326.000,108.400 326.000 C 108.154 326.000,108.076 326.199,108.226 326.443 C 108.417 326.751,108.604 326.721,108.844 326.343 C 109.310 325.608,109.286 325.200,108.776 325.200 C 108.543 325.200,108.464 325.380,108.600 325.600 M109.800 325.600 C 109.664 325.820,109.923 326.000,110.376 326.000 C 110.829 326.000,111.200 325.820,111.200 325.600 C 111.200 325.380,110.941 325.200,110.624 325.200 C 110.307 325.200,109.936 325.380,109.800 325.600 M320.900 325.798 C 320.243 326.544,320.269 326.800,321.000 326.800 C 321.333 326.800,321.600 326.444,321.600 326.000 C 321.600 325.062,321.559 325.050,320.900 325.798 M317.029 326.784 C 316.297 327.046,316.295 327.074,316.986 327.339 C 317.781 327.644,318.163 327.460,317.942 326.879 C 317.864 326.674,317.453 326.632,317.029 326.784 M303.399 328.001 C 303.321 328.127,303.695 328.266,304.229 328.311 C 304.763 328.355,305.200 328.252,305.200 328.081 C 305.200 327.726,303.613 327.655,303.399 328.001 " stroke="none" fill="#f4fcfc" fill-rule="evenodd"></path></g></svg>