<svg id="svg" xmlns="http://www.w3.org/2000/svg" xmlns:xlink="http://www.w3.org/1999/xlink" width="400" height="400" viewBox="0, 0, 400,400" version="1.1"><g id="svgg"><path id="path0" d="M97.656 76.730 L -0.000 124.783 -0.000 243.157 C -0.000 353.867,0.370 361.866,5.715 366.703 C 14.982 375.090,387.217 374.570,394.828 366.160 C 399.448 361.055,400.000 347.872,400.000 242.619 L 400.000 124.793 301.100 76.459 C 246.705 49.875,200.650 28.249,198.756 28.401 C 196.862 28.553,151.367 50.301,97.656 76.730 M289.750 96.023 L 377.937 139.063 378.031 244.531 L 378.125 350.000 356.250 350.000 L 334.375 350.000 334.375 248.772 C 334.375 159.348,333.799 147.322,329.432 145.647 C 322.977 143.170,77.023 143.170,70.568 145.647 C 66.201 147.322,65.625 159.348,65.625 248.772 L 65.625 350.000 43.750 350.000 L 21.875 350.000 21.972 244.531 L 22.068 139.063 108.690 96.358 C 156.333 72.871,196.719 53.503,198.438 53.319 C 200.156 53.134,241.247 72.351,289.750 96.023 M312.500 181.250 L 312.500 196.875 200.000 196.875 L 87.500 196.875 87.500 181.250 L 87.500 165.625 200.000 165.625 L 312.500 165.625 312.500 181.250 M312.500 232.813 L 312.500 246.875 200.000 246.875 L 87.500 246.875 87.500 232.813 L 87.500 218.750 200.000 218.750 L 312.500 218.750 312.500 232.813 M312.500 284.375 L 312.500 300.000 200.000 300.000 L 87.500 300.000 87.500 284.375 L 87.500 268.750 200.000 268.750 L 312.500 268.750 312.500 284.375 M312.500 335.938 L 312.500 350.000 200.000 350.000 L 87.500 350.000 87.500 335.938 L 87.500 321.875 200.000 321.875 L 312.500 321.875 312.500 335.938 " stroke="none" fill="#000000" fill-rule="evenodd"></path></g></svg>