<svg id="svg" xmlns="http://www.w3.org/2000/svg" xmlns:xlink="http://www.w3.org/1999/xlink" width="400" height="400" viewBox="0, 0, 400,400" version="1.1"><g id="svgg"><path id="path0" d="M196.532 29.834 C 196.423 30.117,196.108 30.263,195.831 30.157 C 195.554 30.050,195.099 30.240,194.819 30.577 C 194.539 30.915,194.148 31.092,193.952 30.970 C 193.755 30.849,193.487 31.030,193.355 31.372 C 193.224 31.715,192.954 31.895,192.755 31.772 C 192.557 31.650,192.284 31.836,192.150 32.187 C 191.981 32.627,191.643 32.741,191.056 32.554 C 190.353 32.331,190.288 32.383,190.679 32.854 C 191.069 33.325,190.965 33.416,190.082 33.377 C 189.494 33.352,188.770 33.573,188.474 33.869 C 188.178 34.165,187.770 34.305,187.568 34.180 C 187.365 34.055,187.200 34.253,187.200 34.619 C 187.200 35.083,186.992 35.206,186.518 35.024 C 185.647 34.690,183.202 35.989,183.194 36.791 C 183.189 37.264,183.114 37.284,182.859 36.881 C 182.595 36.466,182.427 36.485,182.019 36.977 C 181.739 37.315,181.350 37.493,181.155 37.372 C 180.960 37.251,180.800 37.343,180.800 37.576 C 180.800 37.809,180.354 38.000,179.809 38.000 C 179.189 38.000,178.569 38.381,178.150 39.020 C 177.782 39.581,177.250 39.951,176.967 39.843 C 176.683 39.734,176.387 39.838,176.309 40.073 C 176.230 40.309,175.814 40.545,175.383 40.598 C 173.875 40.786,172.811 41.295,173.066 41.707 C 173.208 41.936,173.135 42.007,172.905 41.865 C 172.357 41.526,167.893 43.503,168.175 43.959 C 168.294 44.152,168.168 44.302,167.896 44.292 C 166.518 44.242,165.973 44.432,166.242 44.868 C 166.438 45.185,166.311 45.252,165.850 45.075 C 165.442 44.918,165.085 45.033,164.959 45.363 C 164.838 45.678,164.419 45.825,163.974 45.709 C 163.274 45.526,163.003 45.912,163.148 46.886 C 163.171 47.043,162.929 47.071,162.610 46.949 C 162.292 46.826,161.456 47.013,160.754 47.363 C 160.052 47.713,159.235 48.000,158.939 48.000 C 158.642 48.000,158.400 48.180,158.400 48.400 C 158.400 48.620,157.995 48.803,157.500 48.806 C 156.772 48.811,156.715 48.886,157.200 49.200 C 157.753 49.557,156.695 49.836,155.500 49.647 C 155.335 49.621,155.200 49.780,155.200 50.000 C 155.200 50.220,154.840 50.400,154.400 50.400 C 153.960 50.400,153.600 50.580,153.600 50.800 C 153.600 51.020,153.240 51.200,152.800 51.200 C 152.360 51.200,152.000 51.453,152.000 51.763 C 152.000 52.128,151.720 52.252,151.200 52.116 C 150.753 51.999,150.400 52.104,150.400 52.353 C 150.400 52.599,150.040 52.800,149.600 52.800 C 149.160 52.800,148.800 52.980,148.800 53.200 C 148.800 53.420,148.530 53.600,148.200 53.600 C 147.870 53.600,147.600 53.845,147.600 54.145 C 147.600 54.510,147.271 54.626,146.600 54.498 C 145.855 54.356,145.600 54.478,145.600 54.977 C 145.600 55.346,145.418 55.535,145.196 55.398 C 144.974 55.260,144.320 55.520,143.742 55.974 C 143.165 56.428,142.356 56.800,141.946 56.800 C 141.536 56.800,141.200 56.980,141.200 57.200 C 141.200 57.420,140.855 57.600,140.433 57.600 C 140.012 57.600,139.607 57.775,139.533 57.988 C 139.460 58.202,139.040 58.445,138.600 58.528 C 137.424 58.751,136.283 59.251,135.579 59.851 C 135.238 60.143,134.571 60.440,134.097 60.512 C 133.623 60.585,132.837 60.994,132.349 61.422 C 131.861 61.850,131.585 61.990,131.734 61.734 C 131.940 61.379,131.713 61.378,130.785 61.728 C 130.114 61.981,129.753 62.251,129.983 62.328 C 130.836 62.612,130.364 63.140,129.410 62.968 C 128.678 62.835,128.477 62.935,128.638 63.354 C 128.757 63.665,128.662 64.038,128.427 64.183 C 128.192 64.328,128.000 64.287,128.000 64.090 C 128.000 63.894,127.738 63.733,127.418 63.733 C 127.097 63.733,126.920 63.871,127.024 64.039 C 127.128 64.207,127.030 64.458,126.807 64.596 C 126.583 64.734,126.400 64.662,126.400 64.436 C 126.400 63.851,125.132 64.413,124.270 65.381 C 123.868 65.831,123.656 65.930,123.799 65.600 C 124.008 65.119,123.954 65.126,123.530 65.635 C 123.238 65.984,122.750 66.186,122.444 66.083 C 122.107 65.970,121.998 66.074,122.168 66.348 C 122.336 66.620,122.158 66.804,121.724 66.809 C 121.326 66.814,120.550 67.170,120.000 67.600 C 119.450 68.030,118.721 68.386,118.381 68.391 C 117.398 68.405,112.361 71.117,112.907 71.338 C 113.178 71.447,112.765 71.551,111.988 71.568 C 111.061 71.589,110.379 71.875,110.000 72.400 C 109.683 72.840,109.013 73.200,108.512 73.200 C 108.010 73.200,107.600 73.380,107.600 73.600 C 107.600 73.820,107.319 74.000,106.976 74.000 C 106.633 74.000,106.440 74.142,106.548 74.315 C 106.655 74.488,106.293 74.667,105.745 74.713 C 105.196 74.758,104.475 75.068,104.141 75.401 C 103.808 75.735,103.370 75.905,103.168 75.780 C 102.965 75.655,102.800 75.743,102.800 75.976 C 102.800 76.209,102.440 76.400,102.000 76.400 C 101.560 76.400,100.885 76.715,100.500 77.100 C 100.115 77.485,99.400 77.780,98.910 77.755 C 98.421 77.730,98.117 77.865,98.234 78.055 C 98.351 78.245,98.186 78.400,97.866 78.400 C 97.547 78.400,97.174 78.690,97.038 79.045 C 96.881 79.455,96.500 79.615,95.995 79.483 C 95.557 79.368,95.300 79.438,95.423 79.637 C 95.546 79.837,95.187 80.000,94.624 80.000 C 94.011 80.000,93.600 80.226,93.600 80.563 C 93.600 80.928,93.320 81.052,92.800 80.916 C 92.248 80.772,92.000 80.904,92.000 81.341 C 92.000 81.739,91.778 81.890,91.403 81.746 C 91.060 81.614,90.700 81.795,90.556 82.170 C 90.387 82.612,90.045 82.741,89.503 82.569 C 88.969 82.400,88.792 82.463,88.974 82.757 C 89.233 83.177,89.074 83.266,87.900 83.360 C 87.625 83.382,87.294 83.544,87.164 83.720 C 87.034 83.896,86.539 84.069,86.064 84.105 C 85.589 84.141,85.200 84.305,85.200 84.469 C 85.200 84.633,84.486 84.982,83.613 85.243 C 82.740 85.505,82.121 85.872,82.237 86.059 C 82.352 86.247,82.085 86.400,81.641 86.400 C 80.765 86.400,77.800 88.250,77.800 88.797 C 77.800 88.982,77.665 89.268,77.500 89.433 C 77.335 89.598,77.200 89.523,77.200 89.267 C 77.200 89.010,76.840 88.800,76.400 88.800 C 75.960 88.800,75.599 88.935,75.597 89.100 C 75.593 89.465,73.651 90.400,72.897 90.400 C 72.598 90.400,72.464 90.580,72.600 90.800 C 72.736 91.020,72.567 91.200,72.224 91.200 C 71.881 91.200,71.600 91.391,71.600 91.624 C 71.600 91.857,71.435 91.945,71.232 91.820 C 71.030 91.695,70.582 91.875,70.236 92.221 C 69.891 92.566,69.201 92.870,68.704 92.895 C 68.207 92.921,67.583 93.105,67.318 93.305 C 67.052 93.505,66.660 93.561,66.446 93.429 C 66.233 93.296,65.942 93.554,65.800 94.000 C 65.658 94.446,65.375 94.708,65.171 94.582 C 64.967 94.456,64.800 94.563,64.800 94.819 C 64.800 95.076,64.536 95.184,64.213 95.060 C 63.890 94.936,63.519 95.007,63.389 95.217 C 63.259 95.428,62.803 95.600,62.376 95.600 C 61.949 95.600,61.600 95.780,61.600 96.000 C 61.600 96.220,61.330 96.400,61.000 96.400 C 60.670 96.400,60.400 96.580,60.400 96.800 C 60.400 97.020,60.074 97.200,59.675 97.200 C 59.277 97.200,58.576 97.549,58.118 97.976 C 57.660 98.403,57.176 98.643,57.043 98.509 C 56.909 98.376,56.800 98.492,56.800 98.767 C 56.800 99.042,56.575 99.191,56.300 99.098 C 56.025 99.006,55.210 99.261,54.488 99.665 C 53.766 100.069,52.911 100.400,52.588 100.400 C 52.265 100.400,52.000 100.580,52.000 100.800 C 52.000 101.020,51.646 101.200,51.213 101.200 C 50.695 101.200,50.500 101.396,50.644 101.771 C 50.801 102.180,50.641 102.284,50.077 102.136 C 49.644 102.023,49.169 102.126,49.022 102.365 C 48.874 102.604,48.384 102.800,47.934 102.800 C 47.378 102.800,47.187 102.989,47.340 103.387 C 47.464 103.710,47.365 104.098,47.121 104.249 C 46.852 104.415,46.789 104.341,46.962 104.062 C 47.385 103.376,46.765 103.503,45.290 104.401 C 44.570 104.841,43.614 105.200,43.167 105.200 C 42.719 105.200,42.464 105.380,42.600 105.600 C 42.736 105.820,42.477 106.000,42.024 106.000 C 41.554 106.000,41.200 106.261,41.200 106.608 C 41.200 107.041,40.938 107.149,40.282 106.985 C 39.655 106.827,39.130 107.014,38.621 107.577 C 38.211 108.030,37.533 108.400,37.114 108.400 C 36.696 108.400,36.463 108.578,36.597 108.795 C 36.733 109.014,36.588 109.093,36.272 108.972 C 35.959 108.852,35.423 109.034,35.080 109.377 C 34.737 109.720,34.112 110.000,33.691 110.000 C 33.269 110.000,32.609 110.348,32.224 110.773 C 31.840 111.198,31.269 111.448,30.956 111.328 C 30.631 111.203,30.032 111.560,29.561 112.158 C 29.107 112.735,28.562 113.100,28.350 112.969 C 28.138 112.838,27.506 113.031,26.946 113.399 C 26.386 113.766,25.449 114.152,24.864 114.257 C 24.279 114.361,23.740 114.616,23.667 114.824 C 23.593 115.031,23.277 115.200,22.963 115.200 C 22.649 115.200,22.090 115.553,21.720 115.986 C 21.176 116.620,20.932 116.678,20.447 116.286 C 19.972 115.902,19.910 115.905,20.147 116.300 C 20.333 116.611,20.222 116.800,19.852 116.800 C 19.525 116.800,18.976 117.081,18.632 117.426 C 18.288 117.770,17.845 117.952,17.648 117.830 C 17.452 117.708,17.078 117.865,16.818 118.179 C 16.558 118.492,15.772 118.873,15.072 119.025 C 14.373 119.176,13.710 119.413,13.600 119.550 C 13.233 120.009,11.618 120.800,11.048 120.800 C 10.739 120.800,10.378 121.081,10.246 121.425 C 10.114 121.769,9.824 121.939,9.603 121.802 C 9.381 121.665,9.200 121.743,9.200 121.976 C 9.200 122.209,8.919 122.400,8.576 122.400 C 8.233 122.400,8.040 122.542,8.148 122.715 C 8.255 122.888,7.860 123.070,7.271 123.119 C 6.682 123.167,6.140 123.385,6.067 123.603 C 5.993 123.822,5.588 124.000,5.167 124.000 C 4.745 124.000,4.400 124.136,4.400 124.302 C 4.400 124.469,3.860 124.844,3.200 125.136 C 2.540 125.428,2.000 125.933,2.000 126.257 C 2.000 126.582,1.829 126.742,1.621 126.613 C 1.412 126.484,1.312 126.743,1.398 127.189 C 1.499 127.713,1.341 128.000,0.953 128.000 C 0.623 128.000,0.464 128.180,0.600 128.400 C 0.736 128.620,0.657 128.800,0.424 128.800 C 0.126 128.800,0.000 162.950,0.000 243.200 C 0.000 306.921,0.153 357.600,0.345 357.600 C 0.534 357.600,0.610 358.095,0.513 358.700 C 0.376 359.560,0.430 359.669,0.763 359.200 C 1.099 358.725,1.189 358.872,1.194 359.900 C 1.197 360.615,1.335 361.155,1.500 361.100 C 1.665 361.045,1.830 361.160,1.866 361.355 C 1.902 361.551,2.172 361.863,2.466 362.049 C 2.887 362.316,2.891 362.389,2.484 362.394 C 2.063 362.399,2.063 362.503,2.484 362.958 C 2.768 363.265,3.135 363.434,3.300 363.334 C 3.465 363.235,3.600 363.428,3.600 363.764 C 3.600 364.145,3.828 364.288,4.205 364.143 C 4.654 363.971,4.739 364.093,4.537 364.621 C 4.350 365.108,4.411 365.240,4.732 365.042 C 4.989 364.883,5.200 364.956,5.200 365.205 C 5.200 365.758,6.199 366.800,6.729 366.800 C 6.941 366.800,7.201 367.026,7.307 367.301 C 7.413 367.577,8.190 368.053,9.035 368.358 C 9.880 368.664,10.832 369.175,11.151 369.494 C 11.523 369.866,12.144 369.991,12.885 369.843 C 13.520 369.716,13.943 369.769,13.824 369.961 C 13.158 371.038,385.489 371.298,386.383 370.220 C 386.645 369.905,387.082 369.733,387.356 369.838 C 387.629 369.943,388.368 369.762,388.998 369.435 C 389.627 369.108,390.318 368.950,390.533 369.082 C 390.748 369.215,390.814 369.146,390.680 368.929 C 390.546 368.713,391.042 368.297,391.783 368.007 C 392.524 367.716,393.353 367.062,393.625 366.553 C 393.898 366.044,394.246 365.705,394.400 365.800 C 394.554 365.895,394.924 365.515,395.224 364.955 C 395.523 364.396,396.096 363.763,396.495 363.549 C 396.895 363.335,397.117 362.989,396.988 362.780 C 396.858 362.571,397.033 362.400,397.376 362.400 C 397.739 362.400,398.000 362.056,398.000 361.576 C 398.000 361.116,398.181 360.864,398.410 361.006 C 398.635 361.145,398.794 361.111,398.763 360.930 C 398.601 359.997,398.844 358.780,399.154 358.972 C 400.242 359.644,400.287 129.394,399.200 127.622 C 398.280 126.123,396.802 124.690,396.787 125.282 C 396.779 125.578,396.452 125.414,396.023 124.900 C 395.610 124.405,395.112 124.000,394.916 124.000 C 394.320 124.000,392.406 123.019,392.403 122.713 C 392.401 122.554,392.130 122.529,391.800 122.655 C 391.470 122.782,391.200 122.700,391.200 122.472 C 391.200 121.946,388.819 120.741,388.351 121.030 C 388.158 121.149,388.000 121.065,388.000 120.842 C 388.000 120.244,385.320 119.079,384.752 119.430 C 384.409 119.642,384.345 119.521,384.537 119.021 C 384.741 118.488,384.655 118.370,384.189 118.549 C 383.835 118.685,383.473 118.534,383.343 118.196 C 383.218 117.871,382.963 117.699,382.775 117.815 C 382.400 118.047,378.532 116.137,378.161 115.537 C 378.023 115.314,377.700 115.351,377.364 115.630 C 376.918 116.000,376.800 115.963,376.800 115.454 C 376.800 114.848,374.091 113.376,373.697 113.769 C 373.599 113.868,373.089 113.465,372.566 112.874 C 371.806 112.016,371.541 111.911,371.251 112.353 C 370.965 112.788,370.827 112.716,370.605 112.016 C 370.407 111.391,370.097 111.186,369.561 111.326 C 369.142 111.436,368.900 111.362,369.023 111.163 C 369.146 110.963,369.048 110.800,368.804 110.800 C 368.561 110.800,367.626 110.445,366.726 110.010 C 365.827 109.576,364.936 109.316,364.746 109.434 C 364.556 109.551,364.400 109.347,364.400 108.981 C 364.400 108.568,364.183 108.398,363.829 108.533 C 363.515 108.654,363.048 108.499,362.791 108.189 C 362.534 107.879,362.206 107.648,362.062 107.675 C 361.918 107.702,361.080 107.393,360.200 106.988 C 359.320 106.584,358.372 106.294,358.094 106.345 C 357.815 106.396,357.635 106.204,357.694 105.919 C 357.752 105.634,357.530 105.400,357.200 105.400 C 356.870 105.400,356.456 105.175,356.280 104.900 C 356.104 104.625,355.509 104.400,354.957 104.400 C 354.389 104.400,354.060 104.226,354.200 104.000 C 354.336 103.780,354.172 103.600,353.836 103.600 C 353.499 103.600,352.583 103.240,351.800 102.800 C 351.017 102.360,350.111 102.000,349.788 102.000 C 349.465 102.000,349.200 101.820,349.200 101.600 C 349.200 101.380,348.930 101.200,348.600 101.200 C 348.270 101.200,347.997 100.975,347.994 100.700 C 347.990 100.367,347.858 100.400,347.600 100.800 C 347.318 101.236,347.211 101.257,347.206 100.876 C 347.203 100.588,347.020 100.464,346.800 100.600 C 346.580 100.736,346.400 100.567,346.400 100.224 C 346.400 99.867,346.058 99.600,345.600 99.600 C 345.160 99.600,344.800 99.412,344.800 99.182 C 344.800 98.953,344.575 98.794,344.300 98.830 C 343.233 98.968,342.763 98.783,343.042 98.332 C 343.238 98.015,343.111 97.948,342.650 98.125 C 342.223 98.289,341.882 98.158,341.733 97.770 C 341.603 97.431,341.243 97.251,340.933 97.370 C 340.623 97.489,340.272 97.331,340.152 97.019 C 340.032 96.706,339.679 96.548,339.367 96.668 C 339.055 96.788,338.800 96.676,338.800 96.419 C 338.800 96.163,338.595 96.079,338.345 96.234 C 338.093 96.390,337.588 96.115,337.212 95.616 C 336.792 95.059,336.015 94.671,335.167 94.596 C 334.376 94.526,333.846 94.278,333.910 94.008 C 333.970 93.751,333.823 93.662,333.583 93.810 C 333.343 93.959,332.894 93.747,332.586 93.340 C 332.278 92.933,332.020 92.756,332.013 92.946 C 332.006 93.136,331.545 92.994,330.989 92.629 C 330.432 92.265,329.802 92.075,329.589 92.207 C 329.375 92.339,329.200 92.146,329.200 91.777 C 329.200 91.304,328.965 91.168,328.400 91.316 C 327.880 91.452,327.600 91.328,327.600 90.963 C 327.600 90.626,327.189 90.400,326.576 90.400 C 325.996 90.400,325.660 90.227,325.800 90.000 C 325.936 89.780,325.677 89.600,325.224 89.600 C 324.771 89.600,324.400 89.420,324.400 89.200 C 324.400 88.980,324.040 88.800,323.600 88.800 C 323.160 88.800,322.800 88.608,322.800 88.373 C 322.800 88.129,322.459 88.054,322.003 88.199 C 321.390 88.394,321.261 88.307,321.445 87.826 C 321.625 87.357,321.425 87.200,320.643 87.200 C 320.069 87.200,319.600 87.012,319.600 86.782 C 319.600 86.553,319.285 86.418,318.900 86.482 C 318.509 86.548,318.244 86.379,318.300 86.100 C 318.389 85.656,317.601 85.438,316.104 85.492 C 315.832 85.502,315.707 85.350,315.828 85.155 C 315.949 84.960,315.666 84.800,315.200 84.800 C 314.734 84.800,314.464 84.620,314.600 84.400 C 314.811 84.058,314.294 83.907,313.345 84.034 C 313.204 84.053,312.979 83.910,312.845 83.716 C 312.527 83.259,306.601 80.359,305.720 80.229 C 305.348 80.175,304.977 79.931,304.896 79.688 C 304.815 79.444,304.490 79.344,304.174 79.465 C 303.858 79.586,303.600 79.482,303.600 79.233 C 303.600 78.767,301.921 77.980,300.728 77.887 C 300.358 77.858,300.131 77.712,300.223 77.562 C 300.377 77.314,299.503 76.927,298.007 76.581 C 297.681 76.505,297.351 76.254,297.274 76.022 C 297.197 75.790,296.788 75.600,296.367 75.600 C 295.945 75.600,295.600 75.409,295.600 75.176 C 295.600 74.943,295.435 74.855,295.232 74.980 C 295.030 75.105,294.581 74.924,294.235 74.578 C 293.889 74.232,293.445 74.048,293.248 74.170 C 293.052 74.292,292.677 74.134,292.416 73.819 C 292.155 73.505,291.685 73.346,291.371 73.467 C 291.022 73.600,290.800 73.435,290.800 73.043 C 290.800 72.689,290.530 72.400,290.200 72.400 C 289.870 72.400,289.600 72.220,289.600 72.000 C 289.600 71.780,289.251 71.600,288.824 71.600 C 288.397 71.600,287.941 71.428,287.811 71.217 C 287.681 71.007,287.310 70.936,286.987 71.060 C 286.621 71.201,286.400 71.044,286.400 70.643 C 286.400 70.220,286.050 70.000,285.376 70.000 C 284.813 70.000,284.454 69.836,284.578 69.635 C 284.702 69.434,284.358 69.319,283.813 69.379 C 283.268 69.439,282.910 69.346,283.017 69.173 C 283.124 68.999,282.849 68.743,282.406 68.602 C 281.963 68.461,281.600 68.167,281.600 67.948 C 281.600 67.729,281.195 67.606,280.700 67.675 C 280.123 67.755,279.839 67.612,279.908 67.275 C 279.985 66.901,279.667 66.804,278.808 66.940 C 277.606 67.129,277.147 66.675,278.100 66.237 C 278.375 66.111,278.195 66.108,277.700 66.231 C 277.167 66.363,276.800 66.270,276.800 66.003 C 276.800 65.756,276.632 65.656,276.428 65.783 C 276.223 65.909,275.940 65.827,275.800 65.600 C 275.660 65.373,275.379 65.289,275.177 65.414 C 274.975 65.539,274.916 65.362,275.047 65.021 C 275.275 64.428,274.791 64.231,273.273 64.297 C 272.984 64.310,272.846 64.221,272.967 64.100 C 273.291 63.776,271.915 62.828,271.100 62.813 C 270.715 62.806,270.400 62.590,270.400 62.333 C 270.400 62.077,270.286 61.980,270.147 62.119 C 270.008 62.258,269.558 62.192,269.147 61.972 C 268.629 61.695,268.400 61.706,268.400 62.010 C 268.400 62.250,268.217 62.334,267.993 62.196 C 267.770 62.058,267.679 61.796,267.791 61.614 C 267.904 61.433,267.717 61.177,267.377 61.046 C 266.984 60.896,266.859 60.972,267.035 61.256 C 267.203 61.528,267.093 61.625,266.756 61.502 C 266.450 61.391,266.245 61.097,266.300 60.850 C 266.355 60.602,266.152 60.400,265.849 60.400 C 265.546 60.400,265.067 60.122,264.785 59.782 C 264.503 59.442,264.035 59.254,263.746 59.365 C 263.458 59.476,263.042 59.259,262.823 58.883 C 262.604 58.508,262.419 58.329,262.412 58.486 C 262.405 58.644,261.551 58.342,260.513 57.816 C 259.476 57.290,258.504 56.935,258.355 57.028 C 258.206 57.120,257.981 56.926,257.854 56.598 C 257.728 56.269,257.385 56.000,257.092 56.000 C 256.347 56.000,254.407 55.062,254.403 54.700 C 254.401 54.535,254.166 54.400,253.880 54.400 C 253.144 54.400,251.207 53.459,251.203 53.100 C 251.201 52.935,250.840 52.800,250.400 52.800 C 249.960 52.800,249.600 52.612,249.600 52.382 C 249.600 52.153,249.375 51.994,249.100 52.030 C 248.083 52.162,247.560 51.989,247.800 51.600 C 247.936 51.380,247.677 51.200,247.224 51.200 C 246.771 51.200,246.400 51.009,246.400 50.776 C 246.400 50.543,246.235 50.455,246.032 50.580 C 245.830 50.705,245.393 50.536,245.061 50.204 C 244.729 49.872,244.174 49.600,243.829 49.600 C 243.483 49.600,243.200 49.420,243.200 49.200 C 243.200 48.980,242.739 48.800,242.176 48.800 C 241.503 48.800,241.251 48.642,241.439 48.337 C 241.635 48.020,241.453 47.945,240.862 48.100 C 240.299 48.247,239.863 48.094,239.611 47.663 C 239.291 47.114,239.218 47.103,239.187 47.600 C 239.165 47.957,239.004 47.838,238.790 47.307 C 238.557 46.728,238.214 46.497,237.815 46.649 C 237.477 46.779,237.200 46.686,237.200 46.443 C 237.200 46.199,236.905 46.000,236.544 46.000 C 236.183 46.000,235.685 45.722,235.437 45.383 C 235.188 45.043,234.471 44.710,233.843 44.643 C 233.214 44.576,232.538 44.232,232.339 43.877 C 232.141 43.523,231.714 43.335,231.389 43.459 C 231.065 43.584,230.800 43.486,230.800 43.243 C 230.800 42.999,230.440 42.800,230.000 42.800 C 229.560 42.800,229.200 42.620,229.200 42.400 C 229.200 42.180,228.928 42.000,228.595 42.000 C 227.900 42.000,226.333 41.186,225.922 40.612 C 225.769 40.398,225.513 40.353,225.354 40.512 C 225.195 40.672,224.735 40.503,224.332 40.139 C 223.930 39.774,223.600 39.622,223.600 39.800 C 223.600 39.978,223.251 39.808,222.825 39.423 C 222.399 39.037,221.859 38.840,221.625 38.984 C 221.391 39.129,221.200 38.982,221.200 38.659 C 221.200 38.269,220.863 38.107,220.200 38.180 C 219.535 38.253,219.200 38.092,219.200 37.698 C 219.200 37.289,218.903 37.163,218.237 37.291 C 217.613 37.410,217.336 37.312,217.451 37.012 C 217.652 36.487,212.899 33.892,212.354 34.229 C 212.159 34.349,212.000 34.265,212.000 34.042 C 212.000 33.531,208.420 31.853,207.549 31.957 C 207.191 31.999,206.787 31.744,206.651 31.389 C 206.484 30.953,206.141 30.828,205.592 31.003 C 205.039 31.178,204.815 31.094,204.890 30.740 C 204.950 30.453,204.595 30.157,204.100 30.082 C 203.605 30.006,203.200 29.777,203.200 29.572 C 203.200 29.367,203.009 29.200,202.776 29.200 C 202.543 29.200,202.464 29.380,202.600 29.600 C 202.736 29.820,202.657 30.000,202.424 30.000 C 202.191 30.000,202.000 29.814,202.000 29.586 C 202.000 28.959,196.777 29.195,196.532 29.834 M201.914 51.539 C 202.291 51.733,202.870 51.813,203.200 51.715 C 203.733 51.559,203.733 51.586,203.200 51.963 C 202.870 52.197,202.735 52.391,202.900 52.394 C 203.547 52.407,203.829 52.495,204.600 52.923 C 205.040 53.168,205.627 53.322,205.905 53.265 C 206.183 53.209,206.507 53.414,206.625 53.722 C 206.760 54.072,207.209 54.211,207.826 54.093 C 208.568 53.951,208.756 54.048,208.588 54.486 C 208.432 54.895,208.637 55.057,209.283 55.034 C 209.790 55.015,210.159 55.213,210.108 55.475 C 210.055 55.753,210.350 55.887,210.819 55.796 C 211.260 55.711,211.516 55.812,211.387 56.021 C 211.174 56.366,211.725 56.573,212.511 56.444 C 212.682 56.416,212.926 56.663,213.053 56.994 C 213.180 57.325,213.446 57.495,213.645 57.372 C 213.843 57.250,214.109 57.419,214.236 57.749 C 214.363 58.079,214.703 58.259,214.993 58.147 C 215.282 58.036,215.638 58.138,215.783 58.373 C 215.928 58.608,216.397 58.800,216.824 58.800 C 217.251 58.800,217.600 58.980,217.600 59.200 C 217.600 59.420,217.960 59.600,218.400 59.600 C 218.840 59.600,219.200 59.780,219.200 60.000 C 219.200 60.220,219.661 60.400,220.224 60.400 C 220.897 60.400,221.149 60.558,220.961 60.863 C 220.765 61.180,220.946 61.255,221.537 61.100 C 222.025 60.973,222.400 61.061,222.400 61.304 C 222.400 61.540,222.511 61.622,222.648 61.486 C 222.784 61.350,223.158 61.501,223.480 61.823 C 223.801 62.144,224.258 62.288,224.494 62.142 C 224.749 61.985,224.807 62.064,224.638 62.338 C 224.469 62.612,224.607 62.800,224.976 62.800 C 225.319 62.800,225.600 62.980,225.600 63.200 C 225.600 63.420,225.960 63.600,226.400 63.600 C 226.840 63.600,227.200 63.780,227.200 64.000 C 227.200 64.220,227.571 64.400,228.024 64.400 C 228.551 64.400,228.743 64.569,228.558 64.868 C 228.368 65.175,228.481 65.255,228.886 65.099 C 229.225 64.969,229.704 65.064,229.951 65.311 C 230.198 65.558,230.400 65.636,230.400 65.484 C 230.400 65.332,230.766 65.521,231.213 65.904 C 231.660 66.287,232.155 66.576,232.313 66.547 C 232.471 66.518,232.955 66.743,233.389 67.047 C 233.823 67.351,234.509 67.600,234.913 67.600 C 235.317 67.600,235.536 67.780,235.400 68.000 C 235.185 68.348,235.996 68.590,236.900 68.447 C 237.065 68.421,237.200 68.599,237.200 68.843 C 237.200 69.086,237.470 69.182,237.800 69.055 C 238.172 68.913,238.400 69.057,238.400 69.436 C 238.400 69.772,238.560 69.949,238.755 69.828 C 238.950 69.707,239.339 69.885,239.619 70.223 C 239.899 70.560,240.354 70.750,240.631 70.643 C 240.908 70.537,241.233 70.709,241.354 71.025 C 241.476 71.341,241.771 71.600,242.011 71.600 C 242.251 71.600,242.356 71.453,242.245 71.272 C 242.133 71.092,242.550 71.019,243.170 71.110 C 243.915 71.220,244.282 71.501,244.249 71.938 C 244.220 72.337,244.476 72.578,244.896 72.545 C 245.291 72.514,245.479 72.673,245.330 72.913 C 245.168 73.176,245.319 73.240,245.730 73.082 C 246.109 72.937,246.350 73.013,246.295 73.261 C 246.243 73.499,246.542 73.751,246.960 73.820 C 247.378 73.890,247.848 74.154,248.005 74.408 C 248.161 74.661,248.400 74.869,248.536 74.869 C 249.240 74.872,250.400 75.334,250.400 75.611 C 250.400 75.786,250.860 75.879,251.423 75.817 C 252.100 75.743,252.381 75.871,252.256 76.198 C 252.130 76.526,252.489 76.683,253.334 76.670 C 254.109 76.658,254.561 76.835,254.500 77.125 C 254.445 77.386,254.760 77.600,255.200 77.600 C 255.640 77.600,256.000 77.780,256.000 78.000 C 256.000 78.220,256.416 78.400,256.925 78.400 C 257.433 78.400,258.236 78.760,258.708 79.200 C 259.180 79.640,259.754 80.000,259.983 80.000 C 260.212 80.000,260.400 80.191,260.400 80.424 C 260.400 80.657,260.565 80.745,260.768 80.620 C 260.970 80.495,261.414 80.671,261.753 81.011 C 262.093 81.350,262.468 81.622,262.586 81.614 C 263.772 81.535,264.411 81.658,264.242 81.932 C 264.129 82.115,264.658 82.509,265.418 82.807 C 266.178 83.105,266.800 83.517,266.800 83.721 C 266.800 83.926,267.160 83.999,267.600 83.884 C 268.141 83.743,268.400 83.872,268.400 84.284 C 268.400 84.690,268.659 84.826,269.174 84.691 C 269.622 84.574,270.038 84.723,270.162 85.044 C 270.279 85.350,270.651 85.600,270.987 85.600 C 271.324 85.600,271.600 85.780,271.600 86.000 C 271.600 86.220,271.949 86.400,272.376 86.400 C 272.803 86.400,273.272 86.592,273.417 86.827 C 273.562 87.062,273.918 87.164,274.207 87.053 C 274.497 86.941,274.833 87.109,274.954 87.425 C 275.076 87.741,275.451 88.000,275.787 88.000 C 276.124 88.000,276.400 88.201,276.400 88.447 C 276.400 88.696,276.753 88.801,277.200 88.684 C 277.640 88.569,278.000 88.638,278.000 88.837 C 278.000 89.037,278.255 89.200,278.567 89.200 C 278.878 89.200,279.193 89.335,279.267 89.500 C 279.478 89.975,282.641 91.600,283.354 91.600 C 283.710 91.600,284.000 91.780,284.000 92.000 C 284.000 92.220,284.360 92.400,284.800 92.400 C 285.240 92.400,285.600 92.591,285.600 92.824 C 285.600 93.057,285.764 93.146,285.964 93.022 C 286.478 92.705,287.641 93.211,287.377 93.637 C 287.257 93.832,287.415 93.893,287.728 93.772 C 288.041 93.652,288.588 93.845,288.944 94.202 C 289.301 94.558,289.941 94.875,290.368 94.908 C 290.795 94.940,291.056 95.109,290.949 95.283 C 290.841 95.457,291.096 95.600,291.515 95.600 C 292.600 95.600,294.679 96.708,294.958 97.435 C 295.088 97.774,295.355 97.951,295.552 97.830 C 295.748 97.708,296.132 97.877,296.404 98.204 C 296.676 98.532,297.206 98.800,297.582 98.800 C 297.959 98.800,298.402 98.935,298.567 99.100 C 298.732 99.265,298.987 99.400,299.133 99.401 C 299.280 99.401,299.940 99.771,300.600 100.223 C 301.900 101.113,302.301 101.177,303.162 100.632 C 303.548 100.388,303.634 100.421,303.438 100.738 C 303.281 100.992,303.354 101.200,303.600 101.200 C 303.846 101.200,303.927 101.395,303.780 101.633 C 303.610 101.907,303.857 102.017,304.456 101.933 C 305.050 101.849,305.363 101.985,305.300 102.300 C 305.245 102.575,305.560 102.800,306.000 102.800 C 306.440 102.800,306.800 102.980,306.800 103.200 C 306.800 103.420,307.160 103.600,307.600 103.600 C 308.040 103.600,308.400 103.791,308.400 104.024 C 308.400 104.257,308.579 104.337,308.798 104.201 C 309.016 104.066,309.803 104.419,310.545 104.985 C 311.374 105.618,312.153 105.916,312.564 105.758 C 312.987 105.596,313.190 105.683,313.116 105.996 C 313.052 106.268,313.442 106.565,313.983 106.655 C 314.523 106.746,315.088 107.019,315.238 107.261 C 315.388 107.504,315.738 107.562,316.017 107.389 C 316.321 107.202,316.424 107.238,316.274 107.480 C 316.014 107.901,317.612 108.800,318.619 108.800 C 318.938 108.800,319.200 108.980,319.200 109.200 C 319.200 109.420,319.560 109.600,320.000 109.600 C 320.440 109.600,320.800 109.780,320.800 110.000 C 320.800 110.220,320.991 110.400,321.224 110.400 C 321.457 110.400,321.518 110.175,321.359 109.900 C 321.201 109.625,321.517 109.805,322.061 110.300 C 322.606 110.795,323.265 111.200,323.526 111.200 C 323.787 111.200,324.000 111.391,324.000 111.624 C 324.000 111.857,324.164 111.946,324.364 111.822 C 324.881 111.503,326.040 112.012,325.774 112.442 C 325.652 112.639,325.813 112.800,326.131 112.800 C 326.979 112.800,328.831 113.835,328.527 114.139 C 328.384 114.283,328.867 114.400,329.600 114.400 C 330.333 114.400,330.816 114.517,330.673 114.661 C 330.334 114.999,332.264 115.998,333.446 116.096 C 333.950 116.137,334.289 116.244,334.200 116.333 C 333.860 116.673,335.247 117.667,335.777 117.464 C 336.083 117.347,336.433 117.509,336.554 117.825 C 336.676 118.141,337.051 118.400,337.387 118.400 C 337.724 118.400,338.000 118.592,338.000 118.826 C 338.000 119.060,338.495 119.195,339.100 119.126 C 339.705 119.057,340.230 119.166,340.267 119.368 C 340.341 119.778,343.126 121.273,343.883 121.310 C 344.148 121.323,344.454 121.563,344.562 121.845 C 344.670 122.126,345.397 122.476,346.179 122.622 C 346.961 122.769,347.600 123.017,347.600 123.173 C 347.600 123.502,351.225 125.200,351.928 125.200 C 352.188 125.200,352.400 125.395,352.400 125.633 C 352.400 125.872,352.623 125.992,352.896 125.901 C 353.169 125.810,353.643 125.986,353.948 126.291 C 354.253 126.596,354.757 126.749,355.067 126.630 C 355.377 126.511,355.733 126.680,355.858 127.007 C 355.983 127.333,356.339 127.600,356.648 127.600 C 357.214 127.600,358.828 128.388,359.200 128.846 C 359.310 128.981,359.850 129.248,360.400 129.438 C 361.344 129.764,361.640 129.835,362.600 129.960 C 362.820 129.989,362.730 130.187,362.400 130.400 C 361.934 130.701,362.051 130.789,362.924 130.794 C 363.561 130.797,363.941 130.971,363.803 131.195 C 363.668 131.413,363.809 131.495,364.115 131.377 C 364.421 131.260,364.903 131.442,365.185 131.782 C 365.467 132.122,365.946 132.400,366.249 132.400 C 366.552 132.400,366.800 132.580,366.800 132.800 C 366.800 133.020,367.035 133.200,367.321 133.200 C 367.608 133.200,368.733 133.639,369.821 134.176 C 370.910 134.712,372.069 135.207,372.399 135.276 C 372.728 135.344,373.236 135.670,373.528 136.000 C 374.000 136.533,374.027 136.533,373.765 136.000 C 373.603 135.670,373.917 135.805,374.461 136.300 C 375.480 137.226,376.238 137.509,375.800 136.800 C 375.664 136.580,375.743 136.400,375.976 136.400 C 376.209 136.400,376.400 136.658,376.400 136.973 C 376.400 137.288,376.760 137.660,377.200 137.800 C 377.640 137.940,378.000 138.222,378.000 138.427 C 378.000 138.632,378.338 138.800,378.751 138.800 C 379.164 138.800,379.703 139.043,379.950 139.339 C 380.667 140.204,380.785 350.880,380.067 350.604 C 379.774 350.492,369.469 350.400,357.167 350.400 L 334.800 350.400 334.800 253.024 C 334.800 199.467,334.658 155.559,334.484 155.452 C 334.310 155.344,334.125 154.622,334.072 153.847 C 333.961 152.189,333.013 149.757,332.534 149.900 C 332.350 149.955,332.200 149.775,332.200 149.500 C 332.200 148.842,331.481 148.035,331.100 148.266 C 330.935 148.365,330.800 148.167,330.800 147.824 C 330.800 147.481,330.519 147.200,330.176 147.200 C 329.807 147.200,329.669 147.012,329.838 146.738 C 329.996 146.482,329.950 146.384,329.733 146.518 C 329.518 146.650,328.841 146.499,328.227 146.180 C 326.778 145.428,73.436 145.294,72.972 146.045 C 72.783 146.351,72.600 146.324,72.372 145.954 C 72.113 145.535,71.987 145.568,71.780 146.109 C 71.635 146.486,71.355 146.696,71.159 146.575 C 70.738 146.314,69.102 147.369,69.426 147.692 C 69.547 147.814,69.094 148.306,68.418 148.787 C 67.743 149.268,67.289 149.821,67.410 150.016 C 67.530 150.211,67.285 150.715,66.864 151.136 C 65.493 152.507,65.472 153.940,65.333 252.700 L 65.197 350.400 42.397 350.400 L 19.597 350.400 19.601 244.553 C 19.605 160.261,19.707 138.790,20.103 139.113 C 20.644 139.556,21.773 138.707,21.288 138.221 C 21.143 138.076,21.295 138.062,21.626 138.189 C 21.957 138.316,22.582 138.097,23.014 137.702 C 23.446 137.307,24.070 136.994,24.400 137.006 C 24.730 137.018,25.315 136.679,25.700 136.253 C 26.097 135.813,26.400 135.690,26.400 135.967 C 26.400 136.294,26.611 136.246,27.032 135.825 C 27.380 135.477,27.858 135.312,28.094 135.458 C 28.330 135.604,28.417 135.552,28.288 135.342 C 28.158 135.132,28.419 134.731,28.868 134.451 C 29.318 134.169,29.565 134.133,29.418 134.370 C 29.272 134.607,29.343 134.800,29.576 134.800 C 29.809 134.800,30.000 134.541,30.000 134.224 C 30.000 133.907,30.208 133.519,30.462 133.362 C 30.748 133.185,30.815 133.252,30.638 133.538 C 30.248 134.170,30.838 134.097,31.759 133.400 C 32.176 133.084,32.652 132.909,32.817 133.011 C 32.982 133.112,33.218 132.929,33.343 132.604 C 33.472 132.269,33.835 132.115,34.185 132.250 C 34.523 132.379,34.800 132.286,34.800 132.043 C 34.800 131.799,35.171 131.600,35.624 131.600 C 36.077 131.600,36.336 131.420,36.200 131.200 C 35.966 130.821,36.138 130.733,37.300 130.640 C 37.575 130.618,38.040 130.373,38.332 130.096 C 38.625 129.819,39.015 129.685,39.198 129.799 C 39.382 129.912,39.592 129.862,39.666 129.688 C 39.940 129.041,42.352 127.600,43.162 127.600 C 43.623 127.600,44.000 127.459,44.000 127.287 C 44.000 127.115,44.809 126.736,45.797 126.444 C 46.785 126.152,47.495 125.753,47.373 125.557 C 47.252 125.361,47.534 125.200,48.000 125.200 C 48.466 125.200,48.737 125.022,48.603 124.805 C 48.468 124.587,48.609 124.505,48.915 124.623 C 49.221 124.740,49.703 124.558,49.985 124.218 C 50.267 123.878,50.701 123.603,50.949 123.606 C 51.197 123.609,51.130 123.787,50.800 124.000 C 49.695 124.714,50.706 124.410,52.345 123.535 C 53.237 123.059,53.871 122.514,53.754 122.325 C 53.636 122.135,53.689 122.019,53.870 122.066 C 54.510 122.233,56.800 121.532,56.800 121.168 C 56.800 120.966,57.171 120.800,57.624 120.800 C 58.077 120.800,58.336 120.620,58.200 120.400 C 58.064 120.180,58.233 120.000,58.576 120.000 C 58.919 120.000,59.203 119.775,59.206 119.500 C 59.210 119.162,59.333 119.190,59.585 119.589 C 59.906 120.096,59.992 120.086,60.212 119.514 C 60.367 119.110,60.714 118.945,61.099 119.093 C 61.517 119.254,61.633 119.178,61.442 118.868 C 61.259 118.572,61.439 118.400,61.934 118.400 C 62.363 118.400,62.809 118.152,62.926 117.849 C 63.061 117.497,63.514 117.371,64.185 117.499 C 64.935 117.643,65.200 117.543,65.117 117.150 C 65.046 116.819,65.304 116.626,65.763 116.666 C 66.183 116.702,66.872 116.342,67.294 115.866 C 67.716 115.390,67.947 115.225,67.807 115.500 C 67.435 116.233,68.005 116.110,68.753 115.296 C 69.109 114.909,70.113 114.343,70.985 114.039 C 71.857 113.735,72.817 113.240,73.118 112.940 C 73.418 112.639,73.830 112.495,74.032 112.620 C 74.235 112.745,74.400 112.657,74.400 112.424 C 74.400 112.191,74.681 112.000,75.024 112.000 C 75.367 112.000,75.536 111.820,75.400 111.600 C 75.168 111.225,75.967 111.023,77.100 111.170 C 77.375 111.206,77.600 111.047,77.600 110.818 C 77.600 110.588,77.960 110.400,78.400 110.400 C 78.840 110.400,79.200 110.264,79.200 110.098 C 79.200 109.750,80.900 108.965,82.484 108.583 C 83.080 108.439,83.777 108.069,84.033 107.761 C 84.289 107.452,84.746 107.200,85.049 107.200 C 85.352 107.200,85.600 107.001,85.600 106.757 C 85.600 106.514,85.877 106.421,86.215 106.550 C 86.559 106.682,86.927 106.536,87.048 106.219 C 87.170 105.901,87.538 105.755,87.883 105.887 C 88.238 106.023,88.658 105.839,88.874 105.453 C 89.080 105.085,89.399 104.876,89.583 104.989 C 89.766 105.103,90.027 104.908,90.161 104.556 C 90.301 104.192,90.663 104.015,91.003 104.146 C 91.362 104.283,91.600 104.145,91.600 103.800 C 91.600 103.428,91.835 103.315,92.266 103.481 C 92.737 103.662,92.840 103.588,92.617 103.228 C 92.370 102.828,92.482 102.816,93.143 103.169 C 93.846 103.546,93.943 103.517,93.742 102.993 C 93.610 102.649,93.659 102.399,93.851 102.437 C 94.456 102.558,96.800 101.913,96.800 101.625 C 96.800 101.473,97.423 101.105,98.183 100.807 C 98.944 100.508,99.657 100.027,99.768 99.739 C 99.887 99.428,100.250 99.321,100.654 99.476 C 101.193 99.683,101.279 99.584,101.060 99.013 C 100.825 98.399,100.876 98.365,101.391 98.792 C 101.870 99.190,102.000 99.192,102.000 98.802 C 102.000 98.499,102.319 98.390,102.823 98.522 C 103.459 98.688,103.549 98.621,103.219 98.223 C 102.887 97.822,103.013 97.752,103.797 97.901 C 104.513 98.038,104.800 97.919,104.800 97.484 C 104.800 97.072,105.059 96.943,105.600 97.084 C 106.141 97.226,106.400 97.096,106.400 96.684 C 106.400 96.272,106.659 96.143,107.200 96.284 C 107.647 96.401,108.000 96.296,108.000 96.047 C 108.000 95.801,108.294 95.600,108.653 95.600 C 109.012 95.600,109.629 95.228,110.023 94.774 C 110.417 94.319,110.843 93.959,110.970 93.974 C 111.764 94.064,112.017 93.951,111.800 93.600 C 111.574 93.235,112.669 93.010,113.900 93.170 C 114.175 93.206,114.400 93.047,114.400 92.818 C 114.400 92.588,114.760 92.400,115.200 92.400 C 115.640 92.400,116.000 92.263,116.000 92.096 C 116.000 91.929,116.379 91.556,116.842 91.267 C 117.305 90.978,117.566 90.932,117.421 91.166 C 117.261 91.425,117.399 91.498,117.777 91.354 C 118.117 91.223,118.279 90.927,118.136 90.696 C 117.985 90.451,118.068 90.395,118.337 90.561 C 118.591 90.718,119.199 90.566,119.688 90.223 C 120.178 89.880,120.857 89.600,121.198 89.600 C 121.539 89.600,122.527 89.015,123.394 88.301 C 124.260 87.587,124.831 87.227,124.661 87.501 C 124.492 87.775,124.522 88.000,124.730 88.000 C 124.937 88.000,125.209 87.610,125.333 87.134 C 125.524 86.403,125.656 86.348,126.180 86.783 C 126.599 87.131,126.800 87.153,126.800 86.849 C 126.800 86.602,127.160 86.400,127.600 86.400 C 128.040 86.400,128.400 86.220,128.400 86.000 C 128.400 85.780,128.678 85.600,129.017 85.600 C 129.356 85.600,130.020 85.240,130.492 84.800 C 130.964 84.360,131.666 84.000,132.052 84.000 C 132.437 84.000,132.864 83.820,133.000 83.600 C 133.136 83.380,133.514 83.200,133.840 83.200 C 134.167 83.200,134.820 82.840,135.292 82.400 C 135.764 81.960,136.567 81.600,137.075 81.600 C 137.584 81.600,138.000 81.420,138.000 81.200 C 138.000 80.980,138.341 80.800,138.757 80.800 C 139.174 80.800,139.621 80.522,139.752 80.181 C 139.882 79.841,140.217 79.609,140.495 79.665 C 140.773 79.722,141.405 79.544,141.900 79.270 C 142.395 78.996,142.800 78.868,142.800 78.986 C 142.800 79.104,143.160 78.840,143.600 78.400 C 144.040 77.960,144.861 77.600,145.424 77.600 C 146.004 77.600,146.340 77.427,146.200 77.200 C 146.064 76.980,146.299 76.800,146.722 76.800 C 147.145 76.800,147.997 76.305,148.615 75.700 C 149.233 75.095,149.598 74.838,149.427 75.130 C 149.023 75.819,150.840 74.849,151.304 74.128 C 151.472 73.868,152.102 73.708,152.704 73.773 C 153.413 73.849,154.047 73.605,154.500 73.084 C 154.885 72.640,155.200 72.423,155.200 72.601 C 155.200 72.779,155.530 72.626,155.932 72.261 C 156.335 71.897,156.781 71.714,156.923 71.856 C 157.065 71.998,157.427 71.910,157.727 71.660 C 158.028 71.411,158.392 71.325,158.537 71.470 C 158.682 71.615,158.800 71.545,158.800 71.315 C 158.800 71.085,159.340 70.673,160.000 70.400 C 160.660 70.127,161.203 69.700,161.206 69.451 C 161.209 69.203,161.387 69.270,161.600 69.600 C 161.858 70.000,161.990 70.033,161.994 69.700 C 161.997 69.425,162.270 69.200,162.600 69.200 C 162.930 69.200,163.200 69.020,163.200 68.800 C 163.200 68.580,163.650 68.400,164.200 68.400 C 164.839 68.400,165.200 68.175,165.200 67.776 C 165.200 67.433,165.361 67.252,165.558 67.374 C 165.755 67.496,166.014 67.341,166.133 67.030 C 166.260 66.700,166.775 66.512,167.375 66.577 C 167.939 66.639,168.400 66.535,168.400 66.345 C 168.400 66.155,168.741 66.000,169.157 66.000 C 169.574 66.000,170.025 65.711,170.161 65.358 C 170.306 64.981,170.660 64.814,171.024 64.954 C 171.377 65.089,171.537 65.022,171.397 64.795 C 171.263 64.578,171.534 64.400,172.000 64.400 C 172.466 64.400,172.736 64.220,172.600 64.000 C 172.458 63.770,172.830 63.597,173.476 63.594 C 174.349 63.589,174.466 63.501,174.000 63.200 C 173.447 62.843,174.505 62.564,175.700 62.753 C 175.865 62.779,176.000 62.620,176.000 62.400 C 176.000 62.180,176.283 62.000,176.629 62.000 C 176.974 62.000,177.529 61.728,177.861 61.396 C 178.193 61.064,178.630 60.895,178.832 61.020 C 179.035 61.145,179.200 61.057,179.200 60.824 C 179.200 60.591,179.478 60.400,179.817 60.400 C 180.156 60.400,180.820 60.040,181.292 59.600 C 181.764 59.160,182.385 58.800,182.672 58.800 C 183.540 58.800,187.177 57.087,186.982 56.770 C 186.881 56.608,187.159 56.569,187.599 56.684 C 188.166 56.832,188.400 56.697,188.400 56.222 C 188.400 55.821,188.683 55.578,189.100 55.621 C 190.348 55.748,190.852 55.608,190.603 55.205 C 190.463 54.978,190.623 54.911,190.979 55.047 C 191.321 55.178,191.600 55.116,191.600 54.909 C 191.600 54.703,191.870 54.503,192.200 54.467 C 192.530 54.430,193.070 54.370,193.400 54.333 C 193.730 54.297,194.000 54.130,194.000 53.963 C 194.000 53.478,196.455 52.387,196.910 52.668 C 197.149 52.816,197.203 52.729,197.038 52.462 C 196.855 52.166,197.085 51.989,197.676 51.968 C 198.184 51.951,198.374 51.846,198.098 51.734 C 197.821 51.623,197.686 51.384,197.798 51.204 C 198.042 50.808,200.954 51.046,201.914 51.539 M314.800 180.967 C 314.800 189.639,314.691 197.020,314.557 197.369 C 314.335 197.945,303.930 198.002,199.479 197.999 C 110.529 197.995,84.753 197.887,85.123 197.517 C 85.476 197.164,85.600 192.918,85.600 181.120 L 85.600 165.200 200.200 165.200 L 314.800 165.200 314.800 180.967 M314.800 232.967 C 314.800 241.419,314.691 248.619,314.557 248.967 C 314.329 249.562,86.161 250.027,85.567 249.434 C 85.475 249.342,85.449 242.142,85.509 233.434 L 85.618 217.600 200.209 217.600 L 314.800 217.600 314.800 232.967 M314.891 284.198 L 314.782 299.597 200.091 299.699 L 85.400 299.800 85.509 284.501 L 85.618 269.201 200.309 269.100 C 263.389 269.044,315.000 268.954,315.000 268.899 C 315.000 268.844,314.951 275.729,314.891 284.198 M314.800 335.199 L 314.800 350.397 200.100 350.499 L 85.400 350.600 85.509 335.300 L 85.618 320.000 200.209 320.000 L 314.800 320.000 314.800 335.199 " stroke="none" fill="#ecfcfc" fill-rule="evenodd"></path><path id="path1" d="M206.655 31.400 C 206.782 31.730,207.149 32.000,207.471 32.000 C 207.979 32.000,207.978 31.920,207.457 31.400 C 207.127 31.070,206.760 30.800,206.641 30.800 C 206.522 30.800,206.529 31.070,206.655 31.400 M191.467 31.867 C 191.084 32.249,191.138 32.800,191.557 32.800 C 191.754 32.800,192.018 32.530,192.145 32.200 C 192.379 31.590,191.953 31.381,191.467 31.867 M189.494 32.900 C 189.375 33.210,189.649 33.400,190.217 33.400 C 190.904 33.400,191.028 33.275,190.717 32.900 C 190.489 32.625,190.163 32.400,189.994 32.400 C 189.824 32.400,189.599 32.625,189.494 32.900 M186.400 34.600 C 186.400 34.930,186.580 35.200,186.800 35.200 C 187.020 35.200,187.200 34.930,187.200 34.600 C 187.200 34.270,187.020 34.000,186.800 34.000 C 186.580 34.000,186.400 34.270,186.400 34.600 M176.984 39.227 C 176.839 39.461,176.816 39.749,176.933 39.867 C 177.220 40.153,178.000 39.648,178.000 39.176 C 178.000 38.665,177.309 38.699,176.984 39.227 M162.800 46.000 C 162.800 46.220,162.440 46.400,162.000 46.400 C 161.560 46.400,161.200 46.535,161.200 46.700 C 161.200 47.369,163.046 46.980,163.098 46.300 C 163.127 45.915,163.071 45.600,162.975 45.600 C 162.879 45.600,162.800 45.780,162.800 46.000 M197.826 51.158 C 197.704 51.355,197.874 51.619,198.202 51.746 C 198.565 51.885,198.800 51.744,198.800 51.387 C 198.800 50.740,198.175 50.593,197.826 51.158 M207.200 54.151 C 207.200 54.761,208.334 55.150,208.541 54.610 C 208.702 54.191,208.529 54.000,207.987 54.000 C 207.554 54.000,207.200 54.068,207.200 54.151 M189.600 55.200 C 189.600 55.420,189.330 55.600,189.000 55.600 C 188.670 55.600,188.400 55.898,188.400 56.262 C 188.400 56.878,188.451 56.878,189.132 56.261 C 189.535 55.897,189.995 55.728,190.154 55.887 C 190.312 56.046,190.324 55.866,190.178 55.488 C 189.886 54.725,189.600 54.583,189.600 55.200 M209.208 55.410 C 209.486 55.745,209.809 55.925,209.925 55.809 C 210.040 55.693,210.466 55.898,210.870 56.263 C 211.274 56.629,211.724 56.810,211.869 56.664 C 212.014 56.519,211.913 56.400,211.643 56.400 C 211.373 56.400,211.281 56.192,211.438 55.938 C 211.604 55.670,211.549 55.584,211.307 55.734 C 211.078 55.875,210.668 55.723,210.396 55.396 C 210.124 55.068,209.632 54.800,209.302 54.800 C 208.810 54.800,208.793 54.910,209.208 55.410 M143.600 55.600 C 143.600 55.820,143.240 56.000,142.800 56.000 C 142.360 56.000,142.000 56.180,142.000 56.400 C 142.000 57.020,142.621 56.875,143.656 56.013 C 144.175 55.581,144.375 55.221,144.100 55.213 C 143.825 55.206,143.600 55.380,143.600 55.600 M134.700 59.829 C 134.095 60.157,133.600 60.504,133.600 60.600 C 133.600 60.828,134.876 60.371,135.437 59.941 C 135.677 59.757,136.021 59.740,136.201 59.903 C 136.381 60.067,136.399 59.975,136.241 59.700 C 136.082 59.425,135.918 59.207,135.876 59.216 C 135.834 59.225,135.305 59.501,134.700 59.829 M266.217 60.772 C 265.921 61.251,266.674 61.725,267.207 61.396 C 267.654 61.119,267.360 60.400,266.800 60.400 C 266.606 60.400,266.344 60.568,266.217 60.772 M267.817 61.572 C 267.691 61.777,267.770 62.058,267.993 62.196 C 268.217 62.334,268.400 62.246,268.400 62.000 C 268.400 61.754,268.608 61.681,268.862 61.838 C 269.148 62.015,269.215 61.948,269.038 61.662 C 268.694 61.105,268.132 61.063,267.817 61.572 M127.618 63.379 C 127.338 63.716,126.950 63.893,126.755 63.772 C 126.560 63.651,126.400 63.861,126.400 64.238 C 126.400 64.873,126.459 64.870,127.200 64.200 C 127.784 63.672,128.000 63.623,128.000 64.018 C 128.000 64.440,128.107 64.453,128.480 64.080 C 128.813 63.747,128.832 63.472,128.543 63.183 C 128.254 62.894,127.970 62.954,127.618 63.379 M277.267 66.533 C 277.541 66.827,278.022 67.067,278.335 67.067 C 278.750 67.067,278.706 66.921,278.176 66.533 C 277.775 66.240,277.294 66.000,277.108 66.000 C 276.921 66.000,276.993 66.240,277.267 66.533 M242.483 71.585 C 243.037 72.472,244.877 73.283,245.323 72.837 C 245.540 72.620,245.387 72.500,244.943 72.537 C 244.476 72.577,244.218 72.354,244.249 71.938 C 244.282 71.504,243.918 71.220,243.193 71.114 C 242.267 70.978,242.152 71.054,242.483 71.585 M156.000 72.200 C 155.730 72.525,155.350 72.693,155.155 72.572 C 154.960 72.451,154.800 72.543,154.800 72.776 C 154.800 73.321,154.893 73.312,156.184 72.642 C 156.776 72.335,157.087 71.977,156.875 71.846 C 156.664 71.716,156.270 71.875,156.000 72.200 M151.345 74.200 C 151.218 74.530,150.834 74.800,150.491 74.800 C 150.147 74.800,149.981 74.914,150.121 75.054 C 150.490 75.423,152.830 74.373,152.571 73.954 C 152.234 73.407,151.600 73.535,151.345 74.200 M297.297 76.230 C 297.423 76.357,297.768 76.518,298.063 76.589 C 299.751 76.994,300.365 77.337,300.131 77.745 C 299.989 77.995,300.009 78.076,300.177 77.926 C 300.345 77.775,300.914 77.815,301.441 78.016 C 303.092 78.643,302.490 78.116,300.321 77.036 C 298.451 76.104,296.705 75.639,297.297 76.230 M253.788 76.820 C 253.407 77.435,253.928 77.832,254.442 77.318 C 254.729 77.031,254.736 76.807,254.462 76.639 C 254.239 76.500,253.935 76.582,253.788 76.820 M96.800 78.757 C 96.800 79.027,96.632 79.144,96.428 79.017 C 96.223 78.891,95.940 78.973,95.800 79.200 C 95.660 79.427,95.390 79.517,95.200 79.400 C 95.010 79.283,94.726 79.396,94.568 79.652 C 94.361 79.986,94.605 80.036,95.440 79.830 C 96.763 79.503,97.474 78.941,97.073 78.540 C 96.923 78.390,96.800 78.487,96.800 78.757 M256.800 78.843 C 256.800 79.086,257.065 79.184,257.389 79.059 C 257.716 78.934,258.149 79.137,258.359 79.513 C 258.569 79.887,258.875 80.058,259.041 79.893 C 259.381 79.552,258.064 78.432,257.300 78.413 C 257.025 78.406,256.800 78.599,256.800 78.843 M89.600 82.200 C 89.600 82.530,89.761 82.800,89.957 82.800 C 90.154 82.800,90.418 82.530,90.545 82.200 C 90.685 81.835,90.545 81.600,90.187 81.600 C 89.864 81.600,89.600 81.870,89.600 82.200 M87.838 83.045 C 87.657 83.516,87.762 83.624,88.228 83.445 C 88.579 83.310,88.951 83.200,89.056 83.200 C 89.161 83.200,89.136 83.020,89.000 82.800 C 88.633 82.206,88.118 82.315,87.838 83.045 M77.050 88.319 C 76.942 88.495,77.018 88.900,77.220 89.219 C 77.422 89.539,77.604 89.710,77.624 89.600 C 77.645 89.490,77.722 89.085,77.795 88.700 C 77.931 87.993,77.414 87.729,77.050 88.319 M68.894 92.283 C 68.396 92.379,68.081 92.607,68.194 92.791 C 68.452 93.209,70.000 92.833,70.000 92.353 C 70.000 92.159,69.955 92.025,69.900 92.054 C 69.845 92.084,69.392 92.187,68.894 92.283 M332.800 93.504 C 332.800 94.119,334.215 94.675,335.000 94.369 C 335.687 94.100,335.642 94.052,334.676 94.028 C 334.035 94.012,333.659 93.828,333.800 93.600 C 333.936 93.380,333.767 93.200,333.424 93.200 C 333.081 93.200,332.800 93.337,332.800 93.504 M64.255 94.600 C 64.129 94.930,64.199 95.200,64.413 95.200 C 64.626 95.200,64.800 95.009,64.800 94.776 C 64.800 94.543,64.980 94.464,65.200 94.600 C 65.420 94.736,65.600 94.657,65.600 94.424 C 65.600 93.777,64.517 93.919,64.255 94.600 M292.000 96.067 C 292.000 96.323,292.118 96.415,292.263 96.270 C 292.408 96.125,292.786 96.222,293.104 96.486 C 293.651 96.940,294.800 97.284,294.800 96.994 C 294.800 96.858,292.398 95.600,292.139 95.600 C 292.062 95.600,292.000 95.810,292.000 96.067 M302.978 100.835 C 302.831 101.074,302.890 101.450,303.110 101.670 C 303.376 101.936,303.599 101.925,303.778 101.635 C 303.926 101.396,303.846 101.200,303.600 101.200 C 303.354 101.200,303.264 101.020,303.400 100.800 C 303.536 100.580,303.557 100.400,303.447 100.400 C 303.337 100.400,303.126 100.596,302.978 100.835 M309.200 104.600 C 309.474 104.930,309.878 105.200,310.098 105.200 C 310.321 105.200,310.278 104.935,310.000 104.600 C 309.726 104.270,309.322 104.000,309.102 104.000 C 308.879 104.000,308.922 104.265,309.200 104.600 M40.400 106.600 C 40.400 106.930,40.580 107.200,40.800 107.200 C 41.020 107.200,41.200 106.930,41.200 106.600 C 41.200 106.270,41.020 106.000,40.800 106.000 C 40.580 106.000,40.400 106.270,40.400 106.600 M85.600 106.771 C 85.600 106.975,85.285 107.224,84.900 107.324 C 84.309 107.479,84.302 107.514,84.851 107.554 C 85.209 107.579,85.726 107.330,86.000 107.000 C 86.344 106.585,86.359 106.400,86.049 106.400 C 85.802 106.400,85.600 106.567,85.600 106.771 M33.289 109.648 C 31.882 110.316,30.889 111.020,31.031 111.250 C 31.185 111.500,31.631 111.335,32.168 110.830 C 32.654 110.374,33.368 110.000,33.754 110.000 C 34.141 110.000,34.737 109.720,35.080 109.377 C 35.423 109.034,35.959 108.852,36.272 108.972 C 36.588 109.093,36.733 109.014,36.597 108.795 C 36.265 108.259,36.157 108.287,33.289 109.648 M29.265 111.870 C 29.040 112.271,28.744 112.532,28.607 112.448 C 28.177 112.187,24.832 113.729,25.053 114.086 C 25.169 114.273,25.876 114.048,26.624 113.585 C 27.373 113.122,28.145 112.842,28.339 112.962 C 28.754 113.219,30.237 111.704,29.901 111.368 C 29.776 111.242,29.489 111.468,29.265 111.870 M55.000 121.978 C 54.560 122.155,54.037 122.205,53.838 122.088 C 53.639 121.972,53.605 122.084,53.762 122.338 C 53.919 122.592,53.827 122.800,53.557 122.800 C 53.287 122.800,53.157 122.891,53.268 123.002 C 53.477 123.210,56.000 122.073,56.000 121.771 C 56.000 121.570,56.027 121.565,55.000 121.978 M49.985 124.218 C 49.703 124.558,49.221 124.740,48.915 124.623 C 48.609 124.505,48.468 124.587,48.603 124.805 C 48.962 125.386,49.369 125.294,50.400 124.400 C 50.907 123.960,51.137 123.600,50.910 123.600 C 50.683 123.600,50.267 123.878,49.985 124.218 M1.100 126.867 C 0.228 127.780,0.221 128.000,1.067 128.000 C 1.433 128.000,1.615 127.882,1.470 127.737 C 1.325 127.592,1.411 127.228,1.660 126.927 C 2.357 126.088,1.892 126.037,1.100 126.867 M41.200 128.400 C 40.390 129.034,40.333 129.184,40.900 129.191 C 41.285 129.196,41.600 129.020,41.600 128.800 C 41.600 128.580,41.960 128.400,42.400 128.400 C 42.840 128.400,43.200 128.220,43.200 128.000 C 43.200 127.366,42.288 127.549,41.200 128.400 M363.233 130.921 C 363.325 130.988,363.940 131.358,364.600 131.745 L 365.800 132.447 364.856 131.624 C 364.336 131.171,363.721 130.800,363.489 130.800 C 363.257 130.800,363.142 130.854,363.233 130.921 M376.000 137.200 C 376.235 137.640,376.647 137.986,376.914 137.968 C 377.280 137.945,377.277 137.887,376.900 137.735 C 376.625 137.624,376.400 137.278,376.400 136.967 C 376.400 136.655,376.214 136.400,375.986 136.400 C 375.705 136.400,375.710 136.658,376.000 137.200 M19.601 244.604 C 19.599 302.867,19.687 350.446,19.797 350.336 C 20.059 350.075,20.067 139.134,19.806 138.873 C 19.696 138.763,19.604 186.342,19.601 244.604 M379.500 139.199 C 379.897 139.645,380.000 161.430,380.000 245.280 C 380.000 303.316,380.135 350.800,380.300 350.800 C 381.038 350.800,380.439 139.727,379.699 139.167 C 379.104 138.718,379.075 138.722,379.500 139.199 M75.000 145.199 C 74.864 145.420,74.898 145.601,75.076 145.601 C 115.432 145.758,324.800 145.506,324.800 145.301 C 324.800 144.826,75.294 144.725,75.000 145.199 M66.800 150.343 C 66.800 150.778,66.575 151.224,66.300 151.335 C 65.923 151.487,65.920 151.545,66.286 151.568 C 66.955 151.612,67.725 150.125,67.201 149.801 C 66.980 149.664,66.800 149.908,66.800 150.343 M314.495 181.100 L 314.400 197.200 199.824 197.200 C 124.395 197.200,85.163 197.336,85.002 197.597 C 84.839 197.860,123.656 197.996,199.570 197.999 L 314.384 198.003 314.603 197.101 C 314.724 196.606,314.770 189.180,314.706 180.600 L 314.590 165.000 314.495 181.100 M314.495 233.100 L 314.400 248.800 199.776 248.800 C 123.463 248.800,85.235 248.934,85.400 249.200 C 85.564 249.465,124.202 249.600,200.016 249.600 L 314.385 249.600 314.604 248.700 C 314.724 248.205,314.770 240.960,314.706 232.600 L 314.590 217.400 314.495 233.100 M314.582 269.301 C 314.477 269.577,314.437 276.552,314.495 284.801 L 314.601 299.800 314.800 284.300 C 314.910 275.775,314.949 268.800,314.887 268.800 C 314.826 268.800,314.688 269.026,314.582 269.301 M314.582 335.200 C 314.582 343.670,314.635 347.135,314.699 342.900 C 314.764 338.665,314.764 331.735,314.699 327.500 C 314.635 323.265,314.582 326.730,314.582 335.200 M9.200 368.766 C 9.200 368.953,9.515 369.218,9.900 369.354 C 10.285 369.489,10.867 369.719,11.193 369.865 C 11.717 370.098,11.717 370.060,11.193 369.542 C 10.444 368.801,9.200 368.316,9.200 368.766 M13.300 370.100 C 13.391 370.375,13.770 370.627,14.141 370.659 C 14.663 370.705,14.677 370.676,14.203 370.529 C 13.866 370.425,13.693 370.173,13.819 369.970 C 13.944 369.766,13.842 369.600,13.590 369.600 C 13.339 369.600,13.208 369.825,13.300 370.100 " stroke="none" fill="#f4fcfc" fill-rule="evenodd"></path></g></svg>