<svg id="svg" version="1.1" width="512" height="512" xmlns="http://www.w3.org/2000/svg"><path d="M91.000 0.905 C 91.000 1.402,88.500 3.220,85.446 4.944 C 77.834 9.240,71.877 15.767,66.790 25.387 L 62.500 33.500 62.500 260.000 L 62.500 486.500 65.161 491.500 C 68.622 498.002,73.735 503.866,79.155 507.548 C 81.545 509.172,83.650 510.837,83.833 511.250 C 84.017 511.662,92.053 512.000,101.692 512.000 L 119.216 512.000 125.358 507.064 C 128.736 504.349,156.250 477.317,186.500 446.994 C 244.080 389.274,247.810 386.000,256.000 386.000 C 264.190 386.000,267.920 389.274,325.500 446.994 C 355.750 477.317,383.264 504.349,386.642 507.064 L 392.784 512.000 410.308 512.000 C 419.947 512.000,427.983 511.662,428.167 511.250 C 428.350 510.837,430.455 509.172,432.845 507.548 C 438.265 503.866,443.378 498.002,446.839 491.500 L 449.500 486.500 449.500 260.500 L 449.500 34.500 445.897 27.000 C 441.349 17.533,436.441 11.640,428.641 6.279 C 425.264 3.957,421.956 1.594,421.292 1.029 C 419.739 -0.294,91.000 -0.418,91.000 0.905 M405.791 34.077 C 407.490 34.669,410.144 36.807,411.690 38.827 L 414.500 42.500 414.757 258.303 C 414.933 406.528,414.687 474.716,413.972 476.053 C 413.275 477.354,411.877 478.000,409.757 478.000 C 406.899 478.000,400.723 472.168,347.542 419.250 C 285.390 357.405,286.288 358.193,272.500 353.407 C 269.538 352.379,263.404 351.510,257.451 351.275 C 248.714 350.931,246.423 351.208,239.905 353.396 C 235.782 354.780,230.180 357.125,227.455 358.606 C 223.978 360.497,205.046 378.704,163.981 419.650 C 111.077 472.401,105.155 478.000,102.266 478.000 C 100.121 478.000,98.727 477.359,98.026 476.049 C 97.308 474.706,97.063 406.818,97.241 258.299 L 97.500 42.500 99.896 39.140 C 104.499 32.687,94.423 33.082,255.601 33.039 C 358.187 33.012,403.636 33.326,405.791 34.077 " stroke="none" fill="undefined" fill-rule="evenodd"/></svg>