<svg id="svg" version="1.1" xmlns="http://www.w3.org/2000/svg" xmlns:xlink="http://www.w3.org/1999/xlink" width="400" height="400" viewBox="0, 0, 400,400"><g id="svgg"><path id="path0" d="M188.000 0.640 C 184.377 1.851,179.017 4.989,175.800 7.783 C 174.313 9.075,17.020 166.254,11.607 171.857 C 6.147 177.510,3.504 181.590,1.154 188.000 C -0.302 191.968,-0.302 208.032,1.154 212.000 C 3.613 218.706,6.110 222.635,10.946 227.405 C 15.379 231.780,21.333 235.410,26.000 236.585 C 26.550 236.723,27.909 237.087,29.019 237.392 C 30.130 237.698,33.504 238.076,36.517 238.232 L 41.995 238.516 42.143 298.758 C 42.303 363.741,42.331 364.634,44.410 370.800 C 47.938 381.268,53.397 388.273,63.000 394.655 C 65.272 396.165,66.314 396.708,69.600 398.096 C 70.370 398.422,71.540 398.938,72.200 399.244 C 73.388 399.794,154.871 400.357,157.000 399.829 C 158.761 399.393,162.800 394.519,162.800 392.832 C 162.800 392.400,162.980 391.936,163.200 391.800 C 163.463 391.637,163.600 374.572,163.600 341.905 C 163.600 305.828,163.725 291.866,164.056 290.828 C 165.803 285.359,167.639 282.462,170.939 279.968 C 173.341 278.152,175.849 276.800,176.814 276.800 C 177.220 276.800,177.664 276.620,177.800 276.400 C 178.140 275.850,223.460 275.850,223.800 276.400 C 223.936 276.620,224.391 276.800,224.811 276.800 C 227.677 276.800,233.790 282.056,235.871 286.310 C 237.780 290.211,237.748 289.370,237.986 341.800 C 238.111 369.300,238.372 392.250,238.566 392.800 C 239.186 394.557,241.351 397.499,242.966 398.778 L 244.532 400.018 286.366 399.909 C 320.991 399.819,328.407 399.705,329.400 399.246 C 333.402 397.399,335.661 396.400,335.840 396.400 C 336.217 396.400,340.978 393.071,343.600 390.973 C 352.233 384.067,358.127 372.642,359.201 360.732 C 359.409 358.415,359.579 330.656,359.587 297.551 L 359.600 238.503 365.300 238.224 C 368.435 238.071,371.585 237.778,372.300 237.573 C 373.015 237.368,374.275 237.008,375.100 236.774 C 376.858 236.274,377.410 236.052,380.562 234.582 C 387.853 231.181,394.283 224.788,398.445 216.800 L 399.800 214.200 399.800 200.000 L 399.800 185.800 398.447 183.200 C 396.840 180.113,395.172 177.591,393.287 175.400 C 391.806 173.678,234.650 16.304,228.503 10.387 C 223.388 5.463,218.388 2.212,213.486 0.621 C 210.748 -0.267,190.670 -0.253,188.000 0.640 M203.743 25.460 L 206.600 26.120 290.130 109.560 C 382.080 201.411,375.600 194.552,375.600 200.026 C 375.600 203.767,374.967 205.428,372.563 207.998 C 369.198 211.595,368.415 211.770,354.600 212.000 C 339.541 212.251,337.214 213.100,334.319 219.400 L 333.400 221.400 333.181 290.200 C 332.947 363.728,333.049 360.491,330.802 365.057 C 329.537 367.627,325.302 372.389,324.265 372.409 C 324.009 372.414,323.350 372.770,322.800 373.200 C 322.250 373.630,321.431 373.986,320.980 373.991 C 320.529 373.996,319.989 374.163,319.780 374.363 C 318.983 375.125,314.240 375.297,289.704 375.452 L 264.407 375.612 264.251 333.506 C 264.157 308.205,263.931 290.123,263.686 288.200 C 261.819 273.574,252.691 260.736,239.637 254.378 C 234.260 251.759,234.093 251.702,227.800 250.306 C 225.025 249.691,176.575 249.691,173.800 250.306 C 168.903 251.392,168.235 251.576,166.200 252.394 C 150.664 258.644,140.567 271.210,137.913 287.600 C 137.645 289.258,137.437 305.675,137.341 332.906 L 137.189 375.612 111.895 375.456 C 83.657 375.282,83.256 375.258,79.905 373.553 C 79.523 373.359,78.938 373.200,78.605 373.200 C 78.272 373.200,78.000 373.020,78.000 372.800 C 78.000 372.580,77.727 372.400,77.393 372.400 C 75.390 372.400,69.972 364.860,69.058 360.800 C 68.797 359.644,68.571 334.376,68.426 290.200 L 68.200 221.400 67.336 219.530 C 64.360 213.092,62.091 212.252,47.000 212.000 C 35.547 211.809,34.907 211.758,32.960 210.877 C 26.935 208.149,23.942 200.556,26.746 195.106 C 27.381 193.871,52.692 168.314,111.326 109.706 L 195.000 26.068 197.600 25.469 C 200.946 24.699,200.451 24.700,203.743 25.460 " stroke="none" fill="#040404" fill-rule="evenodd"></path><path id="path1" d="" stroke="none" fill="#080404" fill-rule="evenodd"></path><path id="path2" d="" stroke="none" fill="#080404" fill-rule="evenodd"></path></g></svg>