<svg id="svg" version="1.1" xmlns="http://www.w3.org/2000/svg" xmlns:xlink="http://www.w3.org/1999/xlink" width="400" height="400" viewBox="0, 0, 400,400"><g id="svgg"><path id="path0" d="M120.400 0.800 C 120.400 1.552,120.133 1.600,115.938 1.600 C 111.275 1.600,108.800 2.509,108.800 4.220 C 108.800 4.677,108.138 4.800,105.680 4.800 C 102.251 4.800,101.600 5.132,101.600 6.880 L 101.600 8.000 98.600 8.000 C 95.757 8.000,95.600 8.047,95.594 8.900 C 95.584 10.360,95.130 10.676,92.600 10.984 C 89.861 11.318,89.200 11.715,89.200 13.025 C 89.200 13.807,88.966 13.971,87.700 14.076 C 86.281 14.193,86.193 14.281,86.076 15.700 C 85.958 17.121,85.879 17.200,84.563 17.200 C 82.442 17.200,80.551 18.145,80.247 19.357 C 80.055 20.118,79.726 20.400,79.025 20.400 C 77.304 20.400,76.800 20.812,76.800 22.219 C 76.800 23.470,76.708 23.559,75.300 23.676 C 73.886 23.793,73.793 23.885,73.677 25.277 C 73.562 26.665,73.465 26.762,72.077 26.877 C 70.751 26.987,70.588 27.126,70.480 28.234 C 70.377 29.289,70.144 29.522,68.880 29.834 C 67.611 30.148,67.383 30.378,67.279 31.448 C 67.180 32.462,66.920 32.765,65.894 33.059 C 64.883 33.349,64.574 33.699,64.342 34.816 C 64.178 35.602,63.343 36.979,62.426 37.972 C 61.202 39.298,60.800 40.063,60.800 41.067 C 60.800 42.324,60.720 42.400,59.400 42.400 C 58.007 42.400,58.000 42.410,58.000 44.200 C 58.000 45.738,57.883 46.000,57.194 46.000 C 56.113 46.000,54.803 48.220,54.801 50.055 C 54.800 51.393,54.690 51.532,53.444 51.765 C 51.895 52.056,51.614 52.683,51.605 55.868 C 51.600 57.826,51.538 57.950,50.433 58.193 C 48.939 58.521,48.755 59.025,48.502 63.479 L 48.293 67.157 47.062 67.279 C 45.501 67.433,45.292 68.139,45.240 73.453 C 45.204 77.051,45.116 77.529,44.455 77.701 C 43.009 78.080,42.400 80.202,42.400 84.861 L 42.400 89.200 25.200 89.200 C 14.000 89.200,8.000 89.340,8.000 89.600 C 8.000 89.820,7.758 90.000,7.462 90.000 C 4.789 90.000,4.581 113.798,7.242 115.223 C 7.659 115.446,8.000 115.982,8.000 116.414 C 8.000 117.183,8.368 117.200,24.942 117.200 L 41.883 117.200 42.107 138.900 C 42.344 161.906,42.437 162.993,44.206 163.437 C 45.097 163.661,45.138 163.846,45.266 168.250 C 45.408 173.116,45.603 173.581,47.500 173.594 C 48.357 173.600,48.400 173.752,48.400 176.750 C 48.400 181.558,48.642 182.334,50.231 182.632 L 51.567 182.883 51.683 185.741 L 51.800 188.600 53.300 188.971 L 54.800 189.341 54.800 191.791 C 54.800 194.515,55.218 195.200,56.880 195.200 C 57.920 195.200,58.000 195.314,58.000 196.800 C 58.000 198.346,58.045 198.400,59.332 198.400 L 60.664 198.400 61.032 201.300 C 61.388 204.105,61.439 204.206,62.600 204.402 C 63.583 204.567,63.823 204.821,63.925 205.802 C 64.068 207.179,64.947 208.000,66.276 208.000 C 67.065 208.000,67.200 208.204,67.200 209.400 C 67.200 210.767,67.238 210.800,68.800 210.800 L 70.400 210.800 70.400 212.400 L 70.400 214.000 72.000 214.000 C 73.599 214.000,73.600 214.001,73.600 215.595 L 73.600 217.190 59.715 217.295 L 45.830 217.400 45.478 218.887 L 45.127 220.374 40.663 220.487 L 36.200 220.600 36.076 222.100 L 35.952 223.600 33.019 223.600 C 29.963 223.600,29.600 223.812,29.600 225.595 C 29.600 226.175,29.169 226.380,27.500 226.591 C 24.379 226.987,24.078 227.132,23.806 228.370 C 23.598 229.320,23.300 229.546,21.979 229.757 C 20.497 229.994,20.400 230.093,20.400 231.381 C 20.400 232.676,20.317 232.759,18.900 232.876 C 17.486 232.993,17.393 233.085,17.277 234.477 C 17.162 235.865,17.065 235.962,15.677 236.077 C 14.285 236.193,14.193 236.286,14.076 237.700 C 13.959 239.110,13.872 239.200,12.611 239.200 C 11.359 239.200,11.253 239.305,11.000 240.800 C 10.780 242.103,10.565 242.400,9.845 242.400 C 8.419 242.400,8.000 243.186,8.000 245.856 L 8.000 248.352 6.500 248.476 L 5.000 248.600 4.884 251.677 L 4.767 254.754 3.284 254.877 L 1.800 255.000 1.683 258.100 C 1.579 260.871,1.483 261.200,0.783 261.200 C 0.009 261.200,0.000 261.964,0.000 330.600 L 0.000 400.000 150.600 400.000 L 301.200 400.000 301.200 341.987 C 301.200 279.692,301.271 281.908,299.234 280.818 C 298.427 280.387,298.400 280.082,298.400 271.560 C 298.400 261.940,298.256 261.200,296.386 261.200 L 295.200 261.200 295.200 258.000 L 295.200 254.800 293.617 254.800 L 292.034 254.800 291.917 251.700 L 291.800 248.600 290.544 248.478 C 289.307 248.358,289.284 248.317,289.003 245.678 C 288.705 242.889,288.401 242.416,286.900 242.406 C 286.216 242.401,286.000 242.167,286.000 241.433 C 286.000 239.704,285.589 239.200,284.181 239.200 C 282.930 239.200,282.841 239.108,282.724 237.700 C 282.607 236.286,282.515 236.193,281.123 236.077 C 279.735 235.962,279.638 235.865,279.523 234.477 C 279.407 233.085,279.314 232.993,277.900 232.876 C 276.483 232.759,276.400 232.676,276.400 231.381 C 276.400 230.090,276.306 229.994,274.800 229.754 C 273.620 229.565,273.200 229.308,273.200 228.777 C 273.200 227.550,272.121 226.893,269.635 226.604 C 267.314 226.335,267.242 226.290,267.123 225.063 L 267.000 223.800 263.923 223.684 L 260.846 223.567 260.723 222.084 L 260.600 220.600 256.100 220.487 L 251.600 220.374 251.600 219.267 C 251.600 217.194,251.641 217.200,237.009 217.200 L 223.379 217.200 223.531 215.600 C 223.677 214.077,223.750 214.000,225.042 214.000 C 226.360 214.000,226.400 213.952,226.400 212.400 L 226.400 210.800 228.000 210.800 C 229.562 210.800,229.600 210.767,229.600 209.400 C 229.600 208.186,229.728 208.000,230.567 208.000 C 232.289 208.000,232.800 207.588,232.800 206.200 C 232.800 204.870,233.319 204.400,234.786 204.400 C 235.566 204.400,235.986 203.346,235.995 201.370 C 236.000 200.126,237.099 198.766,238.500 198.272 C 238.985 198.101,239.200 197.598,239.200 196.638 C 239.200 195.365,239.307 195.240,240.500 195.125 L 241.800 195.000 241.918 192.100 C 242.029 189.347,242.083 189.200,242.985 189.200 C 245.013 189.200,245.200 188.909,245.200 185.757 L 245.200 182.800 246.320 182.800 C 248.157 182.800,248.400 182.206,248.400 177.720 C 248.400 173.823,248.445 173.600,249.226 173.600 C 251.387 173.600,251.600 173.114,251.600 168.186 L 251.600 163.600 252.586 163.600 C 254.577 163.600,254.591 163.443,254.719 139.500 L 254.837 117.200 271.719 117.199 C 290.251 117.199,291.022 117.106,291.649 114.800 C 292.229 112.665,292.039 91.006,291.432 90.176 C 290.887 89.431,290.153 89.396,272.867 89.288 L 254.868 89.176 254.734 84.688 C 254.588 79.839,254.051 78.088,252.498 77.405 C 251.651 77.033,251.600 76.777,251.600 72.879 C 251.600 68.117,251.275 67.200,249.586 67.200 L 248.400 67.200 248.394 63.700 C 248.387 59.636,247.872 58.257,246.291 58.073 C 245.221 57.949,245.200 57.894,245.200 55.188 C 245.200 52.270,244.766 51.600,242.877 51.600 C 242.239 51.600,242.068 51.246,241.909 49.596 C 241.716 47.583,240.760 46.000,239.738 46.000 C 239.410 46.000,239.200 45.544,239.200 44.833 C 239.200 42.887,238.831 42.400,237.357 42.400 C 236.040 42.400,236.000 42.352,236.000 40.800 C 236.000 39.920,235.832 39.200,235.627 39.200 C 235.422 39.200,235.136 38.829,234.992 38.376 C 234.848 37.922,234.296 37.353,233.765 37.111 C 233.197 36.853,232.798 36.328,232.795 35.836 C 232.782 33.957,232.340 33.278,230.963 33.019 C 229.782 32.798,229.600 32.608,229.600 31.596 C 229.600 30.354,228.703 29.600,227.226 29.600 C 226.549 29.600,226.400 29.348,226.400 28.200 C 226.400 26.877,226.326 26.800,225.051 26.800 C 223.787 26.800,223.686 26.700,223.446 25.200 C 223.206 23.699,223.107 23.600,221.838 23.600 C 220.467 23.600,220.000 23.094,220.000 21.610 C 220.000 20.818,219.244 20.400,217.811 20.400 C 217.152 20.400,216.813 20.105,216.629 19.374 C 216.329 18.178,214.353 17.200,212.237 17.200 C 210.921 17.200,210.842 17.121,210.724 15.700 C 210.607 14.281,210.519 14.193,209.100 14.076 C 207.834 13.971,207.600 13.807,207.600 13.025 C 207.600 11.696,206.919 11.298,204.096 10.979 C 202.070 10.750,201.600 10.562,201.600 9.981 C 201.600 8.213,201.232 8.000,198.181 8.000 L 195.248 8.000 195.124 6.500 L 195.000 5.000 191.883 4.883 C 188.847 4.769,188.724 4.724,187.183 3.183 L 185.600 1.600 181.000 1.600 C 176.667 1.600,176.400 1.554,176.400 0.800 C 176.400 0.008,176.133 0.000,148.400 0.000 C 120.667 0.000,120.400 0.008,120.400 0.800 M164.000 27.226 C 164.000 29.363,164.513 29.600,169.131 29.600 L 173.435 29.600 173.817 30.900 C 174.269 32.433,175.055 32.682,179.676 32.753 L 182.752 32.800 182.876 34.300 C 182.996 35.749,183.056 35.804,184.656 35.921 C 185.935 36.014,186.701 36.401,188.023 37.621 C 189.302 38.802,190.069 39.200,191.067 39.200 C 192.324 39.200,192.400 39.280,192.400 40.600 C 192.400 41.967,192.438 42.000,194.000 42.000 C 195.391 42.000,195.601 42.118,195.606 42.900 C 195.616 44.348,196.172 44.847,198.042 45.082 C 199.959 45.323,201.600 46.517,201.600 47.670 C 201.600 48.255,201.918 48.400,203.200 48.400 L 204.800 48.400 204.800 50.000 C 204.800 50.880,204.968 51.600,205.173 51.600 C 205.378 51.600,205.664 51.970,205.807 52.423 C 205.951 52.876,206.503 53.411,207.034 53.613 C 207.788 53.900,208.000 54.272,208.000 55.310 C 208.000 56.856,208.599 57.600,209.845 57.600 C 210.565 57.600,210.780 57.897,211.000 59.200 C 211.251 60.685,211.364 60.800,212.578 60.800 C 213.878 60.800,213.888 60.814,214.130 63.133 C 214.469 66.375,214.691 66.800,216.043 66.800 C 217.113 66.800,217.200 66.913,217.202 68.300 C 217.206 71.094,217.893 72.713,219.194 72.999 C 220.354 73.253,220.369 73.291,220.484 76.328 L 220.600 79.400 222.100 79.524 L 223.600 79.648 223.600 84.424 L 223.600 89.200 148.600 89.200 L 73.600 89.200 73.600 84.425 L 73.600 79.651 74.900 79.525 L 76.200 79.400 76.317 76.300 C 76.417 73.647,76.536 73.200,77.140 73.200 C 78.646 73.200,79.302 72.214,79.555 69.568 C 79.790 67.114,79.850 66.997,80.982 66.802 C 82.326 66.570,82.697 65.715,82.760 62.700 C 82.800 60.814,82.810 60.800,84.157 60.800 C 85.585 60.800,86.000 60.303,86.000 58.594 C 86.000 57.875,86.250 57.623,87.060 57.527 C 88.190 57.392,88.614 56.857,88.984 55.100 C 89.111 54.495,89.454 54.000,89.746 54.000 C 90.760 54.000,91.716 52.411,91.909 50.404 L 92.102 48.400 93.651 48.400 C 94.503 48.400,95.200 48.232,95.200 48.027 C 95.200 47.822,95.571 47.536,96.024 47.392 C 96.478 47.248,97.047 46.696,97.289 46.165 C 97.576 45.534,98.062 45.200,98.691 45.200 C 100.307 45.200,101.200 44.484,101.200 43.186 C 101.200 42.071,101.295 42.000,102.782 42.000 C 104.273 42.000,104.379 41.920,104.626 40.600 C 104.866 39.324,105.010 39.200,106.257 39.200 C 107.088 39.200,107.713 38.971,107.850 38.615 C 107.973 38.294,108.408 37.924,108.816 37.795 C 109.225 37.665,109.667 37.218,109.800 36.801 C 109.983 36.224,110.491 36.013,111.920 35.921 C 113.767 35.802,113.802 35.775,113.921 34.346 L 114.043 32.891 117.975 32.733 C 122.212 32.563,123.200 32.151,123.200 30.551 C 123.200 29.605,123.225 29.600,127.757 29.600 C 132.656 29.600,132.800 29.536,132.800 27.367 L 132.800 26.400 148.400 26.400 C 163.899 26.400,164.000 26.405,164.000 27.226 M226.400 132.742 L 226.400 148.284 225.100 148.657 L 223.800 149.029 223.690 155.115 L 223.579 161.200 222.232 161.200 C 220.517 161.200,220.400 161.532,220.400 166.409 L 220.400 170.352 218.900 170.476 L 217.400 170.600 217.284 173.433 L 217.168 176.267 215.684 176.633 C 214.336 176.966,214.189 177.137,214.076 178.500 C 213.971 179.766,213.807 180.000,213.025 180.000 C 211.696 180.000,211.298 180.681,210.979 183.504 L 210.697 186.000 209.348 186.000 C 208.042 186.000,208.000 186.050,208.000 187.600 L 208.000 189.200 206.400 189.200 C 204.804 189.200,204.800 189.204,204.800 190.776 C 204.800 192.308,204.758 192.355,203.300 192.476 C 201.931 192.589,201.789 192.713,201.675 193.900 C 201.572 194.963,201.378 195.200,200.607 195.200 C 198.897 195.200,198.400 195.615,198.400 197.043 C 198.400 198.319,198.319 198.400,197.043 198.400 C 195.619 198.400,195.200 198.897,195.200 200.586 C 195.200 201.437,195.000 201.520,192.573 201.674 C 189.813 201.850,189.217 202.243,189.206 203.900 C 189.201 204.682,188.991 204.800,187.600 204.800 C 186.003 204.800,186.000 204.803,186.000 206.383 L 186.000 207.966 182.900 208.083 L 179.800 208.200 179.675 209.500 L 179.549 210.800 176.875 210.830 C 171.738 210.887,170.618 211.214,170.475 212.700 L 170.349 214.000 164.807 214.000 C 159.209 214.000,158.000 214.157,158.000 214.886 C 158.000 216.830,156.530 217.186,148.481 217.193 L 140.762 217.200 139.787 216.100 C 139.251 215.495,138.623 214.775,138.390 214.500 C 138.089 214.143,136.325 214.000,132.210 214.000 L 126.451 214.000 126.325 212.700 C 126.182 211.212,125.063 210.886,119.900 210.830 L 117.200 210.800 117.200 209.400 L 117.200 208.000 114.000 208.000 L 110.800 208.000 110.800 206.400 L 110.800 204.800 109.200 204.800 C 107.686 204.800,107.600 204.735,107.600 203.590 C 107.600 202.132,106.530 201.600,103.598 201.600 L 101.648 201.600 101.524 200.100 C 101.407 198.681,101.319 198.593,99.900 198.476 C 98.492 198.359,98.400 198.270,98.400 197.019 C 98.400 195.611,97.896 195.200,96.167 195.200 C 95.328 195.200,95.200 195.014,95.200 193.800 C 95.200 192.433,95.162 192.400,93.600 192.400 L 92.000 192.400 92.000 190.800 C 92.000 189.243,91.963 189.200,90.624 189.200 C 89.323 189.200,89.242 189.119,89.124 187.700 C 89.008 186.295,88.909 186.192,87.566 186.080 L 86.131 185.960 85.766 183.080 C 85.401 180.210,85.395 180.200,84.100 180.075 C 82.880 179.957,82.800 179.854,82.800 178.410 C 82.800 176.925,82.743 176.861,81.200 176.600 L 79.600 176.330 79.600 173.365 L 79.600 170.400 78.013 170.400 L 76.426 170.400 76.313 165.900 L 76.200 161.400 74.900 161.275 L 73.600 161.149 73.596 156.475 C 73.589 149.659,73.406 148.875,71.749 148.564 L 70.400 148.311 70.400 132.755 L 70.400 117.200 148.400 117.200 L 226.400 117.200 226.400 132.742 M98.667 123.867 C 98.153 124.380,98.359 150.599,98.880 151.120 C 99.388 151.628,124.485 151.849,125.767 151.357 C 126.327 151.142,126.400 149.533,126.400 137.357 L 126.400 123.600 112.667 123.600 C 105.113 123.600,98.813 123.720,98.667 123.867 M170.400 137.357 C 170.400 149.533,170.473 151.142,171.033 151.357 C 171.859 151.674,196.941 151.674,197.767 151.357 C 198.327 151.142,198.400 149.533,198.400 137.357 L 198.400 123.600 184.400 123.600 L 170.400 123.600 170.400 137.357 M264.629 130.229 C 263.958 130.899,263.677 192.522,264.328 196.186 C 264.567 197.535,264.803 197.828,265.905 198.144 L 267.200 198.516 267.211 202.958 L 267.222 207.400 268.793 208.369 C 270.284 209.289,270.370 209.452,270.482 211.569 L 270.600 213.800 272.100 213.924 L 273.600 214.048 273.600 216.575 C 273.600 219.268,273.922 219.830,275.600 220.062 C 276.435 220.177,276.620 220.446,276.723 221.686 C 276.834 223.018,276.985 223.198,278.176 223.422 C 279.234 223.620,279.578 223.929,279.866 224.936 C 280.164 225.977,280.472 226.235,281.614 226.400 C 282.776 226.568,283.021 226.781,283.129 227.721 C 283.284 229.074,284.423 229.600,287.202 229.600 L 289.152 229.600 289.276 231.100 L 289.400 232.600 292.400 232.800 L 295.400 233.000 295.522 234.254 C 295.688 235.962,295.988 236.000,309.250 236.000 L 320.400 236.000 320.400 318.000 L 320.400 400.000 334.400 400.000 L 348.400 400.000 348.400 318.032 L 348.400 236.063 360.139 235.932 C 372.724 235.791,373.200 235.711,373.200 233.751 C 373.200 232.854,373.338 232.800,375.626 232.800 C 378.682 232.800,379.600 232.335,379.600 230.786 C 379.600 229.669,379.693 229.600,381.200 229.600 L 382.800 229.600 382.800 228.000 L 382.800 226.400 385.171 226.400 C 387.719 226.400,388.800 225.789,388.800 224.351 C 388.800 223.829,389.212 223.415,390.008 223.137 C 391.560 222.596,392.000 221.732,392.000 219.226 L 392.000 217.200 393.600 217.200 L 395.200 217.200 395.200 215.600 C 395.200 214.173,395.305 214.000,396.171 214.000 C 397.827 214.000,398.400 213.016,398.400 210.171 C 398.400 207.867,398.483 207.600,399.200 207.600 C 399.995 207.600,400.000 207.333,400.000 168.595 L 400.000 129.589 386.900 129.695 L 373.800 129.800 373.698 161.102 L 373.595 192.405 371.998 194.002 C 370.763 195.237,370.400 195.908,370.400 196.955 C 370.400 198.181,370.269 198.336,369.039 198.566 C 367.673 198.823,367.200 199.405,367.200 200.833 C 367.200 201.360,366.918 201.602,366.300 201.606 C 364.997 201.615,364.536 202.034,364.218 203.500 C 363.967 204.661,363.789 204.800,362.556 204.800 C 361.601 204.800,361.099 205.016,360.928 205.500 C 360.134 207.750,359.414 208.000,353.732 208.000 L 348.404 208.000 348.302 168.900 L 348.200 129.800 334.400 129.800 L 320.600 129.800 320.498 168.900 L 320.396 208.000 314.249 208.000 L 308.102 208.000 307.846 206.400 C 307.597 204.838,307.552 204.800,305.964 204.800 C 304.582 204.800,304.113 204.560,302.845 203.200 C 302.025 202.320,301.080 201.600,300.746 201.600 C 299.553 201.600,298.456 199.885,298.325 197.813 C 298.203 195.879,298.160 195.817,296.700 195.473 L 295.200 195.121 295.200 162.603 C 295.200 133.320,295.137 130.061,294.567 129.843 C 292.965 129.228,265.272 129.585,264.629 130.229 M111.866 167.703 C 109.893 169.145,110.729 181.341,112.856 182.144 C 113.970 182.564,114.000 182.652,114.000 185.474 C 114.000 188.560,114.408 189.200,116.374 189.200 C 117.110 189.200,117.200 189.443,117.200 191.426 C 117.200 194.269,117.691 195.200,119.190 195.200 C 120.244 195.200,120.363 195.339,120.476 196.700 C 120.593 198.119,120.681 198.207,122.100 198.324 C 123.507 198.441,123.600 198.530,123.600 199.777 C 123.600 201.228,124.207 201.584,126.700 201.595 C 128.051 201.600,129.600 202.755,129.600 203.757 C 129.600 204.553,130.508 204.800,133.433 204.800 L 136.000 204.800 136.000 205.986 C 136.000 207.897,136.635 208.000,148.274 207.995 C 160.823 207.988,160.800 207.992,160.800 206.153 L 160.800 204.800 163.813 204.800 C 166.321 204.800,166.866 204.683,167.072 204.100 C 167.566 202.699,168.926 201.600,170.170 201.595 C 172.445 201.584,173.109 201.210,173.376 199.788 C 173.592 198.636,173.807 198.431,174.914 198.324 C 176.085 198.211,176.211 198.066,176.324 196.700 C 176.435 195.362,176.567 195.200,177.544 195.200 C 179.192 195.200,179.600 194.509,179.600 191.720 C 179.600 189.321,179.647 189.200,180.567 189.200 C 182.635 189.200,182.800 188.931,182.800 185.557 C 182.800 182.679,182.870 182.400,183.591 182.400 C 185.462 182.400,187.126 169.392,185.467 167.733 C 185.283 167.550,178.564 167.400,170.534 167.400 C 153.330 167.400,154.800 166.910,154.800 172.642 L 154.800 176.332 151.800 176.613 C 149.415 176.836,148.797 177.028,148.787 177.547 C 148.776 178.149,148.736 178.150,148.280 177.550 C 147.949 177.116,146.829 176.804,144.906 176.611 L 142.027 176.322 141.914 172.272 C 141.805 168.405,141.755 168.199,140.800 167.717 C 139.364 166.992,112.856 166.979,111.866 167.703 M89.200 246.557 C 89.200 247.935,89.704 248.400,91.197 248.400 C 91.830 248.400,91.962 248.869,92.183 251.900 C 92.324 253.825,92.475 255.849,92.519 256.398 C 92.582 257.169,92.873 257.443,93.800 257.602 C 94.958 257.800,95.012 257.905,95.337 260.603 C 95.686 263.497,95.992 263.984,97.476 263.994 C 98.198 263.999,98.374 264.263,98.476 265.500 C 98.593 266.919,98.681 267.007,100.100 267.124 C 101.521 267.242,101.600 267.321,101.600 268.637 C 101.600 269.598,101.815 270.101,102.300 270.272 C 103.324 270.634,104.800 272.055,104.800 272.680 C 104.800 272.977,105.205 273.389,105.700 273.596 C 107.096 274.180,108.000 275.024,108.000 275.744 C 108.000 276.227,108.369 276.400,109.400 276.400 C 110.614 276.400,110.800 276.528,110.800 277.367 C 110.800 279.088,111.212 279.600,112.598 279.600 C 113.775 279.600,113.937 279.741,114.166 280.961 C 114.471 282.583,114.927 282.800,118.033 282.800 L 120.400 282.800 120.400 284.153 C 120.400 285.765,120.929 285.986,124.805 285.995 C 127.083 285.999,127.460 286.109,127.805 286.863 C 128.843 289.132,129.445 289.200,148.380 289.200 C 167.455 289.200,168.923 289.043,169.450 286.943 C 169.670 286.068,169.883 286.000,172.411 286.000 C 175.996 286.000,176.400 285.814,176.400 284.157 L 176.400 282.800 179.120 282.800 C 182.119 282.800,182.800 282.419,182.800 280.744 C 182.800 279.767,182.962 279.635,184.300 279.524 C 185.719 279.407,185.807 279.319,185.924 277.900 C 186.045 276.442,186.092 276.400,187.624 276.400 C 188.830 276.400,189.200 276.243,189.200 275.731 C 189.200 274.809,190.370 273.600,191.262 273.600 C 191.687 273.600,192.000 273.314,192.000 272.926 C 192.000 272.008,193.572 270.400,194.470 270.400 C 195.053 270.400,195.200 270.083,195.200 268.824 C 195.200 267.292,195.242 267.245,196.700 267.124 C 198.119 267.007,198.207 266.919,198.324 265.500 C 198.437 264.139,198.556 264.000,199.610 264.000 C 201.107 264.000,201.600 263.069,201.600 260.238 C 201.600 258.079,201.633 258.014,202.887 257.689 C 204.472 257.279,204.707 256.554,204.760 251.925 L 204.800 248.451 206.100 248.325 C 207.233 248.216,207.448 248.007,207.771 246.700 L 208.141 245.200 212.671 245.200 L 217.200 245.200 217.200 273.400 L 217.200 301.600 148.400 301.600 L 79.600 301.600 79.600 273.400 L 79.600 245.200 84.400 245.200 L 89.200 245.200 89.200 246.557 M173.669 246.800 C 173.539 248.162,173.378 248.400,172.591 248.400 C 170.897 248.400,170.400 248.818,170.400 250.243 C 170.400 251.463,170.287 251.600,169.280 251.600 C 167.865 251.600,167.200 252.258,167.200 253.656 C 167.200 254.633,167.038 254.765,165.700 254.876 C 164.281 254.993,164.193 255.081,164.076 256.500 L 163.952 258.000 160.676 258.006 C 157.038 258.012,155.465 258.567,155.272 259.910 C 155.146 260.789,155.061 260.800,148.580 260.800 L 142.015 260.800 141.757 259.771 C 141.410 258.388,140.192 258.000,136.198 258.000 L 132.848 258.000 132.724 256.500 C 132.607 255.081,132.519 254.993,131.100 254.876 C 129.692 254.759,129.600 254.670,129.600 253.419 C 129.600 252.011,129.096 251.600,127.367 251.600 C 126.534 251.600,126.400 251.412,126.400 250.243 C 126.400 248.856,125.897 248.400,124.367 248.400 C 123.794 248.400,123.600 248.117,123.600 247.280 C 123.600 246.664,123.384 245.944,123.120 245.680 C 122.747 245.307,128.327 245.200,148.231 245.200 L 173.821 245.200 173.669 246.800 M48.400 312.400 L 48.400 373.600 37.400 373.600 L 26.400 373.600 26.400 324.850 L 26.400 276.100 27.577 275.865 C 29.027 275.575,29.594 273.900,29.598 269.900 C 29.600 267.312,29.640 267.200,30.567 267.200 C 32.404 267.200,32.800 266.814,32.800 265.021 C 32.800 263.620,32.966 263.253,33.765 262.889 C 34.296 262.647,34.848 262.078,34.992 261.624 C 35.136 261.171,35.422 260.800,35.627 260.800 C 35.832 260.800,36.000 260.181,36.000 259.424 C 36.000 258.123,36.081 258.042,37.500 257.924 C 38.919 257.807,39.007 257.719,39.124 256.300 C 39.236 254.951,39.362 254.800,40.375 254.800 C 42.227 254.800,44.358 253.708,44.631 252.619 C 44.833 251.815,45.170 251.616,46.538 251.491 C 47.452 251.408,48.245 251.308,48.300 251.270 C 48.355 251.231,48.400 278.740,48.400 312.400 M252.420 252.653 C 252.622 253.185,253.106 253.719,253.494 253.839 C 253.882 253.960,254.513 254.225,254.895 254.429 C 255.277 254.633,256.121 254.800,256.770 254.800 C 257.847 254.800,257.963 254.933,258.076 256.300 C 258.189 257.669,258.313 257.811,259.500 257.925 C 260.647 258.036,260.800 258.191,260.800 259.238 C 260.800 260.008,261.046 260.512,261.500 260.672 C 263.171 261.262,264.000 262.495,264.000 264.390 C 264.000 266.520,264.503 267.200,266.080 267.200 C 267.199 267.200,267.200 267.201,267.200 269.986 C 267.200 273.238,268.080 275.505,269.480 275.856 L 270.400 276.087 270.400 324.843 L 270.400 373.600 259.400 373.600 L 248.400 373.600 248.400 312.497 L 248.400 251.394 250.226 251.539 C 251.721 251.658,252.119 251.860,252.420 252.653 M217.200 351.600 L 217.200 373.600 148.400 373.600 L 79.600 373.600 79.600 351.600 L 79.600 329.600 148.400 329.600 L 217.200 329.600 217.200 351.600 " stroke="none" fill="#040404" fill-rule="evenodd"></path><path id="path1" d="" stroke="none" fill="#080404" fill-rule="evenodd"></path></g></svg>