<svg id="svg" xmlns="http://www.w3.org/2000/svg" xmlns:xlink="http://www.w3.org/1999/xlink" width="400" height="400" viewBox="0, 0, 400,400" version="1.1"><g id="svgg"><path id="path0" d="M180.469 61.439 C 109.370 70.141,47.284 114.056,5.010 185.547 C -3.292 199.587,-2.264 203.913,15.687 230.469 C 83.017 330.077,192.868 365.090,288.115 317.302 C 330.418 296.078,367.553 260.071,394.990 213.672 C 403.209 199.772,402.242 195.476,385.140 169.919 C 346.357 111.958,291.782 73.958,231.931 63.238 C 222.581 61.563,189.033 60.390,180.469 61.439 M221.484 94.200 C 273.226 101.295,322.317 135.004,358.570 188.332 C 367.075 200.843,367.075 198.376,358.570 210.887 C 272.062 338.141,127.938 338.141,41.430 210.887 C 32.925 198.376,32.925 200.843,41.430 188.332 C 88.034 119.777,154.520 85.019,221.484 94.200 M190.670 122.751 C 126.532 130.183,99.604 210.352,146.204 255.135 C 195.744 302.743,276.931 268.259,276.931 199.609 C 276.931 152.432,237.526 117.322,190.670 122.751 M214.026 156.686 C 244.891 166.490,255.368 205.581,233.632 229.834 C 212.185 253.764,173.309 248.165,159.388 219.141 C 142.121 183.138,175.866 144.565,214.026 156.686 " stroke="none" fill="#000000" fill-rule="evenodd"></path></g></svg>