<svg id="svg" xmlns="http://www.w3.org/2000/svg" xmlns:xlink="http://www.w3.org/1999/xlink" width="400" height="400" viewBox="0, 0, 400,400"><g id="svgg"><path id="path0" d="M350.781 41.145 C 350.137 41.381,308.958 82.188,259.272 131.826 L 168.935 222.078 166.961 218.656 C 152.434 193.477,173.606 159.003,201.745 162.017 C 216.339 163.581,215.312 163.594,217.088 161.818 C 224.200 154.706,214.753 148.688,197.656 149.440 C 158.324 151.172,135.825 195.349,157.553 228.183 L 159.652 231.355 150.632 240.375 L 141.612 249.396 138.085 244.424 C 94.329 182.735,159.241 100.128,228.468 129.403 C 240.393 134.446,246.241 132.700,244.232 124.695 C 242.242 116.765,208.634 108.909,188.669 111.706 C 121.323 121.143,87.834 199.523,128.366 252.844 L 132.606 258.423 116.499 274.501 L 100.391 290.580 93.750 286.835 C 62.827 269.394,36.908 244.761,18.737 215.548 C 10.276 201.944,10.287 198.109,18.825 184.318 C 67.692 105.382,168.024 67.639,259.492 93.784 C 272.147 97.400,276.094 96.543,276.094 90.178 C 276.094 86.175,273.994 84.650,264.814 81.992 C 177.220 56.620,83.124 84.709,25.212 153.516 C 2.454 180.555,-4.533 198.958,2.512 213.304 C 16.854 242.507,49.662 275.866,83.971 296.130 L 90.827 300.180 65.960 325.055 C 38.658 352.367,38.365 352.775,42.795 357.205 C 47.603 362.013,40.699 368.283,140.570 268.414 L 231.065 177.922 233.039 181.344 C 247.566 206.523,226.394 240.997,198.255 237.983 C 183.661 236.419,184.688 236.406,182.912 238.182 C 175.800 245.294,185.247 251.312,202.344 250.560 C 241.676 248.828,264.175 204.651,242.447 171.817 L 240.348 168.645 249.368 159.625 L 258.388 150.604 261.915 155.576 C 306.097 217.867,241.861 298.780,170.845 270.288 C 161.829 266.671,159.983 266.509,157.386 269.105 C 152.888 273.604,155.489 277.924,165.107 281.928 C 218.745 304.257,278.593 271.158,287.856 214.041 C 291.976 188.638,285.997 166.688,268.365 142.476 C 267.773 141.663,271.381 137.614,283.560 125.424 L 299.532 109.438 305.430 112.688 C 336.062 129.566,363.043 155.095,381.215 184.395 C 390.860 199.946,389.921 204.823,372.792 228.125 C 318.626 301.813,223.297 331.914,132.610 303.967 C 124.666 301.519,123.419 301.538,120.508 304.159 C 115.991 308.224,118.994 312.997,127.887 315.888 C 217.065 344.884,315.353 317.272,374.762 246.532 C 397.580 219.363,404.536 201.047,397.488 186.696 C 383.146 157.493,350.338 124.134,316.029 103.870 L 309.173 99.820 334.040 74.945 C 357.376 51.600,358.906 49.898,358.906 47.283 C 358.906 43.087,354.522 39.775,350.781 41.145 " stroke="none" fill="#000000" fill-rule="evenodd"></path></g></svg>