<svg id="svg" version="1.1" xmlns="http://www.w3.org/2000/svg" xmlns:xlink="http://www.w3.org/1999/xlink" width="400" height="400" viewBox="0, 0, 400,400"><g id="svgg"><path id="path0" d="M157.461 2.700 C 157.320 4.185,157.204 8.116,157.203 11.436 C 157.200 17.350,157.181 17.480,156.277 17.892 C 154.862 18.537,154.465 21.818,154.162 35.400 C 153.872 48.342,153.897 48.212,151.618 48.597 C 150.645 48.761,149.699 49.286,149.038 50.028 C 148.274 50.885,147.632 51.200,146.647 51.200 C 143.940 51.200,142.740 51.654,142.328 52.833 C 141.982 53.828,141.692 53.978,139.670 54.211 C 136.428 54.583,134.758 55.204,133.505 56.503 C 132.165 57.893,127.790 58.028,127.142 56.700 C 126.954 56.315,126.647 55.685,126.460 55.300 C 126.272 54.915,125.642 54.543,125.060 54.473 C 124.367 54.391,124.000 54.105,124.000 53.649 C 124.000 52.681,122.533 51.200,121.576 51.200 C 121.095 51.200,120.593 50.768,120.300 50.100 C 119.693 48.720,119.269 48.414,117.950 48.406 C 117.111 48.401,116.853 48.165,116.666 47.228 C 116.460 46.200,116.138 45.970,114.025 45.343 C 112.039 44.753,111.549 44.431,111.225 43.499 C 110.985 42.811,110.389 42.215,109.699 41.975 C 109.006 41.733,108.393 41.118,108.117 40.387 C 107.791 39.521,107.324 39.125,106.417 38.943 C 105.499 38.760,105.022 38.348,104.625 37.399 C 104.202 36.385,103.772 36.046,102.642 35.834 C 101.588 35.637,101.200 35.360,101.200 34.805 C 101.200 34.388,100.975 33.903,100.700 33.727 C 99.940 33.240,97.480 32.413,96.772 32.406 C 96.427 32.403,95.887 31.819,95.572 31.108 C 95.176 30.213,94.601 29.704,93.700 29.450 C 92.731 29.177,92.400 28.857,92.400 28.191 C 92.400 26.758,91.464 26.325,88.425 26.353 C 83.910 26.396,82.819 26.843,82.806 28.655 C 82.801 29.313,82.479 29.571,81.415 29.771 C 80.225 29.994,79.994 30.225,79.771 31.415 C 79.571 32.479,79.313 32.801,78.655 32.806 C 77.493 32.814,77.061 33.189,76.586 34.598 C 76.288 35.482,75.871 35.849,74.991 36.000 C 74.096 36.154,73.766 36.453,73.662 37.203 C 73.472 38.568,72.933 39.130,71.673 39.276 C 70.845 39.372,70.558 39.663,70.402 40.565 C 70.247 41.459,69.879 41.837,68.818 42.194 C 67.769 42.547,67.356 42.965,67.108 43.925 C 66.870 44.841,66.479 45.263,65.690 45.457 C 64.418 45.768,64.015 46.257,64.006 47.500 C 64.002 48.163,63.763 48.402,63.100 48.406 C 61.834 48.415,61.306 48.840,60.988 50.104 C 60.792 50.887,60.363 51.290,59.486 51.518 C 58.567 51.756,58.143 52.182,57.794 53.218 C 57.438 54.277,57.058 54.648,56.168 54.803 C 55.266 54.961,54.961 55.266,54.803 56.168 C 54.648 57.058,54.277 57.438,53.218 57.794 C 52.182 58.143,51.756 58.567,51.518 59.486 C 51.290 60.363,50.887 60.792,50.104 60.988 C 48.840 61.306,48.415 61.834,48.406 63.100 C 48.402 63.763,48.163 64.002,47.500 64.006 C 46.257 64.015,45.768 64.418,45.457 65.690 C 45.262 66.484,44.841 66.870,43.903 67.113 C 42.923 67.367,42.529 67.751,42.249 68.727 C 41.973 69.690,41.574 70.087,40.641 70.327 C 39.703 70.568,39.370 70.902,39.276 71.694 C 39.130 72.928,38.563 73.472,37.224 73.662 C 36.515 73.762,36.158 74.145,35.923 75.057 C 35.690 75.964,35.295 76.390,34.504 76.588 C 33.252 76.903,32.815 77.435,32.806 78.655 C 32.801 79.311,32.480 79.571,31.430 79.768 C 28.477 80.322,28.348 91.066,31.282 92.089 C 32.003 92.340,32.495 92.859,32.658 93.540 C 33.016 95.042,33.555 95.600,34.649 95.600 C 35.430 95.600,35.600 95.806,35.600 96.751 C 35.600 98.047,36.099 98.570,37.700 98.952 C 38.365 99.111,38.800 99.484,38.800 99.894 C 38.800 101.451,40.093 103.937,41.024 104.170 C 41.717 104.344,42.036 104.785,42.235 105.846 C 42.446 106.972,42.786 107.402,43.799 107.825 C 44.740 108.218,45.160 108.701,45.338 109.591 C 45.528 110.540,45.845 110.869,46.745 111.049 C 47.618 111.224,47.998 111.595,48.268 112.541 C 48.489 113.311,49.060 114.007,49.740 114.334 C 50.351 114.628,50.943 115.168,51.055 115.534 C 51.167 115.900,51.425 116.513,51.629 116.895 C 51.833 117.277,52.000 117.870,52.000 118.213 C 52.000 118.556,52.545 119.144,53.211 119.519 C 53.877 119.893,54.522 120.650,54.645 121.200 C 55.047 123.010,55.135 123.122,56.373 123.394 C 57.318 123.602,57.600 123.880,57.600 124.603 C 57.600 125.120,57.858 125.801,58.174 126.117 C 58.490 126.433,58.599 126.851,58.415 127.046 C 58.232 127.241,57.903 128.776,57.684 130.457 C 57.425 132.451,57.028 133.790,56.543 134.309 C 55.008 135.953,54.400 136.993,54.396 137.981 C 54.384 140.582,53.915 141.935,52.939 142.180 C 51.864 142.449,51.203 143.794,51.195 145.726 C 51.186 147.789,50.780 148.746,49.859 148.878 C 49.321 148.954,48.952 149.337,48.872 149.900 C 48.748 150.778,48.619 150.801,43.672 150.826 C 28.237 150.904,21.600 151.750,21.600 153.640 C 21.600 153.838,19.305 154.001,16.500 154.001 C 13.695 154.002,8.834 154.120,5.698 154.264 L -0.003 154.525 0.098 198.562 L 0.200 242.600 10.294 242.707 L 20.388 242.814 20.638 243.810 C 20.795 244.433,21.247 244.881,21.844 245.003 C 22.370 245.112,23.295 245.317,23.900 245.459 C 24.505 245.602,30.193 245.827,36.541 245.959 L 48.082 246.200 48.669 248.000 C 48.991 248.990,49.619 250.112,50.064 250.494 C 50.653 250.998,50.972 251.980,51.236 254.094 C 51.588 256.917,52.195 258.000,53.424 258.000 C 53.900 258.000,54.387 260.063,54.396 262.108 C 54.400 263.315,56.043 266.215,56.880 266.493 C 58.119 266.905,57.546 272.897,56.234 273.251 C 54.927 273.604,54.415 274.211,54.406 275.417 C 54.402 275.992,54.014 276.348,53.100 276.617 C 52.110 276.909,51.693 277.334,51.350 278.400 C 51.012 279.452,50.647 279.831,49.881 279.924 C 49.032 280.027,48.817 280.318,48.588 281.672 C 48.397 282.804,48.078 283.359,47.537 283.501 C 46.754 283.705,44.800 287.051,44.800 288.187 C 44.800 288.566,44.437 288.800,43.849 288.800 C 42.754 288.800,42.216 289.358,41.856 290.868 C 41.674 291.630,41.266 292.010,40.434 292.192 C 39.498 292.398,39.200 292.739,38.921 293.924 C 38.652 295.067,38.350 295.432,37.587 295.540 C 36.409 295.708,36.014 296.236,36.006 297.657 C 36.002 298.453,35.749 298.776,34.980 298.969 C 33.933 299.232,32.400 302.002,32.400 303.633 C 32.400 304.174,32.120 304.400,31.449 304.400 C 30.348 304.400,29.816 304.958,29.448 306.500 C 29.275 307.224,28.924 307.600,28.421 307.600 C 26.896 307.600,26.400 308.666,26.405 311.929 C 26.413 316.051,26.630 316.687,28.229 317.265 C 29.170 317.605,29.639 318.069,29.805 318.823 C 29.974 319.591,30.398 319.998,31.297 320.256 C 32.227 320.523,32.635 320.933,32.869 321.833 C 33.084 322.663,33.595 323.231,34.481 323.624 C 35.277 323.978,35.864 324.578,36.002 325.178 C 36.158 325.858,36.614 326.257,37.504 326.487 C 38.489 326.742,38.858 327.112,39.114 328.101 C 39.363 329.063,39.755 329.472,40.678 329.737 C 41.576 329.994,42.007 330.427,42.267 331.333 C 42.530 332.251,42.956 332.672,43.891 332.940 C 44.822 333.207,45.225 333.603,45.407 334.430 C 45.587 335.251,46.013 335.674,46.980 335.993 C 47.948 336.313,48.366 336.728,48.526 337.532 C 48.677 338.283,49.164 338.818,50.062 339.216 C 50.882 339.580,51.463 340.173,51.605 340.789 C 51.761 341.472,52.231 341.894,53.119 342.148 C 54.087 342.426,54.487 342.825,54.727 343.751 C 54.963 344.661,55.369 345.076,56.278 345.337 C 57.176 345.594,57.607 346.027,57.867 346.933 C 58.130 347.851,58.556 348.272,59.491 348.540 C 60.422 348.807,60.825 349.203,61.007 350.030 C 61.187 350.851,61.613 351.274,62.580 351.593 C 63.548 351.913,63.966 352.328,64.126 353.132 C 64.277 353.883,64.764 354.418,65.662 354.816 C 66.456 355.168,67.064 355.775,67.194 356.345 C 67.324 356.912,67.962 357.552,68.789 357.945 C 69.640 358.349,70.256 358.979,70.399 359.589 C 70.559 360.270,71.034 360.694,71.919 360.948 C 72.887 361.226,73.287 361.625,73.527 362.551 C 73.765 363.468,74.168 363.876,75.103 364.144 C 76.025 364.408,76.426 364.806,76.608 365.636 C 76.788 366.457,77.230 366.904,78.213 367.259 C 79.183 367.610,79.638 368.064,79.812 368.853 C 80.466 371.832,91.549 371.765,92.205 368.778 C 92.398 367.897,92.692 367.600,93.370 367.600 C 94.379 367.600,95.600 366.465,95.600 365.526 C 95.600 365.179,96.161 364.758,96.900 364.550 C 97.775 364.303,98.376 363.787,98.738 362.971 C 99.160 362.020,99.766 361.589,101.538 360.979 C 103.014 360.471,103.934 359.895,104.185 359.322 C 104.397 358.839,105.026 358.330,105.583 358.190 C 106.885 357.863,107.597 357.260,108.032 356.116 C 108.223 355.612,108.717 355.200,109.128 355.200 C 110.012 355.200,111.058 354.124,111.264 353.003 C 111.360 352.480,111.820 352.136,112.605 352.003 C 113.473 351.856,113.956 351.445,114.372 350.500 C 114.687 349.785,115.199 349.200,115.510 349.200 C 115.822 349.200,116.644 348.904,117.338 348.543 C 118.032 348.182,118.870 347.759,119.200 347.602 C 119.530 347.446,119.855 346.950,119.923 346.499 C 120.010 345.917,120.451 345.604,121.453 345.416 C 122.568 345.207,122.980 344.866,123.436 343.776 C 123.853 342.777,124.261 342.400,124.925 342.400 C 125.428 342.400,126.011 342.232,126.220 342.026 C 126.456 341.793,127.584 341.864,129.200 342.212 C 130.630 342.520,132.205 342.778,132.700 342.786 C 133.195 342.794,133.947 343.115,134.371 343.500 C 135.987 344.966,136.475 345.277,137.716 345.633 C 138.419 345.835,139.671 346.000,140.497 346.000 C 141.566 346.000,142.000 346.173,142.000 346.600 C 142.000 347.863,143.480 348.723,146.142 349.009 C 148.402 349.251,148.772 349.404,148.878 350.144 C 148.954 350.679,149.338 351.048,149.900 351.128 C 150.773 351.252,150.801 351.395,150.823 355.928 C 150.894 370.517,151.581 376.400,153.214 376.400 C 153.955 376.400,154.000 376.697,154.000 381.536 C 154.000 384.361,154.118 389.671,154.263 393.336 L 154.526 400.000 198.663 400.000 L 242.800 400.000 242.800 389.800 C 242.800 380.088,242.836 379.600,243.551 379.600 C 245.434 379.600,245.983 375.534,245.993 361.500 C 245.999 352.863,246.061 352.000,246.674 352.000 C 247.738 352.000,250.800 350.382,250.800 349.820 C 250.800 349.486,251.716 349.217,253.458 349.038 C 256.552 348.721,257.506 348.299,257.987 347.034 C 258.284 346.254,258.705 346.083,260.814 345.892 C 262.177 345.769,263.488 345.472,263.726 345.234 C 263.965 344.995,264.480 344.800,264.871 344.800 C 265.262 344.800,265.861 344.373,266.204 343.851 C 267.440 341.964,272.957 342.086,273.342 344.009 C 273.510 344.849,273.917 345.243,274.983 345.594 C 275.762 345.852,276.400 346.318,276.400 346.631 C 276.400 347.531,277.906 348.800,278.973 348.800 C 279.730 348.800,279.975 349.038,280.073 349.869 C 280.175 350.723,280.531 351.048,281.844 351.484 C 282.749 351.784,284.189 352.740,285.044 353.608 C 286.099 354.678,286.954 355.189,287.700 355.193 C 288.585 355.199,288.800 355.383,288.800 356.138 C 288.800 357.262,289.948 358.400,291.081 358.400 C 291.669 358.400,291.967 358.735,292.138 359.589 C 292.315 360.477,292.658 360.841,293.488 361.023 C 295.460 361.455,295.600 361.559,295.600 362.582 C 295.600 363.438,295.864 363.655,297.363 364.032 C 298.525 364.325,299.195 364.736,299.325 365.236 C 299.435 365.654,299.856 366.114,300.262 366.259 C 300.668 366.403,301.270 366.748,301.600 367.024 C 301.930 367.301,302.648 367.588,303.196 367.664 C 303.814 367.748,304.247 368.104,304.337 368.600 C 304.556 369.804,305.609 370.800,306.662 370.800 C 307.333 370.800,307.600 371.027,307.600 371.600 C 307.600 374.731,316.155 375.093,317.318 372.011 C 317.565 371.357,318.249 370.628,318.848 370.380 C 319.444 370.133,320.133 369.444,320.380 368.848 C 320.630 368.244,321.358 367.565,322.024 367.313 C 322.764 367.034,323.373 366.424,323.620 365.715 C 323.867 365.007,324.476 364.396,325.213 364.117 C 326.060 363.798,326.476 363.321,326.645 362.475 C 326.829 361.553,327.153 361.229,328.075 361.045 C 328.921 360.876,329.398 360.460,329.717 359.613 C 329.996 358.876,330.607 358.267,331.315 358.020 C 332.024 357.773,332.634 357.164,332.913 356.424 C 333.165 355.758,333.844 355.030,334.448 354.780 C 335.044 354.533,335.742 353.822,336.000 353.200 C 336.258 352.578,336.978 351.858,337.600 351.600 C 338.222 351.342,338.933 350.644,339.180 350.048 C 339.429 349.446,340.157 348.765,340.818 348.516 C 341.650 348.202,342.076 347.719,342.239 346.906 C 342.412 346.038,342.789 345.652,343.735 345.373 C 344.665 345.099,345.099 344.665,345.373 343.735 C 345.652 342.789,346.038 342.412,346.906 342.239 C 347.719 342.076,348.202 341.650,348.516 340.818 C 348.765 340.157,349.446 339.429,350.048 339.180 C 350.644 338.933,351.342 338.222,351.600 337.600 C 351.858 336.978,352.578 336.258,353.200 336.000 C 353.822 335.742,354.533 335.044,354.780 334.448 C 355.030 333.844,355.758 333.165,356.424 332.913 C 357.164 332.634,357.773 332.024,358.020 331.315 C 358.267 330.607,358.876 329.996,359.613 329.717 C 360.460 329.398,360.876 328.921,361.045 328.075 C 361.229 327.153,361.553 326.829,362.475 326.645 C 363.321 326.476,363.798 326.060,364.117 325.213 C 364.396 324.476,365.007 323.867,365.715 323.620 C 366.424 323.373,367.034 322.764,367.313 322.024 C 367.565 321.358,368.244 320.630,368.848 320.380 C 371.898 319.117,371.808 308.342,368.743 307.729 C 367.898 307.560,367.600 307.269,367.600 306.612 C 367.600 305.618,366.458 304.400,365.526 304.400 C 365.185 304.400,364.757 303.846,364.555 303.142 C 364.207 301.930,363.730 301.478,362.362 301.065 C 361.998 300.955,361.513 300.043,361.232 298.936 C 360.568 296.321,360.266 295.822,359.259 295.672 C 358.787 295.602,358.400 295.295,358.400 294.991 C 358.400 293.735,357.442 292.429,356.345 292.188 C 355.496 292.001,355.200 291.702,355.200 291.030 C 355.200 290.005,354.191 288.954,353.000 288.737 C 352.505 288.647,352.147 288.213,352.062 287.596 C 351.871 286.224,351.274 285.600,350.151 285.600 C 349.512 285.600,349.200 285.370,349.200 284.900 C 349.199 283.050,347.689 280.200,346.643 280.073 C 345.909 279.984,345.600 279.710,345.600 279.147 C 345.600 277.855,344.901 276.914,343.608 276.463 C 342.726 276.155,342.400 275.788,342.400 275.101 C 342.400 274.583,342.213 273.973,341.985 273.745 C 341.708 273.468,341.700 272.990,341.961 272.302 C 342.176 271.737,342.476 270.178,342.628 268.837 C 342.779 267.497,343.058 266.400,343.247 266.400 C 344.071 266.400,345.695 262.989,345.895 260.839 C 346.077 258.876,346.256 258.501,347.351 257.794 C 348.463 257.076,348.644 256.681,349.004 254.199 C 349.318 252.025,349.566 251.379,350.126 251.271 C 350.522 251.195,351.001 250.723,351.191 250.223 C 351.536 249.317,351.581 249.312,362.069 249.080 C 373.612 248.823,375.863 248.485,376.248 246.950 L 376.487 246.000 386.143 245.997 C 391.455 245.995,396.745 245.880,397.900 245.741 L 400.000 245.489 400.000 201.604 L 400.000 157.719 396.700 157.462 C 394.885 157.320,390.764 157.204,387.543 157.202 C 382.913 157.201,381.641 157.083,381.472 156.644 C 380.765 154.801,374.534 154.084,358.687 154.024 C 353.037 154.003,352.352 153.927,352.158 153.300 C 352.039 152.915,351.775 152.287,351.571 151.905 C 351.367 151.523,351.200 150.951,351.200 150.634 C 351.200 150.317,350.772 149.721,350.249 149.310 C 349.505 148.725,349.233 148.009,349.004 146.036 C 348.711 143.510,347.832 142.000,346.655 142.000 C 346.271 142.000,346.047 141.219,345.898 139.363 C 345.781 137.913,345.487 136.527,345.243 136.283 C 344.999 136.039,344.800 135.520,344.800 135.129 C 344.800 134.738,344.372 134.138,343.850 133.796 C 342.102 132.651,342.086 127.180,343.829 126.857 C 344.912 126.656,345.600 126.020,345.600 125.218 C 345.600 124.842,346.273 124.098,347.096 123.566 C 348.112 122.908,348.658 122.218,348.797 121.417 C 348.941 120.587,349.287 120.168,349.961 120.009 C 350.719 119.830,351.079 119.280,351.673 117.391 C 352.291 115.424,352.653 114.894,353.712 114.400 C 354.625 113.975,355.058 113.458,355.200 112.625 C 355.357 111.702,355.681 111.378,356.713 111.111 C 357.730 110.847,358.079 110.506,358.261 109.597 C 358.392 108.942,358.827 108.318,359.245 108.186 C 360.406 107.817,361.200 106.839,361.200 105.779 C 361.200 105.060,361.479 104.747,362.300 104.546 C 363.594 104.229,363.986 103.745,363.994 102.452 C 363.998 101.856,364.668 100.864,365.800 99.779 C 366.990 98.639,367.600 97.717,367.600 97.058 C 367.600 96.279,367.898 95.964,368.965 95.612 C 370.348 95.155,370.800 94.553,370.800 93.167 C 370.800 92.620,371.081 92.400,371.777 92.400 C 374.775 92.400,374.955 83.232,371.964 82.881 C 371.213 82.792,370.814 82.395,370.441 81.364 C 370.073 80.346,369.640 79.908,368.841 79.748 C 368.042 79.588,367.645 79.187,367.373 78.265 C 367.101 77.344,366.664 76.901,365.765 76.635 C 364.878 76.374,364.426 75.925,364.165 75.045 C 363.897 74.145,363.459 73.723,362.520 73.457 C 361.555 73.185,361.177 72.805,360.981 71.913 C 360.802 71.097,360.374 70.610,359.598 70.340 C 358.938 70.109,358.272 69.457,357.982 68.756 C 357.687 68.045,356.967 67.346,356.198 67.025 C 355.367 66.678,354.814 66.111,354.644 65.431 C 354.454 64.677,354.044 64.309,353.205 64.141 C 352.323 63.965,351.922 63.577,351.593 62.580 C 351.278 61.624,350.849 61.186,350.056 61.012 C 349.257 60.837,348.854 60.420,348.579 59.485 C 348.299 58.534,347.871 58.103,346.937 57.828 C 346.024 57.558,345.579 57.122,345.329 56.251 C 345.075 55.367,344.653 54.961,343.742 54.725 C 342.785 54.477,342.445 54.124,342.257 53.183 C 342.080 52.302,341.688 51.850,340.844 51.555 C 340.138 51.309,339.480 50.675,339.180 49.953 C 338.845 49.144,338.321 48.684,337.558 48.532 C 336.726 48.365,336.316 47.959,335.993 46.980 C 335.678 46.024,335.249 45.586,334.456 45.412 C 333.657 45.237,333.254 44.820,332.979 43.885 C 332.699 42.934,332.271 42.503,331.337 42.228 C 330.424 41.958,329.979 41.522,329.729 40.651 C 329.474 39.762,329.053 39.361,328.123 39.120 C 327.151 38.868,326.800 38.511,326.592 37.562 C 326.404 36.706,325.988 36.215,325.227 35.950 C 324.582 35.724,323.862 35.001,323.473 34.184 C 322.987 33.164,322.556 32.800,321.837 32.800 C 321.081 32.800,320.760 32.492,320.408 31.424 C 319.838 29.698,317.042 28.955,312.600 29.349 C 308.624 29.701,308.083 29.910,307.799 31.203 C 307.627 31.987,307.229 32.406,306.479 32.595 C 304.987 32.969,304.400 33.542,304.400 34.624 C 304.400 35.369,304.154 35.574,303.140 35.675 C 302.432 35.745,301.732 36.106,301.540 36.500 C 301.353 36.885,301.048 37.515,300.861 37.900 C 300.658 38.320,299.739 38.760,298.561 39.000 C 296.078 39.506,295.600 39.825,295.600 40.972 C 295.600 41.737,295.332 41.941,294.059 42.144 C 292.754 42.353,292.462 42.587,292.151 43.672 C 291.869 44.654,291.478 45.033,290.479 45.292 C 289.470 45.553,289.121 45.896,288.939 46.806 C 288.748 47.760,288.445 48.030,287.332 48.239 C 286.226 48.447,285.916 48.720,285.729 49.653 C 285.563 50.487,285.205 50.875,284.449 51.040 C 281.183 51.756,280.200 52.263,280.077 53.297 C 279.979 54.120,279.654 54.402,278.488 54.678 C 277.317 54.955,276.951 55.276,276.665 56.274 C 276.171 57.994,274.722 58.314,269.859 57.779 C 267.852 57.557,266.888 57.245,266.259 56.610 C 264.768 55.106,263.472 54.532,261.006 54.281 C 259.649 54.144,258.541 53.824,258.447 53.542 C 258.017 52.252,256.399 51.200,254.844 51.200 C 252.794 51.200,251.200 50.587,251.200 49.800 C 251.200 49.459,250.774 49.018,250.253 48.820 L 249.305 48.460 249.099 38.530 C 248.870 27.506,248.435 24.581,246.921 23.891 L 246.000 23.472 245.997 14.436 C 245.996 9.466,245.880 4.185,245.739 2.700 L 245.484 0.000 201.600 0.000 L 157.716 0.000 157.461 2.700 M216.424 31.900 C 216.437 34.485,216.590 39.732,216.763 43.560 L 217.078 50.521 218.297 51.560 L 219.515 52.600 219.728 62.536 C 219.960 73.375,220.059 73.813,222.342 74.077 C 223.096 74.165,223.438 74.465,223.531 75.122 C 223.706 76.362,224.974 76.780,229.445 77.074 C 232.822 77.296,233.171 77.394,233.280 78.158 C 233.424 79.170,237.021 80.317,240.205 80.368 C 241.840 80.394,242.283 80.557,242.605 81.249 C 243.091 82.295,245.397 83.133,248.700 83.465 C 250.373 83.633,251.200 83.890,251.200 84.242 C 251.200 85.237,252.907 86.400,254.375 86.405 C 256.454 86.413,257.600 86.808,257.600 87.515 C 257.600 88.508,258.834 89.600,259.962 89.604 C 262.450 89.615,263.956 90.092,264.079 90.908 C 264.210 91.787,264.842 92.237,266.400 92.559 C 266.950 92.673,267.580 93.161,267.800 93.642 C 269.248 96.811,281.375 96.853,282.772 93.694 C 283.141 92.860,283.628 92.400,284.141 92.400 C 285.173 92.400,286.400 91.280,286.400 90.338 C 286.400 89.830,286.693 89.600,287.338 89.600 C 288.390 89.600,289.443 88.605,289.664 87.403 C 289.747 86.947,290.235 86.509,290.805 86.378 C 293.027 85.868,294.413 85.088,294.630 84.224 C 294.786 83.600,295.302 83.217,296.327 82.964 C 297.430 82.691,297.941 82.279,298.363 81.320 C 298.756 80.428,299.240 80.004,299.963 79.920 C 300.684 79.837,301.183 79.403,301.600 78.497 C 301.994 77.642,302.601 77.086,303.367 76.880 C 304.507 76.574,304.919 76.122,305.359 74.700 C 305.486 74.287,305.970 74.000,306.538 74.000 C 307.068 74.000,307.726 73.730,308.000 73.400 C 308.274 73.070,308.750 72.800,309.058 72.800 C 309.365 72.800,309.822 72.350,310.073 71.800 C 310.794 70.217,313.805 70.323,314.129 71.943 C 314.284 72.721,314.738 73.243,315.553 73.580 C 316.275 73.880,316.909 74.538,317.155 75.244 C 317.444 76.073,317.904 76.481,318.735 76.647 C 319.620 76.824,319.995 77.190,320.263 78.141 C 320.522 79.059,320.951 79.499,321.845 79.765 C 322.725 80.026,323.174 80.478,323.435 81.365 C 323.698 82.255,324.145 82.702,325.035 82.965 C 325.926 83.227,326.373 83.674,326.635 84.565 C 326.901 85.464,327.344 85.901,328.265 86.173 C 329.211 86.452,329.588 86.838,329.761 87.706 C 329.922 88.509,330.350 89.002,331.148 89.303 L 332.304 89.739 330.975 91.106 C 330.245 91.859,329.530 93.010,329.386 93.664 C 329.242 94.319,328.827 94.945,328.462 95.056 C 327.070 95.480,326.623 95.906,326.312 97.107 C 326.065 98.063,325.739 98.377,324.895 98.474 C 324.011 98.576,323.732 98.876,323.446 100.032 C 323.168 101.158,322.825 101.544,321.846 101.832 C 320.824 102.134,320.577 102.435,320.474 103.508 C 320.393 104.353,320.010 105.037,319.394 105.441 C 318.270 106.177,316.800 108.530,316.800 109.592 C 316.800 110.086,316.340 110.490,315.441 110.786 C 314.339 111.150,314.034 111.496,313.823 112.617 C 313.612 113.742,313.383 114.000,312.596 114.000 C 311.562 114.000,310.800 115.007,310.800 116.374 C 310.800 116.962,310.541 117.202,309.900 117.206 C 308.562 117.215,308.145 117.639,307.840 119.300 C 307.684 120.145,307.331 120.800,307.031 120.800 C 305.266 120.800,303.279 128.460,304.800 129.400 C 305.020 129.536,305.200 130.005,305.200 130.442 C 305.200 130.907,305.698 131.520,306.397 131.919 C 307.297 132.431,307.596 132.891,307.597 133.769 C 307.600 135.100,308.595 136.400,309.610 136.400 C 310.155 136.400,310.355 136.914,310.579 138.896 C 310.897 141.705,311.297 142.400,312.597 142.400 C 313.419 142.400,313.521 142.645,313.777 145.246 C 314.039 147.907,314.132 148.119,315.210 148.526 C 316.235 148.913,316.391 149.206,316.624 151.181 C 316.978 154.193,317.976 157.200,318.622 157.200 C 319.401 157.200,319.476 157.443,319.975 161.554 C 320.483 165.748,320.884 166.800,321.972 166.800 C 322.617 166.800,322.751 167.241,322.975 170.100 C 323.439 176.032,323.521 176.319,324.831 176.607 C 325.615 176.779,326.000 177.110,326.000 177.612 C 326.000 183.122,326.369 183.274,340.384 183.512 C 351.614 183.703,351.777 183.717,352.478 184.608 C 353.432 185.821,359.868 186.582,370.700 186.765 L 372.800 186.800 372.800 201.531 L 372.800 216.262 361.500 216.669 C 349.433 217.105,348.995 217.169,348.644 218.568 C 348.416 219.476,348.402 219.478,338.308 219.707 C 326.833 219.967,326.954 219.944,326.396 222.015 C 326.062 223.257,325.777 223.572,324.902 223.674 C 323.679 223.817,323.459 224.555,322.995 230.076 C 322.763 232.833,322.646 233.166,321.868 233.276 C 320.914 233.412,320.216 235.678,319.778 240.063 C 319.585 241.990,319.417 242.359,318.642 242.554 C 317.685 242.794,317.161 244.450,316.596 249.022 C 316.379 250.778,316.195 251.102,315.202 251.477 C 314.134 251.880,314.039 252.098,313.777 254.754 C 313.521 257.355,313.419 257.600,312.597 257.600 C 311.291 257.600,310.875 258.324,310.518 261.214 C 310.256 263.337,310.060 263.815,309.400 263.938 C 308.106 264.178,307.600 264.814,307.600 266.199 C 307.600 267.311,307.434 267.533,306.453 267.729 C 303.368 268.346,303.227 281.403,306.291 282.763 C 307.171 283.154,307.596 283.644,307.680 284.363 C 307.763 285.085,308.197 285.583,309.106 286.000 C 309.896 286.363,310.510 286.995,310.661 287.600 C 311.015 289.019,311.567 289.600,312.560 289.600 C 313.268 289.600,313.550 290.029,314.135 291.998 C 314.697 293.892,315.046 294.447,315.797 294.635 C 316.472 294.804,316.899 295.350,317.274 296.522 C 317.651 297.705,318.068 298.233,318.749 298.391 C 319.392 298.541,319.845 299.063,320.149 300.006 C 320.492 301.065,320.912 301.492,321.900 301.783 C 322.796 302.046,323.200 302.410,323.200 302.951 C 323.200 303.974,324.324 305.200,325.262 305.200 C 325.668 305.200,326.000 305.447,326.000 305.749 C 326.000 307.137,327.670 310.002,328.617 310.240 C 330.044 310.598,330.118 313.996,328.700 314.006 C 327.446 314.015,326.906 314.439,326.601 315.655 C 326.418 316.382,325.953 316.812,325.081 317.063 C 324.156 317.328,323.729 317.752,323.467 318.667 C 323.206 319.577,322.777 320.006,321.867 320.267 C 320.957 320.528,320.528 320.957,320.267 321.867 C 320.004 322.782,319.579 323.203,318.655 323.464 C 317.722 323.728,317.302 324.150,317.017 325.109 C 316.778 325.916,316.376 326.400,315.946 326.400 C 314.958 326.400,314.000 327.497,314.000 328.629 C 314.000 329.390,313.790 329.600,313.029 329.600 C 311.862 329.600,310.800 330.567,310.800 331.629 C 310.800 332.689,310.580 332.614,308.890 330.972 C 308.081 330.187,306.939 329.448,306.351 329.330 C 305.578 329.176,305.221 328.807,305.059 327.995 C 304.894 327.168,304.485 326.758,303.504 326.434 C 302.617 326.141,302.029 325.611,301.738 324.841 C 301.429 324.023,300.934 323.605,300.042 323.409 C 299.109 323.204,298.635 322.778,298.212 321.766 C 297.776 320.724,297.402 320.400,296.634 320.400 C 296.047 320.400,295.052 319.858,294.249 319.100 C 292.100 317.072,291.692 316.800,290.804 316.800 C 290.348 316.800,289.878 316.485,289.759 316.100 C 289.318 314.674,288.906 314.226,287.759 313.929 C 286.960 313.722,286.438 313.237,286.126 312.409 C 285.790 311.521,285.331 311.126,284.417 310.943 C 283.499 310.760,283.022 310.348,282.625 309.399 C 282.197 308.374,281.775 308.047,280.598 307.826 C 279.622 307.643,279.043 307.286,278.913 306.789 C 278.178 303.979,268.898 303.698,267.857 306.453 C 267.510 307.374,267.181 307.600,266.192 307.600 C 264.746 307.600,264.000 308.221,264.000 309.423 C 264.000 310.181,263.715 310.316,261.667 310.530 C 258.529 310.858,257.998 311.111,257.739 312.403 C 257.531 313.445,257.367 313.520,254.714 313.781 C 252.106 314.038,251.879 314.137,251.480 315.194 C 251.049 316.336,249.964 316.800,247.725 316.800 C 245.977 316.800,242.887 318.026,242.684 318.799 C 242.537 319.362,241.952 319.590,240.146 319.788 C 234.372 320.419,233.843 320.560,233.325 321.602 C 232.787 322.686,231.250 323.136,227.950 323.177 C 225.330 323.210,223.600 323.617,223.600 324.201 C 223.600 325.061,222.386 325.777,219.873 326.400 C 216.767 327.169,216.898 326.606,216.555 340.602 C 216.287 351.506,216.252 351.874,215.443 352.231 C 214.287 352.741,214.066 354.311,213.747 364.300 L 213.475 372.800 198.592 372.800 L 183.708 372.800 183.481 362.500 C 183.235 351.360,182.878 348.925,181.457 348.722 C 180.612 348.602,180.597 348.455,180.400 338.161 C 180.186 326.969,180.076 326.400,178.130 326.400 C 177.405 326.400,177.050 326.088,176.730 325.171 C 176.239 323.764,175.085 323.202,172.674 323.197 C 168.842 323.189,166.848 322.741,166.721 321.859 C 166.579 320.879,164.504 320.211,160.336 319.804 C 158.021 319.578,157.643 319.427,157.448 318.651 C 157.203 317.674,155.320 317.059,151.181 316.606 C 149.199 316.389,148.915 316.239,148.526 315.210 C 148.119 314.132,147.907 314.039,145.246 313.777 C 142.645 313.521,142.400 313.419,142.400 312.597 C 142.400 311.285,141.618 310.831,138.859 310.543 C 136.861 310.334,136.400 310.152,136.400 309.572 C 136.400 308.461,135.274 307.600,133.821 307.600 C 132.692 307.600,132.467 307.436,132.274 306.471 C 131.672 303.458,118.058 303.122,117.286 306.101 C 117.052 307.001,116.626 307.416,115.587 307.752 C 114.532 308.093,114.171 308.451,114.078 309.248 C 113.987 310.041,113.645 310.385,112.678 310.657 C 111.824 310.897,111.221 311.420,110.860 312.233 C 110.440 313.180,109.910 313.562,108.460 313.960 C 107.437 314.241,106.390 314.534,106.134 314.610 C 105.878 314.686,105.426 315.255,105.130 315.874 C 104.797 316.573,104.215 317.052,103.596 317.138 C 102.316 317.316,101.679 317.851,101.524 318.879 C 101.443 319.414,100.912 319.857,100.000 320.150 C 98.834 320.525,98.579 320.813,98.476 321.876 C 98.369 322.988,98.188 323.169,97.076 323.276 C 96.095 323.371,95.676 323.682,95.261 324.623 C 94.817 325.630,94.299 325.971,92.328 326.556 C 90.330 327.150,89.868 327.459,89.528 328.433 C 88.906 330.220,86.722 330.133,86.183 328.300 C 85.901 327.343,85.474 326.904,84.565 326.635 C 83.674 326.373,83.227 325.926,82.965 325.035 C 82.702 324.145,82.255 323.698,81.365 323.435 C 80.474 323.173,80.027 322.726,79.765 321.835 C 79.499 320.936,79.056 320.499,78.135 320.227 C 77.189 319.948,76.812 319.562,76.639 318.694 C 76.482 317.908,76.050 317.398,75.303 317.115 C 74.696 316.886,73.930 316.136,73.600 315.449 C 73.197 314.610,72.664 314.161,71.977 314.081 C 71.219 313.993,70.857 313.632,70.577 312.685 C 70.310 311.780,69.851 311.296,69.000 311.020 C 68.340 310.807,67.746 310.601,67.681 310.563 C 67.116 310.238,68.232 308.400,68.994 308.400 C 70.076 308.400,70.673 307.761,70.862 306.404 C 70.947 305.787,71.305 305.353,71.800 305.263 C 72.984 305.048,74.000 303.997,74.000 302.987 C 74.000 302.372,74.377 301.941,75.221 301.591 C 76.083 301.234,76.514 300.731,76.683 299.885 C 76.851 299.045,77.267 298.554,78.066 298.253 C 79.009 297.897,79.325 297.408,79.871 295.463 C 80.443 293.424,80.715 293.028,81.878 292.542 C 82.857 292.133,83.289 291.655,83.462 290.790 C 83.603 290.086,83.952 289.600,84.319 289.600 C 85.235 289.600,86.399 288.396,86.409 287.438 C 86.414 286.889,86.862 286.393,87.709 286.000 C 88.558 285.606,89.125 284.976,89.365 284.163 C 89.597 283.375,90.119 282.779,90.803 282.521 C 91.555 282.237,91.953 281.733,92.133 280.837 C 92.273 280.133,93.150 278.654,94.081 277.550 C 95.855 275.446,96.462 271.902,95.255 270.695 C 95.005 270.445,94.800 269.956,94.800 269.609 C 94.800 269.262,94.260 268.504,93.600 267.925 C 92.895 267.307,92.400 266.478,92.400 265.916 C 92.400 264.800,91.720 264.000,90.770 264.000 C 90.064 264.000,89.600 262.524,89.600 260.281 C 89.600 258.894,88.617 257.600,87.563 257.600 C 87.013 257.600,86.793 257.164,86.603 255.700 C 86.163 252.309,86.005 251.932,84.833 251.490 C 83.794 251.098,83.683 250.855,83.460 248.460 C 83.326 247.028,83.033 245.673,82.808 245.448 C 82.584 245.224,82.400 244.622,82.400 244.111 C 82.400 243.509,82.049 243.023,81.400 242.727 C 80.547 242.339,80.399 242.001,80.390 240.436 C 80.382 238.820,80.206 237.707,79.396 234.128 C 79.278 233.607,78.836 233.204,78.299 233.128 C 77.470 233.010,77.381 232.736,77.160 229.600 C 76.834 224.961,76.534 223.849,75.488 223.390 C 74.652 223.023,74.411 222.398,73.755 218.905 C 73.395 216.983,72.576 216.841,60.115 216.548 C 48.503 216.275,48.454 216.270,48.232 215.384 C 47.921 214.145,47.135 214.035,36.500 213.738 L 27.200 213.478 27.200 198.595 L 27.200 183.711 36.900 183.470 C 47.375 183.210,50.269 182.760,50.925 181.291 C 51.285 180.483,51.607 180.454,61.807 180.329 C 73.280 180.188,74.000 180.036,74.000 177.746 C 74.000 177.080,74.293 176.742,75.029 176.557 C 76.392 176.215,76.820 174.973,77.088 170.571 C 77.279 167.437,77.419 166.892,78.119 166.571 C 79.142 166.102,80.338 162.508,80.374 159.795 C 80.395 158.143,80.552 157.720,81.265 157.395 C 82.327 156.910,83.536 153.404,83.574 150.700 C 83.596 149.094,83.720 148.800,84.377 148.800 C 85.362 148.800,86.400 147.343,86.400 145.961 C 86.400 143.499,86.843 142.491,88.031 142.254 C 89.245 142.011,89.353 141.772,89.803 138.300 C 89.994 136.821,90.210 136.400,90.776 136.400 C 91.739 136.400,92.240 135.709,92.558 133.941 C 92.751 132.871,93.065 132.420,93.734 132.252 C 96.809 131.480,96.843 118.204,93.771 117.191 C 92.738 116.850,92.400 116.511,92.400 115.818 C 92.400 114.791,91.796 114.160,90.603 113.938 C 90.082 113.841,89.735 113.377,89.600 112.597 C 89.450 111.736,89.018 111.227,88.048 110.769 C 86.722 110.143,85.621 108.112,85.606 106.265 C 85.602 105.829,85.139 105.357,84.465 105.102 C 83.720 104.821,83.205 104.249,82.965 103.437 C 82.720 102.607,82.173 102.012,81.300 101.628 C 80.422 101.241,80.000 100.780,80.000 100.208 C 80.000 99.103,79.269 98.400,78.120 98.400 C 77.582 98.400,77.200 98.159,77.200 97.819 C 77.200 96.623,76.304 95.339,75.171 94.911 C 74.302 94.583,74.000 94.209,74.000 93.458 C 74.000 92.902,73.820 92.336,73.600 92.200 C 73.380 92.064,73.200 91.498,73.200 90.942 C 73.200 90.185,72.897 89.816,72.000 89.478 C 70.250 88.817,70.265 86.777,72.025 86.113 C 72.802 85.820,73.420 85.202,73.713 84.425 C 73.967 83.751,74.437 83.200,74.756 83.200 C 75.680 83.200,76.800 81.961,76.800 80.938 C 76.800 80.242,77.024 80.000,77.669 80.000 C 78.846 80.000,80.000 78.881,80.000 77.738 C 80.000 77.042,80.224 76.800,80.869 76.800 C 81.922 76.800,83.200 75.718,83.200 74.826 C 83.200 74.467,83.750 73.968,84.425 73.713 C 85.179 73.429,85.819 72.803,86.089 72.089 C 86.350 71.397,86.997 70.750,87.689 70.489 C 88.403 70.219,89.029 69.579,89.313 68.825 C 89.953 67.130,91.026 67.243,91.898 69.096 C 92.425 70.215,92.904 70.645,93.797 70.799 C 94.578 70.935,95.041 71.281,95.136 71.803 C 95.353 72.985,96.405 74.000,97.412 74.000 C 98.071 74.000,98.360 74.298,98.531 75.156 C 98.719 76.093,99.047 76.379,100.266 76.667 C 101.357 76.925,101.830 77.278,101.989 77.953 C 102.208 78.881,105.255 80.399,106.900 80.400 C 107.376 80.400,107.600 80.713,107.600 81.377 C 107.600 82.428,108.912 83.600,110.089 83.600 C 110.487 83.600,110.800 83.895,110.800 84.269 C 110.800 85.251,111.992 86.400,113.012 86.400 C 113.673 86.400,113.960 86.698,114.134 87.568 C 114.311 88.453,114.715 88.862,115.797 89.254 C 116.707 89.582,117.310 90.100,117.455 90.676 C 117.632 91.382,118.216 91.731,120.099 92.260 C 121.966 92.784,122.663 93.197,123.158 94.077 C 124.496 96.452,130.981 96.184,132.114 93.707 C 132.382 93.121,133.018 92.724,133.961 92.554 C 135.697 92.242,136.400 91.737,136.400 90.801 C 136.400 90.085,137.822 89.600,139.919 89.600 C 141.118 89.600,142.400 88.562,142.400 87.590 C 142.400 86.908,144.051 86.415,146.369 86.404 C 147.552 86.399,148.800 85.338,148.800 84.338 C 148.800 83.738,149.114 83.600,150.480 83.600 C 153.135 83.600,156.834 82.355,157.317 81.300 C 157.663 80.542,158.050 80.397,159.764 80.383 C 163.224 80.354,166.127 79.495,166.693 78.332 C 167.154 77.386,167.435 77.302,170.893 77.073 C 175.531 76.767,176.276 76.549,176.560 75.415 C 176.746 74.675,177.224 74.421,179.127 74.046 C 183.430 73.200,183.554 72.724,183.582 56.900 C 183.593 50.846,183.747 47.200,183.992 47.200 C 185.666 47.200,186.553 41.413,186.767 29.100 L 186.800 27.200 201.600 27.200 L 216.400 27.200 216.424 31.900 M180.277 114.100 C 178.571 114.392,177.796 114.740,177.355 115.412 C 176.878 116.140,176.252 116.379,174.278 116.585 C 169.252 117.110,167.696 117.562,167.443 118.573 C 167.198 119.549,166.214 119.982,164.200 120.000 C 162.044 120.020,161.259 120.421,160.991 121.641 C 160.851 122.278,160.616 122.819,160.468 122.843 C 155.356 123.666,155.001 123.792,154.881 124.822 C 154.776 125.726,154.476 125.905,152.281 126.379 C 149.380 127.006,148.800 127.375,148.800 128.598 C 148.800 129.334,148.517 129.543,147.251 129.746 C 145.931 129.957,145.666 130.170,145.463 131.186 C 145.286 132.069,144.935 132.448,144.112 132.644 C 142.558 133.016,142.000 133.545,142.000 134.649 C 142.000 135.389,141.785 135.600,141.029 135.600 C 139.786 135.600,138.800 136.586,138.800 137.829 C 138.800 138.590,138.590 138.800,137.829 138.800 C 136.586 138.800,135.600 139.786,135.600 141.029 C 135.600 141.785,135.389 142.000,134.649 142.000 C 133.545 142.000,133.016 142.558,132.644 144.112 C 132.448 144.935,132.069 145.286,131.186 145.463 C 130.170 145.666,129.957 145.931,129.746 147.251 C 129.543 148.517,129.334 148.800,128.598 148.800 C 127.375 148.800,127.006 149.380,126.379 152.281 C 125.907 154.470,125.724 154.776,124.829 154.881 C 123.944 154.985,123.775 155.256,123.503 157.000 C 122.951 160.541,122.866 160.722,121.621 160.995 C 120.569 161.226,120.414 161.458,120.195 163.127 C 119.718 166.751,119.543 167.241,118.597 167.601 C 117.603 167.979,117.065 169.816,116.584 174.470 C 116.402 176.238,116.148 176.873,115.439 177.338 C 113.885 178.356,113.600 181.872,113.600 200.000 C 113.600 218.088,113.887 221.645,115.427 222.655 C 116.139 223.121,116.380 223.760,116.581 225.722 C 117.040 230.184,117.600 232.020,118.619 232.407 C 119.349 232.685,119.598 233.166,119.798 234.680 C 120.291 238.416,120.407 238.706,121.610 239.204 C 122.872 239.727,123.016 240.023,123.428 242.939 C 123.660 244.576,123.872 244.936,124.792 245.257 C 125.701 245.574,125.968 246.015,126.408 247.918 C 127.023 250.584,127.352 251.108,128.516 251.276 C 129.134 251.365,129.470 251.811,129.721 252.876 C 129.996 254.046,130.301 254.403,131.197 254.599 C 131.988 254.773,132.405 255.169,132.594 255.924 C 132.942 257.320,133.931 258.400,134.862 258.400 C 135.372 258.400,135.600 258.693,135.600 259.351 C 135.600 260.452,136.158 260.984,137.700 261.352 C 138.515 261.547,138.800 261.860,138.800 262.559 C 138.800 263.653,139.360 264.185,140.900 264.552 C 141.602 264.720,142.000 265.079,142.000 265.546 C 142.000 266.510,143.242 267.600,144.341 267.600 C 144.989 267.600,145.280 267.902,145.450 268.749 C 145.632 269.661,146.001 269.993,147.240 270.365 C 148.318 270.688,148.800 271.059,148.800 271.567 C 148.800 272.671,150.744 273.656,153.782 274.092 C 154.231 274.156,154.663 274.620,154.795 275.179 C 155.026 276.157,157.584 277.172,159.868 277.192 C 160.500 277.198,160.806 277.519,160.994 278.372 C 161.257 279.572,163.395 280.400,166.230 280.400 C 166.895 280.400,167.335 280.702,167.570 281.321 C 168.006 282.467,170.016 283.152,173.891 283.474 C 176.292 283.673,176.882 283.866,177.369 284.608 C 179.457 287.796,220.613 287.644,222.740 284.440 C 223.184 283.771,223.709 283.600,225.323 283.600 C 228.367 283.600,231.993 282.469,232.403 281.393 C 232.680 280.664,233.167 280.462,235.196 280.232 C 238.397 279.870,238.637 279.759,239.212 278.371 C 239.479 277.727,239.936 277.200,240.229 277.200 C 242.362 277.200,244.822 276.262,245.297 275.268 C 245.613 274.607,246.187 274.156,246.804 274.083 C 247.716 273.977,248.833 273.582,250.400 272.813 C 250.730 272.651,251.054 272.157,251.120 271.716 C 251.201 271.177,251.746 270.763,252.783 270.452 C 253.926 270.110,254.430 269.688,254.731 268.825 C 255.031 267.966,255.436 267.625,256.269 267.530 C 257.088 267.436,257.565 267.045,258.000 266.113 C 258.345 265.372,259.073 264.657,259.715 264.429 C 260.404 264.183,260.989 263.576,261.244 262.844 C 261.510 262.081,262.081 261.510,262.844 261.244 C 263.576 260.989,264.183 260.404,264.429 259.715 C 264.657 259.073,265.372 258.345,266.113 258.000 C 267.045 257.565,267.436 257.088,267.530 256.269 C 267.625 255.436,267.966 255.031,268.825 254.731 C 269.688 254.430,270.110 253.926,270.452 252.783 C 270.763 251.746,271.177 251.201,271.716 251.120 C 272.157 251.054,272.651 250.730,272.813 250.400 C 273.582 248.833,273.977 247.716,274.083 246.804 C 274.156 246.187,274.607 245.613,275.268 245.297 C 276.272 244.818,277.200 242.359,277.200 240.180 C 277.200 239.861,277.470 239.600,277.800 239.600 C 279.067 239.600,279.923 238.120,280.211 235.431 C 280.458 233.132,280.612 232.762,281.407 232.563 C 282.482 232.293,283.600 228.572,283.600 225.264 C 283.600 223.602,283.757 223.189,284.600 222.637 C 285.182 222.255,285.600 221.601,285.600 221.071 C 285.600 220.570,285.825 219.935,286.100 219.660 C 286.486 219.274,286.600 214.795,286.600 200.000 C 286.600 185.205,286.486 180.726,286.100 180.340 C 285.825 180.065,285.600 179.430,285.600 178.929 C 285.600 178.399,285.182 177.745,284.600 177.363 C 283.757 176.811,283.600 176.398,283.600 174.736 C 283.600 171.428,282.482 167.707,281.407 167.437 C 280.613 167.238,280.458 166.868,280.215 164.601 C 279.924 161.887,279.283 160.800,277.971 160.800 C 277.440 160.800,277.198 160.520,277.192 159.900 C 277.172 157.584,276.163 155.027,275.177 154.797 C 274.457 154.628,274.166 154.257,274.069 153.384 C 273.997 152.733,273.772 152.029,273.569 151.820 C 273.366 151.611,273.200 151.062,273.200 150.600 C 273.200 149.576,272.483 148.800,271.536 148.800 C 271.064 148.800,270.678 148.285,270.365 147.240 C 269.993 146.001,269.661 145.632,268.749 145.450 C 267.872 145.274,267.600 144.996,267.600 144.272 C 267.600 143.204,266.474 142.000,265.476 142.000 C 265.086 142.000,264.708 141.550,264.552 140.900 C 264.185 139.360,263.653 138.800,262.559 138.800 C 261.860 138.800,261.547 138.515,261.352 137.700 C 260.984 136.158,260.452 135.600,259.351 135.600 C 258.693 135.600,258.400 135.372,258.400 134.862 C 258.400 133.931,257.320 132.942,255.924 132.594 C 255.159 132.403,254.773 131.988,254.592 131.162 C 254.376 130.182,254.090 129.960,252.768 129.749 C 251.483 129.543,251.200 129.335,251.200 128.598 C 251.200 127.408,250.644 127.037,247.918 126.408 C 246.015 125.968,245.574 125.701,245.257 124.792 C 244.936 123.872,244.576 123.660,242.939 123.428 C 240.023 123.016,239.727 122.872,239.204 121.610 C 238.706 120.408,238.412 120.290,234.702 119.801 C 233.143 119.596,232.761 119.383,232.566 118.607 C 232.299 117.544,230.611 117.031,225.927 116.593 C 223.762 116.390,223.143 116.172,222.668 115.448 C 221.616 113.842,218.471 113.595,199.754 113.651 C 190.319 113.680,181.555 113.882,180.277 114.100 M210.700 145.857 C 215.423 146.061,216.800 146.242,216.800 146.660 C 216.800 147.868,218.324 148.728,220.964 149.011 C 223.338 149.265,223.600 149.382,223.600 150.183 C 223.600 151.113,225.552 151.993,227.646 152.006 C 228.868 152.014,229.303 152.342,229.904 153.709 C 230.224 154.439,230.792 154.898,231.563 155.053 C 232.378 155.216,232.811 155.590,232.985 156.283 C 233.155 156.960,233.730 157.472,234.783 157.886 C 235.635 158.221,236.421 158.837,236.530 159.256 C 236.640 159.674,237.272 160.206,237.936 160.438 C 238.714 160.709,239.287 161.275,239.551 162.031 C 239.784 162.699,240.404 163.373,240.989 163.596 C 241.687 163.861,242.098 164.389,242.268 165.238 C 242.451 166.155,242.862 166.634,243.806 167.028 C 244.748 167.422,245.160 167.901,245.343 168.817 C 245.523 169.716,245.921 170.191,246.762 170.508 C 247.750 170.881,247.972 171.233,248.195 172.775 C 248.642 175.879,248.848 176.400,249.629 176.400 C 250.644 176.400,251.200 177.594,251.200 179.774 C 251.200 181.656,252.174 183.200,253.360 183.200 C 254.067 183.200,254.556 190.295,254.546 200.400 C 254.537 210.369,254.072 216.800,253.361 216.800 C 252.215 216.800,251.200 218.346,251.195 220.100 C 251.186 222.737,250.837 223.600,249.780 223.600 C 248.735 223.600,248.566 223.991,248.178 227.300 C 247.960 229.155,247.768 229.600,247.182 229.600 C 246.190 229.600,245.200 230.671,245.200 231.746 C 245.200 232.401,244.861 232.735,243.910 233.017 C 242.867 233.327,242.553 233.683,242.275 234.877 C 242.025 235.950,241.695 236.387,241.066 236.477 C 240.547 236.551,239.980 237.100,239.650 237.850 C 239.336 238.562,238.562 239.336,237.850 239.650 C 237.077 239.990,236.551 240.544,236.472 241.100 C 236.372 241.804,236.004 242.054,234.781 242.249 C 233.392 242.472,233.189 242.650,232.964 243.850 C 232.779 244.836,232.500 245.200,231.929 245.200 C 230.621 245.200,229.600 245.975,229.600 246.968 C 229.600 247.814,229.371 247.935,227.300 248.178 C 223.991 248.566,223.600 248.735,223.600 249.780 C 223.600 250.837,222.737 251.186,220.100 251.195 C 218.426 251.200,217.565 251.727,216.600 253.338 C 216.029 254.290,202.787 254.875,192.800 254.388 C 188.730 254.190,184.989 254.021,184.487 254.014 C 183.986 254.006,183.463 253.685,183.327 253.300 C 182.803 251.823,181.889 251.200,180.238 251.195 C 177.800 251.186,176.818 250.809,176.560 249.781 C 176.286 248.690,176.005 248.559,173.163 248.199 C 171.245 247.957,170.932 247.782,170.400 246.663 C 169.981 245.782,169.474 245.362,168.723 245.276 C 167.904 245.181,167.540 244.830,167.202 243.807 C 166.827 242.670,166.520 242.423,165.203 242.201 C 164.013 241.999,163.618 241.734,163.524 241.069 C 163.448 240.540,162.897 239.979,162.116 239.635 C 161.342 239.294,160.676 238.619,160.436 237.933 C 160.218 237.307,159.603 236.629,159.070 236.427 C 158.392 236.169,158.021 235.636,157.837 234.658 C 157.624 233.520,157.352 233.209,156.387 232.997 C 155.639 232.833,155.200 232.485,155.200 232.057 C 155.200 231.016,154.044 229.600,153.195 229.600 C 152.626 229.600,152.378 229.224,152.202 228.100 C 151.686 224.796,151.211 223.657,150.295 223.527 C 149.531 223.418,149.349 223.034,149.003 220.800 C 148.542 217.826,148.274 217.284,147.025 216.810 C 145.161 216.101,144.911 183.954,146.764 183.302 C 148.234 182.785,148.749 181.886,149.019 179.359 C 149.259 177.119,149.412 176.762,150.221 176.559 C 151.179 176.319,152.000 174.663,152.000 172.973 C 152.000 171.738,152.396 170.800,152.917 170.800 C 153.646 170.800,155.200 169.104,155.200 168.309 C 155.200 167.835,155.640 167.405,156.395 167.142 C 157.301 166.826,157.688 166.360,157.998 165.209 C 158.260 164.234,158.694 163.616,159.212 163.481 C 159.655 163.365,160.206 162.728,160.438 162.064 C 160.713 161.275,161.275 160.713,162.064 160.438 C 162.728 160.206,163.360 159.674,163.470 159.256 C 163.579 158.837,164.372 158.218,165.232 157.880 C 166.188 157.505,166.939 156.885,167.168 156.284 C 167.378 155.733,167.992 155.188,168.566 155.044 C 169.129 154.903,169.903 154.295,170.286 153.694 C 171.190 152.273,171.582 152.014,172.840 152.006 C 174.659 151.995,176.312 151.204,176.558 150.226 C 176.758 149.429,177.128 149.266,179.294 149.022 C 181.921 148.726,183.200 147.978,183.200 146.738 C 183.200 146.067,183.610 145.996,187.700 145.953 C 190.175 145.928,193.370 145.764,194.800 145.589 C 196.230 145.415,199.020 145.345,201.000 145.433 C 202.980 145.521,207.345 145.712,210.700 145.857 " stroke="none" fill="#040404" fill-rule="evenodd"></path><path id="path1" d="" stroke="none" fill="#080404" fill-rule="evenodd"></path></g></svg>