<svg id="svg" version="1.1" xmlns="http://www.w3.org/2000/svg" xmlns:xlink="http://www.w3.org/1999/xlink" width="400" height="400" viewBox="0, 0, 400,400"><g id="svgg"><path id="path0" d="M23.919 19.963 C 19.750 20.332,19.667 20.639,19.625 35.900 L 19.600 44.800 9.800 44.800 L 0.000 44.800 0.000 79.600 C 0.000 98.740,0.154 114.400,0.342 114.400 C 0.529 114.400,0.809 116.663,0.963 119.429 C 1.282 125.173,1.586 126.281,2.937 126.620 C 3.852 126.850,3.916 127.071,4.188 130.931 C 4.484 135.137,4.752 135.849,6.249 136.419 C 6.996 136.703,7.174 137.173,7.408 139.477 C 7.903 144.346,8.113 144.986,9.261 145.121 C 10.206 145.233,10.311 145.440,10.541 147.640 C 10.844 150.538,11.318 151.514,12.576 151.830 C 13.398 152.036,13.566 152.386,13.795 154.361 C 14.097 156.956,14.200 157.164,15.641 158.080 C 16.469 158.606,16.732 159.164,16.927 160.813 C 17.205 163.162,17.612 163.816,19.016 164.168 C 19.766 164.357,20.000 164.680,20.000 165.528 C 20.000 166.871,20.651 167.600,21.852 167.600 C 22.618 167.600,22.807 167.923,23.195 169.900 C 23.824 173.099,23.847 173.146,24.948 173.423 C 25.573 173.580,26.028 174.056,26.197 174.732 C 26.554 176.153,27.138 176.800,28.062 176.800 C 28.481 176.800,28.924 177.115,29.045 177.500 C 29.676 179.511,30.982 181.693,31.716 181.965 C 32.225 182.153,32.717 182.873,32.982 183.820 C 33.302 184.961,33.677 185.429,34.408 185.600 C 35.090 185.760,35.540 186.262,35.850 187.207 C 36.155 188.140,36.686 188.740,37.502 189.072 C 38.282 189.391,38.802 189.954,38.984 190.678 C 39.300 191.937,39.831 192.385,41.017 192.394 C 41.592 192.398,41.948 192.786,42.217 193.700 C 42.506 194.681,42.922 195.095,43.911 195.386 C 44.885 195.672,45.301 196.078,45.531 196.966 C 45.761 197.854,46.160 198.243,47.089 198.483 C 48.026 198.726,48.402 199.097,48.593 199.966 C 48.758 200.722,49.165 201.205,49.760 201.354 C 50.781 201.610,51.163 206.823,51.229 221.364 C 51.267 229.738,51.565 231.808,52.891 232.931 L 53.918 233.800 54.175 256.200 C 54.459 280.896,54.660 283.754,56.203 285.015 L 57.200 285.830 57.229 297.215 C 57.308 328.435,57.755 335.600,59.620 335.600 C 60.305 335.600,60.351 336.668,60.503 356.300 C 60.688 380.005,60.580 379.194,63.628 379.888 C 66.747 380.599,336.080 380.432,337.676 379.719 C 339.467 378.918,339.588 377.610,339.868 355.900 C 340.078 339.630,340.234 335.600,340.651 335.600 C 342.310 335.600,342.763 328.786,342.785 303.546 L 342.800 285.692 343.754 285.067 C 345.475 283.939,345.671 281.304,345.872 256.600 L 346.058 233.800 347.074 232.949 C 348.582 231.686,348.771 229.992,349.062 215.092 L 349.325 201.584 350.239 201.354 C 350.829 201.206,351.241 200.723,351.403 199.989 C 351.590 199.136,351.954 198.786,352.862 198.586 C 353.701 198.402,354.229 197.948,354.582 197.107 C 354.887 196.383,355.612 195.675,356.379 195.352 C 357.163 195.023,357.838 194.354,358.107 193.641 C 358.411 192.836,358.904 192.399,359.683 192.243 C 360.533 192.073,360.874 191.729,361.047 190.864 C 361.206 190.069,361.669 189.539,362.539 189.155 C 363.392 188.780,363.923 188.183,364.180 187.311 C 364.438 186.434,364.919 185.897,365.686 185.630 C 366.492 185.349,366.883 184.885,367.060 184.001 C 367.222 183.189,367.700 182.562,368.453 182.172 C 369.084 181.846,369.600 181.336,369.600 181.039 C 369.600 180.741,369.870 180.274,370.200 180.000 C 370.530 179.726,370.800 178.988,370.800 178.359 C 370.800 177.442,371.018 177.163,371.900 176.952 C 373.439 176.585,374.000 176.053,374.000 174.961 C 374.000 174.327,374.379 173.824,375.165 173.418 C 376.266 172.849,377.200 170.444,377.200 168.180 C 377.200 167.836,377.587 167.600,378.151 167.600 C 379.262 167.600,379.829 167.021,380.211 165.499 C 380.367 164.877,380.944 164.184,381.543 163.899 C 382.396 163.492,382.718 162.901,383.210 160.840 C 383.680 158.866,384.023 158.209,384.715 157.953 C 385.713 157.584,386.400 156.138,386.400 154.407 C 386.400 152.911,386.768 152.000,387.373 152.000 C 388.278 152.000,389.600 150.174,389.600 148.924 C 389.600 146.550,390.057 145.200,390.860 145.200 C 391.882 145.200,392.384 143.737,392.680 139.893 C 392.891 137.153,393.037 136.690,393.778 136.408 C 395.378 135.800,395.716 134.914,395.914 130.815 C 396.094 127.075,396.155 126.848,397.040 126.626 C 398.541 126.249,398.925 124.933,399.122 119.491 C 399.224 116.680,399.463 114.285,399.653 114.167 C 399.845 114.049,400.000 98.442,400.000 79.376 L 400.000 44.800 390.232 44.800 L 380.464 44.800 380.332 33.214 C 380.177 19.640,380.429 20.394,375.901 19.940 C 372.462 19.596,27.824 19.618,23.919 19.963 M348.674 55.100 C 348.346 62.888,348.141 64.000,347.028 64.000 C 345.994 64.000,345.200 64.705,345.200 65.623 C 345.200 66.785,343.275 66.800,199.841 66.797 C 61.008 66.793,55.200 66.753,55.200 65.806 C 55.200 65.152,53.980 64.115,53.000 63.937 C 52.048 63.765,51.710 61.748,51.349 54.100 L 51.118 49.200 200.020 49.200 L 348.921 49.200 348.674 55.100 M29.459 84.347 C 29.812 85.827,30.355 86.400,31.406 86.400 C 32.062 86.400,32.390 86.704,32.589 87.498 C 32.971 89.021,33.538 89.600,34.649 89.600 C 35.228 89.600,35.600 89.835,35.600 90.200 C 35.600 91.411,37.071 92.307,39.532 92.592 C 41.776 92.853,41.971 92.956,42.202 94.010 C 42.388 94.854,42.755 95.214,43.626 95.406 L 44.800 95.664 44.813 106.532 C 44.834 125.163,45.431 131.638,47.177 132.193 C 47.973 132.445,48.000 132.728,48.000 140.771 L 48.000 149.089 47.010 148.900 C 46.261 148.757,45.958 148.383,45.768 147.369 C 45.493 145.903,45.019 145.364,43.808 145.139 C 43.168 145.020,42.932 144.472,42.568 142.257 C 42.148 139.697,41.635 138.821,40.547 138.806 C 40.000 138.799,39.613 137.493,39.605 135.631 C 39.599 134.114,38.655 132.800,37.570 132.800 C 36.990 132.800,36.818 132.316,36.606 130.100 C 36.464 128.615,36.189 127.040,35.995 126.600 C 35.800 126.160,35.586 125.440,35.518 125.000 C 35.451 124.560,34.991 124.022,34.498 123.805 C 33.767 123.484,33.600 123.089,33.600 121.684 C 33.600 118.260,32.449 114.400,31.428 114.400 C 30.540 114.400,30.515 114.281,30.294 109.012 C 30.064 103.529,29.156 100.265,27.705 99.708 C 27.321 99.561,27.200 97.525,27.200 91.213 L 27.200 82.911 28.204 83.103 C 28.880 83.232,29.291 83.639,29.459 84.347 M372.800 91.400 C 372.800 96.001,372.642 99.600,372.440 99.600 C 371.163 99.600,370.275 102.679,369.874 108.500 C 369.479 114.243,369.444 114.400,368.562 114.400 C 367.573 114.400,367.124 115.909,366.592 121.018 C 366.391 122.954,366.172 123.512,365.494 123.818 C 364.523 124.256,363.645 127.389,363.617 130.513 C 363.604 131.976,363.435 132.476,362.900 132.641 C 361.236 133.156,360.993 133.529,360.641 136.111 C 360.317 138.478,360.177 138.769,359.245 139.003 C 357.927 139.334,357.614 139.844,357.606 141.674 C 357.597 143.785,356.966 145.200,356.034 145.200 C 355.115 145.200,354.766 145.669,354.421 147.365 C 354.244 148.236,353.910 148.638,353.285 148.728 L 352.400 148.856 352.400 140.677 C 352.400 132.967,352.446 132.466,353.195 131.949 C 354.406 131.112,355.200 126.476,355.200 120.239 C 355.200 117.319,355.318 110.593,355.463 105.292 L 355.726 95.655 356.705 95.409 C 357.294 95.262,357.858 94.701,358.122 94.001 C 358.513 92.964,358.803 92.808,360.781 92.571 C 363.163 92.285,364.400 91.522,364.400 90.338 C 364.400 89.847,364.691 89.600,365.269 89.600 C 366.446 89.600,367.600 88.481,367.600 87.338 C 367.600 86.642,367.824 86.400,368.469 86.400 C 369.646 86.400,370.800 85.281,370.800 84.138 C 370.800 83.404,371.018 83.200,371.800 83.200 L 372.800 83.200 372.800 91.400 M326.000 100.573 C 326.000 101.969,325.837 102.398,325.233 102.589 C 323.491 103.143,322.887 112.973,322.825 141.845 L 322.800 153.491 321.724 154.567 C 320.185 156.106,320.090 157.467,319.760 182.754 C 319.488 203.643,319.430 204.919,318.749 205.097 C 317.152 205.515,316.865 209.200,316.558 233.263 C 316.297 253.770,316.224 255.437,315.570 255.900 C 314.133 256.919,313.956 259.591,313.747 283.400 L 313.544 306.600 312.370 307.630 L 311.197 308.660 310.804 315.430 C 310.588 319.154,310.409 328.635,310.406 336.500 L 310.400 350.800 200.255 350.800 L 90.110 350.800 89.843 332.500 C 89.556 312.837,89.244 309.111,87.776 307.800 L 86.881 307.000 86.619 284.826 C 86.342 261.286,86.042 257.285,84.457 255.977 C 83.737 255.384,83.692 254.280,83.491 232.777 C 83.368 219.558,83.114 209.620,82.879 208.800 C 82.658 208.030,82.372 206.927,82.243 206.348 C 82.111 205.755,81.658 205.204,81.204 205.085 C 80.414 204.879,80.400 204.566,80.387 186.937 C 80.369 161.041,79.976 155.410,78.156 154.953 L 77.200 154.713 77.187 136.257 C 77.170 110.955,76.665 103.294,74.972 102.645 C 74.592 102.499,74.400 101.815,74.400 100.613 L 74.400 98.800 200.200 98.800 L 326.000 98.800 326.000 100.573 M147.000 126.289 C 145.853 126.571,145.266 127.136,145.124 128.095 C 145.043 128.644,144.519 129.094,143.605 129.400 C 142.585 129.742,142.118 130.189,141.868 131.062 C 141.621 131.922,141.173 132.359,140.263 132.628 C 139.289 132.915,138.954 133.275,138.798 134.200 C 138.640 135.140,138.364 135.427,137.527 135.524 C 136.267 135.670,135.728 136.232,135.538 137.597 C 135.434 138.350,135.105 138.645,134.200 138.797 C 133.275 138.954,132.915 139.289,132.628 140.263 C 132.357 141.180,131.923 141.621,131.039 141.874 C 130.157 142.127,129.725 142.565,129.467 143.467 C 129.206 144.377,128.777 144.806,127.867 145.067 C 126.946 145.331,126.528 145.755,126.256 146.704 C 125.584 149.047,121.622 148.899,120.766 146.499 C 120.543 145.873,119.820 145.142,119.087 144.800 C 118.275 144.421,117.751 143.856,117.668 143.267 C 117.585 142.680,117.095 142.149,116.344 141.833 C 115.688 141.557,114.805 140.762,114.382 140.066 C 113.546 138.691,113.153 138.598,109.001 138.786 C 105.810 138.931,104.926 139.317,104.623 140.697 C 104.437 141.542,104.036 141.942,103.095 142.221 C 102.151 142.502,101.727 142.926,101.464 143.855 C 101.202 144.784,100.784 145.203,99.855 145.468 C 98.833 145.759,98.577 146.060,98.476 147.089 C 98.369 148.183,98.183 148.369,97.089 148.476 C 96.054 148.578,95.759 148.831,95.461 149.880 C 95.189 150.833,94.802 151.224,93.945 151.412 C 92.605 151.706,92.211 152.336,91.837 154.780 C 91.687 155.759,91.366 156.800,91.122 157.094 C 90.798 157.485,90.803 157.864,91.142 158.514 C 91.397 159.001,91.767 160.290,91.966 161.378 C 92.325 163.349,93.169 164.400,94.394 164.400 C 94.772 164.400,95.192 164.934,95.417 165.700 C 95.702 166.667,96.124 167.096,97.065 167.373 C 97.977 167.642,98.389 168.043,98.543 168.815 C 98.684 169.518,99.167 170.055,99.953 170.380 C 100.645 170.667,101.309 171.336,101.530 171.971 C 101.754 172.613,102.416 173.275,103.130 173.571 C 103.856 173.872,104.506 174.529,104.740 175.198 C 105.007 175.965,105.498 176.402,106.287 176.575 C 107.146 176.764,107.540 177.159,107.821 178.115 C 108.099 179.057,108.530 179.497,109.435 179.765 C 110.326 180.027,110.773 180.474,111.035 181.365 C 111.301 182.264,111.744 182.701,112.665 182.973 C 113.582 183.243,113.989 183.643,114.145 184.427 C 114.295 185.174,114.735 185.638,115.567 185.928 C 116.351 186.202,116.863 186.712,117.033 187.388 C 117.315 188.513,119.005 189.599,120.480 189.602 C 120.986 189.604,121.850 189.837,122.400 190.121 C 123.214 190.540,123.586 190.541,124.400 190.124 C 124.950 189.842,126.075 189.609,126.900 189.606 C 128.538 189.599,130.000 188.504,130.000 187.283 C 130.000 186.819,130.459 186.430,131.300 186.183 C 132.257 185.901,132.696 185.474,132.965 184.565 C 133.227 183.674,133.674 183.227,134.565 182.965 C 135.455 182.702,135.902 182.255,136.165 181.365 C 136.427 180.474,136.874 180.027,137.765 179.765 C 138.664 179.499,139.101 179.056,139.373 178.135 C 139.649 177.198,140.039 176.812,140.881 176.644 C 141.729 176.474,142.074 176.129,142.244 175.281 C 142.412 174.439,142.798 174.049,143.735 173.773 C 144.656 173.501,145.099 173.064,145.365 172.165 C 145.627 171.274,146.074 170.827,146.965 170.565 C 147.855 170.302,148.302 169.855,148.565 168.965 C 148.827 168.074,149.274 167.627,150.165 167.365 C 151.055 167.102,151.502 166.655,151.765 165.765 C 152.027 164.874,152.474 164.427,153.365 164.165 C 154.264 163.899,154.701 163.456,154.973 162.535 C 155.252 161.589,155.638 161.212,156.506 161.039 C 157.304 160.879,157.802 160.450,158.097 159.667 C 158.347 159.004,159.004 158.347,159.667 158.097 C 160.450 157.802,160.879 157.304,161.039 156.506 C 161.212 155.638,161.589 155.252,162.535 154.973 C 163.476 154.696,163.898 154.267,164.183 153.300 C 164.408 152.534,164.828 152.000,165.206 152.000 C 168.050 152.000,169.067 142.870,166.330 141.916 C 165.695 141.694,164.902 140.985,164.569 140.339 C 163.742 138.742,154.870 129.892,153.494 129.293 C 152.886 129.028,152.186 128.368,151.939 127.826 C 151.291 126.404,149.191 125.751,147.000 126.289 M186.708 141.874 C 184.961 142.332,184.413 168.586,186.114 170.286 C 187.227 171.398,306.774 171.397,307.886 170.286 C 309.036 169.136,308.978 143.012,307.824 142.168 C 307.074 141.620,188.773 141.333,186.708 141.874 M144.422 195.353 C 142.949 195.746,142.590 196.034,142.333 197.028 C 142.101 197.922,141.687 198.327,140.711 198.614 C 139.687 198.915,139.356 199.263,139.198 200.200 C 139.040 201.140,138.764 201.427,137.927 201.524 C 136.667 201.670,136.128 202.232,135.938 203.597 C 135.834 204.349,135.504 204.646,134.600 204.801 C 133.658 204.963,133.303 205.307,132.948 206.403 C 132.605 207.467,132.229 207.848,131.374 208.000 C 130.515 208.153,130.172 208.504,129.916 209.491 C 129.658 210.487,129.291 210.857,128.311 211.111 C 127.343 211.362,126.963 211.738,126.717 212.689 C 126.471 213.636,126.105 214.001,125.201 214.200 C 124.546 214.344,123.906 214.629,123.779 214.834 C 123.652 215.039,123.279 214.936,122.946 214.603 C 122.614 214.271,122.010 214.000,121.602 214.000 C 121.114 214.000,120.708 213.533,120.409 212.627 C 120.068 211.593,119.665 211.190,118.778 210.995 C 117.973 210.818,117.600 210.493,117.600 209.968 C 117.600 208.887,116.187 207.600,115.000 207.600 C 114.279 207.600,114.000 207.385,114.000 206.829 C 114.000 205.592,112.886 204.800,111.145 204.800 C 109.033 204.800,108.000 205.396,108.000 206.614 C 108.000 207.463,107.816 207.600,106.680 207.600 C 105.146 207.600,104.400 208.201,104.400 209.437 C 104.400 210.059,104.082 210.393,103.302 210.589 C 101.798 210.966,101.200 211.536,101.200 212.591 C 101.200 213.254,100.868 213.580,99.912 213.854 C 98.942 214.132,98.532 214.542,98.254 215.512 C 97.980 216.468,97.654 216.800,96.991 216.800 C 95.941 216.800,95.366 217.398,94.995 218.879 C 94.800 219.655,94.432 219.988,93.672 220.077 C 90.652 220.430,90.770 230.400,93.795 230.400 C 94.122 230.400,94.642 231.006,94.952 231.746 C 95.314 232.613,95.932 233.238,96.690 233.502 C 97.413 233.754,98.061 234.383,98.372 235.133 C 98.663 235.836,99.226 236.407,99.698 236.477 C 100.149 236.545,100.672 236.915,100.859 237.300 C 101.047 237.685,101.352 238.311,101.538 238.691 C 101.724 239.071,102.309 239.481,102.838 239.602 C 103.394 239.729,104.025 240.323,104.334 241.011 C 104.628 241.665,105.438 242.470,106.134 242.800 C 106.924 243.175,107.450 243.751,107.532 244.334 C 107.619 244.948,108.116 245.457,108.985 245.820 C 109.838 246.176,110.399 246.741,110.567 247.412 C 110.736 248.086,111.298 248.649,112.158 249.008 C 112.976 249.350,113.682 250.033,113.993 250.782 C 114.271 251.455,114.797 252.000,115.169 252.000 C 116.028 252.000,116.800 252.771,116.800 253.630 C 116.800 255.212,121.165 258.400,123.333 258.400 C 125.748 258.400,128.709 257.092,129.197 255.809 C 129.383 255.318,130.180 254.537,130.968 254.072 C 131.756 253.607,132.400 252.948,132.400 252.608 C 132.400 252.267,132.958 251.649,133.640 251.234 C 134.322 250.819,135.219 249.922,135.634 249.240 C 136.049 248.558,136.667 248.000,137.008 248.000 C 137.348 248.000,138.007 247.356,138.472 246.568 C 138.937 245.780,139.726 244.980,140.226 244.790 C 140.726 244.600,141.376 243.941,141.671 243.326 C 141.966 242.711,142.711 241.966,143.326 241.671 C 143.941 241.376,144.600 240.726,144.790 240.226 C 144.980 239.726,145.780 238.937,146.568 238.472 C 147.356 238.007,148.000 237.348,148.000 237.008 C 148.000 236.667,148.558 236.049,149.240 235.634 C 149.922 235.219,150.819 234.322,151.234 233.640 C 151.649 232.958,152.267 232.400,152.608 232.400 C 152.948 232.400,153.607 231.756,154.072 230.968 C 154.537 230.180,155.326 229.380,155.826 229.190 C 156.326 229.000,156.976 228.341,157.271 227.726 C 157.566 227.111,158.311 226.366,158.926 226.071 C 159.541 225.776,160.200 225.126,160.390 224.626 C 160.580 224.126,161.380 223.337,162.168 222.872 C 162.956 222.407,163.600 221.753,163.600 221.419 C 163.600 221.084,164.290 220.374,165.134 219.842 C 168.771 217.546,168.809 207.600,165.181 207.600 C 164.776 207.600,164.373 207.101,164.150 206.323 C 163.873 205.359,163.475 204.967,162.523 204.720 C 161.551 204.468,161.200 204.111,160.992 203.162 C 160.801 202.296,160.388 201.815,159.598 201.540 C 158.937 201.309,158.272 200.657,157.980 199.953 C 157.645 199.144,157.121 198.684,156.358 198.532 C 155.527 198.365,155.116 197.959,154.794 196.982 C 154.125 194.956,148.954 194.144,144.422 195.353 M186.671 208.100 C 184.596 209.622,184.558 237.425,186.629 238.991 C 187.736 239.829,306.233 239.903,307.377 239.066 C 309.414 237.577,309.414 209.623,307.377 208.134 C 306.333 207.370,187.711 207.337,186.671 208.100 M146.326 261.071 C 145.956 261.168,145.537 261.776,145.395 262.421 C 145.202 263.301,144.830 263.673,143.902 263.913 C 142.698 264.225,142.285 264.663,141.841 266.100 C 141.722 266.485,141.272 266.800,140.841 266.800 C 139.768 266.800,138.800 267.857,138.800 269.029 C 138.800 269.790,138.590 270.000,137.829 270.000 C 136.586 270.000,135.600 270.986,135.600 272.229 C 135.600 272.967,135.385 273.201,134.700 273.206 C 133.458 273.215,132.984 273.604,132.530 274.989 C 132.288 275.728,131.788 276.261,131.208 276.398 C 130.360 276.598,130.046 276.972,129.194 278.800 C 129.040 279.130,128.574 279.464,128.157 279.543 C 127.055 279.751,126.400 280.391,126.400 281.259 C 126.400 282.297,124.600 282.918,122.500 282.605 C 121.062 282.390,120.800 282.208,120.800 281.424 C 120.800 280.342,120.213 279.769,118.721 279.395 C 117.942 279.199,117.612 278.832,117.523 278.063 C 117.434 277.292,117.003 276.815,115.948 276.320 C 115.027 275.888,114.404 275.269,114.242 274.626 C 113.623 272.158,104.800 272.887,104.800 275.406 C 104.800 276.335,104.124 276.800,102.775 276.800 C 102.271 276.800,101.934 277.171,101.774 277.900 C 101.352 279.829,101.268 279.940,100.136 280.071 C 99.288 280.170,98.943 280.490,98.676 281.428 C 98.420 282.324,97.985 282.756,97.063 283.028 C 96.088 283.315,95.771 283.657,95.671 284.524 C 95.541 285.662,95.421 285.755,93.553 286.161 C 90.931 286.731,91.067 298.032,93.704 298.715 C 94.510 298.924,95.052 299.343,95.141 299.825 C 95.357 301.007,96.417 302.000,97.462 302.000 C 98.179 302.000,98.400 302.221,98.400 302.938 C 98.400 303.963,99.520 305.200,100.449 305.200 C 100.771 305.200,101.207 305.785,101.417 306.500 C 101.705 307.477,102.123 307.895,103.100 308.183 C 103.915 308.423,104.400 308.822,104.400 309.254 C 104.400 310.242,105.497 311.200,106.629 311.200 C 107.367 311.200,107.601 311.415,107.606 312.100 C 107.615 313.384,108.103 313.990,109.411 314.340 C 110.208 314.553,110.647 314.992,110.860 315.789 C 111.210 317.097,111.816 317.585,113.100 317.594 C 113.776 317.598,114.000 317.834,114.000 318.538 C 114.000 319.600,115.130 320.800,116.131 320.800 C 116.533 320.800,116.800 321.119,116.800 321.600 C 116.800 322.709,118.199 324.000,119.400 324.000 C 120.096 324.000,120.400 324.219,120.400 324.720 C 120.400 325.920,121.258 326.400,123.400 326.400 C 125.542 326.400,126.400 325.920,126.400 324.720 C 126.400 324.195,126.709 324.000,127.538 324.000 C 128.767 324.000,129.830 323.076,130.063 321.805 C 130.144 321.367,130.567 320.944,131.005 320.863 C 132.106 320.661,133.132 319.677,133.278 318.682 C 133.360 318.123,133.827 317.737,134.691 317.515 C 135.687 317.258,136.057 316.892,136.311 315.911 C 136.564 314.937,136.937 314.564,137.911 314.311 C 138.888 314.058,139.259 313.686,139.513 312.704 C 139.738 311.837,140.147 311.354,140.784 311.204 C 141.709 310.985,142.130 310.485,142.559 309.100 C 142.678 308.715,143.113 308.400,143.525 308.400 C 144.411 308.400,145.458 307.325,145.663 306.205 C 145.744 305.767,146.167 305.344,146.605 305.263 C 147.715 305.060,148.733 304.074,148.878 303.062 C 148.947 302.581,149.349 302.145,149.800 302.063 C 150.905 301.862,151.931 300.879,152.078 299.882 C 152.160 299.323,152.627 298.937,153.491 298.715 C 154.487 298.458,154.857 298.092,155.111 297.111 C 155.364 296.137,155.737 295.764,156.711 295.511 C 157.688 295.258,158.059 294.886,158.313 293.904 C 158.538 293.037,158.947 292.554,159.584 292.404 C 160.509 292.185,160.930 291.685,161.359 290.300 C 161.478 289.915,161.913 289.600,162.325 289.600 C 163.213 289.600,164.259 288.524,164.463 287.400 C 164.545 286.949,164.981 286.547,165.462 286.478 C 167.264 286.220,167.639 285.210,167.515 280.952 L 167.400 277.000 166.150 276.450 C 165.438 276.136,164.664 275.362,164.350 274.650 C 163.964 273.773,163.483 273.363,162.738 273.277 C 161.968 273.188,161.601 272.858,161.405 272.079 C 161.029 270.578,160.457 270.000,159.351 270.000 C 158.611 270.000,158.400 269.785,158.400 269.029 C 158.400 267.786,157.414 266.800,156.171 266.800 C 155.415 266.800,155.200 266.589,155.200 265.849 C 155.200 264.745,154.622 264.171,153.132 263.797 C 152.486 263.635,151.885 263.088,151.601 262.403 C 151.003 260.958,148.831 260.409,146.326 261.071 M186.808 276.514 C 185.339 277.257,185.139 279.346,185.278 292.463 C 185.388 302.881,185.468 304.040,186.114 304.686 C 187.227 305.798,306.774 305.797,307.886 304.686 C 308.543 304.028,308.600 302.909,308.600 290.750 L 308.600 277.529 307.656 276.765 C 306.458 275.794,188.712 275.550,186.808 276.514 " stroke="none" fill="#040404" fill-rule="evenodd"></path><path id="path1" d="" stroke="none" fill="#080404" fill-rule="evenodd"></path></g></svg>