<svg id="svg" version="1.1" xmlns="http://www.w3.org/2000/svg" xmlns:xlink="http://www.w3.org/1999/xlink" width="400" height="400" viewBox="0, 0, 400,400"><g id="svgg"><path id="path0" d="M149.318 4.853 C 131.153 9.257,99.342 23.865,83.393 35.127 L 74.598 41.337 67.265 34.448 C 51.636 19.765,48.986 24.794,42.772 80.928 C 35.780 144.094,31.532 139.634,92.493 133.126 C 152.768 126.690,157.760 123.816,139.102 106.287 C 123.676 91.795,154.465 76.838,200.066 76.671 C 274.082 76.401,327.991 135.213,324.501 212.425 L 323.438 235.938 357.361 236.828 C 400.805 237.968,400.000 238.677,400.000 199.287 C 400.000 67.359,278.906 -26.564,149.318 4.853 M244.861 23.704 C 321.661 43.517,376.404 109.942,380.495 188.281 L 382.086 218.750 363.358 218.750 L 344.631 218.750 342.954 192.969 C 339.028 132.604,301.912 82.990,246.134 63.546 C 189.134 43.676,84.657 77.210,111.422 106.785 C 116.295 112.170,116.159 112.509,109.078 112.660 C 104.945 112.749,92.070 113.876,80.469 115.166 L 59.375 117.512 59.397 109.537 C 59.485 78.077,63.398 59.635,69.313 62.801 C 74.066 65.345,78.175 63.842,89.967 55.248 C 135.699 21.919,192.840 10.283,244.861 23.704 M3.846 166.154 C -1.801 171.801,-1.102 227.658,4.905 250.841 C 39.775 385.408,202.973 445.112,316.607 364.873 L 325.402 358.663 332.735 365.552 C 348.364 380.235,351.014 375.206,357.228 319.072 C 364.220 255.906,368.468 260.366,307.507 266.874 C 247.232 273.310,242.240 276.184,260.898 293.713 C 275.684 307.604,245.708 322.924,203.125 323.240 C 127.485 323.802,76.572 271.710,76.565 193.750 L 76.563 164.063 42.127 163.186 C 18.005 162.571,6.539 163.461,3.846 166.154 M57.046 207.031 C 60.973 267.414,98.239 317.205,153.866 336.395 C 211.280 356.201,315.382 322.832,288.578 293.215 C 283.705 287.830,283.841 287.491,290.922 287.340 C 295.055 287.251,307.930 286.124,319.531 284.834 L 340.625 282.488 340.603 290.463 C 340.515 321.923,336.602 340.365,330.687 337.199 C 325.934 334.655,321.825 336.158,310.033 344.752 C 190.449 431.903,18.750 350.398,18.750 206.480 L 18.750 181.250 37.060 181.250 L 55.369 181.250 57.046 207.031 " stroke="none" fill="#000000" fill-rule="evenodd"></path></g></svg>