<svg id="svg" xmlns="http://www.w3.org/2000/svg" xmlns:xlink="http://www.w3.org/1999/xlink" width="400" height="400" viewBox="0, 0, 400,400" version="1.1"><g id="svgg"><path id="path0" d="M237.585 0.142 C 237.467 0.264,236.702 0.409,235.885 0.464 C 235.068 0.519,234.400 0.707,234.400 0.882 C 234.400 1.057,233.950 1.200,233.400 1.200 C 232.850 1.200,232.400 1.380,232.400 1.600 C 232.400 1.820,232.051 2.000,231.624 2.000 C 231.197 2.000,230.736 2.180,230.600 2.400 C 230.464 2.620,229.993 2.800,229.553 2.800 C 229.113 2.800,228.864 2.980,229.000 3.200 C 229.224 3.562,227.999 3.816,227.000 3.614 C 226.780 3.570,226.726 3.660,226.881 3.814 C 227.225 4.159,226.559 4.815,225.100 5.568 C 224.495 5.880,224.000 6.285,224.000 6.468 C 224.000 6.650,223.640 6.800,223.200 6.800 C 222.484 6.800,222.213 7.216,222.353 8.100 C 222.379 8.265,222.265 8.362,222.100 8.315 C 221.576 8.167,220.000 9.371,220.000 9.920 C 220.000 10.210,219.847 10.353,219.660 10.237 C 219.473 10.122,218.942 10.426,218.480 10.914 C 218.018 11.401,217.430 12.005,217.175 12.255 C 216.919 12.506,215.835 13.586,214.766 14.655 C 213.696 15.725,212.638 16.780,212.415 17.000 C 208.449 20.903,203.428 26.277,203.512 26.530 C 203.571 26.711,203.435 26.745,203.210 26.606 C 202.984 26.467,202.800 26.554,202.800 26.800 C 202.800 27.046,202.620 27.136,202.400 27.000 C 202.180 26.864,202.000 26.935,202.000 27.157 C 202.000 27.379,200.747 28.785,199.216 30.281 C 197.685 31.776,196.223 33.204,195.968 33.452 C 195.364 34.042,184.042 45.364,183.452 45.968 C 183.204 46.223,181.776 47.685,180.281 49.216 C 178.785 50.747,177.360 52.000,177.114 52.000 C 176.868 52.000,176.770 52.104,176.897 52.230 C 177.023 52.357,174.938 54.610,172.263 57.237 C 169.589 59.864,167.220 62.195,167.000 62.417 C 166.480 62.942,162.815 66.607,162.362 67.055 C 162.171 67.245,159.864 69.589,157.237 72.263 C 154.610 74.938,152.357 77.023,152.230 76.897 C 152.104 76.770,152.000 76.868,152.000 77.114 C 152.000 77.487,150.791 78.759,146.021 83.400 C 145.484 83.922,134.163 95.243,133.505 95.916 C 133.227 96.200,131.776 97.685,130.281 99.216 C 128.785 100.747,127.360 102.000,127.114 102.000 C 126.868 102.000,126.770 102.104,126.897 102.230 C 127.023 102.357,124.938 104.610,122.263 107.237 C 119.589 109.864,117.245 112.171,117.055 112.362 C 116.281 113.145,112.682 116.738,112.305 117.105 C 110.416 118.946,109.200 120.403,109.200 120.827 C 109.200 121.105,109.094 121.227,108.964 121.097 C 108.834 120.967,107.315 122.268,105.588 123.988 C 103.861 125.708,102.347 127.014,102.224 126.891 C 102.101 126.768,102.000 126.850,102.000 127.074 C 102.000 127.400,98.625 130.980,95.987 133.452 C 95.378 134.023,84.063 145.337,83.452 145.985 C 80.895 148.702,79.069 150.400,78.707 150.400 C 78.465 150.400,78.388 150.521,78.537 150.670 C 78.685 150.818,78.310 151.267,77.703 151.667 C 77.096 152.067,76.727 152.396,76.881 152.397 C 77.036 152.399,75.729 153.840,73.976 155.600 C 72.223 157.360,70.926 158.811,71.094 158.825 C 71.262 158.839,71.003 159.011,70.518 159.206 C 70.032 159.401,61.273 159.589,51.053 159.622 C 36.339 159.670,31.902 159.806,29.735 160.274 C 28.231 160.599,26.780 160.905,26.512 160.954 C 26.243 161.003,25.910 161.156,25.772 161.294 C 25.635 161.432,25.286 161.454,24.997 161.343 C 24.708 161.233,23.911 161.432,23.224 161.787 C 22.538 162.142,21.813 162.332,21.613 162.208 C 21.413 162.084,21.064 162.302,20.837 162.692 C 20.610 163.081,20.416 163.220,20.406 163.000 C 20.396 162.780,20.213 162.870,20.000 163.200 C 19.726 163.624,19.610 163.649,19.606 163.284 C 19.602 162.953,19.287 163.060,18.725 163.584 C 18.243 164.033,17.613 164.400,17.325 164.400 C 17.036 164.400,16.800 164.591,16.800 164.824 C 16.800 165.057,16.639 165.148,16.442 165.026 C 16.245 164.904,15.977 165.082,15.847 165.421 C 15.717 165.760,15.068 166.227,14.405 166.458 C 13.742 166.689,13.200 167.041,13.200 167.239 C 13.200 167.438,12.930 167.600,12.600 167.600 C 12.270 167.600,12.000 167.748,12.000 167.928 C 12.000 168.108,10.650 169.641,9.000 171.335 C 6.085 174.326,5.469 175.128,6.500 174.583 C 6.775 174.438,6.400 174.870,5.666 175.543 C 4.932 176.215,4.447 176.953,4.589 177.183 C 4.731 177.412,4.672 177.600,4.458 177.600 C 3.985 177.600,1.200 183.138,1.200 184.080 C 1.200 184.450,1.015 184.867,0.789 185.006 C 0.002 185.493,-0.087 374.074,0.700 374.860 C 0.975 375.135,1.200 375.774,1.200 376.280 C 1.200 376.786,1.380 377.200,1.600 377.200 C 1.820 377.200,2.000 377.740,2.000 378.400 C 2.000 379.060,2.180 379.600,2.400 379.600 C 2.620 379.600,2.803 380.095,2.806 380.700 C 2.811 381.557,2.898 381.668,3.200 381.200 C 3.502 380.732,3.589 380.843,3.594 381.700 C 3.597 382.305,3.780 382.800,4.000 382.800 C 4.220 382.800,4.400 383.070,4.400 383.400 C 4.400 383.730,4.580 384.000,4.800 384.000 C 5.020 384.000,5.200 384.255,5.200 384.568 C 5.200 384.880,5.821 385.721,6.581 386.437 C 7.340 387.153,7.852 387.916,7.719 388.131 C 7.584 388.350,7.681 388.397,7.938 388.238 C 8.215 388.067,8.400 388.213,8.400 388.600 C 8.400 388.956,8.580 389.136,8.800 389.000 C 9.020 388.864,9.200 388.993,9.200 389.287 C 9.200 389.926,10.632 391.234,10.966 390.900 C 11.095 390.772,11.200 390.961,11.200 391.321 C 11.200 391.681,11.425 391.890,11.700 391.785 C 11.975 391.681,12.560 392.136,13.000 392.797 C 13.440 393.457,14.025 393.998,14.300 393.999 C 14.575 393.999,14.800 394.180,14.800 394.400 C 14.800 394.620,14.988 394.800,15.217 394.800 C 15.446 394.800,16.020 395.160,16.492 395.600 C 16.964 396.040,17.677 396.400,18.075 396.400 C 18.474 396.400,18.800 396.599,18.800 396.843 C 18.800 397.086,19.070 397.182,19.400 397.055 C 19.730 396.929,20.000 396.985,20.000 397.181 C 20.000 397.376,20.540 397.655,21.200 397.800 C 21.860 397.945,22.400 398.229,22.400 398.432 C 22.400 398.634,22.940 398.800,23.600 398.800 C 24.260 398.800,24.800 398.950,24.800 399.133 C 24.800 399.728,24.181 399.725,167.400 399.884 C 303.556 400.035,315.081 399.979,314.579 399.166 C 314.454 398.965,314.993 398.800,315.776 398.800 C 316.559 398.800,317.200 398.620,317.200 398.400 C 317.200 398.180,317.549 398.000,317.976 398.000 C 318.403 398.000,318.864 397.820,319.000 397.600 C 319.136 397.380,319.597 397.200,320.024 397.200 C 320.451 397.200,320.800 397.042,320.800 396.849 C 320.800 396.655,321.385 396.260,322.100 395.971 C 322.815 395.681,323.691 395.119,324.047 394.722 C 324.403 394.325,324.854 394.000,325.049 394.000 C 325.244 394.000,326.169 393.280,327.103 392.400 C 328.037 391.520,328.969 390.800,329.174 390.800 C 329.379 390.800,329.665 390.426,329.810 389.970 C 329.954 389.513,330.158 389.224,330.261 389.327 C 330.446 389.512,332.400 387.735,332.400 387.382 C 332.400 387.282,332.715 386.853,333.100 386.429 C 334.448 384.943,334.800 384.430,334.800 383.948 C 334.800 383.681,335.047 383.179,335.348 382.831 C 336.435 381.579,338.040 378.280,337.829 377.731 C 337.710 377.422,337.890 377.063,338.229 376.934 C 338.573 376.802,338.796 376.324,338.734 375.849 C 338.674 375.382,338.784 374.744,338.978 374.432 C 339.310 373.898,339.634 371.886,339.644 370.291 C 339.646 369.902,339.812 369.684,340.011 369.807 C 340.228 369.941,340.384 341.791,340.399 299.916 C 340.415 254.780,340.562 229.836,340.812 229.900 C 341.025 229.955,341.200 229.836,341.200 229.636 C 341.200 229.085,345.428 224.800,345.972 224.800 C 346.233 224.800,346.336 224.620,346.200 224.400 C 346.064 224.180,346.233 224.000,346.576 224.000 C 346.919 224.000,347.200 223.719,347.200 223.376 C 347.200 223.033,347.367 222.856,347.571 222.982 C 347.775 223.108,348.057 222.849,348.198 222.406 C 348.339 221.963,348.722 221.600,349.051 221.600 C 349.379 221.600,349.536 221.420,349.400 221.200 C 349.264 220.980,349.356 220.800,349.605 220.800 C 350.189 220.800,351.200 219.789,351.200 219.205 C 351.200 218.956,351.380 218.864,351.600 219.000 C 351.820 219.136,352.000 218.937,352.000 218.557 C 352.000 218.177,352.117 217.983,352.260 218.126 C 352.532 218.399,354.399 216.436,354.400 215.876 C 354.400 215.698,354.580 215.664,354.800 215.800 C 355.020 215.936,355.200 215.779,355.200 215.451 C 355.200 215.122,355.556 214.741,355.992 214.603 C 356.427 214.464,356.742 214.137,356.692 213.876 C 356.641 213.614,356.825 213.445,357.100 213.500 C 357.375 213.555,357.555 213.375,357.500 213.100 C 357.445 212.825,357.625 212.645,357.900 212.700 C 358.175 212.755,358.400 212.606,358.400 212.368 C 358.400 212.131,359.196 211.141,360.168 210.168 C 361.141 209.196,362.131 208.400,362.368 208.400 C 362.606 208.400,362.755 208.175,362.700 207.900 C 362.645 207.625,362.825 207.445,363.100 207.500 C 363.375 207.555,363.555 207.375,363.500 207.100 C 363.445 206.825,363.614 206.641,363.876 206.692 C 364.137 206.742,364.464 206.427,364.603 205.992 C 364.741 205.556,365.142 205.200,365.494 205.200 C 365.845 205.200,366.022 205.089,365.886 204.952 C 365.632 204.699,366.537 203.600,367.000 203.600 C 367.463 203.600,368.368 202.501,368.114 202.248 C 367.978 202.111,368.177 202.000,368.557 202.000 C 368.937 202.000,369.136 201.820,369.000 201.600 C 368.864 201.380,368.956 201.200,369.205 201.200 C 369.454 201.200,369.914 200.943,370.229 200.629 C 370.543 200.314,370.800 199.854,370.800 199.605 C 370.800 199.356,370.980 199.264,371.200 199.400 C 371.420 199.536,371.600 199.379,371.600 199.051 C 371.600 198.722,371.956 198.341,372.392 198.203 C 372.827 198.064,373.142 197.811,373.092 197.640 C 372.969 197.225,379.037 191.200,379.577 191.200 C 379.810 191.200,379.955 190.975,379.900 190.700 C 379.845 190.425,379.987 190.232,380.216 190.272 C 380.444 190.311,380.984 189.817,381.416 189.173 C 381.847 188.529,382.425 188.002,382.700 188.001 C 382.975 188.001,383.200 187.700,383.200 187.333 C 383.200 186.967,383.306 186.773,383.435 186.902 C 383.565 187.032,384.510 186.228,385.535 185.118 C 386.561 184.007,388.255 182.188,389.300 181.075 C 390.345 179.963,391.200 178.906,391.200 178.726 C 391.200 178.547,391.393 178.400,391.629 178.400 C 392.231 178.400,393.200 177.362,393.200 176.717 C 393.200 176.420,393.560 175.917,394.000 175.600 C 394.440 175.283,394.800 174.786,394.800 174.495 C 394.800 174.204,395.160 173.580,395.600 173.108 C 396.040 172.636,396.400 172.013,396.400 171.725 C 396.400 171.436,396.580 171.200,396.800 171.200 C 397.020 171.200,397.200 170.840,397.200 170.400 C 397.200 169.960,397.380 169.600,397.600 169.600 C 397.820 169.600,398.000 169.276,398.000 168.880 C 398.000 168.067,398.879 166.008,399.229 166.003 C 399.621 165.998,399.800 162.103,399.800 153.560 C 399.800 145.390,399.759 145.068,398.353 142.305 C 398.159 141.923,398.000 141.338,398.000 141.005 C 398.000 140.672,397.820 140.400,397.600 140.400 C 397.380 140.400,397.194 139.995,397.187 139.500 C 397.173 138.480,396.255 137.078,395.860 137.473 C 395.717 137.616,395.600 137.444,395.600 137.090 C 395.600 136.213,394.044 133.629,392.751 132.358 C 392.168 131.785,391.569 130.933,391.421 130.466 C 391.273 129.999,391.027 129.634,390.876 129.655 C 390.155 129.758,389.572 129.569,389.745 129.288 C 389.987 128.898,386.237 124.800,385.639 124.800 C 385.398 124.800,385.200 124.639,385.200 124.441 C 385.200 124.089,369.761 108.400,369.414 108.400 C 369.316 108.400,368.786 107.950,368.236 107.400 C 367.686 106.850,367.321 106.400,367.425 106.400 C 367.529 106.400,366.966 105.770,366.173 105.000 C 365.380 104.230,364.537 103.600,364.299 103.600 C 364.061 103.600,363.976 103.491,364.109 103.358 C 364.392 103.075,362.614 101.200,362.064 101.200 C 361.859 101.200,361.421 100.787,361.091 100.282 C 360.183 98.898,346.855 85.678,346.612 85.922 C 346.495 86.038,346.400 85.910,346.400 85.638 C 346.400 84.995,345.369 83.964,345.048 84.286 C 344.911 84.422,344.800 84.341,344.800 84.106 C 344.800 83.584,336.085 74.800,335.568 74.800 C 335.366 74.800,335.200 74.632,335.200 74.427 C 335.200 74.068,319.763 58.400,319.410 58.400 C 319.314 58.400,318.786 57.950,318.236 57.400 C 317.686 56.850,317.331 56.400,317.447 56.400 C 317.562 56.400,317.387 56.130,317.057 55.800 C 316.727 55.470,316.234 55.200,315.962 55.200 C 315.690 55.200,315.578 55.089,315.714 54.952 C 316.036 54.631,315.005 53.600,314.362 53.600 C 314.090 53.600,313.976 53.491,314.109 53.358 C 314.392 53.075,312.614 51.200,312.064 51.200 C 311.859 51.200,311.401 50.756,311.046 50.214 C 310.224 48.960,300.073 38.914,299.345 38.634 C 299.045 38.519,298.800 38.231,298.800 37.994 C 298.800 37.402,296.942 35.591,296.642 35.891 C 296.509 36.024,296.400 35.910,296.400 35.638 C 296.400 34.995,295.369 33.964,295.048 34.286 C 294.911 34.422,294.800 34.343,294.800 34.110 C 294.800 33.639,271.753 10.470,270.556 9.737 C 270.140 9.483,269.841 9.089,269.892 8.862 C 269.942 8.635,269.622 8.334,269.179 8.193 C 268.736 8.053,267.938 7.502,267.405 6.969 C 266.872 6.436,266.148 6.000,265.795 6.000 C 265.442 6.000,265.245 5.850,265.358 5.668 C 265.471 5.485,264.942 5.091,264.182 4.793 C 263.422 4.495,262.800 4.104,262.800 3.925 C 262.800 3.746,262.440 3.600,262.000 3.600 C 261.560 3.600,261.200 3.420,261.200 3.200 C 261.200 2.980,260.840 2.800,260.400 2.800 C 259.960 2.800,259.600 2.620,259.600 2.400 C 259.600 2.180,259.251 2.000,258.824 2.000 C 258.397 2.000,257.936 1.820,257.800 1.600 C 257.664 1.380,257.128 1.200,256.610 1.200 C 256.091 1.200,255.592 0.977,255.501 0.704 C 255.332 0.196,238.059 -0.345,237.585 0.142 M247.500 24.426 C 247.652 24.539,248.078 24.659,249.500 24.994 C 250.215 25.162,250.800 25.457,250.800 25.650 C 250.800 25.843,250.990 26.000,251.222 26.000 C 251.454 26.000,252.694 27.070,253.978 28.378 C 255.261 29.685,256.421 30.645,256.556 30.511 C 256.690 30.377,256.800 30.482,256.800 30.746 C 256.800 31.009,257.861 32.288,259.157 33.589 C 260.453 34.889,261.413 36.054,261.290 36.176 C 261.167 36.299,261.286 36.400,261.553 36.400 C 261.820 36.400,264.623 38.998,267.780 42.173 C 270.937 45.348,273.628 47.838,273.760 47.706 C 273.892 47.575,274.000 47.695,274.000 47.973 C 274.000 48.251,274.885 49.346,275.967 50.406 C 277.049 51.465,277.859 52.437,277.767 52.566 C 277.675 52.695,277.723 52.707,277.872 52.594 C 278.254 52.306,280.418 54.448,280.162 54.861 C 280.047 55.048,280.157 55.200,280.406 55.200 C 280.655 55.200,282.896 57.260,285.386 59.777 C 287.875 62.295,290.022 64.245,290.156 64.110 C 290.290 63.976,290.400 64.081,290.400 64.342 C 290.400 64.603,291.390 65.823,292.600 67.053 C 293.810 68.282,294.800 69.448,294.800 69.644 C 294.800 69.840,295.039 70.000,295.330 70.000 C 296.053 70.000,297.682 71.785,297.304 72.163 C 297.137 72.330,297.181 72.407,297.403 72.333 C 297.624 72.260,299.722 74.123,302.063 76.473 C 304.405 78.823,306.429 80.638,306.561 80.506 C 306.692 80.374,306.800 80.482,306.800 80.746 C 306.800 81.009,307.871 82.299,309.180 83.612 C 310.489 84.926,311.434 86.007,311.280 86.016 C 311.126 86.025,311.476 86.291,312.058 86.607 C 312.639 86.923,313.307 87.732,313.542 88.404 C 313.793 89.125,313.810 89.530,313.584 89.390 C 313.373 89.260,313.200 89.373,313.200 89.643 C 313.200 89.913,313.109 90.042,312.997 89.930 C 312.753 89.686,308.400 93.976,308.400 94.461 C 308.400 94.784,307.778 94.960,307.070 94.837 C 306.889 94.806,306.847 94.952,306.977 95.162 C 307.107 95.373,307.027 95.660,306.800 95.800 C 306.573 95.940,306.508 96.251,306.655 96.489 C 306.805 96.732,306.739 96.810,306.505 96.665 C 306.061 96.391,302.767 99.434,303.124 99.790 C 303.239 99.906,303.088 100.000,302.789 100.000 C 302.045 100.000,300.000 102.010,300.000 102.742 C 300.000 103.067,299.902 103.235,299.782 103.116 C 299.411 102.744,296.367 106.022,296.653 106.486 C 296.809 106.739,296.740 106.810,296.489 106.655 C 296.251 106.508,295.940 106.573,295.800 106.800 C 295.660 107.027,295.373 107.107,295.162 106.977 C 294.952 106.847,294.806 106.889,294.837 107.070 C 294.960 107.778,294.784 108.400,294.461 108.400 C 293.976 108.400,289.686 112.753,289.930 112.997 C 290.042 113.109,289.913 113.200,289.643 113.200 C 289.373 113.200,289.263 113.378,289.397 113.595 C 289.532 113.813,289.407 113.907,289.121 113.804 C 288.834 113.702,288.150 114.239,287.600 114.998 C 287.050 115.757,286.414 116.383,286.186 116.389 C 285.958 116.395,284.269 118.015,282.431 119.990 C 280.594 121.964,278.945 123.490,278.766 123.379 C 278.588 123.269,278.512 123.543,278.598 123.989 C 278.711 124.579,278.542 124.800,277.977 124.800 C 277.550 124.800,277.200 124.980,277.200 125.200 C 277.200 125.719,275.719 127.200,275.200 127.200 C 274.980 127.200,274.800 127.550,274.800 127.977 C 274.800 128.531,274.577 128.711,274.023 128.604 C 273.471 128.498,273.312 128.626,273.472 129.044 C 273.596 129.368,273.541 129.586,273.349 129.528 C 272.915 129.398,266.400 135.834,266.400 136.393 C 266.400 136.617,266.246 136.800,266.058 136.800 C 265.374 136.800,263.561 138.813,263.839 139.264 C 264.015 139.548,263.947 139.615,263.662 139.438 C 263.408 139.281,263.200 139.373,263.200 139.643 C 263.200 139.913,263.106 140.040,262.992 139.926 C 262.728 139.661,256.183 146.097,256.307 146.500 C 256.358 146.665,256.119 146.800,255.776 146.800 C 255.433 146.800,255.264 146.980,255.400 147.200 C 255.536 147.420,255.464 147.600,255.240 147.600 C 254.686 147.600,251.600 150.659,251.600 151.208 C 251.600 151.449,251.440 151.549,251.245 151.428 C 250.780 151.141,249.919 152.185,250.303 152.570 C 250.467 152.733,250.420 152.812,250.200 152.745 C 249.592 152.560,246.344 155.985,246.653 156.486 C 246.809 156.739,246.740 156.810,246.489 156.655 C 246.251 156.508,245.940 156.573,245.800 156.800 C 245.660 157.027,245.332 157.091,245.072 156.942 C 244.813 156.794,244.724 156.810,244.876 156.978 C 245.027 157.147,244.712 157.724,244.176 158.261 C 243.639 158.797,243.200 159.363,243.200 159.518 C 243.200 159.821,106.924 159.724,106.118 159.420 C 105.826 159.310,106.298 158.546,107.318 157.478 C 108.243 156.509,109.059 155.765,109.132 155.824 C 109.384 156.028,116.599 148.337,116.500 147.970 C 116.445 147.766,116.552 147.645,116.738 147.700 C 117.127 147.815,120.805 144.538,120.562 144.295 C 120.473 144.207,120.851 143.894,121.401 143.600 C 121.950 143.306,122.400 142.919,122.400 142.741 C 122.400 142.462,124.439 140.385,127.691 137.352 C 128.191 136.886,128.887 136.166,129.238 135.752 C 129.588 135.338,130.254 134.742,130.716 134.427 C 131.179 134.112,131.466 133.707,131.355 133.527 C 131.244 133.347,131.403 133.200,131.709 133.200 C 132.015 133.200,132.502 132.756,132.793 132.214 C 133.083 131.671,133.473 131.322,133.660 131.437 C 133.847 131.553,134.000 131.484,134.000 131.285 C 134.000 130.722,135.438 129.200,135.971 129.200 C 136.233 129.200,136.336 129.020,136.200 128.800 C 136.064 128.580,136.149 128.400,136.390 128.400 C 137.161 128.400,139.657 125.618,139.356 125.094 C 139.199 124.822,139.213 124.727,139.385 124.883 C 139.558 125.038,140.749 124.115,142.032 122.832 C 143.315 121.549,144.463 120.596,144.583 120.716 C 144.702 120.836,144.800 120.603,144.800 120.200 C 144.800 119.797,144.898 119.564,145.017 119.684 C 145.279 119.946,148.000 117.364,148.000 116.853 C 148.000 116.654,148.495 116.168,149.100 115.773 C 150.366 114.945,151.377 114.000,150.998 114.000 C 150.855 114.000,151.337 113.507,152.069 112.904 C 153.321 111.872,153.985 111.195,157.700 107.163 C 158.525 106.267,159.200 105.645,159.200 105.781 C 159.200 106.083,161.408 103.866,162.900 102.066 C 163.505 101.336,164.000 100.855,164.000 100.998 C 164.000 101.377,164.945 100.366,165.773 99.100 C 166.168 98.495,166.654 98.000,166.853 98.000 C 167.364 98.000,169.946 95.279,169.684 95.017 C 169.564 94.898,169.777 94.800,170.157 94.800 C 170.537 94.800,170.753 94.647,170.637 94.460 C 170.522 94.273,170.877 93.880,171.428 93.585 C 171.978 93.291,172.338 92.816,172.228 92.530 C 172.119 92.244,172.176 92.052,172.356 92.105 C 172.536 92.157,173.414 91.480,174.307 90.600 C 175.200 89.720,176.481 88.550,177.154 88.000 C 177.826 87.450,178.381 86.764,178.388 86.476 C 178.395 86.188,178.580 86.064,178.800 86.200 C 179.020 86.336,179.200 86.167,179.200 85.824 C 179.200 85.481,179.352 85.200,179.539 85.200 C 179.725 85.200,180.293 84.840,180.800 84.400 C 181.307 83.960,181.616 83.600,181.487 83.600 C 181.357 83.600,181.735 83.099,182.326 82.488 C 182.916 81.876,183.472 81.422,183.559 81.480 C 183.783 81.628,185.200 79.951,185.200 79.539 C 185.200 79.352,185.481 79.200,185.824 79.200 C 186.167 79.200,186.336 79.020,186.200 78.800 C 186.064 78.580,186.149 78.400,186.390 78.400 C 187.161 78.400,189.657 75.618,189.356 75.094 C 189.199 74.822,189.206 74.720,189.370 74.867 C 189.534 75.014,190.320 74.519,191.117 73.767 C 191.914 73.015,192.679 72.400,192.816 72.400 C 192.953 72.400,193.302 71.956,193.593 71.414 C 193.883 70.871,194.273 70.522,194.460 70.637 C 194.647 70.753,194.800 70.537,194.800 70.157 C 194.800 69.777,194.898 69.564,195.017 69.684 C 195.279 69.946,198.000 67.364,198.000 66.853 C 198.000 66.654,198.495 66.168,199.100 65.773 C 200.366 64.945,201.377 64.000,200.998 64.000 C 200.855 64.000,201.337 63.507,202.069 62.904 C 202.801 62.300,204.030 61.124,204.800 60.289 C 206.490 58.456,208.064 56.884,210.202 54.892 C 211.083 54.072,212.298 52.801,212.902 52.069 C 213.506 51.337,214.000 50.855,214.000 50.998 C 214.000 51.377,214.945 50.366,215.773 49.100 C 216.168 48.495,216.654 48.000,216.853 48.000 C 217.364 48.000,219.946 45.279,219.684 45.017 C 219.564 44.898,219.777 44.800,220.157 44.800 C 220.537 44.800,220.753 44.647,220.637 44.460 C 220.522 44.273,220.877 43.880,221.428 43.585 C 221.978 43.291,222.338 42.816,222.228 42.530 C 222.119 42.244,222.180 42.052,222.366 42.105 C 222.868 42.247,225.182 39.720,224.869 39.372 C 224.721 39.207,224.822 39.199,225.094 39.356 C 225.618 39.657,228.400 37.161,228.400 36.390 C 228.400 36.149,228.580 36.064,228.800 36.200 C 229.020 36.336,229.200 36.167,229.200 35.824 C 229.200 35.481,229.352 35.200,229.539 35.200 C 229.951 35.200,231.628 33.783,231.480 33.559 C 231.422 33.472,231.876 32.916,232.488 32.326 C 233.099 31.735,233.600 31.357,233.600 31.487 C 233.600 31.616,233.960 31.307,234.400 30.800 C 234.840 30.293,235.200 29.725,235.200 29.539 C 235.200 29.352,235.481 29.200,235.824 29.200 C 236.167 29.200,236.336 29.020,236.200 28.800 C 236.064 28.580,236.121 28.400,236.327 28.400 C 236.533 28.400,237.460 27.685,238.388 26.811 C 239.370 25.886,240.647 25.115,241.442 24.966 C 242.194 24.825,242.879 24.595,242.966 24.455 C 243.099 24.238,247.211 24.212,247.500 24.426 M340.163 114.104 C 340.293 113.973,340.400 114.081,340.400 114.342 C 340.400 114.603,341.390 115.823,342.600 117.053 C 343.810 118.282,344.800 119.448,344.800 119.644 C 344.800 119.840,345.039 120.000,345.330 120.000 C 345.811 120.000,347.970 121.958,347.570 122.031 C 346.286 122.262,345.891 122.376,345.697 122.570 C 345.570 122.696,345.687 122.800,345.957 122.800 C 346.227 122.800,346.334 122.983,346.196 123.207 C 346.058 123.430,345.822 123.544,345.672 123.459 C 345.377 123.292,343.607 124.991,343.553 125.493 C 343.535 125.662,343.358 125.755,343.160 125.700 C 342.962 125.645,342.821 125.735,342.847 125.900 C 342.972 126.690,342.749 126.940,342.400 126.400 C 342.104 125.942,342.011 125.927,342.006 126.340 C 342.000 126.858,339.962 129.002,339.220 129.270 C 339.022 129.342,338.802 129.665,338.730 129.989 C 338.659 130.313,338.240 130.778,337.800 131.022 C 337.360 131.266,337.045 131.676,337.100 131.933 C 337.155 132.190,336.975 132.355,336.700 132.300 C 336.425 132.245,336.245 132.425,336.300 132.700 C 336.355 132.975,336.175 133.155,335.900 133.100 C 335.625 133.045,335.445 133.225,335.500 133.500 C 335.555 133.775,335.375 133.955,335.100 133.900 C 334.825 133.845,334.645 134.025,334.700 134.300 C 334.755 134.575,334.575 134.755,334.300 134.700 C 334.025 134.645,333.845 134.825,333.900 135.100 C 333.955 135.375,333.775 135.555,333.500 135.500 C 333.225 135.445,333.045 135.625,333.100 135.900 C 333.155 136.175,332.975 136.355,332.700 136.300 C 332.425 136.245,332.245 136.425,332.300 136.700 C 332.355 136.975,332.190 137.155,331.933 137.100 C 331.676 137.045,331.266 137.360,331.022 137.800 C 330.778 138.240,330.313 138.658,329.989 138.730 C 329.665 138.801,329.342 139.022,329.270 139.220 C 329.002 139.962,326.858 142.000,326.340 142.006 C 325.927 142.011,325.942 142.104,326.400 142.400 C 326.940 142.749,326.690 142.972,325.900 142.847 C 325.735 142.821,325.645 142.962,325.700 143.160 C 325.755 143.358,325.662 143.535,325.493 143.553 C 324.991 143.607,323.292 145.377,323.459 145.672 C 323.544 145.822,323.430 146.058,323.207 146.196 C 322.983 146.334,322.797 146.212,322.794 145.924 C 322.789 145.532,322.695 145.547,322.420 145.981 C 322.218 146.300,322.142 146.705,322.250 146.881 C 322.358 147.056,322.137 147.200,321.757 147.200 C 321.377 147.200,321.186 147.319,321.331 147.464 C 321.476 147.610,321.191 147.939,320.698 148.197 C 320.204 148.455,319.860 148.921,319.933 149.233 C 320.007 149.545,319.931 149.665,319.766 149.499 C 319.379 149.112,317.947 150.391,318.239 150.863 C 318.360 151.059,318.221 151.170,317.930 151.110 C 317.638 151.049,317.445 151.225,317.500 151.500 C 317.555 151.775,317.375 151.955,317.100 151.900 C 316.825 151.845,316.645 152.025,316.700 152.300 C 316.755 152.575,316.575 152.755,316.300 152.700 C 316.025 152.645,315.845 152.825,315.900 153.100 C 315.955 153.375,315.790 153.555,315.533 153.500 C 315.276 153.445,314.855 153.804,314.597 154.298 C 314.339 154.791,314.010 155.076,313.864 154.931 C 313.719 154.786,313.597 155.012,313.594 155.433 C 313.589 156.075,313.524 156.102,313.200 155.600 C 312.817 155.007,312.589 155.465,312.753 156.500 C 312.779 156.665,312.562 156.800,312.272 156.800 C 311.736 156.800,310.004 158.555,310.002 159.101 C 310.001 159.266,309.820 159.423,309.600 159.450 C 309.380 159.478,309.065 159.535,308.900 159.578 C 306.675 160.158,277.820 159.704,278.516 159.100 C 278.960 158.715,279.444 158.400,279.594 158.400 C 279.743 158.400,280.084 157.991,280.352 157.490 C 280.619 156.990,281.360 156.230,281.997 155.802 C 282.635 155.373,283.106 154.973,283.045 154.911 C 282.902 154.768,288.056 149.606,288.367 149.582 C 288.495 149.571,289.230 148.840,290.000 147.957 C 292.476 145.116,298.061 139.600,298.460 139.600 C 298.673 139.600,298.736 139.420,298.600 139.200 C 298.464 138.980,298.644 138.800,299.000 138.800 C 299.356 138.800,299.536 138.620,299.400 138.400 C 299.264 138.180,299.356 138.000,299.605 138.000 C 300.178 138.000,301.200 136.993,301.200 136.429 C 301.200 136.193,301.353 136.000,301.539 136.000 C 301.981 136.000,306.400 131.581,306.400 131.139 C 306.400 130.953,306.670 130.800,307.000 130.800 C 307.330 130.800,307.600 130.633,307.600 130.429 C 307.600 129.947,315.994 121.600,316.478 121.600 C 316.681 121.600,316.736 121.420,316.600 121.200 C 316.464 120.980,316.548 120.800,316.787 120.800 C 317.177 120.800,320.800 117.434,320.800 117.072 C 320.800 116.990,323.237 114.473,326.216 111.479 L 331.631 106.035 335.779 110.188 C 338.060 112.472,340.033 114.234,340.163 114.104 M374.000 148.979 C 374.000 149.320,374.136 149.600,374.302 149.600 C 375.389 149.600,376.309 157.964,375.261 158.313 C 375.007 158.398,374.800 158.812,374.800 159.233 C 374.800 159.655,374.654 160.000,374.475 160.000 C 374.296 160.000,373.905 160.622,373.607 161.382 C 373.309 162.142,372.929 162.680,372.764 162.578 C 372.598 162.475,371.594 163.337,370.531 164.493 C 369.469 165.650,367.447 167.676,366.037 168.998 C 364.628 170.319,363.278 171.630,363.037 171.912 C 361.821 173.336,355.914 179.203,355.675 179.225 C 355.524 179.239,354.417 180.396,353.215 181.796 C 352.013 183.197,350.884 184.252,350.705 184.141 C 350.526 184.031,350.420 184.089,350.470 184.270 C 350.576 184.661,344.795 190.400,344.296 190.400 C 344.107 190.400,344.013 190.535,344.086 190.700 C 344.231 191.024,341.091 194.149,340.490 194.279 C 340.289 194.323,340.207 193.531,340.308 192.521 C 340.437 191.223,340.329 190.592,339.940 190.375 C 339.577 190.171,339.401 189.374,339.425 188.033 C 339.451 186.519,339.314 186.000,338.887 186.000 C 338.521 186.000,338.405 185.764,338.566 185.344 C 338.864 184.568,338.475 183.107,338.042 183.374 C 337.876 183.477,337.754 183.164,337.770 182.680 C 337.787 182.196,337.593 181.839,337.341 181.886 C 337.069 181.937,336.966 181.652,337.088 181.186 C 337.213 180.706,337.093 180.400,336.780 180.400 C 336.498 180.400,336.379 180.287,336.517 180.149 C 336.848 179.819,335.692 177.600,335.190 177.600 C 334.975 177.600,334.800 177.240,334.800 176.800 C 334.800 176.360,334.620 176.000,334.400 176.000 C 334.180 176.000,334.000 175.796,334.000 175.547 C 334.000 175.298,333.612 174.758,333.139 174.347 C 332.665 173.936,332.492 173.600,332.755 173.600 C 333.105 173.600,333.095 173.452,332.716 173.042 C 332.432 172.735,332.065 172.566,331.900 172.666 C 331.735 172.765,331.600 172.723,331.600 172.571 C 331.600 172.191,333.238 170.800,333.685 170.800 C 333.884 170.800,333.957 170.655,333.848 170.477 C 333.738 170.299,334.084 169.827,334.616 169.427 C 335.149 169.027,335.471 168.514,335.331 168.288 C 335.191 168.062,335.250 167.984,335.463 168.115 C 335.829 168.342,338.000 166.768,338.000 166.276 C 338.000 165.874,348.332 155.665,348.534 155.867 C 348.640 155.973,348.846 155.687,348.990 155.230 C 349.135 154.774,349.438 154.400,349.663 154.400 C 350.190 154.400,351.569 152.751,351.587 152.100 C 351.594 151.825,351.738 151.645,351.908 151.700 C 352.345 151.842,354.400 150.168,354.400 149.669 C 354.400 149.441,354.774 149.135,355.230 148.990 C 355.687 148.846,355.983 148.650,355.889 148.556 C 355.795 148.461,357.764 146.319,360.265 143.794 L 364.813 139.204 369.406 143.781 C 371.933 146.298,374.000 148.637,374.000 148.979 M307.758 185.268 C 307.562 185.585,307.689 185.652,308.150 185.475 C 308.550 185.321,308.913 185.430,309.032 185.739 C 309.143 186.027,309.848 186.505,310.599 186.799 C 311.349 187.094,311.871 187.485,311.758 187.668 C 311.645 187.850,311.754 188.000,312.000 188.000 C 312.246 188.000,312.337 188.178,312.203 188.395 C 312.057 188.631,312.249 188.686,312.679 188.532 C 313.076 188.389,313.270 188.416,313.112 188.591 C 312.953 188.766,313.178 189.408,313.612 190.017 C 314.045 190.625,314.400 191.411,314.400 191.762 C 314.400 192.113,314.625 192.400,314.900 192.400 C 315.299 192.400,315.380 210.075,315.303 279.700 C 315.199 372.755,315.285 368.658,313.396 370.547 C 313.037 370.906,312.928 371.200,313.154 371.200 C 314.185 371.200,309.640 374.695,308.000 375.163 C 307.010 375.446,305.961 375.795,305.669 375.939 C 304.579 376.475,31.880 375.840,31.700 375.300 C 31.608 375.025,31.188 374.800,30.767 374.800 C 30.345 374.800,30.000 374.620,30.000 374.400 C 30.000 374.180,29.640 374.000,29.200 374.000 C 28.760 374.000,28.400 373.841,28.400 373.647 C 28.400 373.452,28.040 373.199,27.600 373.084 C 27.160 372.969,26.800 372.588,26.800 372.237 C 26.800 371.887,26.647 371.600,26.461 371.600 C 25.908 371.600,24.616 368.366,24.582 366.898 C 24.565 366.151,24.381 365.419,24.175 365.270 C 23.725 364.946,23.649 195.512,24.099 195.177 C 24.263 195.055,24.466 194.425,24.550 193.777 C 24.841 191.530,25.332 190.196,26.125 189.500 C 26.564 189.115,26.781 188.800,26.607 188.800 C 26.434 188.800,26.750 188.440,27.309 188.000 C 27.869 187.560,28.523 187.200,28.763 187.200 C 29.003 187.200,29.200 186.915,29.200 186.567 C 29.200 186.218,29.425 186.008,29.700 186.100 C 29.975 186.192,30.740 185.937,31.400 185.535 C 32.896 184.623,308.321 184.357,307.758 185.268 M46.506 254.300 L 46.600 290.200 85.400 290.314 C 106.740 290.376,124.785 290.323,125.500 290.196 L 126.800 289.964 126.800 254.425 C 126.800 222.387,126.738 218.862,126.167 218.643 C 125.819 218.509,107.732 218.400,85.973 218.400 L 46.412 218.400 46.506 254.300 M102.000 254.200 L 102.000 265.200 86.400 265.200 L 70.800 265.200 70.800 254.200 L 70.800 243.200 86.400 243.200 L 102.000 243.200 102.000 254.200 M46.400 329.200 L 46.400 341.607 68.603 341.503 L 90.807 341.400 90.837 329.200 L 90.867 317.000 68.634 316.897 L 46.400 316.793 46.400 329.200 M113.836 317.142 C 113.720 317.330,113.625 322.910,113.625 329.542 L 113.625 341.600 135.580 341.600 C 147.655 341.600,157.809 341.495,158.145 341.366 C 158.934 341.063,159.140 318.291,158.362 317.354 C 157.832 316.716,114.227 316.508,113.836 317.142 M180.981 317.305 C 180.875 317.582,180.835 323.117,180.894 329.605 L 181.000 341.400 203.500 341.503 L 226.000 341.607 226.000 329.203 L 226.000 316.800 203.587 316.800 C 185.917 316.800,181.134 316.907,180.981 317.305 M248.396 317.313 C 248.394 317.581,248.349 323.056,248.296 329.480 C 248.202 340.862,248.220 341.165,249.000 341.374 C 249.440 341.492,259.565 341.592,271.500 341.595 L 293.200 341.600 293.200 329.204 L 293.200 316.808 270.800 316.817 C 253.474 316.824,248.399 316.936,248.396 317.313 " stroke="none" fill="#ecfcfc" fill-rule="evenodd"></path><path id="path1" d="M289.400 28.400 C 290.259 29.280,291.052 30.000,291.162 30.000 C 291.272 30.000,290.659 29.280,289.800 28.400 C 288.941 27.520,288.148 26.800,288.038 26.800 C 287.928 26.800,288.541 27.520,289.400 28.400 M224.060 40.642 C 223.762 40.978,223.599 41.332,223.695 41.429 C 223.792 41.526,224.198 41.244,224.598 40.802 C 224.997 40.361,225.161 40.007,224.962 40.015 C 224.763 40.024,224.357 40.305,224.060 40.642 M305.800 44.800 C 306.659 45.680,307.452 46.400,307.562 46.400 C 307.672 46.400,307.059 45.680,306.200 44.800 C 305.341 43.920,304.548 43.200,304.438 43.200 C 304.328 43.200,304.941 43.920,305.800 44.800 M278.050 52.700 C 278.760 53.606,280.061 54.800,280.340 54.800 C 280.459 54.800,279.946 54.170,279.200 53.400 C 277.759 51.913,277.138 51.535,278.050 52.700 M207.260 57.451 C 206.743 58.002,206.396 58.529,206.489 58.622 C 206.582 58.715,207.174 58.254,207.804 57.596 C 208.434 56.938,208.781 56.411,208.575 56.424 C 208.369 56.438,207.777 56.900,207.260 57.451 M295.600 70.126 C 295.600 70.497,298.455 73.278,298.643 73.090 C 298.721 73.012,298.069 72.248,297.193 71.393 C 296.317 70.537,295.600 69.967,295.600 70.126 M190.460 74.242 C 190.162 74.578,189.999 74.932,190.095 75.029 C 190.192 75.126,190.598 74.844,190.998 74.402 C 191.397 73.961,191.561 73.607,191.362 73.615 C 191.163 73.624,190.757 73.905,190.460 74.242 M339.400 78.400 C 340.259 79.280,341.052 80.000,341.162 80.000 C 341.272 80.000,340.659 79.280,339.800 78.400 C 338.941 77.520,338.148 76.800,338.038 76.800 C 337.928 76.800,338.541 77.520,339.400 78.400 M310.420 91.779 L 308.640 93.800 310.601 91.914 C 311.679 90.877,312.480 89.967,312.381 89.893 C 312.281 89.819,311.399 90.667,310.420 91.779 M174.060 90.642 C 173.762 90.978,173.599 91.332,173.695 91.429 C 173.792 91.526,174.198 91.244,174.598 90.802 C 174.997 90.361,175.161 90.007,174.962 90.015 C 174.763 90.024,174.357 90.305,174.060 90.642 M355.800 94.800 C 356.659 95.680,357.452 96.400,357.562 96.400 C 357.672 96.400,357.059 95.680,356.200 94.800 C 355.341 93.920,354.548 93.200,354.438 93.200 C 354.328 93.200,354.941 93.920,355.800 94.800 M307.047 95.061 C 306.124 95.855,305.996 96.148,306.405 96.527 C 306.786 96.879,306.850 96.880,306.655 96.532 C 306.510 96.274,306.871 95.688,307.457 95.226 C 308.043 94.766,308.450 94.317,308.361 94.228 C 308.272 94.140,307.681 94.515,307.047 95.061 M304.089 97.858 C 303.367 98.596,302.929 99.200,303.114 99.200 C 303.537 99.200,305.802 96.860,305.571 96.662 C 305.477 96.582,304.810 97.120,304.089 97.858 M294.870 107.222 C 294.358 107.870,294.062 108.400,294.212 108.400 C 294.362 108.400,294.840 107.948,295.274 107.396 C 295.709 106.844,296.257 106.512,296.494 106.658 C 296.749 106.815,296.807 106.736,296.638 106.462 C 296.217 105.780,295.901 105.916,294.870 107.222 M326.247 111.447 C 323.248 114.462,320.846 116.979,320.908 117.042 C 320.971 117.104,323.491 114.704,326.509 111.709 C 329.527 108.714,331.930 106.196,331.848 106.115 C 331.766 106.033,329.246 108.433,326.247 111.447 M157.260 107.451 C 156.743 108.002,156.396 108.529,156.489 108.622 C 156.582 108.715,157.174 108.254,157.804 107.596 C 158.434 106.938,158.781 106.411,158.575 106.424 C 158.369 106.438,157.777 106.900,157.260 107.451 M291.523 110.609 C 290.491 111.594,289.779 112.400,289.940 112.400 C 290.101 112.400,291.028 111.590,292.000 110.600 C 294.277 108.280,293.958 108.286,291.523 110.609 M286.889 115.058 C 286.167 115.796,285.807 116.390,286.089 116.378 C 286.597 116.356,288.628 114.072,288.347 113.838 C 288.266 113.771,287.610 114.320,286.889 115.058 M281.289 120.658 C 280.567 121.396,280.129 122.000,280.314 122.000 C 280.737 122.000,283.002 119.660,282.771 119.462 C 282.677 119.382,282.010 119.920,281.289 120.658 M345.600 120.330 C 345.600 120.589,345.780 120.800,346.000 120.800 C 346.220 120.800,346.400 121.059,346.400 121.376 C 346.400 122.075,347.061 122.549,347.360 122.065 C 347.478 121.873,347.131 121.299,346.588 120.788 C 346.044 120.278,345.600 120.072,345.600 120.330 M312.075 125.600 C 307.146 130.629,307.203 130.807,312.182 125.931 C 314.372 123.786,316.082 121.979,315.982 121.915 C 315.882 121.852,314.124 123.510,312.075 125.600 M278.470 123.622 C 277.655 124.653,277.626 124.800,278.236 124.800 C 278.620 124.800,278.812 124.678,278.663 124.530 C 278.514 124.381,278.786 123.841,279.266 123.330 C 279.746 122.818,279.973 122.410,279.770 122.422 C 279.566 122.434,278.981 122.974,278.470 123.622 M140.460 124.242 C 140.162 124.578,139.999 124.932,140.095 125.029 C 140.192 125.126,140.598 124.844,140.998 124.402 C 141.397 123.961,141.561 123.607,141.362 123.615 C 141.163 123.624,140.757 123.905,140.460 124.242 M343.200 125.343 C 343.200 125.668,342.975 126.014,342.700 126.112 C 342.425 126.210,342.306 126.406,342.436 126.548 C 342.565 126.689,342.982 126.462,343.362 126.042 C 343.814 125.543,343.905 125.188,343.626 125.016 C 343.392 124.871,343.200 125.018,343.200 125.343 M275.999 126.202 C 275.483 126.751,275.182 127.200,275.330 127.200 C 275.718 127.200,277.299 125.565,277.102 125.368 C 277.011 125.277,276.514 125.652,275.999 126.202 M388.906 127.828 C 389.514 128.503,389.911 129.156,389.788 129.278 C 389.666 129.401,389.843 129.608,390.183 129.738 C 391.230 130.140,390.870 129.421,389.301 127.978 C 387.988 126.771,387.939 126.753,388.906 127.828 M273.862 128.331 C 273.498 128.734,273.205 129.229,273.212 129.431 C 273.219 129.634,273.410 129.481,273.637 129.092 C 273.864 128.702,274.218 128.488,274.425 128.615 C 274.631 128.743,274.800 128.567,274.800 128.224 C 274.800 127.424,274.670 127.439,273.862 128.331 M270.489 131.458 C 269.767 132.196,269.329 132.800,269.514 132.800 C 269.937 132.800,272.202 130.460,271.971 130.262 C 271.877 130.182,271.210 130.720,270.489 131.458 M392.000 131.600 C 392.235 132.040,392.647 132.386,392.914 132.368 C 393.280 132.345,393.277 132.287,392.900 132.135 C 392.625 132.024,392.400 131.678,392.400 131.367 C 392.400 131.055,392.214 130.800,391.986 130.800 C 391.705 130.800,391.710 131.058,392.000 131.600 M265.286 136.662 C 264.285 137.689,264.564 137.905,265.742 137.013 C 266.150 136.704,266.420 136.287,266.342 136.087 C 266.264 135.887,265.789 136.145,265.286 136.662 M263.271 138.629 C 262.980 138.958,262.831 139.446,262.940 139.714 C 263.085 140.071,263.145 140.061,263.168 139.676 C 263.186 139.388,263.343 139.241,263.517 139.349 C 263.691 139.456,263.860 139.197,263.892 138.772 C 263.961 137.860,263.953 137.858,263.271 138.629 M297.800 139.906 C 297.580 140.068,297.135 140.560,296.812 141.000 C 296.378 141.591,296.509 141.546,297.312 140.830 C 298.291 139.958,298.589 139.588,298.300 139.606 C 298.245 139.609,298.020 139.744,297.800 139.906 M124.060 140.642 C 123.762 140.978,123.599 141.332,123.695 141.429 C 123.792 141.526,124.198 141.244,124.598 140.802 C 124.997 140.361,125.161 140.007,124.962 140.015 C 124.763 140.024,124.357 140.305,124.060 140.642 M294.060 143.451 C 293.543 144.002,293.196 144.529,293.289 144.622 C 293.382 144.715,293.974 144.254,294.604 143.596 C 295.234 142.938,295.581 142.411,295.375 142.424 C 295.169 142.438,294.577 142.900,294.060 143.451 M326.000 142.771 C 326.000 142.975,325.685 143.204,325.300 143.280 C 324.852 143.369,324.761 143.520,325.047 143.700 C 325.292 143.855,325.815 143.625,326.209 143.191 C 326.617 142.739,326.726 142.400,326.462 142.400 C 326.208 142.400,326.000 142.567,326.000 142.771 M375.152 152.087 C 375.337 153.198,375.393 153.255,375.519 152.454 C 375.601 151.933,375.503 151.343,375.301 151.141 C 375.079 150.919,375.021 151.293,375.152 152.087 M281.600 156.113 C 281.270 156.381,280.737 156.960,280.415 157.400 C 280.094 157.840,280.409 157.671,281.115 157.025 C 282.267 155.972,282.600 155.575,282.300 155.613 C 282.245 155.620,281.930 155.845,281.600 156.113 M245.240 156.900 C 244.701 157.776,244.708 157.781,245.476 157.099 C 245.910 156.714,246.414 156.534,246.597 156.699 C 246.779 156.865,246.799 156.775,246.641 156.500 C 246.225 155.778,245.866 155.880,245.240 156.900 M107.800 156.920 C 106.496 158.518,106.390 158.854,107.515 157.825 C 108.222 157.179,108.800 156.594,108.800 156.525 C 108.800 156.222,108.165 156.474,107.800 156.920 M375.206 157.500 C 375.211 158.301,375.309 158.447,375.569 158.036 C 375.765 157.726,375.833 157.231,375.720 156.936 C 375.396 156.090,375.199 156.306,375.206 157.500 M29.404 159.994 C 29.252 160.240,29.655 160.294,30.480 160.137 C 32.249 159.800,32.401 159.600,30.890 159.600 C 30.207 159.600,29.538 159.777,29.404 159.994 M25.447 161.021 C 25.284 161.446,25.365 161.544,25.705 161.332 C 25.977 161.162,26.549 160.969,26.976 160.903 C 28.258 160.703,28.218 160.400,26.909 160.400 C 26.172 160.400,25.591 160.647,25.447 161.021 M15.200 165.600 C 15.200 165.820,14.840 166.000,14.400 166.000 C 13.960 166.000,13.600 166.163,13.600 166.363 C 13.600 166.870,15.077 166.430,15.636 165.757 C 15.971 165.353,15.975 165.200,15.649 165.200 C 15.402 165.200,15.200 165.380,15.200 165.600 M9.305 170.308 C 8.813 170.908,8.408 171.575,8.405 171.789 C 8.402 172.003,8.676 171.784,9.013 171.302 C 9.351 170.821,10.021 170.151,10.502 169.813 C 11.082 169.407,11.179 169.203,10.789 169.208 C 10.465 169.212,9.797 169.707,9.305 170.308 M389.402 180.798 C 389.003 181.239,388.807 181.600,388.967 181.600 C 389.388 181.600,390.528 180.395,390.312 180.179 C 390.211 180.078,389.802 180.356,389.402 180.798 M350.514 184.242 C 350.027 184.769,349.771 185.200,349.945 185.200 C 350.118 185.200,350.683 184.750,351.200 184.200 C 351.717 183.650,351.973 183.219,351.770 183.242 C 351.566 183.265,351.001 183.715,350.514 184.242 M70.976 254.200 C 70.976 260.360,71.032 262.824,71.099 259.676 C 71.167 256.527,71.167 251.487,71.099 248.476 C 71.031 245.464,70.976 248.040,70.976 254.200 M90.976 329.600 C 90.976 335.870,91.032 338.435,91.099 335.300 C 91.167 332.165,91.167 327.035,91.099 323.900 C 91.032 320.765,90.976 323.330,90.976 329.600 M248.176 329.400 C 248.176 335.560,248.232 338.024,248.299 334.876 C 248.367 331.727,248.367 326.687,248.299 323.676 C 248.231 320.664,248.176 323.240,248.176 329.400 M340.000 368.567 C 340.000 368.879,339.891 369.419,339.757 369.767 C 339.624 370.115,339.675 370.400,339.872 370.400 C 340.069 370.400,340.271 369.860,340.321 369.200 C 340.372 368.540,340.320 368.000,340.206 368.000 C 340.093 368.000,340.000 368.255,340.000 368.567 M311.759 372.321 C 309.670 374.343,309.393 375.043,311.413 373.200 C 312.498 372.210,313.463 371.355,313.559 371.300 C 313.655 371.245,313.550 371.200,313.326 371.200 C 313.102 371.200,312.397 371.705,311.759 372.321 M6.800 387.095 C 6.800 387.326,7.081 387.622,7.425 387.754 C 7.769 387.886,7.939 388.176,7.802 388.397 C 7.665 388.619,7.743 388.800,7.976 388.800 C 8.639 388.800,8.476 388.193,7.600 387.400 C 7.160 387.002,6.800 386.865,6.800 387.095 M9.784 390.783 C 10.591 391.674,11.200 391.843,11.200 391.176 C 11.200 390.943,11.020 390.864,10.800 391.000 C 10.580 391.136,10.400 391.076,10.400 390.866 C 10.400 390.657,10.095 390.369,9.722 390.226 C 9.129 389.998,9.136 390.067,9.784 390.783 M11.400 392.000 C 11.264 392.220,11.433 392.400,11.776 392.400 C 12.119 392.400,12.400 392.580,12.400 392.800 C 12.400 393.020,12.582 393.200,12.803 393.200 C 13.043 393.200,13.003 392.874,12.707 392.400 C 12.154 391.514,11.773 391.397,11.400 392.000 " stroke="none" fill="#f0fcfc" fill-rule="evenodd"></path></g></svg>