<svg id="svg" xmlns="http://www.w3.org/2000/svg" xmlns:xlink="http://www.w3.org/1999/xlink" width="400" height="400" viewBox="0, 0, 400,400"><g id="svgg"><path id="path0" d="M234.766 1.095 C 226.601 3.684,225.727 4.501,147.260 82.887 L 69.911 160.156 50.354 160.156 C 22.059 160.156,13.490 163.238,5.180 176.401 C -0.365 185.185,-0.049 178.505,0.183 281.848 L 0.391 374.609 2.902 379.742 C 7.440 389.014,14.327 395.169,23.818 398.434 C 31.055 400.924,308.336 400.893,315.732 398.401 C 326.845 394.658,334.799 386.482,338.274 375.230 C 339.797 370.300,339.844 368.049,339.844 300.137 L 339.844 230.126 367.440 202.368 C 399.659 169.959,399.297 170.470,399.855 156.515 C 400.201 147.858,399.214 143.348,395.522 136.719 C 393.131 132.424,270.068 8.860,264.781 5.444 C 256.843 0.316,243.377 -1.635,234.766 1.095 M252.031 26.483 C 253.707 27.729,268.436 42.143,284.762 58.515 L 314.446 88.282 278.515 124.219 L 242.584 160.156 173.442 160.156 L 104.300 160.156 170.705 93.672 C 207.227 57.106,238.164 26.521,239.453 25.706 C 243.101 23.400,248.317 23.723,252.031 26.483 M340.030 113.857 L 347.665 121.464 328.331 140.810 L 308.996 160.156 293.369 160.156 L 277.743 160.156 304.688 133.203 C 319.507 118.379,331.804 106.250,332.013 106.250 C 332.223 106.250,335.830 109.673,340.030 113.857 M369.249 143.164 C 380.256 154.561,379.796 155.878,356.809 178.783 L 340.076 195.458 339.564 191.104 C 338.912 185.554,336.508 179.122,333.647 175.275 L 331.409 172.266 347.924 155.664 C 357.008 146.533,364.630 139.063,364.864 139.063 C 365.097 139.063,367.070 140.908,369.249 143.164 M309.319 185.743 C 315.775 189.035,315.207 180.421,315.452 278.768 C 315.689 373.558,315.857 368.323,312.449 372.204 C 308.379 376.840,314.114 376.674,167.188 376.412 C 15.320 376.141,29.546 376.754,25.532 370.313 L 23.828 367.578 23.828 279.940 L 23.828 192.302 25.462 190.096 C 26.361 188.883,28.259 187.100,29.680 186.133 L 32.262 184.375 169.451 184.376 C 298.518 184.377,306.799 184.458,309.319 185.743 M46.875 254.297 L 46.875 289.844 86.719 289.844 L 126.563 289.844 126.563 254.297 L 126.563 218.750 86.719 218.750 L 46.875 218.750 46.875 254.297 M102.344 254.297 L 102.344 265.625 86.719 265.625 L 71.094 265.625 71.094 254.297 L 71.094 242.969 86.719 242.969 L 102.344 242.969 102.344 254.297 M46.875 329.297 L 46.875 341.406 68.750 341.406 L 90.625 341.406 90.625 329.297 L 90.625 317.188 68.750 317.188 L 46.875 317.188 46.875 329.297 M114.063 329.297 L 114.063 341.406 136.328 341.406 L 158.594 341.406 158.594 329.297 L 158.594 317.188 136.328 317.188 L 114.063 317.188 114.063 329.297 M181.250 329.297 L 181.250 341.406 203.516 341.406 L 225.781 341.406 225.781 329.297 L 225.781 317.188 203.516 317.188 L 181.250 317.188 181.250 329.297 M248.438 329.297 L 248.438 341.406 270.703 341.406 L 292.969 341.406 292.969 329.297 L 292.969 317.188 270.703 317.188 L 248.438 317.188 248.438 329.297 " stroke="none" fill="#000000" fill-rule="evenodd"></path></g></svg>