<svg id="svg" version="1.1" width="512" height="512" xmlns="http://www.w3.org/2000/svg"><path d="M249.833 0.755 C 249.650 1.170,246.510 3.871,242.856 6.756 C 224.635 21.146,212.121 41.209,207.559 63.350 C 205.037 75.587,205.422 97.944,208.248 103.402 C 209.085 105.017,208.952 105.194,207.366 104.574 C 200.260 101.796,190.520 98.963,185.000 98.068 C 176.674 96.719,163.031 96.708,155.434 98.043 C 142.019 100.401,140.917 101.862,138.996 119.829 C 136.097 146.944,146.766 176.812,166.115 195.749 C 185.519 214.739,206.653 223.847,233.000 224.573 L 245.500 224.918 245.742 234.709 C 245.876 240.094,246.101 256.714,246.242 271.642 L 246.500 298.784 242.594 295.254 C 231.501 285.228,204.693 270.407,181.723 261.600 C 164.259 254.905,137.582 248.053,128.832 248.016 C 122.287 247.988,121.713 247.220,125.448 243.485 C 129.734 239.199,135.517 227.642,137.035 220.329 C 137.686 217.197,138.045 210.317,137.833 205.042 C 137.190 189.031,134.108 186.231,116.960 186.077 C 101.066 185.934,88.148 191.102,76.537 202.250 C 72.670 205.962,69.185 209.000,68.793 209.000 C 68.401 209.000,65.925 206.679,63.290 203.841 C 56.673 196.715,48.106 191.409,38.260 188.340 C 30.906 186.047,28.704 185.795,19.543 186.203 C 8.059 186.714,5.294 187.830,1.956 193.304 C -0.849 197.905,-0.846 216.228,1.961 224.386 C 4.740 232.463,8.869 239.678,12.576 242.932 L 15.759 245.727 11.629 245.275 C 8.434 244.926,6.708 245.360,4.000 247.196 C 0.800 249.365,0.476 250.037,0.225 255.034 C -0.042 260.337,0.060 260.574,3.649 263.000 L 7.349 265.500 63.425 266.133 C 122.252 266.797,123.158 266.861,144.500 271.912 C 230.191 292.193,297.834 359.080,319.466 444.922 C 323.201 459.746,324.985 471.658,326.005 488.582 C 326.793 501.670,327.291 504.745,329.155 508.061 C 331.294 511.867,331.546 512.000,336.633 512.000 C 341.400 512.000,342.132 511.693,344.366 508.750 C 346.336 506.155,346.979 503.788,347.556 497.000 C 350.261 465.203,370.033 439.829,400.255 429.370 C 410.097 425.964,424.066 425.083,468.938 425.037 C 505.040 425.000,505.407 424.979,508.713 422.750 C 511.892 420.607,512.038 420.240,511.775 415.034 C 511.525 410.066,511.190 409.360,508.102 407.284 L 504.704 405.000 458.810 405.000 C 408.508 405.000,405.566 405.261,389.668 411.122 C 376.163 416.102,367.425 421.657,356.179 432.411 C 349.887 438.429,344.673 445.326,343.261 449.500 L 342.247 452.500 341.635 449.500 C 338.644 434.830,333.871 419.002,328.379 405.536 C 324.781 396.716,321.593 388.465,321.293 387.199 C 320.540 384.023,323.403 381.208,335.890 372.844 C 351.537 362.363,365.038 356.064,382.000 351.332 C 397.825 346.918,406.771 346.009,434.500 345.998 C 449.650 345.993,462.087 345.548,464.302 344.933 C 470.717 343.152,474.167 334.539,470.540 329.360 C 467.504 325.026,464.967 324.763,431.292 325.286 C 401.707 325.746,398.705 325.960,388.041 328.371 C 358.041 335.153,341.280 343.082,311.012 364.810 C 309.367 365.991,308.713 365.449,304.386 359.310 C 295.512 346.721,288.325 337.550,281.140 329.647 C 277.213 325.327,274.000 321.175,274.000 320.420 C 274.000 316.901,299.995 299.514,319.500 289.986 C 334.580 282.620,354.072 275.535,368.500 272.174 C 392.115 266.674,392.166 266.670,450.075 266.068 L 504.651 265.500 508.351 263.000 C 511.940 260.574,512.042 260.337,511.775 255.034 C 511.524 250.037,511.200 249.365,508.000 247.196 C 505.292 245.360,503.566 244.926,500.371 245.275 L 496.241 245.727 499.424 242.932 C 503.131 239.678,507.260 232.463,510.039 224.386 C 512.846 216.228,512.849 197.905,510.044 193.304 C 506.706 187.830,503.941 186.714,492.457 186.203 C 483.296 185.795,481.094 186.047,473.740 188.340 C 463.894 191.409,455.327 196.715,448.710 203.841 C 446.075 206.679,443.599 209.000,443.207 209.000 C 442.815 209.000,439.260 205.891,435.307 202.092 C 423.772 191.005,411.019 185.933,395.040 186.077 C 377.892 186.231,374.810 189.031,374.167 205.042 C 373.561 220.140,376.896 231.230,385.365 242.276 C 389.407 247.548,389.438 247.504,381.000 248.466 C 358.670 251.011,317.900 265.564,295.314 279.052 C 285.626 284.838,271.634 294.336,268.500 297.255 C 266.506 299.112,266.499 299.066,266.228 280.559 C 266.078 270.351,266.078 253.657,266.228 243.460 L 266.500 224.920 279.000 224.575 C 288.377 224.315,293.966 223.582,301.369 221.642 C 346.979 209.686,377.794 165.728,372.996 119.463 C 371.784 107.777,369.423 101.808,365.385 100.220 C 357.368 97.069,339.389 96.061,327.000 98.068 C 321.480 98.963,311.740 101.796,304.634 104.574 C 303.048 105.194,302.915 105.017,303.752 103.402 C 306.567 97.966,306.960 75.621,304.458 63.350 C 300.011 41.546,287.199 21.015,269.144 6.756 C 265.490 3.871,262.350 1.170,262.167 0.755 C 261.732 -0.230,250.268 -0.230,249.833 0.755 M261.833 27.589 C 270.386 34.910,279.327 50.037,283.177 63.701 C 284.868 69.705,285.370 74.147,285.356 83.000 C 285.336 95.321,283.858 102.741,279.428 112.759 C 276.612 119.127,268.284 133.519,266.612 134.908 C 265.800 135.583,265.592 129.237,265.843 111.347 C 266.215 84.735,265.884 82.544,261.053 79.691 C 257.430 77.550,254.570 77.550,250.947 79.691 C 246.116 82.544,245.785 84.735,246.157 111.347 C 246.408 129.237,246.200 135.583,245.388 134.908 C 243.716 133.519,235.388 119.127,232.572 112.759 C 228.128 102.711,226.662 95.329,226.662 83.000 C 226.662 66.596,229.909 55.472,238.740 41.622 C 243.922 33.494,253.089 24.000,255.755 24.000 C 256.792 24.000,259.527 25.615,261.833 27.589 M184.201 119.092 C 208.158 124.031,226.473 138.030,237.062 159.500 C 242.128 169.771,244.555 177.484,245.528 186.409 L 246.084 191.500 243.796 188.500 C 239.439 182.786,211.487 154.834,208.629 153.332 C 199.989 148.793,190.749 158.913,195.419 167.800 C 196.935 170.684,222.823 196.488,229.500 201.769 C 233.275 204.755,233.359 204.935,231.000 204.964 C 229.625 204.981,224.225 203.868,219.000 202.490 C 183.834 193.218,161.811 167.041,159.305 131.535 C 158.818 124.629,159.013 122.629,160.378 120.546 C 161.947 118.151,162.547 118.000,170.474 118.000 C 175.109 118.000,181.286 118.492,184.201 119.092 M351.458 120.296 C 352.617 122.064,352.856 124.652,352.497 131.546 C 350.682 166.431,328.394 192.995,293.000 202.456 C 287.775 203.852,282.375 204.981,281.000 204.964 C 278.641 204.935,278.725 204.755,282.500 201.769 C 289.177 196.488,315.065 170.684,316.581 167.800 C 321.251 158.913,312.011 148.793,303.371 153.332 C 300.399 154.893,272.169 183.202,268.301 188.500 L 266.111 191.500 266.071 188.500 C 265.992 182.640,270.053 169.358,274.936 159.500 C 287.772 133.586,311.883 118.414,340.727 118.100 C 349.303 118.007,350.060 118.162,351.458 120.296 M38.765 211.110 C 49.311 216.500,56.677 227.297,58.258 239.683 C 58.913 244.819,57.896 245.381,50.715 243.857 C 39.010 241.371,29.374 234.185,24.558 224.351 C 21.633 218.377,20.247 211.404,21.392 208.421 C 22.409 205.769,30.883 207.081,38.765 211.110 M116.728 213.059 C 115.304 228.772,101.900 241.943,84.711 244.521 L 80.000 245.227 80.000 240.651 C 80.000 230.195,87.674 217.622,97.480 212.012 C 104.280 208.121,107.167 207.198,112.889 207.086 L 117.278 207.000 116.728 213.059 M413.509 211.468 C 423.986 217.327,432.000 229.680,432.000 239.970 C 432.000 244.891,430.369 245.508,422.661 243.500 C 415.114 241.534,412.389 240.054,406.401 234.671 C 400.046 228.957,395.996 221.046,395.258 212.906 L 394.695 206.695 400.829 207.251 C 405.335 207.659,408.700 208.779,413.509 211.468 M490.400 213.007 C 490.144 227.116,477.617 240.389,461.285 243.857 C 454.104 245.381,453.087 244.819,453.742 239.683 C 455.063 229.337,461.950 217.666,469.483 213.011 C 475.456 209.319,482.242 207.031,486.500 207.273 L 490.500 207.500 490.400 213.007 M3.981 327.228 C 0.799 329.367,0.476 330.039,0.225 335.034 C -0.042 340.337,0.060 340.574,3.649 343.000 L 7.349 345.500 60.425 346.087 C 117.613 346.719,118.740 346.818,137.500 352.863 C 177.778 365.843,211.305 394.725,230.525 433.000 C 238.601 449.081,245.914 476.587,246.060 491.425 C 246.153 500.934,247.442 506.777,250.061 509.565 C 252.084 511.718,253.168 512.046,257.433 511.795 C 261.879 511.533,262.698 511.112,264.826 508.000 C 267.145 504.610,267.202 504.074,266.635 491.000 C 263.773 424.928,219.539 363.145,157.090 337.992 C 145.693 333.401,133.283 329.714,121.262 327.346 C 113.813 325.878,104.632 325.565,59.981 325.254 L 7.461 324.889 3.981 327.228 M497.308 326.010 C 491.355 328.407,490.286 338.269,495.494 342.748 C 499.207 345.942,504.917 345.782,508.971 342.371 C 511.820 339.973,512.069 339.294,511.798 334.655 C 511.533 330.132,511.123 329.314,508.102 327.284 C 504.573 324.912,501.063 324.497,497.308 326.010 M3.898 407.284 C 0.810 409.360,0.475 410.066,0.225 415.034 C -0.038 420.240,0.108 420.607,3.287 422.750 C 6.598 424.982,6.916 425.000,44.062 425.029 C 90.402 425.065,103.910 425.939,114.045 429.555 C 144.144 440.295,162.734 463.832,166.129 495.500 C 166.994 503.566,167.683 506.138,169.689 508.799 C 172.009 511.876,172.522 512.078,177.305 511.799 C 181.873 511.533,182.682 511.129,184.716 508.102 C 190.614 499.327,185.050 471.619,173.475 452.119 C 162.321 433.330,144.706 418.635,124.332 411.122 C 108.391 405.245,105.587 405.000,54.190 405.000 L 7.296 405.000 3.898 407.284 " stroke="none" fill="undefined" fill-rule="evenodd"/></svg>