<svg id="svg" version="1.1" xmlns="http://www.w3.org/2000/svg" xmlns:xlink="http://www.w3.org/1999/xlink" width="400" height="400" viewBox="0, 0, 400,400"><g id="svgg"><path id="path0" d="M26.000 200.000 L 26.000 400.000 123.350 400.000 L 220.700 400.000 220.950 398.750 C 221.088 398.063,221.200 349.103,221.200 289.950 C 221.200 230.798,221.335 182.403,221.500 182.406 C 222.452 182.426,222.702 183.424,222.950 188.200 C 223.403 196.930,223.541 197.647,224.862 198.146 L 226.000 198.575 225.997 202.788 C 225.993 209.533,226.695 213.230,228.079 213.752 L 229.200 214.175 229.200 218.367 C 229.200 225.256,229.924 229.205,231.234 229.467 L 232.300 229.680 232.516 236.340 C 232.758 243.826,232.928 244.717,234.173 245.029 C 235.013 245.240,235.068 245.544,235.462 252.133 C 235.881 259.144,236.277 260.800,237.536 260.800 C 238.170 260.800,238.289 261.545,238.681 268.010 C 239.128 275.377,239.392 276.400,240.849 276.400 C 241.538 276.400,241.600 276.763,241.600 280.823 C 241.600 288.299,242.411 292.000,244.049 292.000 C 244.737 292.000,244.800 292.360,244.799 296.300 C 244.799 303.391,245.483 307.197,246.806 307.461 L 247.884 307.677 248.123 314.138 C 248.393 321.462,248.682 322.945,249.872 323.121 C 250.640 323.234,250.708 323.613,250.976 329.238 C 251.310 336.267,251.823 338.541,253.116 338.728 C 253.918 338.844,254.000 339.084,254.003 341.328 C 254.014 349.148,254.983 354.400,256.414 354.400 C 257.111 354.400,257.201 354.684,257.206 356.900 C 257.227 365.229,258.117 370.000,259.649 370.000 C 260.340 370.000,260.402 370.378,260.425 374.700 C 260.464 381.984,261.112 385.367,262.500 385.527 L 263.600 385.653 263.602 389.527 C 263.604 391.657,263.720 394.885,263.862 396.700 L 264.119 400.000 275.259 400.000 C 281.387 400.000,286.400 399.845,286.400 399.656 C 286.400 399.467,289.333 399.223,292.917 399.114 C 299.778 398.906,300.985 398.616,301.588 397.033 C 301.927 396.140,302.123 396.107,308.468 395.882 C 316.043 395.613,316.579 395.498,317.192 394.020 L 317.649 392.916 324.364 392.704 C 331.191 392.489,332.557 392.196,332.982 390.856 C 333.195 390.186,333.872 390.081,339.673 389.821 C 346.769 389.503,347.802 389.273,348.445 387.862 C 348.868 386.933,349.049 386.900,355.303 386.620 C 362.387 386.303,363.401 386.073,364.053 384.643 C 364.475 383.718,364.700 383.663,368.635 383.535 C 374.472 383.345,374.214 383.762,374.141 374.614 C 374.076 366.554,373.707 364.543,372.225 364.171 C 371.339 363.948,371.305 363.761,371.039 357.671 C 370.729 350.557,370.363 348.906,369.019 348.569 C 368.119 348.343,368.094 348.194,367.816 341.469 C 367.519 334.287,367.147 332.800,365.646 332.800 C 364.969 332.800,364.895 332.267,364.717 326.089 C 364.513 319.019,364.231 317.820,362.633 317.212 C 361.739 316.873,361.708 316.686,361.502 310.332 C 361.276 303.403,360.898 301.600,359.669 301.600 C 358.977 301.600,358.896 301.091,358.634 295.126 C 358.329 288.196,357.810 286.000,356.476 286.000 C 355.766 286.000,355.690 285.532,355.420 279.502 C 355.110 272.568,354.599 270.400,353.278 270.400 C 352.572 270.400,352.495 269.933,352.236 264.100 C 351.905 256.615,351.550 254.906,350.292 254.727 C 349.423 254.603,349.393 254.431,349.141 248.000 C 348.857 240.772,348.529 239.330,347.122 239.131 C 346.214 239.002,346.196 238.898,345.941 232.400 C 345.657 225.172,345.329 223.730,343.922 223.531 C 343.014 223.402,342.996 223.303,342.752 216.778 C 342.472 209.334,342.308 208.497,341.027 208.010 C 340.159 207.680,340.110 207.412,339.841 201.533 C 339.520 194.498,339.086 192.498,337.843 192.320 C 337.044 192.206,336.984 191.885,336.698 186.200 C 336.338 179.053,335.873 176.896,334.654 176.722 C 333.834 176.605,333.790 176.340,333.541 170.000 C 333.257 162.766,332.948 161.424,331.481 161.056 C 330.506 160.811,330.504 160.799,330.305 154.305 C 330.088 147.226,329.768 145.829,328.281 145.456 C 327.308 145.212,327.303 145.187,327.072 138.705 C 326.798 131.034,326.624 130.089,325.458 129.922 C 324.640 129.806,324.586 129.519,324.298 123.800 C 323.937 116.635,323.485 114.558,322.215 114.240 C 321.346 114.021,321.307 113.804,321.037 107.707 C 320.732 100.810,320.298 98.890,318.967 98.556 C 318.142 98.349,318.092 98.049,317.813 91.693 C 317.491 84.328,317.268 83.333,315.865 82.981 C 314.907 82.740,314.901 82.706,314.723 76.269 C 314.531 69.330,314.089 67.500,312.552 67.279 C 311.748 67.164,311.700 66.869,311.467 60.679 C 311.178 52.976,311.009 52.068,309.807 51.766 C 308.938 51.548,308.899 51.330,308.619 45.073 C 308.309 38.165,307.798 36.000,306.476 36.000 C 305.766 36.000,305.690 35.532,305.420 29.502 C 305.109 22.564,304.600 20.400,303.276 20.400 C 302.566 20.400,302.490 19.932,302.220 13.902 C 301.905 6.863,301.406 4.800,300.020 4.800 C 299.284 4.800,299.200 4.553,299.200 2.400 L 299.200 0.000 289.400 0.000 C 283.133 0.000,279.600 0.144,279.600 0.400 C 279.600 0.623,278.496 0.803,277.100 0.807 C 269.281 0.827,264.583 1.617,264.244 2.968 C 264.024 3.842,263.800 3.888,258.508 4.146 C 249.991 4.562,249.161 4.718,248.675 6.006 L 248.264 7.095 242.232 7.365 C 234.153 7.727,233.590 7.843,233.057 9.255 L 232.625 10.400 227.812 10.405 C 225.166 10.408,222.595 10.519,222.100 10.652 L 221.200 10.893 221.200 5.447 L 221.200 0.000 123.600 0.000 L 26.000 0.000 26.000 200.000 M107.600 178.200 L 107.600 329.200 81.600 329.200 L 55.600 329.200 55.600 178.200 L 55.600 27.200 81.600 27.200 L 107.600 27.200 107.600 178.200 M191.600 178.200 L 191.600 329.200 165.600 329.200 L 139.600 329.200 139.600 178.200 L 139.600 27.200 165.600 27.200 L 191.600 27.200 191.600 178.200 M273.410 35.739 C 273.724 38.253,273.930 38.657,275.000 38.858 C 275.742 38.998,275.821 39.443,276.085 45.004 C 276.457 52.824,276.717 54.098,278.004 54.400 C 278.994 54.633,279.002 54.670,279.285 60.617 C 279.666 68.611,279.911 69.765,281.259 69.922 L 282.309 70.044 282.492 76.722 C 282.687 83.831,283.065 85.600,284.390 85.600 C 285.116 85.600,285.201 85.859,285.206 88.100 C 285.226 95.966,286.054 101.094,287.334 101.277 C 288.163 101.395,288.219 101.691,288.641 108.200 C 289.151 116.046,289.283 116.634,290.614 116.968 C 291.586 117.212,291.600 117.278,291.597 121.508 C 291.593 128.349,292.285 132.001,293.676 132.487 L 294.800 132.878 294.797 137.139 C 294.793 143.813,295.497 147.631,296.825 148.132 L 297.891 148.534 298.135 154.767 C 298.423 162.115,298.613 163.132,299.799 163.672 C 300.640 164.056,300.708 164.406,300.975 169.740 C 301.339 177.004,301.773 179.128,302.952 179.424 C 303.801 179.637,303.857 179.933,304.282 186.523 C 304.775 194.159,304.898 194.709,306.187 195.033 C 307.048 195.248,307.098 195.496,307.357 200.729 C 307.782 209.348,307.916 210.038,309.259 210.545 L 310.400 210.975 310.400 215.311 C 310.400 222.573,311.245 226.400,312.849 226.400 C 313.537 226.400,313.600 226.760,313.599 230.700 C 313.599 237.252,314.297 241.559,315.405 241.837 C 316.243 242.047,316.300 242.330,316.554 247.529 C 316.896 254.527,317.433 257.143,318.585 257.432 C 319.393 257.635,319.461 258.014,319.875 264.567 C 320.321 271.637,320.693 273.200,321.930 273.200 C 322.557 273.200,322.682 273.977,323.093 280.431 C 323.561 287.778,323.824 288.800,325.249 288.800 C 325.938 288.800,326.000 289.163,326.000 293.223 C 326.000 300.489,326.841 304.400,328.404 304.400 C 329.027 304.400,329.911 315.576,329.349 316.345 C 329.291 316.425,327.569 316.626,325.522 316.794 C 321.154 317.150,320.489 317.373,320.323 318.534 C 320.206 319.358,319.928 319.415,314.600 319.705 C 306.011 320.172,305.026 320.374,304.873 321.702 C 304.751 322.767,304.672 322.800,302.273 322.806 C 293.970 322.828,289.200 323.719,289.200 325.249 C 289.200 325.911,288.873 326.000,286.443 326.000 C 283.520 326.000,283.200 325.786,283.200 323.827 C 283.200 321.990,282.371 320.400,281.413 320.400 C 280.514 320.400,280.502 320.329,280.286 313.900 C 280.031 306.268,279.766 305.050,278.325 304.878 L 277.303 304.757 277.086 298.278 C 276.843 291.016,276.538 289.458,275.328 289.279 C 274.556 289.166,274.493 288.790,274.219 282.682 C 273.910 275.768,273.398 273.600,272.078 273.600 C 271.372 273.600,271.294 273.133,271.035 267.300 C 270.715 260.097,270.290 258.098,269.043 257.920 C 268.241 257.806,268.179 257.457,267.777 250.800 C 267.316 243.163,267.183 242.583,265.827 242.243 C 264.932 242.018,264.908 241.871,264.701 235.506 C 264.470 228.401,264.156 227.026,262.685 226.657 C 261.716 226.414,261.712 226.389,261.501 219.906 C 261.278 213.047,260.946 211.436,259.693 211.108 C 258.992 210.925,258.899 210.359,258.642 204.754 C 258.320 197.699,257.886 195.698,256.643 195.520 C 255.844 195.406,255.784 195.085,255.498 189.400 C 255.138 182.238,254.685 180.158,253.417 179.840 C 252.552 179.623,252.509 179.394,252.241 173.507 C 251.909 166.215,251.541 164.501,250.237 164.173 C 249.316 163.942,249.299 163.842,249.104 157.469 C 248.888 150.450,248.545 148.952,247.065 148.581 C 246.110 148.341,246.100 148.287,245.871 141.869 C 245.587 133.917,245.443 133.229,244.004 132.941 L 242.908 132.722 242.681 126.061 C 242.423 118.515,242.262 117.681,241.007 117.366 C 240.138 117.148,240.099 116.929,239.819 110.673 C 239.509 103.765,238.998 101.600,237.676 101.600 C 236.966 101.600,236.890 101.132,236.620 95.102 C 236.309 88.157,235.800 86.000,234.472 86.000 C 233.754 86.000,233.690 85.573,233.498 79.500 C 233.269 72.294,232.835 70.400,231.413 70.400 C 230.514 70.400,230.502 70.329,230.286 63.900 C 230.029 56.195,229.773 55.050,228.274 54.873 L 227.200 54.747 227.195 49.673 C 227.192 46.883,227.087 44.221,226.963 43.758 C 226.750 42.963,226.933 42.899,230.205 42.634 C 234.255 42.305,235.441 41.932,235.774 40.880 C 235.994 40.190,236.594 40.087,241.909 39.833 C 249.070 39.491,251.046 39.070,251.359 37.819 C 251.578 36.950,251.805 36.906,257.493 36.634 C 264.764 36.286,266.720 35.860,267.048 34.551 C 267.272 33.658,267.465 33.600,270.215 33.600 L 273.142 33.600 273.410 35.739 M65.313 45.481 C 63.942 45.746,63.800 47.327,63.800 62.280 C 63.800 72.973,63.914 76.074,64.320 76.480 C 65.240 77.400,100.549 77.223,101.478 76.294 C 102.581 75.190,102.780 52.696,101.723 48.601 C 101.061 46.039,100.899 45.781,99.800 45.548 C 98.476 45.268,66.732 45.206,65.313 45.481 M147.930 45.490 C 145.089 45.789,144.674 48.250,144.876 63.600 C 145.028 75.144,145.132 76.079,146.331 76.665 C 147.505 77.239,180.307 77.329,182.705 76.765 C 185.945 76.003,185.800 76.683,185.800 62.239 C 185.800 43.659,187.621 45.174,165.406 45.267 C 156.603 45.304,148.739 45.404,147.930 45.490 M258.000 54.403 C 253.540 54.802,252.000 55.292,252.000 56.312 C 252.000 56.976,251.351 57.084,244.900 57.484 C 236.358 58.015,236.564 57.946,236.026 60.452 C 235.044 65.034,235.558 69.532,237.171 70.457 L 238.277 71.092 238.553 77.646 C 239.015 88.629,239.972 89.874,247.800 89.679 C 252.651 89.559,254.311 89.095,254.644 87.769 C 254.868 86.876,255.078 86.800,257.343 86.798 C 265.461 86.792,268.824 86.330,270.896 84.936 C 272.178 84.073,273.362 83.600,274.240 83.600 C 277.138 83.600,277.329 82.959,277.085 74.050 C 276.846 65.339,276.702 64.491,275.408 64.166 C 274.569 63.956,274.498 63.673,274.297 59.726 C 274.140 56.652,273.912 55.340,273.454 54.883 C 272.697 54.126,264.095 53.859,258.000 54.403 M336.278 350.000 C 336.582 350.805,337.005 351.200,337.565 351.200 C 338.341 351.200,338.400 351.423,338.400 354.341 L 338.400 357.482 334.900 357.711 C 330.626 357.992,330.000 358.213,330.000 359.443 C 330.000 360.397,329.984 360.400,325.300 360.425 C 318.143 360.463,314.633 361.118,314.479 362.444 L 314.358 363.488 308.079 363.730 C 300.579 364.020,299.047 364.308,298.879 365.463 C 298.779 366.155,290.777 367.241,290.149 366.648 C 289.404 365.945,289.881 358.016,290.681 357.815 C 291.202 357.685,291.787 357.160,291.981 356.650 C 292.320 355.759,292.560 355.711,298.067 355.440 C 304.955 355.101,307.130 354.636,307.599 353.402 C 307.917 352.566,308.253 352.499,313.468 352.228 C 320.225 351.877,322.947 351.269,323.126 350.070 C 323.246 349.270,323.518 349.217,328.126 349.099 C 330.807 349.030,333.636 348.934,334.412 348.886 C 335.648 348.811,335.881 348.950,336.278 350.000 M107.600 364.400 L 107.600 370.000 81.600 370.000 L 55.600 370.000 55.600 364.400 L 55.600 358.800 81.600 358.800 L 107.600 358.800 107.600 364.400 M191.600 364.400 L 191.600 370.000 165.600 370.000 L 139.600 370.000 139.600 364.400 L 139.600 358.800 165.600 358.800 L 191.600 358.800 191.600 364.400 " stroke="none" fill="#040404" fill-rule="evenodd"></path><path id="path1" d="" stroke="none" fill="#080404" fill-rule="evenodd"></path></g></svg>